  0
SECTION
  2
HEADER
  9
$ANGBASE
  50
0.0
  9
$ANGDIR
  70
1
  9
$MEASUREMENT
  70
0
  0
ENDSEC
  0
SECTION
  2
TABLES
  0
TABLE
  2
LTYPE
  70
4
  0
LTYPE
  5
40F
  2
CONTINUOUS
  70
0
  3
Solid line
  72
65
  73
0
  40
0.0
  0
LTYPE
  5
410
  2
DASHDOT
 70
0
  3
Dash Dot ____ _ ____ _
 72
65
 73
4
 40
2.0
 49
1.25
 49
-0.25
 49
0.25
 49
-0.25
  0
LTYPE
  5
411
  2
DASHED
 70
0
  3
Dashed __ __ __ __ __
 72
65
 73
2
 40
0.75
 49
0.5
 49
-0.25
  0
LTYPE
  5
43B
  2
DOTTED
 70
0
  3
Dotted .  .  .  .
 72
65
 73
2
 40
0.2
 49
0.0
 49
-0.2
  0
ENDTAB
  0
TABLE
  2
STYLE
  70
4
  0
STYLE
  2
KICAD
  70
0
  40
0
  41
1
  42
1
  50
0
  71
0
  3
isocp.shx
  0
STYLE
  2
KICADB
  70
0
  40
0
  41
1
  42
1
  50
0
  71
0
  3
isocp.shx
  0
STYLE
  2
KICADI
  70
0
  40
0
  41
1
  42
1
  50
15
  71
0
  3
isocp.shx
  0
STYLE
  2
KICADBI
  70
0
  40
0
  41
1
  42
1
  50
15
  71
0
  3
isocp.shx
  0
ENDTAB
  0
TABLE
  2
LAYER
  70
1
  0
LAYER
  2
BLACK
  70
0
  62
7
  6
CONTINUOUS
  0
ENDTAB
  0
ENDSEC
  0
SECTION
  2
ENTITIES
0
LINE
8
BLACK
6
CONTINUOUS
10
3.8397573228346458
20
-4.2428402755905514
11
3.8533919291338581
21
-4.245841496062992
0
LINE
8
BLACK
6
CONTINUOUS
10
3.8533919291338581
20
-4.245841496062992
11
3.8666221259842519
21
-4.2502992519685039
0
LINE
8
BLACK
6
CONTINUOUS
10
3.8666221259842519
20
-4.2502992519685039
11
3.879292834645669
21
-4.2561613385826771
0
LINE
8
BLACK
6
CONTINUOUS
10
3.879292834645669
20
-4.2561613385826771
11
3.891255433070866
21
-4.2633590157480317
0
LINE
8
BLACK
6
CONTINUOUS
10
3.891255433070866
20
-4.2633590157480317
11
3.9023696850393699
21
-4.2718078346456689
0
LINE
8
BLACK
6
CONTINUOUS
10
3.9023696850393699
20
-4.2718078346456689
11
3.9125053149606299
21
-4.2814088188976376
0
LINE
8
BLACK
6
CONTINUOUS
10
3.9125053149606299
20
-4.2814088188976376
11
3.9215435039370079
21
-4.2920493700787397
0
LINE
8
BLACK
6
CONTINUOUS
10
3.9215435039370079
20
-4.2920493700787397
11
3.9293782283464567
21
-4.3036047637795276
0
LINE
8
BLACK
6
CONTINUOUS
10
3.9293782283464567
20
-4.3036047637795276
11
3.9359176771653543
21
-4.3159394881889765
0
LINE
8
BLACK
6
CONTINUOUS
10
3.9359176771653543
20
-4.3159394881889765
11
3.9410851968503935
21
-4.3289089370078742
0
LINE
8
BLACK
6
CONTINUOUS
10
3.9410851968503935
20
-4.3289089370078742
11
3.944820157480315
21
-4.3423611023622044
0
LINE
8
BLACK
6
CONTINUOUS
10
3.944820157480315
20
-4.3423611023622044
11
3.9470788188976376
21
-4.3561381889763782
0
LINE
8
BLACK
6
CONTINUOUS
10
3.9470788188976376
20
-4.3561381889763782
11
3.9478346456692912
21
-4.3700787401574805
0
LINE
8
BLACK
6
CONTINUOUS
10
3.9478346456692912
20
-4.3700787401574805
11
3.9470788188976376
21
-4.3840192913385829
0
LINE
8
BLACK
6
CONTINUOUS
10
3.9470788188976376
20
-4.3840192913385829
11
3.944820157480315
21
-4.3977963779527558
0
LINE
8
BLACK
6
CONTINUOUS
10
3.944820157480315
20
-4.3977963779527558
11
3.9410851968503935
21
-4.4112485433070869
0
LINE
8
BLACK
6
CONTINUOUS
10
3.9410851968503935
20
-4.4112485433070869
11
3.9359176771653543
21
-4.4242179921259845
0
LINE
8
BLACK
6
CONTINUOUS
10
3.9359176771653543
20
-4.4242179921259845
11
3.9293782283464567
21
-4.4365527165354326
0
LINE
8
BLACK
6
CONTINUOUS
10
3.9293782283464567
20
-4.4365527165354326
11
3.9215435039370079
21
-4.4481081102362205
0
LINE
8
BLACK
6
CONTINUOUS
10
3.9215435039370079
20
-4.4481081102362205
11
3.9125053149606299
21
-4.4587486614173226
0
LINE
8
BLACK
6
CONTINUOUS
10
3.9125053149606299
20
-4.4587486614173226
11
3.9023696850393699
21
-4.4683496456692913
0
LINE
8
BLACK
6
CONTINUOUS
10
3.9023696850393699
20
-4.4683496456692913
11
3.891255433070866
21
-4.4767984645669294
0
LINE
8
BLACK
6
CONTINUOUS
10
3.891255433070866
20
-4.4767984645669294
11
3.879292834645669
21
-4.4839961417322831
0
LINE
8
BLACK
6
CONTINUOUS
10
3.879292834645669
20
-4.4839961417322831
11
3.8666221259842519
21
-4.4898582283464563
0
LINE
8
BLACK
6
CONTINUOUS
10
3.8666221259842519
20
-4.4898582283464563
11
3.8533919291338581
21
-4.4943159842519682
0
LINE
8
BLACK
6
CONTINUOUS
10
3.8533919291338581
20
-4.4943159842519682
11
3.8397573228346458
21
-4.4973172047244097
0
LINE
8
BLACK
6
CONTINUOUS
10
3.8397573228346458
20
-4.4973172047244097
11
3.8258781496062992
21
-4.4988266535433068
0
LINE
8
BLACK
6
CONTINUOUS
10
3.8258781496062992
20
-4.4988266535433068
11
3.8119171259842517
21
-4.4988266535433068
0
LINE
8
BLACK
6
CONTINUOUS
10
3.8119171259842517
20
-4.4988266535433068
11
3.7980379527559056
21
-4.4973172047244097
0
LINE
8
BLACK
6
CONTINUOUS
10
3.7980379527559056
20
-4.4973172047244097
11
3.7844033464566929
21
-4.4943159842519682
0
LINE
8
BLACK
6
CONTINUOUS
10
3.7844033464566929
20
-4.4943159842519682
11
3.771173149606299
21
-4.4898582283464563
0
LINE
8
BLACK
6
CONTINUOUS
10
3.771173149606299
20
-4.4898582283464563
11
3.758502440944882
21
-4.4839961417322831
0
LINE
8
BLACK
6
CONTINUOUS
10
3.758502440944882
20
-4.4839961417322831
11
3.746539842519685
21
-4.4767984645669294
0
LINE
8
BLACK
6
CONTINUOUS
10
3.746539842519685
20
-4.4767984645669294
11
3.7354255905511811
21
-4.4683496456692913
0
LINE
8
BLACK
6
CONTINUOUS
10
3.7354255905511811
20
-4.4683496456692913
11
3.725289960629921
21
-4.4587486614173226
0
LINE
8
BLACK
6
CONTINUOUS
10
3.725289960629921
20
-4.4587486614173226
11
3.716251771653543
21
-4.4481081102362205
0
LINE
8
BLACK
6
CONTINUOUS
10
3.716251771653543
20
-4.4481081102362205
11
3.7084170472440943
21
-4.4365527165354326
0
LINE
8
BLACK
6
CONTINUOUS
10
3.7084170472440943
20
-4.4365527165354326
11
3.7018775984251966
21
-4.4242179921259845
0
LINE
8
BLACK
6
CONTINUOUS
10
3.7018775984251966
20
-4.4242179921259845
11
3.6967100787401574
21
-4.4112485433070869
0
LINE
8
BLACK
6
CONTINUOUS
10
3.6967100787401574
20
-4.4112485433070869
11
3.6929751181102359
21
-4.3977963779527558
0
LINE
8
BLACK
6
CONTINUOUS
10
3.6929751181102359
20
-4.3977963779527558
11
3.6907164566929134
21
-4.3840192913385829
0
LINE
8
BLACK
6
CONTINUOUS
10
3.6907164566929134
20
-4.3840192913385829
11
3.6899606299212597
21
-4.3700787401574805
0
LINE
8
BLACK
6
CONTINUOUS
10
3.6899606299212597
20
-4.3700787401574805
11
3.6907164566929134
21
-4.3561381889763782
0
LINE
8
BLACK
6
CONTINUOUS
10
3.6907164566929134
20
-4.3561381889763782
11
3.6929751181102359
21
-4.3423611023622044
0
LINE
8
BLACK
6
CONTINUOUS
10
3.6929751181102359
20
-4.3423611023622044
11
3.6967100787401574
21
-4.3289089370078742
0
LINE
8
BLACK
6
CONTINUOUS
10
3.6967100787401574
20
-4.3289089370078742
11
3.7018775984251966
21
-4.3159394881889765
0
LINE
8
BLACK
6
CONTINUOUS
10
3.7018775984251966
20
-4.3159394881889765
11
3.7084170472440943
21
-4.3036047637795276
0
LINE
8
BLACK
6
CONTINUOUS
10
3.7084170472440943
20
-4.3036047637795276
11
3.716251771653543
21
-4.2920493700787397
0
LINE
8
BLACK
6
CONTINUOUS
10
3.716251771653543
20
-4.2920493700787397
11
3.725289960629921
21
-4.2814088188976376
0
LINE
8
BLACK
6
CONTINUOUS
10
3.725289960629921
20
-4.2814088188976376
11
3.7354255905511811
21
-4.2718078346456689
0
LINE
8
BLACK
6
CONTINUOUS
10
3.7354255905511811
20
-4.2718078346456689
11
3.746539842519685
21
-4.2633590157480317
0
LINE
8
BLACK
6
CONTINUOUS
10
3.746539842519685
20
-4.2633590157480317
11
3.758502440944882
21
-4.2561613385826771
0
LINE
8
BLACK
6
CONTINUOUS
10
3.758502440944882
20
-4.2561613385826771
11
3.771173149606299
21
-4.2502992519685039
0
LINE
8
BLACK
6
CONTINUOUS
10
3.771173149606299
20
-4.2502992519685039
11
3.7844033464566929
21
-4.245841496062992
0
LINE
8
BLACK
6
CONTINUOUS
10
3.7844033464566929
20
-4.245841496062992
11
3.7980379527559056
21
-4.2428402755905514
0
LINE
8
BLACK
6
CONTINUOUS
10
3.7980379527559056
20
-4.2428402755905514
11
3.8119171259842517
21
-4.2413308267716534
0
LINE
8
BLACK
6
CONTINUOUS
10
3.8119171259842517
20
-4.2413308267716534
11
3.8258781496062992
21
-4.2413308267716534
0
LINE
8
BLACK
6
CONTINUOUS
10
3.8258781496062992
20
-4.2413308267716534
11
3.8397573228346458
21
-4.2428402755905514
0
LINE
8
BLACK
6
CONTINUOUS
10
3.6964470866141732
20
-4.383875590551181
11
3.6987618110236218
21
-4.3974989763779524
0
LINE
8
BLACK
6
CONTINUOUS
10
3.6987618110236218
20
-4.3974989763779524
11
3.7025872834645668
21
-4.4107774803149606
0
LINE
8
BLACK
6
CONTINUOUS
10
3.7025872834645668
20
-4.4107774803149606
11
3.7078754330708659
21
-4.4235442125984248
0
LINE
8
BLACK
6
CONTINUOUS
10
3.7078754330708659
20
-4.4235442125984248
11
3.7145597637795276
21
-4.4356385826771652
0
LINE
8
BLACK
6
CONTINUOUS
10
3.7145597637795276
20
-4.4356385826771652
11
3.722556181102362
21
-4.4469085039370082
0
LINE
8
BLACK
6
CONTINUOUS
10
3.722556181102362
20
-4.4469085039370082
11
3.7317641732283464
21
-4.4572122047244092
0
LINE
8
BLACK
6
CONTINUOUS
10
3.7317641732283464
20
-4.4572122047244092
11
3.7420678740157478
21
-4.466420196850394
0
LINE
8
BLACK
6
CONTINUOUS
10
3.7420678740157478
20
-4.466420196850394
11
3.7533377952755904
21
-4.4744166141732284
0
LINE
8
BLACK
6
CONTINUOUS
10
3.7533377952755904
20
-4.4744166141732284
11
3.7654321653543308
21
-4.4811009448818897
0
LINE
8
BLACK
6
CONTINUOUS
10
3.7654321653543308
20
-4.4811009448818897
11
3.7781988976377954
21
-4.4863890944881888
0
LINE
8
BLACK
6
CONTINUOUS
10
3.7781988976377954
20
-4.4863890944881888
11
3.7914774015748032
21
-4.4902145669291338
0
LINE
8
BLACK
6
CONTINUOUS
10
3.7914774015748032
20
-4.4902145669291338
11
3.8051007874015745
21
-4.4925292913385828
0
LINE
8
BLACK
6
CONTINUOUS
10
3.8051007874015745
20
-4.4925292913385828
11
3.8188976377952755
21
-4.493304094488189
0
LINE
8
BLACK
6
CONTINUOUS
10
3.8188976377952755
20
-4.493304094488189
11
3.8326944881889764
21
-4.4925292913385828
0
LINE
8
BLACK
6
CONTINUOUS
10
3.8326944881889764
20
-4.4925292913385828
11
3.8463178740157478
21
-4.4902145669291338
0
LINE
8
BLACK
6
CONTINUOUS
10
3.8463178740157478
20
-4.4902145669291338
11
3.859596377952756
21
-4.4863890944881888
0
LINE
8
BLACK
6
CONTINUOUS
10
3.859596377952756
20
-4.4863890944881888
11
3.8723631102362206
21
-4.4811009448818897
0
LINE
8
BLACK
6
CONTINUOUS
10
3.8723631102362206
20
-4.4811009448818897
11
3.8844574803149605
21
-4.4744166141732284
0
LINE
8
BLACK
6
CONTINUOUS
10
3.8844574803149605
20
-4.4744166141732284
11
3.8957274015748031
21
-4.466420196850394
0
LINE
8
BLACK
6
CONTINUOUS
10
3.8957274015748031
20
-4.466420196850394
11
3.9060311023622045
21
-4.4572122047244092
0
LINE
8
BLACK
6
CONTINUOUS
10
3.9060311023622045
20
-4.4572122047244092
11
3.915239094488189
21
-4.4469085039370082
0
LINE
8
BLACK
6
CONTINUOUS
10
3.915239094488189
20
-4.4469085039370082
11
3.9232355118110234
21
-4.4356385826771652
0
LINE
8
BLACK
6
CONTINUOUS
10
3.9232355118110234
20
-4.4356385826771652
11
3.9299198425196851
21
-4.4235442125984248
0
LINE
8
BLACK
6
CONTINUOUS
10
3.9299198425196851
20
-4.4235442125984248
11
3.9352079921259842
21
-4.4107774803149606
0
LINE
8
BLACK
6
CONTINUOUS
10
3.9352079921259842
20
-4.4107774803149606
11
3.9390334645669292
21
-4.3974989763779524
0
LINE
8
BLACK
6
CONTINUOUS
10
3.9390334645669292
20
-4.3974989763779524
11
3.9413481889763777
21
-4.383875590551181
0
LINE
8
BLACK
6
CONTINUOUS
10
3.9413481889763777
20
-4.383875590551181
11
3.9421229921259844
21
-4.3700787401574805
0
LINE
8
BLACK
6
CONTINUOUS
10
3.9421229921259844
20
-4.3700787401574805
11
3.9413481889763777
21
-4.3562818897637792
0
LINE
8
BLACK
6
CONTINUOUS
10
3.9413481889763777
20
-4.3562818897637792
11
3.9390334645669292
21
-4.3426585039370078
0
LINE
8
BLACK
6
CONTINUOUS
10
3.9390334645669292
20
-4.3426585039370078
11
3.9352079921259842
21
-4.3293799999999996
0
LINE
8
BLACK
6
CONTINUOUS
10
3.9352079921259842
20
-4.3293799999999996
11
3.9299198425196851
21
-4.3166132677165354
0
LINE
8
BLACK
6
CONTINUOUS
10
3.9299198425196851
20
-4.3166132677165354
11
3.9232355118110234
21
-4.304518897637795
0
LINE
8
BLACK
6
CONTINUOUS
10
3.9232355118110234
20
-4.304518897637795
11
3.915239094488189
21
-4.2932489763779529
0
LINE
8
BLACK
6
CONTINUOUS
10
3.915239094488189
20
-4.2932489763779529
11
3.9060311023622045
21
-4.282945275590551
0
LINE
8
BLACK
6
CONTINUOUS
10
3.9060311023622045
20
-4.282945275590551
11
3.8957274015748031
21
-4.273737283464567
0
LINE
8
BLACK
6
CONTINUOUS
10
3.8957274015748031
20
-4.273737283464567
11
3.8844574803149605
21
-4.2657408661417318
0
LINE
8
BLACK
6
CONTINUOUS
10
3.8844574803149605
20
-4.2657408661417318
11
3.8723631102362206
21
-4.2590565354330705
0
LINE
8
BLACK
6
CONTINUOUS
10
3.8723631102362206
20
-4.2590565354330705
11
3.859596377952756
21
-4.2537683858267714
0
LINE
8
BLACK
6
CONTINUOUS
10
3.859596377952756
20
-4.2537683858267714
11
3.8463178740157478
21
-4.2499429133858264
0
LINE
8
BLACK
6
CONTINUOUS
10
3.8463178740157478
20
-4.2499429133858264
11
3.8326944881889764
21
-4.2476281889763783
0
LINE
8
BLACK
6
CONTINUOUS
10
3.8326944881889764
20
-4.2476281889763783
11
3.8188976377952755
21
-4.2468533858267712
0
LINE
8
BLACK
6
CONTINUOUS
10
3.8188976377952755
20
-4.2468533858267712
11
3.8051007874015745
21
-4.2476281889763783
0
LINE
8
BLACK
6
CONTINUOUS
10
3.8051007874015745
20
-4.2476281889763783
11
3.7914774015748032
21
-4.2499429133858264
0
LINE
8
BLACK
6
CONTINUOUS
10
3.7914774015748032
20
-4.2499429133858264
11
3.7781988976377954
21
-4.2537683858267714
0
LINE
8
BLACK
6
CONTINUOUS
10
3.7781988976377954
20
-4.2537683858267714
11
3.7654321653543308
21
-4.2590565354330705
0
LINE
8
BLACK
6
CONTINUOUS
10
3.7654321653543308
20
-4.2590565354330705
11
3.7533377952755904
21
-4.2657408661417318
0
LINE
8
BLACK
6
CONTINUOUS
10
3.7533377952755904
20
-4.2657408661417318
11
3.7420678740157478
21
-4.273737283464567
0
LINE
8
BLACK
6
CONTINUOUS
10
3.7420678740157478
20
-4.273737283464567
11
3.7317641732283464
21
-4.282945275590551
0
LINE
8
BLACK
6
CONTINUOUS
10
3.7317641732283464
20
-4.282945275590551
11
3.722556181102362
21
-4.2932489763779529
0
LINE
8
BLACK
6
CONTINUOUS
10
3.722556181102362
20
-4.2932489763779529
11
3.7145597637795276
21
-4.304518897637795
0
LINE
8
BLACK
6
CONTINUOUS
10
3.7145597637795276
20
-4.304518897637795
11
3.7078754330708659
21
-4.3166132677165354
0
LINE
8
BLACK
6
CONTINUOUS
10
3.7078754330708659
20
-4.3166132677165354
11
3.7025872834645668
21
-4.3293799999999996
0
LINE
8
BLACK
6
CONTINUOUS
10
3.7025872834645668
20
-4.3293799999999996
11
3.6987618110236218
21
-4.3426585039370078
0
LINE
8
BLACK
6
CONTINUOUS
10
3.6987618110236218
20
-4.3426585039370078
11
3.6964470866141732
21
-4.3562818897637792
0
LINE
8
BLACK
6
CONTINUOUS
10
3.6964470866141732
20
-4.3562818897637792
11
3.695672283464567
21
-4.3700787401574805
0
LINE
8
BLACK
6
CONTINUOUS
10
3.695672283464567
20
-4.3700787401574805
11
3.6964470866141732
21
-4.383875590551181
0
LINE
8
BLACK
6
CONTINUOUS
10
9.351568346456693
20
-4.2428402755905514
11
9.3652029527559044
21
-4.245841496062992
0
LINE
8
BLACK
6
CONTINUOUS
10
9.3652029527559044
20
-4.245841496062992
11
9.3784331496062983
21
-4.2502992519685039
0
LINE
8
BLACK
6
CONTINUOUS
10
9.3784331496062983
20
-4.2502992519685039
11
9.3911038582677158
21
-4.2561613385826771
0
LINE
8
BLACK
6
CONTINUOUS
10
9.3911038582677158
20
-4.2561613385826771
11
9.4030664566929136
21
-4.2633590157480317
0
LINE
8
BLACK
6
CONTINUOUS
10
9.4030664566929136
20
-4.2633590157480317
11
9.4141807086614175
21
-4.2718078346456689
0
LINE
8
BLACK
6
CONTINUOUS
10
9.4141807086614175
20
-4.2718078346456689
11
9.4243163385826776
21
-4.2814088188976376
0
LINE
8
BLACK
6
CONTINUOUS
10
9.4243163385826776
20
-4.2814088188976376
11
9.4333545275590556
21
-4.2920493700787397
0
LINE
8
BLACK
6
CONTINUOUS
10
9.4333545275590556
20
-4.2920493700787397
11
9.4411892519685043
21
-4.3036047637795276
0
LINE
8
BLACK
6
CONTINUOUS
10
9.4411892519685043
20
-4.3036047637795276
11
9.4477287007874011
21
-4.3159394881889765
0
LINE
8
BLACK
6
CONTINUOUS
10
9.4477287007874011
20
-4.3159394881889765
11
9.4528962204724412
21
-4.3289089370078742
0
LINE
8
BLACK
6
CONTINUOUS
10
9.4528962204724412
20
-4.3289089370078742
11
9.4566311811023613
21
-4.3423611023622044
0
LINE
8
BLACK
6
CONTINUOUS
10
9.4566311811023613
20
-4.3423611023622044
11
9.4588898425196852
21
-4.3561381889763782
0
LINE
8
BLACK
6
CONTINUOUS
10
9.4588898425196852
20
-4.3561381889763782
11
9.4596456692913389
21
-4.3700787401574805
0
LINE
8
BLACK
6
CONTINUOUS
10
9.4596456692913389
20
-4.3700787401574805
11
9.4588898425196852
21
-4.3840192913385829
0
LINE
8
BLACK
6
CONTINUOUS
10
9.4588898425196852
20
-4.3840192913385829
11
9.4566311811023613
21
-4.3977963779527558
0
LINE
8
BLACK
6
CONTINUOUS
10
9.4566311811023613
20
-4.3977963779527558
11
9.4528962204724412
21
-4.4112485433070869
0
LINE
8
BLACK
6
CONTINUOUS
10
9.4528962204724412
20
-4.4112485433070869
11
9.4477287007874011
21
-4.4242179921259845
0
LINE
8
BLACK
6
CONTINUOUS
10
9.4477287007874011
20
-4.4242179921259845
11
9.4411892519685043
21
-4.4365527165354326
0
LINE
8
BLACK
6
CONTINUOUS
10
9.4411892519685043
20
-4.4365527165354326
11
9.4333545275590556
21
-4.4481081102362205
0
LINE
8
BLACK
6
CONTINUOUS
10
9.4333545275590556
20
-4.4481081102362205
11
9.4243163385826776
21
-4.4587486614173226
0
LINE
8
BLACK
6
CONTINUOUS
10
9.4243163385826776
20
-4.4587486614173226
11
9.4141807086614175
21
-4.4683496456692913
0
LINE
8
BLACK
6
CONTINUOUS
10
9.4141807086614175
20
-4.4683496456692913
11
9.4030664566929136
21
-4.4767984645669294
0
LINE
8
BLACK
6
CONTINUOUS
10
9.4030664566929136
20
-4.4767984645669294
11
9.3911038582677158
21
-4.4839961417322831
0
LINE
8
BLACK
6
CONTINUOUS
10
9.3911038582677158
20
-4.4839961417322831
11
9.3784331496062983
21
-4.4898582283464563
0
LINE
8
BLACK
6
CONTINUOUS
10
9.3784331496062983
20
-4.4898582283464563
11
9.3652029527559044
21
-4.4943159842519682
0
LINE
8
BLACK
6
CONTINUOUS
10
9.3652029527559044
20
-4.4943159842519682
11
9.351568346456693
21
-4.4973172047244097
0
LINE
8
BLACK
6
CONTINUOUS
10
9.351568346456693
20
-4.4973172047244097
11
9.3376891732283465
21
-4.4988266535433068
0
LINE
8
BLACK
6
CONTINUOUS
10
9.3376891732283465
20
-4.4988266535433068
11
9.3237281496062998
21
-4.4988266535433068
0
LINE
8
BLACK
6
CONTINUOUS
10
9.3237281496062998
20
-4.4988266535433068
11
9.3098489763779533
21
-4.4973172047244097
0
LINE
8
BLACK
6
CONTINUOUS
10
9.3098489763779533
20
-4.4973172047244097
11
9.2962143700787401
21
-4.4943159842519682
0
LINE
8
BLACK
6
CONTINUOUS
10
9.2962143700787401
20
-4.4943159842519682
11
9.2829841732283462
21
-4.4898582283464563
0
LINE
8
BLACK
6
CONTINUOUS
10
9.2829841732283462
20
-4.4898582283464563
11
9.2703134645669287
21
-4.4839961417322831
0
LINE
8
BLACK
6
CONTINUOUS
10
9.2703134645669287
20
-4.4839961417322831
11
9.2583508661417326
21
-4.4767984645669294
0
LINE
8
BLACK
6
CONTINUOUS
10
9.2583508661417326
20
-4.4767984645669294
11
9.2472366141732287
21
-4.4683496456692913
0
LINE
8
BLACK
6
CONTINUOUS
10
9.2472366141732287
20
-4.4683496456692913
11
9.2371009842519687
21
-4.4587486614173226
0
LINE
8
BLACK
6
CONTINUOUS
10
9.2371009842519687
20
-4.4587486614173226
11
9.2280627952755907
21
-4.4481081102362205
0
LINE
8
BLACK
6
CONTINUOUS
10
9.2280627952755907
20
-4.4481081102362205
11
9.2202280708661419
21
-4.4365527165354326
0
LINE
8
BLACK
6
CONTINUOUS
10
9.2202280708661419
20
-4.4365527165354326
11
9.2136886220472434
21
-4.4242179921259845
0
LINE
8
BLACK
6
CONTINUOUS
10
9.2136886220472434
20
-4.4242179921259845
11
9.2085211023622051
21
-4.4112485433070869
0
LINE
8
BLACK
6
CONTINUOUS
10
9.2085211023622051
20
-4.4112485433070869
11
9.2047861417322832
21
-4.3977963779527558
0
LINE
8
BLACK
6
CONTINUOUS
10
9.2047861417322832
20
-4.3977963779527558
11
9.202527480314961
21
-4.3840192913385829
0
LINE
8
BLACK
6
CONTINUOUS
10
9.202527480314961
20
-4.3840192913385829
11
9.2017716535433074
21
-4.3700787401574805
0
LINE
8
BLACK
6
CONTINUOUS
10
9.2017716535433074
20
-4.3700787401574805
11
9.202527480314961
21
-4.3561381889763782
0
LINE
8
BLACK
6
CONTINUOUS
10
9.202527480314961
20
-4.3561381889763782
11
9.2047861417322832
21
-4.3423611023622044
0
LINE
8
BLACK
6
CONTINUOUS
10
9.2047861417322832
20
-4.3423611023622044
11
9.2085211023622051
21
-4.3289089370078742
0
LINE
8
BLACK
6
CONTINUOUS
10
9.2085211023622051
20
-4.3289089370078742
11
9.2136886220472434
21
-4.3159394881889765
0
LINE
8
BLACK
6
CONTINUOUS
10
9.2136886220472434
20
-4.3159394881889765
11
9.2202280708661419
21
-4.3036047637795276
0
LINE
8
BLACK
6
CONTINUOUS
10
9.2202280708661419
20
-4.3036047637795276
11
9.2280627952755907
21
-4.2920493700787397
0
LINE
8
BLACK
6
CONTINUOUS
10
9.2280627952755907
20
-4.2920493700787397
11
9.2371009842519687
21
-4.2814088188976376
0
LINE
8
BLACK
6
CONTINUOUS
10
9.2371009842519687
20
-4.2814088188976376
11
9.2472366141732287
21
-4.2718078346456689
0
LINE
8
BLACK
6
CONTINUOUS
10
9.2472366141732287
20
-4.2718078346456689
11
9.2583508661417326
21
-4.2633590157480317
0
LINE
8
BLACK
6
CONTINUOUS
10
9.2583508661417326
20
-4.2633590157480317
11
9.2703134645669287
21
-4.2561613385826771
0
LINE
8
BLACK
6
CONTINUOUS
10
9.2703134645669287
20
-4.2561613385826771
11
9.2829841732283462
21
-4.2502992519685039
0
LINE
8
BLACK
6
CONTINUOUS
10
9.2829841732283462
20
-4.2502992519685039
11
9.2962143700787401
21
-4.245841496062992
0
LINE
8
BLACK
6
CONTINUOUS
10
9.2962143700787401
20
-4.245841496062992
11
9.3098489763779533
21
-4.2428402755905514
0
LINE
8
BLACK
6
CONTINUOUS
10
9.3098489763779533
20
-4.2428402755905514
11
9.3237281496062998
21
-4.2413308267716534
0
LINE
8
BLACK
6
CONTINUOUS
10
9.3237281496062998
20
-4.2413308267716534
11
9.3376891732283465
21
-4.2413308267716534
0
LINE
8
BLACK
6
CONTINUOUS
10
9.3376891732283465
20
-4.2413308267716534
11
9.351568346456693
21
-4.2428402755905514
0
LINE
8
BLACK
6
CONTINUOUS
10
9.2082581102362209
20
-4.383875590551181
11
9.210572834645669
21
-4.3974989763779524
0
LINE
8
BLACK
6
CONTINUOUS
10
9.210572834645669
20
-4.3974989763779524
11
9.2143983070866131
21
-4.4107774803149606
0
LINE
8
BLACK
6
CONTINUOUS
10
9.2143983070866131
20
-4.4107774803149606
11
9.219686456692914
21
-4.4235442125984248
0
LINE
8
BLACK
6
CONTINUOUS
10
9.219686456692914
20
-4.4235442125984248
11
9.2263707874015743
21
-4.4356385826771652
0
LINE
8
BLACK
6
CONTINUOUS
10
9.2263707874015743
20
-4.4356385826771652
11
9.2343672047244088
21
-4.4469085039370082
0
LINE
8
BLACK
6
CONTINUOUS
10
9.2343672047244088
20
-4.4469085039370082
11
9.2435751968503936
21
-4.4572122047244092
0
LINE
8
BLACK
6
CONTINUOUS
10
9.2435751968503936
20
-4.4572122047244092
11
9.2538788976377955
21
-4.466420196850394
0
LINE
8
BLACK
6
CONTINUOUS
10
9.2538788976377955
20
-4.466420196850394
11
9.2651488188976376
21
-4.4744166141732284
0
LINE
8
BLACK
6
CONTINUOUS
10
9.2651488188976376
20
-4.4744166141732284
11
9.277243188976378
21
-4.4811009448818897
0
LINE
8
BLACK
6
CONTINUOUS
10
9.277243188976378
20
-4.4811009448818897
11
9.290009921259843
21
-4.4863890944881888
0
LINE
8
BLACK
6
CONTINUOUS
10
9.290009921259843
20
-4.4863890944881888
11
9.3032884251968504
21
-4.4902145669291338
0
LINE
8
BLACK
6
CONTINUOUS
10
9.3032884251968504
20
-4.4902145669291338
11
9.3169118110236226
21
-4.4925292913385828
0
LINE
8
BLACK
6
CONTINUOUS
10
9.3169118110236226
20
-4.4925292913385828
11
9.3307086614173222
21
-4.493304094488189
0
LINE
8
BLACK
6
CONTINUOUS
10
9.3307086614173222
20
-4.493304094488189
11
9.3445055118110236
21
-4.4925292913385828
0
LINE
8
BLACK
6
CONTINUOUS
10
9.3445055118110236
20
-4.4925292913385828
11
9.3581288976377959
21
-4.4902145669291338
0
LINE
8
BLACK
6
CONTINUOUS
10
9.3581288976377959
20
-4.4902145669291338
11
9.3714074015748032
21
-4.4863890944881888
0
LINE
8
BLACK
6
CONTINUOUS
10
9.3714074015748032
20
-4.4863890944881888
11
9.3841741338582683
21
-4.4811009448818897
0
LINE
8
BLACK
6
CONTINUOUS
10
9.3841741338582683
20
-4.4811009448818897
11
9.3962685039370069
21
-4.4744166141732284
0
LINE
8
BLACK
6
CONTINUOUS
10
9.3962685039370069
20
-4.4744166141732284
11
9.4075384251968508
21
-4.466420196850394
0
LINE
8
BLACK
6
CONTINUOUS
10
9.4075384251968508
20
-4.466420196850394
11
9.4178421259842526
21
-4.4572122047244092
0
LINE
8
BLACK
6
CONTINUOUS
10
9.4178421259842526
20
-4.4572122047244092
11
9.4270501181102357
21
-4.4469085039370082
0
LINE
8
BLACK
6
CONTINUOUS
10
9.4270501181102357
20
-4.4469085039370082
11
9.4350465354330701
21
-4.4356385826771652
0
LINE
8
BLACK
6
CONTINUOUS
10
9.4350465354330701
20
-4.4356385826771652
11
9.4417308661417323
21
-4.4235442125984248
0
LINE
8
BLACK
6
CONTINUOUS
10
9.4417308661417323
20
-4.4235442125984248
11
9.4470190157480314
21
-4.4107774803149606
0
LINE
8
BLACK
6
CONTINUOUS
10
9.4470190157480314
20
-4.4107774803149606
11
9.4508444881889755
21
-4.3974989763779524
0
LINE
8
BLACK
6
CONTINUOUS
10
9.4508444881889755
20
-4.3974989763779524
11
9.4531592125984254
21
-4.383875590551181
0
LINE
8
BLACK
6
CONTINUOUS
10
9.4531592125984254
20
-4.383875590551181
11
9.4539340157480307
21
-4.3700787401574805
0
LINE
8
BLACK
6
CONTINUOUS
10
9.4539340157480307
20
-4.3700787401574805
11
9.4531592125984254
21
-4.3562818897637792
0
LINE
8
BLACK
6
CONTINUOUS
10
9.4531592125984254
20
-4.3562818897637792
11
9.4508444881889755
21
-4.3426585039370078
0
LINE
8
BLACK
6
CONTINUOUS
10
9.4508444881889755
20
-4.3426585039370078
11
9.4470190157480314
21
-4.3293799999999996
0
LINE
8
BLACK
6
CONTINUOUS
10
9.4470190157480314
20
-4.3293799999999996
11
9.4417308661417323
21
-4.3166132677165354
0
LINE
8
BLACK
6
CONTINUOUS
10
9.4417308661417323
20
-4.3166132677165354
11
9.4350465354330701
21
-4.304518897637795
0
LINE
8
BLACK
6
CONTINUOUS
10
9.4350465354330701
20
-4.304518897637795
11
9.4270501181102357
21
-4.2932489763779529
0
LINE
8
BLACK
6
CONTINUOUS
10
9.4270501181102357
20
-4.2932489763779529
11
9.4178421259842526
21
-4.282945275590551
0
LINE
8
BLACK
6
CONTINUOUS
10
9.4178421259842526
20
-4.282945275590551
11
9.4075384251968508
21
-4.273737283464567
0
LINE
8
BLACK
6
CONTINUOUS
10
9.4075384251968508
20
-4.273737283464567
11
9.3962685039370069
21
-4.2657408661417318
0
LINE
8
BLACK
6
CONTINUOUS
10
9.3962685039370069
20
-4.2657408661417318
11
9.3841741338582683
21
-4.2590565354330705
0
LINE
8
BLACK
6
CONTINUOUS
10
9.3841741338582683
20
-4.2590565354330705
11
9.3714074015748032
21
-4.2537683858267714
0
LINE
8
BLACK
6
CONTINUOUS
10
9.3714074015748032
20
-4.2537683858267714
11
9.3581288976377959
21
-4.2499429133858264
0
LINE
8
BLACK
6
CONTINUOUS
10
9.3581288976377959
20
-4.2499429133858264
11
9.3445055118110236
21
-4.2476281889763783
0
LINE
8
BLACK
6
CONTINUOUS
10
9.3445055118110236
20
-4.2476281889763783
11
9.3307086614173222
21
-4.2468533858267712
0
LINE
8
BLACK
6
CONTINUOUS
10
9.3307086614173222
20
-4.2468533858267712
11
9.3169118110236226
21
-4.2476281889763783
0
LINE
8
BLACK
6
CONTINUOUS
10
9.3169118110236226
20
-4.2476281889763783
11
9.3032884251968504
21
-4.2499429133858264
0
LINE
8
BLACK
6
CONTINUOUS
10
9.3032884251968504
20
-4.2499429133858264
11
9.290009921259843
21
-4.2537683858267714
0
LINE
8
BLACK
6
CONTINUOUS
10
9.290009921259843
20
-4.2537683858267714
11
9.277243188976378
21
-4.2590565354330705
0
LINE
8
BLACK
6
CONTINUOUS
10
9.277243188976378
20
-4.2590565354330705
11
9.2651488188976376
21
-4.2657408661417318
0
LINE
8
BLACK
6
CONTINUOUS
10
9.2651488188976376
20
-4.2657408661417318
11
9.2538788976377955
21
-4.273737283464567
0
LINE
8
BLACK
6
CONTINUOUS
10
9.2538788976377955
20
-4.273737283464567
11
9.2435751968503936
21
-4.282945275590551
0
LINE
8
BLACK
6
CONTINUOUS
10
9.2435751968503936
20
-4.282945275590551
11
9.2343672047244088
21
-4.2932489763779529
0
LINE
8
BLACK
6
CONTINUOUS
10
9.2343672047244088
20
-4.2932489763779529
11
9.2263707874015743
21
-4.304518897637795
0
LINE
8
BLACK
6
CONTINUOUS
10
9.2263707874015743
20
-4.304518897637795
11
9.219686456692914
21
-4.3166132677165354
0
LINE
8
BLACK
6
CONTINUOUS
10
9.219686456692914
20
-4.3166132677165354
11
9.2143983070866131
21
-4.3293799999999996
0
LINE
8
BLACK
6
CONTINUOUS
10
9.2143983070866131
20
-4.3293799999999996
11
9.210572834645669
21
-4.3426585039370078
0
LINE
8
BLACK
6
CONTINUOUS
10
9.210572834645669
20
-4.3426585039370078
11
9.2082581102362209
21
-4.3562818897637792
0
LINE
8
BLACK
6
CONTINUOUS
10
9.2082581102362209
20
-4.3562818897637792
11
9.2074833070866138
21
-4.3700787401574805
0
LINE
8
BLACK
6
CONTINUOUS
10
9.2074833070866138
20
-4.3700787401574805
11
9.2082581102362209
21
-4.383875590551181
0
LINE
8
BLACK
6
CONTINUOUS
10
3.0129856692913384
20
-2.431816653543307
11
3.0266202755905511
21
-2.434817874015748
0
LINE
8
BLACK
6
CONTINUOUS
10
3.0266202755905511
20
-2.434817874015748
11
3.039850472440945
21
-2.4392756299212599
0
LINE
8
BLACK
6
CONTINUOUS
10
3.039850472440945
20
-2.4392756299212599
11
3.052521181102362
21
-2.4451377165354331
0
LINE
8
BLACK
6
CONTINUOUS
10
3.052521181102362
20
-2.4451377165354331
11
3.064483779527559
21
-2.4523353937007872
0
LINE
8
BLACK
6
CONTINUOUS
10
3.064483779527559
20
-2.4523353937007872
11
3.0755980314960629
21
-2.4607842125984249
0
LINE
8
BLACK
6
CONTINUOUS
10
3.0755980314960629
20
-2.4607842125984249
11
3.085733661417323
21
-2.4703851968503936
0
LINE
8
BLACK
6
CONTINUOUS
10
3.085733661417323
20
-2.4703851968503936
11
3.0947718503937005
21
-2.4810257480314961
0
LINE
8
BLACK
6
CONTINUOUS
10
3.0947718503937005
20
-2.4810257480314961
11
3.1026065748031497
21
-2.4925811417322836
0
LINE
8
BLACK
6
CONTINUOUS
10
3.1026065748031497
20
-2.4925811417322836
11
3.1091460236220474
21
-2.5049158661417321
0
LINE
8
BLACK
6
CONTINUOUS
10
3.1091460236220474
20
-2.5049158661417321
11
3.1143135433070865
21
-2.5178853149606297
0
LINE
8
BLACK
6
CONTINUOUS
10
3.1143135433070865
20
-2.5178853149606297
11
3.1180485039370076
21
-2.5313374803149604
0
LINE
8
BLACK
6
CONTINUOUS
10
3.1180485039370076
20
-2.5313374803149604
11
3.1203071653543306
21
-2.5451145669291337
0
LINE
8
BLACK
6
CONTINUOUS
10
3.1203071653543306
20
-2.5451145669291337
11
3.1210629921259843
21
-2.5590551181102361
0
LINE
8
BLACK
6
CONTINUOUS
10
3.1210629921259843
20
-2.5590551181102361
11
3.1203071653543306
21
-2.5729956692913385
0
LINE
8
BLACK
6
CONTINUOUS
10
3.1203071653543306
20
-2.5729956692913385
11
3.1180485039370076
21
-2.5867727559055118
0
LINE
8
BLACK
6
CONTINUOUS
10
3.1180485039370076
20
-2.5867727559055118
11
3.1143135433070865
21
-2.6002249212598425
0
LINE
8
BLACK
6
CONTINUOUS
10
3.1143135433070865
20
-2.6002249212598425
11
3.1091460236220474
21
-2.6131943700787401
0
LINE
8
BLACK
6
CONTINUOUS
10
3.1091460236220474
20
-2.6131943700787401
11
3.1026065748031497
21
-2.6255290944881891
0
LINE
8
BLACK
6
CONTINUOUS
10
3.1026065748031497
20
-2.6255290944881891
11
3.0947718503937005
21
-2.6370844881889761
0
LINE
8
BLACK
6
CONTINUOUS
10
3.0947718503937005
20
-2.6370844881889761
11
3.085733661417323
21
-2.6477250393700786
0
LINE
8
BLACK
6
CONTINUOUS
10
3.085733661417323
20
-2.6477250393700786
11
3.0755980314960629
21
-2.6573260236220473
0
LINE
8
BLACK
6
CONTINUOUS
10
3.0755980314960629
20
-2.6573260236220473
11
3.064483779527559
21
-2.665774842519685
0
LINE
8
BLACK
6
CONTINUOUS
10
3.064483779527559
20
-2.665774842519685
11
3.052521181102362
21
-2.6729725196850391
0
LINE
8
BLACK
6
CONTINUOUS
10
3.052521181102362
20
-2.6729725196850391
11
3.039850472440945
21
-2.6788346062992123
0
LINE
8
BLACK
6
CONTINUOUS
10
3.039850472440945
20
-2.6788346062992123
11
3.0266202755905511
21
-2.6832923622047242
0
LINE
8
BLACK
6
CONTINUOUS
10
3.0266202755905511
20
-2.6832923622047242
11
3.0129856692913384
21
-2.6862935826771652
0
LINE
8
BLACK
6
CONTINUOUS
10
3.0129856692913384
20
-2.6862935826771652
11
2.9991064960629918
21
-2.6878030314960628
0
LINE
8
BLACK
6
CONTINUOUS
10
2.9991064960629918
20
-2.6878030314960628
11
2.9851454724409447
21
-2.6878030314960628
0
LINE
8
BLACK
6
CONTINUOUS
10
2.9851454724409447
20
-2.6878030314960628
11
2.9712662992125982
21
-2.6862935826771652
0
LINE
8
BLACK
6
CONTINUOUS
10
2.9712662992125982
20
-2.6862935826771652
11
2.9576316929133859
21
-2.6832923622047242
0
LINE
8
BLACK
6
CONTINUOUS
10
2.9576316929133859
20
-2.6832923622047242
11
2.9444014960629921
21
-2.6788346062992123
0
LINE
8
BLACK
6
CONTINUOUS
10
2.9444014960629921
20
-2.6788346062992123
11
2.9317307874015746
21
-2.6729725196850391
0
LINE
8
BLACK
6
CONTINUOUS
10
2.9317307874015746
20
-2.6729725196850391
11
2.919768188976378
21
-2.665774842519685
0
LINE
8
BLACK
6
CONTINUOUS
10
2.919768188976378
20
-2.665774842519685
11
2.9086539370078741
21
-2.6573260236220473
0
LINE
8
BLACK
6
CONTINUOUS
10
2.9086539370078741
20
-2.6573260236220473
11
2.8985183070866141
21
-2.6477250393700786
0
LINE
8
BLACK
6
CONTINUOUS
10
2.8985183070866141
20
-2.6477250393700786
11
2.8894801181102361
21
-2.6370844881889761
0
LINE
8
BLACK
6
CONTINUOUS
10
2.8894801181102361
20
-2.6370844881889761
11
2.8816453937007873
21
-2.6255290944881891
0
LINE
8
BLACK
6
CONTINUOUS
10
2.8816453937007873
20
-2.6255290944881891
11
2.8751059448818896
21
-2.6131943700787401
0
LINE
8
BLACK
6
CONTINUOUS
10
2.8751059448818896
20
-2.6131943700787401
11
2.8699384251968505
21
-2.6002249212598425
0
LINE
8
BLACK
6
CONTINUOUS
10
2.8699384251968505
20
-2.6002249212598425
11
2.866203464566929
21
-2.5867727559055118
0
LINE
8
BLACK
6
CONTINUOUS
10
2.866203464566929
20
-2.5867727559055118
11
2.8639448031496064
21
-2.5729956692913385
0
LINE
8
BLACK
6
CONTINUOUS
10
2.8639448031496064
20
-2.5729956692913385
11
2.8631889763779528
21
-2.5590551181102361
0
LINE
8
BLACK
6
CONTINUOUS
10
2.8631889763779528
20
-2.5590551181102361
11
2.8639448031496064
21
-2.5451145669291337
0
LINE
8
BLACK
6
CONTINUOUS
10
2.8639448031496064
20
-2.5451145669291337
11
2.866203464566929
21
-2.5313374803149604
0
LINE
8
BLACK
6
CONTINUOUS
10
2.866203464566929
20
-2.5313374803149604
11
2.8699384251968505
21
-2.5178853149606297
0
LINE
8
BLACK
6
CONTINUOUS
10
2.8699384251968505
20
-2.5178853149606297
11
2.8751059448818896
21
-2.5049158661417321
0
LINE
8
BLACK
6
CONTINUOUS
10
2.8751059448818896
20
-2.5049158661417321
11
2.8816453937007873
21
-2.4925811417322836
0
LINE
8
BLACK
6
CONTINUOUS
10
2.8816453937007873
20
-2.4925811417322836
11
2.8894801181102361
21
-2.4810257480314961
0
LINE
8
BLACK
6
CONTINUOUS
10
2.8894801181102361
20
-2.4810257480314961
11
2.8985183070866141
21
-2.4703851968503936
0
LINE
8
BLACK
6
CONTINUOUS
10
2.8985183070866141
20
-2.4703851968503936
11
2.9086539370078741
21
-2.4607842125984249
0
LINE
8
BLACK
6
CONTINUOUS
10
2.9086539370078741
20
-2.4607842125984249
11
2.919768188976378
21
-2.4523353937007872
0
LINE
8
BLACK
6
CONTINUOUS
10
2.919768188976378
20
-2.4523353937007872
11
2.9317307874015746
21
-2.4451377165354331
0
LINE
8
BLACK
6
CONTINUOUS
10
2.9317307874015746
20
-2.4451377165354331
11
2.9444014960629921
21
-2.4392756299212599
0
LINE
8
BLACK
6
CONTINUOUS
10
2.9444014960629921
20
-2.4392756299212599
11
2.9576316929133859
21
-2.434817874015748
0
LINE
8
BLACK
6
CONTINUOUS
10
2.9576316929133859
20
-2.434817874015748
11
2.9712662992125982
21
-2.431816653543307
0
LINE
8
BLACK
6
CONTINUOUS
10
2.9712662992125982
20
-2.431816653543307
11
2.9851454724409447
21
-2.4303072047244094
0
LINE
8
BLACK
6
CONTINUOUS
10
2.9851454724409447
20
-2.4303072047244094
11
2.9991064960629918
21
-2.4303072047244094
0
LINE
8
BLACK
6
CONTINUOUS
10
2.9991064960629918
20
-2.4303072047244094
11
3.0129856692913384
21
-2.431816653543307
0
LINE
8
BLACK
6
CONTINUOUS
10
2.8696754330708663
20
-2.572851968503937
11
2.8719901574803148
21
-2.5864753543307084
0
LINE
8
BLACK
6
CONTINUOUS
10
2.8719901574803148
20
-2.5864753543307084
11
2.8758156299212598
21
-2.5997538582677167
0
LINE
8
BLACK
6
CONTINUOUS
10
2.8758156299212598
20
-2.5997538582677167
11
2.8811037795275589
21
-2.6125205905511812
0
LINE
8
BLACK
6
CONTINUOUS
10
2.8811037795275589
20
-2.6125205905511812
11
2.8877881102362206
21
-2.6246149606299212
0
LINE
8
BLACK
6
CONTINUOUS
10
2.8877881102362206
20
-2.6246149606299212
11
2.895784527559055
21
-2.6358848818897638
0
LINE
8
BLACK
6
CONTINUOUS
10
2.895784527559055
20
-2.6358848818897638
11
2.9049925196850395
21
-2.6461885826771652
0
LINE
8
BLACK
6
CONTINUOUS
10
2.9049925196850395
20
-2.6461885826771652
11
2.9152962204724409
21
-2.6553965748031496
0
LINE
8
BLACK
6
CONTINUOUS
10
2.9152962204724409
20
-2.6553965748031496
11
2.9265661417322835
21
-2.663392992125984
0
LINE
8
BLACK
6
CONTINUOUS
10
2.9265661417322835
20
-2.663392992125984
11
2.9386605118110234
21
-2.6700773228346457
0
LINE
8
BLACK
6
CONTINUOUS
10
2.9386605118110234
20
-2.6700773228346457
11
2.951427244094488
21
-2.6753654724409448
0
LINE
8
BLACK
6
CONTINUOUS
10
2.951427244094488
20
-2.6753654724409448
11
2.9647057480314958
21
-2.6791909448818898
0
LINE
8
BLACK
6
CONTINUOUS
10
2.9647057480314958
20
-2.6791909448818898
11
2.9783291338582676
21
-2.6815056692913384
0
LINE
8
BLACK
6
CONTINUOUS
10
2.9783291338582676
20
-2.6815056692913384
11
2.9921259842519685
21
-2.682280472440945
0
LINE
8
BLACK
6
CONTINUOUS
10
2.9921259842519685
20
-2.682280472440945
11
3.005922834645669
21
-2.6815056692913384
0
LINE
8
BLACK
6
CONTINUOUS
10
3.005922834645669
20
-2.6815056692913384
11
3.0195462204724408
21
-2.6791909448818898
0
LINE
8
BLACK
6
CONTINUOUS
10
3.0195462204724408
20
-2.6791909448818898
11
3.0328247244094486
21
-2.6753654724409448
0
LINE
8
BLACK
6
CONTINUOUS
10
3.0328247244094486
20
-2.6753654724409448
11
3.0455914566929132
21
-2.6700773228346457
0
LINE
8
BLACK
6
CONTINUOUS
10
3.0455914566929132
20
-2.6700773228346457
11
3.0576858267716536
21
-2.663392992125984
0
LINE
8
BLACK
6
CONTINUOUS
10
3.0576858267716536
20
-2.663392992125984
11
3.0689557480314962
21
-2.6553965748031496
0
LINE
8
BLACK
6
CONTINUOUS
10
3.0689557480314962
20
-2.6553965748031496
11
3.0792594488188976
21
-2.6461885826771652
0
LINE
8
BLACK
6
CONTINUOUS
10
3.0792594488188976
20
-2.6461885826771652
11
3.088467440944882
21
-2.6358848818897638
0
LINE
8
BLACK
6
CONTINUOUS
10
3.088467440944882
20
-2.6358848818897638
11
3.0964638582677164
21
-2.6246149606299212
0
LINE
8
BLACK
6
CONTINUOUS
10
3.0964638582677164
20
-2.6246149606299212
11
3.1031481889763777
21
-2.6125205905511812
0
LINE
8
BLACK
6
CONTINUOUS
10
3.1031481889763777
20
-2.6125205905511812
11
3.1084363385826772
21
-2.5997538582677167
0
LINE
8
BLACK
6
CONTINUOUS
10
3.1084363385826772
20
-2.5997538582677167
11
3.1122618110236218
21
-2.5864753543307084
0
LINE
8
BLACK
6
CONTINUOUS
10
3.1122618110236218
20
-2.5864753543307084
11
3.1145765354330708
21
-2.572851968503937
0
LINE
8
BLACK
6
CONTINUOUS
10
3.1145765354330708
20
-2.572851968503937
11
3.115351338582677
21
-2.5590551181102361
0
LINE
8
BLACK
6
CONTINUOUS
10
3.115351338582677
20
-2.5590551181102361
11
3.1145765354330708
21
-2.5452582677165352
0
LINE
8
BLACK
6
CONTINUOUS
10
3.1145765354330708
20
-2.5452582677165352
11
3.1122618110236218
21
-2.5316348818897638
0
LINE
8
BLACK
6
CONTINUOUS
10
3.1122618110236218
20
-2.5316348818897638
11
3.1084363385826772
21
-2.518356377952756
0
LINE
8
BLACK
6
CONTINUOUS
10
3.1084363385826772
20
-2.518356377952756
11
3.1031481889763777
21
-2.5055896456692914
0
LINE
8
BLACK
6
CONTINUOUS
10
3.1031481889763777
20
-2.5055896456692914
11
3.0964638582677164
21
-2.4934952755905511
0
LINE
8
BLACK
6
CONTINUOUS
10
3.0964638582677164
20
-2.4934952755905511
11
3.088467440944882
21
-2.4822253543307085
0
LINE
8
BLACK
6
CONTINUOUS
10
3.088467440944882
20
-2.4822253543307085
11
3.0792594488188976
21
-2.4719216535433071
0
LINE
8
BLACK
6
CONTINUOUS
10
3.0792594488188976
20
-2.4719216535433071
11
3.0689557480314962
21
-2.4627136614173226
0
LINE
8
BLACK
6
CONTINUOUS
10
3.0689557480314962
20
-2.4627136614173226
11
3.0576858267716536
21
-2.4547172440944882
0
LINE
8
BLACK
6
CONTINUOUS
10
3.0576858267716536
20
-2.4547172440944882
11
3.0455914566929132
21
-2.4480329133858265
0
LINE
8
BLACK
6
CONTINUOUS
10
3.0455914566929132
20
-2.4480329133858265
11
3.0328247244094486
21
-2.4427447637795274
0
LINE
8
BLACK
6
CONTINUOUS
10
3.0328247244094486
20
-2.4427447637795274
11
3.0195462204724408
21
-2.4389192913385824
0
LINE
8
BLACK
6
CONTINUOUS
10
3.0195462204724408
20
-2.4389192913385824
11
3.005922834645669
21
-2.4366045669291339
0
LINE
8
BLACK
6
CONTINUOUS
10
3.005922834645669
20
-2.4366045669291339
11
2.9921259842519685
21
-2.4358297637795276
0
LINE
8
BLACK
6
CONTINUOUS
10
2.9921259842519685
20
-2.4358297637795276
11
2.9783291338582676
21
-2.4366045669291339
0
LINE
8
BLACK
6
CONTINUOUS
10
2.9783291338582676
20
-2.4366045669291339
11
2.9647057480314958
21
-2.4389192913385824
0
LINE
8
BLACK
6
CONTINUOUS
10
2.9647057480314958
20
-2.4389192913385824
11
2.951427244094488
21
-2.4427447637795274
0
LINE
8
BLACK
6
CONTINUOUS
10
2.951427244094488
20
-2.4427447637795274
11
2.9386605118110234
21
-2.4480329133858265
0
LINE
8
BLACK
6
CONTINUOUS
10
2.9386605118110234
20
-2.4480329133858265
11
2.9265661417322835
21
-2.4547172440944882
0
LINE
8
BLACK
6
CONTINUOUS
10
2.9265661417322835
20
-2.4547172440944882
11
2.9152962204724409
21
-2.4627136614173226
0
LINE
8
BLACK
6
CONTINUOUS
10
2.9152962204724409
20
-2.4627136614173226
11
2.9049925196850395
21
-2.4719216535433071
0
LINE
8
BLACK
6
CONTINUOUS
10
2.9049925196850395
20
-2.4719216535433071
11
2.895784527559055
21
-2.4822253543307085
0
LINE
8
BLACK
6
CONTINUOUS
10
2.895784527559055
20
-2.4822253543307085
11
2.8877881102362206
21
-2.4934952755905511
0
LINE
8
BLACK
6
CONTINUOUS
10
2.8877881102362206
20
-2.4934952755905511
11
2.8811037795275589
21
-2.5055896456692914
0
LINE
8
BLACK
6
CONTINUOUS
10
2.8811037795275589
20
-2.5055896456692914
11
2.8758156299212598
21
-2.518356377952756
0
LINE
8
BLACK
6
CONTINUOUS
10
2.8758156299212598
20
-2.518356377952756
11
2.8719901574803148
21
-2.5316348818897638
0
LINE
8
BLACK
6
CONTINUOUS
10
2.8719901574803148
20
-2.5316348818897638
11
2.8696754330708663
21
-2.5452582677165352
0
LINE
8
BLACK
6
CONTINUOUS
10
2.8696754330708663
20
-2.5452582677165352
11
2.8689006299212596
21
-2.5590551181102361
0
LINE
8
BLACK
6
CONTINUOUS
10
2.8689006299212596
20
-2.5590551181102361
11
2.8696754330708663
21
-2.572851968503937
0
LINE
8
BLACK
6
CONTINUOUS
10
10.138969921259843
20
-2.431816653543307
11
10.1526045275590544
21
-2.434817874015748
0
LINE
8
BLACK
6
CONTINUOUS
10
10.1526045275590544
20
-2.434817874015748
11
10.1658347244094482
21
-2.4392756299212599
0
LINE
8
BLACK
6
CONTINUOUS
10
10.1658347244094482
20
-2.4392756299212599
11
10.1785054330708657
21
-2.4451377165354331
0
LINE
8
BLACK
6
CONTINUOUS
10
10.1785054330708657
20
-2.4451377165354331
11
10.1904680314960636
21
-2.4523353937007872
0
LINE
8
BLACK
6
CONTINUOUS
10
10.1904680314960636
20
-2.4523353937007872
11
10.2015822834645675
21
-2.4607842125984249
0
LINE
8
BLACK
6
CONTINUOUS
10
10.2015822834645675
20
-2.4607842125984249
11
10.2117179133858258
21
-2.4703851968503936
0
LINE
8
BLACK
6
CONTINUOUS
10
10.2117179133858258
20
-2.4703851968503936
11
10.2207561023622038
21
-2.4810257480314961
0
LINE
8
BLACK
6
CONTINUOUS
10
10.2207561023622038
20
-2.4810257480314961
11
10.2285908267716525
21
-2.4925811417322836
0
LINE
8
BLACK
6
CONTINUOUS
10
10.2285908267716525
20
-2.4925811417322836
11
10.2351302755905511
21
-2.5049158661417321
0
LINE
8
BLACK
6
CONTINUOUS
10
10.2351302755905511
20
-2.5049158661417321
11
10.2402977952755911
21
-2.5178853149606297
0
LINE
8
BLACK
6
CONTINUOUS
10
10.2402977952755911
20
-2.5178853149606297
11
10.2440327559055113
21
-2.5313374803149604
0
LINE
8
BLACK
6
CONTINUOUS
10
10.2440327559055113
20
-2.5313374803149604
11
10.2462914173228352
21
-2.5451145669291337
0
LINE
8
BLACK
6
CONTINUOUS
10
10.2462914173228352
20
-2.5451145669291337
11
10.2470472440944871
21
-2.5590551181102361
0
LINE
8
BLACK
6
CONTINUOUS
10
10.2470472440944871
20
-2.5590551181102361
11
10.2462914173228352
21
-2.5729956692913385
0
LINE
8
BLACK
6
CONTINUOUS
10
10.2462914173228352
20
-2.5729956692913385
11
10.2440327559055113
21
-2.5867727559055118
0
LINE
8
BLACK
6
CONTINUOUS
10
10.2440327559055113
20
-2.5867727559055118
11
10.2402977952755911
21
-2.6002249212598425
0
LINE
8
BLACK
6
CONTINUOUS
10
10.2402977952755911
20
-2.6002249212598425
11
10.2351302755905511
21
-2.6131943700787401
0
LINE
8
BLACK
6
CONTINUOUS
10
10.2351302755905511
20
-2.6131943700787401
11
10.2285908267716525
21
-2.6255290944881891
0
LINE
8
BLACK
6
CONTINUOUS
10
10.2285908267716525
20
-2.6255290944881891
11
10.2207561023622038
21
-2.6370844881889761
0
LINE
8
BLACK
6
CONTINUOUS
10
10.2207561023622038
20
-2.6370844881889761
11
10.2117179133858258
21
-2.6477250393700786
0
LINE
8
BLACK
6
CONTINUOUS
10
10.2117179133858258
20
-2.6477250393700786
11
10.2015822834645675
21
-2.6573260236220473
0
LINE
8
BLACK
6
CONTINUOUS
10
10.2015822834645675
20
-2.6573260236220473
11
10.1904680314960636
21
-2.665774842519685
0
LINE
8
BLACK
6
CONTINUOUS
10
10.1904680314960636
20
-2.665774842519685
11
10.1785054330708657
21
-2.6729725196850391
0
LINE
8
BLACK
6
CONTINUOUS
10
10.1785054330708657
20
-2.6729725196850391
11
10.1658347244094482
21
-2.6788346062992123
0
LINE
8
BLACK
6
CONTINUOUS
10
10.1658347244094482
20
-2.6788346062992123
11
10.1526045275590544
21
-2.6832923622047242
0
LINE
8
BLACK
6
CONTINUOUS
10
10.1526045275590544
20
-2.6832923622047242
11
10.138969921259843
21
-2.6862935826771652
0
LINE
8
BLACK
6
CONTINUOUS
10
10.138969921259843
20
-2.6862935826771652
11
10.1250907480314964
21
-2.6878030314960628
0
LINE
8
BLACK
6
CONTINUOUS
10
10.1250907480314964
20
-2.6878030314960628
11
10.111129724409448
21
-2.6878030314960628
0
LINE
8
BLACK
6
CONTINUOUS
10
10.111129724409448
20
-2.6878030314960628
11
10.0972505511811015
21
-2.6862935826771652
0
LINE
8
BLACK
6
CONTINUOUS
10
10.0972505511811015
20
-2.6862935826771652
11
10.0836159448818901
21
-2.6832923622047242
0
LINE
8
BLACK
6
CONTINUOUS
10
10.0836159448818901
20
-2.6832923622047242
11
10.0703857480314962
21
-2.6788346062992123
0
LINE
8
BLACK
6
CONTINUOUS
10
10.0703857480314962
20
-2.6788346062992123
11
10.0577150393700787
21
-2.6729725196850391
0
LINE
8
BLACK
6
CONTINUOUS
10
10.0577150393700787
20
-2.6729725196850391
11
10.0457524409448808
21
-2.665774842519685
0
LINE
8
BLACK
6
CONTINUOUS
10
10.0457524409448808
20
-2.665774842519685
11
10.0346381889763769
21
-2.6573260236220473
0
LINE
8
BLACK
6
CONTINUOUS
10
10.0346381889763769
20
-2.6573260236220473
11
10.0245025590551187
21
-2.6477250393700786
0
LINE
8
BLACK
6
CONTINUOUS
10
10.0245025590551187
20
-2.6477250393700786
11
10.0154643700787407
21
-2.6370844881889761
0
LINE
8
BLACK
6
CONTINUOUS
10
10.0154643700787407
20
-2.6370844881889761
11
10.0076296456692919
21
-2.6255290944881891
0
LINE
8
BLACK
6
CONTINUOUS
10
10.0076296456692919
20
-2.6255290944881891
11
10.0010901968503934
21
-2.6131943700787401
0
LINE
8
BLACK
6
CONTINUOUS
10
10.0010901968503934
20
-2.6131943700787401
11
9.9959226771653533
21
-2.6002249212598425
0
LINE
8
BLACK
6
CONTINUOUS
10
9.9959226771653533
20
-2.6002249212598425
11
9.9921877165354331
21
-2.5867727559055118
0
LINE
8
BLACK
6
CONTINUOUS
10
9.9921877165354331
20
-2.5867727559055118
11
9.9899290551181092
21
-2.5729956692913385
0
LINE
8
BLACK
6
CONTINUOUS
10
9.9899290551181092
20
-2.5729956692913385
11
9.9891732283464556
21
-2.5590551181102361
0
LINE
8
BLACK
6
CONTINUOUS
10
9.9891732283464556
20
-2.5590551181102361
11
9.9899290551181092
21
-2.5451145669291337
0
LINE
8
BLACK
6
CONTINUOUS
10
9.9899290551181092
20
-2.5451145669291337
11
9.9921877165354331
21
-2.5313374803149604
0
LINE
8
BLACK
6
CONTINUOUS
10
9.9921877165354331
20
-2.5313374803149604
11
9.9959226771653533
21
-2.5178853149606297
0
LINE
8
BLACK
6
CONTINUOUS
10
9.9959226771653533
20
-2.5178853149606297
11
10.0010901968503934
21
-2.5049158661417321
0
LINE
8
BLACK
6
CONTINUOUS
10
10.0010901968503934
20
-2.5049158661417321
11
10.0076296456692919
21
-2.4925811417322836
0
LINE
8
BLACK
6
CONTINUOUS
10
10.0076296456692919
20
-2.4925811417322836
11
10.0154643700787407
21
-2.4810257480314961
0
LINE
8
BLACK
6
CONTINUOUS
10
10.0154643700787407
20
-2.4810257480314961
11
10.0245025590551187
21
-2.4703851968503936
0
LINE
8
BLACK
6
CONTINUOUS
10
10.0245025590551187
20
-2.4703851968503936
11
10.0346381889763769
21
-2.4607842125984249
0
LINE
8
BLACK
6
CONTINUOUS
10
10.0346381889763769
20
-2.4607842125984249
11
10.0457524409448808
21
-2.4523353937007872
0
LINE
8
BLACK
6
CONTINUOUS
10
10.0457524409448808
20
-2.4523353937007872
11
10.0577150393700787
21
-2.4451377165354331
0
LINE
8
BLACK
6
CONTINUOUS
10
10.0577150393700787
20
-2.4451377165354331
11
10.0703857480314962
21
-2.4392756299212599
0
LINE
8
BLACK
6
CONTINUOUS
10
10.0703857480314962
20
-2.4392756299212599
11
10.0836159448818901
21
-2.434817874015748
0
LINE
8
BLACK
6
CONTINUOUS
10
10.0836159448818901
20
-2.434817874015748
11
10.0972505511811015
21
-2.431816653543307
0
LINE
8
BLACK
6
CONTINUOUS
10
10.0972505511811015
20
-2.431816653543307
11
10.111129724409448
21
-2.4303072047244094
0
LINE
8
BLACK
6
CONTINUOUS
10
10.111129724409448
20
-2.4303072047244094
11
10.1250907480314964
21
-2.4303072047244094
0
LINE
8
BLACK
6
CONTINUOUS
10
10.1250907480314964
20
-2.4303072047244094
11
10.138969921259843
21
-2.431816653543307
0
LINE
8
BLACK
6
CONTINUOUS
10
9.9956596850393691
20
-2.572851968503937
11
9.997974409448819
21
-2.5864753543307084
0
LINE
8
BLACK
6
CONTINUOUS
10
9.997974409448819
20
-2.5864753543307084
11
10.0017998818897631
21
-2.5997538582677167
0
LINE
8
BLACK
6
CONTINUOUS
10
10.0017998818897631
20
-2.5997538582677167
11
10.0070880314960622
21
-2.6125205905511812
0
LINE
8
BLACK
6
CONTINUOUS
10
10.0070880314960622
20
-2.6125205905511812
11
10.0137723622047243
21
-2.6246149606299212
0
LINE
8
BLACK
6
CONTINUOUS
10
10.0137723622047243
20
-2.6246149606299212
11
10.0217687795275587
21
-2.6358848818897638
0
LINE
8
BLACK
6
CONTINUOUS
10
10.0217687795275587
20
-2.6358848818897638
11
10.0309767716535436
21
-2.6461885826771652
0
LINE
8
BLACK
6
CONTINUOUS
10
10.0309767716535436
20
-2.6461885826771652
11
10.0412804724409455
21
-2.6553965748031496
0
LINE
8
BLACK
6
CONTINUOUS
10
10.0412804724409455
20
-2.6553965748031496
11
10.0525503937007876
21
-2.663392992125984
0
LINE
8
BLACK
6
CONTINUOUS
10
10.0525503937007876
20
-2.663392992125984
11
10.064644763779528
21
-2.6700773228346457
0
LINE
8
BLACK
6
CONTINUOUS
10
10.064644763779528
20
-2.6700773228346457
11
10.0774114960629912
21
-2.6753654724409448
0
LINE
8
BLACK
6
CONTINUOUS
10
10.0774114960629912
20
-2.6753654724409448
11
10.0906900000000004
21
-2.6791909448818898
0
LINE
8
BLACK
6
CONTINUOUS
10
10.0906900000000004
20
-2.6791909448818898
11
10.1043133858267709
21
-2.6815056692913384
0
LINE
8
BLACK
6
CONTINUOUS
10
10.1043133858267709
20
-2.6815056692913384
11
10.1181102362204722
21
-2.682280472440945
0
LINE
8
BLACK
6
CONTINUOUS
10
10.1181102362204722
20
-2.682280472440945
11
10.1319070866141736
21
-2.6815056692913384
0
LINE
8
BLACK
6
CONTINUOUS
10
10.1319070866141736
20
-2.6815056692913384
11
10.1455304724409441
21
-2.6791909448818898
0
LINE
8
BLACK
6
CONTINUOUS
10
10.1455304724409441
20
-2.6791909448818898
11
10.1588089763779532
21
-2.6753654724409448
0
LINE
8
BLACK
6
CONTINUOUS
10
10.1588089763779532
20
-2.6753654724409448
11
10.1715757086614165
21
-2.6700773228346457
0
LINE
8
BLACK
6
CONTINUOUS
10
10.1715757086614165
20
-2.6700773228346457
11
10.1836700787401568
21
-2.663392992125984
0
LINE
8
BLACK
6
CONTINUOUS
10
10.1836700787401568
20
-2.663392992125984
11
10.194939999999999
21
-2.6553965748031496
0
LINE
8
BLACK
6
CONTINUOUS
10
10.194939999999999
20
-2.6553965748031496
11
10.2052437007874008
21
-2.6461885826771652
0
LINE
8
BLACK
6
CONTINUOUS
10
10.2052437007874008
20
-2.6461885826771652
11
10.2144516929133857
21
-2.6358848818897638
0
LINE
8
BLACK
6
CONTINUOUS
10
10.2144516929133857
20
-2.6358848818897638
11
10.2224481102362201
21
-2.6246149606299212
0
LINE
8
BLACK
6
CONTINUOUS
10
10.2224481102362201
20
-2.6246149606299212
11
10.2291324409448823
21
-2.6125205905511812
0
LINE
8
BLACK
6
CONTINUOUS
10
10.2291324409448823
20
-2.6125205905511812
11
10.2344205905511814
21
-2.5997538582677167
0
LINE
8
BLACK
6
CONTINUOUS
10
10.2344205905511814
20
-2.5997538582677167
11
10.2382460629921255
21
-2.5864753543307084
0
LINE
8
BLACK
6
CONTINUOUS
10
10.2382460629921255
20
-2.5864753543307084
11
10.2405607874015754
21
-2.572851968503937
0
LINE
8
BLACK
6
CONTINUOUS
10
10.2405607874015754
20
-2.572851968503937
11
10.2413355905511807
21
-2.5590551181102361
0
LINE
8
BLACK
6
CONTINUOUS
10
10.2413355905511807
20
-2.5590551181102361
11
10.2405607874015754
21
-2.5452582677165352
0
LINE
8
BLACK
6
CONTINUOUS
10
10.2405607874015754
20
-2.5452582677165352
11
10.2382460629921255
21
-2.5316348818897638
0
LINE
8
BLACK
6
CONTINUOUS
10
10.2382460629921255
20
-2.5316348818897638
11
10.2344205905511814
21
-2.518356377952756
0
LINE
8
BLACK
6
CONTINUOUS
10
10.2344205905511814
20
-2.518356377952756
11
10.2291324409448823
21
-2.5055896456692914
0
LINE
8
BLACK
6
CONTINUOUS
10
10.2291324409448823
20
-2.5055896456692914
11
10.2224481102362201
21
-2.4934952755905511
0
LINE
8
BLACK
6
CONTINUOUS
10
10.2224481102362201
20
-2.4934952755905511
11
10.2144516929133857
21
-2.4822253543307085
0
LINE
8
BLACK
6
CONTINUOUS
10
10.2144516929133857
20
-2.4822253543307085
11
10.2052437007874008
21
-2.4719216535433071
0
LINE
8
BLACK
6
CONTINUOUS
10
10.2052437007874008
20
-2.4719216535433071
11
10.194939999999999
21
-2.4627136614173226
0
LINE
8
BLACK
6
CONTINUOUS
10
10.194939999999999
20
-2.4627136614173226
11
10.1836700787401568
21
-2.4547172440944882
0
LINE
8
BLACK
6
CONTINUOUS
10
10.1836700787401568
20
-2.4547172440944882
11
10.1715757086614165
21
-2.4480329133858265
0
LINE
8
BLACK
6
CONTINUOUS
10
10.1715757086614165
20
-2.4480329133858265
11
10.1588089763779532
21
-2.4427447637795274
0
LINE
8
BLACK
6
CONTINUOUS
10
10.1588089763779532
20
-2.4427447637795274
11
10.1455304724409441
21
-2.4389192913385824
0
LINE
8
BLACK
6
CONTINUOUS
10
10.1455304724409441
20
-2.4389192913385824
11
10.1319070866141736
21
-2.4366045669291339
0
LINE
8
BLACK
6
CONTINUOUS
10
10.1319070866141736
20
-2.4366045669291339
11
10.1181102362204722
21
-2.4358297637795276
0
LINE
8
BLACK
6
CONTINUOUS
10
10.1181102362204722
20
-2.4358297637795276
11
10.1043133858267709
21
-2.4366045669291339
0
LINE
8
BLACK
6
CONTINUOUS
10
10.1043133858267709
20
-2.4366045669291339
11
10.0906900000000004
21
-2.4389192913385824
0
LINE
8
BLACK
6
CONTINUOUS
10
10.0906900000000004
20
-2.4389192913385824
11
10.0774114960629912
21
-2.4427447637795274
0
LINE
8
BLACK
6
CONTINUOUS
10
10.0774114960629912
20
-2.4427447637795274
11
10.064644763779528
21
-2.4480329133858265
0
LINE
8
BLACK
6
CONTINUOUS
10
10.064644763779528
20
-2.4480329133858265
11
10.0525503937007876
21
-2.4547172440944882
0
LINE
8
BLACK
6
CONTINUOUS
10
10.0525503937007876
20
-2.4547172440944882
11
10.0412804724409455
21
-2.4627136614173226
0
LINE
8
BLACK
6
CONTINUOUS
10
10.0412804724409455
20
-2.4627136614173226
11
10.0309767716535436
21
-2.4719216535433071
0
LINE
8
BLACK
6
CONTINUOUS
10
10.0309767716535436
20
-2.4719216535433071
11
10.0217687795275587
21
-2.4822253543307085
0
LINE
8
BLACK
6
CONTINUOUS
10
10.0217687795275587
20
-2.4822253543307085
11
10.0137723622047243
21
-2.4934952755905511
0
LINE
8
BLACK
6
CONTINUOUS
10
10.0137723622047243
20
-2.4934952755905511
11
10.0070880314960622
21
-2.5055896456692914
0
LINE
8
BLACK
6
CONTINUOUS
10
10.0070880314960622
20
-2.5055896456692914
11
10.0017998818897631
21
-2.518356377952756
0
LINE
8
BLACK
6
CONTINUOUS
10
10.0017998818897631
20
-2.518356377952756
11
9.997974409448819
21
-2.5316348818897638
0
LINE
8
BLACK
6
CONTINUOUS
10
9.997974409448819
20
-2.5316348818897638
11
9.9956596850393691
21
-2.5452582677165352
0
LINE
8
BLACK
6
CONTINUOUS
10
9.9956596850393691
20
-2.5452582677165352
11
9.9948848818897638
21
-2.5590551181102361
0
LINE
8
BLACK
6
CONTINUOUS
10
9.9948848818897638
20
-2.5590551181102361
11
9.9956596850393691
21
-2.572851968503937
0
CIRCLE
8
BLACK
10
6.622047244094488
20
-3.4244094488188974
40
0.015748031496063
0
CIRCLE
8
BLACK
10
6.5220472440944883
20
-3.4244094488188974
40
0.015748031496063
0
CIRCLE
8
BLACK
10
6.4220472440944878
20
-3.4244094488188974
40
0.015748031496063
0
CIRCLE
8
BLACK
10
6.3220472440944881
20
-3.4244094488188974
40
0.015748031496063
0
CIRCLE
8
BLACK
10
6.2220472440944876
20
-3.4244094488188974
40
0.015748031496063
0
CIRCLE
8
BLACK
10
6.122047244094488
20
-3.4244094488188974
40
0.015748031496063
0
CIRCLE
8
BLACK
10
6.0220472440944883
20
-3.4244094488188974
40
0.015748031496063
0
CIRCLE
8
BLACK
10
5.9220472440944878
20
-3.4244094488188974
40
0.015748031496063
0
CIRCLE
8
BLACK
10
5.9220472440944878
20
-3.7244094488188977
40
0.015748031496063
0
CIRCLE
8
BLACK
10
6.0220472440944883
20
-3.7244094488188977
40
0.015748031496063
0
CIRCLE
8
BLACK
10
6.122047244094488
20
-3.7244094488188977
40
0.015748031496063
0
CIRCLE
8
BLACK
10
6.2220472440944876
20
-3.7244094488188977
40
0.015748031496063
0
CIRCLE
8
BLACK
10
6.3220472440944881
20
-3.7244094488188977
40
0.015748031496063
0
CIRCLE
8
BLACK
10
6.4220472440944878
20
-3.7244094488188977
40
0.015748031496063
0
CIRCLE
8
BLACK
10
6.5220472440944883
20
-3.7244094488188977
40
0.015748031496063
0
CIRCLE
8
BLACK
10
6.622047244094488
20
-3.7244094488188977
40
0.015748031496063
0
CIRCLE
8
BLACK
10
4.2566929133858267
20
-3.3464566929133857
40
0.0196850393700787
0
CIRCLE
8
BLACK
10
4.1582677165354331
20
-3.2480314960629921
40
0.0196850393700787
0
CIRCLE
8
BLACK
10
4.0598425196850396
20
-3.3464566929133857
40
0.0196850393700787
0
CIRCLE
8
BLACK
10
4.5716535433070868
20
-2.6181102362204722
40
0.015748031496063
0
CIRCLE
8
BLACK
10
4.5716535433070868
20
-2.9181102362204725
40
0.015748031496063
0
CIRCLE
8
BLACK
10
4.5716535433070868
20
-3.4448818897637796
40
0.0236220472440945
0
CIRCLE
8
BLACK
10
4.5716535433070868
20
-3.0448818897637793
40
0.0236220472440945
0
CIRCLE
8
BLACK
10
3.5075866141732281
20
-4.0545133858267715
40
0.0165
0
CIRCLE
8
BLACK
10
3.1065866141732283
20
-4.0545133858267715
40
0.0165
0
CIRCLE
8
BLACK
10
3.0651866141732285
20
-4.1636133858267712
40
0.0165
0
CIRCLE
8
BLACK
10
3.0792866141732285
20
-4.2793133858267716
40
0.0165
0
CIRCLE
8
BLACK
10
3.1454866141732283
20
-4.3753133858267717
40
0.0165
0
CIRCLE
8
BLACK
10
3.2487866141732282
20
-4.4295133858267715
40
0.0165
0
CIRCLE
8
BLACK
10
3.3653866141732283
20
-4.4295133858267715
40
0.0165
0
CIRCLE
8
BLACK
10
3.4686866141732282
20
-4.3753133858267717
40
0.0165
0
CIRCLE
8
BLACK
10
3.5348866141732285
20
-4.2793133858267716
40
0.0165
0
CIRCLE
8
BLACK
10
3.5489866141732285
20
-4.1636133858267712
40
0.0165
0
CIRCLE
8
BLACK
10
3.3070866141732282
20
-3.9493133858267715
40
0.0165
0
CIRCLE
8
BLACK
10
3.1938866141732283
20
-3.9772133858267718
40
0.0165
0
CIRCLE
8
BLACK
10
3.4202866141732282
20
-3.9772133858267718
40
0.0165
0
CIRCLE
8
BLACK
10
9.2598425196850389
20
-3.2519685039370079
40
0.015748031496063
0
CIRCLE
8
BLACK
10
9.456692913385826
20
-3.2519685039370079
40
0.015748031496063
0
CIRCLE
8
BLACK
10
4.531208661417323
20
-4.0545133858267715
40
0.0165
0
CIRCLE
8
BLACK
10
4.1302086614173223
20
-4.0545133858267715
40
0.0165
0
CIRCLE
8
BLACK
10
4.0888086614173229
20
-4.1636133858267712
40
0.0165
0
CIRCLE
8
BLACK
10
4.1029086614173229
20
-4.2793133858267716
40
0.0165
0
CIRCLE
8
BLACK
10
4.1691086614173232
20
-4.3753133858267717
40
0.0165
0
CIRCLE
8
BLACK
10
4.2724086614173231
20
-4.4295133858267715
40
0.0165
0
CIRCLE
8
BLACK
10
4.3890086614173232
20
-4.4295133858267715
40
0.0165
0
CIRCLE
8
BLACK
10
4.4923086614173231
20
-4.3753133858267717
40
0.0165
0
CIRCLE
8
BLACK
10
4.5585086614173225
20
-4.2793133858267716
40
0.0165
0
CIRCLE
8
BLACK
10
4.5726086614173225
20
-4.1636133858267712
40
0.0165
0
CIRCLE
8
BLACK
10
4.3307086614173231
20
-3.9493133858267715
40
0.0165
0
CIRCLE
8
BLACK
10
4.2175086614173232
20
-3.9772133858267718
40
0.0165
0
CIRCLE
8
BLACK
10
4.4439086614173231
20
-3.9772133858267718
40
0.0165
0
CIRCLE
8
BLACK
10
7.7821955511811023
20
-3.8910327952755903
40
0.015748031496063
0
CIRCLE
8
BLACK
10
7.6430012992125986
20
-4.030227047244094
40
0.015748031496063
0
CIRCLE
8
BLACK
10
4.4141732283464563
20
-2.9181102362204725
40
0.015748031496063
0
CIRCLE
8
BLACK
10
4.4141732283464563
20
-2.6181102362204722
40
0.015748031496063
0
CIRCLE
8
BLACK
10
3.5283464566929132
20
-2.6181102362204722
40
0.0255905511811024
0
CIRCLE
8
BLACK
10
3.7251968503937007
20
-2.6181102362204722
40
0.0255905511811024
0
CIRCLE
8
BLACK
10
3.2724409448818896
20
-2.6181102362204722
40
0.015748031496063
0
CIRCLE
8
BLACK
10
3.2724409448818896
20
-2.7165354330708662
40
0.015748031496063
0
CIRCLE
8
BLACK
10
6.9645668897637796
20
-3.5964566929133857
40
0.0177165354330709
0
CIRCLE
8
BLACK
10
6.9645668897637796
20
-2.8090550787401574
40
0.0177165354330709
0
CIRCLE
8
BLACK
10
3.0559055118110234
20
-3.2480314960629921
40
0.015748031496063
0
CIRCLE
8
BLACK
10
2.9574803149606299
20
-3.2480314960629921
40
0.015748031496063
0
CIRCLE
8
BLACK
10
8.1889763779527556
20
-4.4685039370078741
40
0.015748031496063
0
CIRCLE
8
BLACK
10
8.1889763779527556
20
-4.1685039370078742
40
0.015748031496063
0
CIRCLE
8
BLACK
10
9.156692913385827
20
-2.8385826771653542
40
0.015748031496063
0
CIRCLE
8
BLACK
10
9.456692913385826
20
-2.8385826771653542
40
0.015748031496063
0
CIRCLE
8
BLACK
10
6.4960629921259843
20
-4.4685039370078741
40
0.015748031496063
0
CIRCLE
8
BLACK
10
6.4960629921259843
20
-4.1685039370078742
40
0.015748031496063
0
CIRCLE
8
BLACK
10
8.8425196850393704
20
-2.7795275590551181
40
0.015748031496063
0
CIRCLE
8
BLACK
10
8.7425196850393707
20
-2.7795275590551181
40
0.015748031496063
0
CIRCLE
8
BLACK
10
8.642519724409448
20
-2.7795275590551181
40
0.015748031496063
0
CIRCLE
8
BLACK
10
8.5425196850393696
20
-2.7795275590551181
40
0.015748031496063
0
CIRCLE
8
BLACK
10
8.44251968503937
20
-2.7795275590551181
40
0.015748031496063
0
CIRCLE
8
BLACK
10
8.3425196850393704
20
-2.7795275590551181
40
0.015748031496063
0
CIRCLE
8
BLACK
10
8.2425196850393707
20
-2.7795275590551181
40
0.015748031496063
0
CIRCLE
8
BLACK
10
8.1425196456692905
20
-2.7795275590551181
40
0.015748031496063
0
CIRCLE
8
BLACK
10
8.0425196850393696
20
-2.7795275590551181
40
0.015748031496063
0
CIRCLE
8
BLACK
10
7.94251968503937
20
-2.7795275590551181
40
0.015748031496063
0
CIRCLE
8
BLACK
10
7.8425196850393695
20
-2.7795275590551181
40
0.015748031496063
0
CIRCLE
8
BLACK
10
7.7425197244094486
20
-2.7795275590551181
40
0.015748031496063
0
CIRCLE
8
BLACK
10
7.6425196850393702
20
-2.7795275590551181
40
0.015748031496063
0
CIRCLE
8
BLACK
10
7.5425196850393696
20
-2.7795275590551181
40
0.015748031496063
0
CIRCLE
8
BLACK
10
7.5425196850393696
20
-3.0795275590551179
40
0.015748031496063
0
CIRCLE
8
BLACK
10
7.6425196850393702
20
-3.0795275590551179
40
0.015748031496063
0
CIRCLE
8
BLACK
10
7.7425196850393698
20
-3.0795275590551179
40
0.015748031496063
0
CIRCLE
8
BLACK
10
7.8425196850393695
20
-3.0795275590551179
40
0.015748031496063
0
CIRCLE
8
BLACK
10
7.94251968503937
20
-3.0795275590551179
40
0.015748031496063
0
CIRCLE
8
BLACK
10
8.0425196850393696
20
-3.0795275590551179
40
0.015748031496063
0
CIRCLE
8
BLACK
10
8.1425196850393693
20
-3.0795275590551179
40
0.015748031496063
0
CIRCLE
8
BLACK
10
8.2425196850393707
20
-3.0795275590551179
40
0.015748031496063
0
CIRCLE
8
BLACK
10
8.3425196850393704
20
-3.0795275590551179
40
0.015748031496063
0
CIRCLE
8
BLACK
10
8.44251968503937
20
-3.0795275590551179
40
0.015748031496063
0
CIRCLE
8
BLACK
10
8.5425196850393696
20
-3.0795275590551179
40
0.015748031496063
0
CIRCLE
8
BLACK
10
8.6425196850393693
20
-3.0795275590551179
40
0.015748031496063
0
CIRCLE
8
BLACK
10
8.7425196850393707
20
-3.0795275590551179
40
0.015748031496063
0
CIRCLE
8
BLACK
10
8.8425196850393704
20
-3.0795275590551179
40
0.015748031496063
0
CIRCLE
8
BLACK
10
9.8917322834645667
20
-3.5314763779527558
40
0.015748031496063
0
CIRCLE
8
BLACK
10
10.1917322834645674
20
-3.5314763779527558
40
0.015748031496063
0
CIRCLE
8
BLACK
10
3.2527559055118109
20
-3.5433070866141732
40
0.015748031496063
0
CIRCLE
8
BLACK
10
2.9527559055118111
20
-3.5433070866141732
40
0.015748031496063
0
CIRCLE
8
BLACK
10
5.2593503937007871
20
-4.0748031496062991
40
0.0118
0
CIRCLE
8
BLACK
10
5.1343503937007871
20
-4.0748031496062991
40
0.0118
0
CIRCLE
8
BLACK
10
9.156692913385827
20
-2.9763779527559056
40
0.015748031496063
0
CIRCLE
8
BLACK
10
9.456692913385826
20
-2.9763779527559056
40
0.015748031496063
0
CIRCLE
8
BLACK
10
3.3905511811023623
20
-3.3858267716535431
40
0.0147637795275591
0
CIRCLE
8
BLACK
10
3.3905511811023623
20
-3.4358267716535433
40
0.0147637795275591
0
CIRCLE
8
BLACK
10
3.3905511811023623
20
-3.4858267716535432
40
0.0147637795275591
0
CIRCLE
8
BLACK
10
3.8976377952755903
20
-4.1657480314960633
40
0.015748031496063
0
CIRCLE
8
BLACK
10
3.8976377952755903
20
-3.8657480314960631
40
0.015748031496063
0
CIRCLE
8
BLACK
10
9.0070866141732289
20
-3.015748031496063
40
0.015748031496063
0
CIRCLE
8
BLACK
10
9.0070866141732289
20
-2.8188976377952755
40
0.015748031496063
0
CIRCLE
8
BLACK
10
9.2519685039370074
20
-4.1657480314960633
40
0.015748031496063
0
CIRCLE
8
BLACK
10
9.2519685039370074
20
-3.8657480314960631
40
0.015748031496063
0
CIRCLE
8
BLACK
10
7.2871141732283462
20
-4.0545133858267715
40
0.0165
0
CIRCLE
8
BLACK
10
6.8861141732283464
20
-4.0545133858267715
40
0.0165
0
CIRCLE
8
BLACK
10
6.8447141732283461
20
-4.1636133858267712
40
0.0165
0
CIRCLE
8
BLACK
10
6.8588141732283461
20
-4.2793133858267716
40
0.0165
0
CIRCLE
8
BLACK
10
6.9250141732283463
20
-4.3753133858267717
40
0.0165
0
CIRCLE
8
BLACK
10
7.0283141732283463
20
-4.4295133858267715
40
0.0165
0
CIRCLE
8
BLACK
10
7.1449141732283463
20
-4.4295133858267715
40
0.0165
0
CIRCLE
8
BLACK
10
7.2482141732283463
20
-4.3753133858267717
40
0.0165
0
CIRCLE
8
BLACK
10
7.3144141732283465
20
-4.2793133858267716
40
0.0165
0
CIRCLE
8
BLACK
10
7.3285141732283465
20
-4.1636133858267712
40
0.0165
0
CIRCLE
8
BLACK
10
7.0866141732283463
20
-3.9493133858267715
40
0.0165
0
CIRCLE
8
BLACK
10
6.9734141732283463
20
-3.9772133858267718
40
0.0165
0
CIRCLE
8
BLACK
10
7.1998141732283463
20
-3.9772133858267718
40
0.0165
0
CIRCLE
8
BLACK
10
3.1496062992125982
20
-2.9527559055118111
40
0.015748031496063
0
CIRCLE
8
BLACK
10
3.1496062992125982
20
-3.0527559055118108
40
0.015748031496063
0
CIRCLE
8
BLACK
10
3.1496062992125982
20
-3.1527559055118108
40
0.015748031496063
0
CIRCLE
8
BLACK
10
3.1496062992125982
20
-3.2527559055118109
40
0.015748031496063
0
CIRCLE
8
BLACK
10
3.4496062992125984
20
-3.2527559055118109
40
0.015748031496063
0
CIRCLE
8
BLACK
10
3.4496062992125984
20
-3.1527559055118108
40
0.015748031496063
0
CIRCLE
8
BLACK
10
3.4496062992125984
20
-3.0527559055118108
40
0.015748031496063
0
CIRCLE
8
BLACK
10
3.4496062992125984
20
-2.9527559055118111
40
0.015748031496063
0
CIRCLE
8
BLACK
10
9.1614173228346463
20
-3.3897637795275588
40
0.015748031496063
0
CIRCLE
8
BLACK
10
9.4614173228346452
20
-3.3897637795275588
40
0.015748031496063
0
CIRCLE
8
BLACK
10
9.2598425196850389
20
-3.1141732283464565
40
0.015748031496063
0
CIRCLE
8
BLACK
10
9.456692913385826
20
-3.1141732283464565
40
0.015748031496063
0
CIRCLE
8
BLACK
10
8.0152559055118111
20
-4.0748031496062991
40
0.0118
0
CIRCLE
8
BLACK
10
7.8902559055118111
20
-4.0748031496062991
40
0.0118
0
CIRCLE
8
BLACK
10
10.1732283464566926
20
-3.6614173228346454
40
0.015748031496063
0
CIRCLE
8
BLACK
10
10.1732283464566926
20
-3.8582677165354329
40
0.015748031496063
0
CIRCLE
8
BLACK
10
4.4141732283464563
20
-3.3389763779527559
40
0.015748031496063
0
CIRCLE
8
BLACK
10
4.4141732283464563
20
-3.0389763779527557
40
0.015748031496063
0
CIRCLE
8
BLACK
10
5.5748031496062991
20
-2.8346456692913384
40
0.015748031496063
0
CIRCLE
8
BLACK
10
5.7716535433070861
20
-2.8346456692913384
40
0.015748031496063
0
CIRCLE
8
BLACK
10
9.4094488188976371
20
-4.1657480314960633
40
0.015748031496063
0
CIRCLE
8
BLACK
10
9.4094488188976371
20
-3.8657480314960631
40
0.015748031496063
0
CIRCLE
8
BLACK
10
9.0193976377952758
20
-4.0545133858267715
40
0.0165
0
CIRCLE
8
BLACK
10
8.618397637795276
20
-4.0545133858267715
40
0.0165
0
CIRCLE
8
BLACK
10
8.5769976377952748
20
-4.1636133858267712
40
0.0165
0
CIRCLE
8
BLACK
10
8.5910976377952757
20
-4.2793133858267716
40
0.0165
0
CIRCLE
8
BLACK
10
8.6572976377952759
20
-4.3753133858267717
40
0.0165
0
CIRCLE
8
BLACK
10
8.760597637795275
20
-4.4295133858267715
40
0.0165
0
CIRCLE
8
BLACK
10
8.877197637795275
20
-4.4295133858267715
40
0.0165
0
CIRCLE
8
BLACK
10
8.9804976377952759
20
-4.3753133858267717
40
0.0165
0
CIRCLE
8
BLACK
10
9.0466976377952761
20
-4.2793133858267716
40
0.0165
0
CIRCLE
8
BLACK
10
9.0607976377952753
20
-4.1636133858267712
40
0.0165
0
CIRCLE
8
BLACK
10
8.8188976377952759
20
-3.9493133858267715
40
0.0165
0
CIRCLE
8
BLACK
10
8.7056976377952751
20
-3.9772133858267718
40
0.0165
0
CIRCLE
8
BLACK
10
8.932097637795275
20
-3.9772133858267718
40
0.0165
0
CIRCLE
8
BLACK
10
3.7244094488188977
20
-4.3700787401574805
40
0.0098425196850394
0
CIRCLE
8
BLACK
10
3.7520844094488188
20
-4.3032655118110235
40
0.0098425196850394
0
CIRCLE
8
BLACK
10
3.7520844094488188
20
-4.4368919685039367
40
0.0098425196850394
0
CIRCLE
8
BLACK
10
3.8188976377952755
20
-4.2755905511811019
40
0.0098425196850394
0
CIRCLE
8
BLACK
10
3.8188976377952755
20
-4.3700787401574805
40
0.062992125984252
0
CIRCLE
8
BLACK
10
3.8188976377952755
20
-4.4645669291338583
40
0.0098425196850394
0
CIRCLE
8
BLACK
10
3.8857108661417321
20
-4.3032655118110235
40
0.0098425196850394
0
CIRCLE
8
BLACK
10
3.8857108661417321
20
-4.4368919685039367
40
0.0098425196850394
0
CIRCLE
8
BLACK
10
3.9133858267716533
20
-4.3700787401574805
40
0.0098425196850394
0
CIRCLE
8
BLACK
10
5.0236220472440944
20
-3.901574803149606
40
0.015748031496063
0
CIRCLE
8
BLACK
10
4.8844277952755908
20
-4.0407690551181101
40
0.015748031496063
0
CIRCLE
8
BLACK
10
3.7251968503937007
20
-3.5996062992125983
40
0.0688976377952756
0
CIRCLE
8
BLACK
10
3.8251968503937008
20
-2.9437007874015748
40
0.0216535433070866
0
CIRCLE
8
BLACK
10
3.7251968503937007
20
-2.9437007874015748
40
0.0216535433070866
0
CIRCLE
8
BLACK
10
3.6251968503937007
20
-2.9437007874015748
40
0.0216535433070866
0
CIRCLE
8
BLACK
10
3.7716535433070866
20
-4.1657480314960633
40
0.015748031496063
0
CIRCLE
8
BLACK
10
3.7716535433070866
20
-3.8657480314960631
40
0.015748031496063
0
CIRCLE
8
BLACK
10
5.4330708661417324
20
-4.4685039370078741
40
0.015748031496063
0
CIRCLE
8
BLACK
10
5.4330708661417324
20
-4.1685039370078742
40
0.015748031496063
0
CIRCLE
8
BLACK
10
4.1582677165354331
20
-2.8346456692913384
40
0.015748031496063
0
CIRCLE
8
BLACK
10
4.1582677165354331
20
-2.9724409448818898
40
0.015748031496063
0
CIRCLE
8
BLACK
10
6.0986220472440946
20
-2.6498031496062993
40
0.015748031496063
0
CIRCLE
8
BLACK
10
6.3986220472440944
20
-2.6498031496062993
40
0.015748031496063
0
CIRCLE
8
BLACK
10
4.9606299212598426
20
-4.4685039370078741
40
0.015748031496063
0
CIRCLE
8
BLACK
10
4.9606299212598426
20
-4.1685039370078742
40
0.015748031496063
0
CIRCLE
8
BLACK
10
5.2593503937007871
20
-4.3503937007874018
40
0.0118
0
CIRCLE
8
BLACK
10
5.1343503937007871
20
-4.3503937007874018
40
0.0118
0
CIRCLE
8
BLACK
10
4.8019685039370081
20
-2.9291338582677167
40
0.0688976377952756
0
CIRCLE
8
BLACK
10
5.4578740157480317
20
-3.0291338582677163
40
0.0216535433070866
0
CIRCLE
8
BLACK
10
5.4578740157480317
20
-2.9291338582677167
40
0.0216535433070866
0
CIRCLE
8
BLACK
10
5.4578740157480317
20
-2.8291338582677166
40
0.0216535433070866
0
CIRCLE
8
BLACK
10
10.0236220472440944
20
-2.5590551181102361
40
0.0098425196850394
0
CIRCLE
8
BLACK
10
10.051297007874016
20
-2.4922418897637795
40
0.0098425196850394
0
CIRCLE
8
BLACK
10
10.051297007874016
20
-2.6258683464566928
40
0.0098425196850394
0
CIRCLE
8
BLACK
10
10.1181102362204722
20
-2.4645669291338583
40
0.0098425196850394
0
CIRCLE
8
BLACK
10
10.1181102362204722
20
-2.5590551181102361
40
0.062992125984252
0
CIRCLE
8
BLACK
10
10.1181102362204722
20
-2.6535433070866139
40
0.0098425196850394
0
CIRCLE
8
BLACK
10
10.1849234645669284
20
-2.4922418897637795
40
0.0098425196850394
0
CIRCLE
8
BLACK
10
10.1849234645669284
20
-2.6258683464566928
40
0.0098425196850394
0
CIRCLE
8
BLACK
10
10.21259842519685
20
-2.5590551181102361
40
0.0098425196850394
0
CIRCLE
8
BLACK
10
9.2362204724409445
20
-4.3700787401574805
40
0.0098425196850394
0
CIRCLE
8
BLACK
10
9.263895433070866
20
-4.3032655118110235
40
0.0098425196850394
0
CIRCLE
8
BLACK
10
9.263895433070866
20
-4.4368919685039367
40
0.0098425196850394
0
CIRCLE
8
BLACK
10
9.3307086614173222
20
-4.2755905511811019
40
0.0098425196850394
0
CIRCLE
8
BLACK
10
9.3307086614173222
20
-4.3700787401574805
40
0.062992125984252
0
CIRCLE
8
BLACK
10
9.3307086614173222
20
-4.4645669291338583
40
0.0098425196850394
0
CIRCLE
8
BLACK
10
9.3975218897637784
20
-4.3032655118110235
40
0.0098425196850394
0
CIRCLE
8
BLACK
10
9.3975218897637784
20
-4.4368919685039367
40
0.0098425196850394
0
CIRCLE
8
BLACK
10
9.4251968503937
20
-4.3700787401574805
40
0.0098425196850394
0
CIRCLE
8
BLACK
10
2.8976377952755903
20
-2.5590551181102361
40
0.0098425196850394
0
CIRCLE
8
BLACK
10
2.9253127559055119
20
-2.4922418897637795
40
0.0098425196850394
0
CIRCLE
8
BLACK
10
2.9253127559055119
20
-2.6258683464566928
40
0.0098425196850394
0
CIRCLE
8
BLACK
10
2.9921259842519685
20
-2.4645669291338583
40
0.0098425196850394
0
CIRCLE
8
BLACK
10
2.9921259842519685
20
-2.5590551181102361
40
0.062992125984252
0
CIRCLE
8
BLACK
10
2.9921259842519685
20
-2.6535433070866139
40
0.0098425196850394
0
CIRCLE
8
BLACK
10
3.0589392125984252
20
-2.4922418897637795
40
0.0098425196850394
0
CIRCLE
8
BLACK
10
3.0589392125984252
20
-2.6258683464566928
40
0.0098425196850394
0
CIRCLE
8
BLACK
10
3.0866141732283463
20
-2.5590551181102361
40
0.0098425196850394
0
CIRCLE
8
BLACK
10
7.7165354330708658
20
-4.4685039370078741
40
0.015748031496063
0
CIRCLE
8
BLACK
10
7.7165354330708658
20
-4.1685039370078742
40
0.015748031496063
0
CIRCLE
8
BLACK
10
4.2023622047244089
20
-2.6181102362204722
40
0.0216535433070866
0
CIRCLE
8
BLACK
10
3.9023622047244095
20
-2.6181102362204722
40
0.0216535433070866
0
CIRCLE
8
BLACK
10
6.2634921259842518
20
-4.0545133858267715
40
0.0165
0
CIRCLE
8
BLACK
10
5.862492125984252
20
-4.0545133858267715
40
0.0165
0
CIRCLE
8
BLACK
10
5.8210921259842516
20
-4.1636133858267712
40
0.0165
0
CIRCLE
8
BLACK
10
5.8351921259842516
20
-4.2793133858267716
40
0.0165
0
CIRCLE
8
BLACK
10
5.9013921259842519
20
-4.3753133858267717
40
0.0165
0
CIRCLE
8
BLACK
10
6.0046921259842518
20
-4.4295133858267715
40
0.0165
0
CIRCLE
8
BLACK
10
6.1212921259842519
20
-4.4295133858267715
40
0.0165
0
CIRCLE
8
BLACK
10
6.2245921259842518
20
-4.3753133858267717
40
0.0165
0
CIRCLE
8
BLACK
10
6.2907921259842521
20
-4.2793133858267716
40
0.0165
0
CIRCLE
8
BLACK
10
6.3048921259842521
20
-4.1636133858267712
40
0.0165
0
CIRCLE
8
BLACK
10
6.0629921259842519
20
-3.9493133858267715
40
0.0165
0
CIRCLE
8
BLACK
10
5.9497921259842519
20
-3.9772133858267718
40
0.0165
0
CIRCLE
8
BLACK
10
6.1761921259842518
20
-3.9772133858267718
40
0.0165
0
CIRCLE
8
BLACK
10
6.0986220472440946
20
-2.7679133858267715
40
0.015748031496063
0
CIRCLE
8
BLACK
10
6.3986220472440944
20
-2.7679133858267715
40
0.015748031496063
0
CIRCLE
8
BLACK
10
9.8897637795275593
20
-2.8976377952755903
40
0.0433070866141732
0
CIRCLE
8
BLACK
10
9.8897637795275593
20
-3.3464566929133857
40
0.0433070866141732
0
CIRCLE
8
BLACK
10
9.5944881889763778
20
-3.0236220472440944
40
0.0196850393700787
0
CIRCLE
8
BLACK
10
9.5944881889763778
20
-3.2204724409448819
40
0.0196850393700787
0
CIRCLE
8
BLACK
10
9.5944881889763778
20
-3.122047244094488
40
0.0196850393700787
0
CIRCLE
8
BLACK
10
10.1653543307086611
20
-3.0236220472440944
40
0.0196850393700787
0
CIRCLE
8
BLACK
10
10.1653543307086611
20
-3.2204724409448819
40
0.0196850393700787
0
CIRCLE
8
BLACK
10
8.0152559055118111
20
-4.3503937007874018
40
0.0118
0
CIRCLE
8
BLACK
10
7.8902559055118111
20
-4.3503937007874018
40
0.0118
0
CIRCLE
8
BLACK
10
3.0501968503937009
20
-2.811023622047244
40
0.0196850393700787
0
CIRCLE
8
BLACK
10
2.9501968503937008
20
-2.811023622047244
40
0.0196850393700787
0
CIRCLE
8
BLACK
10
10.0430196850393703
20
-4.0545133858267715
40
0.0165
0
CIRCLE
8
BLACK
10
9.6420196850393705
20
-4.0545133858267715
40
0.0165
0
CIRCLE
8
BLACK
10
9.6006196850393692
20
-4.1636133858267712
40
0.0165
0
CIRCLE
8
BLACK
10
9.6147196850393701
20
-4.2793133858267716
40
0.0165
0
CIRCLE
8
BLACK
10
9.6809196850393704
20
-4.3753133858267717
40
0.0165
0
CIRCLE
8
BLACK
10
9.7842196850393695
20
-4.4295133858267715
40
0.0165
0
CIRCLE
8
BLACK
10
9.9008196850393695
20
-4.4295133858267715
40
0.0165
0
CIRCLE
8
BLACK
10
10.0041196850393703
20
-4.3753133858267717
40
0.0165
0
CIRCLE
8
BLACK
10
10.0703196850393706
20
-4.2793133858267716
40
0.0165
0
CIRCLE
8
BLACK
10
10.0844196850393697
20
-4.1636133858267712
40
0.0165
0
CIRCLE
8
BLACK
10
9.8425196850393704
20
-3.9493133858267715
40
0.0165
0
CIRCLE
8
BLACK
10
9.7293196850393695
20
-3.9772133858267718
40
0.0165
0
CIRCLE
8
BLACK
10
9.9557196850393694
20
-3.9772133858267718
40
0.0165
0
CIRCLE
8
BLACK
10
9.4893700787401567
20
-3.5314763779527558
40
0.015748031496063
0
CIRCLE
8
BLACK
10
9.7893700787401574
20
-3.5314763779527558
40
0.015748031496063
0
CIRCLE
8
BLACK
10
6.6181102362204722
20
-3.8385826771653542
40
0.015748031496063
0
CIRCLE
8
BLACK
10
6.4212598425196852
20
-3.8385826771653542
40
0.015748031496063
0
CIRCLE
8
BLACK
10
5.965551181102362
20
-2.8466535433070868
40
0.015748031496063
0
CIRCLE
8
BLACK
10
5.965551181102362
20
-2.6498031496062993
40
0.015748031496063
0
CIRCLE
8
BLACK
10
6.484251968503937
20
-3.2913385826771653
40
0.015748031496063
0
CIRCLE
8
BLACK
10
6.2874015748031491
20
-3.2913385826771653
40
0.015748031496063
0
CIRCLE
8
BLACK
10
6.6535433070866139
20
-4.4685039370078741
40
0.015748031496063
0
CIRCLE
8
BLACK
10
6.6535433070866139
20
-4.1685039370078742
40
0.015748031496063
0
CIRCLE
8
BLACK
10
3.2527559055118109
20
-3.3858267716535431
40
0.015748031496063
0
CIRCLE
8
BLACK
10
2.9527559055118111
20
-3.3858267716535431
40
0.015748031496063
0
CIRCLE
8
BLACK
10
5.965551181102362
20
-2.9403543307086615
40
0.015748031496063
0
CIRCLE
8
BLACK
10
5.965551181102362
20
-3.2403543307086613
40
0.015748031496063
0
CIRCLE
8
BLACK
10
5.5748031496062991
20
-3.0314960629921259
40
0.015748031496063
0
CIRCLE
8
BLACK
10
5.7716535433070861
20
-3.0314960629921259
40
0.015748031496063
0
CIRCLE
8
BLACK
10
9.091732283464566
20
-3.5314763779527558
40
0.015748031496063
0
CIRCLE
8
BLACK
10
9.3917322834645667
20
-3.5314763779527558
40
0.015748031496063
0
CIRCLE
8
BLACK
10
3.0362204724409447
20
-2.9330708661417324
40
0.015748031496063
0
CIRCLE
8
BLACK
10
3.0362204724409447
20
-3.1299212598425195
40
0.015748031496063
0
CIRCLE
8
BLACK
10
5.1574803149606296
20
-2.6419291338582678
40
0.0255905511811024
0
CIRCLE
8
BLACK
10
4.9574803149606295
20
-2.6419291338582678
40
0.0255905511811024
  0
ENDSEC
  0
EOF
