  0
SECTION
  2
HEADER
  9
$ANGBASE
  50
0.0
  9
$ANGDIR
  70
1
  9
$MEASUREMENT
  70
0
  0
ENDSEC
  0
SECTION
  2
TABLES
  0
TABLE
  2
LTYPE
  70
4
  0
LTYPE
  5
40F
  2
CONTINUOUS
  70
0
  3
Solid line
  72
65
  73
0
  40
0.0
  0
LTYPE
  5
410
  2
DASHDOT
 70
0
  3
Dash Dot ____ _ ____ _
 72
65
 73
4
 40
2.0
 49
1.25
 49
-0.25
 49
0.25
 49
-0.25
  0
LTYPE
  5
411
  2
DASHED
 70
0
  3
Dashed __ __ __ __ __
 72
65
 73
2
 40
0.75
 49
0.5
 49
-0.25
  0
LTYPE
  5
43B
  2
DOTTED
 70
0
  3
Dotted .  .  .  .
 72
65
 73
2
 40
0.2
 49
0.0
 49
-0.2
  0
ENDTAB
  0
TABLE
  2
STYLE
  70
4
  0
STYLE
  2
KICAD
  70
0
  40
0
  41
1
  42
1
  50
0
  71
0
  3
isocp.shx
  0
STYLE
  2
KICADB
  70
0
  40
0
  41
1
  42
1
  50
0
  71
0
  3
isocp.shx
  0
STYLE
  2
KICADI
  70
0
  40
0
  41
1
  42
1
  50
15
  71
0
  3
isocp.shx
  0
STYLE
  2
KICADBI
  70
0
  40
0
  41
1
  42
1
  50
15
  71
0
  3
isocp.shx
  0
ENDTAB
  0
TABLE
  2
LAYER
  70
1
  0
LAYER
  2
BLACK
  70
0
  62
7
  6
CONTINUOUS
  0
ENDTAB
  0
ENDSEC
  0
SECTION
  2
ENTITIES
0
LINE
8
BLACK
6
CONTINUOUS
10
5.0496199212598425
20
-2.8835235433070867
11
5.0506843307086617
21
-2.8839644488188974
0
LINE
8
BLACK
6
CONTINUOUS
10
5.0506843307086617
20
-2.8839644488188974
11
5.0514989763779523
21
-2.8847790944881888
0
LINE
8
BLACK
6
CONTINUOUS
10
5.0514989763779523
20
-2.8847790944881888
11
5.0519398818897638
21
-2.8858435039370076
0
LINE
8
BLACK
6
CONTINUOUS
10
5.0519398818897638
20
-2.8858435039370076
11
5.0519398818897638
21
-2.8869956299212598
0
LINE
8
BLACK
6
CONTINUOUS
10
5.0519398818897638
20
-2.8869956299212598
11
5.0514989763779523
21
-2.8880600393700786
0
LINE
8
BLACK
6
CONTINUOUS
10
5.0514989763779523
20
-2.8880600393700786
11
5.0506843307086617
21
-2.8888746850393701
0
LINE
8
BLACK
6
CONTINUOUS
10
5.0506843307086617
20
-2.8888746850393701
11
5.0496199212598425
21
-2.8893155905511811
0
LINE
8
BLACK
6
CONTINUOUS
10
5.0496199212598425
20
-2.8893155905511811
11
5.0490438582677166
21
-2.8893723228346455
0
LINE
8
BLACK
6
CONTINUOUS
10
5.0490438582677166
20
-2.8893723228346455
11
5.019047598425197
21
-2.8893723228346455
0
LINE
8
BLACK
6
CONTINUOUS
10
5.019047598425197
20
-2.8893723228346455
11
5.0184715354330711
21
-2.8893155905511811
0
LINE
8
BLACK
6
CONTINUOUS
10
5.0184715354330711
20
-2.8893155905511811
11
5.0174071259842519
21
-2.8888746850393701
0
LINE
8
BLACK
6
CONTINUOUS
10
5.0174071259842519
20
-2.8888746850393701
11
5.0165924803149604
21
-2.8880600393700786
0
LINE
8
BLACK
6
CONTINUOUS
10
5.0165924803149604
20
-2.8880600393700786
11
5.0161515748031498
21
-2.8869956299212598
0
LINE
8
BLACK
6
CONTINUOUS
10
5.0161515748031498
20
-2.8869956299212598
11
5.0161515748031498
21
-2.8858435039370076
0
LINE
8
BLACK
6
CONTINUOUS
10
5.0161515748031498
20
-2.8858435039370076
11
5.0165924803149604
21
-2.8847790944881888
0
LINE
8
BLACK
6
CONTINUOUS
10
5.0165924803149604
20
-2.8847790944881888
11
5.0174071259842519
21
-2.8839644488188974
0
LINE
8
BLACK
6
CONTINUOUS
10
5.0174071259842519
20
-2.8839644488188974
11
5.0184715354330711
21
-2.8835235433070867
0
LINE
8
BLACK
6
CONTINUOUS
10
5.0184715354330711
20
-2.8835235433070867
11
5.019047598425197
21
-2.8834668110236219
0
LINE
8
BLACK
6
CONTINUOUS
10
5.019047598425197
20
-2.8834668110236219
11
5.0490438582677166
21
-2.8834668110236219
0
LINE
8
BLACK
6
CONTINUOUS
10
5.0490438582677166
20
-2.8834668110236219
11
5.0496199212598425
21
-2.8835235433070867
0
LINE
8
BLACK
6
CONTINUOUS
10
4.9390087007874017
20
-2.8535272834645671
11
4.939106692913386
21
-2.8535678740157482
0
LINE
8
BLACK
6
CONTINUOUS
10
4.939106692913386
20
-2.8535678740157482
11
4.9392125196850394
21
-2.8535753937007873
0
LINE
8
BLACK
6
CONTINUOUS
10
4.9392125196850394
20
-2.8535753937007873
11
4.9397531496062994
21
-2.8537822834645667
0
LINE
8
BLACK
6
CONTINUOUS
10
4.9397531496062994
20
-2.8537822834645667
11
4.9435026771653545
21
-2.8556570472440943
0
LINE
8
BLACK
6
CONTINUOUS
10
4.9435026771653545
20
-2.8556570472440943
11
4.9437506692913384
21
-2.8558131102362205
0
LINE
8
BLACK
6
CONTINUOUS
10
4.9437506692913384
20
-2.8558131102362205
11
4.9438226377952752
21
-2.8558429527559053
0
LINE
8
BLACK
6
CONTINUOUS
10
4.9438226377952752
20
-2.8558429527559053
11
4.9439035826771649
21
-2.8559094094488189
0
LINE
8
BLACK
6
CONTINUOUS
10
4.9439035826771649
20
-2.8559094094488189
11
4.9439925590551184
21
-2.8559653937007874
0
LINE
8
BLACK
6
CONTINUOUS
10
4.9439925590551184
20
-2.8559653937007874
11
4.9440437007874012
21
-2.8560243700787402
0
LINE
8
BLACK
6
CONTINUOUS
10
4.9440437007874012
20
-2.8560243700787402
11
4.944270078740157
21
-2.8562101574803149
0
LINE
8
BLACK
6
CONTINUOUS
10
4.944270078740157
20
-2.8562101574803149
11
4.9461448425196846
21
-2.8580849212598425
0
LINE
8
BLACK
6
CONTINUOUS
10
4.9461448425196846
20
-2.8580849212598425
11
4.946330590551181
21
-2.8583112598425195
0
LINE
8
BLACK
6
CONTINUOUS
10
4.946330590551181
20
-2.8583112598425195
11
4.9463896062992125
21
-2.858362440944882
0
LINE
8
BLACK
6
CONTINUOUS
10
4.9463896062992125
20
-2.858362440944882
11
4.9464455511811023
21
-2.8584513779527558
0
LINE
8
BLACK
6
CONTINUOUS
10
4.9464455511811023
20
-2.8584513779527558
11
4.9465120472440942
21
-2.8585323622047243
0
LINE
8
BLACK
6
CONTINUOUS
10
4.9465120472440942
20
-2.8585323622047243
11
4.9465418503937011
21
-2.8586042913385827
0
LINE
8
BLACK
6
CONTINUOUS
10
4.9465418503937011
20
-2.8586042913385827
11
4.9466979527559056
21
-2.8588523228346454
0
LINE
8
BLACK
6
CONTINUOUS
10
4.9466979527559056
20
-2.8588523228346454
11
4.9485727165354332
21
-2.8626018503937005
0
LINE
8
BLACK
6
CONTINUOUS
10
4.9485727165354332
20
-2.8626018503937005
11
4.9487796062992127
21
-2.8631424409448818
0
LINE
8
BLACK
6
CONTINUOUS
10
4.9487796062992127
20
-2.8631424409448818
11
4.9487871259842517
21
-2.8632483070866139
0
LINE
8
BLACK
6
CONTINUOUS
10
4.9487871259842517
20
-2.8632483070866139
11
4.9488277165354333
21
-2.8633462992125982
0
LINE
8
BLACK
6
CONTINUOUS
10
4.9488277165354333
20
-2.8633462992125982
11
4.9488844488188972
21
-2.8639223622047245
0
LINE
8
BLACK
6
CONTINUOUS
10
4.9488844488188972
20
-2.8639223622047245
11
4.9488844488188972
21
-2.8751709448818898
0
LINE
8
BLACK
6
CONTINUOUS
10
4.9488844488188972
20
-2.8751709448818898
11
4.9488277165354333
21
-2.8757470078740157
0
LINE
8
BLACK
6
CONTINUOUS
10
4.9488277165354333
20
-2.8757470078740157
11
4.9487871259842517
21
-2.8758449606299212
0
LINE
8
BLACK
6
CONTINUOUS
10
4.9487871259842517
20
-2.8758449606299212
11
4.9487796062992127
21
-2.8759508661417321
0
LINE
8
BLACK
6
CONTINUOUS
10
4.9487796062992127
20
-2.8759508661417321
11
4.9485727165354332
21
-2.8764914566929134
0
LINE
8
BLACK
6
CONTINUOUS
10
4.9485727165354332
20
-2.8764914566929134
11
4.9466979527559056
21
-2.8802409842519685
0
LINE
8
BLACK
6
CONTINUOUS
10
4.9466979527559056
20
-2.8802409842519685
11
4.9465418897637798
21
-2.8804888582677166
0
LINE
8
BLACK
6
CONTINUOUS
10
4.9465418897637798
20
-2.8804888582677166
11
4.946512086614173
21
-2.8805609055118109
0
LINE
8
BLACK
6
CONTINUOUS
10
4.946512086614173
20
-2.8805609055118109
11
4.9464455511811023
21
-2.8806419291338581
0
LINE
8
BLACK
6
CONTINUOUS
10
4.9464455511811023
20
-2.8806419291338581
11
4.9463896062992125
21
-2.8807308661417323
0
LINE
8
BLACK
6
CONTINUOUS
10
4.9463896062992125
20
-2.8807308661417323
11
4.946330590551181
21
-2.8807820078740156
0
LINE
8
BLACK
6
CONTINUOUS
10
4.946330590551181
20
-2.8807820078740156
11
4.9461448425196846
21
-2.8810083858267714
0
LINE
8
BLACK
6
CONTINUOUS
10
4.9461448425196846
20
-2.8810083858267714
11
4.9442701181102358
21
-2.882883149606299
0
LINE
8
BLACK
6
CONTINUOUS
10
4.9442701181102358
20
-2.882883149606299
11
4.9440437401574799
21
-2.8830688976377954
0
LINE
8
BLACK
6
CONTINUOUS
10
4.9440437401574799
20
-2.8830688976377954
11
4.9439925590551184
21
-2.8831279527559053
0
LINE
8
BLACK
6
CONTINUOUS
10
4.9439925590551184
20
-2.8831279527559053
11
4.9439035826771649
21
-2.8831839370078738
0
LINE
8
BLACK
6
CONTINUOUS
10
4.9439035826771649
20
-2.8831839370078738
11
4.9438226377952752
21
-2.8832503937007874
0
LINE
8
BLACK
6
CONTINUOUS
10
4.9438226377952752
20
-2.8832503937007874
11
4.9437506692913384
21
-2.8832801968503938
0
LINE
8
BLACK
6
CONTINUOUS
10
4.9437506692913384
20
-2.8832801968503938
11
4.9435026771653545
21
-2.8834362992125984
0
LINE
8
BLACK
6
CONTINUOUS
10
4.9435026771653545
20
-2.8834362992125984
11
4.9397531496062994
21
-2.8853110629921259
0
LINE
8
BLACK
6
CONTINUOUS
10
4.9397531496062994
20
-2.8853110629921259
11
4.9392125196850394
21
-2.8855179527559054
0
LINE
8
BLACK
6
CONTINUOUS
10
4.9392125196850394
20
-2.8855179527559054
11
4.939106692913386
21
-2.8855254330708662
0
LINE
8
BLACK
6
CONTINUOUS
10
4.939106692913386
20
-2.8855254330708662
11
4.9390087007874017
21
-2.885566062992126
0
LINE
8
BLACK
6
CONTINUOUS
10
4.9390087007874017
20
-2.885566062992126
11
4.9384326377952759
21
-2.8856227952755904
0
LINE
8
BLACK
6
CONTINUOUS
10
4.9384326377952759
20
-2.8856227952755904
11
4.9309335826771656
21
-2.8856227952755904
0
LINE
8
BLACK
6
CONTINUOUS
10
4.9309335826771656
20
-2.8856227952755904
11
4.9303575196850389
21
-2.885566062992126
0
LINE
8
BLACK
6
CONTINUOUS
10
4.9303575196850389
20
-2.885566062992126
11
4.9302595275590546
21
-2.8855254724409449
0
LINE
8
BLACK
6
CONTINUOUS
10
4.9302595275590546
20
-2.8855254724409449
11
4.9301536614173225
21
-2.8855179527559054
0
LINE
8
BLACK
6
CONTINUOUS
10
4.9301536614173225
20
-2.8855179527559054
11
4.9296130708661412
21
-2.8853110629921259
0
LINE
8
BLACK
6
CONTINUOUS
10
4.9296130708661412
20
-2.8853110629921259
11
4.9258635433070861
21
-2.8834362992125984
0
LINE
8
BLACK
6
CONTINUOUS
10
4.9258635433070861
20
-2.8834362992125984
11
4.9253736614173231
21
-2.8831279527559053
0
LINE
8
BLACK
6
CONTINUOUS
10
4.9253736614173231
20
-2.8831279527559053
11
4.9246188188976374
21
-2.8822575590551178
0
LINE
8
BLACK
6
CONTINUOUS
10
4.9246188188976374
20
-2.8822575590551178
11
4.9242544881889767
21
-2.8811646062992127
0
LINE
8
BLACK
6
CONTINUOUS
10
4.9242544881889767
20
-2.8811646062992127
11
4.9243361417322831
21
-2.8800153937007873
0
LINE
8
BLACK
6
CONTINUOUS
10
4.9243361417322831
20
-2.8800153937007873
11
4.9248513779527556
21
-2.8789848818897639
0
LINE
8
BLACK
6
CONTINUOUS
10
4.9248513779527556
20
-2.8789848818897639
11
4.9257217716535431
21
-2.8782300393700786
0
LINE
8
BLACK
6
CONTINUOUS
10
4.9257217716535431
20
-2.8782300393700786
11
4.9268147244094491
21
-2.8778657086614174
0
LINE
8
BLACK
6
CONTINUOUS
10
4.9268147244094491
20
-2.8778657086614174
11
4.9279639370078741
21
-2.8779473622047242
0
LINE
8
BLACK
6
CONTINUOUS
10
4.9279639370078741
20
-2.8779473622047242
11
4.9285045669291341
21
-2.8781542519685037
0
LINE
8
BLACK
6
CONTINUOUS
10
4.9285045669291341
20
-2.8781542519685037
11
4.9316306299212593
21
-2.8797172834645668
0
LINE
8
BLACK
6
CONTINUOUS
10
4.9316306299212593
20
-2.8797172834645668
11
4.9377355905511813
21
-2.8797172834645668
0
LINE
8
BLACK
6
CONTINUOUS
10
4.9377355905511813
20
-2.8797172834645668
11
4.9404330314960632
21
-2.8783685433070865
0
LINE
8
BLACK
6
CONTINUOUS
10
4.9404330314960632
20
-2.8783685433070865
11
4.941630157480315
21
-2.8771713779527559
0
LINE
8
BLACK
6
CONTINUOUS
10
4.941630157480315
20
-2.8771713779527559
11
4.9429789370078741
21
-2.8744738976377953
0
LINE
8
BLACK
6
CONTINUOUS
10
4.9429789370078741
20
-2.8744738976377953
11
4.9429789370078741
21
-2.8646194094488187
0
LINE
8
BLACK
6
CONTINUOUS
10
4.9429789370078741
20
-2.8646194094488187
11
4.9416301968503937
21
-2.861921929133858
0
LINE
8
BLACK
6
CONTINUOUS
10
4.9416301968503937
20
-2.861921929133858
11
4.9404330708661419
21
-2.8607248031496062
0
LINE
8
BLACK
6
CONTINUOUS
10
4.9404330708661419
20
-2.8607248031496062
11
4.9377355905511813
21
-2.8593760629921259
0
LINE
8
BLACK
6
CONTINUOUS
10
4.9377355905511813
20
-2.8593760629921259
11
4.9316306299212593
21
-2.8593760629921259
0
LINE
8
BLACK
6
CONTINUOUS
10
4.9316306299212593
20
-2.8593760629921259
11
4.9285045669291341
21
-2.8609390944881889
0
LINE
8
BLACK
6
CONTINUOUS
10
4.9285045669291341
20
-2.8609390944881889
11
4.9279639370078741
21
-2.8611459842519684
0
LINE
8
BLACK
6
CONTINUOUS
10
4.9279639370078741
20
-2.8611459842519684
11
4.9268147244094491
21
-2.8612276377952757
0
LINE
8
BLACK
6
CONTINUOUS
10
4.9268147244094491
20
-2.8612276377952757
11
4.9257217716535431
21
-2.8608633070866141
0
LINE
8
BLACK
6
CONTINUOUS
10
4.9257217716535431
20
-2.8608633070866141
11
4.9248513779527556
21
-2.8601084645669292
0
LINE
8
BLACK
6
CONTINUOUS
10
4.9248513779527556
20
-2.8601084645669292
11
4.9243361417322831
21
-2.8590779527559054
0
LINE
8
BLACK
6
CONTINUOUS
10
4.9243361417322831
20
-2.8590779527559054
11
4.9242544881889767
21
-2.8579287401574804
0
LINE
8
BLACK
6
CONTINUOUS
10
4.9242544881889767
20
-2.8579287401574804
11
4.9246188188976374
21
-2.8568357874015748
0
LINE
8
BLACK
6
CONTINUOUS
10
4.9246188188976374
20
-2.8568357874015748
11
4.9253736614173231
21
-2.8559653937007874
0
LINE
8
BLACK
6
CONTINUOUS
10
4.9253736614173231
20
-2.8559653937007874
11
4.9258635433070861
21
-2.8556570472440943
0
LINE
8
BLACK
6
CONTINUOUS
10
4.9258635433070861
20
-2.8556570472440943
11
4.9296130708661412
21
-2.8537822834645667
0
LINE
8
BLACK
6
CONTINUOUS
10
4.9296130708661412
20
-2.8537822834645667
11
4.9301536614173225
21
-2.8535753937007873
0
LINE
8
BLACK
6
CONTINUOUS
10
4.9301536614173225
20
-2.8535753937007873
11
4.9302595275590546
21
-2.8535678346456694
0
LINE
8
BLACK
6
CONTINUOUS
10
4.9302595275590546
20
-2.8535678346456694
11
4.9303575196850389
21
-2.8535272834645671
0
LINE
8
BLACK
6
CONTINUOUS
10
4.9303575196850389
20
-2.8535272834645671
11
4.9309335826771656
21
-2.8534705511811023
0
LINE
8
BLACK
6
CONTINUOUS
10
4.9309335826771656
20
-2.8534705511811023
11
4.9384326377952759
21
-2.8534705511811023
0
LINE
8
BLACK
6
CONTINUOUS
10
4.9384326377952759
20
-2.8534705511811023
11
4.9390087007874017
21
-2.8535272834645671
0
LINE
8
BLACK
6
CONTINUOUS
10
4.9765040157480316
20
-2.8535272834645671
11
4.9766020078740159
21
-2.8535678740157482
0
LINE
8
BLACK
6
CONTINUOUS
10
4.9766020078740159
20
-2.8535678740157482
11
4.9767078346456692
21
-2.8535753937007873
0
LINE
8
BLACK
6
CONTINUOUS
10
4.9767078346456692
20
-2.8535753937007873
11
4.9772484645669293
21
-2.8537822834645667
0
LINE
8
BLACK
6
CONTINUOUS
10
4.9772484645669293
20
-2.8537822834645667
11
4.9809979921259844
21
-2.8556570472440943
0
LINE
8
BLACK
6
CONTINUOUS
10
4.9809979921259844
20
-2.8556570472440943
11
4.9814878740157482
21
-2.8559653937007874
0
LINE
8
BLACK
6
CONTINUOUS
10
4.9814878740157482
20
-2.8559653937007874
11
4.982242716535433
21
-2.8568357874015748
0
LINE
8
BLACK
6
CONTINUOUS
10
4.982242716535433
20
-2.8568357874015748
11
4.9826070472440946
21
-2.8579287401574804
0
LINE
8
BLACK
6
CONTINUOUS
10
4.9826070472440946
20
-2.8579287401574804
11
4.9825253937007874
21
-2.8590779527559054
0
LINE
8
BLACK
6
CONTINUOUS
10
4.9825253937007874
20
-2.8590779527559054
11
4.9820101181102361
21
-2.8601084645669292
0
LINE
8
BLACK
6
CONTINUOUS
10
4.9820101181102361
20
-2.8601084645669292
11
4.9811397637795274
21
-2.8608633070866141
0
LINE
8
BLACK
6
CONTINUOUS
10
4.9811397637795274
20
-2.8608633070866141
11
4.9800467716535435
21
-2.8612276377952757
0
LINE
8
BLACK
6
CONTINUOUS
10
4.9800467716535435
20
-2.8612276377952757
11
4.9788975590551177
21
-2.8611459842519684
0
LINE
8
BLACK
6
CONTINUOUS
10
4.9788975590551177
20
-2.8611459842519684
11
4.9783569685039373
21
-2.8609390944881889
0
LINE
8
BLACK
6
CONTINUOUS
10
4.9783569685039373
20
-2.8609390944881889
11
4.9752309055118111
21
-2.8593760629921259
0
LINE
8
BLACK
6
CONTINUOUS
10
4.9752309055118111
20
-2.8593760629921259
11
4.9691259448818901
21
-2.8593760629921259
0
LINE
8
BLACK
6
CONTINUOUS
10
4.9691259448818901
20
-2.8593760629921259
11
4.9668801968503935
21
-2.8604988976377954
0
LINE
8
BLACK
6
CONTINUOUS
10
4.9668801968503935
20
-2.8604988976377954
11
4.965757362204724
21
-2.8627446456692911
0
LINE
8
BLACK
6
CONTINUOUS
10
4.965757362204724
20
-2.8627446456692911
11
4.965757362204724
21
-2.8639722047244094
0
LINE
8
BLACK
6
CONTINUOUS
10
4.965757362204724
20
-2.8639722047244094
11
4.9672511811023625
21
-2.8647191338582676
0
LINE
8
BLACK
6
CONTINUOUS
10
4.9672511811023625
20
-2.8647191338582676
11
4.9759279527559057
21
-2.8647191338582676
0
LINE
8
BLACK
6
CONTINUOUS
10
4.9759279527559057
20
-2.8647191338582676
11
4.9765040157480316
21
-2.8647758661417324
0
LINE
8
BLACK
6
CONTINUOUS
10
4.9765040157480316
20
-2.8647758661417324
11
4.9766020078740159
21
-2.8648164566929135
0
LINE
8
BLACK
6
CONTINUOUS
10
4.9766020078740159
20
-2.8648164566929135
11
4.9767078346456692
21
-2.8648239763779526
0
LINE
8
BLACK
6
CONTINUOUS
10
4.9767078346456692
20
-2.8648239763779526
11
4.9772484645669293
21
-2.8650308661417321
0
LINE
8
BLACK
6
CONTINUOUS
10
4.9772484645669293
20
-2.8650308661417321
11
4.9809979921259844
21
-2.8669056299212596
0
LINE
8
BLACK
6
CONTINUOUS
10
4.9809979921259844
20
-2.8669056299212596
11
4.981094330708661
21
-2.8669662598425196
0
LINE
8
BLACK
6
CONTINUOUS
10
4.981094330708661
20
-2.8669662598425196
11
4.9811397637795274
21
-2.8669814173228345
0
LINE
8
BLACK
6
CONTINUOUS
10
4.9811397637795274
20
-2.8669814173228345
11
4.9811962992125984
21
-2.867030433070866
0
LINE
8
BLACK
6
CONTINUOUS
10
4.9811962992125984
20
-2.867030433070866
11
4.9814878740157482
21
-2.8672139763779527
0
LINE
8
BLACK
6
CONTINUOUS
10
4.9814878740157482
20
-2.8672139763779527
11
4.981730433070866
21
-2.8674936614173228
0
LINE
8
BLACK
6
CONTINUOUS
10
4.981730433070866
20
-2.8674936614173228
11
4.9820101574803148
21
-2.8677362598425198
0
LINE
8
BLACK
6
CONTINUOUS
10
4.9820101574803148
20
-2.8677362598425198
11
4.9821936614173223
21
-2.8680277952755904
0
LINE
8
BLACK
6
CONTINUOUS
10
4.9821936614173223
20
-2.8680277952755904
11
4.982242716535433
21
-2.8680843700787402
0
LINE
8
BLACK
6
CONTINUOUS
10
4.982242716535433
20
-2.8680843700787402
11
4.9822578346456687
21
-2.8681297637795273
0
LINE
8
BLACK
6
CONTINUOUS
10
4.9822578346456687
20
-2.8681297637795273
11
4.9823185039370079
21
-2.8682261417322832
0
LINE
8
BLACK
6
CONTINUOUS
10
4.9823185039370079
20
-2.8682261417322832
11
4.9841932677165355
21
-2.8719756692913383
0
LINE
8
BLACK
6
CONTINUOUS
10
4.9841932677165355
20
-2.8719756692913383
11
4.984400157480315
21
-2.8725162598425196
0
LINE
8
BLACK
6
CONTINUOUS
10
4.984400157480315
20
-2.8725162598425196
11
4.984407677165354
21
-2.8726221259842517
0
LINE
8
BLACK
6
CONTINUOUS
10
4.984407677165354
20
-2.8726221259842517
11
4.9844482677165356
21
-2.872720118110236
0
LINE
8
BLACK
6
CONTINUOUS
10
4.9844482677165356
20
-2.872720118110236
11
4.9845049999999995
21
-2.8732961811023623
0
LINE
8
BLACK
6
CONTINUOUS
10
4.9845049999999995
20
-2.8732961811023623
11
4.9845049999999995
21
-2.8770457086614174
0
LINE
8
BLACK
6
CONTINUOUS
10
4.9845049999999995
20
-2.8770457086614174
11
4.9844482677165356
21
-2.8776217716535433
0
LINE
8
BLACK
6
CONTINUOUS
10
4.9844482677165356
20
-2.8776217716535433
11
4.9844076377952753
21
-2.8777197637795275
0
LINE
8
BLACK
6
CONTINUOUS
10
4.9844076377952753
20
-2.8777197637795275
11
4.984400157480315
21
-2.8778255905511809
0
LINE
8
BLACK
6
CONTINUOUS
10
4.984400157480315
20
-2.8778255905511809
11
4.9841932677165355
21
-2.878366220472441
0
LINE
8
BLACK
6
CONTINUOUS
10
4.9841932677165355
20
-2.878366220472441
11
4.9823185039370079
21
-2.8821157874015748
0
LINE
8
BLACK
6
CONTINUOUS
10
4.9823185039370079
20
-2.8821157874015748
11
4.9822578346456687
21
-2.8822121259842519
0
LINE
8
BLACK
6
CONTINUOUS
10
4.9822578346456687
20
-2.8822121259842519
11
4.982242716535433
21
-2.8822575590551178
0
LINE
8
BLACK
6
CONTINUOUS
10
4.982242716535433
20
-2.8822575590551178
11
4.9821936614173223
21
-2.8823140944881889
0
LINE
8
BLACK
6
CONTINUOUS
10
4.9821936614173223
20
-2.8823140944881889
11
4.9820101574803148
21
-2.8826056692913387
0
LINE
8
BLACK
6
CONTINUOUS
10
4.9820101574803148
20
-2.8826056692913387
11
4.981730433070866
21
-2.8828482283464565
0
LINE
8
BLACK
6
CONTINUOUS
10
4.981730433070866
20
-2.8828482283464565
11
4.9814878740157482
21
-2.8831279527559053
0
LINE
8
BLACK
6
CONTINUOUS
10
4.9814878740157482
20
-2.8831279527559053
11
4.9811962992125984
21
-2.8833114566929132
0
LINE
8
BLACK
6
CONTINUOUS
10
4.9811962992125984
20
-2.8833114566929132
11
4.9811397637795274
21
-2.8833605118110235
0
LINE
8
BLACK
6
CONTINUOUS
10
4.9811397637795274
20
-2.8833605118110235
11
4.981094330708661
21
-2.8833756299212596
0
LINE
8
BLACK
6
CONTINUOUS
10
4.981094330708661
20
-2.8833756299212596
11
4.9809979921259844
21
-2.8834362992125984
0
LINE
8
BLACK
6
CONTINUOUS
10
4.9809979921259844
20
-2.8834362992125984
11
4.9772484645669293
21
-2.8853110629921259
0
LINE
8
BLACK
6
CONTINUOUS
10
4.9772484645669293
20
-2.8853110629921259
11
4.9767078346456692
21
-2.8855179527559054
0
LINE
8
BLACK
6
CONTINUOUS
10
4.9767078346456692
20
-2.8855179527559054
11
4.9766020078740159
21
-2.8855254330708662
0
LINE
8
BLACK
6
CONTINUOUS
10
4.9766020078740159
20
-2.8855254330708662
11
4.9765040157480316
21
-2.885566062992126
0
LINE
8
BLACK
6
CONTINUOUS
10
4.9765040157480316
20
-2.885566062992126
11
4.9759279527559057
21
-2.8856227952755904
0
LINE
8
BLACK
6
CONTINUOUS
10
4.9759279527559057
20
-2.8856227952755904
11
4.9665541338582679
21
-2.8856227952755904
0
LINE
8
BLACK
6
CONTINUOUS
10
4.9665541338582679
20
-2.8856227952755904
11
4.9659780708661412
21
-2.885566062992126
0
LINE
8
BLACK
6
CONTINUOUS
10
4.9659780708661412
20
-2.885566062992126
11
4.9658800787401578
21
-2.8855254724409449
0
LINE
8
BLACK
6
CONTINUOUS
10
4.9658800787401578
20
-2.8855254724409449
11
4.9657742125984248
21
-2.8855179527559054
0
LINE
8
BLACK
6
CONTINUOUS
10
4.9657742125984248
20
-2.8855179527559054
11
4.9652336220472444
21
-2.8853110629921259
0
LINE
8
BLACK
6
CONTINUOUS
10
4.9652336220472444
20
-2.8853110629921259
11
4.9645839763779529
21
-2.8849862204724408
0
LINE
8
BLACK
6
CONTINUOUS
10
4.9645839763779529
20
-2.8849862204724408
11
4.9644450787401571
21
-2.885125157480315
0
LINE
8
BLACK
6
CONTINUOUS
10
4.9644450787401571
20
-2.885125157480315
11
4.9633806692913387
21
-2.885566062992126
0
LINE
8
BLACK
6
CONTINUOUS
10
4.9633806692913387
20
-2.885566062992126
11
4.9622285433070861
21
-2.885566062992126
0
LINE
8
BLACK
6
CONTINUOUS
10
4.9622285433070861
20
-2.885566062992126
11
4.9611641338582677
21
-2.885125157480315
0
LINE
8
BLACK
6
CONTINUOUS
10
4.9611641338582677
20
-2.885125157480315
11
4.9603494881889763
21
-2.8843105118110235
0
LINE
8
BLACK
6
CONTINUOUS
10
4.9603494881889763
20
-2.8843105118110235
11
4.9599085826771656
21
-2.8832461023622047
0
LINE
8
BLACK
6
CONTINUOUS
10
4.9599085826771656
20
-2.8832461023622047
11
4.9598518503937008
21
-2.8826700393700788
0
LINE
8
BLACK
6
CONTINUOUS
10
4.9598518503937008
20
-2.8826700393700788
11
4.9598518503937008
21
-2.862047598425197
0
LINE
8
BLACK
6
CONTINUOUS
10
4.9598518503937008
20
-2.862047598425197
11
4.9599085826771656
21
-2.8614715354330706
0
LINE
8
BLACK
6
CONTINUOUS
10
4.9599085826771656
20
-2.8614715354330706
11
4.9599491732283463
21
-2.8613735039370076
0
LINE
8
BLACK
6
CONTINUOUS
10
4.9599491732283463
20
-2.8613735039370076
11
4.9599566929133854
21
-2.861267716535433
0
LINE
8
BLACK
6
CONTINUOUS
10
4.9599566929133854
20
-2.861267716535433
11
4.9601635826771648
21
-2.860727086614173
0
LINE
8
BLACK
6
CONTINUOUS
10
4.9601635826771648
20
-2.860727086614173
11
4.9620383464566924
21
-2.8569775590551179
0
LINE
8
BLACK
6
CONTINUOUS
10
4.9620383464566924
20
-2.8569775590551179
11
4.9620989763779528
21
-2.856881181102362
0
LINE
8
BLACK
6
CONTINUOUS
10
4.9620989763779528
20
-2.856881181102362
11
4.9621141338582673
21
-2.8568357874015748
0
LINE
8
BLACK
6
CONTINUOUS
10
4.9621141338582673
20
-2.8568357874015748
11
4.9621631496062992
21
-2.856779212598425
0
LINE
8
BLACK
6
CONTINUOUS
10
4.9621631496062992
20
-2.856779212598425
11
4.9623466929133855
21
-2.8564876771653545
0
LINE
8
BLACK
6
CONTINUOUS
10
4.9623466929133855
20
-2.8564876771653545
11
4.9626263779527555
21
-2.8562450787401574
0
LINE
8
BLACK
6
CONTINUOUS
10
4.9626263779527555
20
-2.8562450787401574
11
4.962868976377953
21
-2.8559653937007874
0
LINE
8
BLACK
6
CONTINUOUS
10
4.962868976377953
20
-2.8559653937007874
11
4.9631605118110231
21
-2.8557818503937007
0
LINE
8
BLACK
6
CONTINUOUS
10
4.9631605118110231
20
-2.8557818503937007
11
4.9632170866141729
21
-2.8557328346456692
0
LINE
8
BLACK
6
CONTINUOUS
10
4.9632170866141729
20
-2.8557328346456692
11
4.9632624803149605
21
-2.8557176771653543
0
LINE
8
BLACK
6
CONTINUOUS
10
4.9632624803149605
20
-2.8557176771653543
11
4.9633588582677168
21
-2.8556570472440943
0
LINE
8
BLACK
6
CONTINUOUS
10
4.9633588582677168
20
-2.8556570472440943
11
4.9671083858267719
21
-2.8537822834645667
0
LINE
8
BLACK
6
CONTINUOUS
10
4.9671083858267719
20
-2.8537822834645667
11
4.9676489763779523
21
-2.8535753937007873
0
LINE
8
BLACK
6
CONTINUOUS
10
4.9676489763779523
20
-2.8535753937007873
11
4.9677548425196854
21
-2.8535678346456694
0
LINE
8
BLACK
6
CONTINUOUS
10
4.9677548425196854
20
-2.8535678346456694
11
4.9678528346456687
21
-2.8535272834645671
0
LINE
8
BLACK
6
CONTINUOUS
10
4.9678528346456687
20
-2.8535272834645671
11
4.9684288976377955
21
-2.8534705511811023
0
LINE
8
BLACK
6
CONTINUOUS
10
4.9684288976377955
20
-2.8534705511811023
11
4.9759279527559057
21
-2.8534705511811023
0
LINE
8
BLACK
6
CONTINUOUS
10
4.9759279527559057
20
-2.8534705511811023
11
4.9765040157480316
21
-2.8535272834645671
0
LINE
8
BLACK
6
CONTINUOUS
10
4.965757362204724
20
-2.8789703543307086
11
4.9672511811023625
21
-2.8797172834645668
0
LINE
8
BLACK
6
CONTINUOUS
10
4.9672511811023625
20
-2.8797172834645668
11
4.9752309055118111
21
-2.8797172834645668
0
LINE
8
BLACK
6
CONTINUOUS
10
4.9752309055118111
20
-2.8797172834645668
11
4.9774766141732281
21
-2.8785944094488189
0
LINE
8
BLACK
6
CONTINUOUS
10
4.9774766141732281
20
-2.8785944094488189
11
4.9785994881889764
21
-2.8763486614173228
0
LINE
8
BLACK
6
CONTINUOUS
10
4.9785994881889764
20
-2.8763486614173228
11
4.9785994881889764
21
-2.8739932283464564
0
LINE
8
BLACK
6
CONTINUOUS
10
4.9785994881889764
20
-2.8739932283464564
11
4.9774766141732281
21
-2.8717474803149607
0
LINE
8
BLACK
6
CONTINUOUS
10
4.9774766141732281
20
-2.8717474803149607
11
4.9752309055118111
21
-2.8706246456692912
0
LINE
8
BLACK
6
CONTINUOUS
10
4.9752309055118111
20
-2.8706246456692912
11
4.9665541338582679
21
-2.8706246456692912
0
LINE
8
BLACK
6
CONTINUOUS
10
4.9665541338582679
20
-2.8706246456692912
11
4.9659780708661412
21
-2.8705679133858268
0
LINE
8
BLACK
6
CONTINUOUS
10
4.9659780708661412
20
-2.8705679133858268
11
4.9658800787401578
21
-2.8705273228346457
0
LINE
8
BLACK
6
CONTINUOUS
10
4.9658800787401578
20
-2.8705273228346457
11
4.9657742125984248
21
-2.8705198031496062
0
LINE
8
BLACK
6
CONTINUOUS
10
4.9657742125984248
20
-2.8705198031496062
11
4.965757362204724
21
-2.870513346456693
0
LINE
8
BLACK
6
CONTINUOUS
10
4.965757362204724
20
-2.870513346456693
11
4.965757362204724
21
-2.8789703543307086
0
LINE
8
BLACK
6
CONTINUOUS
10
5.0000656299212594
20
-2.8408448425196848
11
5.0008802755905508
21
-2.8416594881889763
0
LINE
8
BLACK
6
CONTINUOUS
10
5.0008802755905508
20
-2.8416594881889763
11
5.0013211811023623
21
-2.8427238976377951
0
LINE
8
BLACK
6
CONTINUOUS
10
5.0013211811023623
20
-2.8427238976377951
11
5.0013779133858263
21
-2.8432999606299214
0
LINE
8
BLACK
6
CONTINUOUS
10
5.0013779133858263
20
-2.8432999606299214
11
5.0013779133858263
21
-2.8709422440944881
0
LINE
8
BLACK
6
CONTINUOUS
10
5.0013779133858263
20
-2.8709422440944881
11
5.0028807086614169
21
-2.8754506692913386
0
LINE
8
BLACK
6
CONTINUOUS
10
5.0028807086614169
20
-2.8754506692913386
11
5.0056444881889766
21
-2.8782144881889762
0
LINE
8
BLACK
6
CONTINUOUS
10
5.0056444881889766
20
-2.8782144881889762
11
5.0101528740157475
21
-2.8797172834645668
0
LINE
8
BLACK
6
CONTINUOUS
10
5.0101528740157475
20
-2.8797172834645668
11
5.0134232677165356
21
-2.8797172834645668
0
LINE
8
BLACK
6
CONTINUOUS
10
5.0134232677165356
20
-2.8797172834645668
11
5.0139993307086614
21
-2.8797740157480316
0
LINE
8
BLACK
6
CONTINUOUS
10
5.0139993307086614
20
-2.8797740157480316
11
5.0150637401574798
21
-2.8802149212598422
0
LINE
8
BLACK
6
CONTINUOUS
10
5.0150637401574798
20
-2.8802149212598422
11
5.0158783858267713
21
-2.8810295669291337
0
LINE
8
BLACK
6
CONTINUOUS
10
5.0158783858267713
20
-2.8810295669291337
11
5.0163192913385828
21
-2.8820939763779525
0
LINE
8
BLACK
6
CONTINUOUS
10
5.0163192913385828
20
-2.8820939763779525
11
5.0163192913385828
21
-2.8832461023622047
0
LINE
8
BLACK
6
CONTINUOUS
10
5.0163192913385828
20
-2.8832461023622047
11
5.0158783858267713
21
-2.8843105118110235
0
LINE
8
BLACK
6
CONTINUOUS
10
5.0158783858267713
20
-2.8843105118110235
11
5.0150637401574798
21
-2.885125157480315
0
LINE
8
BLACK
6
CONTINUOUS
10
5.0150637401574798
20
-2.885125157480315
11
5.0139993307086614
21
-2.885566062992126
0
LINE
8
BLACK
6
CONTINUOUS
10
5.0139993307086614
20
-2.885566062992126
11
5.0134232677165356
21
-2.8856227952755904
0
LINE
8
BLACK
6
CONTINUOUS
10
5.0134232677165356
20
-2.8856227952755904
11
5.0096737401574805
21
-2.8856227952755904
0
LINE
8
BLACK
6
CONTINUOUS
10
5.0096737401574805
20
-2.8856227952755904
11
5.0093821259842519
21
-2.8855940551181103
0
LINE
8
BLACK
6
CONTINUOUS
10
5.0093821259842519
20
-2.8855940551181103
11
5.0093044094488191
21
-2.8855996062992126
0
LINE
8
BLACK
6
CONTINUOUS
10
5.0093044094488191
20
-2.8855996062992126
11
5.0092021259842516
21
-2.8855763385826769
0
LINE
8
BLACK
6
CONTINUOUS
10
5.0092021259842516
20
-2.8855763385826769
11
5.0090976771653546
21
-2.885566062992126
0
LINE
8
BLACK
6
CONTINUOUS
10
5.0090976771653546
20
-2.885566062992126
11
5.0090255905511807
21
-2.8855361811023621
0
LINE
8
BLACK
6
CONTINUOUS
10
5.0090255905511807
20
-2.8855361811023621
11
5.0087399606299208
21
-2.8854712598425194
0
LINE
8
BLACK
6
CONTINUOUS
10
5.0087399606299208
20
-2.8854712598425194
11
5.0031157086614169
21
-2.8835964960629918
0
LINE
8
BLACK
6
CONTINUOUS
10
5.0031157086614169
20
-2.8835964960629918
11
5.0025871259842516
21
-2.8833605118110235
0
LINE
8
BLACK
6
CONTINUOUS
10
5.0025871259842516
20
-2.8833605118110235
11
5.0025070078740157
21
-2.8832910236220473
0
LINE
8
BLACK
6
CONTINUOUS
10
5.0025070078740157
20
-2.8832910236220473
11
5.0024089763779527
21
-2.8832504330708661
0
LINE
8
BLACK
6
CONTINUOUS
10
5.0024089763779527
20
-2.8832504330708661
11
5.0019615354330709
21
-2.8828831889763777
0
LINE
8
BLACK
6
CONTINUOUS
10
5.0019615354330709
20
-2.8828831889763777
11
4.9982120078740158
21
-2.8791336220472439
0
LINE
8
BLACK
6
CONTINUOUS
10
4.9982120078740158
20
-2.8791336220472439
11
4.9978447637795274
21
-2.8786861417322833
0
LINE
8
BLACK
6
CONTINUOUS
10
4.9978447637795274
20
-2.8786861417322833
11
4.9978041338582679
21
-2.8785880708661415
0
LINE
8
BLACK
6
CONTINUOUS
10
4.9978041338582679
20
-2.8785880708661415
11
4.9977346850393696
21
-2.8785079921259844
0
LINE
8
BLACK
6
CONTINUOUS
10
4.9977346850393696
20
-2.8785079921259844
11
4.9974987007874017
21
-2.8779794488188974
0
LINE
8
BLACK
6
CONTINUOUS
10
4.9974987007874017
20
-2.8779794488188974
11
4.9956239370078741
21
-2.8723551574803148
0
LINE
8
BLACK
6
CONTINUOUS
10
4.9956239370078741
20
-2.8723551574803148
11
4.9955589763779527
21
-2.8720695669291336
0
LINE
8
BLACK
6
CONTINUOUS
10
4.9955589763779527
20
-2.8720695669291336
11
4.9955291338582679
21
-2.8719974803149606
0
LINE
8
BLACK
6
CONTINUOUS
10
4.9955291338582679
20
-2.8719974803149606
11
4.9955188188976374
21
-2.8718929527559056
0
LINE
8
BLACK
6
CONTINUOUS
10
4.9955188188976374
20
-2.8718929527559056
11
4.9954955905511813
21
-2.8717907086614174
0
LINE
8
BLACK
6
CONTINUOUS
10
4.9954955905511813
20
-2.8717907086614174
11
4.9955011023622049
21
-2.8717129527559053
0
LINE
8
BLACK
6
CONTINUOUS
10
4.9955011023622049
20
-2.8717129527559053
11
4.9954724015748031
21
-2.8714214173228347
0
LINE
8
BLACK
6
CONTINUOUS
10
4.9954724015748031
20
-2.8714214173228347
11
4.9954724015748031
21
-2.8432999606299214
0
LINE
8
BLACK
6
CONTINUOUS
10
4.9954724015748031
20
-2.8432999606299214
11
4.9955291338582679
21
-2.8427238976377951
0
LINE
8
BLACK
6
CONTINUOUS
10
4.9955291338582679
20
-2.8427238976377951
11
4.9959700393700786
21
-2.8416594881889763
0
LINE
8
BLACK
6
CONTINUOUS
10
4.9959700393700786
20
-2.8416594881889763
11
4.99678468503937
21
-2.8408448425196848
0
LINE
8
BLACK
6
CONTINUOUS
10
4.99678468503937
20
-2.8408448425196848
11
4.9978490944881893
21
-2.8404039370078737
0
LINE
8
BLACK
6
CONTINUOUS
10
4.9978490944881893
20
-2.8404039370078737
11
4.999001220472441
21
-2.8404039370078737
0
LINE
8
BLACK
6
CONTINUOUS
10
4.999001220472441
20
-2.8404039370078737
11
5.0000656299212594
21
-2.8408448425196848
0
LINE
8
BLACK
6
CONTINUOUS
10
5.0908647637795275
20
-2.8535272834645671
11
5.0909627559055117
21
-2.8535678740157482
0
LINE
8
BLACK
6
CONTINUOUS
10
5.0909627559055117
20
-2.8535678740157482
11
5.0910685826771651
21
-2.8535753937007873
0
LINE
8
BLACK
6
CONTINUOUS
10
5.0910685826771651
20
-2.8535753937007873
11
5.0916092125984251
21
-2.8537822834645667
0
LINE
8
BLACK
6
CONTINUOUS
10
5.0916092125984251
20
-2.8537822834645667
11
5.0953587401574802
21
-2.8556570472440943
0
LINE
8
BLACK
6
CONTINUOUS
10
5.0953587401574802
20
-2.8556570472440943
11
5.0954550787401578
21
-2.8557176771653543
0
LINE
8
BLACK
6
CONTINUOUS
10
5.0954550787401578
20
-2.8557176771653543
11
5.0955005118110233
21
-2.8557328346456692
0
LINE
8
BLACK
6
CONTINUOUS
10
5.0955005118110233
20
-2.8557328346456692
11
5.0955570472440943
21
-2.8557818503937007
0
LINE
8
BLACK
6
CONTINUOUS
10
5.0955570472440943
20
-2.8557818503937007
11
5.0958486220472441
21
-2.8559653937007874
0
LINE
8
BLACK
6
CONTINUOUS
10
5.0958486220472441
20
-2.8559653937007874
11
5.0960911811023619
21
-2.8562450787401574
0
LINE
8
BLACK
6
CONTINUOUS
10
5.0960911811023619
20
-2.8562450787401574
11
5.0963709055118107
21
-2.8564876771653545
0
LINE
8
BLACK
6
CONTINUOUS
10
5.0963709055118107
20
-2.8564876771653545
11
5.0965544094488191
21
-2.856779212598425
0
LINE
8
BLACK
6
CONTINUOUS
10
5.0965544094488191
20
-2.856779212598425
11
5.0966034645669289
21
-2.8568357874015748
0
LINE
8
BLACK
6
CONTINUOUS
10
5.0966034645669289
20
-2.8568357874015748
11
5.0966185826771655
21
-2.856881181102362
0
LINE
8
BLACK
6
CONTINUOUS
10
5.0966185826771655
20
-2.856881181102362
11
5.0966792519685038
21
-2.8569775590551179
0
LINE
8
BLACK
6
CONTINUOUS
10
5.0966792519685038
20
-2.8569775590551179
11
5.0985540157480314
21
-2.860727086614173
0
LINE
8
BLACK
6
CONTINUOUS
10
5.0985540157480314
20
-2.860727086614173
11
5.0987609055118108
21
-2.8612676771653542
0
LINE
8
BLACK
6
CONTINUOUS
10
5.0987609055118108
20
-2.8612676771653542
11
5.0987684251968499
21
-2.8613735433070864
0
LINE
8
BLACK
6
CONTINUOUS
10
5.0987684251968499
20
-2.8613735433070864
11
5.0988090157480315
21
-2.8614715354330706
0
LINE
8
BLACK
6
CONTINUOUS
10
5.0988090157480315
20
-2.8614715354330706
11
5.0988657480314963
21
-2.862047598425197
0
LINE
8
BLACK
6
CONTINUOUS
10
5.0988657480314963
20
-2.862047598425197
11
5.0988657480314963
21
-2.8770457086614174
0
LINE
8
BLACK
6
CONTINUOUS
10
5.0988657480314963
20
-2.8770457086614174
11
5.0988090157480315
21
-2.8776217716535433
0
LINE
8
BLACK
6
CONTINUOUS
10
5.0988090157480315
20
-2.8776217716535433
11
5.0987683858267712
21
-2.8777197637795275
0
LINE
8
BLACK
6
CONTINUOUS
10
5.0987683858267712
20
-2.8777197637795275
11
5.0987609055118108
21
-2.8778255905511809
0
LINE
8
BLACK
6
CONTINUOUS
10
5.0987609055118108
20
-2.8778255905511809
11
5.0985540157480314
21
-2.878366220472441
0
LINE
8
BLACK
6
CONTINUOUS
10
5.0985540157480314
20
-2.878366220472441
11
5.0966792519685038
21
-2.8821157874015748
0
LINE
8
BLACK
6
CONTINUOUS
10
5.0966792519685038
20
-2.8821157874015748
11
5.0966185826771655
21
-2.8822121259842519
0
LINE
8
BLACK
6
CONTINUOUS
10
5.0966185826771655
20
-2.8822121259842519
11
5.0966034645669289
21
-2.8822575590551178
0
LINE
8
BLACK
6
CONTINUOUS
10
5.0966034645669289
20
-2.8822575590551178
11
5.0965544094488191
21
-2.8823140944881889
0
LINE
8
BLACK
6
CONTINUOUS
10
5.0965544094488191
20
-2.8823140944881889
11
5.0963709055118107
21
-2.8826056692913387
0
LINE
8
BLACK
6
CONTINUOUS
10
5.0963709055118107
20
-2.8826056692913387
11
5.0960911811023619
21
-2.8828482283464565
0
LINE
8
BLACK
6
CONTINUOUS
10
5.0960911811023619
20
-2.8828482283464565
11
5.0958486220472441
21
-2.8831279527559053
0
LINE
8
BLACK
6
CONTINUOUS
10
5.0958486220472441
20
-2.8831279527559053
11
5.0955570472440943
21
-2.8833114566929132
0
LINE
8
BLACK
6
CONTINUOUS
10
5.0955570472440943
20
-2.8833114566929132
11
5.0955005118110233
21
-2.8833605118110235
0
LINE
8
BLACK
6
CONTINUOUS
10
5.0955005118110233
20
-2.8833605118110235
11
5.0954550787401578
21
-2.8833756299212596
0
LINE
8
BLACK
6
CONTINUOUS
10
5.0954550787401578
20
-2.8833756299212596
11
5.0953587401574802
21
-2.8834362992125984
0
LINE
8
BLACK
6
CONTINUOUS
10
5.0953587401574802
20
-2.8834362992125984
11
5.0916092125984251
21
-2.8853110629921259
0
LINE
8
BLACK
6
CONTINUOUS
10
5.0916092125984251
20
-2.8853110629921259
11
5.0910685826771651
21
-2.8855179527559054
0
LINE
8
BLACK
6
CONTINUOUS
10
5.0910685826771651
20
-2.8855179527559054
11
5.0909627559055117
21
-2.8855254330708662
0
LINE
8
BLACK
6
CONTINUOUS
10
5.0909627559055117
20
-2.8855254330708662
11
5.0908647637795275
21
-2.885566062992126
0
LINE
8
BLACK
6
CONTINUOUS
10
5.0908647637795275
20
-2.885566062992126
11
5.0902887007874016
21
-2.8856227952755904
0
LINE
8
BLACK
6
CONTINUOUS
10
5.0902887007874016
20
-2.8856227952755904
11
5.0827896456692914
21
-2.8856227952755904
0
LINE
8
BLACK
6
CONTINUOUS
10
5.0827896456692914
20
-2.8856227952755904
11
5.0822135826771655
21
-2.885566062992126
0
LINE
8
BLACK
6
CONTINUOUS
10
5.0822135826771655
20
-2.885566062992126
11
5.0821155905511812
21
-2.8855254724409449
0
LINE
8
BLACK
6
CONTINUOUS
10
5.0821155905511812
20
-2.8855254724409449
11
5.0820097244094491
21
-2.8855179527559054
0
LINE
8
BLACK
6
CONTINUOUS
10
5.0820097244094491
20
-2.8855179527559054
11
5.0814691338582678
21
-2.8853110629921259
0
LINE
8
BLACK
6
CONTINUOUS
10
5.0814691338582678
20
-2.8853110629921259
11
5.0777196062992127
21
-2.8834362992125984
0
LINE
8
BLACK
6
CONTINUOUS
10
5.0777196062992127
20
-2.8834362992125984
11
5.0772297244094489
21
-2.8831279527559053
0
LINE
8
BLACK
6
CONTINUOUS
10
5.0772297244094489
20
-2.8831279527559053
11
5.076474881889764
21
-2.8822575590551178
0
LINE
8
BLACK
6
CONTINUOUS
10
5.076474881889764
20
-2.8822575590551178
11
5.0761105511811024
21
-2.8811646062992127
0
LINE
8
BLACK
6
CONTINUOUS
10
5.0761105511811024
20
-2.8811646062992127
11
5.0761922047244097
21
-2.8800153937007873
0
LINE
8
BLACK
6
CONTINUOUS
10
5.0761922047244097
20
-2.8800153937007873
11
5.0767074409448814
21
-2.8789848818897639
0
LINE
8
BLACK
6
CONTINUOUS
10
5.0767074409448814
20
-2.8789848818897639
11
5.0775778346456688
21
-2.8782300393700786
0
LINE
8
BLACK
6
CONTINUOUS
10
5.0775778346456688
20
-2.8782300393700786
11
5.0786707874015748
21
-2.8778657086614174
0
LINE
8
BLACK
6
CONTINUOUS
10
5.0786707874015748
20
-2.8778657086614174
11
5.0798199999999998
21
-2.8779473622047242
0
LINE
8
BLACK
6
CONTINUOUS
10
5.0798199999999998
20
-2.8779473622047242
11
5.0803606299212598
21
-2.8781542519685037
0
LINE
8
BLACK
6
CONTINUOUS
10
5.0803606299212598
20
-2.8781542519685037
11
5.083486692913386
21
-2.8797172834645668
0
LINE
8
BLACK
6
CONTINUOUS
10
5.083486692913386
20
-2.8797172834645668
11
5.089591653543307
21
-2.8797172834645668
0
LINE
8
BLACK
6
CONTINUOUS
10
5.089591653543307
20
-2.8797172834645668
11
5.0918373622047239
21
-2.8785944094488189
0
LINE
8
BLACK
6
CONTINUOUS
10
5.0918373622047239
20
-2.8785944094488189
11
5.0929602362204722
21
-2.8763486614173228
0
LINE
8
BLACK
6
CONTINUOUS
10
5.0929602362204722
20
-2.8763486614173228
11
5.0929602362204722
21
-2.8719672834645666
0
LINE
8
BLACK
6
CONTINUOUS
10
5.0929602362204722
20
-2.8719672834645666
11
5.0765862598425198
21
-2.868692559055118
0
LINE
8
BLACK
6
CONTINUOUS
10
5.0765862598425198
20
-2.868692559055118
11
5.0760325196850395
21
-2.8685239370078741
0
LINE
8
BLACK
6
CONTINUOUS
10
5.0760325196850395
20
-2.8685239370078741
11
5.0757921259842522
21
-2.8683629133858268
0
LINE
8
BLACK
6
CONTINUOUS
10
5.0757921259842522
20
-2.8683629133858268
11
5.0755248818897636
21
-2.8682522440944882
0
LINE
8
BLACK
6
CONTINUOUS
10
5.0755248818897636
20
-2.8682522440944882
11
5.0753181496062991
21
-2.8680455118110237
0
LINE
8
BLACK
6
CONTINUOUS
10
5.0753181496062991
20
-2.8680455118110237
11
5.0750752362204725
21
-2.8678828346456693
0
LINE
8
BLACK
6
CONTINUOUS
10
5.0750752362204725
20
-2.8678828346456693
11
5.0749147637795273
21
-2.8676421259842519
0
LINE
8
BLACK
6
CONTINUOUS
10
5.0749147637795273
20
-2.8676421259842519
11
5.0747102362204721
21
-2.8674375984251967
0
LINE
8
BLACK
6
CONTINUOUS
10
5.0747102362204721
20
-2.8674375984251967
11
5.0745983464566926
21
-2.8671675196850392
0
LINE
8
BLACK
6
CONTINUOUS
10
5.0745983464566926
20
-2.8671675196850392
11
5.0744361811023619
21
-2.8669242519685039
0
LINE
8
BLACK
6
CONTINUOUS
10
5.0744361811023619
20
-2.8669242519685039
11
5.0743799999999997
21
-2.8666404330708661
0
LINE
8
BLACK
6
CONTINUOUS
10
5.0743799999999997
20
-2.8666404330708661
11
5.0742693307086615
21
-2.8663731889763779
0
LINE
8
BLACK
6
CONTINUOUS
10
5.0742693307086615
20
-2.8663731889763779
11
5.0742125984251967
21
-2.8657971259842521
0
LINE
8
BLACK
6
CONTINUOUS
10
5.0742125984251967
20
-2.8657971259842521
11
5.0742125984251967
21
-2.862047598425197
0
LINE
8
BLACK
6
CONTINUOUS
10
5.0742125984251967
20
-2.862047598425197
11
5.0742693307086615
21
-2.8614715354330706
0
LINE
8
BLACK
6
CONTINUOUS
10
5.0742693307086615
20
-2.8614715354330706
11
5.0743099212598421
21
-2.8613735039370076
0
LINE
8
BLACK
6
CONTINUOUS
10
5.0743099212598421
20
-2.8613735039370076
11
5.0743174409448821
21
-2.861267716535433
0
LINE
8
BLACK
6
CONTINUOUS
10
5.0743174409448821
20
-2.861267716535433
11
5.0745243307086616
21
-2.860727086614173
0
LINE
8
BLACK
6
CONTINUOUS
10
5.0745243307086616
20
-2.860727086614173
11
5.0763990944881892
21
-2.8569775590551179
0
LINE
8
BLACK
6
CONTINUOUS
10
5.0763990944881892
20
-2.8569775590551179
11
5.0764597244094487
21
-2.856881181102362
0
LINE
8
BLACK
6
CONTINUOUS
10
5.0764597244094487
20
-2.856881181102362
11
5.076474881889764
21
-2.8568357874015748
0
LINE
8
BLACK
6
CONTINUOUS
10
5.076474881889764
20
-2.8568357874015748
11
5.0765238976377951
21
-2.856779212598425
0
LINE
8
BLACK
6
CONTINUOUS
10
5.0765238976377951
20
-2.856779212598425
11
5.0767074409448814
21
-2.8564876771653545
0
LINE
8
BLACK
6
CONTINUOUS
10
5.0767074409448814
20
-2.8564876771653545
11
5.0769871259842523
21
-2.8562450787401574
0
LINE
8
BLACK
6
CONTINUOUS
10
5.0769871259842523
20
-2.8562450787401574
11
5.0772297244094489
21
-2.8559653937007874
0
LINE
8
BLACK
6
CONTINUOUS
10
5.0772297244094489
20
-2.8559653937007874
11
5.0775212598425199
21
-2.8557818503937007
0
LINE
8
BLACK
6
CONTINUOUS
10
5.0775212598425199
20
-2.8557818503937007
11
5.0775778346456688
21
-2.8557328346456692
0
LINE
8
BLACK
6
CONTINUOUS
10
5.0775778346456688
20
-2.8557328346456692
11
5.0776232283464564
21
-2.8557176771653543
0
LINE
8
BLACK
6
CONTINUOUS
10
5.0776232283464564
20
-2.8557176771653543
11
5.0777196062992127
21
-2.8556570472440943
0
LINE
8
BLACK
6
CONTINUOUS
10
5.0777196062992127
20
-2.8556570472440943
11
5.0814691338582678
21
-2.8537822834645667
0
LINE
8
BLACK
6
CONTINUOUS
10
5.0814691338582678
20
-2.8537822834645667
11
5.0820097244094491
21
-2.8535753937007873
0
LINE
8
BLACK
6
CONTINUOUS
10
5.0820097244094491
20
-2.8535753937007873
11
5.0821155905511812
21
-2.8535678346456694
0
LINE
8
BLACK
6
CONTINUOUS
10
5.0821155905511812
20
-2.8535678346456694
11
5.0822135826771655
21
-2.8535272834645671
0
LINE
8
BLACK
6
CONTINUOUS
10
5.0822135826771655
20
-2.8535272834645671
11
5.0827896456692914
21
-2.8534705511811023
0
LINE
8
BLACK
6
CONTINUOUS
10
5.0827896456692914
20
-2.8534705511811023
11
5.0902887007874016
21
-2.8534705511811023
0
LINE
8
BLACK
6
CONTINUOUS
10
5.0902887007874016
20
-2.8534705511811023
11
5.0908647637795275
21
-2.8535272834645671
0
LINE
8
BLACK
6
CONTINUOUS
10
5.0812409448818894
20
-2.8604988976377954
11
5.0801181102362207
21
-2.8627446456692911
0
LINE
8
BLACK
6
CONTINUOUS
10
5.0801181102362207
20
-2.8627446456692911
11
5.0801181102362207
21
-2.8633764173228347
0
LINE
8
BLACK
6
CONTINUOUS
10
5.0801181102362207
20
-2.8633764173228347
11
5.0929602362204722
21
-2.865944842519685
0
LINE
8
BLACK
6
CONTINUOUS
10
5.0929602362204722
20
-2.865944842519685
11
5.0929602362204722
21
-2.8627446456692911
0
LINE
8
BLACK
6
CONTINUOUS
10
5.0929602362204722
20
-2.8627446456692911
11
5.0918373622047239
21
-2.8604988976377954
0
LINE
8
BLACK
6
CONTINUOUS
10
5.0918373622047239
20
-2.8604988976377954
11
5.089591653543307
21
-2.8593760629921259
0
LINE
8
BLACK
6
CONTINUOUS
10
5.089591653543307
20
-2.8593760629921259
11
5.083486692913386
21
-2.8593760629921259
0
LINE
8
BLACK
6
CONTINUOUS
10
5.083486692913386
20
-2.8593760629921259
11
5.0812409448818894
21
-2.8604988976377954
0
LINE
8
BLACK
6
CONTINUOUS
10
5.1752292519685037
20
-2.8535272834645671
11
5.175327244094488
21
-2.8535678740157482
0
LINE
8
BLACK
6
CONTINUOUS
10
5.175327244094488
20
-2.8535678740157482
11
5.1754330708661413
21
-2.8535753937007873
0
LINE
8
BLACK
6
CONTINUOUS
10
5.1754330708661413
20
-2.8535753937007873
11
5.1759737007874014
21
-2.8537822834645667
0
LINE
8
BLACK
6
CONTINUOUS
10
5.1759737007874014
20
-2.8537822834645667
11
5.1797232283464565
21
-2.8556570472440943
0
LINE
8
BLACK
6
CONTINUOUS
10
5.1797232283464565
20
-2.8556570472440943
11
5.1802131102362203
21
-2.8559653937007874
0
LINE
8
BLACK
6
CONTINUOUS
10
5.1802131102362203
20
-2.8559653937007874
11
5.1809679527559052
21
-2.8568357874015748
0
LINE
8
BLACK
6
CONTINUOUS
10
5.1809679527559052
20
-2.8568357874015748
11
5.1813322834645668
21
-2.8579287401574804
0
LINE
8
BLACK
6
CONTINUOUS
10
5.1813322834645668
20
-2.8579287401574804
11
5.1812506299212595
21
-2.8590779527559054
0
LINE
8
BLACK
6
CONTINUOUS
10
5.1812506299212595
20
-2.8590779527559054
11
5.1807353543307082
21
-2.8601084645669292
0
LINE
8
BLACK
6
CONTINUOUS
10
5.1807353543307082
20
-2.8601084645669292
11
5.1798649999999995
21
-2.8608633070866141
0
LINE
8
BLACK
6
CONTINUOUS
10
5.1798649999999995
20
-2.8608633070866141
11
5.1787720078740156
21
-2.8612276377952757
0
LINE
8
BLACK
6
CONTINUOUS
10
5.1787720078740156
20
-2.8612276377952757
11
5.1776227952755907
21
-2.8611459842519684
0
LINE
8
BLACK
6
CONTINUOUS
10
5.1776227952755907
20
-2.8611459842519684
11
5.1770822047244094
21
-2.8609390944881889
0
LINE
8
BLACK
6
CONTINUOUS
10
5.1770822047244094
20
-2.8609390944881889
11
5.1739561417322832
21
-2.8593760629921259
0
LINE
8
BLACK
6
CONTINUOUS
10
5.1739561417322832
20
-2.8593760629921259
11
5.1678511811023622
21
-2.8593760629921259
0
LINE
8
BLACK
6
CONTINUOUS
10
5.1678511811023622
20
-2.8593760629921259
11
5.1656054330708656
21
-2.8604988976377954
0
LINE
8
BLACK
6
CONTINUOUS
10
5.1656054330708656
20
-2.8604988976377954
11
5.164482598425197
21
-2.8627446456692911
0
LINE
8
BLACK
6
CONTINUOUS
10
5.164482598425197
20
-2.8627446456692911
11
5.164482598425197
21
-2.8639722047244094
0
LINE
8
BLACK
6
CONTINUOUS
10
5.164482598425197
20
-2.8639722047244094
11
5.1659764173228346
21
-2.8647191338582676
0
LINE
8
BLACK
6
CONTINUOUS
10
5.1659764173228346
20
-2.8647191338582676
11
5.1746531889763778
21
-2.8647191338582676
0
LINE
8
BLACK
6
CONTINUOUS
10
5.1746531889763778
20
-2.8647191338582676
11
5.1752292519685037
21
-2.8647758661417324
0
LINE
8
BLACK
6
CONTINUOUS
10
5.1752292519685037
20
-2.8647758661417324
11
5.175327244094488
21
-2.8648164566929135
0
LINE
8
BLACK
6
CONTINUOUS
10
5.175327244094488
20
-2.8648164566929135
11
5.1754330708661413
21
-2.8648239763779526
0
LINE
8
BLACK
6
CONTINUOUS
10
5.1754330708661413
20
-2.8648239763779526
11
5.1759737007874014
21
-2.8650308661417321
0
LINE
8
BLACK
6
CONTINUOUS
10
5.1759737007874014
20
-2.8650308661417321
11
5.1797232283464565
21
-2.8669056299212596
0
LINE
8
BLACK
6
CONTINUOUS
10
5.1797232283464565
20
-2.8669056299212596
11
5.179819566929134
21
-2.8669662598425196
0
LINE
8
BLACK
6
CONTINUOUS
10
5.179819566929134
20
-2.8669662598425196
11
5.1798649999999995
21
-2.8669814173228345
0
LINE
8
BLACK
6
CONTINUOUS
10
5.1798649999999995
20
-2.8669814173228345
11
5.1799215354330705
21
-2.867030433070866
0
LINE
8
BLACK
6
CONTINUOUS
10
5.1799215354330705
20
-2.867030433070866
11
5.1802131102362203
21
-2.8672139763779527
0
LINE
8
BLACK
6
CONTINUOUS
10
5.1802131102362203
20
-2.8672139763779527
11
5.1804556692913382
21
-2.8674936614173228
0
LINE
8
BLACK
6
CONTINUOUS
10
5.1804556692913382
20
-2.8674936614173228
11
5.180735393700787
21
-2.8677362598425198
0
LINE
8
BLACK
6
CONTINUOUS
10
5.180735393700787
20
-2.8677362598425198
11
5.1809188976377953
21
-2.8680277952755904
0
LINE
8
BLACK
6
CONTINUOUS
10
5.1809188976377953
20
-2.8680277952755904
11
5.1809679527559052
21
-2.8680843700787402
0
LINE
8
BLACK
6
CONTINUOUS
10
5.1809679527559052
20
-2.8680843700787402
11
5.1809830708661417
21
-2.8681297637795273
0
LINE
8
BLACK
6
CONTINUOUS
10
5.1809830708661417
20
-2.8681297637795273
11
5.18104374015748
21
-2.8682261417322832
0
LINE
8
BLACK
6
CONTINUOUS
10
5.18104374015748
20
-2.8682261417322832
11
5.1829185039370076
21
-2.8719756692913383
0
LINE
8
BLACK
6
CONTINUOUS
10
5.1829185039370076
20
-2.8719756692913383
11
5.1831253937007871
21
-2.8725162598425196
0
LINE
8
BLACK
6
CONTINUOUS
10
5.1831253937007871
20
-2.8725162598425196
11
5.183132913385827
21
-2.8726221259842517
0
LINE
8
BLACK
6
CONTINUOUS
10
5.183132913385827
20
-2.8726221259842517
11
5.1831735039370077
21
-2.872720118110236
0
LINE
8
BLACK
6
CONTINUOUS
10
5.1831735039370077
20
-2.872720118110236
11
5.1832302362204725
21
-2.8732961811023623
0
LINE
8
BLACK
6
CONTINUOUS
10
5.1832302362204725
20
-2.8732961811023623
11
5.1832302362204725
21
-2.8770457086614174
0
LINE
8
BLACK
6
CONTINUOUS
10
5.1832302362204725
20
-2.8770457086614174
11
5.1831735039370077
21
-2.8776217716535433
0
LINE
8
BLACK
6
CONTINUOUS
10
5.1831735039370077
20
-2.8776217716535433
11
5.1831328740157483
21
-2.8777197637795275
0
LINE
8
BLACK
6
CONTINUOUS
10
5.1831328740157483
20
-2.8777197637795275
11
5.1831253937007871
21
-2.8778255905511809
0
LINE
8
BLACK
6
CONTINUOUS
10
5.1831253937007871
20
-2.8778255905511809
11
5.1829185039370076
21
-2.878366220472441
0
LINE
8
BLACK
6
CONTINUOUS
10
5.1829185039370076
20
-2.878366220472441
11
5.18104374015748
21
-2.8821157874015748
0
LINE
8
BLACK
6
CONTINUOUS
10
5.18104374015748
20
-2.8821157874015748
11
5.1809830708661417
21
-2.8822121259842519
0
LINE
8
BLACK
6
CONTINUOUS
10
5.1809830708661417
20
-2.8822121259842519
11
5.1809679527559052
21
-2.8822575590551178
0
LINE
8
BLACK
6
CONTINUOUS
10
5.1809679527559052
20
-2.8822575590551178
11
5.1809188976377953
21
-2.8823140944881889
0
LINE
8
BLACK
6
CONTINUOUS
10
5.1809188976377953
20
-2.8823140944881889
11
5.180735393700787
21
-2.8826056692913387
0
LINE
8
BLACK
6
CONTINUOUS
10
5.180735393700787
20
-2.8826056692913387
11
5.1804556692913382
21
-2.8828482283464565
0
LINE
8
BLACK
6
CONTINUOUS
10
5.1804556692913382
20
-2.8828482283464565
11
5.1802131102362203
21
-2.8831279527559053
0
LINE
8
BLACK
6
CONTINUOUS
10
5.1802131102362203
20
-2.8831279527559053
11
5.1799215354330705
21
-2.8833114566929132
0
LINE
8
BLACK
6
CONTINUOUS
10
5.1799215354330705
20
-2.8833114566929132
11
5.1798649999999995
21
-2.8833605118110235
0
LINE
8
BLACK
6
CONTINUOUS
10
5.1798649999999995
20
-2.8833605118110235
11
5.179819566929134
21
-2.8833756299212596
0
LINE
8
BLACK
6
CONTINUOUS
10
5.179819566929134
20
-2.8833756299212596
11
5.1797232283464565
21
-2.8834362992125984
0
LINE
8
BLACK
6
CONTINUOUS
10
5.1797232283464565
20
-2.8834362992125984
11
5.1759737007874014
21
-2.8853110629921259
0
LINE
8
BLACK
6
CONTINUOUS
10
5.1759737007874014
20
-2.8853110629921259
11
5.1754330708661413
21
-2.8855179527559054
0
LINE
8
BLACK
6
CONTINUOUS
10
5.1754330708661413
20
-2.8855179527559054
11
5.175327244094488
21
-2.8855254330708662
0
LINE
8
BLACK
6
CONTINUOUS
10
5.175327244094488
20
-2.8855254330708662
11
5.1752292519685037
21
-2.885566062992126
0
LINE
8
BLACK
6
CONTINUOUS
10
5.1752292519685037
20
-2.885566062992126
11
5.1746531889763778
21
-2.8856227952755904
0
LINE
8
BLACK
6
CONTINUOUS
10
5.1746531889763778
20
-2.8856227952755904
11
5.1652793700787401
21
-2.8856227952755904
0
LINE
8
BLACK
6
CONTINUOUS
10
5.1652793700787401
20
-2.8856227952755904
11
5.1647033070866142
21
-2.885566062992126
0
LINE
8
BLACK
6
CONTINUOUS
10
5.1647033070866142
20
-2.885566062992126
11
5.1646053149606299
21
-2.8855254724409449
0
LINE
8
BLACK
6
CONTINUOUS
10
5.1646053149606299
20
-2.8855254724409449
11
5.1644994488188978
21
-2.8855179527559054
0
LINE
8
BLACK
6
CONTINUOUS
10
5.1644994488188978
20
-2.8855179527559054
11
5.1639588582677165
21
-2.8853110629921259
0
LINE
8
BLACK
6
CONTINUOUS
10
5.1639588582677165
20
-2.8853110629921259
11
5.163309212598425
21
-2.8849862204724408
0
LINE
8
BLACK
6
CONTINUOUS
10
5.163309212598425
20
-2.8849862204724408
11
5.1631703149606301
21
-2.885125157480315
0
LINE
8
BLACK
6
CONTINUOUS
10
5.1631703149606301
20
-2.885125157480315
11
5.1621059055118108
21
-2.885566062992126
0
LINE
8
BLACK
6
CONTINUOUS
10
5.1621059055118108
20
-2.885566062992126
11
5.1609537795275591
21
-2.885566062992126
0
LINE
8
BLACK
6
CONTINUOUS
10
5.1609537795275591
20
-2.885566062992126
11
5.1598893700787398
21
-2.885125157480315
0
LINE
8
BLACK
6
CONTINUOUS
10
5.1598893700787398
20
-2.885125157480315
11
5.1590747244094484
21
-2.8843105118110235
0
LINE
8
BLACK
6
CONTINUOUS
10
5.1590747244094484
20
-2.8843105118110235
11
5.1586338188976377
21
-2.8832461023622047
0
LINE
8
BLACK
6
CONTINUOUS
10
5.1586338188976377
20
-2.8832461023622047
11
5.1585770866141729
21
-2.8826700393700788
0
LINE
8
BLACK
6
CONTINUOUS
10
5.1585770866141729
20
-2.8826700393700788
11
5.1585770866141729
21
-2.862047598425197
0
LINE
8
BLACK
6
CONTINUOUS
10
5.1585770866141729
20
-2.862047598425197
11
5.1586338188976377
21
-2.8614715354330706
0
LINE
8
BLACK
6
CONTINUOUS
10
5.1586338188976377
20
-2.8614715354330706
11
5.1586744094488184
21
-2.8613735039370076
0
LINE
8
BLACK
6
CONTINUOUS
10
5.1586744094488184
20
-2.8613735039370076
11
5.1586819291338584
21
-2.861267716535433
0
LINE
8
BLACK
6
CONTINUOUS
10
5.1586819291338584
20
-2.861267716535433
11
5.1588888188976378
21
-2.860727086614173
0
LINE
8
BLACK
6
CONTINUOUS
10
5.1588888188976378
20
-2.860727086614173
11
5.1607635826771654
21
-2.8569775590551179
0
LINE
8
BLACK
6
CONTINUOUS
10
5.1607635826771654
20
-2.8569775590551179
11
5.1608242125984249
21
-2.856881181102362
0
LINE
8
BLACK
6
CONTINUOUS
10
5.1608242125984249
20
-2.856881181102362
11
5.1608393700787403
21
-2.8568357874015748
0
LINE
8
BLACK
6
CONTINUOUS
10
5.1608393700787403
20
-2.8568357874015748
11
5.1608883858267713
21
-2.856779212598425
0
LINE
8
BLACK
6
CONTINUOUS
10
5.1608883858267713
20
-2.856779212598425
11
5.1610719291338585
21
-2.8564876771653545
0
LINE
8
BLACK
6
CONTINUOUS
10
5.1610719291338585
20
-2.8564876771653545
11
5.1613516141732285
21
-2.8562450787401574
0
LINE
8
BLACK
6
CONTINUOUS
10
5.1613516141732285
20
-2.8562450787401574
11
5.1615942125984251
21
-2.8559653937007874
0
LINE
8
BLACK
6
CONTINUOUS
10
5.1615942125984251
20
-2.8559653937007874
11
5.1618857480314961
21
-2.8557818503937007
0
LINE
8
BLACK
6
CONTINUOUS
10
5.1618857480314961
20
-2.8557818503937007
11
5.1619423228346459
21
-2.8557328346456692
0
LINE
8
BLACK
6
CONTINUOUS
10
5.1619423228346459
20
-2.8557328346456692
11
5.1619877165354326
21
-2.8557176771653543
0
LINE
8
BLACK
6
CONTINUOUS
10
5.1619877165354326
20
-2.8557176771653543
11
5.1620840944881889
21
-2.8556570472440943
0
LINE
8
BLACK
6
CONTINUOUS
10
5.1620840944881889
20
-2.8556570472440943
11
5.1658336220472441
21
-2.8537822834645667
0
LINE
8
BLACK
6
CONTINUOUS
10
5.1658336220472441
20
-2.8537822834645667
11
5.1663742125984253
21
-2.8535753937007873
0
LINE
8
BLACK
6
CONTINUOUS
10
5.1663742125984253
20
-2.8535753937007873
11
5.1664800787401575
21
-2.8535678346456694
0
LINE
8
BLACK
6
CONTINUOUS
10
5.1664800787401575
20
-2.8535678346456694
11
5.1665780708661417
21
-2.8535272834645671
0
LINE
8
BLACK
6
CONTINUOUS
10
5.1665780708661417
20
-2.8535272834645671
11
5.1671541338582676
21
-2.8534705511811023
0
LINE
8
BLACK
6
CONTINUOUS
10
5.1671541338582676
20
-2.8534705511811023
11
5.1746531889763778
21
-2.8534705511811023
0
LINE
8
BLACK
6
CONTINUOUS
10
5.1746531889763778
20
-2.8534705511811023
11
5.1752292519685037
21
-2.8535272834645671
0
LINE
8
BLACK
6
CONTINUOUS
10
5.164482598425197
20
-2.8789703543307086
11
5.1659764173228346
21
-2.8797172834645668
0
LINE
8
BLACK
6
CONTINUOUS
10
5.1659764173228346
20
-2.8797172834645668
11
5.1739561417322832
21
-2.8797172834645668
0
LINE
8
BLACK
6
CONTINUOUS
10
5.1739561417322832
20
-2.8797172834645668
11
5.1762018503937011
21
-2.8785944094488189
0
LINE
8
BLACK
6
CONTINUOUS
10
5.1762018503937011
20
-2.8785944094488189
11
5.1773247244094485
21
-2.8763486614173228
0
LINE
8
BLACK
6
CONTINUOUS
10
5.1773247244094485
20
-2.8763486614173228
11
5.1773247244094485
21
-2.8739932283464564
0
LINE
8
BLACK
6
CONTINUOUS
10
5.1773247244094485
20
-2.8739932283464564
11
5.1762018503937011
21
-2.8717474803149607
0
LINE
8
BLACK
6
CONTINUOUS
10
5.1762018503937011
20
-2.8717474803149607
11
5.1739561417322832
21
-2.8706246456692912
0
LINE
8
BLACK
6
CONTINUOUS
10
5.1739561417322832
20
-2.8706246456692912
11
5.1652793700787401
21
-2.8706246456692912
0
LINE
8
BLACK
6
CONTINUOUS
10
5.1652793700787401
20
-2.8706246456692912
11
5.1647033070866142
21
-2.8705679133858268
0
LINE
8
BLACK
6
CONTINUOUS
10
5.1647033070866142
20
-2.8705679133858268
11
5.1646053149606299
21
-2.8705273228346457
0
LINE
8
BLACK
6
CONTINUOUS
10
5.1646053149606299
20
-2.8705273228346457
11
5.1644994488188978
21
-2.8705198031496062
0
LINE
8
BLACK
6
CONTINUOUS
10
5.1644994488188978
20
-2.8705198031496062
11
5.164482598425197
21
-2.870513346456693
0
LINE
8
BLACK
6
CONTINUOUS
10
5.164482598425197
20
-2.870513346456693
11
5.164482598425197
21
-2.8789703543307086
0
LINE
8
BLACK
6
CONTINUOUS
10
5.2183488582677162
20
-2.8404039370078737
11
5.2194132677165355
21
-2.8408448425196848
0
LINE
8
BLACK
6
CONTINUOUS
10
5.2194132677165355
20
-2.8408448425196848
11
5.2202279133858269
21
-2.8416594881889763
0
LINE
8
BLACK
6
CONTINUOUS
10
5.2202279133858269
20
-2.8416594881889763
11
5.2206688188976376
21
-2.8427238976377951
0
LINE
8
BLACK
6
CONTINUOUS
10
5.2206688188976376
20
-2.8427238976377951
11
5.2207255511811024
21
-2.8432999606299214
0
LINE
8
BLACK
6
CONTINUOUS
10
5.2207255511811024
20
-2.8432999606299214
11
5.2207255511811024
21
-2.8826700393700788
0
LINE
8
BLACK
6
CONTINUOUS
10
5.2207255511811024
20
-2.8826700393700788
11
5.2206688188976376
21
-2.8832461023622047
0
LINE
8
BLACK
6
CONTINUOUS
10
5.2206688188976376
20
-2.8832461023622047
11
5.2202279133858269
21
-2.8843105118110235
0
LINE
8
BLACK
6
CONTINUOUS
10
5.2202279133858269
20
-2.8843105118110235
11
5.2194132677165355
21
-2.885125157480315
0
LINE
8
BLACK
6
CONTINUOUS
10
5.2194132677165355
20
-2.885125157480315
11
5.2183488582677162
21
-2.885566062992126
0
LINE
8
BLACK
6
CONTINUOUS
10
5.2183488582677162
20
-2.885566062992126
11
5.2177727952755903
21
-2.8856227952755904
0
LINE
8
BLACK
6
CONTINUOUS
10
5.2177727952755903
20
-2.8856227952755904
11
5.2027746850393699
21
-2.8856227952755904
0
LINE
8
BLACK
6
CONTINUOUS
10
5.2027746850393699
20
-2.8856227952755904
11
5.202198622047244
21
-2.885566062992126
0
LINE
8
BLACK
6
CONTINUOUS
10
5.202198622047244
20
-2.885566062992126
11
5.2021006299212598
21
-2.8855254724409449
0
LINE
8
BLACK
6
CONTINUOUS
10
5.2021006299212598
20
-2.8855254724409449
11
5.2019947637795276
21
-2.8855179527559054
0
LINE
8
BLACK
6
CONTINUOUS
10
5.2019947637795276
20
-2.8855179527559054
11
5.2014541732283464
21
-2.8853110629921259
0
LINE
8
BLACK
6
CONTINUOUS
10
5.2014541732283464
20
-2.8853110629921259
11
5.1977046456692912
21
-2.8834362992125984
0
LINE
8
BLACK
6
CONTINUOUS
10
5.1977046456692912
20
-2.8834362992125984
11
5.1974566141732286
21
-2.8832801968503938
0
LINE
8
BLACK
6
CONTINUOUS
10
5.1974566141732286
20
-2.8832801968503938
11
5.1973846850393697
21
-2.8832503937007874
0
LINE
8
BLACK
6
CONTINUOUS
10
5.1973846850393697
20
-2.8832503937007874
11
5.1973037007874012
21
-2.8831839370078738
0
LINE
8
BLACK
6
CONTINUOUS
10
5.1973037007874012
20
-2.8831839370078738
11
5.1972147637795274
21
-2.8831279527559053
0
LINE
8
BLACK
6
CONTINUOUS
10
5.1972147637795274
20
-2.8831279527559053
11
5.1971635433070862
21
-2.8830688976377954
0
LINE
8
BLACK
6
CONTINUOUS
10
5.1971635433070862
20
-2.8830688976377954
11
5.1969372047244091
21
-2.882883149606299
0
LINE
8
BLACK
6
CONTINUOUS
10
5.1969372047244091
20
-2.882883149606299
11
5.1950624409448816
21
-2.8810083464566927
0
LINE
8
BLACK
6
CONTINUOUS
10
5.1950624409448816
20
-2.8810083464566927
11
5.1948766929133861
21
-2.8807820078740156
0
LINE
8
BLACK
6
CONTINUOUS
10
5.1948766929133861
20
-2.8807820078740156
11
5.1948177165354332
21
-2.8807308661417323
0
LINE
8
BLACK
6
CONTINUOUS
10
5.1948177165354332
20
-2.8807308661417323
11
5.1947617322834647
21
-2.8806419291338581
0
LINE
8
BLACK
6
CONTINUOUS
10
5.1947617322834647
20
-2.8806419291338581
11
5.1946952362204719
21
-2.8805609055118109
0
LINE
8
BLACK
6
CONTINUOUS
10
5.1946952362204719
20
-2.8805609055118109
11
5.1946653937007872
21
-2.8804888582677166
0
LINE
8
BLACK
6
CONTINUOUS
10
5.1946653937007872
20
-2.8804888582677166
11
5.1945093700787401
21
-2.8802409842519685
0
LINE
8
BLACK
6
CONTINUOUS
10
5.1945093700787401
20
-2.8802409842519685
11
5.1926346062992126
21
-2.8764914566929134
0
LINE
8
BLACK
6
CONTINUOUS
10
5.1926346062992126
20
-2.8764914566929134
11
5.1924277165354331
21
-2.8759508267716534
0
LINE
8
BLACK
6
CONTINUOUS
10
5.1924277165354331
20
-2.8759508267716534
11
5.192420196850394
21
-2.875845
0
LINE
8
BLACK
6
CONTINUOUS
10
5.192420196850394
20
-2.875845
11
5.1923796062992125
21
-2.8757470078740157
0
LINE
8
BLACK
6
CONTINUOUS
10
5.1923796062992125
20
-2.8757470078740157
11
5.1923228740157477
21
-2.8751709448818898
0
LINE
8
BLACK
6
CONTINUOUS
10
5.1923228740157477
20
-2.8751709448818898
11
5.1923228740157477
21
-2.8695466535433072
0
LINE
8
BLACK
6
CONTINUOUS
10
5.1923228740157477
20
-2.8695466535433072
11
5.1923796062992125
21
-2.8689705905511809
0
LINE
8
BLACK
6
CONTINUOUS
10
5.1923796062992125
20
-2.8689705905511809
11
5.192420196850394
21
-2.8688725590551178
0
LINE
8
BLACK
6
CONTINUOUS
10
5.192420196850394
20
-2.8688725590551178
11
5.1924277165354331
21
-2.8687667716535432
0
LINE
8
BLACK
6
CONTINUOUS
10
5.1924277165354331
20
-2.8687667716535432
11
5.1926346062992126
21
-2.8682261417322832
0
LINE
8
BLACK
6
CONTINUOUS
10
5.1926346062992126
20
-2.8682261417322832
11
5.1945093700787401
21
-2.8644766141732281
0
LINE
8
BLACK
6
CONTINUOUS
10
5.1945093700787401
20
-2.8644766141732281
11
5.1946654330708659
21
-2.8642285826771654
0
LINE
8
BLACK
6
CONTINUOUS
10
5.1946654330708659
20
-2.8642285826771654
11
5.1946952755905507
21
-2.864156653543307
0
LINE
8
BLACK
6
CONTINUOUS
10
5.1946952755905507
20
-2.864156653543307
11
5.1947617322834647
21
-2.8640756692913385
0
LINE
8
BLACK
6
CONTINUOUS
10
5.1947617322834647
20
-2.8640756692913385
11
5.1948177165354332
21
-2.8639867322834647
0
LINE
8
BLACK
6
CONTINUOUS
10
5.1948177165354332
20
-2.8639867322834647
11
5.1948766929133861
21
-2.8639355511811022
0
LINE
8
BLACK
6
CONTINUOUS
10
5.1948766929133861
20
-2.8639355511811022
11
5.1950624803149603
21
-2.8637092125984251
0
LINE
8
BLACK
6
CONTINUOUS
10
5.1950624803149603
20
-2.8637092125984251
11
5.1969372440944879
21
-2.8618344488188976
0
LINE
8
BLACK
6
CONTINUOUS
10
5.1969372440944879
20
-2.8618344488188976
11
5.1973846850393697
21
-2.8614672440944879
0
LINE
8
BLACK
6
CONTINUOUS
10
5.1973846850393697
20
-2.8614672440944879
11
5.1974826377952752
21
-2.8614266535433068
0
LINE
8
BLACK
6
CONTINUOUS
10
5.1974826377952752
20
-2.8614266535433068
11
5.1975628346456695
21
-2.8613571259842518
0
LINE
8
BLACK
6
CONTINUOUS
10
5.1975628346456695
20
-2.8613571259842518
11
5.1978016929133855
21
-2.8612504330708659
0
LINE
8
BLACK
6
CONTINUOUS
10
5.1978016929133855
20
-2.8612504330708659
11
5.1969372440944879
21
-2.8603859842519683
0
LINE
8
BLACK
6
CONTINUOUS
10
5.1969372440944879
20
-2.8603859842519683
11
5.1967514566929136
21
-2.8601596062992125
0
LINE
8
BLACK
6
CONTINUOUS
10
5.1967514566929136
20
-2.8601596062992125
11
5.1966924803149608
21
-2.8601084645669292
0
LINE
8
BLACK
6
CONTINUOUS
10
5.1966924803149608
20
-2.8601084645669292
11
5.1966364960629923
21
-2.8600194881889762
0
LINE
8
BLACK
6
CONTINUOUS
10
5.1966364960629923
20
-2.8600194881889762
11
5.1965700393700782
21
-2.8599385433070865
0
LINE
8
BLACK
6
CONTINUOUS
10
5.1965700393700782
20
-2.8599385433070865
11
5.1965401968503935
21
-2.8598665748031493
0
LINE
8
BLACK
6
CONTINUOUS
10
5.1965401968503935
20
-2.8598665748031493
11
5.1963841338582677
21
-2.8596185826771654
0
LINE
8
BLACK
6
CONTINUOUS
10
5.1963841338582677
20
-2.8596185826771654
11
5.1945093700787401
21
-2.8558690551181103
0
LINE
8
BLACK
6
CONTINUOUS
10
5.1945093700787401
20
-2.8558690551181103
11
5.1943024803149607
21
-2.8553284251968503
0
LINE
8
BLACK
6
CONTINUOUS
10
5.1943024803149607
20
-2.8553284251968503
11
5.1942949606299216
21
-2.8552225984251969
0
LINE
8
BLACK
6
CONTINUOUS
10
5.1942949606299216
20
-2.8552225984251969
11
5.19425437007874
21
-2.8551246062992126
0
LINE
8
BLACK
6
CONTINUOUS
10
5.19425437007874
20
-2.8551246062992126
11
5.1941976377952752
21
-2.8545485433070867
0
LINE
8
BLACK
6
CONTINUOUS
10
5.1941976377952752
20
-2.8545485433070867
11
5.1941976377952752
21
-2.8507990157480316
0
LINE
8
BLACK
6
CONTINUOUS
10
5.1941976377952752
20
-2.8507990157480316
11
5.19425437007874
21
-2.8502229527559053
0
LINE
8
BLACK
6
CONTINUOUS
10
5.19425437007874
20
-2.8502229527559053
11
5.1942949606299216
21
-2.8501249212598423
0
LINE
8
BLACK
6
CONTINUOUS
10
5.1942949606299216
20
-2.8501249212598423
11
5.1943024803149607
21
-2.8500191338582677
0
LINE
8
BLACK
6
CONTINUOUS
10
5.1943024803149607
20
-2.8500191338582677
11
5.1945093700787401
21
-2.8494785039370076
0
LINE
8
BLACK
6
CONTINUOUS
10
5.1945093700787401
20
-2.8494785039370076
11
5.1963841338582677
21
-2.8457289763779525
0
LINE
8
BLACK
6
CONTINUOUS
10
5.1963841338582677
20
-2.8457289763779525
11
5.1965401968503935
21
-2.8454809448818899
0
LINE
8
BLACK
6
CONTINUOUS
10
5.1965401968503935
20
-2.8454809448818899
11
5.1965700393700782
21
-2.8454090157480314
0
LINE
8
BLACK
6
CONTINUOUS
10
5.1965700393700782
20
-2.8454090157480314
11
5.1966364960629923
21
-2.8453280314960629
0
LINE
8
BLACK
6
CONTINUOUS
10
5.1966364960629923
20
-2.8453280314960629
11
5.1966924803149608
21
-2.8452390944881891
0
LINE
8
BLACK
6
CONTINUOUS
10
5.1966924803149608
20
-2.8452390944881891
11
5.1967514566929136
21
-2.8451879133858267
0
LINE
8
BLACK
6
CONTINUOUS
10
5.1967514566929136
20
-2.8451879133858267
11
5.1969372440944879
21
-2.8449615748031496
0
LINE
8
BLACK
6
CONTINUOUS
10
5.1969372440944879
20
-2.8449615748031496
11
5.1988120078740154
21
-2.843086811023622
0
LINE
8
BLACK
6
CONTINUOUS
10
5.1988120078740154
20
-2.843086811023622
11
5.1990383464566925
21
-2.8429010236220473
0
LINE
8
BLACK
6
CONTINUOUS
10
5.1990383464566925
20
-2.8429010236220473
11
5.199089527559055
21
-2.8428420472440945
0
LINE
8
BLACK
6
CONTINUOUS
10
5.199089527559055
20
-2.8428420472440945
11
5.1991784645669288
21
-2.842786062992126
0
LINE
8
BLACK
6
CONTINUOUS
10
5.1991784645669288
20
-2.842786062992126
11
5.1992594488188972
21
-2.8427196062992124
0
LINE
8
BLACK
6
CONTINUOUS
10
5.1992594488188972
20
-2.8427196062992124
11
5.1993313779527561
21
-2.8426897637795276
0
LINE
8
BLACK
6
CONTINUOUS
10
5.1993313779527561
20
-2.8426897637795276
11
5.1995794094488188
21
-2.8425337007874014
0
LINE
8
BLACK
6
CONTINUOUS
10
5.1995794094488188
20
-2.8425337007874014
11
5.2033289370078739
21
-2.8406589370078739
0
LINE
8
BLACK
6
CONTINUOUS
10
5.2033289370078739
20
-2.8406589370078739
11
5.2038695275590552
21
-2.8404520472440944
0
LINE
8
BLACK
6
CONTINUOUS
10
5.2038695275590552
20
-2.8404520472440944
11
5.2039753937007873
21
-2.8404444881889761
0
LINE
8
BLACK
6
CONTINUOUS
10
5.2039753937007873
20
-2.8404444881889761
11
5.2040733858267716
21
-2.8404039370078737
0
LINE
8
BLACK
6
CONTINUOUS
10
5.2040733858267716
20
-2.8404039370078737
11
5.2046494488188975
21
-2.8403472047244094
0
LINE
8
BLACK
6
CONTINUOUS
10
5.2046494488188975
20
-2.8403472047244094
11
5.2177727952755903
21
-2.8403472047244094
0
LINE
8
BLACK
6
CONTINUOUS
10
5.2177727952755903
20
-2.8403472047244094
11
5.2183488582677162
21
-2.8404039370078737
0
LINE
8
BLACK
6
CONTINUOUS
10
5.2006201968503936
20
-2.8665031496062992
11
5.199577125984252
21
-2.8675462204724407
0
LINE
8
BLACK
6
CONTINUOUS
10
5.199577125984252
20
-2.8675462204724407
11
5.1982283858267717
21
-2.8702437007874013
0
LINE
8
BLACK
6
CONTINUOUS
10
5.1982283858267717
20
-2.8702437007874013
11
5.1982283858267717
21
-2.8744738976377953
0
LINE
8
BLACK
6
CONTINUOUS
10
5.1982283858267717
20
-2.8744738976377953
11
5.199577125984252
21
-2.8771713779527559
0
LINE
8
BLACK
6
CONTINUOUS
10
5.199577125984252
20
-2.8771713779527559
11
5.2007742519685038
21
-2.8783685433070865
0
LINE
8
BLACK
6
CONTINUOUS
10
5.2007742519685038
20
-2.8783685433070865
11
5.2034717322834645
21
-2.8797172834645668
0
LINE
8
BLACK
6
CONTINUOUS
10
5.2034717322834645
20
-2.8797172834645668
11
5.2148200393700783
21
-2.8797172834645668
0
LINE
8
BLACK
6
CONTINUOUS
10
5.2148200393700783
20
-2.8797172834645668
11
5.2148200393700783
21
-2.8650003543307085
0
LINE
8
BLACK
6
CONTINUOUS
10
5.2148200393700783
20
-2.8650003543307085
11
5.2051285826771654
21
-2.8650003543307085
0
LINE
8
BLACK
6
CONTINUOUS
10
5.2051285826771654
20
-2.8650003543307085
11
5.2006201968503936
21
-2.8665031496062992
0
LINE
8
BLACK
6
CONTINUOUS
10
5.2026490157480314
20
-2.8476014566929133
11
5.2014518897637796
21
-2.8487985826771651
0
LINE
8
BLACK
6
CONTINUOUS
10
5.2014518897637796
20
-2.8487985826771651
11
5.2001031496062993
21
-2.8514960629921258
0
LINE
8
BLACK
6
CONTINUOUS
10
5.2001031496062993
20
-2.8514960629921258
11
5.2001031496062993
21
-2.8538514960629922
0
LINE
8
BLACK
6
CONTINUOUS
10
5.2001031496062993
20
-2.8538514960629922
11
5.2014518897637796
21
-2.8565489763779528
0
LINE
8
BLACK
6
CONTINUOUS
10
5.2014518897637796
20
-2.8565489763779528
11
5.2026490157480314
21
-2.8577461023622046
0
LINE
8
BLACK
6
CONTINUOUS
10
5.2026490157480314
20
-2.8577461023622046
11
5.205346496062992
21
-2.8590948425196849
0
LINE
8
BLACK
6
CONTINUOUS
10
5.205346496062992
20
-2.8590948425196849
11
5.2148200393700783
21
-2.8590948425196849
0
LINE
8
BLACK
6
CONTINUOUS
10
5.2148200393700783
20
-2.8590948425196849
11
5.2148200393700783
21
-2.846252716535433
0
LINE
8
BLACK
6
CONTINUOUS
10
5.2148200393700783
20
-2.846252716535433
11
5.205346496062992
21
-2.846252716535433
0
LINE
8
BLACK
6
CONTINUOUS
10
5.205346496062992
20
-2.846252716535433
11
5.2026490157480314
21
-2.8476014566929133
0
LINE
8
BLACK
6
CONTINUOUS
10
4.911951614173228
20
-2.8408448425196848
11
4.9127662598425195
21
-2.8416594881889763
0
LINE
8
BLACK
6
CONTINUOUS
10
4.9127662598425195
20
-2.8416594881889763
11
4.913207165354331
21
-2.8427238976377951
0
LINE
8
BLACK
6
CONTINUOUS
10
4.913207165354331
20
-2.8427238976377951
11
4.9132638976377949
21
-2.8432999606299214
0
LINE
8
BLACK
6
CONTINUOUS
10
4.9132638976377949
20
-2.8432999606299214
11
4.9132638976377949
21
-2.8826700393700788
0
LINE
8
BLACK
6
CONTINUOUS
10
4.9132638976377949
20
-2.8826700393700788
11
4.913207165354331
21
-2.8832461023622047
0
LINE
8
BLACK
6
CONTINUOUS
10
4.913207165354331
20
-2.8832461023622047
11
4.9127662598425195
21
-2.8843105118110235
0
LINE
8
BLACK
6
CONTINUOUS
10
4.9127662598425195
20
-2.8843105118110235
11
4.911951614173228
21
-2.885125157480315
0
LINE
8
BLACK
6
CONTINUOUS
10
4.911951614173228
20
-2.885125157480315
11
4.9108872047244096
21
-2.885566062992126
0
LINE
8
BLACK
6
CONTINUOUS
10
4.9108872047244096
20
-2.885566062992126
11
4.909735078740157
21
-2.885566062992126
0
LINE
8
BLACK
6
CONTINUOUS
10
4.909735078740157
20
-2.885566062992126
11
4.9086706692913387
21
-2.885125157480315
0
LINE
8
BLACK
6
CONTINUOUS
10
4.9086706692913387
20
-2.885125157480315
11
4.9078560236220472
21
-2.8843105118110235
0
LINE
8
BLACK
6
CONTINUOUS
10
4.9078560236220472
20
-2.8843105118110235
11
4.9074151181102357
21
-2.8832461023622047
0
LINE
8
BLACK
6
CONTINUOUS
10
4.9074151181102357
20
-2.8832461023622047
11
4.9073583858267718
21
-2.8826700393700788
0
LINE
8
BLACK
6
CONTINUOUS
10
4.9073583858267718
20
-2.8826700393700788
11
4.9073583858267718
21
-2.8726444881889761
0
LINE
8
BLACK
6
CONTINUOUS
10
4.9073583858267718
20
-2.8726444881889761
11
4.9068810629921256
21
-2.8721671653543308
0
LINE
8
BLACK
6
CONTINUOUS
10
4.9068810629921256
20
-2.8721671653543308
11
4.8976752362204721
21
-2.8844416929133856
0
LINE
8
BLACK
6
CONTINUOUS
10
4.8976752362204721
20
-2.8844416929133856
11
4.8972842125984251
21
-2.8848685039370077
0
LINE
8
BLACK
6
CONTINUOUS
10
4.8972842125984251
20
-2.8848685039370077
11
4.8962928346456689
21
-2.8854554724409449
0
LINE
8
BLACK
6
CONTINUOUS
10
4.8962928346456689
20
-2.8854554724409449
11
4.8951523228346456
21
-2.8856184251968502
0
LINE
8
BLACK
6
CONTINUOUS
10
4.8951523228346456
20
-2.8856184251968502
11
4.8940362598425198
21
-2.8853324803149607
0
LINE
8
BLACK
6
CONTINUOUS
10
4.8940362598425198
20
-2.8853324803149607
11
4.8931145669291336
21
-2.884641220472441
0
LINE
8
BLACK
6
CONTINUOUS
10
4.8931145669291336
20
-2.884641220472441
11
4.8925275984251968
21
-2.8836498425196848
0
LINE
8
BLACK
6
CONTINUOUS
10
4.8925275984251968
20
-2.8836498425196848
11
4.8923646456692911
21
-2.8825093307086616
0
LINE
8
BLACK
6
CONTINUOUS
10
4.8923646456692911
20
-2.8825093307086616
11
4.892650590551181
21
-2.8813932677165353
0
LINE
8
BLACK
6
CONTINUOUS
10
4.892650590551181
20
-2.8813932677165353
11
4.8929508267716537
21
-2.8808983858267716
0
LINE
8
BLACK
6
CONTINUOUS
10
4.8929508267716537
20
-2.8808983858267716
11
4.9026628346456693
21
-2.8679489370078741
0
LINE
8
BLACK
6
CONTINUOUS
10
4.9026628346456693
20
-2.8679489370078741
11
4.8932251181102364
21
-2.8585112204724408
0
LINE
8
BLACK
6
CONTINUOUS
10
4.8932251181102364
20
-2.8585112204724408
11
4.8928579133858268
21
-2.858063779527559
0
LINE
8
BLACK
6
CONTINUOUS
10
4.8928579133858268
20
-2.858063779527559
11
4.8924170078740152
21
-2.8569993307086614
0
LINE
8
BLACK
6
CONTINUOUS
10
4.8924170078740152
20
-2.8569993307086614
11
4.8924170078740152
21
-2.8558472834645667
0
LINE
8
BLACK
6
CONTINUOUS
10
4.8924170078740152
20
-2.8558472834645667
11
4.8928579133858268
21
-2.8547828346456692
0
LINE
8
BLACK
6
CONTINUOUS
10
4.8928579133858268
20
-2.8547828346456692
11
4.8936725590551182
21
-2.8539681889763777
0
LINE
8
BLACK
6
CONTINUOUS
10
4.8936725590551182
20
-2.8539681889763777
11
4.8947370078740153
21
-2.8535272834645671
0
LINE
8
BLACK
6
CONTINUOUS
10
4.8947370078740153
20
-2.8535272834645671
11
4.8958890551181105
21
-2.8535272834645671
0
LINE
8
BLACK
6
CONTINUOUS
10
4.8958890551181105
20
-2.8535272834645671
11
4.8969535039370076
21
-2.8539681889763777
0
LINE
8
BLACK
6
CONTINUOUS
10
4.8969535039370076
20
-2.8539681889763777
11
4.8974009448818894
21
-2.8543353937007874
0
LINE
8
BLACK
6
CONTINUOUS
10
4.8974009448818894
20
-2.8543353937007874
11
4.9073583858267718
21
-2.8642928346456693
0
LINE
8
BLACK
6
CONTINUOUS
10
4.9073583858267718
20
-2.8642928346456693
11
4.9073583858267718
21
-2.8432999606299214
0
LINE
8
BLACK
6
CONTINUOUS
10
4.9073583858267718
20
-2.8432999606299214
11
4.9074151181102357
21
-2.8427238976377951
0
LINE
8
BLACK
6
CONTINUOUS
10
4.9074151181102357
20
-2.8427238976377951
11
4.9078560236220472
21
-2.8416594881889763
0
LINE
8
BLACK
6
CONTINUOUS
10
4.9078560236220472
20
-2.8416594881889763
11
4.9086706692913387
21
-2.8408448425196848
0
LINE
8
BLACK
6
CONTINUOUS
10
4.9086706692913387
20
-2.8408448425196848
11
4.909735078740157
21
-2.8404039370078737
0
LINE
8
BLACK
6
CONTINUOUS
10
4.909735078740157
20
-2.8404039370078737
11
4.9108872047244096
21
-2.8404039370078737
0
LINE
8
BLACK
6
CONTINUOUS
10
4.9108872047244096
20
-2.8404039370078737
11
4.911951614173228
21
-2.8408448425196848
0
LINE
8
BLACK
6
CONTINUOUS
10
5.0619329133858271
20
-2.8408448425196848
11
5.0627475590551176
21
-2.8416594881889763
0
LINE
8
BLACK
6
CONTINUOUS
10
5.0627475590551176
20
-2.8416594881889763
11
5.0631884645669292
21
-2.8427238976377951
0
LINE
8
BLACK
6
CONTINUOUS
10
5.0631884645669292
20
-2.8427238976377951
11
5.063245196850394
21
-2.8432999606299214
0
LINE
8
BLACK
6
CONTINUOUS
10
5.063245196850394
20
-2.8432999606299214
11
5.063245196850394
21
-2.8770457086614174
0
LINE
8
BLACK
6
CONTINUOUS
10
5.063245196850394
20
-2.8770457086614174
11
5.0631884645669292
21
-2.8776217716535433
0
LINE
8
BLACK
6
CONTINUOUS
10
5.0631884645669292
20
-2.8776217716535433
11
5.0631478346456689
21
-2.8777197637795275
0
LINE
8
BLACK
6
CONTINUOUS
10
5.0631478346456689
20
-2.8777197637795275
11
5.0631403543307085
21
-2.8778255905511809
0
LINE
8
BLACK
6
CONTINUOUS
10
5.0631403543307085
20
-2.8778255905511809
11
5.0629334645669291
21
-2.878366220472441
0
LINE
8
BLACK
6
CONTINUOUS
10
5.0629334645669291
20
-2.878366220472441
11
5.0610587007874015
21
-2.8821157874015748
0
LINE
8
BLACK
6
CONTINUOUS
10
5.0610587007874015
20
-2.8821157874015748
11
5.0609980314960632
21
-2.8822121259842519
0
LINE
8
BLACK
6
CONTINUOUS
10
5.0609980314960632
20
-2.8822121259842519
11
5.0609829133858266
21
-2.8822575590551178
0
LINE
8
BLACK
6
CONTINUOUS
10
5.0609829133858266
20
-2.8822575590551178
11
5.0609338582677168
21
-2.8823140944881889
0
LINE
8
BLACK
6
CONTINUOUS
10
5.0609338582677168
20
-2.8823140944881889
11
5.0607503543307084
21
-2.8826056692913387
0
LINE
8
BLACK
6
CONTINUOUS
10
5.0607503543307084
20
-2.8826056692913387
11
5.0604706299212596
21
-2.8828482283464565
0
LINE
8
BLACK
6
CONTINUOUS
10
5.0604706299212596
20
-2.8828482283464565
11
5.0602280708661418
21
-2.8831279527559053
0
LINE
8
BLACK
6
CONTINUOUS
10
5.0602280708661418
20
-2.8831279527559053
11
5.059936496062992
21
-2.8833114566929132
0
LINE
8
BLACK
6
CONTINUOUS
10
5.059936496062992
20
-2.8833114566929132
11
5.059879960629921
21
-2.8833605118110235
0
LINE
8
BLACK
6
CONTINUOUS
10
5.059879960629921
20
-2.8833605118110235
11
5.0598345275590546
21
-2.8833756299212596
0
LINE
8
BLACK
6
CONTINUOUS
10
5.0598345275590546
20
-2.8833756299212596
11
5.0597381889763779
21
-2.8834362992125984
0
LINE
8
BLACK
6
CONTINUOUS
10
5.0597381889763779
20
-2.8834362992125984
11
5.0559886614173228
21
-2.8853110629921259
0
LINE
8
BLACK
6
CONTINUOUS
10
5.0559886614173228
20
-2.8853110629921259
11
5.0554480314960628
21
-2.8855179527559054
0
LINE
8
BLACK
6
CONTINUOUS
10
5.0554480314960628
20
-2.8855179527559054
11
5.0542988188976379
21
-2.8855996062992126
0
LINE
8
BLACK
6
CONTINUOUS
10
5.0542988188976379
20
-2.8855996062992126
11
5.0532058661417318
21
-2.885235275590551
0
LINE
8
BLACK
6
CONTINUOUS
10
5.0532058661417318
20
-2.885235275590551
11
5.0523354724409444
21
-2.8844804330708662
0
LINE
8
BLACK
6
CONTINUOUS
10
5.0523354724409444
20
-2.8844804330708662
11
5.0518202362204727
21
-2.8834499212598423
0
LINE
8
BLACK
6
CONTINUOUS
10
5.0518202362204727
20
-2.8834499212598423
11
5.0517385826771655
21
-2.8823007086614174
0
LINE
8
BLACK
6
CONTINUOUS
10
5.0517385826771655
20
-2.8823007086614174
11
5.0521029133858271
21
-2.8812077559055118
0
LINE
8
BLACK
6
CONTINUOUS
10
5.0521029133858271
20
-2.8812077559055118
11
5.0528577559055119
21
-2.8803373622047244
0
LINE
8
BLACK
6
CONTINUOUS
10
5.0528577559055119
20
-2.8803373622047244
11
5.0533476377952757
21
-2.8800290157480313
0
LINE
8
BLACK
6
CONTINUOUS
10
5.0533476377952757
20
-2.8800290157480313
11
5.0562168110236216
21
-2.8785944094488189
0
LINE
8
BLACK
6
CONTINUOUS
10
5.0562168110236216
20
-2.8785944094488189
11
5.0573396850393699
21
-2.8763486614173228
0
LINE
8
BLACK
6
CONTINUOUS
10
5.0573396850393699
20
-2.8763486614173228
11
5.0573396850393699
21
-2.8432999606299214
0
LINE
8
BLACK
6
CONTINUOUS
10
5.0573396850393699
20
-2.8432999606299214
11
5.0573964173228347
21
-2.8427238976377951
0
LINE
8
BLACK
6
CONTINUOUS
10
5.0573964173228347
20
-2.8427238976377951
11
5.0578373228346454
21
-2.8416594881889763
0
LINE
8
BLACK
6
CONTINUOUS
10
5.0578373228346454
20
-2.8416594881889763
11
5.0586519685039368
21
-2.8408448425196848
0
LINE
8
BLACK
6
CONTINUOUS
10
5.0586519685039368
20
-2.8408448425196848
11
5.0597163779527561
21
-2.8404039370078737
0
LINE
8
BLACK
6
CONTINUOUS
10
5.0597163779527561
20
-2.8404039370078737
11
5.0608685039370078
21
-2.8404039370078737
0
LINE
8
BLACK
6
CONTINUOUS
10
5.0608685039370078
20
-2.8404039370078737
11
5.0619329133858271
21
-2.8408448425196848
0
LINE
8
BLACK
6
CONTINUOUS
10
5.1114872047244093
20
-2.8535272834645671
11
5.1115851968503936
21
-2.8535678740157482
0
LINE
8
BLACK
6
CONTINUOUS
10
5.1115851968503936
20
-2.8535678740157482
11
5.111691023622047
21
-2.8535753937007873
0
LINE
8
BLACK
6
CONTINUOUS
10
5.111691023622047
20
-2.8535753937007873
11
5.112231653543307
21
-2.8537822834645667
0
LINE
8
BLACK
6
CONTINUOUS
10
5.112231653543307
20
-2.8537822834645667
11
5.1156595669291338
21
-2.8554962204724408
0
LINE
8
BLACK
6
CONTINUOUS
10
5.1156595669291338
20
-2.8554962204724408
11
5.1159550787401571
21
-2.8547828346456692
0
LINE
8
BLACK
6
CONTINUOUS
10
5.1159550787401571
20
-2.8547828346456692
11
5.1167697244094485
21
-2.8539681889763777
0
LINE
8
BLACK
6
CONTINUOUS
10
5.1167697244094485
20
-2.8539681889763777
11
5.1178341338582678
21
-2.8535272834645671
0
LINE
8
BLACK
6
CONTINUOUS
10
5.1178341338582678
20
-2.8535272834645671
11
5.1189862598425195
21
-2.8535272834645671
0
LINE
8
BLACK
6
CONTINUOUS
10
5.1189862598425195
20
-2.8535272834645671
11
5.1200506692913388
21
-2.8539681889763777
0
LINE
8
BLACK
6
CONTINUOUS
10
5.1200506692913388
20
-2.8539681889763777
11
5.1208653149606302
21
-2.8547828346456692
0
LINE
8
BLACK
6
CONTINUOUS
10
5.1208653149606302
20
-2.8547828346456692
11
5.1213062204724409
21
-2.855847244094488
0
LINE
8
BLACK
6
CONTINUOUS
10
5.1213062204724409
20
-2.855847244094488
11
5.1213629527559057
21
-2.8564233070866143
0
LINE
8
BLACK
6
CONTINUOUS
10
5.1213629527559057
20
-2.8564233070866143
11
5.1213629527559057
21
-2.8826700393700788
0
LINE
8
BLACK
6
CONTINUOUS
10
5.1213629527559057
20
-2.8826700393700788
11
5.1213062204724409
21
-2.8832461023622047
0
LINE
8
BLACK
6
CONTINUOUS
10
5.1213062204724409
20
-2.8832461023622047
11
5.1208653149606302
21
-2.8843105118110235
0
LINE
8
BLACK
6
CONTINUOUS
10
5.1208653149606302
20
-2.8843105118110235
11
5.1200506692913388
21
-2.885125157480315
0
LINE
8
BLACK
6
CONTINUOUS
10
5.1200506692913388
20
-2.885125157480315
11
5.1189862598425195
21
-2.885566062992126
0
LINE
8
BLACK
6
CONTINUOUS
10
5.1189862598425195
20
-2.885566062992126
11
5.1178341338582678
21
-2.885566062992126
0
LINE
8
BLACK
6
CONTINUOUS
10
5.1178341338582678
20
-2.885566062992126
11
5.1167697244094485
21
-2.885125157480315
0
LINE
8
BLACK
6
CONTINUOUS
10
5.1167697244094485
20
-2.885125157480315
11
5.1159550787401571
21
-2.8843105118110235
0
LINE
8
BLACK
6
CONTINUOUS
10
5.1159550787401571
20
-2.8843105118110235
11
5.1155141732283465
21
-2.8832461023622047
0
LINE
8
BLACK
6
CONTINUOUS
10
5.1155141732283465
20
-2.8832461023622047
11
5.1154574409448816
21
-2.8826700393700788
0
LINE
8
BLACK
6
CONTINUOUS
10
5.1154574409448816
20
-2.8826700393700788
11
5.1154574409448816
21
-2.8646194094488187
0
LINE
8
BLACK
6
CONTINUOUS
10
5.1154574409448816
20
-2.8646194094488187
11
5.1141087007874013
21
-2.861921929133858
0
LINE
8
BLACK
6
CONTINUOUS
10
5.1141087007874013
20
-2.861921929133858
11
5.1129115748031495
21
-2.8607248031496062
0
LINE
8
BLACK
6
CONTINUOUS
10
5.1129115748031495
20
-2.8607248031496062
11
5.1102140944881889
21
-2.8593760629921259
0
LINE
8
BLACK
6
CONTINUOUS
10
5.1102140944881889
20
-2.8593760629921259
11
5.1071616141732283
21
-2.8593760629921259
0
LINE
8
BLACK
6
CONTINUOUS
10
5.1071616141732283
20
-2.8593760629921259
11
5.1065855511811025
21
-2.8593193307086615
0
LINE
8
BLACK
6
CONTINUOUS
10
5.1065855511811025
20
-2.8593193307086615
11
5.1055211417322832
21
-2.8588784251968504
0
LINE
8
BLACK
6
CONTINUOUS
10
5.1055211417322832
20
-2.8588784251968504
11
5.1047064960629918
21
-2.858063779527559
0
LINE
8
BLACK
6
CONTINUOUS
10
5.1047064960629918
20
-2.858063779527559
11
5.1042655905511811
21
-2.8569993700787402
0
LINE
8
BLACK
6
CONTINUOUS
10
5.1042655905511811
20
-2.8569993700787402
11
5.1042655905511811
21
-2.855847244094488
0
LINE
8
BLACK
6
CONTINUOUS
10
5.1042655905511811
20
-2.855847244094488
11
5.1047064960629918
21
-2.8547828346456692
0
LINE
8
BLACK
6
CONTINUOUS
10
5.1047064960629918
20
-2.8547828346456692
11
5.1055211417322832
21
-2.8539681889763777
0
LINE
8
BLACK
6
CONTINUOUS
10
5.1055211417322832
20
-2.8539681889763777
11
5.1065855511811025
21
-2.8535272834645671
0
LINE
8
BLACK
6
CONTINUOUS
10
5.1065855511811025
20
-2.8535272834645671
11
5.1071616141732283
21
-2.8534705511811023
0
LINE
8
BLACK
6
CONTINUOUS
10
5.1071616141732283
20
-2.8534705511811023
11
5.1109111417322834
21
-2.8534705511811023
0
LINE
8
BLACK
6
CONTINUOUS
10
5.1109111417322834
20
-2.8534705511811023
11
5.1114872047244093
21
-2.8535272834645671
0
LINE
8
BLACK
6
CONTINUOUS
10
5.1358591732283463
20
-2.8535272834645671
11
5.1359571653543306
21
-2.8535678740157482
0
LINE
8
BLACK
6
CONTINUOUS
10
5.1359571653543306
20
-2.8535678740157482
11
5.1360629921259839
21
-2.8535753937007873
0
LINE
8
BLACK
6
CONTINUOUS
10
5.1360629921259839
20
-2.8535753937007873
11
5.136603622047244
21
-2.8537822834645667
0
LINE
8
BLACK
6
CONTINUOUS
10
5.136603622047244
20
-2.8537822834645667
11
5.1400315354330708
21
-2.8554962204724408
0
LINE
8
BLACK
6
CONTINUOUS
10
5.1400315354330708
20
-2.8554962204724408
11
5.1403270472440941
21
-2.8547828346456692
0
LINE
8
BLACK
6
CONTINUOUS
10
5.1403270472440941
20
-2.8547828346456692
11
5.1411416929133855
21
-2.8539681889763777
0
LINE
8
BLACK
6
CONTINUOUS
10
5.1411416929133855
20
-2.8539681889763777
11
5.1422061023622048
21
-2.8535272834645671
0
LINE
8
BLACK
6
CONTINUOUS
10
5.1422061023622048
20
-2.8535272834645671
11
5.1433582283464565
21
-2.8535272834645671
0
LINE
8
BLACK
6
CONTINUOUS
10
5.1433582283464565
20
-2.8535272834645671
11
5.1444226377952758
21
-2.8539681889763777
0
LINE
8
BLACK
6
CONTINUOUS
10
5.1444226377952758
20
-2.8539681889763777
11
5.1452372834645672
21
-2.8547828346456692
0
LINE
8
BLACK
6
CONTINUOUS
10
5.1452372834645672
20
-2.8547828346456692
11
5.1456781889763779
21
-2.855847244094488
0
LINE
8
BLACK
6
CONTINUOUS
10
5.1456781889763779
20
-2.855847244094488
11
5.1457349212598427
21
-2.8564233070866143
0
LINE
8
BLACK
6
CONTINUOUS
10
5.1457349212598427
20
-2.8564233070866143
11
5.1457349212598427
21
-2.8826700393700788
0
LINE
8
BLACK
6
CONTINUOUS
10
5.1457349212598427
20
-2.8826700393700788
11
5.1456781889763779
21
-2.8832461023622047
0
LINE
8
BLACK
6
CONTINUOUS
10
5.1456781889763779
20
-2.8832461023622047
11
5.1452372834645672
21
-2.8843105118110235
0
LINE
8
BLACK
6
CONTINUOUS
10
5.1452372834645672
20
-2.8843105118110235
11
5.1444226377952758
21
-2.885125157480315
0
LINE
8
BLACK
6
CONTINUOUS
10
5.1444226377952758
20
-2.885125157480315
11
5.1433582283464565
21
-2.885566062992126
0
LINE
8
BLACK
6
CONTINUOUS
10
5.1433582283464565
20
-2.885566062992126
11
5.1422061023622048
21
-2.885566062992126
0
LINE
8
BLACK
6
CONTINUOUS
10
5.1422061023622048
20
-2.885566062992126
11
5.1411416929133855
21
-2.885125157480315
0
LINE
8
BLACK
6
CONTINUOUS
10
5.1411416929133855
20
-2.885125157480315
11
5.1403270472440941
21
-2.8843105118110235
0
LINE
8
BLACK
6
CONTINUOUS
10
5.1403270472440941
20
-2.8843105118110235
11
5.1398861417322834
21
-2.8832461023622047
0
LINE
8
BLACK
6
CONTINUOUS
10
5.1398861417322834
20
-2.8832461023622047
11
5.1398294094488186
21
-2.8826700393700788
0
LINE
8
BLACK
6
CONTINUOUS
10
5.1398294094488186
20
-2.8826700393700788
11
5.1398294094488186
21
-2.8646194094488187
0
LINE
8
BLACK
6
CONTINUOUS
10
5.1398294094488186
20
-2.8646194094488187
11
5.1384806692913383
21
-2.861921929133858
0
LINE
8
BLACK
6
CONTINUOUS
10
5.1384806692913383
20
-2.861921929133858
11
5.1372835433070865
21
-2.8607248031496062
0
LINE
8
BLACK
6
CONTINUOUS
10
5.1372835433070865
20
-2.8607248031496062
11
5.1345860629921258
21
-2.8593760629921259
0
LINE
8
BLACK
6
CONTINUOUS
10
5.1345860629921258
20
-2.8593760629921259
11
5.1315335826771653
21
-2.8593760629921259
0
LINE
8
BLACK
6
CONTINUOUS
10
5.1315335826771653
20
-2.8593760629921259
11
5.1309575196850394
21
-2.8593193307086615
0
LINE
8
BLACK
6
CONTINUOUS
10
5.1309575196850394
20
-2.8593193307086615
11
5.1298931102362202
21
-2.8588784251968504
0
LINE
8
BLACK
6
CONTINUOUS
10
5.1298931102362202
20
-2.8588784251968504
11
5.1290784645669287
21
-2.858063779527559
0
LINE
8
BLACK
6
CONTINUOUS
10
5.1290784645669287
20
-2.858063779527559
11
5.1286375590551181
21
-2.8569993700787402
0
LINE
8
BLACK
6
CONTINUOUS
10
5.1286375590551181
20
-2.8569993700787402
11
5.1286375590551181
21
-2.855847244094488
0
LINE
8
BLACK
6
CONTINUOUS
10
5.1286375590551181
20
-2.855847244094488
11
5.1290784645669287
21
-2.8547828346456692
0
LINE
8
BLACK
6
CONTINUOUS
10
5.1290784645669287
20
-2.8547828346456692
11
5.1298931102362202
21
-2.8539681889763777
0
LINE
8
BLACK
6
CONTINUOUS
10
5.1298931102362202
20
-2.8539681889763777
11
5.1309575196850394
21
-2.8535272834645671
0
LINE
8
BLACK
6
CONTINUOUS
10
5.1309575196850394
20
-2.8535272834645671
11
5.1315335826771653
21
-2.8534705511811023
0
LINE
8
BLACK
6
CONTINUOUS
10
5.1315335826771653
20
-2.8534705511811023
11
5.1352831102362204
21
-2.8534705511811023
0
LINE
8
BLACK
6
CONTINUOUS
10
5.1352831102362204
20
-2.8534705511811023
11
5.1358591732283463
21
-2.8535272834645671
0
LINE
8
BLACK
6
CONTINUOUS
10
4.9670264960629922
20
-2.5816568110236218
11
4.9763376377952753
21
-2.5838922047244095
0
LINE
8
BLACK
6
CONTINUOUS
10
4.9763376377952753
20
-2.5838922047244095
11
4.9851844488188979
21
-2.587556692913386
0
LINE
8
BLACK
6
CONTINUOUS
10
4.9851844488188979
20
-2.587556692913386
11
4.9933490944881891
21
-2.5925599999999998
0
LINE
8
BLACK
6
CONTINUOUS
10
4.9933490944881891
20
-2.5925599999999998
11
5.0006305511811027
21
-2.598778897637795
0
LINE
8
BLACK
6
CONTINUOUS
10
5.0006305511811027
20
-2.598778897637795
11
5.0068494488188975
21
-2.6060603543307086
0
LINE
8
BLACK
6
CONTINUOUS
10
5.0068494488188975
20
-2.6060603543307086
11
5.0118527559055117
21
-2.6142249999999998
0
LINE
8
BLACK
6
CONTINUOUS
10
5.0118527559055117
20
-2.6142249999999998
11
5.0155172440944877
21
-2.623071811023622
0
LINE
8
BLACK
6
CONTINUOUS
10
5.0155172440944877
20
-2.623071811023622
11
5.0177526377952759
21
-2.6323829527559055
0
LINE
8
BLACK
6
CONTINUOUS
10
5.0177526377952759
20
-2.6323829527559055
11
5.0185039370078739
21
-2.6419291338582678
0
LINE
8
BLACK
6
CONTINUOUS
10
5.0185039370078739
20
-2.6419291338582678
11
5.0177526377952759
21
-2.65147531496063
0
LINE
8
BLACK
6
CONTINUOUS
10
5.0177526377952759
20
-2.65147531496063
11
5.0155172440944877
21
-2.6607864566929131
0
LINE
8
BLACK
6
CONTINUOUS
10
5.0155172440944877
20
-2.6607864566929131
11
5.0118527559055117
21
-2.6696332677165353
0
LINE
8
BLACK
6
CONTINUOUS
10
5.0118527559055117
20
-2.6696332677165353
11
5.0068494488188975
21
-2.6777979133858265
0
LINE
8
BLACK
6
CONTINUOUS
10
5.0068494488188975
20
-2.6777979133858265
11
5.0006305511811027
21
-2.6850793700787401
0
LINE
8
BLACK
6
CONTINUOUS
10
5.0006305511811027
20
-2.6850793700787401
11
4.9933490944881891
21
-2.6912982677165354
0
LINE
8
BLACK
6
CONTINUOUS
10
4.9933490944881891
20
-2.6912982677165354
11
4.9851844488188979
21
-2.6963015748031496
0
LINE
8
BLACK
6
CONTINUOUS
10
4.9851844488188979
20
-2.6963015748031496
11
4.9763376377952753
21
-2.699966062992126
0
LINE
8
BLACK
6
CONTINUOUS
10
4.9763376377952753
20
-2.699966062992126
11
4.9670264960629922
21
-2.7022014566929133
0
LINE
8
BLACK
6
CONTINUOUS
10
4.9670264960629922
20
-2.7022014566929133
11
4.9574803149606295
21
-2.7029527559055118
0
LINE
8
BLACK
6
CONTINUOUS
10
4.9574803149606295
20
-2.7029527559055118
11
4.9479341338582676
21
-2.7022014566929133
0
LINE
8
BLACK
6
CONTINUOUS
10
4.9479341338582676
20
-2.7022014566929133
11
4.9386229921259845
21
-2.699966062992126
0
LINE
8
BLACK
6
CONTINUOUS
10
4.9386229921259845
20
-2.699966062992126
11
4.9297761811023619
21
-2.6963015748031496
0
LINE
8
BLACK
6
CONTINUOUS
10
4.9297761811023619
20
-2.6963015748031496
11
4.9216115354330707
21
-2.6912982677165354
0
LINE
8
BLACK
6
CONTINUOUS
10
4.9216115354330707
20
-2.6912982677165354
11
4.9143300787401571
21
-2.6850793700787401
0
LINE
8
BLACK
6
CONTINUOUS
10
4.9143300787401571
20
-2.6850793700787401
11
4.9081111811023623
21
-2.6777979133858265
0
LINE
8
BLACK
6
CONTINUOUS
10
4.9081111811023623
20
-2.6777979133858265
11
4.9031078740157481
21
-2.6696332677165353
0
LINE
8
BLACK
6
CONTINUOUS
10
4.9031078740157481
20
-2.6696332677165353
11
4.8994433858267712
21
-2.6607864566929131
0
LINE
8
BLACK
6
CONTINUOUS
10
4.8994433858267712
20
-2.6607864566929131
11
4.8972079921259839
21
-2.65147531496063
0
LINE
8
BLACK
6
CONTINUOUS
10
4.8972079921259839
20
-2.65147531496063
11
4.8964566929133859
21
-2.6419291338582678
0
LINE
8
BLACK
6
CONTINUOUS
10
4.8964566929133859
20
-2.6419291338582678
11
4.8972079921259839
21
-2.6323829527559055
0
LINE
8
BLACK
6
CONTINUOUS
10
4.8972079921259839
20
-2.6323829527559055
11
4.8994433858267712
21
-2.623071811023622
0
LINE
8
BLACK
6
CONTINUOUS
10
4.8994433858267712
20
-2.623071811023622
11
4.9031078740157481
21
-2.6142249999999998
0
LINE
8
BLACK
6
CONTINUOUS
10
4.9031078740157481
20
-2.6142249999999998
11
4.9081111811023623
21
-2.6060603543307086
0
LINE
8
BLACK
6
CONTINUOUS
10
4.9081111811023623
20
-2.6060603543307086
11
4.9143300787401571
21
-2.598778897637795
0
LINE
8
BLACK
6
CONTINUOUS
10
4.9143300787401571
20
-2.598778897637795
11
4.9216115354330707
21
-2.5925599999999998
0
LINE
8
BLACK
6
CONTINUOUS
10
4.9216115354330707
20
-2.5925599999999998
11
4.9297761811023619
21
-2.587556692913386
0
LINE
8
BLACK
6
CONTINUOUS
10
4.9297761811023619
20
-2.587556692913386
11
4.9386229921259845
21
-2.5838922047244095
0
LINE
8
BLACK
6
CONTINUOUS
10
4.9386229921259845
20
-2.5838922047244095
11
4.9479341338582676
21
-2.5816568110236218
0
LINE
8
BLACK
6
CONTINUOUS
10
4.9479341338582676
20
-2.5816568110236218
11
4.9574803149606295
21
-2.5809055118110233
0
LINE
8
BLACK
6
CONTINUOUS
10
4.9574803149606295
20
-2.5809055118110233
11
4.9670264960629922
21
-2.5816568110236218
0
LINE
8
BLACK
6
CONTINUOUS
10
4.9186840944881887
20
-2.5997852362204723
11
4.914960275590551
21
-2.6038303543307086
0
LINE
8
BLACK
6
CONTINUOUS
10
4.914960275590551
20
-2.6038303543307086
11
4.9956511417322833
21
-2.6845597637795273
0
LINE
8
BLACK
6
CONTINUOUS
10
4.9956511417322833
20
-2.6845597637795273
11
4.9962765354330712
21
-2.6840730314960628
0
LINE
8
BLACK
6
CONTINUOUS
10
4.9962765354330712
20
-2.6840730314960628
11
4.9999814566929128
21
-2.6800483858267716
0
LINE
8
BLACK
6
CONTINUOUS
10
4.9999814566929128
20
-2.6800483858267716
11
4.9192873228346459
21
-2.5993157086614174
0
LINE
8
BLACK
6
CONTINUOUS
10
4.9192873228346459
20
-2.5993157086614174
11
4.9186840944881887
21
-2.5997852362204723
0
LINE
8
BLACK
6
CONTINUOUS
10
4.943418346456693
20
-2.5863997244094485
11
4.9344703149606302
21
-2.5894715748031496
0
LINE
8
BLACK
6
CONTINUOUS
10
4.9344703149606302
20
-2.5894715748031496
11
4.9261498818897635
21
-2.5939743700787399
0
LINE
8
BLACK
6
CONTINUOUS
10
4.9261498818897635
20
-2.5939743700787399
11
4.9224181496062993
21
-2.5968788582677167
0
LINE
8
BLACK
6
CONTINUOUS
10
4.9224181496062993
20
-2.5968788582677167
11
5.0026502362204726
21
-2.6771493307086613
0
LINE
8
BLACK
6
CONTINUOUS
10
5.0026502362204726
20
-2.6771493307086613
11
5.0026840551181104
21
-2.6771125984251967
0
LINE
8
BLACK
6
CONTINUOUS
10
5.0026840551181104
20
-2.6771125984251967
11
5.0078585433070861
21
-2.6691924803149605
0
LINE
8
BLACK
6
CONTINUOUS
10
5.0078585433070861
20
-2.6691924803149605
11
5.0116588582677162
21
-2.6605286614173229
0
LINE
8
BLACK
6
CONTINUOUS
10
5.0116588582677162
20
-2.6605286614173229
11
5.0139812992125981
21
-2.6513574803149607
0
LINE
8
BLACK
6
CONTINUOUS
10
5.0139812992125981
20
-2.6513574803149607
11
5.0147625590551179
21
-2.6419291338582678
0
LINE
8
BLACK
6
CONTINUOUS
10
5.0147625590551179
20
-2.6419291338582678
11
5.0139812992125981
21
-2.6325007874015749
0
LINE
8
BLACK
6
CONTINUOUS
10
5.0139812992125981
20
-2.6325007874015749
11
5.0116588582677162
21
-2.6233296062992126
0
LINE
8
BLACK
6
CONTINUOUS
10
5.0116588582677162
20
-2.6233296062992126
11
5.0078585433070861
21
-2.6146657874015746
0
LINE
8
BLACK
6
CONTINUOUS
10
5.0078585433070861
20
-2.6146657874015746
11
5.0026840551181104
21
-2.6067456692913384
0
LINE
8
BLACK
6
CONTINUOUS
10
5.0026840551181104
20
-2.6067456692913384
11
4.9962765354330712
21
-2.5997852362204723
0
LINE
8
BLACK
6
CONTINUOUS
10
4.9962765354330712
20
-2.5997852362204723
11
4.9888107480314963
21
-2.5939743700787399
0
LINE
8
BLACK
6
CONTINUOUS
10
4.9888107480314963
20
-2.5939743700787399
11
4.9804903149606297
21
-2.5894715748031496
0
LINE
8
BLACK
6
CONTINUOUS
10
4.9804903149606297
20
-2.5894715748031496
11
4.9715422834645668
21
-2.5863997244094485
0
LINE
8
BLACK
6
CONTINUOUS
10
4.9715422834645668
20
-2.5863997244094485
11
4.9622106299212598
21
-2.5848425196850395
0
LINE
8
BLACK
6
CONTINUOUS
10
4.9622106299212598
20
-2.5848425196850395
11
4.95275
21
-2.5848425196850395
0
LINE
8
BLACK
6
CONTINUOUS
10
4.95275
20
-2.5848425196850395
11
4.943418346456693
21
-2.5863997244094485
0
LINE
8
BLACK
6
CONTINUOUS
10
4.9009793307086609
20
-2.6513574803149607
11
4.9033017716535436
21
-2.6605286614173229
0
LINE
8
BLACK
6
CONTINUOUS
10
4.9033017716535436
20
-2.6605286614173229
11
4.9071020866141728
21
-2.6691924803149605
0
LINE
8
BLACK
6
CONTINUOUS
10
4.9071020866141728
20
-2.6691924803149605
11
4.9122765748031494
21
-2.6771125984251967
0
LINE
8
BLACK
6
CONTINUOUS
10
4.9122765748031494
20
-2.6771125984251967
11
4.9186840944881887
21
-2.6840730314960628
0
LINE
8
BLACK
6
CONTINUOUS
10
4.9186840944881887
20
-2.6840730314960628
11
4.9261498818897635
21
-2.6898838976377952
0
LINE
8
BLACK
6
CONTINUOUS
10
4.9261498818897635
20
-2.6898838976377952
11
4.9344703149606302
21
-2.694386692913386
0
LINE
8
BLACK
6
CONTINUOUS
10
4.9344703149606302
20
-2.694386692913386
11
4.943418346456693
21
-2.6974585433070866
0
LINE
8
BLACK
6
CONTINUOUS
10
4.943418346456693
20
-2.6974585433070866
11
4.95275
21
-2.699015748031496
0
LINE
8
BLACK
6
CONTINUOUS
10
4.95275
20
-2.699015748031496
11
4.9622106299212598
21
-2.699015748031496
0
LINE
8
BLACK
6
CONTINUOUS
10
4.9622106299212598
20
-2.699015748031496
11
4.9715422834645668
21
-2.6974585433070866
0
LINE
8
BLACK
6
CONTINUOUS
10
4.9715422834645668
20
-2.6974585433070866
11
4.9804903149606297
21
-2.694386692913386
0
LINE
8
BLACK
6
CONTINUOUS
10
4.9804903149606297
20
-2.694386692913386
11
4.9888107480314963
21
-2.6898838976377952
0
LINE
8
BLACK
6
CONTINUOUS
10
4.9888107480314963
20
-2.6898838976377952
11
4.9925203149606299
21
-2.6869965748031497
0
LINE
8
BLACK
6
CONTINUOUS
10
4.9925203149606299
20
-2.6869965748031497
11
4.9122914960629922
21
-2.6067294094488189
0
LINE
8
BLACK
6
CONTINUOUS
10
4.9122914960629922
20
-2.6067294094488189
11
4.9122765748031494
21
-2.6067456692913384
0
LINE
8
BLACK
6
CONTINUOUS
10
4.9122765748031494
20
-2.6067456692913384
11
4.9071020866141728
21
-2.6146657874015746
0
LINE
8
BLACK
6
CONTINUOUS
10
4.9071020866141728
20
-2.6146657874015746
11
4.9033017716535436
21
-2.6233296062992126
0
LINE
8
BLACK
6
CONTINUOUS
10
4.9033017716535436
20
-2.6233296062992126
11
4.9009793307086609
21
-2.6325007874015749
0
LINE
8
BLACK
6
CONTINUOUS
10
4.9009793307086609
20
-2.6325007874015749
11
4.9001980708661419
21
-2.6419291338582678
0
LINE
8
BLACK
6
CONTINUOUS
10
4.9001980708661419
20
-2.6419291338582678
11
4.9009793307086609
21
-2.6513574803149607
0
LINE
8
BLACK
6
CONTINUOUS
10
5.1670264960629924
20
-2.5816568110236218
11
5.1763376377952754
21
-2.5838922047244095
0
LINE
8
BLACK
6
CONTINUOUS
10
5.1763376377952754
20
-2.5838922047244095
11
5.1851844488188972
21
-2.587556692913386
0
LINE
8
BLACK
6
CONTINUOUS
10
5.1851844488188972
20
-2.587556692913386
11
5.1933490944881893
21
-2.5925599999999998
0
LINE
8
BLACK
6
CONTINUOUS
10
5.1933490944881893
20
-2.5925599999999998
11
5.200630551181102
21
-2.598778897637795
0
LINE
8
BLACK
6
CONTINUOUS
10
5.200630551181102
20
-2.598778897637795
11
5.2068494488188977
21
-2.6060603543307086
0
LINE
8
BLACK
6
CONTINUOUS
10
5.2068494488188977
20
-2.6060603543307086
11
5.2118527559055119
21
-2.6142249999999998
0
LINE
8
BLACK
6
CONTINUOUS
10
5.2118527559055119
20
-2.6142249999999998
11
5.2155172440944879
21
-2.623071811023622
0
LINE
8
BLACK
6
CONTINUOUS
10
5.2155172440944879
20
-2.623071811023622
11
5.2177526377952752
21
-2.6323829527559055
0
LINE
8
BLACK
6
CONTINUOUS
10
5.2177526377952752
20
-2.6323829527559055
11
5.2185039370078741
21
-2.6419291338582678
0
LINE
8
BLACK
6
CONTINUOUS
10
5.2185039370078741
20
-2.6419291338582678
11
5.2177526377952752
21
-2.65147531496063
0
LINE
8
BLACK
6
CONTINUOUS
10
5.2177526377952752
20
-2.65147531496063
11
5.2155172440944879
21
-2.6607864566929131
0
LINE
8
BLACK
6
CONTINUOUS
10
5.2155172440944879
20
-2.6607864566929131
11
5.2118527559055119
21
-2.6696332677165353
0
LINE
8
BLACK
6
CONTINUOUS
10
5.2118527559055119
20
-2.6696332677165353
11
5.2068494488188977
21
-2.6777979133858265
0
LINE
8
BLACK
6
CONTINUOUS
10
5.2068494488188977
20
-2.6777979133858265
11
5.200630551181102
21
-2.6850793700787401
0
LINE
8
BLACK
6
CONTINUOUS
10
5.200630551181102
20
-2.6850793700787401
11
5.1933490944881893
21
-2.6912982677165354
0
LINE
8
BLACK
6
CONTINUOUS
10
5.1933490944881893
20
-2.6912982677165354
11
5.1851844488188972
21
-2.6963015748031496
0
LINE
8
BLACK
6
CONTINUOUS
10
5.1851844488188972
20
-2.6963015748031496
11
5.1763376377952754
21
-2.699966062992126
0
LINE
8
BLACK
6
CONTINUOUS
10
5.1763376377952754
20
-2.699966062992126
11
5.1670264960629924
21
-2.7022014566929133
0
LINE
8
BLACK
6
CONTINUOUS
10
5.1670264960629924
20
-2.7022014566929133
11
5.1574803149606296
21
-2.7029527559055118
0
LINE
8
BLACK
6
CONTINUOUS
10
5.1574803149606296
20
-2.7029527559055118
11
5.1479341338582678
21
-2.7022014566929133
0
LINE
8
BLACK
6
CONTINUOUS
10
5.1479341338582678
20
-2.7022014566929133
11
5.1386229921259838
21
-2.699966062992126
0
LINE
8
BLACK
6
CONTINUOUS
10
5.1386229921259838
20
-2.699966062992126
11
5.1297761811023621
21
-2.6963015748031496
0
LINE
8
BLACK
6
CONTINUOUS
10
5.1297761811023621
20
-2.6963015748031496
11
5.1216115354330709
21
-2.6912982677165354
0
LINE
8
BLACK
6
CONTINUOUS
10
5.1216115354330709
20
-2.6912982677165354
11
5.1143300787401573
21
-2.6850793700787401
0
LINE
8
BLACK
6
CONTINUOUS
10
5.1143300787401573
20
-2.6850793700787401
11
5.1081111811023625
21
-2.6777979133858265
0
LINE
8
BLACK
6
CONTINUOUS
10
5.1081111811023625
20
-2.6777979133858265
11
5.1031078740157483
21
-2.6696332677165353
0
LINE
8
BLACK
6
CONTINUOUS
10
5.1031078740157483
20
-2.6696332677165353
11
5.0994433858267714
21
-2.6607864566929131
0
LINE
8
BLACK
6
CONTINUOUS
10
5.0994433858267714
20
-2.6607864566929131
11
5.0972079921259841
21
-2.65147531496063
0
LINE
8
BLACK
6
CONTINUOUS
10
5.0972079921259841
20
-2.65147531496063
11
5.0964566929133861
21
-2.6419291338582678
0
LINE
8
BLACK
6
CONTINUOUS
10
5.0964566929133861
20
-2.6419291338582678
11
5.0972079921259841
21
-2.6323829527559055
0
LINE
8
BLACK
6
CONTINUOUS
10
5.0972079921259841
20
-2.6323829527559055
11
5.0994433858267714
21
-2.623071811023622
0
LINE
8
BLACK
6
CONTINUOUS
10
5.0994433858267714
20
-2.623071811023622
11
5.1031078740157483
21
-2.6142249999999998
0
LINE
8
BLACK
6
CONTINUOUS
10
5.1031078740157483
20
-2.6142249999999998
11
5.1081111811023625
21
-2.6060603543307086
0
LINE
8
BLACK
6
CONTINUOUS
10
5.1081111811023625
20
-2.6060603543307086
11
5.1143300787401573
21
-2.598778897637795
0
LINE
8
BLACK
6
CONTINUOUS
10
5.1143300787401573
20
-2.598778897637795
11
5.1216115354330709
21
-2.5925599999999998
0
LINE
8
BLACK
6
CONTINUOUS
10
5.1216115354330709
20
-2.5925599999999998
11
5.1297761811023621
21
-2.587556692913386
0
LINE
8
BLACK
6
CONTINUOUS
10
5.1297761811023621
20
-2.587556692913386
11
5.1386229921259838
21
-2.5838922047244095
0
LINE
8
BLACK
6
CONTINUOUS
10
5.1386229921259838
20
-2.5838922047244095
11
5.1479341338582678
21
-2.5816568110236218
0
LINE
8
BLACK
6
CONTINUOUS
10
5.1479341338582678
20
-2.5816568110236218
11
5.1574803149606296
21
-2.5809055118110233
0
LINE
8
BLACK
6
CONTINUOUS
10
5.1574803149606296
20
-2.5809055118110233
11
5.1670264960629924
21
-2.5816568110236218
0
LINE
8
BLACK
6
CONTINUOUS
10
5.1186840944881888
20
-2.5997852362204723
11
5.114960472440945
21
-2.6038301574803149
0
LINE
8
BLACK
6
CONTINUOUS
10
5.114960472440945
20
-2.6038301574803149
11
5.1956730314960629
21
-2.6845427165354332
0
LINE
8
BLACK
6
CONTINUOUS
10
5.1956730314960629
20
-2.6845427165354332
11
5.1962765354330704
21
-2.6840730314960628
0
LINE
8
BLACK
6
CONTINUOUS
10
5.1962765354330704
20
-2.6840730314960628
11
5.2000001181102364
21
-2.6800280708661415
0
LINE
8
BLACK
6
CONTINUOUS
10
5.2000001181102364
20
-2.6800280708661415
11
5.1192875590551177
21
-2.5993155118110236
0
LINE
8
BLACK
6
CONTINUOUS
10
5.1192875590551177
20
-2.5993155118110236
11
5.1186840944881888
21
-2.5997852362204723
0
LINE
8
BLACK
6
CONTINUOUS
10
5.1434183464566932
20
-2.5863997244094485
11
5.1344703149606294
21
-2.5894715748031496
0
LINE
8
BLACK
6
CONTINUOUS
10
5.1344703149606294
20
-2.5894715748031496
11
5.1261498818897637
21
-2.5939743700787399
0
LINE
8
BLACK
6
CONTINUOUS
10
5.1261498818897637
20
-2.5939743700787399
11
5.1224184251968499
21
-2.5968786614173229
0
LINE
8
BLACK
6
CONTINUOUS
10
5.1224184251968499
20
-2.5968786614173229
11
5.2026688582677165
21
-2.6771290944881887
0
LINE
8
BLACK
6
CONTINUOUS
10
5.2026688582677165
20
-2.6771290944881887
11
5.2026840551181097
21
-2.6771125984251967
0
LINE
8
BLACK
6
CONTINUOUS
10
5.2026840551181097
20
-2.6771125984251967
11
5.2078585433070863
21
-2.6691924803149605
0
LINE
8
BLACK
6
CONTINUOUS
10
5.2078585433070863
20
-2.6691924803149605
11
5.2116588582677164
21
-2.6605286614173229
0
LINE
8
BLACK
6
CONTINUOUS
10
5.2116588582677164
20
-2.6605286614173229
11
5.2139812992125982
21
-2.6513574803149607
0
LINE
8
BLACK
6
CONTINUOUS
10
5.2139812992125982
20
-2.6513574803149607
11
5.2147625590551181
21
-2.6419291338582678
0
LINE
8
BLACK
6
CONTINUOUS
10
5.2147625590551181
20
-2.6419291338582678
11
5.2139812992125982
21
-2.6325007874015749
0
LINE
8
BLACK
6
CONTINUOUS
10
5.2139812992125982
20
-2.6325007874015749
11
5.2116588582677164
21
-2.6233296062992126
0
LINE
8
BLACK
6
CONTINUOUS
10
5.2116588582677164
20
-2.6233296062992126
11
5.2078585433070863
21
-2.6146657874015746
0
LINE
8
BLACK
6
CONTINUOUS
10
5.2078585433070863
20
-2.6146657874015746
11
5.2026840551181097
21
-2.6067456692913384
0
LINE
8
BLACK
6
CONTINUOUS
10
5.2026840551181097
20
-2.6067456692913384
11
5.1962765354330704
21
-2.5997852362204723
0
LINE
8
BLACK
6
CONTINUOUS
10
5.1962765354330704
20
-2.5997852362204723
11
5.1888107480314956
21
-2.5939743700787399
0
LINE
8
BLACK
6
CONTINUOUS
10
5.1888107480314956
20
-2.5939743700787399
11
5.1804903149606298
21
-2.5894715748031496
0
LINE
8
BLACK
6
CONTINUOUS
10
5.1804903149606298
20
-2.5894715748031496
11
5.171542283464567
21
-2.5863997244094485
0
LINE
8
BLACK
6
CONTINUOUS
10
5.171542283464567
20
-2.5863997244094485
11
5.16221062992126
21
-2.5848425196850395
0
LINE
8
BLACK
6
CONTINUOUS
10
5.16221062992126
20
-2.5848425196850395
11
5.1527500000000002
21
-2.5848425196850395
0
LINE
8
BLACK
6
CONTINUOUS
10
5.1527500000000002
20
-2.5848425196850395
11
5.1434183464566932
21
-2.5863997244094485
0
LINE
8
BLACK
6
CONTINUOUS
10
5.1009793307086611
20
-2.6513574803149607
11
5.1033017716535429
21
-2.6605286614173229
0
LINE
8
BLACK
6
CONTINUOUS
10
5.1033017716535429
20
-2.6605286614173229
11
5.107102086614173
21
-2.6691924803149605
0
LINE
8
BLACK
6
CONTINUOUS
10
5.107102086614173
20
-2.6691924803149605
11
5.1122765748031496
21
-2.6771125984251967
0
LINE
8
BLACK
6
CONTINUOUS
10
5.1122765748031496
20
-2.6771125984251967
11
5.1186840944881888
21
-2.6840730314960628
0
LINE
8
BLACK
6
CONTINUOUS
10
5.1186840944881888
20
-2.6840730314960628
11
5.1261498818897637
21
-2.6898838976377952
0
LINE
8
BLACK
6
CONTINUOUS
10
5.1261498818897637
20
-2.6898838976377952
11
5.1344703149606294
21
-2.694386692913386
0
LINE
8
BLACK
6
CONTINUOUS
10
5.1344703149606294
20
-2.694386692913386
11
5.1434183464566932
21
-2.6974585433070866
0
LINE
8
BLACK
6
CONTINUOUS
10
5.1434183464566932
20
-2.6974585433070866
11
5.1527500000000002
21
-2.699015748031496
0
LINE
8
BLACK
6
CONTINUOUS
10
5.1527500000000002
20
-2.699015748031496
11
5.16221062992126
21
-2.699015748031496
0
LINE
8
BLACK
6
CONTINUOUS
10
5.16221062992126
20
-2.699015748031496
11
5.171542283464567
21
-2.6974585433070866
0
LINE
8
BLACK
6
CONTINUOUS
10
5.171542283464567
20
-2.6974585433070866
11
5.1804903149606298
21
-2.694386692913386
0
LINE
8
BLACK
6
CONTINUOUS
10
5.1804903149606298
20
-2.694386692913386
11
5.1888107480314956
21
-2.6898838976377952
0
LINE
8
BLACK
6
CONTINUOUS
10
5.1888107480314956
20
-2.6898838976377952
11
5.1925421653543307
21
-2.6869795669291339
0
LINE
8
BLACK
6
CONTINUOUS
10
5.1925421653543307
20
-2.6869795669291339
11
5.112291732283464
21
-2.6067291338582677
0
LINE
8
BLACK
6
CONTINUOUS
10
5.112291732283464
20
-2.6067291338582677
11
5.1122765748031496
21
-2.6067456692913384
0
LINE
8
BLACK
6
CONTINUOUS
10
5.1122765748031496
20
-2.6067456692913384
11
5.107102086614173
21
-2.6146657874015746
0
LINE
8
BLACK
6
CONTINUOUS
10
5.107102086614173
20
-2.6146657874015746
11
5.1033017716535429
21
-2.6233296062992126
0
LINE
8
BLACK
6
CONTINUOUS
10
5.1033017716535429
20
-2.6233296062992126
11
5.1009793307086611
21
-2.6325007874015749
0
LINE
8
BLACK
6
CONTINUOUS
10
5.1009793307086611
20
-2.6325007874015749
11
5.1001980708661412
21
-2.6419291338582678
0
LINE
8
BLACK
6
CONTINUOUS
10
5.1001980708661412
20
-2.6419291338582678
11
5.1009793307086611
21
-2.6513574803149607
0
LINE
8
BLACK
6
CONTINUOUS
10
5.2582336220472436
20
-2.435386062992126
11
5.259298976377953
21
-2.4364514173228344
0
LINE
8
BLACK
6
CONTINUOUS
10
5.259298976377953
20
-2.4364514173228344
11
5.2594488188976376
21
-2.4372047244094488
0
LINE
8
BLACK
6
CONTINUOUS
10
5.2594488188976376
20
-2.4372047244094488
11
5.2594488188976376
21
-2.8033464566929132
0
LINE
8
BLACK
6
CONTINUOUS
10
5.2594488188976376
20
-2.8033464566929132
11
5.259298976377953
21
-2.8040997637795275
0
LINE
8
BLACK
6
CONTINUOUS
10
5.259298976377953
20
-2.8040997637795275
11
5.2588722440944879
21
-2.8047383858267714
0
LINE
8
BLACK
6
CONTINUOUS
10
5.2588722440944879
20
-2.8047383858267714
11
5.2391872047244092
21
-2.8244234251968505
0
LINE
8
BLACK
6
CONTINUOUS
10
5.2391872047244092
20
-2.8244234251968505
11
5.2385485826771649
21
-2.8248501574803151
0
LINE
8
BLACK
6
CONTINUOUS
10
5.2385485826771649
20
-2.8248501574803151
11
5.2377952755905515
21
-2.8249999999999997
0
LINE
8
BLACK
6
CONTINUOUS
10
5.2377952755905515
20
-2.8249999999999997
11
4.8574803149606298
21
-2.8249999999999997
0
LINE
8
BLACK
6
CONTINUOUS
10
4.8574803149606298
20
-2.8249999999999997
11
4.8567270078740155
21
-2.8248501574803151
0
LINE
8
BLACK
6
CONTINUOUS
10
4.8567270078740155
20
-2.8248501574803151
11
4.855661653543307
21
-2.8237848031496062
0
LINE
8
BLACK
6
CONTINUOUS
10
4.855661653543307
20
-2.8237848031496062
11
4.8555118110236215
21
-2.8230314960629919
0
LINE
8
BLACK
6
CONTINUOUS
10
4.8555118110236215
20
-2.8230314960629919
11
4.8555118110236215
21
-2.4372047244094488
0
LINE
8
BLACK
6
CONTINUOUS
10
4.8555118110236215
20
-2.4372047244094488
11
4.855661653543307
21
-2.4364514173228344
0
LINE
8
BLACK
6
CONTINUOUS
10
4.855661653543307
20
-2.4364514173228344
11
4.8567270078740155
21
-2.435386062992126
0
LINE
8
BLACK
6
CONTINUOUS
10
4.8567270078740155
20
-2.435386062992126
11
4.8574803149606298
21
-2.4352362204724409
0
LINE
8
BLACK
6
CONTINUOUS
10
4.8574803149606298
20
-2.4352362204724409
11
5.2574803149606302
21
-2.4352362204724409
0
LINE
8
BLACK
6
CONTINUOUS
10
5.2574803149606302
20
-2.4352362204724409
11
5.2582336220472436
21
-2.435386062992126
0
LINE
8
BLACK
6
CONTINUOUS
10
4.8594488188976372
20
-2.805314960629921
11
4.8594488188976372
21
-2.821062992125984
0
LINE
8
BLACK
6
CONTINUOUS
10
4.8594488188976372
20
-2.821062992125984
11
5.2369799212598425
21
-2.821062992125984
0
LINE
8
BLACK
6
CONTINUOUS
10
5.2369799212598425
20
-2.821062992125984
11
5.2527279527559054
21
-2.805314960629921
0
LINE
8
BLACK
6
CONTINUOUS
10
5.2527279527559054
20
-2.805314960629921
11
4.8594488188976372
21
-2.805314960629921
0
LINE
8
BLACK
6
CONTINUOUS
10
5.0735377165354327
20
-2.7462598425196849
11
5.0735564173228349
21
-2.746449566929134
0
LINE
8
BLACK
6
CONTINUOUS
10
5.0735564173228349
20
-2.746449566929134
11
5.0735564173228349
21
-2.7740918503937007
0
LINE
8
BLACK
6
CONTINUOUS
10
5.0735564173228349
20
-2.7740918503937007
11
5.0750592125984255
21
-2.7786002755905512
0
LINE
8
BLACK
6
CONTINUOUS
10
5.0750592125984255
20
-2.7786002755905512
11
5.0778229921259843
21
-2.7813640944881888
0
LINE
8
BLACK
6
CONTINUOUS
10
5.0778229921259843
20
-2.7813640944881888
11
5.0823313779527561
21
-2.7828668897637794
0
LINE
8
BLACK
6
CONTINUOUS
10
5.0823313779527561
20
-2.7828668897637794
11
5.0856017716535433
21
-2.7828668897637794
0
LINE
8
BLACK
6
CONTINUOUS
10
5.0856017716535433
20
-2.7828668897637794
11
5.0861778346456692
21
-2.7829236220472442
0
LINE
8
BLACK
6
CONTINUOUS
10
5.0861778346456692
20
-2.7829236220472442
11
5.0872422440944884
21
-2.7833645275590548
0
LINE
8
BLACK
6
CONTINUOUS
10
5.0872422440944884
20
-2.7833645275590548
11
5.088056889763779
21
-2.7841791732283463
0
LINE
8
BLACK
6
CONTINUOUS
10
5.088056889763779
20
-2.7841791732283463
11
5.0884977952755905
21
-2.7852435826771651
0
LINE
8
BLACK
6
CONTINUOUS
10
5.0884977952755905
20
-2.7852435826771651
11
5.0884977952755905
21
-2.7863957086614173
0
LINE
8
BLACK
6
CONTINUOUS
10
5.0884977952755905
20
-2.7863957086614173
11
5.088056889763779
21
-2.7874601181102361
0
LINE
8
BLACK
6
CONTINUOUS
10
5.088056889763779
20
-2.7874601181102361
11
5.0872422440944884
21
-2.7882747637795275
0
LINE
8
BLACK
6
CONTINUOUS
10
5.0872422440944884
20
-2.7882747637795275
11
5.0861778346456692
21
-2.7887156692913386
0
LINE
8
BLACK
6
CONTINUOUS
10
5.0861778346456692
20
-2.7887156692913386
11
5.0856017716535433
21
-2.788772401574803
0
LINE
8
BLACK
6
CONTINUOUS
10
5.0856017716535433
20
-2.788772401574803
11
5.0818522440944882
21
-2.788772401574803
0
LINE
8
BLACK
6
CONTINUOUS
10
5.0818522440944882
20
-2.788772401574803
11
5.0815606299212597
21
-2.7887436614173229
0
LINE
8
BLACK
6
CONTINUOUS
10
5.0815606299212597
20
-2.7887436614173229
11
5.0814829133858268
21
-2.7887492125984252
0
LINE
8
BLACK
6
CONTINUOUS
10
5.0814829133858268
20
-2.7887492125984252
11
5.0813806299212594
21
-2.7887259448818895
0
LINE
8
BLACK
6
CONTINUOUS
10
5.0813806299212594
20
-2.7887259448818895
11
5.0812761811023623
21
-2.7887156692913386
0
LINE
8
BLACK
6
CONTINUOUS
10
5.0812761811023623
20
-2.7887156692913386
11
5.0812040944881884
21
-2.7886857874015747
0
LINE
8
BLACK
6
CONTINUOUS
10
5.0812040944881884
20
-2.7886857874015747
11
5.0809184645669294
21
-2.7886208661417324
0
LINE
8
BLACK
6
CONTINUOUS
10
5.0809184645669294
20
-2.7886208661417324
11
5.0752942125984255
21
-2.7867461023622049
0
LINE
8
BLACK
6
CONTINUOUS
10
5.0752942125984255
20
-2.7867461023622049
11
5.0747656299212593
21
-2.7865101181102361
0
LINE
8
BLACK
6
CONTINUOUS
10
5.0747656299212593
20
-2.7865101181102361
11
5.0746855118110235
21
-2.7864406299212598
0
LINE
8
BLACK
6
CONTINUOUS
10
5.0746855118110235
20
-2.7864406299212598
11
5.0745874803149604
21
-2.7864000393700787
0
LINE
8
BLACK
6
CONTINUOUS
10
5.0745874803149604
20
-2.7864000393700787
11
5.0741400393700786
21
-2.7860327952755903
0
LINE
8
BLACK
6
CONTINUOUS
10
5.0741400393700786
20
-2.7860327952755903
11
5.0703905118110235
21
-2.7822832283464565
0
LINE
8
BLACK
6
CONTINUOUS
10
5.0703905118110235
20
-2.7822832283464565
11
5.0700232677165351
21
-2.7818357480314959
0
LINE
8
BLACK
6
CONTINUOUS
10
5.0700232677165351
20
-2.7818357480314959
11
5.0699826377952757
21
-2.7817376771653541
0
LINE
8
BLACK
6
CONTINUOUS
10
5.0699826377952757
20
-2.7817376771653541
11
5.0699131889763782
21
-2.781657598425197
0
LINE
8
BLACK
6
CONTINUOUS
10
5.0699131889763782
20
-2.781657598425197
11
5.0696772047244094
21
-2.78112905511811
0
LINE
8
BLACK
6
CONTINUOUS
10
5.0696772047244094
20
-2.78112905511811
11
5.0678024409448819
21
-2.7755047637795274
0
LINE
8
BLACK
6
CONTINUOUS
10
5.0678024409448819
20
-2.7755047637795274
11
5.0677374803149604
21
-2.7752191732283462
0
LINE
8
BLACK
6
CONTINUOUS
10
5.0677374803149604
20
-2.7752191732283462
11
5.0677076377952757
21
-2.7751470866141732
0
LINE
8
BLACK
6
CONTINUOUS
10
5.0677076377952757
20
-2.7751470866141732
11
5.0676973228346451
21
-2.7750425590551182
0
LINE
8
BLACK
6
CONTINUOUS
10
5.0676973228346451
20
-2.7750425590551182
11
5.0676740944881891
21
-2.77494031496063
0
LINE
8
BLACK
6
CONTINUOUS
10
5.0676740944881891
20
-2.77494031496063
11
5.0676796062992127
21
-2.7748625590551179
0
LINE
8
BLACK
6
CONTINUOUS
10
5.0676796062992127
20
-2.7748625590551179
11
5.0676509055118109
21
-2.7745710236220473
0
LINE
8
BLACK
6
CONTINUOUS
10
5.0676509055118109
20
-2.7745710236220473
11
5.0676509055118109
21
-2.746449566929134
0
LINE
8
BLACK
6
CONTINUOUS
10
5.0676509055118109
20
-2.746449566929134
11
5.0676696062992121
21
-2.7462598425196849
0
LINE
8
BLACK
6
CONTINUOUS
10
5.0676696062992121
20
-2.7462598425196849
11
5.0459044488188978
21
-2.7462598425196849
0
LINE
8
BLACK
6
CONTINUOUS
10
5.0459044488188978
20
-2.7462598425196849
11
5.0485263385826773
21
-2.7501926771653542
0
LINE
8
BLACK
6
CONTINUOUS
10
5.0485263385826773
20
-2.7501926771653542
11
5.0517303149606301
21
-2.753396653543307
0
LINE
8
BLACK
6
CONTINUOUS
10
5.0517303149606301
20
-2.753396653543307
11
5.0550512598425197
21
-2.7550571259842518
0
LINE
8
BLACK
6
CONTINUOUS
10
5.0550512598425197
20
-2.7550571259842518
11
5.0555411417322835
21
-2.7553654724409449
0
LINE
8
BLACK
6
CONTINUOUS
10
5.0555411417322835
20
-2.7553654724409449
11
5.0562959842519684
21
-2.7562358661417323
0
LINE
8
BLACK
6
CONTINUOUS
10
5.0562959842519684
20
-2.7562358661417323
11
5.05666031496063
21
-2.7573288188976379
0
LINE
8
BLACK
6
CONTINUOUS
10
5.05666031496063
20
-2.7573288188976379
11
5.0565786614173227
21
-2.7584780314960629
0
LINE
8
BLACK
6
CONTINUOUS
10
5.0565786614173227
20
-2.7584780314960629
11
5.0560633858267714
21
-2.7595085433070867
0
LINE
8
BLACK
6
CONTINUOUS
10
5.0560633858267714
20
-2.7595085433070867
11
5.0551930314960627
21
-2.7602633858267716
0
LINE
8
BLACK
6
CONTINUOUS
10
5.0551930314960627
20
-2.7602633858267716
11
5.0541000393700788
21
-2.7606277165354332
0
LINE
8
BLACK
6
CONTINUOUS
10
5.0541000393700788
20
-2.7606277165354332
11
5.0529508267716539
21
-2.7605460629921259
0
LINE
8
BLACK
6
CONTINUOUS
10
5.0529508267716539
20
-2.7605460629921259
11
5.0524102362204726
21
-2.7603391732283464
0
LINE
8
BLACK
6
CONTINUOUS
10
5.0524102362204726
20
-2.7603391732283464
11
5.0486607086614175
21
-2.7584644094488189
0
LINE
8
BLACK
6
CONTINUOUS
10
5.0486607086614175
20
-2.7584644094488189
11
5.0484128740157477
21
-2.7583083858267714
0
LINE
8
BLACK
6
CONTINUOUS
10
5.0484128740157477
20
-2.7583083858267714
11
5.0483407480314959
21
-2.7582785433070867
0
LINE
8
BLACK
6
CONTINUOUS
10
5.0483407480314959
20
-2.7582785433070867
11
5.0482595669291337
21
-2.758211929133858
0
LINE
8
BLACK
6
CONTINUOUS
10
5.0482595669291337
20
-2.758211929133858
11
5.0481708267716536
21
-2.7581560629921258
0
LINE
8
BLACK
6
CONTINUOUS
10
5.0481708267716536
20
-2.7581560629921258
11
5.0481196850393699
21
-2.7580971259842517
0
LINE
8
BLACK
6
CONTINUOUS
10
5.0481196850393699
20
-2.7580971259842517
11
5.0478933070866141
21
-2.7579112992125983
0
LINE
8
BLACK
6
CONTINUOUS
10
5.0478933070866141
20
-2.7579112992125983
11
5.0454349212598428
21
-2.7554529133858265
0
LINE
8
BLACK
6
CONTINUOUS
10
5.0454349212598428
20
-2.7554529133858265
11
5.0454349212598428
21
-2.7828668897637794
0
LINE
8
BLACK
6
CONTINUOUS
10
5.0454349212598428
20
-2.7828668897637794
11
5.0537307480314961
21
-2.7828668897637794
0
LINE
8
BLACK
6
CONTINUOUS
10
5.0537307480314961
20
-2.7828668897637794
11
5.054306811023622
21
-2.7829236220472442
0
LINE
8
BLACK
6
CONTINUOUS
10
5.054306811023622
20
-2.7829236220472442
11
5.0553712204724413
21
-2.7833645275590548
0
LINE
8
BLACK
6
CONTINUOUS
10
5.0553712204724413
20
-2.7833645275590548
11
5.0561858661417318
21
-2.7841791732283463
0
LINE
8
BLACK
6
CONTINUOUS
10
5.0561858661417318
20
-2.7841791732283463
11
5.0566267716535434
21
-2.7852435826771651
0
LINE
8
BLACK
6
CONTINUOUS
10
5.0566267716535434
20
-2.7852435826771651
11
5.0566267716535434
21
-2.7863957086614173
0
LINE
8
BLACK
6
CONTINUOUS
10
5.0566267716535434
20
-2.7863957086614173
11
5.0561858661417318
21
-2.7874601181102361
0
LINE
8
BLACK
6
CONTINUOUS
10
5.0561858661417318
20
-2.7874601181102361
11
5.0553712204724413
21
-2.7882747637795275
0
LINE
8
BLACK
6
CONTINUOUS
10
5.0553712204724413
20
-2.7882747637795275
11
5.054306811023622
21
-2.7887156692913386
0
LINE
8
BLACK
6
CONTINUOUS
10
5.054306811023622
20
-2.7887156692913386
11
5.0537307480314961
21
-2.788772401574803
0
LINE
8
BLACK
6
CONTINUOUS
10
5.0537307480314961
20
-2.788772401574803
11
5.0312335826771655
21
-2.788772401574803
0
LINE
8
BLACK
6
CONTINUOUS
10
5.0312335826771655
20
-2.788772401574803
11
5.0306575196850396
21
-2.7887156692913386
0
LINE
8
BLACK
6
CONTINUOUS
10
5.0306575196850396
20
-2.7887156692913386
11
5.0295931102362204
21
-2.7882747637795275
0
LINE
8
BLACK
6
CONTINUOUS
10
5.0295931102362204
20
-2.7882747637795275
11
5.0287784645669289
21
-2.7874601181102361
0
LINE
8
BLACK
6
CONTINUOUS
10
5.0287784645669289
20
-2.7874601181102361
11
5.0283375590551183
21
-2.7863957086614173
0
LINE
8
BLACK
6
CONTINUOUS
10
5.0283375590551183
20
-2.7863957086614173
11
5.0283375590551183
21
-2.7852435826771651
0
LINE
8
BLACK
6
CONTINUOUS
10
5.0283375590551183
20
-2.7852435826771651
11
5.0287784645669289
21
-2.7841791732283463
0
LINE
8
BLACK
6
CONTINUOUS
10
5.0287784645669289
20
-2.7841791732283463
11
5.0295931102362204
21
-2.7833645275590548
0
LINE
8
BLACK
6
CONTINUOUS
10
5.0295931102362204
20
-2.7833645275590548
11
5.0306575196850396
21
-2.7829236220472442
0
LINE
8
BLACK
6
CONTINUOUS
10
5.0306575196850396
20
-2.7829236220472442
11
5.0312335826771655
21
-2.7828668897637794
0
LINE
8
BLACK
6
CONTINUOUS
10
5.0312335826771655
20
-2.7828668897637794
11
5.0395294094488188
21
-2.7828668897637794
0
LINE
8
BLACK
6
CONTINUOUS
10
5.0395294094488188
20
-2.7828668897637794
11
5.0395294094488188
21
-2.746449566929134
0
LINE
8
BLACK
6
CONTINUOUS
10
5.0395294094488188
20
-2.746449566929134
11
5.0395296062992125
21
-2.7464474803149606
0
LINE
8
BLACK
6
CONTINUOUS
10
5.0395296062992125
20
-2.7464474803149606
11
5.0395294094488188
21
-2.7464464566929134
0
LINE
8
BLACK
6
CONTINUOUS
10
5.0395294094488188
20
-2.7464464566929134
11
5.0395300000000001
21
-2.7464434251968504
0
LINE
8
BLACK
6
CONTINUOUS
10
5.0395300000000001
20
-2.7464434251968504
11
5.0395480708661413
21
-2.7462598425196849
0
LINE
8
BLACK
6
CONTINUOUS
10
5.0395480708661413
20
-2.7462598425196849
11
4.8594488188976372
21
-2.7462598425196849
0
LINE
8
BLACK
6
CONTINUOUS
10
4.8594488188976372
20
-2.7462598425196849
11
4.8594488188976372
21
-2.8013779527559053
0
LINE
8
BLACK
6
CONTINUOUS
10
4.8594488188976372
20
-2.8013779527559053
11
5.2555118110236219
21
-2.8013779527559053
0
LINE
8
BLACK
6
CONTINUOUS
10
5.2555118110236219
20
-2.8013779527559053
11
5.2555118110236219
21
-2.7462598425196849
0
LINE
8
BLACK
6
CONTINUOUS
10
5.2555118110236219
20
-2.7462598425196849
11
5.0735377165354327
21
-2.7462598425196849
0
LINE
8
BLACK
6
CONTINUOUS
10
4.8594488188976372
20
-2.5533464566929132
11
4.8594488188976372
21
-2.7423228346456692
0
LINE
8
BLACK
6
CONTINUOUS
10
4.8594488188976372
20
-2.7423228346456692
11
5.2555118110236219
21
-2.7423228346456692
0
LINE
8
BLACK
6
CONTINUOUS
10
5.2555118110236219
20
-2.7423228346456692
11
5.2555118110236219
21
-2.5533464566929132
0
LINE
8
BLACK
6
CONTINUOUS
10
5.2555118110236219
20
-2.5533464566929132
11
4.8594488188976372
21
-2.5533464566929132
0
LINE
8
BLACK
6
CONTINUOUS
10
4.8594488188976372
20
-2.4391732283464567
11
4.8594488188976372
21
-2.5494094488188974
0
LINE
8
BLACK
6
CONTINUOUS
10
4.8594488188976372
20
-2.5494094488188974
11
5.2555118110236219
21
-2.5494094488188974
0
LINE
8
BLACK
6
CONTINUOUS
10
5.2555118110236219
20
-2.5494094488188974
11
5.2555118110236219
21
-2.4391732283464567
0
LINE
8
BLACK
6
CONTINUOUS
10
5.2555118110236219
20
-2.4391732283464567
11
4.8594488188976372
21
-2.4391732283464567
0
CIRCLE
8
BLACK
10
6.622047244094488
20
-3.4244094488188974
40
0.015748031496063
0
CIRCLE
8
BLACK
10
6.5220472440944883
20
-3.4244094488188974
40
0.015748031496063
0
CIRCLE
8
BLACK
10
6.4220472440944878
20
-3.4244094488188974
40
0.015748031496063
0
CIRCLE
8
BLACK
10
6.3220472440944881
20
-3.4244094488188974
40
0.015748031496063
0
CIRCLE
8
BLACK
10
6.2220472440944876
20
-3.4244094488188974
40
0.015748031496063
0
CIRCLE
8
BLACK
10
6.122047244094488
20
-3.4244094488188974
40
0.015748031496063
0
CIRCLE
8
BLACK
10
6.0220472440944883
20
-3.4244094488188974
40
0.015748031496063
0
CIRCLE
8
BLACK
10
5.9220472440944878
20
-3.4244094488188974
40
0.015748031496063
0
CIRCLE
8
BLACK
10
5.9220472440944878
20
-3.7244094488188977
40
0.015748031496063
0
CIRCLE
8
BLACK
10
6.0220472440944883
20
-3.7244094488188977
40
0.015748031496063
0
CIRCLE
8
BLACK
10
6.122047244094488
20
-3.7244094488188977
40
0.015748031496063
0
CIRCLE
8
BLACK
10
6.2220472440944876
20
-3.7244094488188977
40
0.015748031496063
0
CIRCLE
8
BLACK
10
6.3220472440944881
20
-3.7244094488188977
40
0.015748031496063
0
CIRCLE
8
BLACK
10
6.4220472440944878
20
-3.7244094488188977
40
0.015748031496063
0
CIRCLE
8
BLACK
10
6.5220472440944883
20
-3.7244094488188977
40
0.015748031496063
0
CIRCLE
8
BLACK
10
6.622047244094488
20
-3.7244094488188977
40
0.015748031496063
0
CIRCLE
8
BLACK
10
4.2566929133858267
20
-3.3464566929133857
40
0.0196850393700787
0
CIRCLE
8
BLACK
10
4.1582677165354331
20
-3.2480314960629921
40
0.0196850393700787
0
CIRCLE
8
BLACK
10
4.0598425196850396
20
-3.3464566929133857
40
0.0196850393700787
0
CIRCLE
8
BLACK
10
4.5716535433070868
20
-2.6181102362204722
40
0.015748031496063
0
CIRCLE
8
BLACK
10
4.5716535433070868
20
-2.9181102362204725
40
0.015748031496063
0
CIRCLE
8
BLACK
10
4.5716535433070868
20
-3.4448818897637796
40
0.0236220472440945
0
CIRCLE
8
BLACK
10
4.5716535433070868
20
-3.0448818897637793
40
0.0236220472440945
0
CIRCLE
8
BLACK
10
3.5075866141732281
20
-4.0545133858267715
40
0.0165
0
CIRCLE
8
BLACK
10
3.1065866141732283
20
-4.0545133858267715
40
0.0165
0
CIRCLE
8
BLACK
10
3.0651866141732285
20
-4.1636133858267712
40
0.0165
0
CIRCLE
8
BLACK
10
3.0792866141732285
20
-4.2793133858267716
40
0.0165
0
CIRCLE
8
BLACK
10
3.1454866141732283
20
-4.3753133858267717
40
0.0165
0
CIRCLE
8
BLACK
10
3.2487866141732282
20
-4.4295133858267715
40
0.0165
0
CIRCLE
8
BLACK
10
3.3653866141732283
20
-4.4295133858267715
40
0.0165
0
CIRCLE
8
BLACK
10
3.4686866141732282
20
-4.3753133858267717
40
0.0165
0
CIRCLE
8
BLACK
10
3.5348866141732285
20
-4.2793133858267716
40
0.0165
0
CIRCLE
8
BLACK
10
3.5489866141732285
20
-4.1636133858267712
40
0.0165
0
CIRCLE
8
BLACK
10
3.3070866141732282
20
-3.9493133858267715
40
0.0165
0
CIRCLE
8
BLACK
10
3.1938866141732283
20
-3.9772133858267718
40
0.0165
0
CIRCLE
8
BLACK
10
3.4202866141732282
20
-3.9772133858267718
40
0.0165
0
CIRCLE
8
BLACK
10
9.2598425196850389
20
-3.2519685039370079
40
0.015748031496063
0
CIRCLE
8
BLACK
10
9.456692913385826
20
-3.2519685039370079
40
0.015748031496063
0
CIRCLE
8
BLACK
10
4.531208661417323
20
-4.0545133858267715
40
0.0165
0
CIRCLE
8
BLACK
10
4.1302086614173223
20
-4.0545133858267715
40
0.0165
0
CIRCLE
8
BLACK
10
4.0888086614173229
20
-4.1636133858267712
40
0.0165
0
CIRCLE
8
BLACK
10
4.1029086614173229
20
-4.2793133858267716
40
0.0165
0
CIRCLE
8
BLACK
10
4.1691086614173232
20
-4.3753133858267717
40
0.0165
0
CIRCLE
8
BLACK
10
4.2724086614173231
20
-4.4295133858267715
40
0.0165
0
CIRCLE
8
BLACK
10
4.3890086614173232
20
-4.4295133858267715
40
0.0165
0
CIRCLE
8
BLACK
10
4.4923086614173231
20
-4.3753133858267717
40
0.0165
0
CIRCLE
8
BLACK
10
4.5585086614173225
20
-4.2793133858267716
40
0.0165
0
CIRCLE
8
BLACK
10
4.5726086614173225
20
-4.1636133858267712
40
0.0165
0
CIRCLE
8
BLACK
10
4.3307086614173231
20
-3.9493133858267715
40
0.0165
0
CIRCLE
8
BLACK
10
4.2175086614173232
20
-3.9772133858267718
40
0.0165
0
CIRCLE
8
BLACK
10
4.4439086614173231
20
-3.9772133858267718
40
0.0165
0
CIRCLE
8
BLACK
10
7.7821955511811023
20
-3.8910327952755903
40
0.015748031496063
0
CIRCLE
8
BLACK
10
7.6430012992125986
20
-4.030227047244094
40
0.015748031496063
0
CIRCLE
8
BLACK
10
4.4141732283464563
20
-2.9181102362204725
40
0.015748031496063
0
CIRCLE
8
BLACK
10
4.4141732283464563
20
-2.6181102362204722
40
0.015748031496063
0
CIRCLE
8
BLACK
10
3.5283464566929132
20
-2.6181102362204722
40
0.0255905511811024
0
CIRCLE
8
BLACK
10
3.7251968503937007
20
-2.6181102362204722
40
0.0255905511811024
0
CIRCLE
8
BLACK
10
3.2724409448818896
20
-2.6181102362204722
40
0.015748031496063
0
CIRCLE
8
BLACK
10
3.2724409448818896
20
-2.7165354330708662
40
0.015748031496063
0
CIRCLE
8
BLACK
10
6.9645668897637796
20
-3.5964566929133857
40
0.0177165354330709
0
CIRCLE
8
BLACK
10
6.9645668897637796
20
-2.8090550787401574
40
0.0177165354330709
0
CIRCLE
8
BLACK
10
3.0559055118110234
20
-3.2480314960629921
40
0.015748031496063
0
CIRCLE
8
BLACK
10
2.9574803149606299
20
-3.2480314960629921
40
0.015748031496063
0
CIRCLE
8
BLACK
10
8.1889763779527556
20
-4.4685039370078741
40
0.015748031496063
0
CIRCLE
8
BLACK
10
8.1889763779527556
20
-4.1685039370078742
40
0.015748031496063
0
CIRCLE
8
BLACK
10
9.156692913385827
20
-2.8385826771653542
40
0.015748031496063
0
CIRCLE
8
BLACK
10
9.456692913385826
20
-2.8385826771653542
40
0.015748031496063
0
CIRCLE
8
BLACK
10
6.4960629921259843
20
-4.4685039370078741
40
0.015748031496063
0
CIRCLE
8
BLACK
10
6.4960629921259843
20
-4.1685039370078742
40
0.015748031496063
0
CIRCLE
8
BLACK
10
8.8425196850393704
20
-2.7795275590551181
40
0.015748031496063
0
CIRCLE
8
BLACK
10
8.7425196850393707
20
-2.7795275590551181
40
0.015748031496063
0
CIRCLE
8
BLACK
10
8.642519724409448
20
-2.7795275590551181
40
0.015748031496063
0
CIRCLE
8
BLACK
10
8.5425196850393696
20
-2.7795275590551181
40
0.015748031496063
0
CIRCLE
8
BLACK
10
8.44251968503937
20
-2.7795275590551181
40
0.015748031496063
0
CIRCLE
8
BLACK
10
8.3425196850393704
20
-2.7795275590551181
40
0.015748031496063
0
CIRCLE
8
BLACK
10
8.2425196850393707
20
-2.7795275590551181
40
0.015748031496063
0
CIRCLE
8
BLACK
10
8.1425196456692905
20
-2.7795275590551181
40
0.015748031496063
0
CIRCLE
8
BLACK
10
8.0425196850393696
20
-2.7795275590551181
40
0.015748031496063
0
CIRCLE
8
BLACK
10
7.94251968503937
20
-2.7795275590551181
40
0.015748031496063
0
CIRCLE
8
BLACK
10
7.8425196850393695
20
-2.7795275590551181
40
0.015748031496063
0
CIRCLE
8
BLACK
10
7.7425197244094486
20
-2.7795275590551181
40
0.015748031496063
0
CIRCLE
8
BLACK
10
7.6425196850393702
20
-2.7795275590551181
40
0.015748031496063
0
CIRCLE
8
BLACK
10
7.5425196850393696
20
-2.7795275590551181
40
0.015748031496063
0
CIRCLE
8
BLACK
10
7.5425196850393696
20
-3.0795275590551179
40
0.015748031496063
0
CIRCLE
8
BLACK
10
7.6425196850393702
20
-3.0795275590551179
40
0.015748031496063
0
CIRCLE
8
BLACK
10
7.7425196850393698
20
-3.0795275590551179
40
0.015748031496063
0
CIRCLE
8
BLACK
10
7.8425196850393695
20
-3.0795275590551179
40
0.015748031496063
0
CIRCLE
8
BLACK
10
7.94251968503937
20
-3.0795275590551179
40
0.015748031496063
0
CIRCLE
8
BLACK
10
8.0425196850393696
20
-3.0795275590551179
40
0.015748031496063
0
CIRCLE
8
BLACK
10
8.1425196850393693
20
-3.0795275590551179
40
0.015748031496063
0
CIRCLE
8
BLACK
10
8.2425196850393707
20
-3.0795275590551179
40
0.015748031496063
0
CIRCLE
8
BLACK
10
8.3425196850393704
20
-3.0795275590551179
40
0.015748031496063
0
CIRCLE
8
BLACK
10
8.44251968503937
20
-3.0795275590551179
40
0.015748031496063
0
CIRCLE
8
BLACK
10
8.5425196850393696
20
-3.0795275590551179
40
0.015748031496063
0
CIRCLE
8
BLACK
10
8.6425196850393693
20
-3.0795275590551179
40
0.015748031496063
0
CIRCLE
8
BLACK
10
8.7425196850393707
20
-3.0795275590551179
40
0.015748031496063
0
CIRCLE
8
BLACK
10
8.8425196850393704
20
-3.0795275590551179
40
0.015748031496063
0
CIRCLE
8
BLACK
10
9.8917322834645667
20
-3.5314763779527558
40
0.015748031496063
0
CIRCLE
8
BLACK
10
10.1917322834645674
20
-3.5314763779527558
40
0.015748031496063
0
CIRCLE
8
BLACK
10
3.2527559055118109
20
-3.5433070866141732
40
0.015748031496063
0
CIRCLE
8
BLACK
10
2.9527559055118111
20
-3.5433070866141732
40
0.015748031496063
0
CIRCLE
8
BLACK
10
5.2593503937007871
20
-4.0748031496062991
40
0.0118
0
CIRCLE
8
BLACK
10
5.1343503937007871
20
-4.0748031496062991
40
0.0118
0
CIRCLE
8
BLACK
10
9.156692913385827
20
-2.9763779527559056
40
0.015748031496063
0
CIRCLE
8
BLACK
10
9.456692913385826
20
-2.9763779527559056
40
0.015748031496063
0
CIRCLE
8
BLACK
10
3.3905511811023623
20
-3.3858267716535431
40
0.0147637795275591
0
CIRCLE
8
BLACK
10
3.3905511811023623
20
-3.4358267716535433
40
0.0147637795275591
0
CIRCLE
8
BLACK
10
3.3905511811023623
20
-3.4858267716535432
40
0.0147637795275591
0
CIRCLE
8
BLACK
10
3.8976377952755903
20
-4.1657480314960633
40
0.015748031496063
0
CIRCLE
8
BLACK
10
3.8976377952755903
20
-3.8657480314960631
40
0.015748031496063
0
CIRCLE
8
BLACK
10
9.0070866141732289
20
-3.015748031496063
40
0.015748031496063
0
CIRCLE
8
BLACK
10
9.0070866141732289
20
-2.8188976377952755
40
0.015748031496063
0
CIRCLE
8
BLACK
10
9.2519685039370074
20
-4.1657480314960633
40
0.015748031496063
0
CIRCLE
8
BLACK
10
9.2519685039370074
20
-3.8657480314960631
40
0.015748031496063
0
CIRCLE
8
BLACK
10
7.2871141732283462
20
-4.0545133858267715
40
0.0165
0
CIRCLE
8
BLACK
10
6.8861141732283464
20
-4.0545133858267715
40
0.0165
0
CIRCLE
8
BLACK
10
6.8447141732283461
20
-4.1636133858267712
40
0.0165
0
CIRCLE
8
BLACK
10
6.8588141732283461
20
-4.2793133858267716
40
0.0165
0
CIRCLE
8
BLACK
10
6.9250141732283463
20
-4.3753133858267717
40
0.0165
0
CIRCLE
8
BLACK
10
7.0283141732283463
20
-4.4295133858267715
40
0.0165
0
CIRCLE
8
BLACK
10
7.1449141732283463
20
-4.4295133858267715
40
0.0165
0
CIRCLE
8
BLACK
10
7.2482141732283463
20
-4.3753133858267717
40
0.0165
0
CIRCLE
8
BLACK
10
7.3144141732283465
20
-4.2793133858267716
40
0.0165
0
CIRCLE
8
BLACK
10
7.3285141732283465
20
-4.1636133858267712
40
0.0165
0
CIRCLE
8
BLACK
10
7.0866141732283463
20
-3.9493133858267715
40
0.0165
0
CIRCLE
8
BLACK
10
6.9734141732283463
20
-3.9772133858267718
40
0.0165
0
CIRCLE
8
BLACK
10
7.1998141732283463
20
-3.9772133858267718
40
0.0165
0
CIRCLE
8
BLACK
10
3.1496062992125982
20
-2.9527559055118111
40
0.015748031496063
0
CIRCLE
8
BLACK
10
3.1496062992125982
20
-3.0527559055118108
40
0.015748031496063
0
CIRCLE
8
BLACK
10
3.1496062992125982
20
-3.1527559055118108
40
0.015748031496063
0
CIRCLE
8
BLACK
10
3.1496062992125982
20
-3.2527559055118109
40
0.015748031496063
0
CIRCLE
8
BLACK
10
3.4496062992125984
20
-3.2527559055118109
40
0.015748031496063
0
CIRCLE
8
BLACK
10
3.4496062992125984
20
-3.1527559055118108
40
0.015748031496063
0
CIRCLE
8
BLACK
10
3.4496062992125984
20
-3.0527559055118108
40
0.015748031496063
0
CIRCLE
8
BLACK
10
3.4496062992125984
20
-2.9527559055118111
40
0.015748031496063
0
CIRCLE
8
BLACK
10
9.1614173228346463
20
-3.3897637795275588
40
0.015748031496063
0
CIRCLE
8
BLACK
10
9.4614173228346452
20
-3.3897637795275588
40
0.015748031496063
0
CIRCLE
8
BLACK
10
9.2598425196850389
20
-3.1141732283464565
40
0.015748031496063
0
CIRCLE
8
BLACK
10
9.456692913385826
20
-3.1141732283464565
40
0.015748031496063
0
CIRCLE
8
BLACK
10
8.0152559055118111
20
-4.0748031496062991
40
0.0118
0
CIRCLE
8
BLACK
10
7.8902559055118111
20
-4.0748031496062991
40
0.0118
0
CIRCLE
8
BLACK
10
10.1732283464566926
20
-3.6614173228346454
40
0.015748031496063
0
CIRCLE
8
BLACK
10
10.1732283464566926
20
-3.8582677165354329
40
0.015748031496063
0
CIRCLE
8
BLACK
10
4.4141732283464563
20
-3.3389763779527559
40
0.015748031496063
0
CIRCLE
8
BLACK
10
4.4141732283464563
20
-3.0389763779527557
40
0.015748031496063
0
CIRCLE
8
BLACK
10
5.5748031496062991
20
-2.8346456692913384
40
0.015748031496063
0
CIRCLE
8
BLACK
10
5.7716535433070861
20
-2.8346456692913384
40
0.015748031496063
0
CIRCLE
8
BLACK
10
9.4094488188976371
20
-4.1657480314960633
40
0.015748031496063
0
CIRCLE
8
BLACK
10
9.4094488188976371
20
-3.8657480314960631
40
0.015748031496063
0
CIRCLE
8
BLACK
10
9.0193976377952758
20
-4.0545133858267715
40
0.0165
0
CIRCLE
8
BLACK
10
8.618397637795276
20
-4.0545133858267715
40
0.0165
0
CIRCLE
8
BLACK
10
8.5769976377952748
20
-4.1636133858267712
40
0.0165
0
CIRCLE
8
BLACK
10
8.5910976377952757
20
-4.2793133858267716
40
0.0165
0
CIRCLE
8
BLACK
10
8.6572976377952759
20
-4.3753133858267717
40
0.0165
0
CIRCLE
8
BLACK
10
8.760597637795275
20
-4.4295133858267715
40
0.0165
0
CIRCLE
8
BLACK
10
8.877197637795275
20
-4.4295133858267715
40
0.0165
0
CIRCLE
8
BLACK
10
8.9804976377952759
20
-4.3753133858267717
40
0.0165
0
CIRCLE
8
BLACK
10
9.0466976377952761
20
-4.2793133858267716
40
0.0165
0
CIRCLE
8
BLACK
10
9.0607976377952753
20
-4.1636133858267712
40
0.0165
0
CIRCLE
8
BLACK
10
8.8188976377952759
20
-3.9493133858267715
40
0.0165
0
CIRCLE
8
BLACK
10
8.7056976377952751
20
-3.9772133858267718
40
0.0165
0
CIRCLE
8
BLACK
10
8.932097637795275
20
-3.9772133858267718
40
0.0165
0
CIRCLE
8
BLACK
10
3.7244094488188977
20
-4.3700787401574805
40
0.0098425196850394
0
CIRCLE
8
BLACK
10
3.7520844094488188
20
-4.3032655118110235
40
0.0098425196850394
0
CIRCLE
8
BLACK
10
3.7520844094488188
20
-4.4368919685039367
40
0.0098425196850394
0
CIRCLE
8
BLACK
10
3.8188976377952755
20
-4.2755905511811019
40
0.0098425196850394
0
CIRCLE
8
BLACK
10
3.8188976377952755
20
-4.3700787401574805
40
0.062992125984252
0
CIRCLE
8
BLACK
10
3.8188976377952755
20
-4.4645669291338583
40
0.0098425196850394
0
CIRCLE
8
BLACK
10
3.8857108661417321
20
-4.3032655118110235
40
0.0098425196850394
0
CIRCLE
8
BLACK
10
3.8857108661417321
20
-4.4368919685039367
40
0.0098425196850394
0
CIRCLE
8
BLACK
10
3.9133858267716533
20
-4.3700787401574805
40
0.0098425196850394
0
CIRCLE
8
BLACK
10
5.0236220472440944
20
-3.901574803149606
40
0.015748031496063
0
CIRCLE
8
BLACK
10
4.8844277952755908
20
-4.0407690551181101
40
0.015748031496063
0
CIRCLE
8
BLACK
10
3.7251968503937007
20
-3.5996062992125983
40
0.0688976377952756
0
CIRCLE
8
BLACK
10
3.8251968503937008
20
-2.9437007874015748
40
0.0216535433070866
0
CIRCLE
8
BLACK
10
3.7251968503937007
20
-2.9437007874015748
40
0.0216535433070866
0
CIRCLE
8
BLACK
10
3.6251968503937007
20
-2.9437007874015748
40
0.0216535433070866
0
CIRCLE
8
BLACK
10
3.7716535433070866
20
-4.1657480314960633
40
0.015748031496063
0
CIRCLE
8
BLACK
10
3.7716535433070866
20
-3.8657480314960631
40
0.015748031496063
0
CIRCLE
8
BLACK
10
5.4330708661417324
20
-4.4685039370078741
40
0.015748031496063
0
CIRCLE
8
BLACK
10
5.4330708661417324
20
-4.1685039370078742
40
0.015748031496063
0
CIRCLE
8
BLACK
10
4.1582677165354331
20
-2.8346456692913384
40
0.015748031496063
0
CIRCLE
8
BLACK
10
4.1582677165354331
20
-2.9724409448818898
40
0.015748031496063
0
CIRCLE
8
BLACK
10
6.0986220472440946
20
-2.6498031496062993
40
0.015748031496063
0
CIRCLE
8
BLACK
10
6.3986220472440944
20
-2.6498031496062993
40
0.015748031496063
0
CIRCLE
8
BLACK
10
4.9606299212598426
20
-4.4685039370078741
40
0.015748031496063
0
CIRCLE
8
BLACK
10
4.9606299212598426
20
-4.1685039370078742
40
0.015748031496063
0
CIRCLE
8
BLACK
10
5.2593503937007871
20
-4.3503937007874018
40
0.0118
0
CIRCLE
8
BLACK
10
5.1343503937007871
20
-4.3503937007874018
40
0.0118
0
CIRCLE
8
BLACK
10
4.8019685039370081
20
-2.9291338582677167
40
0.0688976377952756
0
CIRCLE
8
BLACK
10
5.4578740157480317
20
-3.0291338582677163
40
0.0216535433070866
0
CIRCLE
8
BLACK
10
5.4578740157480317
20
-2.9291338582677167
40
0.0216535433070866
0
CIRCLE
8
BLACK
10
5.4578740157480317
20
-2.8291338582677166
40
0.0216535433070866
0
CIRCLE
8
BLACK
10
10.0236220472440944
20
-2.5590551181102361
40
0.0098425196850394
0
CIRCLE
8
BLACK
10
10.051297007874016
20
-2.4922418897637795
40
0.0098425196850394
0
CIRCLE
8
BLACK
10
10.051297007874016
20
-2.6258683464566928
40
0.0098425196850394
0
CIRCLE
8
BLACK
10
10.1181102362204722
20
-2.4645669291338583
40
0.0098425196850394
0
CIRCLE
8
BLACK
10
10.1181102362204722
20
-2.5590551181102361
40
0.062992125984252
0
CIRCLE
8
BLACK
10
10.1181102362204722
20
-2.6535433070866139
40
0.0098425196850394
0
CIRCLE
8
BLACK
10
10.1849234645669284
20
-2.4922418897637795
40
0.0098425196850394
0
CIRCLE
8
BLACK
10
10.1849234645669284
20
-2.6258683464566928
40
0.0098425196850394
0
CIRCLE
8
BLACK
10
10.21259842519685
20
-2.5590551181102361
40
0.0098425196850394
0
CIRCLE
8
BLACK
10
9.2362204724409445
20
-4.3700787401574805
40
0.0098425196850394
0
CIRCLE
8
BLACK
10
9.263895433070866
20
-4.3032655118110235
40
0.0098425196850394
0
CIRCLE
8
BLACK
10
9.263895433070866
20
-4.4368919685039367
40
0.0098425196850394
0
CIRCLE
8
BLACK
10
9.3307086614173222
20
-4.2755905511811019
40
0.0098425196850394
0
CIRCLE
8
BLACK
10
9.3307086614173222
20
-4.3700787401574805
40
0.062992125984252
0
CIRCLE
8
BLACK
10
9.3307086614173222
20
-4.4645669291338583
40
0.0098425196850394
0
CIRCLE
8
BLACK
10
9.3975218897637784
20
-4.3032655118110235
40
0.0098425196850394
0
CIRCLE
8
BLACK
10
9.3975218897637784
20
-4.4368919685039367
40
0.0098425196850394
0
CIRCLE
8
BLACK
10
9.4251968503937
20
-4.3700787401574805
40
0.0098425196850394
0
CIRCLE
8
BLACK
10
2.8976377952755903
20
-2.5590551181102361
40
0.0098425196850394
0
CIRCLE
8
BLACK
10
2.9253127559055119
20
-2.4922418897637795
40
0.0098425196850394
0
CIRCLE
8
BLACK
10
2.9253127559055119
20
-2.6258683464566928
40
0.0098425196850394
0
CIRCLE
8
BLACK
10
2.9921259842519685
20
-2.4645669291338583
40
0.0098425196850394
0
CIRCLE
8
BLACK
10
2.9921259842519685
20
-2.5590551181102361
40
0.062992125984252
0
CIRCLE
8
BLACK
10
2.9921259842519685
20
-2.6535433070866139
40
0.0098425196850394
0
CIRCLE
8
BLACK
10
3.0589392125984252
20
-2.4922418897637795
40
0.0098425196850394
0
CIRCLE
8
BLACK
10
3.0589392125984252
20
-2.6258683464566928
40
0.0098425196850394
0
CIRCLE
8
BLACK
10
3.0866141732283463
20
-2.5590551181102361
40
0.0098425196850394
0
CIRCLE
8
BLACK
10
7.7165354330708658
20
-4.4685039370078741
40
0.015748031496063
0
CIRCLE
8
BLACK
10
7.7165354330708658
20
-4.1685039370078742
40
0.015748031496063
0
CIRCLE
8
BLACK
10
4.2023622047244089
20
-2.6181102362204722
40
0.0216535433070866
0
CIRCLE
8
BLACK
10
3.9023622047244095
20
-2.6181102362204722
40
0.0216535433070866
0
CIRCLE
8
BLACK
10
6.2634921259842518
20
-4.0545133858267715
40
0.0165
0
CIRCLE
8
BLACK
10
5.862492125984252
20
-4.0545133858267715
40
0.0165
0
CIRCLE
8
BLACK
10
5.8210921259842516
20
-4.1636133858267712
40
0.0165
0
CIRCLE
8
BLACK
10
5.8351921259842516
20
-4.2793133858267716
40
0.0165
0
CIRCLE
8
BLACK
10
5.9013921259842519
20
-4.3753133858267717
40
0.0165
0
CIRCLE
8
BLACK
10
6.0046921259842518
20
-4.4295133858267715
40
0.0165
0
CIRCLE
8
BLACK
10
6.1212921259842519
20
-4.4295133858267715
40
0.0165
0
CIRCLE
8
BLACK
10
6.2245921259842518
20
-4.3753133858267717
40
0.0165
0
CIRCLE
8
BLACK
10
6.2907921259842521
20
-4.2793133858267716
40
0.0165
0
CIRCLE
8
BLACK
10
6.3048921259842521
20
-4.1636133858267712
40
0.0165
0
CIRCLE
8
BLACK
10
6.0629921259842519
20
-3.9493133858267715
40
0.0165
0
CIRCLE
8
BLACK
10
5.9497921259842519
20
-3.9772133858267718
40
0.0165
0
CIRCLE
8
BLACK
10
6.1761921259842518
20
-3.9772133858267718
40
0.0165
0
CIRCLE
8
BLACK
10
6.0986220472440946
20
-2.7679133858267715
40
0.015748031496063
0
CIRCLE
8
BLACK
10
6.3986220472440944
20
-2.7679133858267715
40
0.015748031496063
0
CIRCLE
8
BLACK
10
9.8897637795275593
20
-2.8976377952755903
40
0.0433070866141732
0
CIRCLE
8
BLACK
10
9.8897637795275593
20
-3.3464566929133857
40
0.0433070866141732
0
CIRCLE
8
BLACK
10
9.5944881889763778
20
-3.0236220472440944
40
0.0196850393700787
0
CIRCLE
8
BLACK
10
9.5944881889763778
20
-3.2204724409448819
40
0.0196850393700787
0
CIRCLE
8
BLACK
10
9.5944881889763778
20
-3.122047244094488
40
0.0196850393700787
0
CIRCLE
8
BLACK
10
10.1653543307086611
20
-3.0236220472440944
40
0.0196850393700787
0
CIRCLE
8
BLACK
10
10.1653543307086611
20
-3.2204724409448819
40
0.0196850393700787
0
CIRCLE
8
BLACK
10
8.0152559055118111
20
-4.3503937007874018
40
0.0118
0
CIRCLE
8
BLACK
10
7.8902559055118111
20
-4.3503937007874018
40
0.0118
0
CIRCLE
8
BLACK
10
3.0501968503937009
20
-2.811023622047244
40
0.0196850393700787
0
CIRCLE
8
BLACK
10
2.9501968503937008
20
-2.811023622047244
40
0.0196850393700787
0
CIRCLE
8
BLACK
10
10.0430196850393703
20
-4.0545133858267715
40
0.0165
0
CIRCLE
8
BLACK
10
9.6420196850393705
20
-4.0545133858267715
40
0.0165
0
CIRCLE
8
BLACK
10
9.6006196850393692
20
-4.1636133858267712
40
0.0165
0
CIRCLE
8
BLACK
10
9.6147196850393701
20
-4.2793133858267716
40
0.0165
0
CIRCLE
8
BLACK
10
9.6809196850393704
20
-4.3753133858267717
40
0.0165
0
CIRCLE
8
BLACK
10
9.7842196850393695
20
-4.4295133858267715
40
0.0165
0
CIRCLE
8
BLACK
10
9.9008196850393695
20
-4.4295133858267715
40
0.0165
0
CIRCLE
8
BLACK
10
10.0041196850393703
20
-4.3753133858267717
40
0.0165
0
CIRCLE
8
BLACK
10
10.0703196850393706
20
-4.2793133858267716
40
0.0165
0
CIRCLE
8
BLACK
10
10.0844196850393697
20
-4.1636133858267712
40
0.0165
0
CIRCLE
8
BLACK
10
9.8425196850393704
20
-3.9493133858267715
40
0.0165
0
CIRCLE
8
BLACK
10
9.7293196850393695
20
-3.9772133858267718
40
0.0165
0
CIRCLE
8
BLACK
10
9.9557196850393694
20
-3.9772133858267718
40
0.0165
0
CIRCLE
8
BLACK
10
9.4893700787401567
20
-3.5314763779527558
40
0.015748031496063
0
CIRCLE
8
BLACK
10
9.7893700787401574
20
-3.5314763779527558
40
0.015748031496063
0
CIRCLE
8
BLACK
10
6.6181102362204722
20
-3.8385826771653542
40
0.015748031496063
0
CIRCLE
8
BLACK
10
6.4212598425196852
20
-3.8385826771653542
40
0.015748031496063
0
CIRCLE
8
BLACK
10
5.965551181102362
20
-2.8466535433070868
40
0.015748031496063
0
CIRCLE
8
BLACK
10
5.965551181102362
20
-2.6498031496062993
40
0.015748031496063
0
CIRCLE
8
BLACK
10
6.484251968503937
20
-3.2913385826771653
40
0.015748031496063
0
CIRCLE
8
BLACK
10
6.2874015748031491
20
-3.2913385826771653
40
0.015748031496063
0
CIRCLE
8
BLACK
10
6.6535433070866139
20
-4.4685039370078741
40
0.015748031496063
0
CIRCLE
8
BLACK
10
6.6535433070866139
20
-4.1685039370078742
40
0.015748031496063
0
CIRCLE
8
BLACK
10
3.2527559055118109
20
-3.3858267716535431
40
0.015748031496063
0
CIRCLE
8
BLACK
10
2.9527559055118111
20
-3.3858267716535431
40
0.015748031496063
0
CIRCLE
8
BLACK
10
5.965551181102362
20
-2.9403543307086615
40
0.015748031496063
0
CIRCLE
8
BLACK
10
5.965551181102362
20
-3.2403543307086613
40
0.015748031496063
0
CIRCLE
8
BLACK
10
5.5748031496062991
20
-3.0314960629921259
40
0.015748031496063
0
CIRCLE
8
BLACK
10
5.7716535433070861
20
-3.0314960629921259
40
0.015748031496063
0
CIRCLE
8
BLACK
10
9.091732283464566
20
-3.5314763779527558
40
0.015748031496063
0
CIRCLE
8
BLACK
10
9.3917322834645667
20
-3.5314763779527558
40
0.015748031496063
0
CIRCLE
8
BLACK
10
3.0362204724409447
20
-2.9330708661417324
40
0.015748031496063
0
CIRCLE
8
BLACK
10
3.0362204724409447
20
-3.1299212598425195
40
0.015748031496063
0
CIRCLE
8
BLACK
10
5.1574803149606296
20
-2.6419291338582678
40
0.0255905511811024
0
CIRCLE
8
BLACK
10
4.9574803149606295
20
-2.6419291338582678
40
0.0255905511811024
  0
ENDSEC
  0
EOF
