  0
SECTION
  2
HEADER
  9
$ANGBASE
  50
0.0
  9
$ANGDIR
  70
1
  9
$MEASUREMENT
  70
0
  0
ENDSEC
  0
SECTION
  2
TABLES
  0
TABLE
  2
LTYPE
  70
4
  0
LTYPE
  5
40F
  2
CONTINUOUS
  70
0
  3
Solid line
  72
65
  73
0
  40
0.0
  0
LTYPE
  5
410
  2
DASHDOT
 70
0
  3
Dash Dot ____ _ ____ _
 72
65
 73
4
 40
2.0
 49
1.25
 49
-0.25
 49
0.25
 49
-0.25
  0
LTYPE
  5
411
  2
DASHED
 70
0
  3
Dashed __ __ __ __ __
 72
65
 73
2
 40
0.75
 49
0.5
 49
-0.25
  0
LTYPE
  5
43B
  2
DOTTED
 70
0
  3
Dotted .  .  .  .
 72
65
 73
2
 40
0.2
 49
0.0
 49
-0.2
  0
ENDTAB
  0
TABLE
  2
STYLE
  70
4
  0
STYLE
  2
KICAD
  70
0
  40
0
  41
1
  42
1
  50
0
  71
0
  3
isocp.shx
  0
STYLE
  2
KICADB
  70
0
  40
0
  41
1
  42
1
  50
0
  71
0
  3
isocp.shx
  0
STYLE
  2
KICADI
  70
0
  40
0
  41
1
  42
1
  50
15
  71
0
  3
isocp.shx
  0
STYLE
  2
KICADBI
  70
0
  40
0
  41
1
  42
1
  50
15
  71
0
  3
isocp.shx
  0
ENDTAB
  0
TABLE
  2
LAYER
  70
1
  0
LAYER
  2
BLACK
  70
0
  62
7
  6
CONTINUOUS
  0
ENDTAB
  0
ENDSEC
  0
SECTION
  2
ENTITIES
0
LINE
8
BLACK
6
CONTINUOUS
10
10.1181102362204722
20
-2.3976377952755903
11
10.1330039370078744
21
-2.3983263779527557
0
LINE
8
BLACK
6
CONTINUOUS
10
10.1330039370078744
20
-2.3983263779527557
11
10.1477705905511808
21
-2.4003862204724409
0
LINE
8
BLACK
6
CONTINUOUS
10
10.1477705905511808
20
-2.4003862204724409
11
10.1622841732283469
21
-2.4037998031496062
0
LINE
8
BLACK
6
CONTINUOUS
10
10.1622841732283469
20
-2.4037998031496062
11
10.1764209055118116
21
-2.4085379527559057
0
LINE
8
BLACK
6
CONTINUOUS
10
10.1764209055118116
20
-2.4085379527559057
11
10.1900601181102353
21
-2.4145602755905511
0
LINE
8
BLACK
6
CONTINUOUS
10
10.1900601181102353
20
-2.4145602755905511
11
10.2030855118110235
21
-2.4218153543307088
0
LINE
8
BLACK
6
CONTINUOUS
10
10.2030855118110235
20
-2.4218153543307088
11
10.2153859055118108
21
-2.4302412992125983
0
LINE
8
BLACK
6
CONTINUOUS
10
10.2153859055118108
20
-2.4302412992125983
11
10.226856377952755
21
-2.4397662598425196
0
LINE
8
BLACK
6
CONTINUOUS
10
10.226856377952755
20
-2.4397662598425196
11
10.2373990944881879
21
-2.4503089763779529
0
LINE
8
BLACK
6
CONTINUOUS
10
10.2373990944881879
20
-2.4503089763779529
11
10.2469240551181109
21
-2.4617794488188975
0
LINE
8
BLACK
6
CONTINUOUS
10
10.2469240551181109
20
-2.4617794488188975
11
10.25535
21
-2.4740798425196848
0
LINE
8
BLACK
6
CONTINUOUS
10
10.25535
20
-2.4740798425196848
11
10.2626050787401564
21
-2.4871052362204722
0
LINE
8
BLACK
6
CONTINUOUS
10
10.2626050787401564
20
-2.4871052362204722
11
10.2686274015748022
21
-2.5007444488188977
0
LINE
8
BLACK
6
CONTINUOUS
10
10.2686274015748022
20
-2.5007444488188977
11
10.2733655511811026
21
-2.5148811811023624
0
LINE
8
BLACK
6
CONTINUOUS
10
10.2733655511811026
20
-2.5148811811023624
11
10.2767791338582679
21
-2.5293947637795275
0
LINE
8
BLACK
6
CONTINUOUS
10
10.2767791338582679
20
-2.5293947637795275
11
10.2788389763779531
21
-2.5441614173228344
0
LINE
8
BLACK
6
CONTINUOUS
10
10.2788389763779531
20
-2.5441614173228344
11
10.2795275590551185
21
-2.5590551181102361
0
LINE
8
BLACK
6
CONTINUOUS
10
10.2795275590551185
20
-2.5590551181102361
11
10.2795275590551185
21
-4.409448818897638
0
LINE
8
BLACK
6
CONTINUOUS
10
10.2795275590551185
20
-4.409448818897638
11
10.2788389763779531
21
-4.4243425196850392
0
LINE
8
BLACK
6
CONTINUOUS
10
10.2788389763779531
20
-4.4243425196850392
11
10.2767791338582679
21
-4.4391091732283465
0
LINE
8
BLACK
6
CONTINUOUS
10
10.2767791338582679
20
-4.4391091732283465
11
10.2733655511811026
21
-4.4536227559055117
0
LINE
8
BLACK
6
CONTINUOUS
10
10.2733655511811026
20
-4.4536227559055117
11
10.2686274015748022
21
-4.4677594881889764
0
LINE
8
BLACK
6
CONTINUOUS
10
10.2686274015748022
20
-4.4677594881889764
11
10.2626050787401564
21
-4.4813987007874019
0
LINE
8
BLACK
6
CONTINUOUS
10
10.2626050787401564
20
-4.4813987007874019
11
10.25535
21
-4.4944240944881892
0
LINE
8
BLACK
6
CONTINUOUS
10
10.25535
20
-4.4944240944881892
11
10.2469240551181109
21
-4.5067244881889765
0
LINE
8
BLACK
6
CONTINUOUS
10
10.2469240551181109
20
-4.5067244881889765
11
10.2373990944881879
21
-4.5181949606299208
0
LINE
8
BLACK
6
CONTINUOUS
10
10.2373990944881879
20
-4.5181949606299208
11
10.226856377952755
21
-4.5287376771653545
0
LINE
8
BLACK
6
CONTINUOUS
10
10.226856377952755
20
-4.5287376771653545
11
10.2153859055118108
21
-4.5382626377952757
0
LINE
8
BLACK
6
CONTINUOUS
10
10.2153859055118108
20
-4.5382626377952757
11
10.2030855118110235
21
-4.5466885826771657
0
LINE
8
BLACK
6
CONTINUOUS
10
10.2030855118110235
20
-4.5466885826771657
11
10.1900601181102353
21
-4.553943661417323
0
LINE
8
BLACK
6
CONTINUOUS
10
10.1900601181102353
20
-4.553943661417323
11
10.1764209055118116
21
-4.559965984251968
0
LINE
8
BLACK
6
CONTINUOUS
10
10.1764209055118116
20
-4.559965984251968
11
10.1622841732283469
21
-4.5647041338582675
0
LINE
8
BLACK
6
CONTINUOUS
10
10.1622841732283469
20
-4.5647041338582675
11
10.1477705905511808
21
-4.5681177165354327
0
LINE
8
BLACK
6
CONTINUOUS
10
10.1477705905511808
20
-4.5681177165354327
11
10.1330039370078744
21
-4.5701775590551179
0
LINE
8
BLACK
6
CONTINUOUS
10
10.1330039370078744
20
-4.5701775590551179
11
10.1181102362204722
21
-4.5708661417322833
0
LINE
8
BLACK
6
CONTINUOUS
10
10.1181102362204722
20
-4.5708661417322833
11
2.9921259842519685
21
-4.5708661417322833
0
LINE
8
BLACK
6
CONTINUOUS
10
2.9921259842519685
20
-4.5708661417322833
11
2.9772322834645668
21
-4.5701775590551179
0
LINE
8
BLACK
6
CONTINUOUS
10
2.9772322834645668
20
-4.5701775590551179
11
2.9624656299212599
21
-4.5681177165354327
0
LINE
8
BLACK
6
CONTINUOUS
10
2.9624656299212599
20
-4.5681177165354327
11
2.9479520472440943
21
-4.5647041338582675
0
LINE
8
BLACK
6
CONTINUOUS
10
2.9479520472440943
20
-4.5647041338582675
11
2.9338153149606296
21
-4.559965984251968
0
LINE
8
BLACK
6
CONTINUOUS
10
2.9338153149606296
20
-4.559965984251968
11
2.9201761023622046
21
-4.553943661417323
0
LINE
8
BLACK
6
CONTINUOUS
10
2.9201761023622046
20
-4.553943661417323
11
2.9071507086614172
21
-4.5466885826771657
0
LINE
8
BLACK
6
CONTINUOUS
10
2.9071507086614172
20
-4.5466885826771657
11
2.8948503149606299
21
-4.5382626377952757
0
LINE
8
BLACK
6
CONTINUOUS
10
2.8948503149606299
20
-4.5382626377952757
11
2.8833798425196848
21
-4.5287376771653545
0
LINE
8
BLACK
6
CONTINUOUS
10
2.8833798425196848
20
-4.5287376771653545
11
2.872837125984252
21
-4.5181949606299208
0
LINE
8
BLACK
6
CONTINUOUS
10
2.872837125984252
20
-4.5181949606299208
11
2.8633121653543308
21
-4.5067244881889765
0
LINE
8
BLACK
6
CONTINUOUS
10
2.8633121653543308
20
-4.5067244881889765
11
2.8548862204724408
21
-4.4944240944881892
0
LINE
8
BLACK
6
CONTINUOUS
10
2.8548862204724408
20
-4.4944240944881892
11
2.8476311417322835
21
-4.4813987007874019
0
LINE
8
BLACK
6
CONTINUOUS
10
2.8476311417322835
20
-4.4813987007874019
11
2.8416088188976376
21
-4.4677594881889764
0
LINE
8
BLACK
6
CONTINUOUS
10
2.8416088188976376
20
-4.4677594881889764
11
2.8368706692913386
21
-4.4536227559055117
0
LINE
8
BLACK
6
CONTINUOUS
10
2.8368706692913386
20
-4.4536227559055117
11
2.8334570866141733
21
-4.4391091732283465
0
LINE
8
BLACK
6
CONTINUOUS
10
2.8334570866141733
20
-4.4391091732283465
11
2.8313972440944881
21
-4.4243425196850392
0
LINE
8
BLACK
6
CONTINUOUS
10
2.8313972440944881
20
-4.4243425196850392
11
2.8307086614173227
21
-4.409448818897638
0
LINE
8
BLACK
6
CONTINUOUS
10
2.8307086614173227
20
-4.409448818897638
11
2.8307086614173227
21
-2.5590551181102361
0
LINE
8
BLACK
6
CONTINUOUS
10
2.8307086614173227
20
-2.5590551181102361
11
2.8313972440944881
21
-2.5441614173228344
0
LINE
8
BLACK
6
CONTINUOUS
10
2.8313972440944881
20
-2.5441614173228344
11
2.8334570866141733
21
-2.5293947637795275
0
LINE
8
BLACK
6
CONTINUOUS
10
2.8334570866141733
20
-2.5293947637795275
11
2.8368706692913386
21
-2.5148811811023624
0
LINE
8
BLACK
6
CONTINUOUS
10
2.8368706692913386
20
-2.5148811811023624
11
2.8416088188976376
21
-2.5007444488188977
0
LINE
8
BLACK
6
CONTINUOUS
10
2.8416088188976376
20
-2.5007444488188977
11
2.8476311417322835
21
-2.4871052362204722
0
LINE
8
BLACK
6
CONTINUOUS
10
2.8476311417322835
20
-2.4871052362204722
11
2.8548862204724408
21
-2.4740798425196848
0
LINE
8
BLACK
6
CONTINUOUS
10
2.8548862204724408
20
-2.4740798425196848
11
2.8633121653543308
21
-2.4617794488188975
0
LINE
8
BLACK
6
CONTINUOUS
10
2.8633121653543308
20
-2.4617794488188975
11
2.872837125984252
21
-2.4503089763779529
0
LINE
8
BLACK
6
CONTINUOUS
10
2.872837125984252
20
-2.4503089763779529
11
2.8833798425196848
21
-2.4397662598425196
0
LINE
8
BLACK
6
CONTINUOUS
10
2.8833798425196848
20
-2.4397662598425196
11
2.8948503149606299
21
-2.4302412992125983
0
LINE
8
BLACK
6
CONTINUOUS
10
2.8948503149606299
20
-2.4302412992125983
11
2.9071507086614172
21
-2.4218153543307088
0
LINE
8
BLACK
6
CONTINUOUS
10
2.9071507086614172
20
-2.4218153543307088
11
2.9201761023622046
21
-2.4145602755905511
0
LINE
8
BLACK
6
CONTINUOUS
10
2.9201761023622046
20
-2.4145602755905511
11
2.9338153149606296
21
-2.4085379527559057
0
LINE
8
BLACK
6
CONTINUOUS
10
2.9338153149606296
20
-2.4085379527559057
11
2.9479520472440943
21
-2.4037998031496062
0
LINE
8
BLACK
6
CONTINUOUS
10
2.9479520472440943
20
-2.4037998031496062
11
2.9624656299212599
21
-2.4003862204724409
0
LINE
8
BLACK
6
CONTINUOUS
10
2.9624656299212599
20
-2.4003862204724409
11
2.9772322834645668
21
-2.3983263779527557
0
LINE
8
BLACK
6
CONTINUOUS
10
2.9772322834645668
20
-2.3983263779527557
11
2.9921259842519685
21
-2.3976377952755903
0
LINE
8
BLACK
6
CONTINUOUS
10
2.9921259842519685
20
-2.3976377952755903
11
10.1181102362204722
21
-2.3976377952755903
0
LINE
8
BLACK
6
CONTINUOUS
10
2.9921259842519685
20
-2.4055118110236218
11
2.9850272440944883
21
-2.4055118110236218
0
LINE
8
BLACK
6
CONTINUOUS
10
2.9850272440944883
20
-2.4055118110236218
11
2.9708903543307086
21
-2.4068217716535432
0
LINE
8
BLACK
6
CONTINUOUS
10
2.9708903543307086
20
-2.4068217716535432
11
2.9569346062992126
21
-2.4094305511811025
0
LINE
8
BLACK
6
CONTINUOUS
10
2.9569346062992126
20
-2.4094305511811025
11
2.9432791338582676
21
-2.4133158661417324
0
LINE
8
BLACK
6
CONTINUOUS
10
2.9432791338582676
20
-2.4133158661417324
11
2.9300403543307088
21
-2.4184446062992127
0
LINE
8
BLACK
6
CONTINUOUS
10
2.9300403543307088
20
-2.4184446062992127
11
2.9173312992125982
21
-2.4247729527559057
0
LINE
8
BLACK
6
CONTINUOUS
10
2.9173312992125982
20
-2.4247729527559057
11
2.9052603937007873
21
-2.4322469685039367
0
LINE
8
BLACK
6
CONTINUOUS
10
2.9052603937007873
20
-2.4322469685039367
11
2.8939305511811022
21
-2.4408028346456692
0
LINE
8
BLACK
6
CONTINUOUS
10
2.8939305511811022
20
-2.4408028346456692
11
2.8834385039370076
21
-2.4503676377952757
0
LINE
8
BLACK
6
CONTINUOUS
10
2.8834385039370076
20
-2.4503676377952757
11
2.8738737007874016
21
-2.4608596850393698
0
LINE
8
BLACK
6
CONTINUOUS
10
2.8738737007874016
20
-2.4608596850393698
11
2.8653178346456691
21
-2.4721895275590549
0
LINE
8
BLACK
6
CONTINUOUS
10
2.8653178346456691
20
-2.4721895275590549
11
2.8578438188976376
21
-2.4842604330708662
0
LINE
8
BLACK
6
CONTINUOUS
10
2.8578438188976376
20
-2.4842604330708662
11
2.8515154724409446
21
-2.4969694881889763
0
LINE
8
BLACK
6
CONTINUOUS
10
2.8515154724409446
20
-2.4969694881889763
11
2.8463867322834644
21
-2.5102082677165352
0
LINE
8
BLACK
6
CONTINUOUS
10
2.8463867322834644
20
-2.5102082677165352
11
2.8425014173228345
21
-2.5238637401574802
0
LINE
8
BLACK
6
CONTINUOUS
10
2.8425014173228345
20
-2.5238637401574802
11
2.8398926377952756
21
-2.5378194881889762
0
LINE
8
BLACK
6
CONTINUOUS
10
2.8398926377952756
20
-2.5378194881889762
11
2.8385826771653542
21
-2.5519563779527559
0
LINE
8
BLACK
6
CONTINUOUS
10
2.8385826771653542
20
-2.5519563779527559
11
2.8385826771653542
21
-2.5590551181102361
0
LINE
8
BLACK
6
CONTINUOUS
10
2.8385826771653542
20
-2.5590551181102361
11
2.8385826771653542
21
-4.409448818897638
0
LINE
8
BLACK
6
CONTINUOUS
10
2.8385826771653542
20
-4.409448818897638
11
2.8385826771653542
21
-4.4165475590551182
0
LINE
8
BLACK
6
CONTINUOUS
10
2.8385826771653542
20
-4.4165475590551182
11
2.8398926377952756
21
-4.4306844488188979
0
LINE
8
BLACK
6
CONTINUOUS
10
2.8398926377952756
20
-4.4306844488188979
11
2.8425014173228345
21
-4.4446401968503935
0
LINE
8
BLACK
6
CONTINUOUS
10
2.8425014173228345
20
-4.4446401968503935
11
2.8463867322834644
21
-4.4582956692913385
0
LINE
8
BLACK
6
CONTINUOUS
10
2.8463867322834644
20
-4.4582956692913385
11
2.8515154724409446
21
-4.4715344488188977
0
LINE
8
BLACK
6
CONTINUOUS
10
2.8515154724409446
20
-4.4715344488188977
11
2.8578438188976376
21
-4.4842435039370079
0
LINE
8
BLACK
6
CONTINUOUS
10
2.8578438188976376
20
-4.4842435039370079
11
2.8653178346456691
21
-4.4963144094488188
0
LINE
8
BLACK
6
CONTINUOUS
10
2.8653178346456691
20
-4.4963144094488188
11
2.8738737007874016
21
-4.5076442519685038
0
LINE
8
BLACK
6
CONTINUOUS
10
2.8738737007874016
20
-4.5076442519685038
11
2.8834385039370076
21
-4.518136299212598
0
LINE
8
BLACK
6
CONTINUOUS
10
2.8834385039370076
20
-4.518136299212598
11
2.8939305511811022
21
-4.5277011023622045
0
LINE
8
BLACK
6
CONTINUOUS
10
2.8939305511811022
20
-4.5277011023622045
11
2.9052603937007873
21
-4.5362569685039373
0
LINE
8
BLACK
6
CONTINUOUS
10
2.9052603937007873
20
-4.5362569685039373
11
2.9173312992125982
21
-4.543730984251968
0
LINE
8
BLACK
6
CONTINUOUS
10
2.9173312992125982
20
-4.543730984251968
11
2.9300403543307088
21
-4.5500593307086614
0
LINE
8
BLACK
6
CONTINUOUS
10
2.9300403543307088
20
-4.5500593307086614
11
2.9432791338582676
21
-4.5551880708661416
0
LINE
8
BLACK
6
CONTINUOUS
10
2.9432791338582676
20
-4.5551880708661416
11
2.9569346062992126
21
-4.5590733858267711
0
LINE
8
BLACK
6
CONTINUOUS
10
2.9569346062992126
20
-4.5590733858267711
11
2.9708903543307086
21
-4.5616821653543305
0
LINE
8
BLACK
6
CONTINUOUS
10
2.9708903543307086
20
-4.5616821653543305
11
2.9850272440944883
21
-4.5629921259842519
0
LINE
8
BLACK
6
CONTINUOUS
10
2.9850272440944883
20
-4.5629921259842519
11
2.9921259842519685
21
-4.5629921259842519
0
LINE
8
BLACK
6
CONTINUOUS
10
2.9921259842519685
20
-4.5629921259842519
11
10.1181102362204722
21
-4.5629921259842519
0
LINE
8
BLACK
6
CONTINUOUS
10
10.1181102362204722
20
-4.5629921259842519
11
10.1252089763779534
21
-4.5629921259842519
0
LINE
8
BLACK
6
CONTINUOUS
10
10.1252089763779534
20
-4.5629921259842519
11
10.1393458661417313
21
-4.5616821653543305
0
LINE
8
BLACK
6
CONTINUOUS
10
10.1393458661417313
20
-4.5616821653543305
11
10.1533016141732286
21
-4.5590733858267711
0
LINE
8
BLACK
6
CONTINUOUS
10
10.1533016141732286
20
-4.5590733858267711
11
10.1669570866141736
21
-4.5551880708661416
0
LINE
8
BLACK
6
CONTINUOUS
10
10.1669570866141736
20
-4.5551880708661416
11
10.180195866141732
21
-4.5500593307086614
0
LINE
8
BLACK
6
CONTINUOUS
10
10.180195866141732
20
-4.5500593307086614
11
10.1929049212598422
21
-4.543730984251968
0
LINE
8
BLACK
6
CONTINUOUS
10
10.1929049212598422
20
-4.543730984251968
11
10.204975826771653
21
-4.5362569685039373
0
LINE
8
BLACK
6
CONTINUOUS
10
10.204975826771653
20
-4.5362569685039373
11
10.216305669291339
21
-4.5277011023622045
0
LINE
8
BLACK
6
CONTINUOUS
10
10.216305669291339
20
-4.5277011023622045
11
10.2267977165354331
21
-4.518136299212598
0
LINE
8
BLACK
6
CONTINUOUS
10
10.2267977165354331
20
-4.518136299212598
11
10.2363625196850396
21
-4.5076442519685038
0
LINE
8
BLACK
6
CONTINUOUS
10
10.2363625196850396
20
-4.5076442519685038
11
10.2449183858267716
21
-4.4963144094488188
0
LINE
8
BLACK
6
CONTINUOUS
10
10.2449183858267716
20
-4.4963144094488188
11
10.2523924015748022
21
-4.4842435039370079
0
LINE
8
BLACK
6
CONTINUOUS
10
10.2523924015748022
20
-4.4842435039370079
11
10.2587207480314966
21
-4.4715344488188977
0
LINE
8
BLACK
6
CONTINUOUS
10
10.2587207480314966
20
-4.4715344488188977
11
10.2638494881889759
21
-4.4582956692913385
0
LINE
8
BLACK
6
CONTINUOUS
10
10.2638494881889759
20
-4.4582956692913385
11
10.2677348031496063
21
-4.4446401968503935
0
LINE
8
BLACK
6
CONTINUOUS
10
10.2677348031496063
20
-4.4446401968503935
11
10.2703435826771656
21
-4.4306844488188979
0
LINE
8
BLACK
6
CONTINUOUS
10
10.2703435826771656
20
-4.4306844488188979
11
10.271653543307087
21
-4.4165475590551182
0
LINE
8
BLACK
6
CONTINUOUS
10
10.271653543307087
20
-4.4165475590551182
11
10.271653543307087
21
-4.409448818897638
0
LINE
8
BLACK
6
CONTINUOUS
10
10.271653543307087
20
-4.409448818897638
11
10.271653543307087
21
-2.5590551181102361
0
LINE
8
BLACK
6
CONTINUOUS
10
10.271653543307087
20
-2.5590551181102361
11
10.271653543307087
21
-2.5519563779527559
0
LINE
8
BLACK
6
CONTINUOUS
10
10.271653543307087
20
-2.5519563779527559
11
10.2703435826771656
21
-2.5378194881889762
0
LINE
8
BLACK
6
CONTINUOUS
10
10.2703435826771656
20
-2.5378194881889762
11
10.2677348031496063
21
-2.5238637401574802
0
LINE
8
BLACK
6
CONTINUOUS
10
10.2677348031496063
20
-2.5238637401574802
11
10.2638494881889759
21
-2.5102082677165352
0
LINE
8
BLACK
6
CONTINUOUS
10
10.2638494881889759
20
-2.5102082677165352
11
10.2587207480314966
21
-2.4969694881889763
0
LINE
8
BLACK
6
CONTINUOUS
10
10.2587207480314966
20
-2.4969694881889763
11
10.2523924015748022
21
-2.4842604330708662
0
LINE
8
BLACK
6
CONTINUOUS
10
10.2523924015748022
20
-2.4842604330708662
11
10.2449183858267716
21
-2.4721895275590549
0
LINE
8
BLACK
6
CONTINUOUS
10
10.2449183858267716
20
-2.4721895275590549
11
10.2363625196850396
21
-2.4608596850393698
0
LINE
8
BLACK
6
CONTINUOUS
10
10.2363625196850396
20
-2.4608596850393698
11
10.2267977165354331
21
-2.4503676377952757
0
LINE
8
BLACK
6
CONTINUOUS
10
10.2267977165354331
20
-2.4503676377952757
11
10.216305669291339
21
-2.4408028346456692
0
LINE
8
BLACK
6
CONTINUOUS
10
10.216305669291339
20
-2.4408028346456692
11
10.204975826771653
21
-2.4322469685039367
0
LINE
8
BLACK
6
CONTINUOUS
10
10.204975826771653
20
-2.4322469685039367
11
10.1929049212598422
21
-2.4247729527559057
0
LINE
8
BLACK
6
CONTINUOUS
10
10.1929049212598422
20
-2.4247729527559057
11
10.180195866141732
21
-2.4184446062992127
0
LINE
8
BLACK
6
CONTINUOUS
10
10.180195866141732
20
-2.4184446062992127
11
10.1669570866141736
21
-2.4133158661417324
0
LINE
8
BLACK
6
CONTINUOUS
10
10.1669570866141736
20
-2.4133158661417324
11
10.1533016141732286
21
-2.4094305511811025
0
LINE
8
BLACK
6
CONTINUOUS
10
10.1533016141732286
20
-2.4094305511811025
11
10.1393458661417313
21
-2.4068217716535432
0
LINE
8
BLACK
6
CONTINUOUS
10
10.1393458661417313
20
-2.4068217716535432
11
10.1252089763779534
21
-2.4055118110236218
0
LINE
8
BLACK
6
CONTINUOUS
10
10.1252089763779534
20
-2.4055118110236218
11
10.1181102362204722
21
-2.4055118110236218
0
LINE
8
BLACK
6
CONTINUOUS
10
10.1181102362204722
20
-2.4055118110236218
11
2.9921259842519685
21
-2.4055118110236218
0
CIRCLE
8
BLACK
10
6.622047244094488
20
-3.4244094488188974
40
0.015748031496063
0
CIRCLE
8
BLACK
10
6.5220472440944883
20
-3.4244094488188974
40
0.015748031496063
0
CIRCLE
8
BLACK
10
6.4220472440944878
20
-3.4244094488188974
40
0.015748031496063
0
CIRCLE
8
BLACK
10
6.3220472440944881
20
-3.4244094488188974
40
0.015748031496063
0
CIRCLE
8
BLACK
10
6.2220472440944876
20
-3.4244094488188974
40
0.015748031496063
0
CIRCLE
8
BLACK
10
6.122047244094488
20
-3.4244094488188974
40
0.015748031496063
0
CIRCLE
8
BLACK
10
6.0220472440944883
20
-3.4244094488188974
40
0.015748031496063
0
CIRCLE
8
BLACK
10
5.9220472440944878
20
-3.4244094488188974
40
0.015748031496063
0
CIRCLE
8
BLACK
10
5.9220472440944878
20
-3.7244094488188977
40
0.015748031496063
0
CIRCLE
8
BLACK
10
6.0220472440944883
20
-3.7244094488188977
40
0.015748031496063
0
CIRCLE
8
BLACK
10
6.122047244094488
20
-3.7244094488188977
40
0.015748031496063
0
CIRCLE
8
BLACK
10
6.2220472440944876
20
-3.7244094488188977
40
0.015748031496063
0
CIRCLE
8
BLACK
10
6.3220472440944881
20
-3.7244094488188977
40
0.015748031496063
0
CIRCLE
8
BLACK
10
6.4220472440944878
20
-3.7244094488188977
40
0.015748031496063
0
CIRCLE
8
BLACK
10
6.5220472440944883
20
-3.7244094488188977
40
0.015748031496063
0
CIRCLE
8
BLACK
10
6.622047244094488
20
-3.7244094488188977
40
0.015748031496063
0
CIRCLE
8
BLACK
10
4.2566929133858267
20
-3.3464566929133857
40
0.0196850393700787
0
CIRCLE
8
BLACK
10
4.1582677165354331
20
-3.2480314960629921
40
0.0196850393700787
0
CIRCLE
8
BLACK
10
4.0598425196850396
20
-3.3464566929133857
40
0.0196850393700787
0
CIRCLE
8
BLACK
10
4.5716535433070868
20
-2.6181102362204722
40
0.015748031496063
0
CIRCLE
8
BLACK
10
4.5716535433070868
20
-2.9181102362204725
40
0.015748031496063
0
CIRCLE
8
BLACK
10
4.5716535433070868
20
-3.4448818897637796
40
0.0236220472440945
0
CIRCLE
8
BLACK
10
4.5716535433070868
20
-3.0448818897637793
40
0.0236220472440945
0
CIRCLE
8
BLACK
10
3.5075866141732281
20
-4.0545133858267715
40
0.0165
0
CIRCLE
8
BLACK
10
3.1065866141732283
20
-4.0545133858267715
40
0.0165
0
CIRCLE
8
BLACK
10
3.0651866141732285
20
-4.1636133858267712
40
0.0165
0
CIRCLE
8
BLACK
10
3.0792866141732285
20
-4.2793133858267716
40
0.0165
0
CIRCLE
8
BLACK
10
3.1454866141732283
20
-4.3753133858267717
40
0.0165
0
CIRCLE
8
BLACK
10
3.2487866141732282
20
-4.4295133858267715
40
0.0165
0
CIRCLE
8
BLACK
10
3.3653866141732283
20
-4.4295133858267715
40
0.0165
0
CIRCLE
8
BLACK
10
3.4686866141732282
20
-4.3753133858267717
40
0.0165
0
CIRCLE
8
BLACK
10
3.5348866141732285
20
-4.2793133858267716
40
0.0165
0
CIRCLE
8
BLACK
10
3.5489866141732285
20
-4.1636133858267712
40
0.0165
0
CIRCLE
8
BLACK
10
3.3070866141732282
20
-3.9493133858267715
40
0.0165
0
CIRCLE
8
BLACK
10
3.1938866141732283
20
-3.9772133858267718
40
0.0165
0
CIRCLE
8
BLACK
10
3.4202866141732282
20
-3.9772133858267718
40
0.0165
0
CIRCLE
8
BLACK
10
9.2598425196850389
20
-3.2519685039370079
40
0.015748031496063
0
CIRCLE
8
BLACK
10
9.456692913385826
20
-3.2519685039370079
40
0.015748031496063
0
CIRCLE
8
BLACK
10
4.531208661417323
20
-4.0545133858267715
40
0.0165
0
CIRCLE
8
BLACK
10
4.1302086614173223
20
-4.0545133858267715
40
0.0165
0
CIRCLE
8
BLACK
10
4.0888086614173229
20
-4.1636133858267712
40
0.0165
0
CIRCLE
8
BLACK
10
4.1029086614173229
20
-4.2793133858267716
40
0.0165
0
CIRCLE
8
BLACK
10
4.1691086614173232
20
-4.3753133858267717
40
0.0165
0
CIRCLE
8
BLACK
10
4.2724086614173231
20
-4.4295133858267715
40
0.0165
0
CIRCLE
8
BLACK
10
4.3890086614173232
20
-4.4295133858267715
40
0.0165
0
CIRCLE
8
BLACK
10
4.4923086614173231
20
-4.3753133858267717
40
0.0165
0
CIRCLE
8
BLACK
10
4.5585086614173225
20
-4.2793133858267716
40
0.0165
0
CIRCLE
8
BLACK
10
4.5726086614173225
20
-4.1636133858267712
40
0.0165
0
CIRCLE
8
BLACK
10
4.3307086614173231
20
-3.9493133858267715
40
0.0165
0
CIRCLE
8
BLACK
10
4.2175086614173232
20
-3.9772133858267718
40
0.0165
0
CIRCLE
8
BLACK
10
4.4439086614173231
20
-3.9772133858267718
40
0.0165
0
CIRCLE
8
BLACK
10
7.7821955511811023
20
-3.8910327952755903
40
0.015748031496063
0
CIRCLE
8
BLACK
10
7.6430012992125986
20
-4.030227047244094
40
0.015748031496063
0
CIRCLE
8
BLACK
10
4.4141732283464563
20
-2.9181102362204725
40
0.015748031496063
0
CIRCLE
8
BLACK
10
4.4141732283464563
20
-2.6181102362204722
40
0.015748031496063
0
CIRCLE
8
BLACK
10
3.5283464566929132
20
-2.6181102362204722
40
0.0255905511811024
0
CIRCLE
8
BLACK
10
3.7251968503937007
20
-2.6181102362204722
40
0.0255905511811024
0
CIRCLE
8
BLACK
10
3.2724409448818896
20
-2.6181102362204722
40
0.015748031496063
0
CIRCLE
8
BLACK
10
3.2724409448818896
20
-2.7165354330708662
40
0.015748031496063
0
CIRCLE
8
BLACK
10
6.9645668897637796
20
-3.5964566929133857
40
0.0177165354330709
0
CIRCLE
8
BLACK
10
6.9645668897637796
20
-2.8090550787401574
40
0.0177165354330709
0
CIRCLE
8
BLACK
10
3.0559055118110234
20
-3.2480314960629921
40
0.015748031496063
0
CIRCLE
8
BLACK
10
2.9574803149606299
20
-3.2480314960629921
40
0.015748031496063
0
CIRCLE
8
BLACK
10
8.1889763779527556
20
-4.4685039370078741
40
0.015748031496063
0
CIRCLE
8
BLACK
10
8.1889763779527556
20
-4.1685039370078742
40
0.015748031496063
0
CIRCLE
8
BLACK
10
9.156692913385827
20
-2.8385826771653542
40
0.015748031496063
0
CIRCLE
8
BLACK
10
9.456692913385826
20
-2.8385826771653542
40
0.015748031496063
0
CIRCLE
8
BLACK
10
6.4960629921259843
20
-4.4685039370078741
40
0.015748031496063
0
CIRCLE
8
BLACK
10
6.4960629921259843
20
-4.1685039370078742
40
0.015748031496063
0
CIRCLE
8
BLACK
10
8.8425196850393704
20
-2.7795275590551181
40
0.015748031496063
0
CIRCLE
8
BLACK
10
8.7425196850393707
20
-2.7795275590551181
40
0.015748031496063
0
CIRCLE
8
BLACK
10
8.642519724409448
20
-2.7795275590551181
40
0.015748031496063
0
CIRCLE
8
BLACK
10
8.5425196850393696
20
-2.7795275590551181
40
0.015748031496063
0
CIRCLE
8
BLACK
10
8.44251968503937
20
-2.7795275590551181
40
0.015748031496063
0
CIRCLE
8
BLACK
10
8.3425196850393704
20
-2.7795275590551181
40
0.015748031496063
0
CIRCLE
8
BLACK
10
8.2425196850393707
20
-2.7795275590551181
40
0.015748031496063
0
CIRCLE
8
BLACK
10
8.1425196456692905
20
-2.7795275590551181
40
0.015748031496063
0
CIRCLE
8
BLACK
10
8.0425196850393696
20
-2.7795275590551181
40
0.015748031496063
0
CIRCLE
8
BLACK
10
7.94251968503937
20
-2.7795275590551181
40
0.015748031496063
0
CIRCLE
8
BLACK
10
7.8425196850393695
20
-2.7795275590551181
40
0.015748031496063
0
CIRCLE
8
BLACK
10
7.7425197244094486
20
-2.7795275590551181
40
0.015748031496063
0
CIRCLE
8
BLACK
10
7.6425196850393702
20
-2.7795275590551181
40
0.015748031496063
0
CIRCLE
8
BLACK
10
7.5425196850393696
20
-2.7795275590551181
40
0.015748031496063
0
CIRCLE
8
BLACK
10
7.5425196850393696
20
-3.0795275590551179
40
0.015748031496063
0
CIRCLE
8
BLACK
10
7.6425196850393702
20
-3.0795275590551179
40
0.015748031496063
0
CIRCLE
8
BLACK
10
7.7425196850393698
20
-3.0795275590551179
40
0.015748031496063
0
CIRCLE
8
BLACK
10
7.8425196850393695
20
-3.0795275590551179
40
0.015748031496063
0
CIRCLE
8
BLACK
10
7.94251968503937
20
-3.0795275590551179
40
0.015748031496063
0
CIRCLE
8
BLACK
10
8.0425196850393696
20
-3.0795275590551179
40
0.015748031496063
0
CIRCLE
8
BLACK
10
8.1425196850393693
20
-3.0795275590551179
40
0.015748031496063
0
CIRCLE
8
BLACK
10
8.2425196850393707
20
-3.0795275590551179
40
0.015748031496063
0
CIRCLE
8
BLACK
10
8.3425196850393704
20
-3.0795275590551179
40
0.015748031496063
0
CIRCLE
8
BLACK
10
8.44251968503937
20
-3.0795275590551179
40
0.015748031496063
0
CIRCLE
8
BLACK
10
8.5425196850393696
20
-3.0795275590551179
40
0.015748031496063
0
CIRCLE
8
BLACK
10
8.6425196850393693
20
-3.0795275590551179
40
0.015748031496063
0
CIRCLE
8
BLACK
10
8.7425196850393707
20
-3.0795275590551179
40
0.015748031496063
0
CIRCLE
8
BLACK
10
8.8425196850393704
20
-3.0795275590551179
40
0.015748031496063
0
CIRCLE
8
BLACK
10
9.8917322834645667
20
-3.5314763779527558
40
0.015748031496063
0
CIRCLE
8
BLACK
10
10.1917322834645674
20
-3.5314763779527558
40
0.015748031496063
0
CIRCLE
8
BLACK
10
3.2527559055118109
20
-3.5433070866141732
40
0.015748031496063
0
CIRCLE
8
BLACK
10
2.9527559055118111
20
-3.5433070866141732
40
0.015748031496063
0
CIRCLE
8
BLACK
10
5.2593503937007871
20
-4.0748031496062991
40
0.0118
0
CIRCLE
8
BLACK
10
5.1343503937007871
20
-4.0748031496062991
40
0.0118
0
CIRCLE
8
BLACK
10
9.156692913385827
20
-2.9763779527559056
40
0.015748031496063
0
CIRCLE
8
BLACK
10
9.456692913385826
20
-2.9763779527559056
40
0.015748031496063
0
CIRCLE
8
BLACK
10
3.3905511811023623
20
-3.3858267716535431
40
0.0147637795275591
0
CIRCLE
8
BLACK
10
3.3905511811023623
20
-3.4358267716535433
40
0.0147637795275591
0
CIRCLE
8
BLACK
10
3.3905511811023623
20
-3.4858267716535432
40
0.0147637795275591
0
CIRCLE
8
BLACK
10
3.8976377952755903
20
-4.1657480314960633
40
0.015748031496063
0
CIRCLE
8
BLACK
10
3.8976377952755903
20
-3.8657480314960631
40
0.015748031496063
0
CIRCLE
8
BLACK
10
9.0070866141732289
20
-3.015748031496063
40
0.015748031496063
0
CIRCLE
8
BLACK
10
9.0070866141732289
20
-2.8188976377952755
40
0.015748031496063
0
CIRCLE
8
BLACK
10
9.2519685039370074
20
-4.1657480314960633
40
0.015748031496063
0
CIRCLE
8
BLACK
10
9.2519685039370074
20
-3.8657480314960631
40
0.015748031496063
0
CIRCLE
8
BLACK
10
7.2871141732283462
20
-4.0545133858267715
40
0.0165
0
CIRCLE
8
BLACK
10
6.8861141732283464
20
-4.0545133858267715
40
0.0165
0
CIRCLE
8
BLACK
10
6.8447141732283461
20
-4.1636133858267712
40
0.0165
0
CIRCLE
8
BLACK
10
6.8588141732283461
20
-4.2793133858267716
40
0.0165
0
CIRCLE
8
BLACK
10
6.9250141732283463
20
-4.3753133858267717
40
0.0165
0
CIRCLE
8
BLACK
10
7.0283141732283463
20
-4.4295133858267715
40
0.0165
0
CIRCLE
8
BLACK
10
7.1449141732283463
20
-4.4295133858267715
40
0.0165
0
CIRCLE
8
BLACK
10
7.2482141732283463
20
-4.3753133858267717
40
0.0165
0
CIRCLE
8
BLACK
10
7.3144141732283465
20
-4.2793133858267716
40
0.0165
0
CIRCLE
8
BLACK
10
7.3285141732283465
20
-4.1636133858267712
40
0.0165
0
CIRCLE
8
BLACK
10
7.0866141732283463
20
-3.9493133858267715
40
0.0165
0
CIRCLE
8
BLACK
10
6.9734141732283463
20
-3.9772133858267718
40
0.0165
0
CIRCLE
8
BLACK
10
7.1998141732283463
20
-3.9772133858267718
40
0.0165
0
CIRCLE
8
BLACK
10
3.1496062992125982
20
-2.9527559055118111
40
0.015748031496063
0
CIRCLE
8
BLACK
10
3.1496062992125982
20
-3.0527559055118108
40
0.015748031496063
0
CIRCLE
8
BLACK
10
3.1496062992125982
20
-3.1527559055118108
40
0.015748031496063
0
CIRCLE
8
BLACK
10
3.1496062992125982
20
-3.2527559055118109
40
0.015748031496063
0
CIRCLE
8
BLACK
10
3.4496062992125984
20
-3.2527559055118109
40
0.015748031496063
0
CIRCLE
8
BLACK
10
3.4496062992125984
20
-3.1527559055118108
40
0.015748031496063
0
CIRCLE
8
BLACK
10
3.4496062992125984
20
-3.0527559055118108
40
0.015748031496063
0
CIRCLE
8
BLACK
10
3.4496062992125984
20
-2.9527559055118111
40
0.015748031496063
0
CIRCLE
8
BLACK
10
9.1614173228346463
20
-3.3897637795275588
40
0.015748031496063
0
CIRCLE
8
BLACK
10
9.4614173228346452
20
-3.3897637795275588
40
0.015748031496063
0
CIRCLE
8
BLACK
10
9.2598425196850389
20
-3.1141732283464565
40
0.015748031496063
0
CIRCLE
8
BLACK
10
9.456692913385826
20
-3.1141732283464565
40
0.015748031496063
0
CIRCLE
8
BLACK
10
8.0152559055118111
20
-4.0748031496062991
40
0.0118
0
CIRCLE
8
BLACK
10
7.8902559055118111
20
-4.0748031496062991
40
0.0118
0
CIRCLE
8
BLACK
10
10.1732283464566926
20
-3.6614173228346454
40
0.015748031496063
0
CIRCLE
8
BLACK
10
10.1732283464566926
20
-3.8582677165354329
40
0.015748031496063
0
CIRCLE
8
BLACK
10
4.4141732283464563
20
-3.3389763779527559
40
0.015748031496063
0
CIRCLE
8
BLACK
10
4.4141732283464563
20
-3.0389763779527557
40
0.015748031496063
0
CIRCLE
8
BLACK
10
5.5748031496062991
20
-2.8346456692913384
40
0.015748031496063
0
CIRCLE
8
BLACK
10
5.7716535433070861
20
-2.8346456692913384
40
0.015748031496063
0
CIRCLE
8
BLACK
10
9.4094488188976371
20
-4.1657480314960633
40
0.015748031496063
0
CIRCLE
8
BLACK
10
9.4094488188976371
20
-3.8657480314960631
40
0.015748031496063
0
CIRCLE
8
BLACK
10
9.0193976377952758
20
-4.0545133858267715
40
0.0165
0
CIRCLE
8
BLACK
10
8.618397637795276
20
-4.0545133858267715
40
0.0165
0
CIRCLE
8
BLACK
10
8.5769976377952748
20
-4.1636133858267712
40
0.0165
0
CIRCLE
8
BLACK
10
8.5910976377952757
20
-4.2793133858267716
40
0.0165
0
CIRCLE
8
BLACK
10
8.6572976377952759
20
-4.3753133858267717
40
0.0165
0
CIRCLE
8
BLACK
10
8.760597637795275
20
-4.4295133858267715
40
0.0165
0
CIRCLE
8
BLACK
10
8.877197637795275
20
-4.4295133858267715
40
0.0165
0
CIRCLE
8
BLACK
10
8.9804976377952759
20
-4.3753133858267717
40
0.0165
0
CIRCLE
8
BLACK
10
9.0466976377952761
20
-4.2793133858267716
40
0.0165
0
CIRCLE
8
BLACK
10
9.0607976377952753
20
-4.1636133858267712
40
0.0165
0
CIRCLE
8
BLACK
10
8.8188976377952759
20
-3.9493133858267715
40
0.0165
0
CIRCLE
8
BLACK
10
8.7056976377952751
20
-3.9772133858267718
40
0.0165
0
CIRCLE
8
BLACK
10
8.932097637795275
20
-3.9772133858267718
40
0.0165
0
CIRCLE
8
BLACK
10
3.7244094488188977
20
-4.3700787401574805
40
0.0098425196850394
0
CIRCLE
8
BLACK
10
3.7520844094488188
20
-4.3032655118110235
40
0.0098425196850394
0
CIRCLE
8
BLACK
10
3.7520844094488188
20
-4.4368919685039367
40
0.0098425196850394
0
CIRCLE
8
BLACK
10
3.8188976377952755
20
-4.2755905511811019
40
0.0098425196850394
0
CIRCLE
8
BLACK
10
3.8188976377952755
20
-4.3700787401574805
40
0.062992125984252
0
CIRCLE
8
BLACK
10
3.8188976377952755
20
-4.4645669291338583
40
0.0098425196850394
0
CIRCLE
8
BLACK
10
3.8857108661417321
20
-4.3032655118110235
40
0.0098425196850394
0
CIRCLE
8
BLACK
10
3.8857108661417321
20
-4.4368919685039367
40
0.0098425196850394
0
CIRCLE
8
BLACK
10
3.9133858267716533
20
-4.3700787401574805
40
0.0098425196850394
0
CIRCLE
8
BLACK
10
5.0236220472440944
20
-3.901574803149606
40
0.015748031496063
0
CIRCLE
8
BLACK
10
4.8844277952755908
20
-4.0407690551181101
40
0.015748031496063
0
CIRCLE
8
BLACK
10
3.7251968503937007
20
-3.5996062992125983
40
0.0688976377952756
0
CIRCLE
8
BLACK
10
3.8251968503937008
20
-2.9437007874015748
40
0.0216535433070866
0
CIRCLE
8
BLACK
10
3.7251968503937007
20
-2.9437007874015748
40
0.0216535433070866
0
CIRCLE
8
BLACK
10
3.6251968503937007
20
-2.9437007874015748
40
0.0216535433070866
0
CIRCLE
8
BLACK
10
3.7716535433070866
20
-4.1657480314960633
40
0.015748031496063
0
CIRCLE
8
BLACK
10
3.7716535433070866
20
-3.8657480314960631
40
0.015748031496063
0
CIRCLE
8
BLACK
10
5.4330708661417324
20
-4.4685039370078741
40
0.015748031496063
0
CIRCLE
8
BLACK
10
5.4330708661417324
20
-4.1685039370078742
40
0.015748031496063
0
CIRCLE
8
BLACK
10
4.1582677165354331
20
-2.8346456692913384
40
0.015748031496063
0
CIRCLE
8
BLACK
10
4.1582677165354331
20
-2.9724409448818898
40
0.015748031496063
0
CIRCLE
8
BLACK
10
6.0986220472440946
20
-2.6498031496062993
40
0.015748031496063
0
CIRCLE
8
BLACK
10
6.3986220472440944
20
-2.6498031496062993
40
0.015748031496063
0
CIRCLE
8
BLACK
10
4.9606299212598426
20
-4.4685039370078741
40
0.015748031496063
0
CIRCLE
8
BLACK
10
4.9606299212598426
20
-4.1685039370078742
40
0.015748031496063
0
CIRCLE
8
BLACK
10
5.2593503937007871
20
-4.3503937007874018
40
0.0118
0
CIRCLE
8
BLACK
10
5.1343503937007871
20
-4.3503937007874018
40
0.0118
0
CIRCLE
8
BLACK
10
4.8019685039370081
20
-2.9291338582677167
40
0.0688976377952756
0
CIRCLE
8
BLACK
10
5.4578740157480317
20
-3.0291338582677163
40
0.0216535433070866
0
CIRCLE
8
BLACK
10
5.4578740157480317
20
-2.9291338582677167
40
0.0216535433070866
0
CIRCLE
8
BLACK
10
5.4578740157480317
20
-2.8291338582677166
40
0.0216535433070866
0
CIRCLE
8
BLACK
10
10.0236220472440944
20
-2.5590551181102361
40
0.0098425196850394
0
CIRCLE
8
BLACK
10
10.051297007874016
20
-2.4922418897637795
40
0.0098425196850394
0
CIRCLE
8
BLACK
10
10.051297007874016
20
-2.6258683464566928
40
0.0098425196850394
0
CIRCLE
8
BLACK
10
10.1181102362204722
20
-2.4645669291338583
40
0.0098425196850394
0
CIRCLE
8
BLACK
10
10.1181102362204722
20
-2.5590551181102361
40
0.062992125984252
0
CIRCLE
8
BLACK
10
10.1181102362204722
20
-2.6535433070866139
40
0.0098425196850394
0
CIRCLE
8
BLACK
10
10.1849234645669284
20
-2.4922418897637795
40
0.0098425196850394
0
CIRCLE
8
BLACK
10
10.1849234645669284
20
-2.6258683464566928
40
0.0098425196850394
0
CIRCLE
8
BLACK
10
10.21259842519685
20
-2.5590551181102361
40
0.0098425196850394
0
CIRCLE
8
BLACK
10
9.2362204724409445
20
-4.3700787401574805
40
0.0098425196850394
0
CIRCLE
8
BLACK
10
9.263895433070866
20
-4.3032655118110235
40
0.0098425196850394
0
CIRCLE
8
BLACK
10
9.263895433070866
20
-4.4368919685039367
40
0.0098425196850394
0
CIRCLE
8
BLACK
10
9.3307086614173222
20
-4.2755905511811019
40
0.0098425196850394
0
CIRCLE
8
BLACK
10
9.3307086614173222
20
-4.3700787401574805
40
0.062992125984252
0
CIRCLE
8
BLACK
10
9.3307086614173222
20
-4.4645669291338583
40
0.0098425196850394
0
CIRCLE
8
BLACK
10
9.3975218897637784
20
-4.3032655118110235
40
0.0098425196850394
0
CIRCLE
8
BLACK
10
9.3975218897637784
20
-4.4368919685039367
40
0.0098425196850394
0
CIRCLE
8
BLACK
10
9.4251968503937
20
-4.3700787401574805
40
0.0098425196850394
0
CIRCLE
8
BLACK
10
2.8976377952755903
20
-2.5590551181102361
40
0.0098425196850394
0
CIRCLE
8
BLACK
10
2.9253127559055119
20
-2.4922418897637795
40
0.0098425196850394
0
CIRCLE
8
BLACK
10
2.9253127559055119
20
-2.6258683464566928
40
0.0098425196850394
0
CIRCLE
8
BLACK
10
2.9921259842519685
20
-2.4645669291338583
40
0.0098425196850394
0
CIRCLE
8
BLACK
10
2.9921259842519685
20
-2.5590551181102361
40
0.062992125984252
0
CIRCLE
8
BLACK
10
2.9921259842519685
20
-2.6535433070866139
40
0.0098425196850394
0
CIRCLE
8
BLACK
10
3.0589392125984252
20
-2.4922418897637795
40
0.0098425196850394
0
CIRCLE
8
BLACK
10
3.0589392125984252
20
-2.6258683464566928
40
0.0098425196850394
0
CIRCLE
8
BLACK
10
3.0866141732283463
20
-2.5590551181102361
40
0.0098425196850394
0
CIRCLE
8
BLACK
10
7.7165354330708658
20
-4.4685039370078741
40
0.015748031496063
0
CIRCLE
8
BLACK
10
7.7165354330708658
20
-4.1685039370078742
40
0.015748031496063
0
CIRCLE
8
BLACK
10
4.2023622047244089
20
-2.6181102362204722
40
0.0216535433070866
0
CIRCLE
8
BLACK
10
3.9023622047244095
20
-2.6181102362204722
40
0.0216535433070866
0
CIRCLE
8
BLACK
10
6.2634921259842518
20
-4.0545133858267715
40
0.0165
0
CIRCLE
8
BLACK
10
5.862492125984252
20
-4.0545133858267715
40
0.0165
0
CIRCLE
8
BLACK
10
5.8210921259842516
20
-4.1636133858267712
40
0.0165
0
CIRCLE
8
BLACK
10
5.8351921259842516
20
-4.2793133858267716
40
0.0165
0
CIRCLE
8
BLACK
10
5.9013921259842519
20
-4.3753133858267717
40
0.0165
0
CIRCLE
8
BLACK
10
6.0046921259842518
20
-4.4295133858267715
40
0.0165
0
CIRCLE
8
BLACK
10
6.1212921259842519
20
-4.4295133858267715
40
0.0165
0
CIRCLE
8
BLACK
10
6.2245921259842518
20
-4.3753133858267717
40
0.0165
0
CIRCLE
8
BLACK
10
6.2907921259842521
20
-4.2793133858267716
40
0.0165
0
CIRCLE
8
BLACK
10
6.3048921259842521
20
-4.1636133858267712
40
0.0165
0
CIRCLE
8
BLACK
10
6.0629921259842519
20
-3.9493133858267715
40
0.0165
0
CIRCLE
8
BLACK
10
5.9497921259842519
20
-3.9772133858267718
40
0.0165
0
CIRCLE
8
BLACK
10
6.1761921259842518
20
-3.9772133858267718
40
0.0165
0
CIRCLE
8
BLACK
10
6.0986220472440946
20
-2.7679133858267715
40
0.015748031496063
0
CIRCLE
8
BLACK
10
6.3986220472440944
20
-2.7679133858267715
40
0.015748031496063
0
CIRCLE
8
BLACK
10
9.8897637795275593
20
-2.8976377952755903
40
0.0433070866141732
0
CIRCLE
8
BLACK
10
9.8897637795275593
20
-3.3464566929133857
40
0.0433070866141732
0
CIRCLE
8
BLACK
10
9.5944881889763778
20
-3.0236220472440944
40
0.0196850393700787
0
CIRCLE
8
BLACK
10
9.5944881889763778
20
-3.2204724409448819
40
0.0196850393700787
0
CIRCLE
8
BLACK
10
9.5944881889763778
20
-3.122047244094488
40
0.0196850393700787
0
CIRCLE
8
BLACK
10
10.1653543307086611
20
-3.0236220472440944
40
0.0196850393700787
0
CIRCLE
8
BLACK
10
10.1653543307086611
20
-3.2204724409448819
40
0.0196850393700787
0
CIRCLE
8
BLACK
10
8.0152559055118111
20
-4.3503937007874018
40
0.0118
0
CIRCLE
8
BLACK
10
7.8902559055118111
20
-4.3503937007874018
40
0.0118
0
CIRCLE
8
BLACK
10
3.0501968503937009
20
-2.811023622047244
40
0.0196850393700787
0
CIRCLE
8
BLACK
10
2.9501968503937008
20
-2.811023622047244
40
0.0196850393700787
0
CIRCLE
8
BLACK
10
10.0430196850393703
20
-4.0545133858267715
40
0.0165
0
CIRCLE
8
BLACK
10
9.6420196850393705
20
-4.0545133858267715
40
0.0165
0
CIRCLE
8
BLACK
10
9.6006196850393692
20
-4.1636133858267712
40
0.0165
0
CIRCLE
8
BLACK
10
9.6147196850393701
20
-4.2793133858267716
40
0.0165
0
CIRCLE
8
BLACK
10
9.6809196850393704
20
-4.3753133858267717
40
0.0165
0
CIRCLE
8
BLACK
10
9.7842196850393695
20
-4.4295133858267715
40
0.0165
0
CIRCLE
8
BLACK
10
9.9008196850393695
20
-4.4295133858267715
40
0.0165
0
CIRCLE
8
BLACK
10
10.0041196850393703
20
-4.3753133858267717
40
0.0165
0
CIRCLE
8
BLACK
10
10.0703196850393706
20
-4.2793133858267716
40
0.0165
0
CIRCLE
8
BLACK
10
10.0844196850393697
20
-4.1636133858267712
40
0.0165
0
CIRCLE
8
BLACK
10
9.8425196850393704
20
-3.9493133858267715
40
0.0165
0
CIRCLE
8
BLACK
10
9.7293196850393695
20
-3.9772133858267718
40
0.0165
0
CIRCLE
8
BLACK
10
9.9557196850393694
20
-3.9772133858267718
40
0.0165
0
CIRCLE
8
BLACK
10
9.4893700787401567
20
-3.5314763779527558
40
0.015748031496063
0
CIRCLE
8
BLACK
10
9.7893700787401574
20
-3.5314763779527558
40
0.015748031496063
0
CIRCLE
8
BLACK
10
6.6181102362204722
20
-3.8385826771653542
40
0.015748031496063
0
CIRCLE
8
BLACK
10
6.4212598425196852
20
-3.8385826771653542
40
0.015748031496063
0
CIRCLE
8
BLACK
10
5.965551181102362
20
-2.8466535433070868
40
0.015748031496063
0
CIRCLE
8
BLACK
10
5.965551181102362
20
-2.6498031496062993
40
0.015748031496063
0
CIRCLE
8
BLACK
10
6.484251968503937
20
-3.2913385826771653
40
0.015748031496063
0
CIRCLE
8
BLACK
10
6.2874015748031491
20
-3.2913385826771653
40
0.015748031496063
0
CIRCLE
8
BLACK
10
6.6535433070866139
20
-4.4685039370078741
40
0.015748031496063
0
CIRCLE
8
BLACK
10
6.6535433070866139
20
-4.1685039370078742
40
0.015748031496063
0
CIRCLE
8
BLACK
10
3.2527559055118109
20
-3.3858267716535431
40
0.015748031496063
0
CIRCLE
8
BLACK
10
2.9527559055118111
20
-3.3858267716535431
40
0.015748031496063
0
CIRCLE
8
BLACK
10
5.965551181102362
20
-2.9403543307086615
40
0.015748031496063
0
CIRCLE
8
BLACK
10
5.965551181102362
20
-3.2403543307086613
40
0.015748031496063
0
CIRCLE
8
BLACK
10
5.5748031496062991
20
-3.0314960629921259
40
0.015748031496063
0
CIRCLE
8
BLACK
10
5.7716535433070861
20
-3.0314960629921259
40
0.015748031496063
0
CIRCLE
8
BLACK
10
9.091732283464566
20
-3.5314763779527558
40
0.015748031496063
0
CIRCLE
8
BLACK
10
9.3917322834645667
20
-3.5314763779527558
40
0.015748031496063
0
CIRCLE
8
BLACK
10
3.0362204724409447
20
-2.9330708661417324
40
0.015748031496063
0
CIRCLE
8
BLACK
10
3.0362204724409447
20
-3.1299212598425195
40
0.015748031496063
0
CIRCLE
8
BLACK
10
5.1574803149606296
20
-2.6419291338582678
40
0.0255905511811024
0
CIRCLE
8
BLACK
10
4.9574803149606295
20
-2.6419291338582678
40
0.0255905511811024
  0
ENDSEC
  0
EOF
