  0
SECTION
  2
HEADER
  9
$ANGBASE
  50
0.0
  9
$ANGDIR
  70
1
  9
$MEASUREMENT
  70
0
  0
ENDSEC
  0
SECTION
  2
TABLES
  0
TABLE
  2
LTYPE
  70
4
  0
LTYPE
  5
40F
  2
CONTINUOUS
  70
0
  3
Solid line
  72
65
  73
0
  40
0.0
  0
LTYPE
  5
410
  2
DASHDOT
 70
0
  3
Dash Dot ____ _ ____ _
 72
65
 73
4
 40
2.0
 49
1.25
 49
-0.25
 49
0.25
 49
-0.25
  0
LTYPE
  5
411
  2
DASHED
 70
0
  3
Dashed __ __ __ __ __
 72
65
 73
2
 40
0.75
 49
0.5
 49
-0.25
  0
LTYPE
  5
43B
  2
DOTTED
 70
0
  3
Dotted .  .  .  .
 72
65
 73
2
 40
0.2
 49
0.0
 49
-0.2
  0
ENDTAB
  0
TABLE
  2
STYLE
  70
4
  0
STYLE
  2
KICAD
  70
0
  40
0
  41
1
  42
1
  50
0
  71
0
  3
isocp.shx
  0
STYLE
  2
KICADB
  70
0
  40
0
  41
1
  42
1
  50
0
  71
0
  3
isocp.shx
  0
STYLE
  2
KICADI
  70
0
  40
0
  41
1
  42
1
  50
15
  71
0
  3
isocp.shx
  0
STYLE
  2
KICADBI
  70
0
  40
0
  41
1
  42
1
  50
15
  71
0
  3
isocp.shx
  0
ENDTAB
  0
TABLE
  2
LAYER
  70
1
  0
LAYER
  2
BLACK
  70
0
  62
7
  6
CONTINUOUS
  0
ENDTAB
  0
ENDSEC
  0
SECTION
  2
ENTITIES
0
LINE
8
BLACK
6
CONTINUOUS
10
5.167897992125984
20
-3.8152191338582675
11
5.1261397244094491
21
-3.8569774015748028
0
LINE
8
BLACK
6
CONTINUOUS
10
5.1261397244094491
20
-3.8569774015748028
11
5.1116635039370077
21
-3.8425011811023619
0
LINE
8
BLACK
6
CONTINUOUS
10
5.1116635039370077
20
-3.8425011811023619
11
5.1534217716535435
21
-3.8007429133858266
0
LINE
8
BLACK
6
CONTINUOUS
10
5.1534217716535435
20
-3.8007429133858266
11
5.167897992125984
21
-3.8152191338582675
0
LINE
8
BLACK
6
CONTINUOUS
10
5.2820372834645672
20
-3.8425011811023619
11
5.2675610629921259
21
-3.8569774015748028
0
LINE
8
BLACK
6
CONTINUOUS
10
5.2675610629921259
20
-3.8569774015748028
11
5.2258027952755901
21
-3.8152191338582675
0
LINE
8
BLACK
6
CONTINUOUS
10
5.2258027952755901
20
-3.8152191338582675
11
5.2402790157480315
21
-3.8007429133858266
0
LINE
8
BLACK
6
CONTINUOUS
10
5.2402790157480315
20
-3.8007429133858266
11
5.2820372834645672
21
-3.8425011811023619
0
LINE
8
BLACK
6
CONTINUOUS
10
7.9238035039370081
20
-3.8094464960629919
11
7.8820452362204723
21
-3.8512047637795273
0
LINE
8
BLACK
6
CONTINUOUS
10
7.8820452362204723
20
-3.8512047637795273
11
7.8675690157480309
21
-3.8367285433070863
0
LINE
8
BLACK
6
CONTINUOUS
10
7.8675690157480309
20
-3.8367285433070863
11
7.9093272834645667
21
-3.794970275590551
0
LINE
8
BLACK
6
CONTINUOUS
10
7.9093272834645667
20
-3.794970275590551
11
7.9238035039370081
21
-3.8094464960629919
0
LINE
8
BLACK
6
CONTINUOUS
10
8.0379427952755904
20
-3.8367285433070863
11
8.02346657480315
21
-3.8512047637795273
0
LINE
8
BLACK
6
CONTINUOUS
10
8.02346657480315
20
-3.8512047637795273
11
7.9817083070866142
21
-3.8094464960629919
0
LINE
8
BLACK
6
CONTINUOUS
10
7.9817083070866142
20
-3.8094464960629919
11
7.9961845275590546
21
-3.794970275590551
0
LINE
8
BLACK
6
CONTINUOUS
10
7.9961845275590546
20
-3.794970275590551
11
8.0379427952755904
21
-3.8367285433070863
0
LINE
8
BLACK
6
CONTINUOUS
10
5.1456269291338579
20
-3.7929480708661418
11
5.103868661417323
21
-3.8347063385826772
0
LINE
8
BLACK
6
CONTINUOUS
10
5.103868661417323
20
-3.8347063385826772
11
5.0893924409448816
21
-3.8202301181102363
0
LINE
8
BLACK
6
CONTINUOUS
10
5.0893924409448816
20
-3.8202301181102363
11
5.1311507086614174
21
-3.7784718503937005
0
LINE
8
BLACK
6
CONTINUOUS
10
5.1311507086614174
20
-3.7784718503937005
11
5.1456269291338579
21
-3.7929480708661418
0
LINE
8
BLACK
6
CONTINUOUS
10
5.3043083464566925
20
-3.8202301181102363
11
5.289832125984252
21
-3.8347063385826772
0
LINE
8
BLACK
6
CONTINUOUS
10
5.289832125984252
20
-3.8347063385826772
11
5.2480738582677162
21
-3.7929480708661418
0
LINE
8
BLACK
6
CONTINUOUS
10
5.2480738582677162
20
-3.7929480708661418
11
5.2625500787401576
21
-3.7784718503937005
0
LINE
8
BLACK
6
CONTINUOUS
10
5.2625500787401576
20
-3.7784718503937005
11
5.3043083464566925
21
-3.8202301181102363
0
LINE
8
BLACK
6
CONTINUOUS
10
7.9015324409448819
20
-3.7871754330708662
11
7.8597741732283462
21
-3.8289337007874016
0
LINE
8
BLACK
6
CONTINUOUS
10
7.8597741732283462
20
-3.8289337007874016
11
7.8452979527559057
21
-3.8144574803149607
0
LINE
8
BLACK
6
CONTINUOUS
10
7.8452979527559057
20
-3.8144574803149607
11
7.8870562204724406
21
-3.7726992125984249
0
LINE
8
BLACK
6
CONTINUOUS
10
7.8870562204724406
20
-3.7726992125984249
11
7.9015324409448819
21
-3.7871754330708662
0
LINE
8
BLACK
6
CONTINUOUS
10
8.0602138582677156
20
-3.8144574803149607
11
8.0457376377952752
21
-3.8289337007874016
0
LINE
8
BLACK
6
CONTINUOUS
10
8.0457376377952752
20
-3.8289337007874016
11
8.0039793700787403
21
-3.7871754330708662
0
LINE
8
BLACK
6
CONTINUOUS
10
8.0039793700787403
20
-3.7871754330708662
11
8.0184555905511807
21
-3.7726992125984249
0
LINE
8
BLACK
6
CONTINUOUS
10
8.0184555905511807
20
-3.7726992125984249
11
8.0602138582677156
21
-3.8144574803149607
0
LINE
8
BLACK
6
CONTINUOUS
10
5.123355826771653
20
-3.770676968503937
11
5.0815975590551181
21
-3.8124352362204723
0
LINE
8
BLACK
6
CONTINUOUS
10
5.0815975590551181
20
-3.8124352362204723
11
5.0671213385826768
21
-3.7979590157480314
0
LINE
8
BLACK
6
CONTINUOUS
10
5.0671213385826768
20
-3.7979590157480314
11
5.1088796062992126
21
-3.7562007480314961
0
LINE
8
BLACK
6
CONTINUOUS
10
5.1088796062992126
20
-3.7562007480314961
11
5.123355826771653
21
-3.770676968503937
0
LINE
8
BLACK
6
CONTINUOUS
10
5.3265794488188973
20
-3.7979590157480314
11
5.3121032283464569
21
-3.8124352362204723
0
LINE
8
BLACK
6
CONTINUOUS
10
5.3121032283464569
20
-3.8124352362204723
11
5.2703449606299211
21
-3.770676968503937
0
LINE
8
BLACK
6
CONTINUOUS
10
5.2703449606299211
20
-3.770676968503937
11
5.2848211811023624
21
-3.7562007480314961
0
LINE
8
BLACK
6
CONTINUOUS
10
5.2848211811023624
20
-3.7562007480314961
11
5.3265794488188973
21
-3.7979590157480314
0
LINE
8
BLACK
6
CONTINUOUS
10
7.8792613385826771
20
-3.7649043307086614
11
7.8375030708661413
21
-3.8066625984251967
0
LINE
8
BLACK
6
CONTINUOUS
10
7.8375030708661413
20
-3.8066625984251967
11
7.8230268503937008
21
-3.7921863779527558
0
LINE
8
BLACK
6
CONTINUOUS
10
7.8230268503937008
20
-3.7921863779527558
11
7.8647851181102357
21
-3.7504281102362205
0
LINE
8
BLACK
6
CONTINUOUS
10
7.8647851181102357
20
-3.7504281102362205
11
7.8792613385826771
21
-3.7649043307086614
0
LINE
8
BLACK
6
CONTINUOUS
10
8.0824849606299214
20
-3.7921863779527558
11
8.0680087401574809
21
-3.8066625984251967
0
LINE
8
BLACK
6
CONTINUOUS
10
8.0680087401574809
20
-3.8066625984251967
11
8.0262504724409443
21
-3.7649043307086614
0
LINE
8
BLACK
6
CONTINUOUS
10
8.0262504724409443
20
-3.7649043307086614
11
8.0407266929133865
21
-3.7504281102362205
0
LINE
8
BLACK
6
CONTINUOUS
10
8.0407266929133865
20
-3.7504281102362205
11
8.0824849606299214
21
-3.7921863779527558
0
LINE
8
BLACK
6
CONTINUOUS
10
5.1010847637795278
20
-3.7484059055118109
11
5.059326496062992
21
-3.7901641732283462
0
LINE
8
BLACK
6
CONTINUOUS
10
5.059326496062992
20
-3.7901641732283462
11
5.0448502755905507
21
-3.7756879527559053
0
LINE
8
BLACK
6
CONTINUOUS
10
5.0448502755905507
20
-3.7756879527559053
11
5.0866085433070864
21
-3.73392968503937
0
LINE
8
BLACK
6
CONTINUOUS
10
5.0866085433070864
20
-3.73392968503937
11
5.1010847637795278
21
-3.7484059055118109
0
LINE
8
BLACK
6
CONTINUOUS
10
5.3488505118110234
20
-3.7756879527559053
11
5.334374291338583
21
-3.7901641732283462
0
LINE
8
BLACK
6
CONTINUOUS
10
5.334374291338583
20
-3.7901641732283462
11
5.2926160236220472
21
-3.7484059055118109
0
LINE
8
BLACK
6
CONTINUOUS
10
5.2926160236220472
20
-3.7484059055118109
11
5.3070922440944877
21
-3.73392968503937
0
LINE
8
BLACK
6
CONTINUOUS
10
5.3070922440944877
20
-3.73392968503937
11
5.3488505118110234
21
-3.7756879527559053
0
LINE
8
BLACK
6
CONTINUOUS
10
7.856990275590551
20
-3.7426332677165353
11
7.8152320078740152
21
-3.7843915354330706
0
LINE
8
BLACK
6
CONTINUOUS
10
7.8152320078740152
20
-3.7843915354330706
11
7.8007557874015747
21
-3.7699153149606297
0
LINE
8
BLACK
6
CONTINUOUS
10
7.8007557874015747
20
-3.7699153149606297
11
7.8425140551181096
21
-3.7281570472440944
0
LINE
8
BLACK
6
CONTINUOUS
10
7.8425140551181096
20
-3.7281570472440944
11
7.856990275590551
21
-3.7426332677165353
0
LINE
8
BLACK
6
CONTINUOUS
10
8.1047560236220466
20
-3.7699153149606297
11
8.0902798031496062
21
-3.7843915354330706
0
LINE
8
BLACK
6
CONTINUOUS
10
8.0902798031496062
20
-3.7843915354330706
11
8.0485215354330713
21
-3.7426332677165353
0
LINE
8
BLACK
6
CONTINUOUS
10
8.0485215354330713
20
-3.7426332677165353
11
8.0629977559055117
21
-3.7281570472440944
0
LINE
8
BLACK
6
CONTINUOUS
10
8.0629977559055117
20
-3.7281570472440944
11
8.1047560236220466
21
-3.7699153149606297
0
LINE
8
BLACK
6
CONTINUOUS
10
5.0788136614173229
20
-3.7261348031496064
11
5.0370553937007871
21
-3.7678930708661418
0
LINE
8
BLACK
6
CONTINUOUS
10
5.0370553937007871
20
-3.7678930708661418
11
5.0225791732283467
21
-3.7534168503937009
0
LINE
8
BLACK
6
CONTINUOUS
10
5.0225791732283467
20
-3.7534168503937009
11
5.0643374409448816
21
-3.7116585826771651
0
LINE
8
BLACK
6
CONTINUOUS
10
5.0643374409448816
20
-3.7116585826771651
11
5.0788136614173229
21
-3.7261348031496064
0
LINE
8
BLACK
6
CONTINUOUS
10
5.3711216141732283
20
-3.7534168503937009
11
5.356645393700787
21
-3.7678930708661418
0
LINE
8
BLACK
6
CONTINUOUS
10
5.356645393700787
20
-3.7678930708661418
11
5.3148871259842521
21
-3.7261348031496064
0
LINE
8
BLACK
6
CONTINUOUS
10
5.3148871259842521
20
-3.7261348031496064
11
5.3293633464566925
21
-3.7116585826771651
0
LINE
8
BLACK
6
CONTINUOUS
10
5.3293633464566925
20
-3.7116585826771651
11
5.3711216141732283
21
-3.7534168503937009
0
LINE
8
BLACK
6
CONTINUOUS
10
7.8347191732283461
20
-3.7203621653543308
11
7.7929609055118112
21
-3.7621204330708662
0
LINE
8
BLACK
6
CONTINUOUS
10
7.7929609055118112
20
-3.7621204330708662
11
7.7784846850393699
21
-3.7476442125984253
0
LINE
8
BLACK
6
CONTINUOUS
10
7.7784846850393699
20
-3.7476442125984253
11
7.8202429527559056
21
-3.7058859448818895
0
LINE
8
BLACK
6
CONTINUOUS
10
7.8202429527559056
20
-3.7058859448818895
11
7.8347191732283461
21
-3.7203621653543308
0
LINE
8
BLACK
6
CONTINUOUS
10
8.1270271259842524
20
-3.7476442125984253
11
8.1125509055118101
21
-3.7621204330708662
0
LINE
8
BLACK
6
CONTINUOUS
10
8.1125509055118101
20
-3.7621204330708662
11
8.0707926377952752
21
-3.7203621653543308
0
LINE
8
BLACK
6
CONTINUOUS
10
8.0707926377952752
20
-3.7203621653543308
11
8.0852688582677157
21
-3.7058859448818895
0
LINE
8
BLACK
6
CONTINUOUS
10
8.0852688582677157
20
-3.7058859448818895
11
8.1270271259842524
21
-3.7476442125984253
0
LINE
8
BLACK
6
CONTINUOUS
10
5.0565425984251968
20
-3.7038637401574803
11
5.014784330708661
21
-3.7456220078740157
0
LINE
8
BLACK
6
CONTINUOUS
10
5.014784330708661
20
-3.7456220078740157
11
5.0003081102362206
21
-3.7311457874015748
0
LINE
8
BLACK
6
CONTINUOUS
10
5.0003081102362206
20
-3.7311457874015748
11
5.0420663779527555
21
-3.6893875196850394
0
LINE
8
BLACK
6
CONTINUOUS
10
5.0420663779527555
20
-3.6893875196850394
11
5.0565425984251968
21
-3.7038637401574803
0
LINE
8
BLACK
6
CONTINUOUS
10
5.3933926771653544
20
-3.7311457874015748
11
5.3789164566929131
21
-3.7456220078740157
0
LINE
8
BLACK
6
CONTINUOUS
10
5.3789164566929131
20
-3.7456220078740157
11
5.3371581889763782
21
-3.7038637401574803
0
LINE
8
BLACK
6
CONTINUOUS
10
5.3371581889763782
20
-3.7038637401574803
11
5.3516344094488186
21
-3.6893875196850394
0
LINE
8
BLACK
6
CONTINUOUS
10
5.3516344094488186
20
-3.6893875196850394
11
5.3933926771653544
21
-3.7311457874015748
0
LINE
8
BLACK
6
CONTINUOUS
10
7.81244811023622
20
-3.6980911023622047
11
7.7706898425196851
21
-3.7398493700787401
0
LINE
8
BLACK
6
CONTINUOUS
10
7.7706898425196851
20
-3.7398493700787401
11
7.7562136220472437
21
-3.7253731496062992
0
LINE
8
BLACK
6
CONTINUOUS
10
7.7562136220472437
20
-3.7253731496062992
11
7.7979718897637795
21
-3.6836148818897638
0
LINE
8
BLACK
6
CONTINUOUS
10
7.7979718897637795
20
-3.6836148818897638
11
7.81244811023622
21
-3.6980911023622047
0
LINE
8
BLACK
6
CONTINUOUS
10
8.1492981889763776
20
-3.7253731496062992
11
8.1348219685039371
21
-3.7398493700787401
0
LINE
8
BLACK
6
CONTINUOUS
10
8.1348219685039371
20
-3.7398493700787401
11
8.0930637007874022
21
-3.6980911023622047
0
LINE
8
BLACK
6
CONTINUOUS
10
8.0930637007874022
20
-3.6980911023622047
11
8.1075399212598427
21
-3.6836148818897638
0
LINE
8
BLACK
6
CONTINUOUS
10
8.1075399212598427
20
-3.6836148818897638
11
8.1492981889763776
21
-3.7253731496062992
0
LINE
8
BLACK
6
CONTINUOUS
10
5.0342715354330707
20
-3.6815926771653542
11
4.9925132677165349
21
-3.7233509448818896
0
LINE
8
BLACK
6
CONTINUOUS
10
4.9925132677165349
20
-3.7233509448818896
11
4.9780370472440945
21
-3.7088747244094487
0
LINE
8
BLACK
6
CONTINUOUS
10
4.9780370472440945
20
-3.7088747244094487
11
5.0197953149606303
21
-3.6671164566929133
0
LINE
8
BLACK
6
CONTINUOUS
10
5.0197953149606303
20
-3.6671164566929133
11
5.0342715354330707
21
-3.6815926771653542
0
LINE
8
BLACK
6
CONTINUOUS
10
5.4156637401574805
20
-3.7088747244094487
11
5.4011875196850392
21
-3.7233509448818896
0
LINE
8
BLACK
6
CONTINUOUS
10
5.4011875196850392
20
-3.7233509448818896
11
5.3594292519685034
21
-3.6815926771653542
0
LINE
8
BLACK
6
CONTINUOUS
10
5.3594292519685034
20
-3.6815926771653542
11
5.3739054724409447
21
-3.6671164566929133
0
LINE
8
BLACK
6
CONTINUOUS
10
5.3739054724409447
20
-3.6671164566929133
11
5.4156637401574805
21
-3.7088747244094487
0
LINE
8
BLACK
6
CONTINUOUS
10
7.7901770472440939
20
-3.6758200393700786
11
7.748418779527559
21
-3.717578307086614
0
LINE
8
BLACK
6
CONTINUOUS
10
7.748418779527559
20
-3.717578307086614
11
7.7339425590551176
21
-3.7031020866141731
0
LINE
8
BLACK
6
CONTINUOUS
10
7.7339425590551176
20
-3.7031020866141731
11
7.7757008267716534
21
-3.6613438188976377
0
LINE
8
BLACK
6
CONTINUOUS
10
7.7757008267716534
20
-3.6613438188976377
11
7.7901770472440939
21
-3.6758200393700786
0
LINE
8
BLACK
6
CONTINUOUS
10
8.1715692519685046
20
-3.7031020866141731
11
8.1570930314960624
21
-3.717578307086614
0
LINE
8
BLACK
6
CONTINUOUS
10
8.1570930314960624
20
-3.717578307086614
11
8.1153347637795274
21
-3.6758200393700786
0
LINE
8
BLACK
6
CONTINUOUS
10
8.1153347637795274
20
-3.6758200393700786
11
8.1298109842519679
21
-3.6613438188976377
0
LINE
8
BLACK
6
CONTINUOUS
10
8.1298109842519679
20
-3.6613438188976377
11
8.1715692519685046
21
-3.7031020866141731
0
LINE
8
BLACK
6
CONTINUOUS
10
5.0120004330708658
20
-3.6593215748031493
11
4.9702421653543309
21
-3.7010798425196851
0
LINE
8
BLACK
6
CONTINUOUS
10
4.9702421653543309
20
-3.7010798425196851
11
4.9557659448818896
21
-3.6866036220472438
0
LINE
8
BLACK
6
CONTINUOUS
10
4.9557659448818896
20
-3.6866036220472438
11
4.9975242125984254
21
-3.6448453543307084
0
LINE
8
BLACK
6
CONTINUOUS
10
4.9975242125984254
20
-3.6448453543307084
11
5.0120004330708658
21
-3.6593215748031493
0
LINE
8
BLACK
6
CONTINUOUS
10
5.4379348425196845
20
-3.6866036220472438
11
5.423458622047244
21
-3.7010798425196851
0
LINE
8
BLACK
6
CONTINUOUS
10
5.423458622047244
20
-3.7010798425196851
11
5.3817003543307083
21
-3.6593215748031493
0
LINE
8
BLACK
6
CONTINUOUS
10
5.3817003543307083
20
-3.6593215748031493
11
5.3961765748031496
21
-3.6448453543307084
0
LINE
8
BLACK
6
CONTINUOUS
10
5.3961765748031496
20
-3.6448453543307084
11
5.4379348425196845
21
-3.6866036220472438
0
LINE
8
BLACK
6
CONTINUOUS
10
7.7679059448818899
20
-3.6535489370078738
11
7.7261476771653541
21
-3.6953072047244095
0
LINE
8
BLACK
6
CONTINUOUS
10
7.7261476771653541
20
-3.6953072047244095
11
7.7116714566929137
21
-3.6808309842519686
0
LINE
8
BLACK
6
CONTINUOUS
10
7.7116714566929137
20
-3.6808309842519686
11
7.7534297244094486
21
-3.6390727165354328
0
LINE
8
BLACK
6
CONTINUOUS
10
7.7534297244094486
20
-3.6390727165354328
11
7.7679059448818899
21
-3.6535489370078738
0
LINE
8
BLACK
6
CONTINUOUS
10
8.1938403543307086
20
-3.6808309842519686
11
8.1793641338582681
21
-3.6953072047244095
0
LINE
8
BLACK
6
CONTINUOUS
10
8.1793641338582681
20
-3.6953072047244095
11
8.1376058661417314
21
-3.6535489370078738
0
LINE
8
BLACK
6
CONTINUOUS
10
8.1376058661417314
20
-3.6535489370078738
11
8.1520820866141737
21
-3.6390727165354328
0
LINE
8
BLACK
6
CONTINUOUS
10
8.1520820866141737
20
-3.6390727165354328
11
8.1938403543307086
21
-3.6808309842519686
0
LINE
8
BLACK
6
CONTINUOUS
10
4.9897293700787397
20
-3.6370505118110237
11
4.9479711023622048
21
-3.678808779527559
0
LINE
8
BLACK
6
CONTINUOUS
10
4.9479711023622048
20
-3.678808779527559
11
4.9334948818897635
21
-3.6643325590551181
0
LINE
8
BLACK
6
CONTINUOUS
10
4.9334948818897635
20
-3.6643325590551181
11
4.9752531496062993
21
-3.6225742913385828
0
LINE
8
BLACK
6
CONTINUOUS
10
4.9752531496062993
20
-3.6225742913385828
11
4.9897293700787397
21
-3.6370505118110237
0
LINE
8
BLACK
6
CONTINUOUS
10
5.4602059055118106
20
-3.6643325590551181
11
5.4457296850393702
21
-3.678808779527559
0
LINE
8
BLACK
6
CONTINUOUS
10
5.4457296850393702
20
-3.678808779527559
11
5.4039714173228344
21
-3.6370505118110237
0
LINE
8
BLACK
6
CONTINUOUS
10
5.4039714173228344
20
-3.6370505118110237
11
5.4184476377952757
21
-3.6225742913385828
0
LINE
8
BLACK
6
CONTINUOUS
10
5.4184476377952757
20
-3.6225742913385828
11
5.4602059055118106
21
-3.6643325590551181
0
LINE
8
BLACK
6
CONTINUOUS
10
7.7456348818897638
20
-3.6312778740157481
11
7.703876614173228
21
-3.6730361417322834
0
LINE
8
BLACK
6
CONTINUOUS
10
7.703876614173228
20
-3.6730361417322834
11
7.6894003937007875
21
-3.6585599212598425
0
LINE
8
BLACK
6
CONTINUOUS
10
7.6894003937007875
20
-3.6585599212598425
11
7.7311586614173224
21
-3.6168016535433072
0
LINE
8
BLACK
6
CONTINUOUS
10
7.7311586614173224
20
-3.6168016535433072
11
7.7456348818897638
21
-3.6312778740157481
0
LINE
8
BLACK
6
CONTINUOUS
10
8.2161114173228338
20
-3.6585599212598425
11
8.2016351968503933
21
-3.6730361417322834
0
LINE
8
BLACK
6
CONTINUOUS
10
8.2016351968503933
20
-3.6730361417322834
11
8.1598769291338584
21
-3.6312778740157481
0
LINE
8
BLACK
6
CONTINUOUS
10
8.1598769291338584
20
-3.6312778740157481
11
8.1743531496062989
21
-3.6168016535433072
0
LINE
8
BLACK
6
CONTINUOUS
10
8.1743531496062989
20
-3.6168016535433072
11
8.2161114173228338
21
-3.6585599212598425
0
LINE
8
BLACK
6
CONTINUOUS
10
4.9674582677165358
20
-3.6147794094488188
11
4.9257
21
-3.6565376771653542
0
LINE
8
BLACK
6
CONTINUOUS
10
4.9257
20
-3.6565376771653542
11
4.9112237795275586
21
-3.6420614566929133
0
LINE
8
BLACK
6
CONTINUOUS
10
4.9112237795275586
20
-3.6420614566929133
11
4.9529820472440944
21
-3.6003031889763779
0
LINE
8
BLACK
6
CONTINUOUS
10
4.9529820472440944
20
-3.6003031889763779
11
4.9674582677165358
21
-3.6147794094488188
0
LINE
8
BLACK
6
CONTINUOUS
10
5.4824770078740155
20
-3.6420614566929133
11
5.468000787401575
21
-3.6565376771653542
0
LINE
8
BLACK
6
CONTINUOUS
10
5.468000787401575
20
-3.6565376771653542
11
5.4262425196850392
21
-3.6147794094488188
0
LINE
8
BLACK
6
CONTINUOUS
10
5.4262425196850392
20
-3.6147794094488188
11
5.4407187401574806
21
-3.6003031889763779
0
LINE
8
BLACK
6
CONTINUOUS
10
5.4407187401574806
20
-3.6003031889763779
11
5.4824770078740155
21
-3.6420614566929133
0
LINE
8
BLACK
6
CONTINUOUS
10
7.7233637795275589
20
-3.6090067716535432
11
7.6816055118110231
21
-3.6507650393700786
0
LINE
8
BLACK
6
CONTINUOUS
10
7.6816055118110231
20
-3.6507650393700786
11
7.6671292913385827
21
-3.6362888188976377
0
LINE
8
BLACK
6
CONTINUOUS
10
7.6671292913385827
20
-3.6362888188976377
11
7.7088875590551176
21
-3.5945305511811023
0
LINE
8
BLACK
6
CONTINUOUS
10
7.7088875590551176
20
-3.5945305511811023
11
7.7233637795275589
21
-3.6090067716535432
0
LINE
8
BLACK
6
CONTINUOUS
10
8.2383825196850395
20
-3.6362888188976377
11
8.2239062992125991
21
-3.6507650393700786
0
LINE
8
BLACK
6
CONTINUOUS
10
8.2239062992125991
20
-3.6507650393700786
11
8.1821480314960624
21
-3.6090067716535432
0
LINE
8
BLACK
6
CONTINUOUS
10
8.1821480314960624
20
-3.6090067716535432
11
8.1966242519685046
21
-3.5945305511811023
0
LINE
8
BLACK
6
CONTINUOUS
10
8.1966242519685046
20
-3.5945305511811023
11
8.2383825196850395
21
-3.6362888188976377
0
LINE
8
BLACK
6
CONTINUOUS
10
4.9451872047244096
20
-3.5925083464566927
11
4.9034289370078739
21
-3.634266614173228
0
LINE
8
BLACK
6
CONTINUOUS
10
4.9034289370078739
20
-3.634266614173228
11
4.8889527165354334
21
-3.6197903937007871
0
LINE
8
BLACK
6
CONTINUOUS
10
4.8889527165354334
20
-3.6197903937007871
11
4.9307109842519683
21
-3.5780321259842518
0
LINE
8
BLACK
6
CONTINUOUS
10
4.9307109842519683
20
-3.5780321259842518
11
4.9451872047244096
21
-3.5925083464566927
0
LINE
8
BLACK
6
CONTINUOUS
10
5.5047480708661416
20
-3.6197903937007871
11
5.4902718503937002
21
-3.634266614173228
0
LINE
8
BLACK
6
CONTINUOUS
10
5.4902718503937002
20
-3.634266614173228
11
5.4485135826771653
21
-3.5925083464566927
0
LINE
8
BLACK
6
CONTINUOUS
10
5.4485135826771653
20
-3.5925083464566927
11
5.4629898031496058
21
-3.5780321259842518
0
LINE
8
BLACK
6
CONTINUOUS
10
5.4629898031496058
20
-3.5780321259842518
11
5.5047480708661416
21
-3.6197903937007871
0
LINE
8
BLACK
6
CONTINUOUS
10
7.7010927165354328
20
-3.5867357086614171
11
7.659334448818897
21
-3.6284939763779525
0
LINE
8
BLACK
6
CONTINUOUS
10
7.659334448818897
20
-3.6284939763779525
11
7.6448582283464566
21
-3.6140177559055116
0
LINE
8
BLACK
6
CONTINUOUS
10
7.6448582283464566
20
-3.6140177559055116
11
7.6866164960629924
21
-3.5722594881889762
0
LINE
8
BLACK
6
CONTINUOUS
10
7.6866164960629924
20
-3.5722594881889762
11
7.7010927165354328
21
-3.5867357086614171
0
LINE
8
BLACK
6
CONTINUOUS
10
8.2606535826771648
20
-3.6140177559055116
11
8.2461773622047243
21
-3.6284939763779525
0
LINE
8
BLACK
6
CONTINUOUS
10
8.2461773622047243
20
-3.6284939763779525
11
8.2044190944881894
21
-3.5867357086614171
0
LINE
8
BLACK
6
CONTINUOUS
10
8.2044190944881894
20
-3.5867357086614171
11
8.2188953149606299
21
-3.5722594881889762
0
LINE
8
BLACK
6
CONTINUOUS
10
8.2188953149606299
20
-3.5722594881889762
11
8.2606535826771648
21
-3.6140177559055116
0
LINE
8
BLACK
6
CONTINUOUS
10
4.9451872047244096
20
-3.5056511023622048
11
4.9307109842519683
21
-3.5201273228346457
0
LINE
8
BLACK
6
CONTINUOUS
10
4.9307109842519683
20
-3.5201273228346457
11
4.8889527165354334
21
-3.4783690551181103
0
LINE
8
BLACK
6
CONTINUOUS
10
4.8889527165354334
20
-3.4783690551181103
11
4.9034289370078739
21
-3.463892834645669
0
LINE
8
BLACK
6
CONTINUOUS
10
4.9034289370078739
20
-3.463892834645669
11
4.9451872047244096
21
-3.5056511023622048
0
LINE
8
BLACK
6
CONTINUOUS
10
5.5047480708661416
20
-3.4783690551181103
11
5.4629898031496058
21
-3.5201273228346457
0
LINE
8
BLACK
6
CONTINUOUS
10
5.4629898031496058
20
-3.5201273228346457
11
5.4485135826771653
21
-3.5056511023622048
0
LINE
8
BLACK
6
CONTINUOUS
10
5.4485135826771653
20
-3.5056511023622048
11
5.4902718503937002
21
-3.463892834645669
0
LINE
8
BLACK
6
CONTINUOUS
10
5.4902718503937002
20
-3.463892834645669
11
5.5047480708661416
21
-3.4783690551181103
0
LINE
8
BLACK
6
CONTINUOUS
10
7.7010927165354328
20
-3.4998784645669292
11
7.6866164960629924
21
-3.5143546850393701
0
LINE
8
BLACK
6
CONTINUOUS
10
7.6866164960629924
20
-3.5143546850393701
11
7.6448582283464566
21
-3.4725964173228347
0
LINE
8
BLACK
6
CONTINUOUS
10
7.6448582283464566
20
-3.4725964173228347
11
7.659334448818897
21
-3.4581201968503934
0
LINE
8
BLACK
6
CONTINUOUS
10
7.659334448818897
20
-3.4581201968503934
11
7.7010927165354328
21
-3.4998784645669292
0
LINE
8
BLACK
6
CONTINUOUS
10
8.2606535826771648
20
-3.4725964173228347
11
8.2188953149606299
21
-3.5143546850393701
0
LINE
8
BLACK
6
CONTINUOUS
10
8.2188953149606299
20
-3.5143546850393701
11
8.2044190944881894
21
-3.4998784645669292
0
LINE
8
BLACK
6
CONTINUOUS
10
8.2044190944881894
20
-3.4998784645669292
11
8.2461773622047243
21
-3.4581201968503934
0
LINE
8
BLACK
6
CONTINUOUS
10
8.2461773622047243
20
-3.4581201968503934
11
8.2606535826771648
21
-3.4725964173228347
0
LINE
8
BLACK
6
CONTINUOUS
10
4.9674582677165358
20
-3.4833800393700787
11
4.9529820472440944
21
-3.4978562598425196
0
LINE
8
BLACK
6
CONTINUOUS
10
4.9529820472440944
20
-3.4978562598425196
11
4.9112237795275586
21
-3.4560979921259842
0
LINE
8
BLACK
6
CONTINUOUS
10
4.9112237795275586
20
-3.4560979921259842
11
4.9257
21
-3.4416217716535433
0
LINE
8
BLACK
6
CONTINUOUS
10
4.9257
20
-3.4416217716535433
11
4.9674582677165358
21
-3.4833800393700787
0
LINE
8
BLACK
6
CONTINUOUS
10
5.4824770078740155
20
-3.4560979921259842
11
5.4407187401574806
21
-3.4978562598425196
0
LINE
8
BLACK
6
CONTINUOUS
10
5.4407187401574806
20
-3.4978562598425196
11
5.4262425196850392
21
-3.4833800393700787
0
LINE
8
BLACK
6
CONTINUOUS
10
5.4262425196850392
20
-3.4833800393700787
11
5.468000787401575
21
-3.4416217716535433
0
LINE
8
BLACK
6
CONTINUOUS
10
5.468000787401575
20
-3.4416217716535433
11
5.4824770078740155
21
-3.4560979921259842
0
LINE
8
BLACK
6
CONTINUOUS
10
7.7233637795275589
20
-3.4776074015748031
11
7.7088875590551176
21
-3.492083622047244
0
LINE
8
BLACK
6
CONTINUOUS
10
7.7088875590551176
20
-3.492083622047244
11
7.6671292913385827
21
-3.4503253543307086
0
LINE
8
BLACK
6
CONTINUOUS
10
7.6671292913385827
20
-3.4503253543307086
11
7.6816055118110231
21
-3.4358491338582677
0
LINE
8
BLACK
6
CONTINUOUS
10
7.6816055118110231
20
-3.4358491338582677
11
7.7233637795275589
21
-3.4776074015748031
0
LINE
8
BLACK
6
CONTINUOUS
10
8.2383825196850395
20
-3.4503253543307086
11
8.1966242519685046
21
-3.492083622047244
0
LINE
8
BLACK
6
CONTINUOUS
10
8.1966242519685046
20
-3.492083622047244
11
8.1821480314960624
21
-3.4776074015748031
0
LINE
8
BLACK
6
CONTINUOUS
10
8.1821480314960624
20
-3.4776074015748031
11
8.2239062992125991
21
-3.4358491338582677
0
LINE
8
BLACK
6
CONTINUOUS
10
8.2239062992125991
20
-3.4358491338582677
11
8.2383825196850395
21
-3.4503253543307086
0
LINE
8
BLACK
6
CONTINUOUS
10
4.9897293700787397
20
-3.4611089370078738
11
4.9752531496062993
21
-3.4755851574803147
0
LINE
8
BLACK
6
CONTINUOUS
10
4.9752531496062993
20
-3.4755851574803147
11
4.9334948818897635
21
-3.4338268897637794
0
LINE
8
BLACK
6
CONTINUOUS
10
4.9334948818897635
20
-3.4338268897637794
11
4.9479711023622048
21
-3.4193506692913385
0
LINE
8
BLACK
6
CONTINUOUS
10
4.9479711023622048
20
-3.4193506692913385
11
4.9897293700787397
21
-3.4611089370078738
0
LINE
8
BLACK
6
CONTINUOUS
10
5.4602059055118106
20
-3.4338268897637794
11
5.4184476377952757
21
-3.4755851574803147
0
LINE
8
BLACK
6
CONTINUOUS
10
5.4184476377952757
20
-3.4755851574803147
11
5.4039714173228344
21
-3.4611089370078738
0
LINE
8
BLACK
6
CONTINUOUS
10
5.4039714173228344
20
-3.4611089370078738
11
5.4457296850393702
21
-3.4193506692913385
0
LINE
8
BLACK
6
CONTINUOUS
10
5.4457296850393702
20
-3.4193506692913385
11
5.4602059055118106
21
-3.4338268897637794
0
LINE
8
BLACK
6
CONTINUOUS
10
7.7456348818897638
20
-3.4553362992125982
11
7.7311586614173224
21
-3.4698125196850391
0
LINE
8
BLACK
6
CONTINUOUS
10
7.7311586614173224
20
-3.4698125196850391
11
7.6894003937007875
21
-3.4280542519685038
0
LINE
8
BLACK
6
CONTINUOUS
10
7.6894003937007875
20
-3.4280542519685038
11
7.703876614173228
21
-3.4135780314960629
0
LINE
8
BLACK
6
CONTINUOUS
10
7.703876614173228
20
-3.4135780314960629
11
7.7456348818897638
21
-3.4553362992125982
0
LINE
8
BLACK
6
CONTINUOUS
10
8.2161114173228338
20
-3.4280542519685038
11
8.1743531496062989
21
-3.4698125196850391
0
LINE
8
BLACK
6
CONTINUOUS
10
8.1743531496062989
20
-3.4698125196850391
11
8.1598769291338584
21
-3.4553362992125982
0
LINE
8
BLACK
6
CONTINUOUS
10
8.1598769291338584
20
-3.4553362992125982
11
8.2016351968503933
21
-3.4135780314960629
0
LINE
8
BLACK
6
CONTINUOUS
10
8.2016351968503933
20
-3.4135780314960629
11
8.2161114173228338
21
-3.4280542519685038
0
LINE
8
BLACK
6
CONTINUOUS
10
5.0120004330708658
20
-3.4388378740157481
11
4.9975242125984254
21
-3.453314094488189
0
LINE
8
BLACK
6
CONTINUOUS
10
4.9975242125984254
20
-3.453314094488189
11
4.9557659448818896
21
-3.4115558267716533
0
LINE
8
BLACK
6
CONTINUOUS
10
4.9557659448818896
20
-3.4115558267716533
11
4.9702421653543309
21
-3.3970796062992124
0
LINE
8
BLACK
6
CONTINUOUS
10
4.9702421653543309
20
-3.3970796062992124
11
5.0120004330708658
21
-3.4388378740157481
0
LINE
8
BLACK
6
CONTINUOUS
10
5.4379348425196845
20
-3.4115558267716533
11
5.3961765748031496
21
-3.453314094488189
0
LINE
8
BLACK
6
CONTINUOUS
10
5.3961765748031496
20
-3.453314094488189
11
5.3817003543307083
21
-3.4388378740157481
0
LINE
8
BLACK
6
CONTINUOUS
10
5.3817003543307083
20
-3.4388378740157481
11
5.423458622047244
21
-3.3970796062992124
0
LINE
8
BLACK
6
CONTINUOUS
10
5.423458622047244
20
-3.3970796062992124
11
5.4379348425196845
21
-3.4115558267716533
0
LINE
8
BLACK
6
CONTINUOUS
10
7.7679059448818899
20
-3.4330652362204725
11
7.7534297244094486
21
-3.4475414566929135
0
LINE
8
BLACK
6
CONTINUOUS
10
7.7534297244094486
20
-3.4475414566929135
11
7.7116714566929137
21
-3.4057831889763777
0
LINE
8
BLACK
6
CONTINUOUS
10
7.7116714566929137
20
-3.4057831889763777
11
7.7261476771653541
21
-3.3913069685039368
0
LINE
8
BLACK
6
CONTINUOUS
10
7.7261476771653541
20
-3.3913069685039368
11
7.7679059448818899
21
-3.4330652362204725
0
LINE
8
BLACK
6
CONTINUOUS
10
8.1938403543307086
20
-3.4057831889763777
11
8.1520820866141737
21
-3.4475414566929135
0
LINE
8
BLACK
6
CONTINUOUS
10
8.1520820866141737
20
-3.4475414566929135
11
8.1376058661417314
21
-3.4330652362204725
0
LINE
8
BLACK
6
CONTINUOUS
10
8.1376058661417314
20
-3.4330652362204725
11
8.1793641338582681
21
-3.3913069685039368
0
LINE
8
BLACK
6
CONTINUOUS
10
8.1793641338582681
20
-3.3913069685039368
11
8.1938403543307086
21
-3.4057831889763777
0
LINE
8
BLACK
6
CONTINUOUS
10
5.0342715354330707
20
-3.4165667716535433
11
5.0197953149606303
21
-3.4310429921259842
0
LINE
8
BLACK
6
CONTINUOUS
10
5.0197953149606303
20
-3.4310429921259842
11
4.9780370472440945
21
-3.3892847244094488
0
LINE
8
BLACK
6
CONTINUOUS
10
4.9780370472440945
20
-3.3892847244094488
11
4.9925132677165349
21
-3.3748085039370079
0
LINE
8
BLACK
6
CONTINUOUS
10
4.9925132677165349
20
-3.3748085039370079
11
5.0342715354330707
21
-3.4165667716535433
0
LINE
8
BLACK
6
CONTINUOUS
10
5.4156637401574805
20
-3.3892847244094488
11
5.3739054724409447
21
-3.4310429921259842
0
LINE
8
BLACK
6
CONTINUOUS
10
5.3739054724409447
20
-3.4310429921259842
11
5.3594292519685034
21
-3.4165667716535433
0
LINE
8
BLACK
6
CONTINUOUS
10
5.3594292519685034
20
-3.4165667716535433
11
5.4011875196850392
21
-3.3748085039370079
0
LINE
8
BLACK
6
CONTINUOUS
10
5.4011875196850392
20
-3.3748085039370079
11
5.4156637401574805
21
-3.3892847244094488
0
LINE
8
BLACK
6
CONTINUOUS
10
7.7901770472440939
20
-3.4107941338582677
11
7.7757008267716534
21
-3.4252703543307086
0
LINE
8
BLACK
6
CONTINUOUS
10
7.7757008267716534
20
-3.4252703543307086
11
7.7339425590551176
21
-3.3835120866141732
0
LINE
8
BLACK
6
CONTINUOUS
10
7.7339425590551176
20
-3.3835120866141732
11
7.748418779527559
21
-3.3690358661417323
0
LINE
8
BLACK
6
CONTINUOUS
10
7.748418779527559
20
-3.3690358661417323
11
7.7901770472440939
21
-3.4107941338582677
0
LINE
8
BLACK
6
CONTINUOUS
10
8.1715692519685046
20
-3.3835120866141732
11
8.1298109842519679
21
-3.4252703543307086
0
LINE
8
BLACK
6
CONTINUOUS
10
8.1298109842519679
20
-3.4252703543307086
11
8.1153347637795274
21
-3.4107941338582677
0
LINE
8
BLACK
6
CONTINUOUS
10
8.1153347637795274
20
-3.4107941338582677
11
8.1570930314960624
21
-3.3690358661417323
0
LINE
8
BLACK
6
CONTINUOUS
10
8.1570930314960624
20
-3.3690358661417323
11
8.1715692519685046
21
-3.3835120866141732
0
LINE
8
BLACK
6
CONTINUOUS
10
5.0565425984251968
20
-3.3942957086614172
11
5.0420663779527555
21
-3.4087719291338581
0
LINE
8
BLACK
6
CONTINUOUS
10
5.0420663779527555
20
-3.4087719291338581
11
5.0003081102362206
21
-3.3670136614173227
0
LINE
8
BLACK
6
CONTINUOUS
10
5.0003081102362206
20
-3.3670136614173227
11
5.014784330708661
21
-3.3525374409448818
0
LINE
8
BLACK
6
CONTINUOUS
10
5.014784330708661
20
-3.3525374409448818
11
5.0565425984251968
21
-3.3942957086614172
0
LINE
8
BLACK
6
CONTINUOUS
10
5.3933926771653544
20
-3.3670136614173227
11
5.3516344094488186
21
-3.4087719291338581
0
LINE
8
BLACK
6
CONTINUOUS
10
5.3516344094488186
20
-3.4087719291338581
11
5.3371581889763782
21
-3.3942957086614172
0
LINE
8
BLACK
6
CONTINUOUS
10
5.3371581889763782
20
-3.3942957086614172
11
5.3789164566929131
21
-3.3525374409448818
0
LINE
8
BLACK
6
CONTINUOUS
10
5.3789164566929131
20
-3.3525374409448818
11
5.3933926771653544
21
-3.3670136614173227
0
LINE
8
BLACK
6
CONTINUOUS
10
7.81244811023622
20
-3.3885230708661416
11
7.7979718897637795
21
-3.4029992913385825
0
LINE
8
BLACK
6
CONTINUOUS
10
7.7979718897637795
20
-3.4029992913385825
11
7.7562136220472437
21
-3.3612410236220471
0
LINE
8
BLACK
6
CONTINUOUS
10
7.7562136220472437
20
-3.3612410236220471
11
7.7706898425196851
21
-3.3467648031496062
0
LINE
8
BLACK
6
CONTINUOUS
10
7.7706898425196851
20
-3.3467648031496062
11
7.81244811023622
21
-3.3885230708661416
0
LINE
8
BLACK
6
CONTINUOUS
10
8.1492981889763776
20
-3.3612410236220471
11
8.1075399212598427
21
-3.4029992913385825
0
LINE
8
BLACK
6
CONTINUOUS
10
8.1075399212598427
20
-3.4029992913385825
11
8.0930637007874022
21
-3.3885230708661416
0
LINE
8
BLACK
6
CONTINUOUS
10
8.0930637007874022
20
-3.3885230708661416
11
8.1348219685039371
21
-3.3467648031496062
0
LINE
8
BLACK
6
CONTINUOUS
10
8.1348219685039371
20
-3.3467648031496062
11
8.1492981889763776
21
-3.3612410236220471
0
LINE
8
BLACK
6
CONTINUOUS
10
5.0788136614173229
20
-3.3720246456692911
11
5.0643374409448816
21
-3.3865008661417324
0
LINE
8
BLACK
6
CONTINUOUS
10
5.0643374409448816
20
-3.3865008661417324
11
5.0225791732283467
21
-3.3447425984251966
0
LINE
8
BLACK
6
CONTINUOUS
10
5.0225791732283467
20
-3.3447425984251966
11
5.0370553937007871
21
-3.3302663779527557
0
LINE
8
BLACK
6
CONTINUOUS
10
5.0370553937007871
20
-3.3302663779527557
11
5.0788136614173229
21
-3.3720246456692911
0
LINE
8
BLACK
6
CONTINUOUS
10
5.3711216141732283
20
-3.3447425984251966
11
5.3293633464566925
21
-3.3865008661417324
0
LINE
8
BLACK
6
CONTINUOUS
10
5.3293633464566925
20
-3.3865008661417324
11
5.3148871259842521
21
-3.3720246456692911
0
LINE
8
BLACK
6
CONTINUOUS
10
5.3148871259842521
20
-3.3720246456692911
11
5.356645393700787
21
-3.3302663779527557
0
LINE
8
BLACK
6
CONTINUOUS
10
5.356645393700787
20
-3.3302663779527557
11
5.3711216141732283
21
-3.3447425984251966
0
LINE
8
BLACK
6
CONTINUOUS
10
7.8347191732283461
20
-3.3662520078740155
11
7.8202429527559056
21
-3.3807282283464568
0
LINE
8
BLACK
6
CONTINUOUS
10
7.8202429527559056
20
-3.3807282283464568
11
7.7784846850393699
21
-3.338969960629921
0
LINE
8
BLACK
6
CONTINUOUS
10
7.7784846850393699
20
-3.338969960629921
11
7.7929609055118112
21
-3.3244937401574801
0
LINE
8
BLACK
6
CONTINUOUS
10
7.7929609055118112
20
-3.3244937401574801
11
7.8347191732283461
21
-3.3662520078740155
0
LINE
8
BLACK
6
CONTINUOUS
10
8.1270271259842524
20
-3.338969960629921
11
8.0852688582677157
21
-3.3807282283464568
0
LINE
8
BLACK
6
CONTINUOUS
10
8.0852688582677157
20
-3.3807282283464568
11
8.0707926377952752
21
-3.3662520078740155
0
LINE
8
BLACK
6
CONTINUOUS
10
8.0707926377952752
20
-3.3662520078740155
11
8.1125509055118101
21
-3.3244937401574801
0
LINE
8
BLACK
6
CONTINUOUS
10
8.1125509055118101
20
-3.3244937401574801
11
8.1270271259842524
21
-3.338969960629921
0
LINE
8
BLACK
6
CONTINUOUS
10
5.1010847637795278
20
-3.3497535433070866
11
5.0866085433070864
21
-3.3642297637795275
0
LINE
8
BLACK
6
CONTINUOUS
10
5.0866085433070864
20
-3.3642297637795275
11
5.0448502755905507
21
-3.3224714960629922
0
LINE
8
BLACK
6
CONTINUOUS
10
5.0448502755905507
20
-3.3224714960629922
11
5.059326496062992
21
-3.3079952755905513
0
LINE
8
BLACK
6
CONTINUOUS
10
5.059326496062992
20
-3.3079952755905513
11
5.1010847637795278
21
-3.3497535433070866
0
LINE
8
BLACK
6
CONTINUOUS
10
5.3488505118110234
20
-3.3224714960629922
11
5.3070922440944877
21
-3.3642297637795275
0
LINE
8
BLACK
6
CONTINUOUS
10
5.3070922440944877
20
-3.3642297637795275
11
5.2926160236220472
21
-3.3497535433070866
0
LINE
8
BLACK
6
CONTINUOUS
10
5.2926160236220472
20
-3.3497535433070866
11
5.334374291338583
21
-3.3079952755905513
0
LINE
8
BLACK
6
CONTINUOUS
10
5.334374291338583
20
-3.3079952755905513
11
5.3488505118110234
21
-3.3224714960629922
0
LINE
8
BLACK
6
CONTINUOUS
10
7.856990275590551
20
-3.343980905511811
11
7.8425140551181096
21
-3.3584571259842519
0
LINE
8
BLACK
6
CONTINUOUS
10
7.8425140551181096
20
-3.3584571259842519
11
7.8007557874015747
21
-3.3166988582677166
0
LINE
8
BLACK
6
CONTINUOUS
10
7.8007557874015747
20
-3.3166988582677166
11
7.8152320078740152
21
-3.3022226377952757
0
LINE
8
BLACK
6
CONTINUOUS
10
7.8152320078740152
20
-3.3022226377952757
11
7.856990275590551
21
-3.343980905511811
0
LINE
8
BLACK
6
CONTINUOUS
10
8.1047560236220466
20
-3.3166988582677166
11
8.0629977559055117
21
-3.3584571259842519
0
LINE
8
BLACK
6
CONTINUOUS
10
8.0629977559055117
20
-3.3584571259842519
11
8.0485215354330713
21
-3.343980905511811
0
LINE
8
BLACK
6
CONTINUOUS
10
8.0485215354330713
20
-3.343980905511811
11
8.0902798031496062
21
-3.3022226377952757
0
LINE
8
BLACK
6
CONTINUOUS
10
8.0902798031496062
20
-3.3022226377952757
11
8.1047560236220466
21
-3.3166988582677166
0
LINE
8
BLACK
6
CONTINUOUS
10
5.123355826771653
20
-3.3274824803149605
11
5.1088796062992126
21
-3.3419587007874014
0
LINE
8
BLACK
6
CONTINUOUS
10
5.1088796062992126
20
-3.3419587007874014
11
5.0671213385826768
21
-3.3002004330708661
0
LINE
8
BLACK
6
CONTINUOUS
10
5.0671213385826768
20
-3.3002004330708661
11
5.0815975590551181
21
-3.2857242125984252
0
LINE
8
BLACK
6
CONTINUOUS
10
5.0815975590551181
20
-3.2857242125984252
11
5.123355826771653
21
-3.3274824803149605
0
LINE
8
BLACK
6
CONTINUOUS
10
5.3265794488188973
20
-3.3002004330708661
11
5.2848211811023624
21
-3.3419587007874014
0
LINE
8
BLACK
6
CONTINUOUS
10
5.2848211811023624
20
-3.3419587007874014
11
5.2703449606299211
21
-3.3274824803149605
0
LINE
8
BLACK
6
CONTINUOUS
10
5.2703449606299211
20
-3.3274824803149605
11
5.3121032283464569
21
-3.2857242125984252
0
LINE
8
BLACK
6
CONTINUOUS
10
5.3121032283464569
20
-3.2857242125984252
11
5.3265794488188973
21
-3.3002004330708661
0
LINE
8
BLACK
6
CONTINUOUS
10
7.8792613385826771
20
-3.3217098425196849
11
7.8647851181102357
21
-3.3361860629921258
0
LINE
8
BLACK
6
CONTINUOUS
10
7.8647851181102357
20
-3.3361860629921258
11
7.8230268503937008
21
-3.2944277952755905
0
LINE
8
BLACK
6
CONTINUOUS
10
7.8230268503937008
20
-3.2944277952755905
11
7.8375030708661413
21
-3.2799515748031496
0
LINE
8
BLACK
6
CONTINUOUS
10
7.8375030708661413
20
-3.2799515748031496
11
7.8792613385826771
21
-3.3217098425196849
0
LINE
8
BLACK
6
CONTINUOUS
10
8.0824849606299214
20
-3.2944277952755905
11
8.0407266929133865
21
-3.3361860629921258
0
LINE
8
BLACK
6
CONTINUOUS
10
8.0407266929133865
20
-3.3361860629921258
11
8.0262504724409443
21
-3.3217098425196849
0
LINE
8
BLACK
6
CONTINUOUS
10
8.0262504724409443
20
-3.3217098425196849
11
8.0680087401574809
21
-3.2799515748031496
0
LINE
8
BLACK
6
CONTINUOUS
10
8.0680087401574809
20
-3.2799515748031496
11
8.0824849606299214
21
-3.2944277952755905
0
LINE
8
BLACK
6
CONTINUOUS
10
5.1456269291338579
20
-3.3052113779527557
11
5.1311507086614174
21
-3.3196875984251966
0
LINE
8
BLACK
6
CONTINUOUS
10
5.1311507086614174
20
-3.3196875984251966
11
5.0893924409448816
21
-3.2779293307086612
0
LINE
8
BLACK
6
CONTINUOUS
10
5.0893924409448816
20
-3.2779293307086612
11
5.103868661417323
21
-3.2634531102362203
0
LINE
8
BLACK
6
CONTINUOUS
10
5.103868661417323
20
-3.2634531102362203
11
5.1456269291338579
21
-3.3052113779527557
0
LINE
8
BLACK
6
CONTINUOUS
10
5.3043083464566925
20
-3.2779293307086612
11
5.2625500787401576
21
-3.3196875984251966
0
LINE
8
BLACK
6
CONTINUOUS
10
5.2625500787401576
20
-3.3196875984251966
11
5.2480738582677162
21
-3.3052113779527557
0
LINE
8
BLACK
6
CONTINUOUS
10
5.2480738582677162
20
-3.3052113779527557
11
5.289832125984252
21
-3.2634531102362203
0
LINE
8
BLACK
6
CONTINUOUS
10
5.289832125984252
20
-3.2634531102362203
11
5.3043083464566925
21
-3.2779293307086612
0
LINE
8
BLACK
6
CONTINUOUS
10
7.9015324409448819
20
-3.2994387401574801
11
7.8870562204724406
21
-3.313914960629921
0
LINE
8
BLACK
6
CONTINUOUS
10
7.8870562204724406
20
-3.313914960629921
11
7.8452979527559057
21
-3.2721566929133856
0
LINE
8
BLACK
6
CONTINUOUS
10
7.8452979527559057
20
-3.2721566929133856
11
7.8597741732283462
21
-3.2576804724409447
0
LINE
8
BLACK
6
CONTINUOUS
10
7.8597741732283462
20
-3.2576804724409447
11
7.9015324409448819
21
-3.2994387401574801
0
LINE
8
BLACK
6
CONTINUOUS
10
8.0602138582677156
20
-3.2721566929133856
11
8.0184555905511807
21
-3.313914960629921
0
LINE
8
BLACK
6
CONTINUOUS
10
8.0184555905511807
20
-3.313914960629921
11
8.0039793700787403
21
-3.2994387401574801
0
LINE
8
BLACK
6
CONTINUOUS
10
8.0039793700787403
20
-3.2994387401574801
11
8.0457376377952752
21
-3.2576804724409447
0
LINE
8
BLACK
6
CONTINUOUS
10
8.0457376377952752
20
-3.2576804724409447
11
8.0602138582677156
21
-3.2721566929133856
0
LINE
8
BLACK
6
CONTINUOUS
10
5.167897992125984
20
-3.28294031496063
11
5.1534217716535435
21
-3.2974165354330709
0
LINE
8
BLACK
6
CONTINUOUS
10
5.1534217716535435
20
-3.2974165354330709
11
5.1116635039370077
21
-3.2556582677165355
0
LINE
8
BLACK
6
CONTINUOUS
10
5.1116635039370077
20
-3.2556582677165355
11
5.1261397244094491
21
-3.2411820472440942
0
LINE
8
BLACK
6
CONTINUOUS
10
5.1261397244094491
20
-3.2411820472440942
11
5.167897992125984
21
-3.28294031496063
0
LINE
8
BLACK
6
CONTINUOUS
10
5.2820372834645672
20
-3.2556582677165355
11
5.2402790157480315
21
-3.2974165354330709
0
LINE
8
BLACK
6
CONTINUOUS
10
5.2402790157480315
20
-3.2974165354330709
11
5.2258027952755901
21
-3.28294031496063
0
LINE
8
BLACK
6
CONTINUOUS
10
5.2258027952755901
20
-3.28294031496063
11
5.2675610629921259
21
-3.2411820472440942
0
LINE
8
BLACK
6
CONTINUOUS
10
5.2675610629921259
20
-3.2411820472440942
11
5.2820372834645672
21
-3.2556582677165355
0
LINE
8
BLACK
6
CONTINUOUS
10
7.9238035039370081
20
-3.2771676771653544
11
7.9093272834645667
21
-3.2916438976377953
0
LINE
8
BLACK
6
CONTINUOUS
10
7.9093272834645667
20
-3.2916438976377953
11
7.8675690157480309
21
-3.24988562992126
0
LINE
8
BLACK
6
CONTINUOUS
10
7.8675690157480309
20
-3.24988562992126
11
7.8820452362204723
21
-3.2354094094488186
0
LINE
8
BLACK
6
CONTINUOUS
10
7.8820452362204723
20
-3.2354094094488186
11
7.9238035039370081
21
-3.2771676771653544
0
LINE
8
BLACK
6
CONTINUOUS
10
8.0379427952755904
20
-3.24988562992126
11
7.9961845275590546
21
-3.2916438976377953
0
LINE
8
BLACK
6
CONTINUOUS
10
7.9961845275590546
20
-3.2916438976377953
11
7.9817083070866142
21
-3.2771676771653544
0
LINE
8
BLACK
6
CONTINUOUS
10
7.9817083070866142
20
-3.2771676771653544
11
8.02346657480315
21
-3.2354094094488186
0
LINE
8
BLACK
6
CONTINUOUS
10
8.02346657480315
20
-3.2354094094488186
11
8.0379427952755904
21
-3.24988562992126
0
LINE
8
BLACK
6
CONTINUOUS
10
6.236511929133858
20
-3.0321424409448818
11
6.23842779527559
21
-3.0334225984251968
0
LINE
8
BLACK
6
CONTINUOUS
10
6.23842779527559
20
-3.0334225984251968
11
6.2397079527559054
21
-3.0353384645669292
0
LINE
8
BLACK
6
CONTINUOUS
10
6.2397079527559054
20
-3.0353384645669292
11
6.2401574803149602
21
-3.0375984251968502
0
LINE
8
BLACK
6
CONTINUOUS
10
6.2401574803149602
20
-3.0375984251968502
11
6.2401574803149602
21
-3.0494094488188974
0
LINE
8
BLACK
6
CONTINUOUS
10
6.2401574803149602
20
-3.0494094488188974
11
6.2397079527559054
21
-3.0516694094488188
0
LINE
8
BLACK
6
CONTINUOUS
10
6.2397079527559054
20
-3.0516694094488188
11
6.23842779527559
21
-3.0535852755905513
0
LINE
8
BLACK
6
CONTINUOUS
10
6.23842779527559
20
-3.0535852755905513
11
6.236511929133858
21
-3.0548654330708662
0
LINE
8
BLACK
6
CONTINUOUS
10
6.236511929133858
20
-3.0548654330708662
11
6.234251968503937
21
-3.055314960629921
0
LINE
8
BLACK
6
CONTINUOUS
10
6.234251968503937
20
-3.055314960629921
11
6.1692913385826769
21
-3.055314960629921
0
LINE
8
BLACK
6
CONTINUOUS
10
6.1692913385826769
20
-3.055314960629921
11
6.1670313779527559
21
-3.0548654330708662
0
LINE
8
BLACK
6
CONTINUOUS
10
6.1670313779527559
20
-3.0548654330708662
11
6.1651155118110239
21
-3.0535852755905513
0
LINE
8
BLACK
6
CONTINUOUS
10
6.1651155118110239
20
-3.0535852755905513
11
6.1638353543307085
21
-3.0516694094488188
0
LINE
8
BLACK
6
CONTINUOUS
10
6.1638353543307085
20
-3.0516694094488188
11
6.1633858267716537
21
-3.0494094488188974
0
LINE
8
BLACK
6
CONTINUOUS
10
6.1633858267716537
20
-3.0494094488188974
11
6.1633858267716537
21
-3.0375984251968502
0
LINE
8
BLACK
6
CONTINUOUS
10
6.1633858267716537
20
-3.0375984251968502
11
6.1638353543307085
21
-3.0353384645669292
0
LINE
8
BLACK
6
CONTINUOUS
10
6.1638353543307085
20
-3.0353384645669292
11
6.1651155118110239
21
-3.0334225984251968
0
LINE
8
BLACK
6
CONTINUOUS
10
6.1651155118110239
20
-3.0334225984251968
11
6.1670313779527559
21
-3.0321424409448818
0
LINE
8
BLACK
6
CONTINUOUS
10
6.1670313779527559
20
-3.0321424409448818
11
6.1692913385826769
21
-3.0316929133858266
0
LINE
8
BLACK
6
CONTINUOUS
10
6.1692913385826769
20
-3.0316929133858266
11
6.234251968503937
21
-3.0316929133858266
0
LINE
8
BLACK
6
CONTINUOUS
10
6.234251968503937
20
-3.0316929133858266
11
6.236511929133858
21
-3.0321424409448818
0
LINE
8
BLACK
6
CONTINUOUS
10
6.4313938188976376
20
-3.0321424409448818
11
6.4333096850393696
21
-3.0334225984251968
0
LINE
8
BLACK
6
CONTINUOUS
10
6.4333096850393696
20
-3.0334225984251968
11
6.434589842519685
21
-3.0353384645669292
0
LINE
8
BLACK
6
CONTINUOUS
10
6.434589842519685
20
-3.0353384645669292
11
6.4350393700787398
21
-3.0375984251968502
0
LINE
8
BLACK
6
CONTINUOUS
10
6.4350393700787398
20
-3.0375984251968502
11
6.4350393700787398
21
-3.0494094488188974
0
LINE
8
BLACK
6
CONTINUOUS
10
6.4350393700787398
20
-3.0494094488188974
11
6.434589842519685
21
-3.0516694094488188
0
LINE
8
BLACK
6
CONTINUOUS
10
6.434589842519685
20
-3.0516694094488188
11
6.4333096850393696
21
-3.0535852755905513
0
LINE
8
BLACK
6
CONTINUOUS
10
6.4333096850393696
20
-3.0535852755905513
11
6.4313938188976376
21
-3.0548654330708662
0
LINE
8
BLACK
6
CONTINUOUS
10
6.4313938188976376
20
-3.0548654330708662
11
6.4291338582677167
21
-3.055314960629921
0
LINE
8
BLACK
6
CONTINUOUS
10
6.4291338582677167
20
-3.055314960629921
11
6.3641732283464565
21
-3.055314960629921
0
LINE
8
BLACK
6
CONTINUOUS
10
6.3641732283464565
20
-3.055314960629921
11
6.3619132677165355
21
-3.0548654330708662
0
LINE
8
BLACK
6
CONTINUOUS
10
6.3619132677165355
20
-3.0548654330708662
11
6.3599974015748026
21
-3.0535852755905513
0
LINE
8
BLACK
6
CONTINUOUS
10
6.3599974015748026
20
-3.0535852755905513
11
6.3587172440944881
21
-3.0516694094488188
0
LINE
8
BLACK
6
CONTINUOUS
10
6.3587172440944881
20
-3.0516694094488188
11
6.3582677165354333
21
-3.0494094488188974
0
LINE
8
BLACK
6
CONTINUOUS
10
6.3582677165354333
20
-3.0494094488188974
11
6.3582677165354333
21
-3.0375984251968502
0
LINE
8
BLACK
6
CONTINUOUS
10
6.3582677165354333
20
-3.0375984251968502
11
6.3587172440944881
21
-3.0353384645669292
0
LINE
8
BLACK
6
CONTINUOUS
10
6.3587172440944881
20
-3.0353384645669292
11
6.3599974015748026
21
-3.0334225984251968
0
LINE
8
BLACK
6
CONTINUOUS
10
6.3599974015748026
20
-3.0334225984251968
11
6.3619132677165355
21
-3.0321424409448818
0
LINE
8
BLACK
6
CONTINUOUS
10
6.3619132677165355
20
-3.0321424409448818
11
6.3641732283464565
21
-3.0316929133858266
0
LINE
8
BLACK
6
CONTINUOUS
10
6.3641732283464565
20
-3.0316929133858266
11
6.4291338582677167
21
-3.0316929133858266
0
LINE
8
BLACK
6
CONTINUOUS
10
6.4291338582677167
20
-3.0316929133858266
11
6.4313938188976376
21
-3.0321424409448818
0
LINE
8
BLACK
6
CONTINUOUS
10
6.236511929133858
20
-2.982142440944882
11
6.23842779527559
21
-2.983422598425197
0
LINE
8
BLACK
6
CONTINUOUS
10
6.23842779527559
20
-2.983422598425197
11
6.2397079527559054
21
-2.985338464566929
0
LINE
8
BLACK
6
CONTINUOUS
10
6.2397079527559054
20
-2.985338464566929
11
6.2401574803149602
21
-2.9875984251968504
0
LINE
8
BLACK
6
CONTINUOUS
10
6.2401574803149602
20
-2.9875984251968504
11
6.2401574803149602
21
-2.9994094488188976
0
LINE
8
BLACK
6
CONTINUOUS
10
6.2401574803149602
20
-2.9994094488188976
11
6.2397079527559054
21
-3.001669409448819
0
LINE
8
BLACK
6
CONTINUOUS
10
6.2397079527559054
20
-3.001669409448819
11
6.23842779527559
21
-3.003585275590551
0
LINE
8
BLACK
6
CONTINUOUS
10
6.23842779527559
20
-3.003585275590551
11
6.236511929133858
21
-3.004865433070866
0
LINE
8
BLACK
6
CONTINUOUS
10
6.236511929133858
20
-3.004865433070866
11
6.234251968503937
21
-3.0053149606299212
0
LINE
8
BLACK
6
CONTINUOUS
10
6.234251968503937
20
-3.0053149606299212
11
6.1692913385826769
21
-3.0053149606299212
0
LINE
8
BLACK
6
CONTINUOUS
10
6.1692913385826769
20
-3.0053149606299212
11
6.1670313779527559
21
-3.004865433070866
0
LINE
8
BLACK
6
CONTINUOUS
10
6.1670313779527559
20
-3.004865433070866
11
6.1651155118110239
21
-3.003585275590551
0
LINE
8
BLACK
6
CONTINUOUS
10
6.1651155118110239
20
-3.003585275590551
11
6.1638353543307085
21
-3.001669409448819
0
LINE
8
BLACK
6
CONTINUOUS
10
6.1638353543307085
20
-3.001669409448819
11
6.1633858267716537
21
-2.9994094488188976
0
LINE
8
BLACK
6
CONTINUOUS
10
6.1633858267716537
20
-2.9994094488188976
11
6.1633858267716537
21
-2.9875984251968504
0
LINE
8
BLACK
6
CONTINUOUS
10
6.1633858267716537
20
-2.9875984251968504
11
6.1638353543307085
21
-2.985338464566929
0
LINE
8
BLACK
6
CONTINUOUS
10
6.1638353543307085
20
-2.985338464566929
11
6.1651155118110239
21
-2.983422598425197
0
LINE
8
BLACK
6
CONTINUOUS
10
6.1651155118110239
20
-2.983422598425197
11
6.1670313779527559
21
-2.982142440944882
0
LINE
8
BLACK
6
CONTINUOUS
10
6.1670313779527559
20
-2.982142440944882
11
6.1692913385826769
21
-2.9816929133858268
0
LINE
8
BLACK
6
CONTINUOUS
10
6.1692913385826769
20
-2.9816929133858268
11
6.234251968503937
21
-2.9816929133858268
0
LINE
8
BLACK
6
CONTINUOUS
10
6.234251968503937
20
-2.9816929133858268
11
6.236511929133858
21
-2.982142440944882
0
LINE
8
BLACK
6
CONTINUOUS
10
6.4313938188976376
20
-2.982142440944882
11
6.4333096850393696
21
-2.983422598425197
0
LINE
8
BLACK
6
CONTINUOUS
10
6.4333096850393696
20
-2.983422598425197
11
6.434589842519685
21
-2.985338464566929
0
LINE
8
BLACK
6
CONTINUOUS
10
6.434589842519685
20
-2.985338464566929
11
6.4350393700787398
21
-2.9875984251968504
0
LINE
8
BLACK
6
CONTINUOUS
10
6.4350393700787398
20
-2.9875984251968504
11
6.4350393700787398
21
-2.9994094488188976
0
LINE
8
BLACK
6
CONTINUOUS
10
6.4350393700787398
20
-2.9994094488188976
11
6.434589842519685
21
-3.001669409448819
0
LINE
8
BLACK
6
CONTINUOUS
10
6.434589842519685
20
-3.001669409448819
11
6.4333096850393696
21
-3.003585275590551
0
LINE
8
BLACK
6
CONTINUOUS
10
6.4333096850393696
20
-3.003585275590551
11
6.4313938188976376
21
-3.004865433070866
0
LINE
8
BLACK
6
CONTINUOUS
10
6.4313938188976376
20
-3.004865433070866
11
6.4291338582677167
21
-3.0053149606299212
0
LINE
8
BLACK
6
CONTINUOUS
10
6.4291338582677167
20
-3.0053149606299212
11
6.3641732283464565
21
-3.0053149606299212
0
LINE
8
BLACK
6
CONTINUOUS
10
6.3641732283464565
20
-3.0053149606299212
11
6.3619132677165355
21
-3.004865433070866
0
LINE
8
BLACK
6
CONTINUOUS
10
6.3619132677165355
20
-3.004865433070866
11
6.3599974015748026
21
-3.003585275590551
0
LINE
8
BLACK
6
CONTINUOUS
10
6.3599974015748026
20
-3.003585275590551
11
6.3587172440944881
21
-3.001669409448819
0
LINE
8
BLACK
6
CONTINUOUS
10
6.3587172440944881
20
-3.001669409448819
11
6.3582677165354333
21
-2.9994094488188976
0
LINE
8
BLACK
6
CONTINUOUS
10
6.3582677165354333
20
-2.9994094488188976
11
6.3582677165354333
21
-2.9875984251968504
0
LINE
8
BLACK
6
CONTINUOUS
10
6.3582677165354333
20
-2.9875984251968504
11
6.3587172440944881
21
-2.985338464566929
0
LINE
8
BLACK
6
CONTINUOUS
10
6.3587172440944881
20
-2.985338464566929
11
6.3599974015748026
21
-2.983422598425197
0
LINE
8
BLACK
6
CONTINUOUS
10
6.3599974015748026
20
-2.983422598425197
11
6.3619132677165355
21
-2.982142440944882
0
LINE
8
BLACK
6
CONTINUOUS
10
6.3619132677165355
20
-2.982142440944882
11
6.3641732283464565
21
-2.9816929133858268
0
LINE
8
BLACK
6
CONTINUOUS
10
6.3641732283464565
20
-2.9816929133858268
11
6.4291338582677167
21
-2.9816929133858268
0
LINE
8
BLACK
6
CONTINUOUS
10
6.4291338582677167
20
-2.9816929133858268
11
6.4313938188976376
21
-2.982142440944882
0
LINE
8
BLACK
6
CONTINUOUS
10
6.236511929133858
20
-2.9321424409448817
11
6.23842779527559
21
-2.9334225984251967
0
LINE
8
BLACK
6
CONTINUOUS
10
6.23842779527559
20
-2.9334225984251967
11
6.2397079527559054
21
-2.9353384645669292
0
LINE
8
BLACK
6
CONTINUOUS
10
6.2397079527559054
20
-2.9353384645669292
11
6.2401574803149602
21
-2.9375984251968501
0
LINE
8
BLACK
6
CONTINUOUS
10
6.2401574803149602
20
-2.9375984251968501
11
6.2401574803149602
21
-2.9494094488188978
0
LINE
8
BLACK
6
CONTINUOUS
10
6.2401574803149602
20
-2.9494094488188978
11
6.2397079527559054
21
-2.9516694094488187
0
LINE
8
BLACK
6
CONTINUOUS
10
6.2397079527559054
20
-2.9516694094488187
11
6.23842779527559
21
-2.9535852755905512
0
LINE
8
BLACK
6
CONTINUOUS
10
6.23842779527559
20
-2.9535852755905512
11
6.236511929133858
21
-2.9548654330708661
0
LINE
8
BLACK
6
CONTINUOUS
10
6.236511929133858
20
-2.9548654330708661
11
6.234251968503937
21
-2.9553149606299214
0
LINE
8
BLACK
6
CONTINUOUS
10
6.234251968503937
20
-2.9553149606299214
11
6.1692913385826769
21
-2.9553149606299214
0
LINE
8
BLACK
6
CONTINUOUS
10
6.1692913385826769
20
-2.9553149606299214
11
6.1670313779527559
21
-2.9548654330708661
0
LINE
8
BLACK
6
CONTINUOUS
10
6.1670313779527559
20
-2.9548654330708661
11
6.1651155118110239
21
-2.9535852755905512
0
LINE
8
BLACK
6
CONTINUOUS
10
6.1651155118110239
20
-2.9535852755905512
11
6.1638353543307085
21
-2.9516694094488187
0
LINE
8
BLACK
6
CONTINUOUS
10
6.1638353543307085
20
-2.9516694094488187
11
6.1633858267716537
21
-2.9494094488188978
0
LINE
8
BLACK
6
CONTINUOUS
10
6.1633858267716537
20
-2.9494094488188978
11
6.1633858267716537
21
-2.9375984251968501
0
LINE
8
BLACK
6
CONTINUOUS
10
6.1633858267716537
20
-2.9375984251968501
11
6.1638353543307085
21
-2.9353384645669292
0
LINE
8
BLACK
6
CONTINUOUS
10
6.1638353543307085
20
-2.9353384645669292
11
6.1651155118110239
21
-2.9334225984251967
0
LINE
8
BLACK
6
CONTINUOUS
10
6.1651155118110239
20
-2.9334225984251967
11
6.1670313779527559
21
-2.9321424409448817
0
LINE
8
BLACK
6
CONTINUOUS
10
6.1670313779527559
20
-2.9321424409448817
11
6.1692913385826769
21
-2.9316929133858265
0
LINE
8
BLACK
6
CONTINUOUS
10
6.1692913385826769
20
-2.9316929133858265
11
6.234251968503937
21
-2.9316929133858265
0
LINE
8
BLACK
6
CONTINUOUS
10
6.234251968503937
20
-2.9316929133858265
11
6.236511929133858
21
-2.9321424409448817
0
LINE
8
BLACK
6
CONTINUOUS
10
6.4313938188976376
20
-2.9321424409448817
11
6.4333096850393696
21
-2.9334225984251967
0
LINE
8
BLACK
6
CONTINUOUS
10
6.4333096850393696
20
-2.9334225984251967
11
6.434589842519685
21
-2.9353384645669292
0
LINE
8
BLACK
6
CONTINUOUS
10
6.434589842519685
20
-2.9353384645669292
11
6.4350393700787398
21
-2.9375984251968501
0
LINE
8
BLACK
6
CONTINUOUS
10
6.4350393700787398
20
-2.9375984251968501
11
6.4350393700787398
21
-2.9494094488188978
0
LINE
8
BLACK
6
CONTINUOUS
10
6.4350393700787398
20
-2.9494094488188978
11
6.434589842519685
21
-2.9516694094488187
0
LINE
8
BLACK
6
CONTINUOUS
10
6.434589842519685
20
-2.9516694094488187
11
6.4333096850393696
21
-2.9535852755905512
0
LINE
8
BLACK
6
CONTINUOUS
10
6.4333096850393696
20
-2.9535852755905512
11
6.4313938188976376
21
-2.9548654330708661
0
LINE
8
BLACK
6
CONTINUOUS
10
6.4313938188976376
20
-2.9548654330708661
11
6.4291338582677167
21
-2.9553149606299214
0
LINE
8
BLACK
6
CONTINUOUS
10
6.4291338582677167
20
-2.9553149606299214
11
6.3641732283464565
21
-2.9553149606299214
0
LINE
8
BLACK
6
CONTINUOUS
10
6.3641732283464565
20
-2.9553149606299214
11
6.3619132677165355
21
-2.9548654330708661
0
LINE
8
BLACK
6
CONTINUOUS
10
6.3619132677165355
20
-2.9548654330708661
11
6.3599974015748026
21
-2.9535852755905512
0
LINE
8
BLACK
6
CONTINUOUS
10
6.3599974015748026
20
-2.9535852755905512
11
6.3587172440944881
21
-2.9516694094488187
0
LINE
8
BLACK
6
CONTINUOUS
10
6.3587172440944881
20
-2.9516694094488187
11
6.3582677165354333
21
-2.9494094488188978
0
LINE
8
BLACK
6
CONTINUOUS
10
6.3582677165354333
20
-2.9494094488188978
11
6.3582677165354333
21
-2.9375984251968501
0
LINE
8
BLACK
6
CONTINUOUS
10
6.3582677165354333
20
-2.9375984251968501
11
6.3587172440944881
21
-2.9353384645669292
0
LINE
8
BLACK
6
CONTINUOUS
10
6.3587172440944881
20
-2.9353384645669292
11
6.3599974015748026
21
-2.9334225984251967
0
LINE
8
BLACK
6
CONTINUOUS
10
6.3599974015748026
20
-2.9334225984251967
11
6.3619132677165355
21
-2.9321424409448817
0
LINE
8
BLACK
6
CONTINUOUS
10
6.3619132677165355
20
-2.9321424409448817
11
6.3641732283464565
21
-2.9316929133858265
0
LINE
8
BLACK
6
CONTINUOUS
10
6.3641732283464565
20
-2.9316929133858265
11
6.4291338582677167
21
-2.9316929133858265
0
LINE
8
BLACK
6
CONTINUOUS
10
6.4291338582677167
20
-2.9316929133858265
11
6.4313938188976376
21
-2.9321424409448817
0
LINE
8
BLACK
6
CONTINUOUS
10
6.236511929133858
20
-2.8821424409448819
11
6.23842779527559
21
-2.8834225984251969
0
LINE
8
BLACK
6
CONTINUOUS
10
6.23842779527559
20
-2.8834225984251969
11
6.2397079527559054
21
-2.8853384645669289
0
LINE
8
BLACK
6
CONTINUOUS
10
6.2397079527559054
20
-2.8853384645669289
11
6.2401574803149602
21
-2.8875984251968503
0
LINE
8
BLACK
6
CONTINUOUS
10
6.2401574803149602
20
-2.8875984251968503
11
6.2401574803149602
21
-2.8994094488188975
0
LINE
8
BLACK
6
CONTINUOUS
10
6.2401574803149602
20
-2.8994094488188975
11
6.2397079527559054
21
-2.9016694094488189
0
LINE
8
BLACK
6
CONTINUOUS
10
6.2397079527559054
20
-2.9016694094488189
11
6.23842779527559
21
-2.9035852755905509
0
LINE
8
BLACK
6
CONTINUOUS
10
6.23842779527559
20
-2.9035852755905509
11
6.236511929133858
21
-2.9048654330708659
0
LINE
8
BLACK
6
CONTINUOUS
10
6.236511929133858
20
-2.9048654330708659
11
6.234251968503937
21
-2.9053149606299211
0
LINE
8
BLACK
6
CONTINUOUS
10
6.234251968503937
20
-2.9053149606299211
11
6.1692913385826769
21
-2.9053149606299211
0
LINE
8
BLACK
6
CONTINUOUS
10
6.1692913385826769
20
-2.9053149606299211
11
6.1670313779527559
21
-2.9048654330708659
0
LINE
8
BLACK
6
CONTINUOUS
10
6.1670313779527559
20
-2.9048654330708659
11
6.1651155118110239
21
-2.9035852755905509
0
LINE
8
BLACK
6
CONTINUOUS
10
6.1651155118110239
20
-2.9035852755905509
11
6.1638353543307085
21
-2.9016694094488189
0
LINE
8
BLACK
6
CONTINUOUS
10
6.1638353543307085
20
-2.9016694094488189
11
6.1633858267716537
21
-2.8994094488188975
0
LINE
8
BLACK
6
CONTINUOUS
10
6.1633858267716537
20
-2.8994094488188975
11
6.1633858267716537
21
-2.8875984251968503
0
LINE
8
BLACK
6
CONTINUOUS
10
6.1633858267716537
20
-2.8875984251968503
11
6.1638353543307085
21
-2.8853384645669289
0
LINE
8
BLACK
6
CONTINUOUS
10
6.1638353543307085
20
-2.8853384645669289
11
6.1651155118110239
21
-2.8834225984251969
0
LINE
8
BLACK
6
CONTINUOUS
10
6.1651155118110239
20
-2.8834225984251969
11
6.1670313779527559
21
-2.8821424409448819
0
LINE
8
BLACK
6
CONTINUOUS
10
6.1670313779527559
20
-2.8821424409448819
11
6.1692913385826769
21
-2.8816929133858267
0
LINE
8
BLACK
6
CONTINUOUS
10
6.1692913385826769
20
-2.8816929133858267
11
6.234251968503937
21
-2.8816929133858267
0
LINE
8
BLACK
6
CONTINUOUS
10
6.234251968503937
20
-2.8816929133858267
11
6.236511929133858
21
-2.8821424409448819
0
LINE
8
BLACK
6
CONTINUOUS
10
6.4313938188976376
20
-2.8821424409448819
11
6.4333096850393696
21
-2.8834225984251969
0
LINE
8
BLACK
6
CONTINUOUS
10
6.4333096850393696
20
-2.8834225984251969
11
6.434589842519685
21
-2.8853384645669289
0
LINE
8
BLACK
6
CONTINUOUS
10
6.434589842519685
20
-2.8853384645669289
11
6.4350393700787398
21
-2.8875984251968503
0
LINE
8
BLACK
6
CONTINUOUS
10
6.4350393700787398
20
-2.8875984251968503
11
6.4350393700787398
21
-2.8994094488188975
0
LINE
8
BLACK
6
CONTINUOUS
10
6.4350393700787398
20
-2.8994094488188975
11
6.434589842519685
21
-2.9016694094488189
0
LINE
8
BLACK
6
CONTINUOUS
10
6.434589842519685
20
-2.9016694094488189
11
6.4333096850393696
21
-2.9035852755905509
0
LINE
8
BLACK
6
CONTINUOUS
10
6.4333096850393696
20
-2.9035852755905509
11
6.4313938188976376
21
-2.9048654330708659
0
LINE
8
BLACK
6
CONTINUOUS
10
6.4313938188976376
20
-2.9048654330708659
11
6.4291338582677167
21
-2.9053149606299211
0
LINE
8
BLACK
6
CONTINUOUS
10
6.4291338582677167
20
-2.9053149606299211
11
6.3641732283464565
21
-2.9053149606299211
0
LINE
8
BLACK
6
CONTINUOUS
10
6.3641732283464565
20
-2.9053149606299211
11
6.3619132677165355
21
-2.9048654330708659
0
LINE
8
BLACK
6
CONTINUOUS
10
6.3619132677165355
20
-2.9048654330708659
11
6.3599974015748026
21
-2.9035852755905509
0
LINE
8
BLACK
6
CONTINUOUS
10
6.3599974015748026
20
-2.9035852755905509
11
6.3587172440944881
21
-2.9016694094488189
0
LINE
8
BLACK
6
CONTINUOUS
10
6.3587172440944881
20
-2.9016694094488189
11
6.3582677165354333
21
-2.8994094488188975
0
LINE
8
BLACK
6
CONTINUOUS
10
6.3582677165354333
20
-2.8994094488188975
11
6.3582677165354333
21
-2.8875984251968503
0
LINE
8
BLACK
6
CONTINUOUS
10
6.3582677165354333
20
-2.8875984251968503
11
6.3587172440944881
21
-2.8853384645669289
0
LINE
8
BLACK
6
CONTINUOUS
10
6.3587172440944881
20
-2.8853384645669289
11
6.3599974015748026
21
-2.8834225984251969
0
LINE
8
BLACK
6
CONTINUOUS
10
6.3599974015748026
20
-2.8834225984251969
11
6.3619132677165355
21
-2.8821424409448819
0
LINE
8
BLACK
6
CONTINUOUS
10
6.3619132677165355
20
-2.8821424409448819
11
6.3641732283464565
21
-2.8816929133858267
0
LINE
8
BLACK
6
CONTINUOUS
10
6.3641732283464565
20
-2.8816929133858267
11
6.4291338582677167
21
-2.8816929133858267
0
LINE
8
BLACK
6
CONTINUOUS
10
6.4291338582677167
20
-2.8816929133858267
11
6.4313938188976376
21
-2.8821424409448819
  0
ENDSEC
  0
EOF
