<?xml version="1.0" standalone="no"?>
 <!DOCTYPE svg PUBLIC "-//W3C//DTD SVG 1.1//EN" 
 "http://www.w3.org/Graphics/SVG/1.1/DTD/svg11.dtd"> 
<svg
  xmlns:svg="http://www.w3.org/2000/svg"
  xmlns="http://www.w3.org/2000/svg"
  xmlns:xlink="http://www.w3.org/1999/xlink"
  version="1.1"
  width="297.0022mm" height="210.0072mm" viewBox="0.0000 0.0000 297.0022 210.0072">
<title>SVG Image created as nixie-B_Silkscreen.svg date 2024/10/13 16:36:52 </title>
  <desc>Image generated by PCBNEW </desc>
<g style="fill:#000000; fill-opacity:1.0000;stroke:#000000; stroke-opacity:1.0000;
stroke-linecap:round; stroke-linejoin:round;"
 transform="translate(0 0) scale(1 1)">
</g>
<g style="fill:none; 
stroke:#000000; stroke-width:0.1000; stroke-opacity:1; 
stroke-linecap:round; stroke-linejoin:round;">
<text x="252.0000" y="62.7602"
transform="scale(-1 1) translate(-504.000000 0)"
textLength="21.0524" font-size="1.3333" lengthAdjust="spacingAndGlyphs"
text-anchor="start" opacity="0" stroke-opacity="0">Nixie Clock by Pim Borman</text>
<g class="stroked-text"><desc>Nixie Clock by Pim Borman</desc>
<path d="M251.6961 62.6326
L251.6961 61.6326
" />
<path d="M251.6961 61.6326
L251.1247 62.6326
" />
<path d="M251.1247 62.6326
L251.1247 61.6326
" />
<path d="M250.6485 62.6326
L250.6485 61.9660
" />
<path d="M250.6485 61.6326
L250.6961 61.6803
" />
<path d="M250.6961 61.6803
L250.6485 61.7279
" />
<path d="M250.6485 61.7279
L250.6009 61.6803
" />
<path d="M250.6009 61.6803
L250.6485 61.6326
" />
<path d="M250.6485 61.6326
L250.6485 61.7279
" />
<path d="M250.2675 62.6326
L249.7437 61.9660
" />
<path d="M250.2675 61.9660
L249.7437 62.6326
" />
<path d="M249.3628 62.6326
L249.3628 61.9660
" />
<path d="M249.3628 61.6326
L249.4104 61.6803
" />
<path d="M249.4104 61.6803
L249.3628 61.7279
" />
<path d="M249.3628 61.7279
L249.3152 61.6803
" />
<path d="M249.3152 61.6803
L249.3628 61.6326
" />
<path d="M249.3628 61.6326
L249.3628 61.7279
" />
<path d="M248.5056 62.5850
L248.6009 62.6326
" />
<path d="M248.6009 62.6326
L248.7914 62.6326
" />
<path d="M248.7914 62.6326
L248.8866 62.5850
" />
<path d="M248.8866 62.5850
L248.9342 62.4898
" />
<path d="M248.9342 62.4898
L248.9342 62.1088
" />
<path d="M248.9342 62.1088
L248.8866 62.0136
" />
<path d="M248.8866 62.0136
L248.7914 61.9660
" />
<path d="M248.7914 61.9660
L248.6009 61.9660
" />
<path d="M248.6009 61.9660
L248.5056 62.0136
" />
<path d="M248.5056 62.0136
L248.4580 62.1088
" />
<path d="M248.4580 62.1088
L248.4580 62.2041
" />
<path d="M248.4580 62.2041
L248.9342 62.2993
" />
<path d="M246.6961 62.5374
L246.7437 62.5850
" />
<path d="M246.7437 62.5850
L246.8866 62.6326
" />
<path d="M246.8866 62.6326
L246.9818 62.6326
" />
<path d="M246.9818 62.6326
L247.1247 62.5850
" />
<path d="M247.1247 62.5850
L247.2199 62.4898
" />
<path d="M247.2199 62.4898
L247.2675 62.3945
" />
<path d="M247.2675 62.3945
L247.3152 62.2041
" />
<path d="M247.3152 62.2041
L247.3152 62.0612
" />
<path d="M247.3152 62.0612
L247.2675 61.8707
" />
<path d="M247.2675 61.8707
L247.2199 61.7755
" />
<path d="M247.2199 61.7755
L247.1247 61.6803
" />
<path d="M247.1247 61.6803
L246.9818 61.6326
" />
<path d="M246.9818 61.6326
L246.8866 61.6326
" />
<path d="M246.8866 61.6326
L246.7437 61.6803
" />
<path d="M246.7437 61.6803
L246.6961 61.7279
" />
<path d="M246.1247 62.6326
L246.2199 62.5850
" />
<path d="M246.2199 62.5850
L246.2675 62.4898
" />
<path d="M246.2675 62.4898
L246.2675 61.6326
" />
<path d="M245.6009 62.6326
L245.6961 62.5850
" />
<path d="M245.6961 62.5850
L245.7437 62.5374
" />
<path d="M245.7437 62.5374
L245.7914 62.4422
" />
<path d="M245.7914 62.4422
L245.7914 62.1565
" />
<path d="M245.7914 62.1565
L245.7437 62.0612
" />
<path d="M245.7437 62.0612
L245.6961 62.0136
" />
<path d="M245.6961 62.0136
L245.6009 61.9660
" />
<path d="M245.6009 61.9660
L245.4580 61.9660
" />
<path d="M245.4580 61.9660
L245.3628 62.0136
" />
<path d="M245.3628 62.0136
L245.3152 62.0612
" />
<path d="M245.3152 62.0612
L245.2675 62.1565
" />
<path d="M245.2675 62.1565
L245.2675 62.4422
" />
<path d="M245.2675 62.4422
L245.3152 62.5374
" />
<path d="M245.3152 62.5374
L245.3628 62.5850
" />
<path d="M245.3628 62.5850
L245.4580 62.6326
" />
<path d="M245.4580 62.6326
L245.6009 62.6326
" />
<path d="M244.4104 62.5850
L244.5056 62.6326
" />
<path d="M244.5056 62.6326
L244.6961 62.6326
" />
<path d="M244.6961 62.6326
L244.7914 62.5850
" />
<path d="M244.7914 62.5850
L244.8390 62.5374
" />
<path d="M244.8390 62.5374
L244.8866 62.4422
" />
<path d="M244.8866 62.4422
L244.8866 62.1565
" />
<path d="M244.8866 62.1565
L244.8390 62.0612
" />
<path d="M244.8390 62.0612
L244.7914 62.0136
" />
<path d="M244.7914 62.0136
L244.6961 61.9660
" />
<path d="M244.6961 61.9660
L244.5056 61.9660
" />
<path d="M244.5056 61.9660
L244.4104 62.0136
" />
<path d="M243.9818 62.6326
L243.9818 61.6326
" />
<path d="M243.8866 62.2517
L243.6009 62.6326
" />
<path d="M243.6009 61.9660
L243.9818 62.3469
" />
<path d="M242.4104 62.6326
L242.4104 61.6326
" />
<path d="M242.4104 62.0136
L242.3152 61.9660
" />
<path d="M242.3152 61.9660
L242.1247 61.9660
" />
<path d="M242.1247 61.9660
L242.0294 62.0136
" />
<path d="M242.0294 62.0136
L241.9818 62.0612
" />
<path d="M241.9818 62.0612
L241.9342 62.1565
" />
<path d="M241.9342 62.1565
L241.9342 62.4422
" />
<path d="M241.9342 62.4422
L241.9818 62.5374
" />
<path d="M241.9818 62.5374
L242.0294 62.5850
" />
<path d="M242.0294 62.5850
L242.1247 62.6326
" />
<path d="M242.1247 62.6326
L242.3152 62.6326
" />
<path d="M242.3152 62.6326
L242.4104 62.5850
" />
<path d="M241.6009 61.9660
L241.3628 62.6326
" />
<path d="M241.1247 61.9660
L241.3628 62.6326
" />
<path d="M241.3628 62.6326
L241.4580 62.8707
" />
<path d="M241.4580 62.8707
L241.5056 62.9184
" />
<path d="M241.5056 62.9184
L241.6009 62.9660
" />
<path d="M239.9818 62.6326
L239.9818 61.6326
" />
<path d="M239.9818 61.6326
L239.6009 61.6326
" />
<path d="M239.6009 61.6326
L239.5056 61.6803
" />
<path d="M239.5056 61.6803
L239.4580 61.7279
" />
<path d="M239.4580 61.7279
L239.4104 61.8231
" />
<path d="M239.4104 61.8231
L239.4104 61.9660
" />
<path d="M239.4104 61.9660
L239.4580 62.0612
" />
<path d="M239.4580 62.0612
L239.5056 62.1088
" />
<path d="M239.5056 62.1088
L239.6009 62.1565
" />
<path d="M239.6009 62.1565
L239.9818 62.1565
" />
<path d="M238.9818 62.6326
L238.9818 61.9660
" />
<path d="M238.9818 61.6326
L239.0294 61.6803
" />
<path d="M239.0294 61.6803
L238.9818 61.7279
" />
<path d="M238.9818 61.7279
L238.9342 61.6803
" />
<path d="M238.9342 61.6803
L238.9818 61.6326
" />
<path d="M238.9818 61.6326
L238.9818 61.7279
" />
<path d="M238.5056 62.6326
L238.5056 61.9660
" />
<path d="M238.5056 62.0612
L238.4580 62.0136
" />
<path d="M238.4580 62.0136
L238.3628 61.9660
" />
<path d="M238.3628 61.9660
L238.2199 61.9660
" />
<path d="M238.2199 61.9660
L238.1247 62.0136
" />
<path d="M238.1247 62.0136
L238.0771 62.1088
" />
<path d="M238.0771 62.1088
L238.0771 62.6326
" />
<path d="M238.0771 62.1088
L238.0294 62.0136
" />
<path d="M238.0294 62.0136
L237.9342 61.9660
" />
<path d="M237.9342 61.9660
L237.7914 61.9660
" />
<path d="M237.7914 61.9660
L237.6961 62.0136
" />
<path d="M237.6961 62.0136
L237.6485 62.1088
" />
<path d="M237.6485 62.1088
L237.6485 62.6326
" />
<path d="M236.0771 62.1088
L235.9342 62.1565
" />
<path d="M235.9342 62.1565
L235.8866 62.2041
" />
<path d="M235.8866 62.2041
L235.8390 62.2993
" />
<path d="M235.8390 62.2993
L235.8390 62.4422
" />
<path d="M235.8390 62.4422
L235.8866 62.5374
" />
<path d="M235.8866 62.5374
L235.9342 62.5850
" />
<path d="M235.9342 62.5850
L236.0294 62.6326
" />
<path d="M236.0294 62.6326
L236.4104 62.6326
" />
<path d="M236.4104 62.6326
L236.4104 61.6326
" />
<path d="M236.4104 61.6326
L236.0771 61.6326
" />
<path d="M236.0771 61.6326
L235.9818 61.6803
" />
<path d="M235.9818 61.6803
L235.9342 61.7279
" />
<path d="M235.9342 61.7279
L235.8866 61.8231
" />
<path d="M235.8866 61.8231
L235.8866 61.9184
" />
<path d="M235.8866 61.9184
L235.9342 62.0136
" />
<path d="M235.9342 62.0136
L235.9818 62.0612
" />
<path d="M235.9818 62.0612
L236.0771 62.1088
" />
<path d="M236.0771 62.1088
L236.4104 62.1088
" />
<path d="M235.2675 62.6326
L235.3628 62.5850
" />
<path d="M235.3628 62.5850
L235.4104 62.5374
" />
<path d="M235.4104 62.5374
L235.4580 62.4422
" />
<path d="M235.4580 62.4422
L235.4580 62.1565
" />
<path d="M235.4580 62.1565
L235.4104 62.0612
" />
<path d="M235.4104 62.0612
L235.3628 62.0136
" />
<path d="M235.3628 62.0136
L235.2675 61.9660
" />
<path d="M235.2675 61.9660
L235.1247 61.9660
" />
<path d="M235.1247 61.9660
L235.0294 62.0136
" />
<path d="M235.0294 62.0136
L234.9818 62.0612
" />
<path d="M234.9818 62.0612
L234.9342 62.1565
" />
<path d="M234.9342 62.1565
L234.9342 62.4422
" />
<path d="M234.9342 62.4422
L234.9818 62.5374
" />
<path d="M234.9818 62.5374
L235.0294 62.5850
" />
<path d="M235.0294 62.5850
L235.1247 62.6326
" />
<path d="M235.1247 62.6326
L235.2675 62.6326
" />
<path d="M234.5056 62.6326
L234.5056 61.9660
" />
<path d="M234.5056 62.1565
L234.4580 62.0612
" />
<path d="M234.4580 62.0612
L234.4104 62.0136
" />
<path d="M234.4104 62.0136
L234.3152 61.9660
" />
<path d="M234.3152 61.9660
L234.2199 61.9660
" />
<path d="M233.8866 62.6326
L233.8866 61.9660
" />
<path d="M233.8866 62.0612
L233.8390 62.0136
" />
<path d="M233.8390 62.0136
L233.7437 61.9660
" />
<path d="M233.7437 61.9660
L233.6009 61.9660
" />
<path d="M233.6009 61.9660
L233.5056 62.0136
" />
<path d="M233.5056 62.0136
L233.4580 62.1088
" />
<path d="M233.4580 62.1088
L233.4580 62.6326
" />
<path d="M233.4580 62.1088
L233.4104 62.0136
" />
<path d="M233.4104 62.0136
L233.3152 61.9660
" />
<path d="M233.3152 61.9660
L233.1723 61.9660
" />
<path d="M233.1723 61.9660
L233.0771 62.0136
" />
<path d="M233.0771 62.0136
L233.0294 62.1088
" />
<path d="M233.0294 62.1088
L233.0294 62.6326
" />
<path d="M232.1247 62.6326
L232.1247 62.1088
" />
<path d="M232.1247 62.1088
L232.1723 62.0136
" />
<path d="M232.1723 62.0136
L232.2675 61.9660
" />
<path d="M232.2675 61.9660
L232.4580 61.9660
" />
<path d="M232.4580 61.9660
L232.5533 62.0136
" />
<path d="M232.1247 62.5850
L232.2199 62.6326
" />
<path d="M232.2199 62.6326
L232.4580 62.6326
" />
<path d="M232.4580 62.6326
L232.5533 62.5850
" />
<path d="M232.5533 62.5850
L232.6009 62.4898
" />
<path d="M232.6009 62.4898
L232.6009 62.3945
" />
<path d="M232.6009 62.3945
L232.5533 62.2993
" />
<path d="M232.5533 62.2993
L232.4580 62.2517
" />
<path d="M232.4580 62.2517
L232.2199 62.2517
" />
<path d="M232.2199 62.2517
L232.1247 62.2041
" />
<path d="M231.6485 61.9660
L231.6485 62.6326
" />
<path d="M231.6485 62.0612
L231.6009 62.0136
" />
<path d="M231.6009 62.0136
L231.5056 61.9660
" />
<path d="M231.5056 61.9660
L231.3628 61.9660
" />
<path d="M231.3628 61.9660
L231.2675 62.0136
" />
<path d="M231.2675 62.0136
L231.2199 62.1088
" />
<path d="M231.2199 62.1088
L231.2199 62.6326
" />
</g><text x="252.0000" y="64.3702"
transform="scale(-1 1) translate(-504.000000 0)"
textLength="9.4333" font-size="1.3333" lengthAdjust="spacingAndGlyphs"
text-anchor="start" opacity="0" stroke-opacity="0">Version v1.1</text>
<g class="stroked-text"><desc>Version v1.1</desc>
<path d="M251.8390 63.2426
L251.5056 64.2426
" />
<path d="M251.5056 64.2426
L251.1723 63.2426
" />
<path d="M250.4580 64.1950
L250.5533 64.2426
" />
<path d="M250.5533 64.2426
L250.7437 64.2426
" />
<path d="M250.7437 64.2426
L250.8390 64.1950
" />
<path d="M250.8390 64.1950
L250.8866 64.0997
" />
<path d="M250.8866 64.0997
L250.8866 63.7188
" />
<path d="M250.8866 63.7188
L250.8390 63.6235
" />
<path d="M250.8390 63.6235
L250.7437 63.5759
" />
<path d="M250.7437 63.5759
L250.5533 63.5759
" />
<path d="M250.5533 63.5759
L250.4580 63.6235
" />
<path d="M250.4580 63.6235
L250.4104 63.7188
" />
<path d="M250.4104 63.7188
L250.4104 63.8140
" />
<path d="M250.4104 63.8140
L250.8866 63.9093
" />
<path d="M249.9818 64.2426
L249.9818 63.5759
" />
<path d="M249.9818 63.7664
L249.9342 63.6712
" />
<path d="M249.9342 63.6712
L249.8866 63.6235
" />
<path d="M249.8866 63.6235
L249.7914 63.5759
" />
<path d="M249.7914 63.5759
L249.6961 63.5759
" />
<path d="M249.4104 64.1950
L249.3152 64.2426
" />
<path d="M249.3152 64.2426
L249.1247 64.2426
" />
<path d="M249.1247 64.2426
L249.0294 64.1950
" />
<path d="M249.0294 64.1950
L248.9818 64.0997
" />
<path d="M248.9818 64.0997
L248.9818 64.0521
" />
<path d="M248.9818 64.0521
L249.0294 63.9569
" />
<path d="M249.0294 63.9569
L249.1247 63.9093
" />
<path d="M249.1247 63.9093
L249.2675 63.9093
" />
<path d="M249.2675 63.9093
L249.3628 63.8616
" />
<path d="M249.3628 63.8616
L249.4104 63.7664
" />
<path d="M249.4104 63.7664
L249.4104 63.7188
" />
<path d="M249.4104 63.7188
L249.3628 63.6235
" />
<path d="M249.3628 63.6235
L249.2675 63.5759
" />
<path d="M249.2675 63.5759
L249.1247 63.5759
" />
<path d="M249.1247 63.5759
L249.0294 63.6235
" />
<path d="M248.5533 64.2426
L248.5533 63.5759
" />
<path d="M248.5533 63.2426
L248.6009 63.2902
" />
<path d="M248.6009 63.2902
L248.5533 63.3378
" />
<path d="M248.5533 63.3378
L248.5056 63.2902
" />
<path d="M248.5056 63.2902
L248.5533 63.2426
" />
<path d="M248.5533 63.2426
L248.5533 63.3378
" />
<path d="M247.9342 64.2426
L248.0294 64.1950
" />
<path d="M248.0294 64.1950
L248.0771 64.1473
" />
<path d="M248.0771 64.1473
L248.1247 64.0521
" />
<path d="M248.1247 64.0521
L248.1247 63.7664
" />
<path d="M248.1247 63.7664
L248.0771 63.6712
" />
<path d="M248.0771 63.6712
L248.0294 63.6235
" />
<path d="M248.0294 63.6235
L247.9342 63.5759
" />
<path d="M247.9342 63.5759
L247.7914 63.5759
" />
<path d="M247.7914 63.5759
L247.6961 63.6235
" />
<path d="M247.6961 63.6235
L247.6485 63.6712
" />
<path d="M247.6485 63.6712
L247.6009 63.7664
" />
<path d="M247.6009 63.7664
L247.6009 64.0521
" />
<path d="M247.6009 64.0521
L247.6485 64.1473
" />
<path d="M247.6485 64.1473
L247.6961 64.1950
" />
<path d="M247.6961 64.1950
L247.7914 64.2426
" />
<path d="M247.7914 64.2426
L247.9342 64.2426
" />
<path d="M247.1723 63.5759
L247.1723 64.2426
" />
<path d="M247.1723 63.6712
L247.1247 63.6235
" />
<path d="M247.1247 63.6235
L247.0294 63.5759
" />
<path d="M247.0294 63.5759
L246.8866 63.5759
" />
<path d="M246.8866 63.5759
L246.7914 63.6235
" />
<path d="M246.7914 63.6235
L246.7437 63.7188
" />
<path d="M246.7437 63.7188
L246.7437 64.2426
" />
<path d="M245.6009 63.5759
L245.3628 64.2426
" />
<path d="M245.3628 64.2426
L245.1247 63.5759
" />
<path d="M244.2199 64.2426
L244.7914 64.2426
" />
<path d="M244.5056 64.2426
L244.5056 63.2426
" />
<path d="M244.5056 63.2426
L244.6009 63.3854
" />
<path d="M244.6009 63.3854
L244.6961 63.4807
" />
<path d="M244.6961 63.4807
L244.7914 63.5283
" />
<path d="M243.7914 64.1473
L243.7437 64.1950
" />
<path d="M243.7437 64.1950
L243.7914 64.2426
" />
<path d="M243.7914 64.2426
L243.8390 64.1950
" />
<path d="M243.8390 64.1950
L243.7914 64.1473
" />
<path d="M243.7914 64.1473
L243.7914 64.2426
" />
<path d="M242.7914 64.2426
L243.3628 64.2426
" />
<path d="M243.0771 64.2426
L243.0771 63.2426
" />
<path d="M243.0771 63.2426
L243.1723 63.3854
" />
<path d="M243.1723 63.3854
L243.2675 63.4807
" />
<path d="M243.2675 63.4807
L243.3628 63.5283
" />
</g><text x="252.0000" y="65.9801"
transform="scale(-1 1) translate(-504.000000 0)"
textLength="14.2905" font-size="1.3333" lengthAdjust="spacingAndGlyphs"
text-anchor="start" opacity="0" stroke-opacity="0">Date 2024-10-13</text>
<g class="stroked-text"><desc>Date 2024-10-13</desc>
<path d="M251.6961 65.8525
L251.6961 64.8525
" />
<path d="M251.6961 64.8525
L251.4580 64.8525
" />
<path d="M251.4580 64.8525
L251.3152 64.9001
" />
<path d="M251.3152 64.9001
L251.2199 64.9954
" />
<path d="M251.2199 64.9954
L251.1723 65.0906
" />
<path d="M251.1723 65.0906
L251.1247 65.2811
" />
<path d="M251.1247 65.2811
L251.1247 65.4240
" />
<path d="M251.1247 65.4240
L251.1723 65.6144
" />
<path d="M251.1723 65.6144
L251.2199 65.7097
" />
<path d="M251.2199 65.7097
L251.3152 65.8049
" />
<path d="M251.3152 65.8049
L251.4580 65.8525
" />
<path d="M251.4580 65.8525
L251.6961 65.8525
" />
<path d="M250.2675 65.8525
L250.2675 65.3287
" />
<path d="M250.2675 65.3287
L250.3152 65.2335
" />
<path d="M250.3152 65.2335
L250.4104 65.1859
" />
<path d="M250.4104 65.1859
L250.6009 65.1859
" />
<path d="M250.6009 65.1859
L250.6961 65.2335
" />
<path d="M250.2675 65.8049
L250.3628 65.8525
" />
<path d="M250.3628 65.8525
L250.6009 65.8525
" />
<path d="M250.6009 65.8525
L250.6961 65.8049
" />
<path d="M250.6961 65.8049
L250.7437 65.7097
" />
<path d="M250.7437 65.7097
L250.7437 65.6144
" />
<path d="M250.7437 65.6144
L250.6961 65.5192
" />
<path d="M250.6961 65.5192
L250.6009 65.4716
" />
<path d="M250.6009 65.4716
L250.3628 65.4716
" />
<path d="M250.3628 65.4716
L250.2675 65.4240
" />
<path d="M249.9342 65.1859
L249.5533 65.1859
" />
<path d="M249.7914 64.8525
L249.7914 65.7097
" />
<path d="M249.7914 65.7097
L249.7437 65.8049
" />
<path d="M249.7437 65.8049
L249.6485 65.8525
" />
<path d="M249.6485 65.8525
L249.5533 65.8525
" />
<path d="M248.8390 65.8049
L248.9342 65.8525
" />
<path d="M248.9342 65.8525
L249.1247 65.8525
" />
<path d="M249.1247 65.8525
L249.2199 65.8049
" />
<path d="M249.2199 65.8049
L249.2675 65.7097
" />
<path d="M249.2675 65.7097
L249.2675 65.3287
" />
<path d="M249.2675 65.3287
L249.2199 65.2335
" />
<path d="M249.2199 65.2335
L249.1247 65.1859
" />
<path d="M249.1247 65.1859
L248.9342 65.1859
" />
<path d="M248.9342 65.1859
L248.8390 65.2335
" />
<path d="M248.8390 65.2335
L248.7914 65.3287
" />
<path d="M248.7914 65.3287
L248.7914 65.4240
" />
<path d="M248.7914 65.4240
L249.2675 65.5192
" />
<path d="M247.6485 64.9478
L247.6009 64.9001
" />
<path d="M247.6009 64.9001
L247.5056 64.8525
" />
<path d="M247.5056 64.8525
L247.2675 64.8525
" />
<path d="M247.2675 64.8525
L247.1723 64.9001
" />
<path d="M247.1723 64.9001
L247.1247 64.9478
" />
<path d="M247.1247 64.9478
L247.0771 65.0430
" />
<path d="M247.0771 65.0430
L247.0771 65.1382
" />
<path d="M247.0771 65.1382
L247.1247 65.2811
" />
<path d="M247.1247 65.2811
L247.6961 65.8525
" />
<path d="M247.6961 65.8525
L247.0771 65.8525
" />
<path d="M246.4580 64.8525
L246.3628 64.8525
" />
<path d="M246.3628 64.8525
L246.2675 64.9001
" />
<path d="M246.2675 64.9001
L246.2199 64.9478
" />
<path d="M246.2199 64.9478
L246.1723 65.0430
" />
<path d="M246.1723 65.0430
L246.1247 65.2335
" />
<path d="M246.1247 65.2335
L246.1247 65.4716
" />
<path d="M246.1247 65.4716
L246.1723 65.6621
" />
<path d="M246.1723 65.6621
L246.2199 65.7573
" />
<path d="M246.2199 65.7573
L246.2675 65.8049
" />
<path d="M246.2675 65.8049
L246.3628 65.8525
" />
<path d="M246.3628 65.8525
L246.4580 65.8525
" />
<path d="M246.4580 65.8525
L246.5533 65.8049
" />
<path d="M246.5533 65.8049
L246.6009 65.7573
" />
<path d="M246.6009 65.7573
L246.6485 65.6621
" />
<path d="M246.6485 65.6621
L246.6961 65.4716
" />
<path d="M246.6961 65.4716
L246.6961 65.2335
" />
<path d="M246.6961 65.2335
L246.6485 65.0430
" />
<path d="M246.6485 65.0430
L246.6009 64.9478
" />
<path d="M246.6009 64.9478
L246.5533 64.9001
" />
<path d="M246.5533 64.9001
L246.4580 64.8525
" />
<path d="M245.7437 64.9478
L245.6961 64.9001
" />
<path d="M245.6961 64.9001
L245.6009 64.8525
" />
<path d="M245.6009 64.8525
L245.3628 64.8525
" />
<path d="M245.3628 64.8525
L245.2675 64.9001
" />
<path d="M245.2675 64.9001
L245.2199 64.9478
" />
<path d="M245.2199 64.9478
L245.1723 65.0430
" />
<path d="M245.1723 65.0430
L245.1723 65.1382
" />
<path d="M245.1723 65.1382
L245.2199 65.2811
" />
<path d="M245.2199 65.2811
L245.7914 65.8525
" />
<path d="M245.7914 65.8525
L245.1723 65.8525
" />
<path d="M244.3152 65.1859
L244.3152 65.8525
" />
<path d="M244.5533 64.8049
L244.7914 65.5192
" />
<path d="M244.7914 65.5192
L244.1723 65.5192
" />
<path d="M243.7914 65.4716
L243.0294 65.4716
" />
<path d="M242.0294 65.8525
L242.6009 65.8525
" />
<path d="M242.3152 65.8525
L242.3152 64.8525
" />
<path d="M242.3152 64.8525
L242.4104 64.9954
" />
<path d="M242.4104 64.9954
L242.5056 65.0906
" />
<path d="M242.5056 65.0906
L242.6009 65.1382
" />
<path d="M241.4104 64.8525
L241.3152 64.8525
" />
<path d="M241.3152 64.8525
L241.2199 64.9001
" />
<path d="M241.2199 64.9001
L241.1723 64.9478
" />
<path d="M241.1723 64.9478
L241.1247 65.0430
" />
<path d="M241.1247 65.0430
L241.0771 65.2335
" />
<path d="M241.0771 65.2335
L241.0771 65.4716
" />
<path d="M241.0771 65.4716
L241.1247 65.6621
" />
<path d="M241.1247 65.6621
L241.1723 65.7573
" />
<path d="M241.1723 65.7573
L241.2199 65.8049
" />
<path d="M241.2199 65.8049
L241.3152 65.8525
" />
<path d="M241.3152 65.8525
L241.4104 65.8525
" />
<path d="M241.4104 65.8525
L241.5056 65.8049
" />
<path d="M241.5056 65.8049
L241.5533 65.7573
" />
<path d="M241.5533 65.7573
L241.6009 65.6621
" />
<path d="M241.6009 65.6621
L241.6485 65.4716
" />
<path d="M241.6485 65.4716
L241.6485 65.2335
" />
<path d="M241.6485 65.2335
L241.6009 65.0430
" />
<path d="M241.6009 65.0430
L241.5533 64.9478
" />
<path d="M241.5533 64.9478
L241.5056 64.9001
" />
<path d="M241.5056 64.9001
L241.4104 64.8525
" />
<path d="M240.6485 65.4716
L239.8866 65.4716
" />
<path d="M238.8866 65.8525
L239.4580 65.8525
" />
<path d="M239.1723 65.8525
L239.1723 64.8525
" />
<path d="M239.1723 64.8525
L239.2675 64.9954
" />
<path d="M239.2675 64.9954
L239.3628 65.0906
" />
<path d="M239.3628 65.0906
L239.4580 65.1382
" />
<path d="M238.5533 64.8525
L237.9342 64.8525
" />
<path d="M237.9342 64.8525
L238.2675 65.2335
" />
<path d="M238.2675 65.2335
L238.1247 65.2335
" />
<path d="M238.1247 65.2335
L238.0294 65.2811
" />
<path d="M238.0294 65.2811
L237.9818 65.3287
" />
<path d="M237.9818 65.3287
L237.9342 65.4240
" />
<path d="M237.9342 65.4240
L237.9342 65.6621
" />
<path d="M237.9342 65.6621
L237.9818 65.7573
" />
<path d="M237.9818 65.7573
L238.0294 65.8049
" />
<path d="M238.0294 65.8049
L238.1247 65.8525
" />
<path d="M238.1247 65.8525
L238.4104 65.8525
" />
<path d="M238.4104 65.8525
L238.5056 65.8049
" />
<path d="M238.5056 65.8049
L238.5533 65.7573
" />
</g><text x="252.0000" y="67.5901"
transform="scale(-1 1) translate(-504.000000 0)"
textLength="33.7667" font-size="1.3333" lengthAdjust="spacingAndGlyphs"
text-anchor="start" opacity="0" stroke-opacity="0">https://github.com/pimborman/nixie-clock</text>
<g class="stroked-text"><desc>https://github.com/pimborman/nixie-clock</desc>
<path d="M251.6961 67.4625
L251.6961 66.4625
" />
<path d="M251.2675 67.4625
L251.2675 66.9387
" />
<path d="M251.2675 66.9387
L251.3152 66.8434
" />
<path d="M251.3152 66.8434
L251.4104 66.7958
" />
<path d="M251.4104 66.7958
L251.5533 66.7958
" />
<path d="M251.5533 66.7958
L251.6485 66.8434
" />
<path d="M251.6485 66.8434
L251.6961 66.8910
" />
<path d="M250.9342 66.7958
L250.5533 66.7958
" />
<path d="M250.7914 66.4625
L250.7914 67.3196
" />
<path d="M250.7914 67.3196
L250.7437 67.4149
" />
<path d="M250.7437 67.4149
L250.6485 67.4625
" />
<path d="M250.6485 67.4625
L250.5533 67.4625
" />
<path d="M250.3628 66.7958
L249.9818 66.7958
" />
<path d="M250.2199 66.4625
L250.2199 67.3196
" />
<path d="M250.2199 67.3196
L250.1723 67.4149
" />
<path d="M250.1723 67.4149
L250.0771 67.4625
" />
<path d="M250.0771 67.4625
L249.9818 67.4625
" />
<path d="M249.6485 66.7958
L249.6485 67.7958
" />
<path d="M249.6485 66.8434
L249.5533 66.7958
" />
<path d="M249.5533 66.7958
L249.3628 66.7958
" />
<path d="M249.3628 66.7958
L249.2675 66.8434
" />
<path d="M249.2675 66.8434
L249.2199 66.8910
" />
<path d="M249.2199 66.8910
L249.1723 66.9863
" />
<path d="M249.1723 66.9863
L249.1723 67.2720
" />
<path d="M249.1723 67.2720
L249.2199 67.3672
" />
<path d="M249.2199 67.3672
L249.2675 67.4149
" />
<path d="M249.2675 67.4149
L249.3628 67.4625
" />
<path d="M249.3628 67.4625
L249.5533 67.4625
" />
<path d="M249.5533 67.4625
L249.6485 67.4149
" />
<path d="M248.7914 67.4149
L248.6961 67.4625
" />
<path d="M248.6961 67.4625
L248.5056 67.4625
" />
<path d="M248.5056 67.4625
L248.4104 67.4149
" />
<path d="M248.4104 67.4149
L248.3628 67.3196
" />
<path d="M248.3628 67.3196
L248.3628 67.2720
" />
<path d="M248.3628 67.2720
L248.4104 67.1768
" />
<path d="M248.4104 67.1768
L248.5056 67.1291
" />
<path d="M248.5056 67.1291
L248.6485 67.1291
" />
<path d="M248.6485 67.1291
L248.7437 67.0815
" />
<path d="M248.7437 67.0815
L248.7914 66.9863
" />
<path d="M248.7914 66.9863
L248.7914 66.9387
" />
<path d="M248.7914 66.9387
L248.7437 66.8434
" />
<path d="M248.7437 66.8434
L248.6485 66.7958
" />
<path d="M248.6485 66.7958
L248.5056 66.7958
" />
<path d="M248.5056 66.7958
L248.4104 66.8434
" />
<path d="M247.9342 67.3672
L247.8866 67.4149
" />
<path d="M247.8866 67.4149
L247.9342 67.4625
" />
<path d="M247.9342 67.4625
L247.9818 67.4149
" />
<path d="M247.9818 67.4149
L247.9342 67.3672
" />
<path d="M247.9342 67.3672
L247.9342 67.4625
" />
<path d="M247.9342 66.8434
L247.8866 66.8910
" />
<path d="M247.8866 66.8910
L247.9342 66.9387
" />
<path d="M247.9342 66.9387
L247.9818 66.8910
" />
<path d="M247.9818 66.8910
L247.9342 66.8434
" />
<path d="M247.9342 66.8434
L247.9342 66.9387
" />
<path d="M246.7437 66.4149
L247.6009 67.7006
" />
<path d="M245.6961 66.4149
L246.5533 67.7006
" />
<path d="M244.9342 66.7958
L244.9342 67.6053
" />
<path d="M244.9342 67.6053
L244.9818 67.7006
" />
<path d="M244.9818 67.7006
L245.0294 67.7482
" />
<path d="M245.0294 67.7482
L245.1247 67.7958
" />
<path d="M245.1247 67.7958
L245.2675 67.7958
" />
<path d="M245.2675 67.7958
L245.3628 67.7482
" />
<path d="M244.9342 67.4149
L245.0294 67.4625
" />
<path d="M245.0294 67.4625
L245.2199 67.4625
" />
<path d="M245.2199 67.4625
L245.3152 67.4149
" />
<path d="M245.3152 67.4149
L245.3628 67.3672
" />
<path d="M245.3628 67.3672
L245.4104 67.2720
" />
<path d="M245.4104 67.2720
L245.4104 66.9863
" />
<path d="M245.4104 66.9863
L245.3628 66.8910
" />
<path d="M245.3628 66.8910
L245.3152 66.8434
" />
<path d="M245.3152 66.8434
L245.2199 66.7958
" />
<path d="M245.2199 66.7958
L245.0294 66.7958
" />
<path d="M245.0294 66.7958
L244.9342 66.8434
" />
<path d="M244.4580 67.4625
L244.4580 66.7958
" />
<path d="M244.4580 66.4625
L244.5056 66.5101
" />
<path d="M244.5056 66.5101
L244.4580 66.5577
" />
<path d="M244.4580 66.5577
L244.4104 66.5101
" />
<path d="M244.4104 66.5101
L244.4580 66.4625
" />
<path d="M244.4580 66.4625
L244.4580 66.5577
" />
<path d="M244.1247 66.7958
L243.7437 66.7958
" />
<path d="M243.9818 66.4625
L243.9818 67.3196
" />
<path d="M243.9818 67.3196
L243.9342 67.4149
" />
<path d="M243.9342 67.4149
L243.8390 67.4625
" />
<path d="M243.8390 67.4625
L243.7437 67.4625
" />
<path d="M243.4104 67.4625
L243.4104 66.4625
" />
<path d="M242.9818 67.4625
L242.9818 66.9387
" />
<path d="M242.9818 66.9387
L243.0294 66.8434
" />
<path d="M243.0294 66.8434
L243.1247 66.7958
" />
<path d="M243.1247 66.7958
L243.2675 66.7958
" />
<path d="M243.2675 66.7958
L243.3628 66.8434
" />
<path d="M243.3628 66.8434
L243.4104 66.8910
" />
<path d="M242.0771 66.7958
L242.0771 67.4625
" />
<path d="M242.5056 66.7958
L242.5056 67.3196
" />
<path d="M242.5056 67.3196
L242.4580 67.4149
" />
<path d="M242.4580 67.4149
L242.3628 67.4625
" />
<path d="M242.3628 67.4625
L242.2199 67.4625
" />
<path d="M242.2199 67.4625
L242.1247 67.4149
" />
<path d="M242.1247 67.4149
L242.0771 67.3672
" />
<path d="M241.6009 67.4625
L241.6009 66.4625
" />
<path d="M241.6009 66.8434
L241.5056 66.7958
" />
<path d="M241.5056 66.7958
L241.3152 66.7958
" />
<path d="M241.3152 66.7958
L241.2199 66.8434
" />
<path d="M241.2199 66.8434
L241.1723 66.8910
" />
<path d="M241.1723 66.8910
L241.1247 66.9863
" />
<path d="M241.1247 66.9863
L241.1247 67.2720
" />
<path d="M241.1247 67.2720
L241.1723 67.3672
" />
<path d="M241.1723 67.3672
L241.2199 67.4149
" />
<path d="M241.2199 67.4149
L241.3152 67.4625
" />
<path d="M241.3152 67.4625
L241.5056 67.4625
" />
<path d="M241.5056 67.4625
L241.6009 67.4149
" />
<path d="M240.6961 67.3672
L240.6485 67.4149
" />
<path d="M240.6485 67.4149
L240.6961 67.4625
" />
<path d="M240.6961 67.4625
L240.7437 67.4149
" />
<path d="M240.7437 67.4149
L240.6961 67.3672
" />
<path d="M240.6961 67.3672
L240.6961 67.4625
" />
<path d="M239.7914 67.4149
L239.8866 67.4625
" />
<path d="M239.8866 67.4625
L240.0771 67.4625
" />
<path d="M240.0771 67.4625
L240.1723 67.4149
" />
<path d="M240.1723 67.4149
L240.2199 67.3672
" />
<path d="M240.2199 67.3672
L240.2675 67.2720
" />
<path d="M240.2675 67.2720
L240.2675 66.9863
" />
<path d="M240.2675 66.9863
L240.2199 66.8910
" />
<path d="M240.2199 66.8910
L240.1723 66.8434
" />
<path d="M240.1723 66.8434
L240.0771 66.7958
" />
<path d="M240.0771 66.7958
L239.8866 66.7958
" />
<path d="M239.8866 66.7958
L239.7914 66.8434
" />
<path d="M239.2199 67.4625
L239.3152 67.4149
" />
<path d="M239.3152 67.4149
L239.3628 67.3672
" />
<path d="M239.3628 67.3672
L239.4104 67.2720
" />
<path d="M239.4104 67.2720
L239.4104 66.9863
" />
<path d="M239.4104 66.9863
L239.3628 66.8910
" />
<path d="M239.3628 66.8910
L239.3152 66.8434
" />
<path d="M239.3152 66.8434
L239.2199 66.7958
" />
<path d="M239.2199 66.7958
L239.0771 66.7958
" />
<path d="M239.0771 66.7958
L238.9818 66.8434
" />
<path d="M238.9818 66.8434
L238.9342 66.8910
" />
<path d="M238.9342 66.8910
L238.8866 66.9863
" />
<path d="M238.8866 66.9863
L238.8866 67.2720
" />
<path d="M238.8866 67.2720
L238.9342 67.3672
" />
<path d="M238.9342 67.3672
L238.9818 67.4149
" />
<path d="M238.9818 67.4149
L239.0771 67.4625
" />
<path d="M239.0771 67.4625
L239.2199 67.4625
" />
<path d="M238.4580 67.4625
L238.4580 66.7958
" />
<path d="M238.4580 66.8910
L238.4104 66.8434
" />
<path d="M238.4104 66.8434
L238.3152 66.7958
" />
<path d="M238.3152 66.7958
L238.1723 66.7958
" />
<path d="M238.1723 66.7958
L238.0771 66.8434
" />
<path d="M238.0771 66.8434
L238.0294 66.9387
" />
<path d="M238.0294 66.9387
L238.0294 67.4625
" />
<path d="M238.0294 66.9387
L237.9818 66.8434
" />
<path d="M237.9818 66.8434
L237.8866 66.7958
" />
<path d="M237.8866 66.7958
L237.7437 66.7958
" />
<path d="M237.7437 66.7958
L237.6485 66.8434
" />
<path d="M237.6485 66.8434
L237.6009 66.9387
" />
<path d="M237.6009 66.9387
L237.6009 67.4625
" />
<path d="M236.4104 66.4149
L237.2675 67.7006
" />
<path d="M236.0771 66.7958
L236.0771 67.7958
" />
<path d="M236.0771 66.8434
L235.9818 66.7958
" />
<path d="M235.9818 66.7958
L235.7914 66.7958
" />
<path d="M235.7914 66.7958
L235.6961 66.8434
" />
<path d="M235.6961 66.8434
L235.6485 66.8910
" />
<path d="M235.6485 66.8910
L235.6009 66.9863
" />
<path d="M235.6009 66.9863
L235.6009 67.2720
" />
<path d="M235.6009 67.2720
L235.6485 67.3672
" />
<path d="M235.6485 67.3672
L235.6961 67.4149
" />
<path d="M235.6961 67.4149
L235.7914 67.4625
" />
<path d="M235.7914 67.4625
L235.9818 67.4625
" />
<path d="M235.9818 67.4625
L236.0771 67.4149
" />
<path d="M235.1723 67.4625
L235.1723 66.7958
" />
<path d="M235.1723 66.4625
L235.2199 66.5101
" />
<path d="M235.2199 66.5101
L235.1723 66.5577
" />
<path d="M235.1723 66.5577
L235.1247 66.5101
" />
<path d="M235.1247 66.5101
L235.1723 66.4625
" />
<path d="M235.1723 66.4625
L235.1723 66.5577
" />
<path d="M234.6961 67.4625
L234.6961 66.7958
" />
<path d="M234.6961 66.8910
L234.6485 66.8434
" />
<path d="M234.6485 66.8434
L234.5533 66.7958
" />
<path d="M234.5533 66.7958
L234.4104 66.7958
" />
<path d="M234.4104 66.7958
L234.3152 66.8434
" />
<path d="M234.3152 66.8434
L234.2675 66.9387
" />
<path d="M234.2675 66.9387
L234.2675 67.4625
" />
<path d="M234.2675 66.9387
L234.2199 66.8434
" />
<path d="M234.2199 66.8434
L234.1247 66.7958
" />
<path d="M234.1247 66.7958
L233.9818 66.7958
" />
<path d="M233.9818 66.7958
L233.8866 66.8434
" />
<path d="M233.8866 66.8434
L233.8390 66.9387
" />
<path d="M233.8390 66.9387
L233.8390 67.4625
" />
<path d="M233.3628 67.4625
L233.3628 66.4625
" />
<path d="M233.3628 66.8434
L233.2675 66.7958
" />
<path d="M233.2675 66.7958
L233.0771 66.7958
" />
<path d="M233.0771 66.7958
L232.9818 66.8434
" />
<path d="M232.9818 66.8434
L232.9342 66.8910
" />
<path d="M232.9342 66.8910
L232.8866 66.9863
" />
<path d="M232.8866 66.9863
L232.8866 67.2720
" />
<path d="M232.8866 67.2720
L232.9342 67.3672
" />
<path d="M232.9342 67.3672
L232.9818 67.4149
" />
<path d="M232.9818 67.4149
L233.0771 67.4625
" />
<path d="M233.0771 67.4625
L233.2675 67.4625
" />
<path d="M233.2675 67.4625
L233.3628 67.4149
" />
<path d="M232.3152 67.4625
L232.4104 67.4149
" />
<path d="M232.4104 67.4149
L232.4580 67.3672
" />
<path d="M232.4580 67.3672
L232.5056 67.2720
" />
<path d="M232.5056 67.2720
L232.5056 66.9863
" />
<path d="M232.5056 66.9863
L232.4580 66.8910
" />
<path d="M232.4580 66.8910
L232.4104 66.8434
" />
<path d="M232.4104 66.8434
L232.3152 66.7958
" />
<path d="M232.3152 66.7958
L232.1723 66.7958
" />
<path d="M232.1723 66.7958
L232.0771 66.8434
" />
<path d="M232.0771 66.8434
L232.0294 66.8910
" />
<path d="M232.0294 66.8910
L231.9818 66.9863
" />
<path d="M231.9818 66.9863
L231.9818 67.2720
" />
<path d="M231.9818 67.2720
L232.0294 67.3672
" />
<path d="M232.0294 67.3672
L232.0771 67.4149
" />
<path d="M232.0771 67.4149
L232.1723 67.4625
" />
<path d="M232.1723 67.4625
L232.3152 67.4625
" />
<path d="M231.5533 67.4625
L231.5533 66.7958
" />
<path d="M231.5533 66.9863
L231.5056 66.8910
" />
<path d="M231.5056 66.8910
L231.4580 66.8434
" />
<path d="M231.4580 66.8434
L231.3628 66.7958
" />
<path d="M231.3628 66.7958
L231.2675 66.7958
" />
<path d="M230.9342 67.4625
L230.9342 66.7958
" />
<path d="M230.9342 66.8910
L230.8866 66.8434
" />
<path d="M230.8866 66.8434
L230.7914 66.7958
" />
<path d="M230.7914 66.7958
L230.6485 66.7958
" />
<path d="M230.6485 66.7958
L230.5533 66.8434
" />
<path d="M230.5533 66.8434
L230.5056 66.9387
" />
<path d="M230.5056 66.9387
L230.5056 67.4625
" />
<path d="M230.5056 66.9387
L230.4580 66.8434
" />
<path d="M230.4580 66.8434
L230.3628 66.7958
" />
<path d="M230.3628 66.7958
L230.2199 66.7958
" />
<path d="M230.2199 66.7958
L230.1247 66.8434
" />
<path d="M230.1247 66.8434
L230.0771 66.9387
" />
<path d="M230.0771 66.9387
L230.0771 67.4625
" />
<path d="M229.1723 67.4625
L229.1723 66.9387
" />
<path d="M229.1723 66.9387
L229.2199 66.8434
" />
<path d="M229.2199 66.8434
L229.3152 66.7958
" />
<path d="M229.3152 66.7958
L229.5056 66.7958
" />
<path d="M229.5056 66.7958
L229.6009 66.8434
" />
<path d="M229.1723 67.4149
L229.2675 67.4625
" />
<path d="M229.2675 67.4625
L229.5056 67.4625
" />
<path d="M229.5056 67.4625
L229.6009 67.4149
" />
<path d="M229.6009 67.4149
L229.6485 67.3196
" />
<path d="M229.6485 67.3196
L229.6485 67.2244
" />
<path d="M229.6485 67.2244
L229.6009 67.1291
" />
<path d="M229.6009 67.1291
L229.5056 67.0815
" />
<path d="M229.5056 67.0815
L229.2675 67.0815
" />
<path d="M229.2675 67.0815
L229.1723 67.0339
" />
<path d="M228.6961 66.7958
L228.6961 67.4625
" />
<path d="M228.6961 66.8910
L228.6485 66.8434
" />
<path d="M228.6485 66.8434
L228.5533 66.7958
" />
<path d="M228.5533 66.7958
L228.4104 66.7958
" />
<path d="M228.4104 66.7958
L228.3152 66.8434
" />
<path d="M228.3152 66.8434
L228.2675 66.9387
" />
<path d="M228.2675 66.9387
L228.2675 67.4625
" />
<path d="M227.0771 66.4149
L227.9342 67.7006
" />
<path d="M226.7437 66.7958
L226.7437 67.4625
" />
<path d="M226.7437 66.8910
L226.6961 66.8434
" />
<path d="M226.6961 66.8434
L226.6009 66.7958
" />
<path d="M226.6009 66.7958
L226.4580 66.7958
" />
<path d="M226.4580 66.7958
L226.3628 66.8434
" />
<path d="M226.3628 66.8434
L226.3152 66.9387
" />
<path d="M226.3152 66.9387
L226.3152 67.4625
" />
<path d="M225.8390 67.4625
L225.8390 66.7958
" />
<path d="M225.8390 66.4625
L225.8866 66.5101
" />
<path d="M225.8866 66.5101
L225.8390 66.5577
" />
<path d="M225.8390 66.5577
L225.7914 66.5101
" />
<path d="M225.7914 66.5101
L225.8390 66.4625
" />
<path d="M225.8390 66.4625
L225.8390 66.5577
" />
<path d="M225.4580 67.4625
L224.9342 66.7958
" />
<path d="M225.4580 66.7958
L224.9342 67.4625
" />
<path d="M224.5533 67.4625
L224.5533 66.7958
" />
<path d="M224.5533 66.4625
L224.6009 66.5101
" />
<path d="M224.6009 66.5101
L224.5533 66.5577
" />
<path d="M224.5533 66.5577
L224.5056 66.5101
" />
<path d="M224.5056 66.5101
L224.5533 66.4625
" />
<path d="M224.5533 66.4625
L224.5533 66.5577
" />
<path d="M223.6961 67.4149
L223.7914 67.4625
" />
<path d="M223.7914 67.4625
L223.9818 67.4625
" />
<path d="M223.9818 67.4625
L224.0771 67.4149
" />
<path d="M224.0771 67.4149
L224.1247 67.3196
" />
<path d="M224.1247 67.3196
L224.1247 66.9387
" />
<path d="M224.1247 66.9387
L224.0771 66.8434
" />
<path d="M224.0771 66.8434
L223.9818 66.7958
" />
<path d="M223.9818 66.7958
L223.7914 66.7958
" />
<path d="M223.7914 66.7958
L223.6961 66.8434
" />
<path d="M223.6961 66.8434
L223.6485 66.9387
" />
<path d="M223.6485 66.9387
L223.6485 67.0339
" />
<path d="M223.6485 67.0339
L224.1247 67.1291
" />
<path d="M223.2199 67.0815
L222.4580 67.0815
" />
<path d="M221.5533 67.4149
L221.6485 67.4625
" />
<path d="M221.6485 67.4625
L221.8390 67.4625
" />
<path d="M221.8390 67.4625
L221.9342 67.4149
" />
<path d="M221.9342 67.4149
L221.9818 67.3672
" />
<path d="M221.9818 67.3672
L222.0294 67.2720
" />
<path d="M222.0294 67.2720
L222.0294 66.9863
" />
<path d="M222.0294 66.9863
L221.9818 66.8910
" />
<path d="M221.9818 66.8910
L221.9342 66.8434
" />
<path d="M221.9342 66.8434
L221.8390 66.7958
" />
<path d="M221.8390 66.7958
L221.6485 66.7958
" />
<path d="M221.6485 66.7958
L221.5533 66.8434
" />
<path d="M220.9818 67.4625
L221.0771 67.4149
" />
<path d="M221.0771 67.4149
L221.1247 67.3196
" />
<path d="M221.1247 67.3196
L221.1247 66.4625
" />
<path d="M220.4580 67.4625
L220.5533 67.4149
" />
<path d="M220.5533 67.4149
L220.6009 67.3672
" />
<path d="M220.6009 67.3672
L220.6485 67.2720
" />
<path d="M220.6485 67.2720
L220.6485 66.9863
" />
<path d="M220.6485 66.9863
L220.6009 66.8910
" />
<path d="M220.6009 66.8910
L220.5533 66.8434
" />
<path d="M220.5533 66.8434
L220.4580 66.7958
" />
<path d="M220.4580 66.7958
L220.3152 66.7958
" />
<path d="M220.3152 66.7958
L220.2199 66.8434
" />
<path d="M220.2199 66.8434
L220.1723 66.8910
" />
<path d="M220.1723 66.8910
L220.1247 66.9863
" />
<path d="M220.1247 66.9863
L220.1247 67.2720
" />
<path d="M220.1247 67.2720
L220.1723 67.3672
" />
<path d="M220.1723 67.3672
L220.2199 67.4149
" />
<path d="M220.2199 67.4149
L220.3152 67.4625
" />
<path d="M220.3152 67.4625
L220.4580 67.4625
" />
<path d="M219.2675 67.4149
L219.3628 67.4625
" />
<path d="M219.3628 67.4625
L219.5533 67.4625
" />
<path d="M219.5533 67.4625
L219.6485 67.4149
" />
<path d="M219.6485 67.4149
L219.6961 67.3672
" />
<path d="M219.6961 67.3672
L219.7437 67.2720
" />
<path d="M219.7437 67.2720
L219.7437 66.9863
" />
<path d="M219.7437 66.9863
L219.6961 66.8910
" />
<path d="M219.6961 66.8910
L219.6485 66.8434
" />
<path d="M219.6485 66.8434
L219.5533 66.7958
" />
<path d="M219.5533 66.7958
L219.3628 66.7958
" />
<path d="M219.3628 66.7958
L219.2675 66.8434
" />
<path d="M218.8390 67.4625
L218.8390 66.4625
" />
<path d="M218.7437 67.0815
L218.4580 67.4625
" />
<path d="M218.4580 66.7958
L218.8390 67.1768
" />
</g><text x="252.0000" y="69.2000"
transform="scale(-1 1) translate(-504.000000 0)"
textLength="0.3000" font-size="1.3333" lengthAdjust="spacingAndGlyphs"
text-anchor="start" opacity="0" stroke-opacity="0"></text>
<g class="stroked-text"><desc></desc>
</g></g>
<g style="fill:none; 
stroke:#000000; stroke-width:0.1500; stroke-opacity:1; 
stroke-linecap:round; stroke-linejoin:round;">
<text x="128.0000" y="73.3000"
transform="scale(-1 1) translate(-256.000000 0)"
textLength="1.9643" font-size="1.3333" lengthAdjust="spacingAndGlyphs"
text-anchor="middle" opacity="0" stroke-opacity="0">J1</text>
<g class="stroked-text"><desc>J1</desc>
<path d="M128.3333 72.2548
L128.3333 72.9691
" />
<path d="M128.3333 72.9691
L128.3810 73.1120
" />
<path d="M128.3810 73.1120
L128.4762 73.2072
" />
<path d="M128.4762 73.2072
L128.6190 73.2548
" />
<path d="M128.6190 73.2548
L128.7143 73.2548
" />
<path d="M127.3333 73.2548
L127.9048 73.2548
" />
<path d="M127.6190 73.2548
L127.6190 72.2548
" />
<path d="M127.6190 72.2548
L127.7143 72.3977
" />
<path d="M127.7143 72.3977
L127.8095 72.4929
" />
<path d="M127.8095 72.4929
L127.9048 72.5405
" />
</g></g>
<g style="fill:none; 
stroke:#000000; stroke-width:0.1200; stroke-opacity:1; 
stroke-linecap:round; stroke-linejoin:round;">
<path d="M123.3200 61.8440
L133.6000 61.8440
" />
<path d="M123.3200 64.8040
L133.6000 64.8040
" />
<path d="M123.3200 69.7050
L133.6000 69.7050
" />
<path d="M123.3200 71.2050
L133.6000 71.2050
" />
<path d="M123.3200 71.7650
L123.3200 61.8440
" />
<path d="M123.3200 71.7650
L133.6000 71.7650
" />
<path d="M124.6920 66.0820
L124.6450 66.0360
" />
<path d="M124.8850 65.8660
L124.8500 65.8300
" />
<path d="M126.9890 68.3790
L126.9540 68.3440
" />
<path d="M127.1940 68.1740
L127.1470 68.1280
" />
<path d="M133.3400 72.0050
L133.8400 72.0050
" />
<path d="M133.6000 71.7650
L133.6000 61.8440
" />
<path d="M133.8400 72.0050
L133.8400 71.2650
" />
<path d="M129.4646 66.4220 A1.6805 1.6805 0.0 0 0 129.4650 67.7890" />
<path d="M131.6830 65.5696 A1.6805 1.6805 0.0 0 0 130.3160 65.5700" />
<path d="M130.3167 68.6398 A1.6800 1.6800 0.0 0 0 131.0000 68.7850" />
<path d="M130.9712 68.7853 A1.6805 1.6805 0.0 0 0 131.6840 68.6400" />
<path d="M132.5354 67.7880 A1.6805 1.6805 0.0 0 0 132.5350 66.4210" />
<circle cx="125.9200" cy="67.1050" r="1.6800" /> 
</g>
<g style="fill:#000000; fill-opacity:1.0000; stroke:none;">
<circle cx="168.2000" cy="86.9800" r="0.4000" /> 
</g>
<g style="fill:#000000; fill-opacity:1.0000; stroke:none;">
<circle cx="165.6600" cy="86.9800" r="0.4000" /> 
</g>
<g style="fill:#000000; fill-opacity:1.0000; stroke:none;">
<circle cx="163.1200" cy="86.9800" r="0.4000" /> 
</g>
<g style="fill:#000000; fill-opacity:1.0000; stroke:none;">
<circle cx="160.5800" cy="86.9800" r="0.4000" /> 
</g>
<g style="fill:#000000; fill-opacity:1.0000; stroke:none;">
<circle cx="158.0400" cy="86.9800" r="0.4000" /> 
</g>
<g style="fill:#000000; fill-opacity:1.0000; stroke:none;">
<circle cx="155.5000" cy="86.9800" r="0.4000" /> 
</g>
<g style="fill:#000000; fill-opacity:1.0000; stroke:none;">
<circle cx="152.9600" cy="86.9800" r="0.4000" /> 
</g>
<g style="fill:#000000; fill-opacity:1.0000; stroke:none;">
<circle cx="150.4200" cy="86.9800" r="0.4000" /> 
</g>
<g style="fill:#000000; fill-opacity:1.0000; stroke:none;">
<circle cx="150.4200" cy="94.6000" r="0.4000" /> 
</g>
<g style="fill:#000000; fill-opacity:1.0000; stroke:none;">
<circle cx="152.9600" cy="94.6000" r="0.4000" /> 
</g>
<g style="fill:#000000; fill-opacity:1.0000; stroke:none;">
<circle cx="155.5000" cy="94.6000" r="0.4000" /> 
</g>
<g style="fill:#000000; fill-opacity:1.0000; stroke:none;">
<circle cx="158.0400" cy="94.6000" r="0.4000" /> 
</g>
<g style="fill:#000000; fill-opacity:1.0000; stroke:none;">
<circle cx="160.5800" cy="94.6000" r="0.4000" /> 
</g>
<g style="fill:#000000; fill-opacity:1.0000; stroke:none;">
<circle cx="163.1200" cy="94.6000" r="0.4000" /> 
</g>
<g style="fill:#000000; fill-opacity:1.0000; stroke:none;">
<circle cx="165.6600" cy="94.6000" r="0.4000" /> 
</g>
<g style="fill:#000000; fill-opacity:1.0000; stroke:none;">
<circle cx="168.2000" cy="94.6000" r="0.4000" /> 
</g>
<g style="fill:#000000; fill-opacity:1.0000; stroke:none;">
<circle cx="108.1200" cy="85.0000" r="0.5000" /> 
</g>
<g style="fill:#000000; fill-opacity:1.0000; stroke:none;">
<circle cx="105.6200" cy="82.5000" r="0.5000" /> 
</g>
<g style="fill:#000000; fill-opacity:1.0000; stroke:none;">
<circle cx="103.1200" cy="85.0000" r="0.5000" /> 
</g>
<g style="fill:#000000; fill-opacity:1.0000; stroke:none;">
<circle cx="116.1200" cy="66.5000" r="0.4000" /> 
</g>
<g style="fill:#000000; fill-opacity:1.0000; stroke:none;">
<circle cx="116.1200" cy="74.1200" r="0.4000" /> 
</g>
<g style="fill:#000000; fill-opacity:1.0000; stroke:none;">
<circle cx="116.1200" cy="87.5000" r="0.6000" /> 
</g>
<g style="fill:#000000; fill-opacity:1.0000; stroke:none;">
<circle cx="116.1200" cy="77.3400" r="0.6000" /> 
</g>
<g style="fill:#000000; fill-opacity:1.0000; stroke:none;">
<circle cx="89.0927" cy="102.9846" r="0.4191" /> 
</g>
<g style="fill:#000000; fill-opacity:1.0000; stroke:none;">
<circle cx="78.9073" cy="102.9846" r="0.4191" /> 
</g>
<g style="fill:#000000; fill-opacity:1.0000; stroke:none;">
<circle cx="77.8557" cy="105.7558" r="0.4191" /> 
</g>
<g style="fill:#000000; fill-opacity:1.0000; stroke:none;">
<circle cx="78.2139" cy="108.6946" r="0.4191" /> 
</g>
<g style="fill:#000000; fill-opacity:1.0000; stroke:none;">
<circle cx="79.8954" cy="111.1330" r="0.4191" /> 
</g>
<g style="fill:#000000; fill-opacity:1.0000; stroke:none;">
<circle cx="82.5192" cy="112.5096" r="0.4191" /> 
</g>
<g style="fill:#000000; fill-opacity:1.0000; stroke:none;">
<circle cx="85.4808" cy="112.5096" r="0.4191" /> 
</g>
<g style="fill:#000000; fill-opacity:1.0000; stroke:none;">
<circle cx="88.1046" cy="111.1330" r="0.4191" /> 
</g>
<g style="fill:#000000; fill-opacity:1.0000; stroke:none;">
<circle cx="89.7861" cy="108.6946" r="0.4191" /> 
</g>
<g style="fill:#000000; fill-opacity:1.0000; stroke:none;">
<circle cx="90.1443" cy="105.7558" r="0.4191" /> 
</g>
<g style="fill:#000000; fill-opacity:1.0000; stroke:none;">
<circle cx="84.0000" cy="100.3126" r="0.4191" /> 
</g>
<g style="fill:#000000; fill-opacity:1.0000; stroke:none;">
<circle cx="81.1247" cy="101.0212" r="0.4191" /> 
</g>
<g style="fill:#000000; fill-opacity:1.0000; stroke:none;">
<circle cx="86.8753" cy="101.0212" r="0.4191" /> 
</g>
<g style="fill:#000000; fill-opacity:1.0000; stroke:none;">
<circle cx="235.2000" cy="82.6000" r="0.4000" /> 
</g>
<g style="fill:#000000; fill-opacity:1.0000; stroke:none;">
<circle cx="240.2000" cy="82.6000" r="0.4000" /> 
</g>
<g style="fill:#000000; fill-opacity:1.0000; stroke:none;">
<circle cx="115.0927" cy="102.9846" r="0.4191" /> 
</g>
<g style="fill:#000000; fill-opacity:1.0000; stroke:none;">
<circle cx="104.9073" cy="102.9846" r="0.4191" /> 
</g>
<g style="fill:#000000; fill-opacity:1.0000; stroke:none;">
<circle cx="103.8557" cy="105.7558" r="0.4191" /> 
</g>
<g style="fill:#000000; fill-opacity:1.0000; stroke:none;">
<circle cx="104.2139" cy="108.6946" r="0.4191" /> 
</g>
<g style="fill:#000000; fill-opacity:1.0000; stroke:none;">
<circle cx="105.8954" cy="111.1330" r="0.4191" /> 
</g>
<g style="fill:#000000; fill-opacity:1.0000; stroke:none;">
<circle cx="108.5192" cy="112.5096" r="0.4191" /> 
</g>
<g style="fill:#000000; fill-opacity:1.0000; stroke:none;">
<circle cx="111.4808" cy="112.5096" r="0.4191" /> 
</g>
<g style="fill:#000000; fill-opacity:1.0000; stroke:none;">
<circle cx="114.1046" cy="111.1330" r="0.4191" /> 
</g>
<g style="fill:#000000; fill-opacity:1.0000; stroke:none;">
<circle cx="115.7861" cy="108.6946" r="0.4191" /> 
</g>
<g style="fill:#000000; fill-opacity:1.0000; stroke:none;">
<circle cx="116.1443" cy="105.7558" r="0.4191" /> 
</g>
<g style="fill:#000000; fill-opacity:1.0000; stroke:none;">
<circle cx="110.0000" cy="100.3126" r="0.4191" /> 
</g>
<g style="fill:#000000; fill-opacity:1.0000; stroke:none;">
<circle cx="107.1247" cy="101.0212" r="0.4191" /> 
</g>
<g style="fill:#000000; fill-opacity:1.0000; stroke:none;">
<circle cx="112.8753" cy="101.0212" r="0.4191" /> 
</g>
<g style="fill:#000000; fill-opacity:1.0000; stroke:none;">
<circle cx="197.6678" cy="98.8322" r="0.4000" /> 
</g>
<g style="fill:#000000; fill-opacity:1.0000; stroke:none;">
<circle cx="194.1322" cy="102.3678" r="0.4000" /> 
</g>
<g style="fill:#000000; fill-opacity:1.0000; stroke:none;">
<circle cx="112.1200" cy="74.1200" r="0.4000" /> 
</g>
<g style="fill:#000000; fill-opacity:1.0000; stroke:none;">
<circle cx="112.1200" cy="66.5000" r="0.4000" /> 
</g>
<g style="fill:#000000; fill-opacity:1.0000; stroke:none;">
<circle cx="89.6200" cy="66.5000" r="0.6500" /> 
</g>
<g style="fill:#000000; fill-opacity:1.0000; stroke:none;">
<circle cx="94.6200" cy="66.5000" r="0.6500" /> 
</g>
<g style="fill:#000000; fill-opacity:1.0000; stroke:none;">
<circle cx="83.1200" cy="66.5000" r="0.4000" /> 
</g>
<g style="fill:#000000; fill-opacity:1.0000; stroke:none;">
<circle cx="83.1200" cy="69.0000" r="0.4000" /> 
</g>
<g style="fill:#000000; fill-opacity:1.0000; stroke:none;">
<circle cx="176.9000" cy="91.3500" r="0.4500" /> 
</g>
<g style="fill:#000000; fill-opacity:1.0000; stroke:none;">
<circle cx="176.9000" cy="71.3500" r="0.4500" /> 
</g>
<g style="fill:#000000; fill-opacity:1.0000; stroke:none;">
<circle cx="77.6200" cy="82.5000" r="0.4000" /> 
</g>
<g style="fill:#000000; fill-opacity:1.0000; stroke:none;">
<circle cx="75.1200" cy="82.5000" r="0.4000" /> 
</g>
<g style="fill:#000000; fill-opacity:1.0000; stroke:none;">
<circle cx="208.0000" cy="113.5000" r="0.4000" /> 
</g>
<g style="fill:#000000; fill-opacity:1.0000; stroke:none;">
<circle cx="208.0000" cy="105.8800" r="0.4000" /> 
</g>
<g style="fill:#000000; fill-opacity:1.0000; stroke:none;">
<circle cx="232.5800" cy="72.1000" r="0.4000" /> 
</g>
<g style="fill:#000000; fill-opacity:1.0000; stroke:none;">
<circle cx="240.2000" cy="72.1000" r="0.4000" /> 
</g>
<g style="fill:#000000; fill-opacity:1.0000; stroke:none;">
<circle cx="165.0000" cy="113.5000" r="0.4000" /> 
</g>
<g style="fill:#000000; fill-opacity:1.0000; stroke:none;">
<circle cx="165.0000" cy="105.8800" r="0.4000" /> 
</g>
<g style="fill:#000000; fill-opacity:1.0000; stroke:none;">
<circle cx="224.6000" cy="70.6000" r="0.4000" /> 
</g>
<g style="fill:#000000; fill-opacity:1.0000; stroke:none;">
<circle cx="222.0600" cy="70.6000" r="0.4000" /> 
</g>
<g style="fill:#000000; fill-opacity:1.0000; stroke:none;">
<circle cx="219.5200" cy="70.6000" r="0.4000" /> 
</g>
<g style="fill:#000000; fill-opacity:1.0000; stroke:none;">
<circle cx="216.9800" cy="70.6000" r="0.4000" /> 
</g>
<g style="fill:#000000; fill-opacity:1.0000; stroke:none;">
<circle cx="214.4400" cy="70.6000" r="0.4000" /> 
</g>
<g style="fill:#000000; fill-opacity:1.0000; stroke:none;">
<circle cx="211.9000" cy="70.6000" r="0.4000" /> 
</g>
<g style="fill:#000000; fill-opacity:1.0000; stroke:none;">
<circle cx="209.3600" cy="70.6000" r="0.4000" /> 
</g>
<g style="fill:#000000; fill-opacity:1.0000; stroke:none;">
<circle cx="206.8200" cy="70.6000" r="0.4000" /> 
</g>
<g style="fill:#000000; fill-opacity:1.0000; stroke:none;">
<circle cx="204.2800" cy="70.6000" r="0.4000" /> 
</g>
<g style="fill:#000000; fill-opacity:1.0000; stroke:none;">
<circle cx="201.7400" cy="70.6000" r="0.4000" /> 
</g>
<g style="fill:#000000; fill-opacity:1.0000; stroke:none;">
<circle cx="199.2000" cy="70.6000" r="0.4000" /> 
</g>
<g style="fill:#000000; fill-opacity:1.0000; stroke:none;">
<circle cx="196.6600" cy="70.6000" r="0.4000" /> 
</g>
<g style="fill:#000000; fill-opacity:1.0000; stroke:none;">
<circle cx="194.1200" cy="70.6000" r="0.4000" /> 
</g>
<g style="fill:#000000; fill-opacity:1.0000; stroke:none;">
<circle cx="191.5800" cy="70.6000" r="0.4000" /> 
</g>
<g style="fill:#000000; fill-opacity:1.0000; stroke:none;">
<circle cx="191.5800" cy="78.2200" r="0.4000" /> 
</g>
<g style="fill:#000000; fill-opacity:1.0000; stroke:none;">
<circle cx="194.1200" cy="78.2200" r="0.4000" /> 
</g>
<g style="fill:#000000; fill-opacity:1.0000; stroke:none;">
<circle cx="196.6600" cy="78.2200" r="0.4000" /> 
</g>
<g style="fill:#000000; fill-opacity:1.0000; stroke:none;">
<circle cx="199.2000" cy="78.2200" r="0.4000" /> 
</g>
<g style="fill:#000000; fill-opacity:1.0000; stroke:none;">
<circle cx="201.7400" cy="78.2200" r="0.4000" /> 
</g>
<g style="fill:#000000; fill-opacity:1.0000; stroke:none;">
<circle cx="204.2800" cy="78.2200" r="0.4000" /> 
</g>
<g style="fill:#000000; fill-opacity:1.0000; stroke:none;">
<circle cx="206.8200" cy="78.2200" r="0.4000" /> 
</g>
<g style="fill:#000000; fill-opacity:1.0000; stroke:none;">
<circle cx="209.3600" cy="78.2200" r="0.4000" /> 
</g>
<g style="fill:#000000; fill-opacity:1.0000; stroke:none;">
<circle cx="211.9000" cy="78.2200" r="0.4000" /> 
</g>
<g style="fill:#000000; fill-opacity:1.0000; stroke:none;">
<circle cx="214.4400" cy="78.2200" r="0.4000" /> 
</g>
<g style="fill:#000000; fill-opacity:1.0000; stroke:none;">
<circle cx="216.9800" cy="78.2200" r="0.4000" /> 
</g>
<g style="fill:#000000; fill-opacity:1.0000; stroke:none;">
<circle cx="219.5200" cy="78.2200" r="0.4000" /> 
</g>
<g style="fill:#000000; fill-opacity:1.0000; stroke:none;">
<circle cx="222.0600" cy="78.2200" r="0.4000" /> 
</g>
<g style="fill:#000000; fill-opacity:1.0000; stroke:none;">
<circle cx="224.6000" cy="78.2200" r="0.4000" /> 
</g>
<g style="fill:#000000; fill-opacity:1.0000; stroke:none;">
<circle cx="251.2500" cy="89.6995" r="0.4000" /> 
</g>
<g style="fill:#000000; fill-opacity:1.0000; stroke:none;">
<circle cx="258.8700" cy="89.6995" r="0.4000" /> 
</g>
<g style="fill:#000000; fill-opacity:1.0000; stroke:none;">
<circle cx="82.6200" cy="90.0000" r="0.4000" /> 
</g>
<g style="fill:#000000; fill-opacity:1.0000; stroke:none;">
<circle cx="75.0000" cy="90.0000" r="0.4000" /> 
</g>
<g style="fill:#000000; fill-opacity:1.0000; stroke:none;">
<circle cx="133.5875" cy="103.5000" r="0.2997" /> 
</g>
<g style="fill:#000000; fill-opacity:1.0000; stroke:none;">
<circle cx="130.4125" cy="103.5000" r="0.2997" /> 
</g>
<g style="fill:#000000; fill-opacity:1.0000; stroke:none;">
<circle cx="232.5800" cy="75.6000" r="0.4000" /> 
</g>
<g style="fill:#000000; fill-opacity:1.0000; stroke:none;">
<circle cx="240.2000" cy="75.6000" r="0.4000" /> 
</g>
<g style="fill:#000000; fill-opacity:1.0000; stroke:none;">
<circle cx="86.1200" cy="86.0000" r="0.3750" /> 
</g>
<g style="fill:#000000; fill-opacity:1.0000; stroke:none;">
<circle cx="86.1200" cy="87.2700" r="0.3750" /> 
</g>
<g style="fill:#000000; fill-opacity:1.0000; stroke:none;">
<circle cx="86.1200" cy="88.5400" r="0.3750" /> 
</g>
<g style="fill:#000000; fill-opacity:1.0000; stroke:none;">
<circle cx="99.0000" cy="105.8100" r="0.4000" /> 
</g>
<g style="fill:#000000; fill-opacity:1.0000; stroke:none;">
<circle cx="99.0000" cy="98.1900" r="0.4000" /> 
</g>
<g style="fill:#000000; fill-opacity:1.0000; stroke:none;">
<circle cx="228.7800" cy="76.6000" r="0.4000" /> 
</g>
<g style="fill:#000000; fill-opacity:1.0000; stroke:none;">
<circle cx="228.7800" cy="71.6000" r="0.4000" /> 
</g>
<g style="fill:#000000; fill-opacity:1.0000; stroke:none;">
<circle cx="235.0000" cy="105.8100" r="0.4000" /> 
</g>
<g style="fill:#000000; fill-opacity:1.0000; stroke:none;">
<circle cx="235.0000" cy="98.1900" r="0.4000" /> 
</g>
<g style="fill:#000000; fill-opacity:1.0000; stroke:none;">
<circle cx="185.0927" cy="102.9846" r="0.4191" /> 
</g>
<g style="fill:#000000; fill-opacity:1.0000; stroke:none;">
<circle cx="174.9073" cy="102.9846" r="0.4191" /> 
</g>
<g style="fill:#000000; fill-opacity:1.0000; stroke:none;">
<circle cx="173.8557" cy="105.7558" r="0.4191" /> 
</g>
<g style="fill:#000000; fill-opacity:1.0000; stroke:none;">
<circle cx="174.2139" cy="108.6946" r="0.4191" /> 
</g>
<g style="fill:#000000; fill-opacity:1.0000; stroke:none;">
<circle cx="175.8954" cy="111.1330" r="0.4191" /> 
</g>
<g style="fill:#000000; fill-opacity:1.0000; stroke:none;">
<circle cx="178.5192" cy="112.5096" r="0.4191" /> 
</g>
<g style="fill:#000000; fill-opacity:1.0000; stroke:none;">
<circle cx="181.4808" cy="112.5096" r="0.4191" /> 
</g>
<g style="fill:#000000; fill-opacity:1.0000; stroke:none;">
<circle cx="184.1046" cy="111.1330" r="0.4191" /> 
</g>
<g style="fill:#000000; fill-opacity:1.0000; stroke:none;">
<circle cx="185.7861" cy="108.6946" r="0.4191" /> 
</g>
<g style="fill:#000000; fill-opacity:1.0000; stroke:none;">
<circle cx="186.1443" cy="105.7558" r="0.4191" /> 
</g>
<g style="fill:#000000; fill-opacity:1.0000; stroke:none;">
<circle cx="180.0000" cy="100.3126" r="0.4191" /> 
</g>
<g style="fill:#000000; fill-opacity:1.0000; stroke:none;">
<circle cx="177.1247" cy="101.0212" r="0.4191" /> 
</g>
<g style="fill:#000000; fill-opacity:1.0000; stroke:none;">
<circle cx="182.8753" cy="101.0212" r="0.4191" /> 
</g>
<g style="fill:#000000; fill-opacity:1.0000; stroke:none;">
<circle cx="80.0000" cy="75.0000" r="0.4000" /> 
</g>
<g style="fill:#000000; fill-opacity:1.0000; stroke:none;">
<circle cx="80.0000" cy="77.5400" r="0.4000" /> 
</g>
<g style="fill:#000000; fill-opacity:1.0000; stroke:none;">
<circle cx="80.0000" cy="80.0800" r="0.4000" /> 
</g>
<g style="fill:#000000; fill-opacity:1.0000; stroke:none;">
<circle cx="80.0000" cy="82.6200" r="0.4000" /> 
</g>
<g style="fill:#000000; fill-opacity:1.0000; stroke:none;">
<circle cx="87.6200" cy="82.6200" r="0.4000" /> 
</g>
<g style="fill:#000000; fill-opacity:1.0000; stroke:none;">
<circle cx="87.6200" cy="80.0800" r="0.4000" /> 
</g>
<g style="fill:#000000; fill-opacity:1.0000; stroke:none;">
<circle cx="87.6200" cy="77.5400" r="0.4000" /> 
</g>
<g style="fill:#000000; fill-opacity:1.0000; stroke:none;">
<circle cx="87.6200" cy="75.0000" r="0.4000" /> 
</g>
<g style="fill:#000000; fill-opacity:1.0000; stroke:none;">
<circle cx="232.7000" cy="86.1000" r="0.4000" /> 
</g>
<g style="fill:#000000; fill-opacity:1.0000; stroke:none;">
<circle cx="240.3200" cy="86.1000" r="0.4000" /> 
</g>
<g style="fill:#000000; fill-opacity:1.0000; stroke:none;">
<circle cx="235.2000" cy="79.1000" r="0.4000" /> 
</g>
<g style="fill:#000000; fill-opacity:1.0000; stroke:none;">
<circle cx="240.2000" cy="79.1000" r="0.4000" /> 
</g>
<g style="fill:#000000; fill-opacity:1.0000; stroke:none;">
<circle cx="203.5875" cy="103.5000" r="0.2997" /> 
</g>
<g style="fill:#000000; fill-opacity:1.0000; stroke:none;">
<circle cx="200.4125" cy="103.5000" r="0.2997" /> 
</g>
<g style="fill:#000000; fill-opacity:1.0000; stroke:none;">
<circle cx="258.4000" cy="93.0000" r="0.4000" /> 
</g>
<g style="fill:#000000; fill-opacity:1.0000; stroke:none;">
<circle cx="258.4000" cy="98.0000" r="0.4000" /> 
</g>
<g style="fill:#000000; fill-opacity:1.0000; stroke:none;">
<circle cx="112.1200" cy="84.8100" r="0.4000" /> 
</g>
<g style="fill:#000000; fill-opacity:1.0000; stroke:none;">
<circle cx="112.1200" cy="77.1900" r="0.4000" /> 
</g>
<g style="fill:#000000; fill-opacity:1.0000; stroke:none;">
<circle cx="141.6000" cy="72.0000" r="0.4000" /> 
</g>
<g style="fill:#000000; fill-opacity:1.0000; stroke:none;">
<circle cx="146.6000" cy="72.0000" r="0.4000" /> 
</g>
<g style="fill:#000000; fill-opacity:1.0000; stroke:none;">
<circle cx="239.0000" cy="105.8100" r="0.4000" /> 
</g>
<g style="fill:#000000; fill-opacity:1.0000; stroke:none;">
<circle cx="239.0000" cy="98.1900" r="0.4000" /> 
</g>
<g style="fill:#000000; fill-opacity:1.0000; stroke:none;">
<circle cx="229.0927" cy="102.9846" r="0.4191" /> 
</g>
<g style="fill:#000000; fill-opacity:1.0000; stroke:none;">
<circle cx="218.9073" cy="102.9846" r="0.4191" /> 
</g>
<g style="fill:#000000; fill-opacity:1.0000; stroke:none;">
<circle cx="217.8557" cy="105.7558" r="0.4191" /> 
</g>
<g style="fill:#000000; fill-opacity:1.0000; stroke:none;">
<circle cx="218.2139" cy="108.6946" r="0.4191" /> 
</g>
<g style="fill:#000000; fill-opacity:1.0000; stroke:none;">
<circle cx="219.8954" cy="111.1330" r="0.4191" /> 
</g>
<g style="fill:#000000; fill-opacity:1.0000; stroke:none;">
<circle cx="222.5192" cy="112.5096" r="0.4191" /> 
</g>
<g style="fill:#000000; fill-opacity:1.0000; stroke:none;">
<circle cx="225.4808" cy="112.5096" r="0.4191" /> 
</g>
<g style="fill:#000000; fill-opacity:1.0000; stroke:none;">
<circle cx="228.1046" cy="111.1330" r="0.4191" /> 
</g>
<g style="fill:#000000; fill-opacity:1.0000; stroke:none;">
<circle cx="229.7861" cy="108.6946" r="0.4191" /> 
</g>
<g style="fill:#000000; fill-opacity:1.0000; stroke:none;">
<circle cx="230.1443" cy="105.7558" r="0.4191" /> 
</g>
<g style="fill:#000000; fill-opacity:1.0000; stroke:none;">
<circle cx="224.0000" cy="100.3126" r="0.4191" /> 
</g>
<g style="fill:#000000; fill-opacity:1.0000; stroke:none;">
<circle cx="221.1247" cy="101.0212" r="0.4191" /> 
</g>
<g style="fill:#000000; fill-opacity:1.0000; stroke:none;">
<circle cx="226.8753" cy="101.0212" r="0.4191" /> 
</g>
<g style="fill:#000000; fill-opacity:1.0000; stroke:none;">
<circle cx="94.6000" cy="111.0000" r="0.2500" /> 
</g>
<g style="fill:#000000; fill-opacity:1.0000; stroke:none;">
<circle cx="95.3029" cy="109.3029" r="0.2500" /> 
</g>
<g style="fill:#000000; fill-opacity:1.0000; stroke:none;">
<circle cx="95.3029" cy="112.6971" r="0.2500" /> 
</g>
<g style="fill:#000000; fill-opacity:1.0000; stroke:none;">
<circle cx="97.0000" cy="108.6000" r="0.2500" /> 
</g>
<g style="fill:#000000; fill-opacity:1.0000; stroke:none;">
<circle cx="97.0000" cy="111.0000" r="1.6000" /> 
</g>
<g style="fill:#000000; fill-opacity:1.0000; stroke:none;">
<circle cx="97.0000" cy="113.4000" r="0.2500" /> 
</g>
<g style="fill:#000000; fill-opacity:1.0000; stroke:none;">
<circle cx="98.6971" cy="109.3029" r="0.2500" /> 
</g>
<g style="fill:#000000; fill-opacity:1.0000; stroke:none;">
<circle cx="98.6971" cy="112.6971" r="0.2500" /> 
</g>
<g style="fill:#000000; fill-opacity:1.0000; stroke:none;">
<circle cx="99.4000" cy="111.0000" r="0.2500" /> 
</g>
<g style="fill:#000000; fill-opacity:1.0000; stroke:none;">
<circle cx="127.6000" cy="99.1000" r="0.4000" /> 
</g>
<g style="fill:#000000; fill-opacity:1.0000; stroke:none;">
<circle cx="124.0645" cy="102.6355" r="0.4000" /> 
</g>
<g style="fill:#000000; fill-opacity:1.0000; stroke:none;">
<circle cx="94.6200" cy="91.4300" r="1.7500" /> 
</g>
<g style="fill:#000000; fill-opacity:1.0000; stroke:none;">
<circle cx="97.1600" cy="74.7700" r="0.5500" /> 
</g>
<g style="fill:#000000; fill-opacity:1.0000; stroke:none;">
<circle cx="94.6200" cy="74.7700" r="0.5500" /> 
</g>
<g style="fill:#000000; fill-opacity:1.0000; stroke:none;">
<circle cx="92.0800" cy="74.7700" r="0.5500" /> 
</g>
<g style="fill:#000000; fill-opacity:1.0000; stroke:none;">
<circle cx="95.8000" cy="105.8100" r="0.4000" /> 
</g>
<g style="fill:#000000; fill-opacity:1.0000; stroke:none;">
<circle cx="95.8000" cy="98.1900" r="0.4000" /> 
</g>
<g style="fill:#000000; fill-opacity:1.0000; stroke:none;">
<circle cx="138.0000" cy="113.5000" r="0.4000" /> 
</g>
<g style="fill:#000000; fill-opacity:1.0000; stroke:none;">
<circle cx="138.0000" cy="105.8800" r="0.4000" /> 
</g>
<g style="fill:#000000; fill-opacity:1.0000; stroke:none;">
<circle cx="105.6200" cy="72.0000" r="0.4000" /> 
</g>
<g style="fill:#000000; fill-opacity:1.0000; stroke:none;">
<circle cx="105.6200" cy="75.5000" r="0.4000" /> 
</g>
<g style="fill:#000000; fill-opacity:1.0000; stroke:none;">
<circle cx="154.9050" cy="67.3050" r="0.4000" /> 
</g>
<g style="fill:#000000; fill-opacity:1.0000; stroke:none;">
<circle cx="162.5250" cy="67.3050" r="0.4000" /> 
</g>
<g style="fill:#000000; fill-opacity:1.0000; stroke:none;">
<circle cx="126.0000" cy="113.5000" r="0.4000" /> 
</g>
<g style="fill:#000000; fill-opacity:1.0000; stroke:none;">
<circle cx="126.0000" cy="105.8800" r="0.4000" /> 
</g>
<g style="fill:#000000; fill-opacity:1.0000; stroke:none;">
<circle cx="133.5875" cy="110.5000" r="0.2997" /> 
</g>
<g style="fill:#000000; fill-opacity:1.0000; stroke:none;">
<circle cx="130.4125" cy="110.5000" r="0.2997" /> 
</g>
<g style="fill:#000000; fill-opacity:1.0000; stroke:none;">
<circle cx="121.9700" cy="74.4000" r="1.7500" /> 
</g>
<g style="fill:#000000; fill-opacity:1.0000; stroke:none;">
<circle cx="138.6300" cy="76.9400" r="0.5500" /> 
</g>
<g style="fill:#000000; fill-opacity:1.0000; stroke:none;">
<circle cx="138.6300" cy="74.4000" r="0.5500" /> 
</g>
<g style="fill:#000000; fill-opacity:1.0000; stroke:none;">
<circle cx="138.6300" cy="71.8600" r="0.5500" /> 
</g>
<g style="fill:#000000; fill-opacity:1.0000; stroke:none;">
<circle cx="254.6000" cy="65.0000" r="0.2500" /> 
</g>
<g style="fill:#000000; fill-opacity:1.0000; stroke:none;">
<circle cx="255.3029" cy="63.3029" r="0.2500" /> 
</g>
<g style="fill:#000000; fill-opacity:1.0000; stroke:none;">
<circle cx="255.3029" cy="66.6971" r="0.2500" /> 
</g>
<g style="fill:#000000; fill-opacity:1.0000; stroke:none;">
<circle cx="257.0000" cy="62.6000" r="0.2500" /> 
</g>
<g style="fill:#000000; fill-opacity:1.0000; stroke:none;">
<circle cx="257.0000" cy="65.0000" r="1.6000" /> 
</g>
<g style="fill:#000000; fill-opacity:1.0000; stroke:none;">
<circle cx="257.0000" cy="67.4000" r="0.2500" /> 
</g>
<g style="fill:#000000; fill-opacity:1.0000; stroke:none;">
<circle cx="258.6971" cy="63.3029" r="0.2500" /> 
</g>
<g style="fill:#000000; fill-opacity:1.0000; stroke:none;">
<circle cx="258.6971" cy="66.6971" r="0.2500" /> 
</g>
<g style="fill:#000000; fill-opacity:1.0000; stroke:none;">
<circle cx="259.4000" cy="65.0000" r="0.2500" /> 
</g>
<g style="fill:#000000; fill-opacity:1.0000; stroke:none;">
<circle cx="234.6000" cy="111.0000" r="0.2500" /> 
</g>
<g style="fill:#000000; fill-opacity:1.0000; stroke:none;">
<circle cx="235.3029" cy="109.3029" r="0.2500" /> 
</g>
<g style="fill:#000000; fill-opacity:1.0000; stroke:none;">
<circle cx="235.3029" cy="112.6971" r="0.2500" /> 
</g>
<g style="fill:#000000; fill-opacity:1.0000; stroke:none;">
<circle cx="237.0000" cy="108.6000" r="0.2500" /> 
</g>
<g style="fill:#000000; fill-opacity:1.0000; stroke:none;">
<circle cx="237.0000" cy="111.0000" r="1.6000" /> 
</g>
<g style="fill:#000000; fill-opacity:1.0000; stroke:none;">
<circle cx="237.0000" cy="113.4000" r="0.2500" /> 
</g>
<g style="fill:#000000; fill-opacity:1.0000; stroke:none;">
<circle cx="238.6971" cy="109.3029" r="0.2500" /> 
</g>
<g style="fill:#000000; fill-opacity:1.0000; stroke:none;">
<circle cx="238.6971" cy="112.6971" r="0.2500" /> 
</g>
<g style="fill:#000000; fill-opacity:1.0000; stroke:none;">
<circle cx="239.4000" cy="111.0000" r="0.2500" /> 
</g>
<g style="fill:#000000; fill-opacity:1.0000; stroke:none;">
<circle cx="73.6000" cy="65.0000" r="0.2500" /> 
</g>
<g style="fill:#000000; fill-opacity:1.0000; stroke:none;">
<circle cx="74.3029" cy="63.3029" r="0.2500" /> 
</g>
<g style="fill:#000000; fill-opacity:1.0000; stroke:none;">
<circle cx="74.3029" cy="66.6971" r="0.2500" /> 
</g>
<g style="fill:#000000; fill-opacity:1.0000; stroke:none;">
<circle cx="76.0000" cy="62.6000" r="0.2500" /> 
</g>
<g style="fill:#000000; fill-opacity:1.0000; stroke:none;">
<circle cx="76.0000" cy="65.0000" r="1.6000" /> 
</g>
<g style="fill:#000000; fill-opacity:1.0000; stroke:none;">
<circle cx="76.0000" cy="67.4000" r="0.2500" /> 
</g>
<g style="fill:#000000; fill-opacity:1.0000; stroke:none;">
<circle cx="77.6971" cy="63.3029" r="0.2500" /> 
</g>
<g style="fill:#000000; fill-opacity:1.0000; stroke:none;">
<circle cx="77.6971" cy="66.6971" r="0.2500" /> 
</g>
<g style="fill:#000000; fill-opacity:1.0000; stroke:none;">
<circle cx="78.4000" cy="65.0000" r="0.2500" /> 
</g>
<g style="fill:#000000; fill-opacity:1.0000; stroke:none;">
<circle cx="196.0000" cy="113.5000" r="0.4000" /> 
</g>
<g style="fill:#000000; fill-opacity:1.0000; stroke:none;">
<circle cx="196.0000" cy="105.8800" r="0.4000" /> 
</g>
<g style="fill:#000000; fill-opacity:1.0000; stroke:none;">
<circle cx="106.7400" cy="66.5000" r="0.5500" /> 
</g>
<g style="fill:#000000; fill-opacity:1.0000; stroke:none;">
<circle cx="99.1200" cy="66.5000" r="0.5500" /> 
</g>
<g style="fill:#000000; fill-opacity:1.0000; stroke:none;">
<circle cx="159.0927" cy="102.9846" r="0.4191" /> 
</g>
<g style="fill:#000000; fill-opacity:1.0000; stroke:none;">
<circle cx="148.9073" cy="102.9846" r="0.4191" /> 
</g>
<g style="fill:#000000; fill-opacity:1.0000; stroke:none;">
<circle cx="147.8557" cy="105.7558" r="0.4191" /> 
</g>
<g style="fill:#000000; fill-opacity:1.0000; stroke:none;">
<circle cx="148.2139" cy="108.6946" r="0.4191" /> 
</g>
<g style="fill:#000000; fill-opacity:1.0000; stroke:none;">
<circle cx="149.8954" cy="111.1330" r="0.4191" /> 
</g>
<g style="fill:#000000; fill-opacity:1.0000; stroke:none;">
<circle cx="152.5192" cy="112.5096" r="0.4191" /> 
</g>
<g style="fill:#000000; fill-opacity:1.0000; stroke:none;">
<circle cx="155.4808" cy="112.5096" r="0.4191" /> 
</g>
<g style="fill:#000000; fill-opacity:1.0000; stroke:none;">
<circle cx="158.1046" cy="111.1330" r="0.4191" /> 
</g>
<g style="fill:#000000; fill-opacity:1.0000; stroke:none;">
<circle cx="159.7861" cy="108.6946" r="0.4191" /> 
</g>
<g style="fill:#000000; fill-opacity:1.0000; stroke:none;">
<circle cx="160.1443" cy="105.7558" r="0.4191" /> 
</g>
<g style="fill:#000000; fill-opacity:1.0000; stroke:none;">
<circle cx="154.0000" cy="100.3126" r="0.4191" /> 
</g>
<g style="fill:#000000; fill-opacity:1.0000; stroke:none;">
<circle cx="151.1247" cy="101.0212" r="0.4191" /> 
</g>
<g style="fill:#000000; fill-opacity:1.0000; stroke:none;">
<circle cx="156.8753" cy="101.0212" r="0.4191" /> 
</g>
<g style="fill:#000000; fill-opacity:1.0000; stroke:none;">
<circle cx="154.9050" cy="70.3050" r="0.4000" /> 
</g>
<g style="fill:#000000; fill-opacity:1.0000; stroke:none;">
<circle cx="162.5250" cy="70.3050" r="0.4000" /> 
</g>
<g style="fill:#000000; fill-opacity:1.0000; stroke:none;">
<circle cx="251.2000" cy="73.6000" r="1.1000" /> 
</g>
<g style="fill:#000000; fill-opacity:1.0000; stroke:none;">
<circle cx="251.2000" cy="85.0000" r="1.1000" /> 
</g>
<g style="fill:#000000; fill-opacity:1.0000; stroke:none;">
<circle cx="243.7000" cy="76.8000" r="0.5000" /> 
</g>
<g style="fill:#000000; fill-opacity:1.0000; stroke:none;">
<circle cx="243.7000" cy="81.8000" r="0.5000" /> 
</g>
<g style="fill:#000000; fill-opacity:1.0000; stroke:none;">
<circle cx="243.7000" cy="79.3000" r="0.5000" /> 
</g>
<g style="fill:#000000; fill-opacity:1.0000; stroke:none;">
<circle cx="258.2000" cy="76.8000" r="0.5000" /> 
</g>
<g style="fill:#000000; fill-opacity:1.0000; stroke:none;">
<circle cx="258.2000" cy="81.8000" r="0.5000" /> 
</g>
<g style="fill:#000000; fill-opacity:1.0000; stroke:none;">
<circle cx="203.5875" cy="110.5000" r="0.2997" /> 
</g>
<g style="fill:#000000; fill-opacity:1.0000; stroke:none;">
<circle cx="200.4125" cy="110.5000" r="0.2997" /> 
</g>
<g style="fill:#000000; fill-opacity:1.0000; stroke:none;">
<circle cx="77.4750" cy="71.4000" r="0.5000" /> 
</g>
<g style="fill:#000000; fill-opacity:1.0000; stroke:none;">
<circle cx="74.9350" cy="71.4000" r="0.5000" /> 
</g>
<g style="fill:#000000; fill-opacity:1.0000; stroke:none;">
<circle cx="255.0927" cy="102.9846" r="0.4191" /> 
</g>
<g style="fill:#000000; fill-opacity:1.0000; stroke:none;">
<circle cx="244.9073" cy="102.9846" r="0.4191" /> 
</g>
<g style="fill:#000000; fill-opacity:1.0000; stroke:none;">
<circle cx="243.8557" cy="105.7558" r="0.4191" /> 
</g>
<g style="fill:#000000; fill-opacity:1.0000; stroke:none;">
<circle cx="244.2139" cy="108.6946" r="0.4191" /> 
</g>
<g style="fill:#000000; fill-opacity:1.0000; stroke:none;">
<circle cx="245.8954" cy="111.1330" r="0.4191" /> 
</g>
<g style="fill:#000000; fill-opacity:1.0000; stroke:none;">
<circle cx="248.5192" cy="112.5096" r="0.4191" /> 
</g>
<g style="fill:#000000; fill-opacity:1.0000; stroke:none;">
<circle cx="251.4808" cy="112.5096" r="0.4191" /> 
</g>
<g style="fill:#000000; fill-opacity:1.0000; stroke:none;">
<circle cx="254.1046" cy="111.1330" r="0.4191" /> 
</g>
<g style="fill:#000000; fill-opacity:1.0000; stroke:none;">
<circle cx="255.7861" cy="108.6946" r="0.4191" /> 
</g>
<g style="fill:#000000; fill-opacity:1.0000; stroke:none;">
<circle cx="256.1443" cy="105.7558" r="0.4191" /> 
</g>
<g style="fill:#000000; fill-opacity:1.0000; stroke:none;">
<circle cx="250.0000" cy="100.3126" r="0.4191" /> 
</g>
<g style="fill:#000000; fill-opacity:1.0000; stroke:none;">
<circle cx="247.1247" cy="101.0212" r="0.4191" /> 
</g>
<g style="fill:#000000; fill-opacity:1.0000; stroke:none;">
<circle cx="252.8753" cy="101.0212" r="0.4191" /> 
</g>
<g style="fill:#000000; fill-opacity:1.0000; stroke:none;">
<circle cx="241.0300" cy="89.6995" r="0.4000" /> 
</g>
<g style="fill:#000000; fill-opacity:1.0000; stroke:none;">
<circle cx="248.6500" cy="89.6995" r="0.4000" /> 
</g>
<g style="fill:#000000; fill-opacity:1.0000; stroke:none;">
<circle cx="168.1000" cy="97.5000" r="0.4000" /> 
</g>
<g style="fill:#000000; fill-opacity:1.0000; stroke:none;">
<circle cx="163.1000" cy="97.5000" r="0.4000" /> 
</g>
<g style="fill:#000000; fill-opacity:1.0000; stroke:none;">
<circle cx="151.5250" cy="72.3050" r="0.4000" /> 
</g>
<g style="fill:#000000; fill-opacity:1.0000; stroke:none;">
<circle cx="151.5250" cy="67.3050" r="0.4000" /> 
</g>
<g style="fill:#000000; fill-opacity:1.0000; stroke:none;">
<circle cx="164.7000" cy="83.6000" r="0.4000" /> 
</g>
<g style="fill:#000000; fill-opacity:1.0000; stroke:none;">
<circle cx="159.7000" cy="83.6000" r="0.4000" /> 
</g>
<g style="fill:#000000; fill-opacity:1.0000; stroke:none;">
<circle cx="169.0000" cy="113.5000" r="0.4000" /> 
</g>
<g style="fill:#000000; fill-opacity:1.0000; stroke:none;">
<circle cx="169.0000" cy="105.8800" r="0.4000" /> 
</g>
<g style="fill:#000000; fill-opacity:1.0000; stroke:none;">
<circle cx="82.6200" cy="86.0000" r="0.4000" /> 
</g>
<g style="fill:#000000; fill-opacity:1.0000; stroke:none;">
<circle cx="75.0000" cy="86.0000" r="0.4000" /> 
</g>
<g style="fill:#000000; fill-opacity:1.0000; stroke:none;">
<circle cx="151.5250" cy="74.6850" r="0.4000" /> 
</g>
<g style="fill:#000000; fill-opacity:1.0000; stroke:none;">
<circle cx="151.5250" cy="82.3050" r="0.4000" /> 
</g>
<g style="fill:#000000; fill-opacity:1.0000; stroke:none;">
<circle cx="141.6000" cy="77.0000" r="0.4000" /> 
</g>
<g style="fill:#000000; fill-opacity:1.0000; stroke:none;">
<circle cx="146.6000" cy="77.0000" r="0.4000" /> 
</g>
<g style="fill:#000000; fill-opacity:1.0000; stroke:none;">
<circle cx="230.9300" cy="89.6995" r="0.4000" /> 
</g>
<g style="fill:#000000; fill-opacity:1.0000; stroke:none;">
<circle cx="238.5500" cy="89.6995" r="0.4000" /> 
</g>
<g style="fill:#000000; fill-opacity:1.0000; stroke:none;">
<circle cx="77.1200" cy="74.5000" r="0.4000" /> 
</g>
<g style="fill:#000000; fill-opacity:1.0000; stroke:none;">
<circle cx="77.1200" cy="79.5000" r="0.4000" /> 
</g>
<g style="fill:#000000; fill-opacity:1.0000; stroke:none;">
<circle cx="131.0000" cy="67.1050" r="0.6500" /> 
</g>
<g style="fill:#000000; fill-opacity:1.0000; stroke:none;">
<circle cx="125.9200" cy="67.1050" r="0.6500" /> 
</g> 
</svg>
