<?xml version="1.0" standalone="no"?>
 <!DOCTYPE svg PUBLIC "-//W3C//DTD SVG 1.1//EN" 
 "http://www.w3.org/Graphics/SVG/1.1/DTD/svg11.dtd"> 
<svg
  xmlns:svg="http://www.w3.org/2000/svg"
  xmlns="http://www.w3.org/2000/svg"
  xmlns:xlink="http://www.w3.org/1999/xlink"
  version="1.1"
  width="297.0022mm" height="210.0072mm" viewBox="0.0000 0.0000 297.0022 210.0072">
<title>SVG Image created as nixie-F_Courtyard.svg date 2024/10/13 09:53:05 </title>
  <desc>Image generated by PCBNEW </desc>
<g style="fill:#000000; fill-opacity:1.0000;stroke:#000000; stroke-opacity:1.0000;
stroke-linecap:round; stroke-linejoin:round;"
 transform="translate(0 0) scale(1 1)">
</g>
<g style="fill:none; 
stroke:#000000; stroke-width:0.0500; stroke-opacity:1; 
stroke-linecap:round; stroke-linejoin:round;">
<path d="M148.9000 85.8800
L148.9000 95.6800
" />
<path d="M148.9000 95.6800
L169.7500 95.6800
" />
<path d="M169.7500 85.8800
L148.9000 85.8800
" />
<path d="M169.7500 95.6800
L169.7500 85.8800
" />
<path d="M101.7200 79.9500
L101.7200 88.8500
" />
<path d="M101.7200 88.8500
L109.5200 88.8500
" />
<path d="M109.5200 79.9500
L101.7200 79.9500
" />
<path d="M109.5200 88.8500
L109.5200 79.9500
" />
<path d="M114.6200 65.4500
L114.6200 75.1700
" />
<path d="M114.6200 75.1700
L117.6200 75.1700
" />
<path d="M117.6200 65.4500
L114.6200 65.4500
" />
<path d="M117.6200 75.1700
L117.6200 65.4500
" />
<path d="M114.0700 75.8900
L114.0700 88.9500
" />
<path d="M114.0700 88.9500
L118.1700 88.9500
" />
<path d="M118.1700 75.8900
L114.0700 75.8900
" />
<path d="M118.1700 88.9500
L118.1700 75.8900
" />
<path d="M234.1500 81.1000
L234.1500 84.1000
" />
<path d="M234.1500 84.1000
L241.2500 84.1000
" />
<path d="M241.2500 81.1000
L234.1500 81.1000
" />
<path d="M241.2500 84.1000
L241.2500 81.1000
" />
<path d="M192.3291 102.0496
L194.4504 104.1709
" />
<path d="M194.4504 104.1709
L199.4709 99.1504
" />
<path d="M197.3496 97.0291
L192.3291 102.0496
" />
<path d="M199.4709 99.1504
L197.3496 97.0291
" />
<path d="M110.6200 65.4500
L110.6200 75.1700
" />
<path d="M110.6200 75.1700
L113.6200 75.1700
" />
<path d="M113.6200 65.4500
L110.6200 65.4500
" />
<path d="M113.6200 75.1700
L113.6200 65.4500
" />
<circle cx="92.1200" cy="66.5000" r="4.6000" /> 
<circle cx="83.1200" cy="67.7500" r="3.4000" /> 
<path d="M173.6500 93.8000
L173.6500 87.8500
" />
<path d="M180.1500 93.8000
L173.6500 93.8000
" />
<path d="M180.1500 93.8000
L180.1500 87.8500
" />
<path d="M173.6500 87.8500 A0.5466 0.5466 0.0 0 0 173.3000 87.3400" />
<path d="M176.9000 64.4000 A11.7519 11.7519 0.0 0 0 173.3000 87.3400" />
<path d="M180.5000 87.3400 A11.7519 11.7519 0.0 0 0 176.9000 64.4000" />
<path d="M180.5000 87.3400 A0.5466 0.5466 0.0 0 0 180.1500 87.8500" />
<path d="M74.0700 80.9500
L74.0700 84.0500
" />
<path d="M74.0700 84.0500
L78.6700 84.0500
" />
<path d="M78.6700 80.9500
L74.0700 80.9500
" />
<path d="M78.6700 84.0500
L78.6700 80.9500
" />
<path d="M206.5000 104.8300
L206.5000 114.5500
" />
<path d="M206.5000 114.5500
L209.5000 114.5500
" />
<path d="M209.5000 104.8300
L206.5000 104.8300
" />
<path d="M209.5000 114.5500
L209.5000 104.8300
" />
<path d="M132.0000 80.1764
L122.0298 90.1466
" />
<path d="M132.0000 100.1168
L122.0298 90.1466
" />
<path d="M141.9702 90.1466
L132.0000 80.1764
" />
<path d="M141.9702 90.1466
L132.0000 100.1168
" />
<path d="M231.5300 70.6000
L231.5300 73.6000
" />
<path d="M231.5300 73.6000
L241.2500 73.6000
" />
<path d="M241.2500 70.6000
L231.5300 70.6000
" />
<path d="M241.2500 73.6000
L241.2500 70.6000
" />
<path d="M163.5000 104.8300
L163.5000 114.5500
" />
<path d="M163.5000 114.5500
L166.5000 114.5500
" />
<path d="M166.5000 104.8300
L163.5000 104.8300
" />
<path d="M166.5000 114.5500
L166.5000 104.8300
" />
<path d="M190.0500 69.5000
L190.0500 79.3000
" />
<path d="M190.0500 79.3000
L226.1500 79.3000
" />
<path d="M226.1500 69.5000
L190.0500 69.5000
" />
<path d="M226.1500 79.3000
L226.1500 69.5000
" />
<path d="M250.2000 88.1995
L250.2000 91.1995
" />
<path d="M250.2000 91.1995
L259.9200 91.1995
" />
<path d="M259.9200 88.1995
L250.2000 88.1995
" />
<path d="M259.9200 91.1995
L259.9200 88.1995
" />
<path d="M73.9500 88.5000
L73.9500 91.5000
" />
<path d="M73.9500 91.5000
L83.6700 91.5000
" />
<path d="M83.6700 88.5000
L73.9500 88.5000
" />
<path d="M83.6700 91.5000
L83.6700 88.5000
" />
<path d="M156.3000 72.7000
L156.3000 78.1000
" />
<path d="M156.3000 78.1000
L163.7000 78.1000
" />
<path d="M163.7000 72.7000
L156.3000 72.7000
" />
<path d="M163.7000 78.1000
L163.7000 72.7000
" />
<path d="M231.5300 74.1000
L231.5300 77.1000
" />
<path d="M231.5300 77.1000
L241.2500 77.1000
" />
<path d="M241.2500 74.1000
L231.5300 74.1000
" />
<path d="M241.2500 77.1000
L241.2500 74.1000
" />
<path d="M84.1100 90.0000
L84.1100 84.5400
" />
<path d="M84.1100 90.0000
L88.8500 90.0000
" />
<path d="M88.8500 84.5400
L84.1100 84.5400
" />
<path d="M88.8500 84.5400
L88.8500 90.0000
" />
<path d="M97.5000 97.1400
L97.5000 106.8600
" />
<path d="M97.5000 106.8600
L100.5000 106.8600
" />
<path d="M100.5000 97.1400
L97.5000 97.1400
" />
<path d="M100.5000 106.8600
L100.5000 97.1400
" />
<path d="M227.2800 70.5500
L227.2800 77.6500
" />
<path d="M227.2800 77.6500
L230.2800 77.6500
" />
<path d="M230.2800 70.5500
L227.2800 70.5500
" />
<path d="M230.2800 77.6500
L230.2800 70.5500
" />
<path d="M233.5000 97.1400
L233.5000 106.8600
" />
<path d="M233.5000 106.8600
L236.5000 106.8600
" />
<path d="M236.5000 97.1400
L233.5000 97.1400
" />
<path d="M236.5000 106.8600
L236.5000 97.1400
" />
<path d="M202.0000 80.0298
L192.0298 90.0000
" />
<path d="M202.0000 99.9702
L192.0298 90.0000
" />
<path d="M211.9702 90.0000
L202.0000 80.0298
" />
<path d="M211.9702 90.0000
L202.0000 99.9702
" />
<path d="M78.9000 73.4500
L78.9000 84.1500
" />
<path d="M78.9000 84.1500
L88.7000 84.1500
" />
<path d="M88.7000 73.4500
L78.9000 73.4500
" />
<path d="M88.7000 84.1500
L88.7000 73.4500
" />
<path d="M231.6500 84.6000
L231.6500 87.6000
" />
<path d="M231.6500 87.6000
L241.3700 87.6000
" />
<path d="M241.3700 84.6000
L231.6500 84.6000
" />
<path d="M241.3700 87.6000
L241.3700 84.6000
" />
<path d="M234.1500 77.6000
L234.1500 80.6000
" />
<path d="M234.1500 80.6000
L241.2500 80.6000
" />
<path d="M241.2500 77.6000
L234.1500 77.6000
" />
<path d="M241.2500 80.6000
L241.2500 77.6000
" />
<path d="M256.9000 91.9500
L256.9000 99.0500
" />
<path d="M256.9000 99.0500
L259.9000 99.0500
" />
<path d="M259.9000 91.9500
L256.9000 91.9500
" />
<path d="M259.9000 99.0500
L259.9000 91.9500
" />
<path d="M110.6200 76.1400
L110.6200 85.8600
" />
<path d="M110.6200 85.8600
L113.6200 85.8600
" />
<path d="M113.6200 76.1400
L110.6200 76.1400
" />
<path d="M113.6200 85.8600
L113.6200 76.1400
" />
<path d="M140.5500 70.5000
L140.5500 73.5000
" />
<path d="M140.5500 73.5000
L147.6500 73.5000
" />
<path d="M147.6500 70.5000
L140.5500 70.5000
" />
<path d="M147.6500 73.5000
L147.6500 70.5000
" />
<path d="M237.5000 97.1400
L237.5000 106.8600
" />
<path d="M237.5000 106.8600
L240.5000 106.8600
" />
<path d="M240.5000 97.1400
L237.5000 97.1400
" />
<path d="M240.5000 106.8600
L240.5000 97.1400
" />
<circle cx="97.0000" cy="111.0000" r="3.4500" /> 
<path d="M122.2613 102.3173
L124.3827 104.4387
" />
<path d="M124.3827 104.4387
L129.4031 99.4182
" />
<path d="M127.2818 97.2969
L122.2613 102.3173
" />
<path d="M129.4031 99.4182
L127.2818 97.2969
" />
<path d="M89.3700 73.5200
L89.3700 94.4800
" />
<path d="M89.3700 94.4800
L99.8700 94.4800
" />
<path d="M99.8700 73.5200
L89.3700 73.5200
" />
<path d="M99.8700 94.4800
L99.8700 73.5200
" />
<path d="M94.3000 97.1400
L94.3000 106.8600
" />
<path d="M94.3000 106.8600
L97.3000 106.8600
" />
<path d="M97.3000 97.1400
L94.3000 97.1400
" />
<path d="M97.3000 106.8600
L97.3000 97.1400
" />
<path d="M136.5000 104.8300
L136.5000 114.5500
" />
<path d="M136.5000 114.5500
L139.5000 114.5500
" />
<path d="M139.5000 104.8300
L136.5000 104.8300
" />
<path d="M139.5000 114.5500
L139.5000 104.8300
" />
<circle cx="105.6200" cy="73.7500" r="4.2500" /> 
<path d="M153.8550 65.8050
L153.8550 68.8050
" />
<path d="M153.8550 68.8050
L163.5750 68.8050
" />
<path d="M163.5750 65.8050
L153.8550 65.8050
" />
<path d="M163.5750 68.8050
L163.5750 65.8050
" />
<path d="M124.5000 104.8300
L124.5000 114.5500
" />
<path d="M124.5000 114.5500
L127.5000 114.5500
" />
<path d="M127.5000 104.8300
L124.5000 104.8300
" />
<path d="M127.5000 114.5500
L127.5000 104.8300
" />
<path d="M118.9200 69.1500
L118.9200 79.6500
" />
<path d="M118.9200 79.6500
L139.8800 79.6500
" />
<path d="M139.8800 69.1500
L118.9200 69.1500
" />
<path d="M139.8800 79.6500
L139.8800 69.1500
" />
<circle cx="257.0000" cy="65.0000" r="3.4500" /> 
<circle cx="237.0000" cy="111.0000" r="3.4500" /> 
<circle cx="76.0000" cy="65.0000" r="3.4500" /> 
<path d="M194.5000 104.8300
L194.5000 114.5500
" />
<path d="M194.5000 114.5500
L197.5000 114.5500
" />
<path d="M197.5000 104.8300
L194.5000 104.8300
" />
<path d="M197.5000 114.5500
L197.5000 104.8300
" />
<path d="M97.7700 64.9000
L97.7700 68.1000
" />
<path d="M97.7700 68.1000
L108.0900 68.1000
" />
<path d="M108.0900 64.9000
L97.7700 64.9000
" />
<path d="M108.0900 68.1000
L108.0900 64.9000
" />
<path d="M153.8550 68.8050
L153.8550 71.8050
" />
<path d="M153.8550 71.8050
L163.5750 71.8050
" />
<path d="M163.5750 68.8050
L153.8550 68.8050
" />
<path d="M163.5750 71.8050
L163.5750 68.8050
" />
</g>
<g style="fill:none; 
stroke:#000000; stroke-width:0.1000; stroke-opacity:1; 
stroke-linecap:round; stroke-linejoin:round;">
<path d="M241.9500 70.6420
L259.9500 70.6420
" />
<path d="M241.9500 87.9570
L241.9500 70.6420
" />
<path d="M259.9500 70.6420
L259.9500 87.9570
" />
<path d="M259.9500 87.9570
L241.9500 87.9570
" />
</g>
<g style="fill:none; 
stroke:#000000; stroke-width:0.0500; stroke-opacity:1; 
stroke-linecap:round; stroke-linejoin:round;">
<path d="M73.1250 69.6000
L73.1250 73.2000
" />
<path d="M73.1250 73.2000
L79.2750 73.2000
" />
<path d="M79.2750 69.6000
L73.1250 69.6000
" />
<path d="M79.2750 73.2000
L79.2750 69.6000
" />
<path d="M239.9800 88.1995
L239.9800 91.1995
" />
<path d="M239.9800 91.1995
L249.7000 91.1995
" />
<path d="M249.7000 88.1995
L239.9800 88.1995
" />
<path d="M249.7000 91.1995
L249.7000 88.1995
" />
<path d="M162.0500 96.0000
L162.0500 99.0000
" />
<path d="M162.0500 99.0000
L169.1500 99.0000
" />
<path d="M169.1500 96.0000
L162.0500 96.0000
" />
<path d="M169.1500 99.0000
L169.1500 96.0000
" />
<path d="M150.0250 66.2550
L150.0250 73.3550
" />
<path d="M150.0250 73.3550
L153.0250 73.3550
" />
<path d="M153.0250 66.2550
L150.0250 66.2550
" />
<path d="M153.0250 73.3550
L153.0250 66.2550
" />
<path d="M158.6500 82.1000
L158.6500 85.1000
" />
<path d="M158.6500 85.1000
L165.7500 85.1000
" />
<path d="M165.7500 82.1000
L158.6500 82.1000
" />
<path d="M165.7500 85.1000
L165.7500 82.1000
" />
<path d="M167.5000 104.8300
L167.5000 114.5500
" />
<path d="M167.5000 114.5500
L170.5000 114.5500
" />
<path d="M170.5000 104.8300
L167.5000 104.8300
" />
<path d="M170.5000 114.5500
L170.5000 104.8300
" />
<path d="M73.9500 84.7500
L73.9500 87.2500
" />
<path d="M73.9500 87.2500
L83.6700 87.2500
" />
<path d="M83.6700 84.7500
L73.9500 84.7500
" />
<path d="M83.6700 87.2500
L83.6700 84.7500
" />
<path d="M150.0250 73.6350
L150.0250 83.3550
" />
<path d="M150.0250 83.3550
L153.0250 83.3550
" />
<path d="M153.0250 73.6350
L150.0250 73.6350
" />
<path d="M153.0250 83.3550
L153.0250 73.6350
" />
<path d="M140.5500 75.5000
L140.5500 78.5000
" />
<path d="M140.5500 78.5000
L147.6500 78.5000
" />
<path d="M147.6500 75.5000
L140.5500 75.5000
" />
<path d="M147.6500 78.5000
L147.6500 75.5000
" />
<path d="M229.8800 88.1995
L229.8800 91.1995
" />
<path d="M229.8800 91.1995
L239.6000 91.1995
" />
<path d="M239.6000 88.1995
L229.8800 88.1995
" />
<path d="M239.6000 91.1995
L239.6000 88.1995
" />
<path d="M75.6200 73.4500
L75.6200 80.5500
" />
<path d="M75.6200 80.5500
L78.6200 80.5500
" />
<path d="M78.6200 73.4500
L75.6200 73.4500
" />
<path d="M78.6200 80.5500
L78.6200 73.4500
" />
</g>
<g style="fill:#000000; fill-opacity:1.0000; stroke:none;">
<circle cx="168.2000" cy="86.9800" r="0.4000" /> 
</g>
<g style="fill:#000000; fill-opacity:1.0000; stroke:none;">
<circle cx="165.6600" cy="86.9800" r="0.4000" /> 
</g>
<g style="fill:#000000; fill-opacity:1.0000; stroke:none;">
<circle cx="163.1200" cy="86.9800" r="0.4000" /> 
</g>
<g style="fill:#000000; fill-opacity:1.0000; stroke:none;">
<circle cx="160.5800" cy="86.9800" r="0.4000" /> 
</g>
<g style="fill:#000000; fill-opacity:1.0000; stroke:none;">
<circle cx="158.0400" cy="86.9800" r="0.4000" /> 
</g>
<g style="fill:#000000; fill-opacity:1.0000; stroke:none;">
<circle cx="155.5000" cy="86.9800" r="0.4000" /> 
</g>
<g style="fill:#000000; fill-opacity:1.0000; stroke:none;">
<circle cx="152.9600" cy="86.9800" r="0.4000" /> 
</g>
<g style="fill:#000000; fill-opacity:1.0000; stroke:none;">
<circle cx="150.4200" cy="86.9800" r="0.4000" /> 
</g>
<g style="fill:#000000; fill-opacity:1.0000; stroke:none;">
<circle cx="150.4200" cy="94.6000" r="0.4000" /> 
</g>
<g style="fill:#000000; fill-opacity:1.0000; stroke:none;">
<circle cx="152.9600" cy="94.6000" r="0.4000" /> 
</g>
<g style="fill:#000000; fill-opacity:1.0000; stroke:none;">
<circle cx="155.5000" cy="94.6000" r="0.4000" /> 
</g>
<g style="fill:#000000; fill-opacity:1.0000; stroke:none;">
<circle cx="158.0400" cy="94.6000" r="0.4000" /> 
</g>
<g style="fill:#000000; fill-opacity:1.0000; stroke:none;">
<circle cx="160.5800" cy="94.6000" r="0.4000" /> 
</g>
<g style="fill:#000000; fill-opacity:1.0000; stroke:none;">
<circle cx="163.1200" cy="94.6000" r="0.4000" /> 
</g>
<g style="fill:#000000; fill-opacity:1.0000; stroke:none;">
<circle cx="165.6600" cy="94.6000" r="0.4000" /> 
</g>
<g style="fill:#000000; fill-opacity:1.0000; stroke:none;">
<circle cx="168.2000" cy="94.6000" r="0.4000" /> 
</g>
<g style="fill:#000000; fill-opacity:1.0000; stroke:none;">
<circle cx="108.1200" cy="85.0000" r="0.5000" /> 
</g>
<g style="fill:#000000; fill-opacity:1.0000; stroke:none;">
<circle cx="105.6200" cy="82.5000" r="0.5000" /> 
</g>
<g style="fill:#000000; fill-opacity:1.0000; stroke:none;">
<circle cx="103.1200" cy="85.0000" r="0.5000" /> 
</g>
<g style="fill:#000000; fill-opacity:1.0000; stroke:none;">
<circle cx="116.1200" cy="66.5000" r="0.4000" /> 
</g>
<g style="fill:#000000; fill-opacity:1.0000; stroke:none;">
<circle cx="116.1200" cy="74.1200" r="0.4000" /> 
</g>
<g style="fill:#000000; fill-opacity:1.0000; stroke:none;">
<circle cx="116.1200" cy="87.5000" r="0.6000" /> 
</g>
<g style="fill:#000000; fill-opacity:1.0000; stroke:none;">
<circle cx="116.1200" cy="77.3400" r="0.6000" /> 
</g>
<g style="fill:#000000; fill-opacity:1.0000; stroke:none;">
<circle cx="89.0927" cy="102.9846" r="0.4191" /> 
</g>
<g style="fill:#000000; fill-opacity:1.0000; stroke:none;">
<circle cx="78.9073" cy="102.9846" r="0.4191" /> 
</g>
<g style="fill:#000000; fill-opacity:1.0000; stroke:none;">
<circle cx="77.8557" cy="105.7558" r="0.4191" /> 
</g>
<g style="fill:#000000; fill-opacity:1.0000; stroke:none;">
<circle cx="78.2139" cy="108.6946" r="0.4191" /> 
</g>
<g style="fill:#000000; fill-opacity:1.0000; stroke:none;">
<circle cx="79.8954" cy="111.1330" r="0.4191" /> 
</g>
<g style="fill:#000000; fill-opacity:1.0000; stroke:none;">
<circle cx="82.5192" cy="112.5096" r="0.4191" /> 
</g>
<g style="fill:#000000; fill-opacity:1.0000; stroke:none;">
<circle cx="85.4808" cy="112.5096" r="0.4191" /> 
</g>
<g style="fill:#000000; fill-opacity:1.0000; stroke:none;">
<circle cx="88.1046" cy="111.1330" r="0.4191" /> 
</g>
<g style="fill:#000000; fill-opacity:1.0000; stroke:none;">
<circle cx="89.7861" cy="108.6946" r="0.4191" /> 
</g>
<g style="fill:#000000; fill-opacity:1.0000; stroke:none;">
<circle cx="90.1443" cy="105.7558" r="0.4191" /> 
</g>
<g style="fill:#000000; fill-opacity:1.0000; stroke:none;">
<circle cx="84.0000" cy="100.3126" r="0.4191" /> 
</g>
<g style="fill:#000000; fill-opacity:1.0000; stroke:none;">
<circle cx="81.1247" cy="101.0212" r="0.4191" /> 
</g>
<g style="fill:#000000; fill-opacity:1.0000; stroke:none;">
<circle cx="86.8753" cy="101.0212" r="0.4191" /> 
</g>
<g style="fill:#000000; fill-opacity:1.0000; stroke:none;">
<circle cx="235.2000" cy="82.6000" r="0.4000" /> 
</g>
<g style="fill:#000000; fill-opacity:1.0000; stroke:none;">
<circle cx="240.2000" cy="82.6000" r="0.4000" /> 
</g>
<g style="fill:#000000; fill-opacity:1.0000; stroke:none;">
<circle cx="115.0927" cy="102.9846" r="0.4191" /> 
</g>
<g style="fill:#000000; fill-opacity:1.0000; stroke:none;">
<circle cx="104.9073" cy="102.9846" r="0.4191" /> 
</g>
<g style="fill:#000000; fill-opacity:1.0000; stroke:none;">
<circle cx="103.8557" cy="105.7558" r="0.4191" /> 
</g>
<g style="fill:#000000; fill-opacity:1.0000; stroke:none;">
<circle cx="104.2139" cy="108.6946" r="0.4191" /> 
</g>
<g style="fill:#000000; fill-opacity:1.0000; stroke:none;">
<circle cx="105.8954" cy="111.1330" r="0.4191" /> 
</g>
<g style="fill:#000000; fill-opacity:1.0000; stroke:none;">
<circle cx="108.5192" cy="112.5096" r="0.4191" /> 
</g>
<g style="fill:#000000; fill-opacity:1.0000; stroke:none;">
<circle cx="111.4808" cy="112.5096" r="0.4191" /> 
</g>
<g style="fill:#000000; fill-opacity:1.0000; stroke:none;">
<circle cx="114.1046" cy="111.1330" r="0.4191" /> 
</g>
<g style="fill:#000000; fill-opacity:1.0000; stroke:none;">
<circle cx="115.7861" cy="108.6946" r="0.4191" /> 
</g>
<g style="fill:#000000; fill-opacity:1.0000; stroke:none;">
<circle cx="116.1443" cy="105.7558" r="0.4191" /> 
</g>
<g style="fill:#000000; fill-opacity:1.0000; stroke:none;">
<circle cx="110.0000" cy="100.3126" r="0.4191" /> 
</g>
<g style="fill:#000000; fill-opacity:1.0000; stroke:none;">
<circle cx="107.1247" cy="101.0212" r="0.4191" /> 
</g>
<g style="fill:#000000; fill-opacity:1.0000; stroke:none;">
<circle cx="112.8753" cy="101.0212" r="0.4191" /> 
</g>
<g style="fill:#000000; fill-opacity:1.0000; stroke:none;">
<circle cx="197.6678" cy="98.8322" r="0.4000" /> 
</g>
<g style="fill:#000000; fill-opacity:1.0000; stroke:none;">
<circle cx="194.1322" cy="102.3678" r="0.4000" /> 
</g>
<g style="fill:#000000; fill-opacity:1.0000; stroke:none;">
<circle cx="112.1200" cy="74.1200" r="0.4000" /> 
</g>
<g style="fill:#000000; fill-opacity:1.0000; stroke:none;">
<circle cx="112.1200" cy="66.5000" r="0.4000" /> 
</g>
<g style="fill:#000000; fill-opacity:1.0000; stroke:none;">
<circle cx="89.6200" cy="66.5000" r="0.6500" /> 
</g>
<g style="fill:#000000; fill-opacity:1.0000; stroke:none;">
<circle cx="94.6200" cy="66.5000" r="0.6500" /> 
</g>
<g style="fill:#000000; fill-opacity:1.0000; stroke:none;">
<circle cx="83.1200" cy="66.5000" r="0.4000" /> 
</g>
<g style="fill:#000000; fill-opacity:1.0000; stroke:none;">
<circle cx="83.1200" cy="69.0000" r="0.4000" /> 
</g>
<g style="fill:#000000; fill-opacity:1.0000; stroke:none;">
<circle cx="176.9000" cy="91.3500" r="0.4500" /> 
</g>
<g style="fill:#000000; fill-opacity:1.0000; stroke:none;">
<circle cx="176.9000" cy="71.3500" r="0.4500" /> 
</g>
<g style="fill:#000000; fill-opacity:1.0000; stroke:none;">
<circle cx="77.6200" cy="82.5000" r="0.4000" /> 
</g>
<g style="fill:#000000; fill-opacity:1.0000; stroke:none;">
<circle cx="75.1200" cy="82.5000" r="0.4000" /> 
</g>
<g style="fill:#000000; fill-opacity:1.0000; stroke:none;">
<circle cx="208.0000" cy="113.5000" r="0.4000" /> 
</g>
<g style="fill:#000000; fill-opacity:1.0000; stroke:none;">
<circle cx="208.0000" cy="105.8800" r="0.4000" /> 
</g>
<g style="fill:#000000; fill-opacity:1.0000; stroke:none;">
<circle cx="232.5800" cy="72.1000" r="0.4000" /> 
</g>
<g style="fill:#000000; fill-opacity:1.0000; stroke:none;">
<circle cx="240.2000" cy="72.1000" r="0.4000" /> 
</g>
<g style="fill:#000000; fill-opacity:1.0000; stroke:none;">
<circle cx="165.0000" cy="113.5000" r="0.4000" /> 
</g>
<g style="fill:#000000; fill-opacity:1.0000; stroke:none;">
<circle cx="165.0000" cy="105.8800" r="0.4000" /> 
</g>
<g style="fill:#000000; fill-opacity:1.0000; stroke:none;">
<circle cx="224.6000" cy="70.6000" r="0.4000" /> 
</g>
<g style="fill:#000000; fill-opacity:1.0000; stroke:none;">
<circle cx="222.0600" cy="70.6000" r="0.4000" /> 
</g>
<g style="fill:#000000; fill-opacity:1.0000; stroke:none;">
<circle cx="219.5200" cy="70.6000" r="0.4000" /> 
</g>
<g style="fill:#000000; fill-opacity:1.0000; stroke:none;">
<circle cx="216.9800" cy="70.6000" r="0.4000" /> 
</g>
<g style="fill:#000000; fill-opacity:1.0000; stroke:none;">
<circle cx="214.4400" cy="70.6000" r="0.4000" /> 
</g>
<g style="fill:#000000; fill-opacity:1.0000; stroke:none;">
<circle cx="211.9000" cy="70.6000" r="0.4000" /> 
</g>
<g style="fill:#000000; fill-opacity:1.0000; stroke:none;">
<circle cx="209.3600" cy="70.6000" r="0.4000" /> 
</g>
<g style="fill:#000000; fill-opacity:1.0000; stroke:none;">
<circle cx="206.8200" cy="70.6000" r="0.4000" /> 
</g>
<g style="fill:#000000; fill-opacity:1.0000; stroke:none;">
<circle cx="204.2800" cy="70.6000" r="0.4000" /> 
</g>
<g style="fill:#000000; fill-opacity:1.0000; stroke:none;">
<circle cx="201.7400" cy="70.6000" r="0.4000" /> 
</g>
<g style="fill:#000000; fill-opacity:1.0000; stroke:none;">
<circle cx="199.2000" cy="70.6000" r="0.4000" /> 
</g>
<g style="fill:#000000; fill-opacity:1.0000; stroke:none;">
<circle cx="196.6600" cy="70.6000" r="0.4000" /> 
</g>
<g style="fill:#000000; fill-opacity:1.0000; stroke:none;">
<circle cx="194.1200" cy="70.6000" r="0.4000" /> 
</g>
<g style="fill:#000000; fill-opacity:1.0000; stroke:none;">
<circle cx="191.5800" cy="70.6000" r="0.4000" /> 
</g>
<g style="fill:#000000; fill-opacity:1.0000; stroke:none;">
<circle cx="191.5800" cy="78.2200" r="0.4000" /> 
</g>
<g style="fill:#000000; fill-opacity:1.0000; stroke:none;">
<circle cx="194.1200" cy="78.2200" r="0.4000" /> 
</g>
<g style="fill:#000000; fill-opacity:1.0000; stroke:none;">
<circle cx="196.6600" cy="78.2200" r="0.4000" /> 
</g>
<g style="fill:#000000; fill-opacity:1.0000; stroke:none;">
<circle cx="199.2000" cy="78.2200" r="0.4000" /> 
</g>
<g style="fill:#000000; fill-opacity:1.0000; stroke:none;">
<circle cx="201.7400" cy="78.2200" r="0.4000" /> 
</g>
<g style="fill:#000000; fill-opacity:1.0000; stroke:none;">
<circle cx="204.2800" cy="78.2200" r="0.4000" /> 
</g>
<g style="fill:#000000; fill-opacity:1.0000; stroke:none;">
<circle cx="206.8200" cy="78.2200" r="0.4000" /> 
</g>
<g style="fill:#000000; fill-opacity:1.0000; stroke:none;">
<circle cx="209.3600" cy="78.2200" r="0.4000" /> 
</g>
<g style="fill:#000000; fill-opacity:1.0000; stroke:none;">
<circle cx="211.9000" cy="78.2200" r="0.4000" /> 
</g>
<g style="fill:#000000; fill-opacity:1.0000; stroke:none;">
<circle cx="214.4400" cy="78.2200" r="0.4000" /> 
</g>
<g style="fill:#000000; fill-opacity:1.0000; stroke:none;">
<circle cx="216.9800" cy="78.2200" r="0.4000" /> 
</g>
<g style="fill:#000000; fill-opacity:1.0000; stroke:none;">
<circle cx="219.5200" cy="78.2200" r="0.4000" /> 
</g>
<g style="fill:#000000; fill-opacity:1.0000; stroke:none;">
<circle cx="222.0600" cy="78.2200" r="0.4000" /> 
</g>
<g style="fill:#000000; fill-opacity:1.0000; stroke:none;">
<circle cx="224.6000" cy="78.2200" r="0.4000" /> 
</g>
<g style="fill:#000000; fill-opacity:1.0000; stroke:none;">
<circle cx="251.2500" cy="89.6995" r="0.4000" /> 
</g>
<g style="fill:#000000; fill-opacity:1.0000; stroke:none;">
<circle cx="258.8700" cy="89.6995" r="0.4000" /> 
</g>
<g style="fill:#000000; fill-opacity:1.0000; stroke:none;">
<circle cx="82.6200" cy="90.0000" r="0.4000" /> 
</g>
<g style="fill:#000000; fill-opacity:1.0000; stroke:none;">
<circle cx="75.0000" cy="90.0000" r="0.4000" /> 
</g>
<g style="fill:#000000; fill-opacity:1.0000; stroke:none;">
<circle cx="133.5875" cy="103.5000" r="0.2997" /> 
</g>
<g style="fill:#000000; fill-opacity:1.0000; stroke:none;">
<circle cx="130.4125" cy="103.5000" r="0.2997" /> 
</g>
<g style="fill:#000000; fill-opacity:1.0000; stroke:none;">
<circle cx="232.5800" cy="75.6000" r="0.4000" /> 
</g>
<g style="fill:#000000; fill-opacity:1.0000; stroke:none;">
<circle cx="240.2000" cy="75.6000" r="0.4000" /> 
</g>
<g style="fill:#000000; fill-opacity:1.0000; stroke:none;">
<circle cx="86.1200" cy="86.0000" r="0.3750" /> 
</g>
<g style="fill:#000000; fill-opacity:1.0000; stroke:none;">
<circle cx="86.1200" cy="87.2700" r="0.3750" /> 
</g>
<g style="fill:#000000; fill-opacity:1.0000; stroke:none;">
<circle cx="86.1200" cy="88.5400" r="0.3750" /> 
</g>
<g style="fill:#000000; fill-opacity:1.0000; stroke:none;">
<circle cx="99.0000" cy="105.8100" r="0.4000" /> 
</g>
<g style="fill:#000000; fill-opacity:1.0000; stroke:none;">
<circle cx="99.0000" cy="98.1900" r="0.4000" /> 
</g>
<g style="fill:#000000; fill-opacity:1.0000; stroke:none;">
<circle cx="228.7800" cy="76.6000" r="0.4000" /> 
</g>
<g style="fill:#000000; fill-opacity:1.0000; stroke:none;">
<circle cx="228.7800" cy="71.6000" r="0.4000" /> 
</g>
<g style="fill:#000000; fill-opacity:1.0000; stroke:none;">
<circle cx="235.0000" cy="105.8100" r="0.4000" /> 
</g>
<g style="fill:#000000; fill-opacity:1.0000; stroke:none;">
<circle cx="235.0000" cy="98.1900" r="0.4000" /> 
</g>
<g style="fill:#000000; fill-opacity:1.0000; stroke:none;">
<circle cx="185.0927" cy="102.9846" r="0.4191" /> 
</g>
<g style="fill:#000000; fill-opacity:1.0000; stroke:none;">
<circle cx="174.9073" cy="102.9846" r="0.4191" /> 
</g>
<g style="fill:#000000; fill-opacity:1.0000; stroke:none;">
<circle cx="173.8557" cy="105.7558" r="0.4191" /> 
</g>
<g style="fill:#000000; fill-opacity:1.0000; stroke:none;">
<circle cx="174.2139" cy="108.6946" r="0.4191" /> 
</g>
<g style="fill:#000000; fill-opacity:1.0000; stroke:none;">
<circle cx="175.8954" cy="111.1330" r="0.4191" /> 
</g>
<g style="fill:#000000; fill-opacity:1.0000; stroke:none;">
<circle cx="178.5192" cy="112.5096" r="0.4191" /> 
</g>
<g style="fill:#000000; fill-opacity:1.0000; stroke:none;">
<circle cx="181.4808" cy="112.5096" r="0.4191" /> 
</g>
<g style="fill:#000000; fill-opacity:1.0000; stroke:none;">
<circle cx="184.1046" cy="111.1330" r="0.4191" /> 
</g>
<g style="fill:#000000; fill-opacity:1.0000; stroke:none;">
<circle cx="185.7861" cy="108.6946" r="0.4191" /> 
</g>
<g style="fill:#000000; fill-opacity:1.0000; stroke:none;">
<circle cx="186.1443" cy="105.7558" r="0.4191" /> 
</g>
<g style="fill:#000000; fill-opacity:1.0000; stroke:none;">
<circle cx="180.0000" cy="100.3126" r="0.4191" /> 
</g>
<g style="fill:#000000; fill-opacity:1.0000; stroke:none;">
<circle cx="177.1247" cy="101.0212" r="0.4191" /> 
</g>
<g style="fill:#000000; fill-opacity:1.0000; stroke:none;">
<circle cx="182.8753" cy="101.0212" r="0.4191" /> 
</g>
<g style="fill:#000000; fill-opacity:1.0000; stroke:none;">
<circle cx="80.0000" cy="75.0000" r="0.4000" /> 
</g>
<g style="fill:#000000; fill-opacity:1.0000; stroke:none;">
<circle cx="80.0000" cy="77.5400" r="0.4000" /> 
</g>
<g style="fill:#000000; fill-opacity:1.0000; stroke:none;">
<circle cx="80.0000" cy="80.0800" r="0.4000" /> 
</g>
<g style="fill:#000000; fill-opacity:1.0000; stroke:none;">
<circle cx="80.0000" cy="82.6200" r="0.4000" /> 
</g>
<g style="fill:#000000; fill-opacity:1.0000; stroke:none;">
<circle cx="87.6200" cy="82.6200" r="0.4000" /> 
</g>
<g style="fill:#000000; fill-opacity:1.0000; stroke:none;">
<circle cx="87.6200" cy="80.0800" r="0.4000" /> 
</g>
<g style="fill:#000000; fill-opacity:1.0000; stroke:none;">
<circle cx="87.6200" cy="77.5400" r="0.4000" /> 
</g>
<g style="fill:#000000; fill-opacity:1.0000; stroke:none;">
<circle cx="87.6200" cy="75.0000" r="0.4000" /> 
</g>
<g style="fill:#000000; fill-opacity:1.0000; stroke:none;">
<circle cx="232.7000" cy="86.1000" r="0.4000" /> 
</g>
<g style="fill:#000000; fill-opacity:1.0000; stroke:none;">
<circle cx="240.3200" cy="86.1000" r="0.4000" /> 
</g>
<g style="fill:#000000; fill-opacity:1.0000; stroke:none;">
<circle cx="235.2000" cy="79.1000" r="0.4000" /> 
</g>
<g style="fill:#000000; fill-opacity:1.0000; stroke:none;">
<circle cx="240.2000" cy="79.1000" r="0.4000" /> 
</g>
<g style="fill:#000000; fill-opacity:1.0000; stroke:none;">
<circle cx="203.5875" cy="103.5000" r="0.2997" /> 
</g>
<g style="fill:#000000; fill-opacity:1.0000; stroke:none;">
<circle cx="200.4125" cy="103.5000" r="0.2997" /> 
</g>
<g style="fill:#000000; fill-opacity:1.0000; stroke:none;">
<circle cx="258.4000" cy="93.0000" r="0.4000" /> 
</g>
<g style="fill:#000000; fill-opacity:1.0000; stroke:none;">
<circle cx="258.4000" cy="98.0000" r="0.4000" /> 
</g>
<g style="fill:#000000; fill-opacity:1.0000; stroke:none;">
<circle cx="112.1200" cy="84.8100" r="0.4000" /> 
</g>
<g style="fill:#000000; fill-opacity:1.0000; stroke:none;">
<circle cx="112.1200" cy="77.1900" r="0.4000" /> 
</g>
<g style="fill:#000000; fill-opacity:1.0000; stroke:none;">
<circle cx="141.6000" cy="72.0000" r="0.4000" /> 
</g>
<g style="fill:#000000; fill-opacity:1.0000; stroke:none;">
<circle cx="146.6000" cy="72.0000" r="0.4000" /> 
</g>
<g style="fill:#000000; fill-opacity:1.0000; stroke:none;">
<circle cx="239.0000" cy="105.8100" r="0.4000" /> 
</g>
<g style="fill:#000000; fill-opacity:1.0000; stroke:none;">
<circle cx="239.0000" cy="98.1900" r="0.4000" /> 
</g>
<g style="fill:#000000; fill-opacity:1.0000; stroke:none;">
<circle cx="229.0927" cy="102.9846" r="0.4191" /> 
</g>
<g style="fill:#000000; fill-opacity:1.0000; stroke:none;">
<circle cx="218.9073" cy="102.9846" r="0.4191" /> 
</g>
<g style="fill:#000000; fill-opacity:1.0000; stroke:none;">
<circle cx="217.8557" cy="105.7558" r="0.4191" /> 
</g>
<g style="fill:#000000; fill-opacity:1.0000; stroke:none;">
<circle cx="218.2139" cy="108.6946" r="0.4191" /> 
</g>
<g style="fill:#000000; fill-opacity:1.0000; stroke:none;">
<circle cx="219.8954" cy="111.1330" r="0.4191" /> 
</g>
<g style="fill:#000000; fill-opacity:1.0000; stroke:none;">
<circle cx="222.5192" cy="112.5096" r="0.4191" /> 
</g>
<g style="fill:#000000; fill-opacity:1.0000; stroke:none;">
<circle cx="225.4808" cy="112.5096" r="0.4191" /> 
</g>
<g style="fill:#000000; fill-opacity:1.0000; stroke:none;">
<circle cx="228.1046" cy="111.1330" r="0.4191" /> 
</g>
<g style="fill:#000000; fill-opacity:1.0000; stroke:none;">
<circle cx="229.7861" cy="108.6946" r="0.4191" /> 
</g>
<g style="fill:#000000; fill-opacity:1.0000; stroke:none;">
<circle cx="230.1443" cy="105.7558" r="0.4191" /> 
</g>
<g style="fill:#000000; fill-opacity:1.0000; stroke:none;">
<circle cx="224.0000" cy="100.3126" r="0.4191" /> 
</g>
<g style="fill:#000000; fill-opacity:1.0000; stroke:none;">
<circle cx="221.1247" cy="101.0212" r="0.4191" /> 
</g>
<g style="fill:#000000; fill-opacity:1.0000; stroke:none;">
<circle cx="226.8753" cy="101.0212" r="0.4191" /> 
</g>
<g style="fill:#000000; fill-opacity:1.0000; stroke:none;">
<circle cx="94.6000" cy="111.0000" r="0.2500" /> 
</g>
<g style="fill:#000000; fill-opacity:1.0000; stroke:none;">
<circle cx="95.3029" cy="109.3029" r="0.2500" /> 
</g>
<g style="fill:#000000; fill-opacity:1.0000; stroke:none;">
<circle cx="95.3029" cy="112.6971" r="0.2500" /> 
</g>
<g style="fill:#000000; fill-opacity:1.0000; stroke:none;">
<circle cx="97.0000" cy="108.6000" r="0.2500" /> 
</g>
<g style="fill:#000000; fill-opacity:1.0000; stroke:none;">
<circle cx="97.0000" cy="111.0000" r="1.6000" /> 
</g>
<g style="fill:#000000; fill-opacity:1.0000; stroke:none;">
<circle cx="97.0000" cy="113.4000" r="0.2500" /> 
</g>
<g style="fill:#000000; fill-opacity:1.0000; stroke:none;">
<circle cx="98.6971" cy="109.3029" r="0.2500" /> 
</g>
<g style="fill:#000000; fill-opacity:1.0000; stroke:none;">
<circle cx="98.6971" cy="112.6971" r="0.2500" /> 
</g>
<g style="fill:#000000; fill-opacity:1.0000; stroke:none;">
<circle cx="99.4000" cy="111.0000" r="0.2500" /> 
</g>
<g style="fill:#000000; fill-opacity:1.0000; stroke:none;">
<circle cx="127.6000" cy="99.1000" r="0.4000" /> 
</g>
<g style="fill:#000000; fill-opacity:1.0000; stroke:none;">
<circle cx="124.0645" cy="102.6355" r="0.4000" /> 
</g>
<g style="fill:#000000; fill-opacity:1.0000; stroke:none;">
<circle cx="94.6200" cy="91.4300" r="1.7500" /> 
</g>
<g style="fill:#000000; fill-opacity:1.0000; stroke:none;">
<circle cx="97.1600" cy="74.7700" r="0.5500" /> 
</g>
<g style="fill:#000000; fill-opacity:1.0000; stroke:none;">
<circle cx="94.6200" cy="74.7700" r="0.5500" /> 
</g>
<g style="fill:#000000; fill-opacity:1.0000; stroke:none;">
<circle cx="92.0800" cy="74.7700" r="0.5500" /> 
</g>
<g style="fill:#000000; fill-opacity:1.0000; stroke:none;">
<circle cx="95.8000" cy="105.8100" r="0.4000" /> 
</g>
<g style="fill:#000000; fill-opacity:1.0000; stroke:none;">
<circle cx="95.8000" cy="98.1900" r="0.4000" /> 
</g>
<g style="fill:#000000; fill-opacity:1.0000; stroke:none;">
<circle cx="138.0000" cy="113.5000" r="0.4000" /> 
</g>
<g style="fill:#000000; fill-opacity:1.0000; stroke:none;">
<circle cx="138.0000" cy="105.8800" r="0.4000" /> 
</g>
<g style="fill:#000000; fill-opacity:1.0000; stroke:none;">
<circle cx="105.6200" cy="72.0000" r="0.4000" /> 
</g>
<g style="fill:#000000; fill-opacity:1.0000; stroke:none;">
<circle cx="105.6200" cy="75.5000" r="0.4000" /> 
</g>
<g style="fill:#000000; fill-opacity:1.0000; stroke:none;">
<circle cx="154.9050" cy="67.3050" r="0.4000" /> 
</g>
<g style="fill:#000000; fill-opacity:1.0000; stroke:none;">
<circle cx="162.5250" cy="67.3050" r="0.4000" /> 
</g>
<g style="fill:#000000; fill-opacity:1.0000; stroke:none;">
<circle cx="126.0000" cy="113.5000" r="0.4000" /> 
</g>
<g style="fill:#000000; fill-opacity:1.0000; stroke:none;">
<circle cx="126.0000" cy="105.8800" r="0.4000" /> 
</g>
<g style="fill:#000000; fill-opacity:1.0000; stroke:none;">
<circle cx="133.5875" cy="110.5000" r="0.2997" /> 
</g>
<g style="fill:#000000; fill-opacity:1.0000; stroke:none;">
<circle cx="130.4125" cy="110.5000" r="0.2997" /> 
</g>
<g style="fill:#000000; fill-opacity:1.0000; stroke:none;">
<circle cx="121.9700" cy="74.4000" r="1.7500" /> 
</g>
<g style="fill:#000000; fill-opacity:1.0000; stroke:none;">
<circle cx="138.6300" cy="76.9400" r="0.5500" /> 
</g>
<g style="fill:#000000; fill-opacity:1.0000; stroke:none;">
<circle cx="138.6300" cy="74.4000" r="0.5500" /> 
</g>
<g style="fill:#000000; fill-opacity:1.0000; stroke:none;">
<circle cx="138.6300" cy="71.8600" r="0.5500" /> 
</g>
<g style="fill:#000000; fill-opacity:1.0000; stroke:none;">
<circle cx="254.6000" cy="65.0000" r="0.2500" /> 
</g>
<g style="fill:#000000; fill-opacity:1.0000; stroke:none;">
<circle cx="255.3029" cy="63.3029" r="0.2500" /> 
</g>
<g style="fill:#000000; fill-opacity:1.0000; stroke:none;">
<circle cx="255.3029" cy="66.6971" r="0.2500" /> 
</g>
<g style="fill:#000000; fill-opacity:1.0000; stroke:none;">
<circle cx="257.0000" cy="62.6000" r="0.2500" /> 
</g>
<g style="fill:#000000; fill-opacity:1.0000; stroke:none;">
<circle cx="257.0000" cy="65.0000" r="1.6000" /> 
</g>
<g style="fill:#000000; fill-opacity:1.0000; stroke:none;">
<circle cx="257.0000" cy="67.4000" r="0.2500" /> 
</g>
<g style="fill:#000000; fill-opacity:1.0000; stroke:none;">
<circle cx="258.6971" cy="63.3029" r="0.2500" /> 
</g>
<g style="fill:#000000; fill-opacity:1.0000; stroke:none;">
<circle cx="258.6971" cy="66.6971" r="0.2500" /> 
</g>
<g style="fill:#000000; fill-opacity:1.0000; stroke:none;">
<circle cx="259.4000" cy="65.0000" r="0.2500" /> 
</g>
<g style="fill:#000000; fill-opacity:1.0000; stroke:none;">
<circle cx="234.6000" cy="111.0000" r="0.2500" /> 
</g>
<g style="fill:#000000; fill-opacity:1.0000; stroke:none;">
<circle cx="235.3029" cy="109.3029" r="0.2500" /> 
</g>
<g style="fill:#000000; fill-opacity:1.0000; stroke:none;">
<circle cx="235.3029" cy="112.6971" r="0.2500" /> 
</g>
<g style="fill:#000000; fill-opacity:1.0000; stroke:none;">
<circle cx="237.0000" cy="108.6000" r="0.2500" /> 
</g>
<g style="fill:#000000; fill-opacity:1.0000; stroke:none;">
<circle cx="237.0000" cy="111.0000" r="1.6000" /> 
</g>
<g style="fill:#000000; fill-opacity:1.0000; stroke:none;">
<circle cx="237.0000" cy="113.4000" r="0.2500" /> 
</g>
<g style="fill:#000000; fill-opacity:1.0000; stroke:none;">
<circle cx="238.6971" cy="109.3029" r="0.2500" /> 
</g>
<g style="fill:#000000; fill-opacity:1.0000; stroke:none;">
<circle cx="238.6971" cy="112.6971" r="0.2500" /> 
</g>
<g style="fill:#000000; fill-opacity:1.0000; stroke:none;">
<circle cx="239.4000" cy="111.0000" r="0.2500" /> 
</g>
<g style="fill:#000000; fill-opacity:1.0000; stroke:none;">
<circle cx="73.6000" cy="65.0000" r="0.2500" /> 
</g>
<g style="fill:#000000; fill-opacity:1.0000; stroke:none;">
<circle cx="74.3029" cy="63.3029" r="0.2500" /> 
</g>
<g style="fill:#000000; fill-opacity:1.0000; stroke:none;">
<circle cx="74.3029" cy="66.6971" r="0.2500" /> 
</g>
<g style="fill:#000000; fill-opacity:1.0000; stroke:none;">
<circle cx="76.0000" cy="62.6000" r="0.2500" /> 
</g>
<g style="fill:#000000; fill-opacity:1.0000; stroke:none;">
<circle cx="76.0000" cy="65.0000" r="1.6000" /> 
</g>
<g style="fill:#000000; fill-opacity:1.0000; stroke:none;">
<circle cx="76.0000" cy="67.4000" r="0.2500" /> 
</g>
<g style="fill:#000000; fill-opacity:1.0000; stroke:none;">
<circle cx="77.6971" cy="63.3029" r="0.2500" /> 
</g>
<g style="fill:#000000; fill-opacity:1.0000; stroke:none;">
<circle cx="77.6971" cy="66.6971" r="0.2500" /> 
</g>
<g style="fill:#000000; fill-opacity:1.0000; stroke:none;">
<circle cx="78.4000" cy="65.0000" r="0.2500" /> 
</g>
<g style="fill:#000000; fill-opacity:1.0000; stroke:none;">
<circle cx="196.0000" cy="113.5000" r="0.4000" /> 
</g>
<g style="fill:#000000; fill-opacity:1.0000; stroke:none;">
<circle cx="196.0000" cy="105.8800" r="0.4000" /> 
</g>
<g style="fill:#000000; fill-opacity:1.0000; stroke:none;">
<circle cx="106.7400" cy="66.5000" r="0.5500" /> 
</g>
<g style="fill:#000000; fill-opacity:1.0000; stroke:none;">
<circle cx="99.1200" cy="66.5000" r="0.5500" /> 
</g>
<g style="fill:#000000; fill-opacity:1.0000; stroke:none;">
<circle cx="159.0927" cy="102.9846" r="0.4191" /> 
</g>
<g style="fill:#000000; fill-opacity:1.0000; stroke:none;">
<circle cx="148.9073" cy="102.9846" r="0.4191" /> 
</g>
<g style="fill:#000000; fill-opacity:1.0000; stroke:none;">
<circle cx="147.8557" cy="105.7558" r="0.4191" /> 
</g>
<g style="fill:#000000; fill-opacity:1.0000; stroke:none;">
<circle cx="148.2139" cy="108.6946" r="0.4191" /> 
</g>
<g style="fill:#000000; fill-opacity:1.0000; stroke:none;">
<circle cx="149.8954" cy="111.1330" r="0.4191" /> 
</g>
<g style="fill:#000000; fill-opacity:1.0000; stroke:none;">
<circle cx="152.5192" cy="112.5096" r="0.4191" /> 
</g>
<g style="fill:#000000; fill-opacity:1.0000; stroke:none;">
<circle cx="155.4808" cy="112.5096" r="0.4191" /> 
</g>
<g style="fill:#000000; fill-opacity:1.0000; stroke:none;">
<circle cx="158.1046" cy="111.1330" r="0.4191" /> 
</g>
<g style="fill:#000000; fill-opacity:1.0000; stroke:none;">
<circle cx="159.7861" cy="108.6946" r="0.4191" /> 
</g>
<g style="fill:#000000; fill-opacity:1.0000; stroke:none;">
<circle cx="160.1443" cy="105.7558" r="0.4191" /> 
</g>
<g style="fill:#000000; fill-opacity:1.0000; stroke:none;">
<circle cx="154.0000" cy="100.3126" r="0.4191" /> 
</g>
<g style="fill:#000000; fill-opacity:1.0000; stroke:none;">
<circle cx="151.1247" cy="101.0212" r="0.4191" /> 
</g>
<g style="fill:#000000; fill-opacity:1.0000; stroke:none;">
<circle cx="156.8753" cy="101.0212" r="0.4191" /> 
</g>
<g style="fill:#000000; fill-opacity:1.0000; stroke:none;">
<circle cx="154.9050" cy="70.3050" r="0.4000" /> 
</g>
<g style="fill:#000000; fill-opacity:1.0000; stroke:none;">
<circle cx="162.5250" cy="70.3050" r="0.4000" /> 
</g>
<g style="fill:#000000; fill-opacity:1.0000; stroke:none;">
<circle cx="251.2000" cy="73.6000" r="1.1000" /> 
</g>
<g style="fill:#000000; fill-opacity:1.0000; stroke:none;">
<circle cx="251.2000" cy="85.0000" r="1.1000" /> 
</g>
<g style="fill:#000000; fill-opacity:1.0000; stroke:none;">
<circle cx="243.7000" cy="76.8000" r="0.5000" /> 
</g>
<g style="fill:#000000; fill-opacity:1.0000; stroke:none;">
<circle cx="243.7000" cy="81.8000" r="0.5000" /> 
</g>
<g style="fill:#000000; fill-opacity:1.0000; stroke:none;">
<circle cx="243.7000" cy="79.3000" r="0.5000" /> 
</g>
<g style="fill:#000000; fill-opacity:1.0000; stroke:none;">
<circle cx="258.2000" cy="76.8000" r="0.5000" /> 
</g>
<g style="fill:#000000; fill-opacity:1.0000; stroke:none;">
<circle cx="258.2000" cy="81.8000" r="0.5000" /> 
</g>
<g style="fill:#000000; fill-opacity:1.0000; stroke:none;">
<circle cx="203.5875" cy="110.5000" r="0.2997" /> 
</g>
<g style="fill:#000000; fill-opacity:1.0000; stroke:none;">
<circle cx="200.4125" cy="110.5000" r="0.2997" /> 
</g>
<g style="fill:#000000; fill-opacity:1.0000; stroke:none;">
<circle cx="77.4750" cy="71.4000" r="0.5000" /> 
</g>
<g style="fill:#000000; fill-opacity:1.0000; stroke:none;">
<circle cx="74.9350" cy="71.4000" r="0.5000" /> 
</g>
<g style="fill:#000000; fill-opacity:1.0000; stroke:none;">
<circle cx="255.0927" cy="102.9846" r="0.4191" /> 
</g>
<g style="fill:#000000; fill-opacity:1.0000; stroke:none;">
<circle cx="244.9073" cy="102.9846" r="0.4191" /> 
</g>
<g style="fill:#000000; fill-opacity:1.0000; stroke:none;">
<circle cx="243.8557" cy="105.7558" r="0.4191" /> 
</g>
<g style="fill:#000000; fill-opacity:1.0000; stroke:none;">
<circle cx="244.2139" cy="108.6946" r="0.4191" /> 
</g>
<g style="fill:#000000; fill-opacity:1.0000; stroke:none;">
<circle cx="245.8954" cy="111.1330" r="0.4191" /> 
</g>
<g style="fill:#000000; fill-opacity:1.0000; stroke:none;">
<circle cx="248.5192" cy="112.5096" r="0.4191" /> 
</g>
<g style="fill:#000000; fill-opacity:1.0000; stroke:none;">
<circle cx="251.4808" cy="112.5096" r="0.4191" /> 
</g>
<g style="fill:#000000; fill-opacity:1.0000; stroke:none;">
<circle cx="254.1046" cy="111.1330" r="0.4191" /> 
</g>
<g style="fill:#000000; fill-opacity:1.0000; stroke:none;">
<circle cx="255.7861" cy="108.6946" r="0.4191" /> 
</g>
<g style="fill:#000000; fill-opacity:1.0000; stroke:none;">
<circle cx="256.1443" cy="105.7558" r="0.4191" /> 
</g>
<g style="fill:#000000; fill-opacity:1.0000; stroke:none;">
<circle cx="250.0000" cy="100.3126" r="0.4191" /> 
</g>
<g style="fill:#000000; fill-opacity:1.0000; stroke:none;">
<circle cx="247.1247" cy="101.0212" r="0.4191" /> 
</g>
<g style="fill:#000000; fill-opacity:1.0000; stroke:none;">
<circle cx="252.8753" cy="101.0212" r="0.4191" /> 
</g>
<g style="fill:#000000; fill-opacity:1.0000; stroke:none;">
<circle cx="241.0300" cy="89.6995" r="0.4000" /> 
</g>
<g style="fill:#000000; fill-opacity:1.0000; stroke:none;">
<circle cx="248.6500" cy="89.6995" r="0.4000" /> 
</g>
<g style="fill:#000000; fill-opacity:1.0000; stroke:none;">
<circle cx="168.1000" cy="97.5000" r="0.4000" /> 
</g>
<g style="fill:#000000; fill-opacity:1.0000; stroke:none;">
<circle cx="163.1000" cy="97.5000" r="0.4000" /> 
</g>
<g style="fill:#000000; fill-opacity:1.0000; stroke:none;">
<circle cx="151.5250" cy="72.3050" r="0.4000" /> 
</g>
<g style="fill:#000000; fill-opacity:1.0000; stroke:none;">
<circle cx="151.5250" cy="67.3050" r="0.4000" /> 
</g>
<g style="fill:#000000; fill-opacity:1.0000; stroke:none;">
<circle cx="164.7000" cy="83.6000" r="0.4000" /> 
</g>
<g style="fill:#000000; fill-opacity:1.0000; stroke:none;">
<circle cx="159.7000" cy="83.6000" r="0.4000" /> 
</g>
<g style="fill:#000000; fill-opacity:1.0000; stroke:none;">
<circle cx="169.0000" cy="113.5000" r="0.4000" /> 
</g>
<g style="fill:#000000; fill-opacity:1.0000; stroke:none;">
<circle cx="169.0000" cy="105.8800" r="0.4000" /> 
</g>
<g style="fill:#000000; fill-opacity:1.0000; stroke:none;">
<circle cx="82.6200" cy="86.0000" r="0.4000" /> 
</g>
<g style="fill:#000000; fill-opacity:1.0000; stroke:none;">
<circle cx="75.0000" cy="86.0000" r="0.4000" /> 
</g>
<g style="fill:#000000; fill-opacity:1.0000; stroke:none;">
<circle cx="151.5250" cy="74.6850" r="0.4000" /> 
</g>
<g style="fill:#000000; fill-opacity:1.0000; stroke:none;">
<circle cx="151.5250" cy="82.3050" r="0.4000" /> 
</g>
<g style="fill:#000000; fill-opacity:1.0000; stroke:none;">
<circle cx="141.6000" cy="77.0000" r="0.4000" /> 
</g>
<g style="fill:#000000; fill-opacity:1.0000; stroke:none;">
<circle cx="146.6000" cy="77.0000" r="0.4000" /> 
</g>
<g style="fill:#000000; fill-opacity:1.0000; stroke:none;">
<circle cx="230.9300" cy="89.6995" r="0.4000" /> 
</g>
<g style="fill:#000000; fill-opacity:1.0000; stroke:none;">
<circle cx="238.5500" cy="89.6995" r="0.4000" /> 
</g>
<g style="fill:#000000; fill-opacity:1.0000; stroke:none;">
<circle cx="77.1200" cy="74.5000" r="0.4000" /> 
</g>
<g style="fill:#000000; fill-opacity:1.0000; stroke:none;">
<circle cx="77.1200" cy="79.5000" r="0.4000" /> 
</g>
<g style="fill:#000000; fill-opacity:1.0000; stroke:none;">
<circle cx="131.0000" cy="67.1050" r="0.6500" /> 
</g>
<g style="fill:#000000; fill-opacity:1.0000; stroke:none;">
<circle cx="125.9200" cy="67.1050" r="0.6500" /> 
</g> 
</svg>
