<?xml version="1.0" standalone="no"?>
 <!DOCTYPE svg PUBLIC "-//W3C//DTD SVG 1.1//EN" 
 "http://www.w3.org/Graphics/SVG/1.1/DTD/svg11.dtd"> 
<svg
  xmlns:svg="http://www.w3.org/2000/svg"
  xmlns="http://www.w3.org/2000/svg"
  xmlns:xlink="http://www.w3.org/1999/xlink"
  version="1.1"
  width="297.0022mm" height="210.0072mm" viewBox="0.0000 0.0000 297.0022 210.0072">
<title>SVG Image created as nixie-F_Paste.svg date 2024/10/13 09:51:04 </title>
  <desc>Image generated by PCBNEW </desc>
<g style="fill:#000000; fill-opacity:1.0000;stroke:#000000; stroke-opacity:1.0000;
stroke-linecap:round; stroke-linejoin:round;"
 transform="translate(0 0) scale(1 1)">
<path style="fill:#000000; fill-opacity:1.0000; stroke:none;fill-rule:evenodd;"
d="M 139.4529,87.9829
139.8206,88.3506
138.7599,89.4112
138.3922,89.0435
Z" /> 
<path style="fill:#000000; fill-opacity:1.0000; stroke:none;fill-rule:evenodd;"
d="M 138.8872,87.4172
139.2549,87.7849
138.1943,88.8455
137.8266,88.4779
Z" /> 
<path style="fill:#000000; fill-opacity:1.0000; stroke:none;fill-rule:evenodd;"
d="M 138.3215,86.8515
138.6892,87.2192
137.6286,88.2799
137.2609,87.9122
Z" /> 
<path style="fill:#000000; fill-opacity:1.0000; stroke:none;fill-rule:evenodd;"
d="M 137.7558,86.2858
138.1235,86.6535
137.0629,87.7142
136.6952,87.3465
Z" /> 
<path style="fill:#000000; fill-opacity:1.0000; stroke:none;fill-rule:evenodd;"
d="M 137.1902,85.7201
137.5579,86.0878
136.4972,87.1485
136.1295,86.7808
Z" /> 
<path style="fill:#000000; fill-opacity:1.0000; stroke:none;fill-rule:evenodd;"
d="M 136.6245,85.1545
136.9922,85.5221
135.9315,86.5828
135.5638,86.2151
Z" /> 
<path style="fill:#000000; fill-opacity:1.0000; stroke:none;fill-rule:evenodd;"
d="M 136.0588,84.5888
136.4265,84.9565
135.3658,86.0171
134.9981,85.6494
Z" /> 
<path style="fill:#000000; fill-opacity:1.0000; stroke:none;fill-rule:evenodd;"
d="M 135.4931,84.0231
135.8608,84.3908
134.8001,85.4514
134.4324,85.0837
Z" /> 
<path style="fill:#000000; fill-opacity:1.0000; stroke:none;fill-rule:evenodd;"
d="M 134.9274,83.4574
135.2951,83.8251
134.2345,84.8858
133.8668,84.5181
Z" /> 
<path style="fill:#000000; fill-opacity:1.0000; stroke:none;fill-rule:evenodd;"
d="M 134.3617,82.8917
134.7294,83.2594
133.6688,84.3201
133.3011,83.9524
Z" /> 
<path style="fill:#000000; fill-opacity:1.0000; stroke:none;fill-rule:evenodd;"
d="M 133.7961,82.3260
134.1637,82.6937
133.1031,83.7544
132.7354,83.3867
Z" /> 
<path style="fill:#000000; fill-opacity:1.0000; stroke:none;fill-rule:evenodd;"
d="M 130.2039,82.3260
131.2646,83.3867
130.8969,83.7544
129.8363,82.6937
Z" /> 
<path style="fill:#000000; fill-opacity:1.0000; stroke:none;fill-rule:evenodd;"
d="M 129.6383,82.8917
130.6989,83.9524
130.3312,84.3201
129.2706,83.2594
Z" /> 
<path style="fill:#000000; fill-opacity:1.0000; stroke:none;fill-rule:evenodd;"
d="M 129.0726,83.4574
130.1332,84.5181
129.7655,84.8858
128.7049,83.8251
Z" /> 
<path style="fill:#000000; fill-opacity:1.0000; stroke:none;fill-rule:evenodd;"
d="M 128.5069,84.0231
129.5676,85.0837
129.1999,85.4514
128.1392,84.3908
Z" /> 
<path style="fill:#000000; fill-opacity:1.0000; stroke:none;fill-rule:evenodd;"
d="M 127.9412,84.5888
129.0019,85.6494
128.6342,86.0171
127.5735,84.9565
Z" /> 
<path style="fill:#000000; fill-opacity:1.0000; stroke:none;fill-rule:evenodd;"
d="M 127.3755,85.1545
128.4362,86.2151
128.0685,86.5828
127.0078,85.5221
Z" /> 
<path style="fill:#000000; fill-opacity:1.0000; stroke:none;fill-rule:evenodd;"
d="M 126.8098,85.7201
127.8705,86.7808
127.5028,87.1485
126.4421,86.0878
Z" /> 
<path style="fill:#000000; fill-opacity:1.0000; stroke:none;fill-rule:evenodd;"
d="M 126.2442,86.2858
127.3048,87.3465
126.9371,87.7142
125.8765,86.6535
Z" /> 
<path style="fill:#000000; fill-opacity:1.0000; stroke:none;fill-rule:evenodd;"
d="M 125.6785,86.8515
126.7391,87.9122
126.3714,88.2799
125.3108,87.2192
Z" /> 
<path style="fill:#000000; fill-opacity:1.0000; stroke:none;fill-rule:evenodd;"
d="M 125.1128,87.4172
126.1734,88.4779
125.8057,88.8455
124.7451,87.7849
Z" /> 
<path style="fill:#000000; fill-opacity:1.0000; stroke:none;fill-rule:evenodd;"
d="M 124.5471,87.9829
125.6078,89.0435
125.2401,89.4112
124.1794,88.3506
Z" /> 
<path style="fill:#000000; fill-opacity:1.0000; stroke:none;fill-rule:evenodd;"
d="M 125.2401,90.8820
125.6078,91.2497
124.5471,92.3104
124.1794,91.9427
Z" /> 
<path style="fill:#000000; fill-opacity:1.0000; stroke:none;fill-rule:evenodd;"
d="M 125.8057,91.4477
126.1734,91.8154
125.1128,92.8761
124.7451,92.5084
Z" /> 
<path style="fill:#000000; fill-opacity:1.0000; stroke:none;fill-rule:evenodd;"
d="M 126.3714,92.0134
126.7391,92.3811
125.6785,93.4417
125.3108,93.0740
Z" /> 
<path style="fill:#000000; fill-opacity:1.0000; stroke:none;fill-rule:evenodd;"
d="M 126.9371,92.5791
127.3048,92.9468
126.2442,94.0074
125.8765,93.6397
Z" /> 
<path style="fill:#000000; fill-opacity:1.0000; stroke:none;fill-rule:evenodd;"
d="M 127.5028,93.1448
127.8705,93.5125
126.8098,94.5731
126.4421,94.2054
Z" /> 
<path style="fill:#000000; fill-opacity:1.0000; stroke:none;fill-rule:evenodd;"
d="M 128.0685,93.7104
128.4362,94.0781
127.3755,95.1388
127.0078,94.7711
Z" /> 
<path style="fill:#000000; fill-opacity:1.0000; stroke:none;fill-rule:evenodd;"
d="M 128.6342,94.2761
129.0019,94.6438
127.9412,95.7045
127.5735,95.3368
Z" /> 
<path style="fill:#000000; fill-opacity:1.0000; stroke:none;fill-rule:evenodd;"
d="M 129.1999,94.8418
129.5676,95.2095
128.5069,96.2702
128.1392,95.9025
Z" /> 
<path style="fill:#000000; fill-opacity:1.0000; stroke:none;fill-rule:evenodd;"
d="M 129.7655,95.4075
130.1332,95.7752
129.0726,96.8359
128.7049,96.4682
Z" /> 
<path style="fill:#000000; fill-opacity:1.0000; stroke:none;fill-rule:evenodd;"
d="M 130.3312,95.9732
130.6989,96.3409
129.6383,97.4015
129.2706,97.0338
Z" /> 
<path style="fill:#000000; fill-opacity:1.0000; stroke:none;fill-rule:evenodd;"
d="M 130.8969,96.5389
131.2646,96.9066
130.2039,97.9672
129.8363,97.5995
Z" /> 
<path style="fill:#000000; fill-opacity:1.0000; stroke:none;fill-rule:evenodd;"
d="M 133.1031,96.5389
134.1637,97.5995
133.7961,97.9672
132.7354,96.9066
Z" /> 
<path style="fill:#000000; fill-opacity:1.0000; stroke:none;fill-rule:evenodd;"
d="M 133.6688,95.9732
134.7294,97.0338
134.3617,97.4015
133.3011,96.3409
Z" /> 
<path style="fill:#000000; fill-opacity:1.0000; stroke:none;fill-rule:evenodd;"
d="M 134.2345,95.4075
135.2951,96.4682
134.9274,96.8359
133.8668,95.7752
Z" /> 
<path style="fill:#000000; fill-opacity:1.0000; stroke:none;fill-rule:evenodd;"
d="M 134.8001,94.8418
135.8608,95.9025
135.4931,96.2702
134.4324,95.2095
Z" /> 
<path style="fill:#000000; fill-opacity:1.0000; stroke:none;fill-rule:evenodd;"
d="M 135.3658,94.2761
136.4265,95.3368
136.0588,95.7045
134.9981,94.6438
Z" /> 
<path style="fill:#000000; fill-opacity:1.0000; stroke:none;fill-rule:evenodd;"
d="M 135.9315,93.7104
136.9922,94.7711
136.6245,95.1388
135.5638,94.0781
Z" /> 
<path style="fill:#000000; fill-opacity:1.0000; stroke:none;fill-rule:evenodd;"
d="M 136.4972,93.1448
137.5579,94.2054
137.1902,94.5731
136.1295,93.5125
Z" /> 
<path style="fill:#000000; fill-opacity:1.0000; stroke:none;fill-rule:evenodd;"
d="M 137.0629,92.5791
138.1235,93.6397
137.7558,94.0074
136.6952,92.9468
Z" /> 
<path style="fill:#000000; fill-opacity:1.0000; stroke:none;fill-rule:evenodd;"
d="M 137.6286,92.0134
138.6892,93.0740
138.3215,93.4417
137.2609,92.3811
Z" /> 
<path style="fill:#000000; fill-opacity:1.0000; stroke:none;fill-rule:evenodd;"
d="M 138.1943,91.4477
139.2549,92.5084
138.8872,92.8761
137.8266,91.8154
Z" /> 
<path style="fill:#000000; fill-opacity:1.0000; stroke:none;fill-rule:evenodd;"
d="M 138.7599,90.8820
139.8206,91.9427
139.4529,92.3104
138.3922,91.2497
Z" /> 
<path style="fill:#000000; fill-opacity:1.0000; stroke:none;fill-rule:evenodd;"
d="M 156.5500,73.3450
156.5614,73.2876
156.5939,73.2389
156.6426,73.2064
156.7000,73.1950
158.3500,73.1950
158.4074,73.2064
158.4561,73.2389
158.4886,73.2876
158.5000,73.3450
158.5000,73.6450
158.4886,73.7024
158.4561,73.7511
158.4074,73.7836
158.3500,73.7950
156.7000,73.7950
156.6426,73.7836
156.5939,73.7511
156.5614,73.7024
156.5500,73.6450
Z" /> 
<path style="fill:#000000; fill-opacity:1.0000; stroke:none;fill-rule:evenodd;"
d="M 156.5500,74.6150
156.5614,74.5576
156.5939,74.5089
156.6426,74.4764
156.7000,74.4650
158.3500,74.4650
158.4074,74.4764
158.4561,74.5089
158.4886,74.5576
158.5000,74.6150
158.5000,74.9150
158.4886,74.9724
158.4561,75.0211
158.4074,75.0536
158.3500,75.0650
156.7000,75.0650
156.6426,75.0536
156.5939,75.0211
156.5614,74.9724
156.5500,74.9150
Z" /> 
<path style="fill:#000000; fill-opacity:1.0000; stroke:none;fill-rule:evenodd;"
d="M 156.5500,75.8850
156.5614,75.8276
156.5939,75.7789
156.6426,75.7464
156.7000,75.7350
158.3500,75.7350
158.4074,75.7464
158.4561,75.7789
158.4886,75.8276
158.5000,75.8850
158.5000,76.1850
158.4886,76.2424
158.4561,76.2911
158.4074,76.3236
158.3500,76.3350
156.7000,76.3350
156.6426,76.3236
156.5939,76.2911
156.5614,76.2424
156.5500,76.1850
Z" /> 
<path style="fill:#000000; fill-opacity:1.0000; stroke:none;fill-rule:evenodd;"
d="M 156.5500,77.1550
156.5614,77.0976
156.5939,77.0489
156.6426,77.0164
156.7000,77.0050
158.3500,77.0050
158.4074,77.0164
158.4561,77.0489
158.4886,77.0976
158.5000,77.1550
158.5000,77.4550
158.4886,77.5124
158.4561,77.5611
158.4074,77.5936
158.3500,77.6050
156.7000,77.6050
156.6426,77.5936
156.5939,77.5611
156.5614,77.5124
156.5500,77.4550
Z" /> 
<path style="fill:#000000; fill-opacity:1.0000; stroke:none;fill-rule:evenodd;"
d="M 161.5000,77.1550
161.5114,77.0976
161.5439,77.0489
161.5926,77.0164
161.6500,77.0050
163.3000,77.0050
163.3574,77.0164
163.4061,77.0489
163.4386,77.0976
163.4500,77.1550
163.4500,77.4550
163.4386,77.5124
163.4061,77.5611
163.3574,77.5936
163.3000,77.6050
161.6500,77.6050
161.5926,77.5936
161.5439,77.5611
161.5114,77.5124
161.5000,77.4550
Z" /> 
<path style="fill:#000000; fill-opacity:1.0000; stroke:none;fill-rule:evenodd;"
d="M 161.5000,75.8850
161.5114,75.8276
161.5439,75.7789
161.5926,75.7464
161.6500,75.7350
163.3000,75.7350
163.3574,75.7464
163.4061,75.7789
163.4386,75.8276
163.4500,75.8850
163.4500,76.1850
163.4386,76.2424
163.4061,76.2911
163.3574,76.3236
163.3000,76.3350
161.6500,76.3350
161.5926,76.3236
161.5439,76.2911
161.5114,76.2424
161.5000,76.1850
Z" /> 
<path style="fill:#000000; fill-opacity:1.0000; stroke:none;fill-rule:evenodd;"
d="M 161.5000,74.6150
161.5114,74.5576
161.5439,74.5089
161.5926,74.4764
161.6500,74.4650
163.3000,74.4650
163.3574,74.4764
163.4061,74.5089
163.4386,74.5576
163.4500,74.6150
163.4500,74.9150
163.4386,74.9724
163.4061,75.0211
163.3574,75.0536
163.3000,75.0650
161.6500,75.0650
161.5926,75.0536
161.5439,75.0211
161.5114,74.9724
161.5000,74.9150
Z" /> 
<path style="fill:#000000; fill-opacity:1.0000; stroke:none;fill-rule:evenodd;"
d="M 161.5000,73.3450
161.5114,73.2876
161.5439,73.2389
161.5926,73.2064
161.6500,73.1950
163.3000,73.1950
163.3574,73.2064
163.4061,73.2389
163.4386,73.2876
163.4500,73.3450
163.4500,73.6450
163.4386,73.7024
163.4061,73.7511
163.3574,73.7836
163.3000,73.7950
161.6500,73.7950
161.5926,73.7836
161.5439,73.7511
161.5114,73.7024
161.5000,73.6450
Z" /> 
<path style="fill:#000000; fill-opacity:1.0000; stroke:none;fill-rule:evenodd;"
d="M 209.4529,87.8363
209.8206,88.2039
208.7599,89.2646
208.3922,88.8969
Z" /> 
<path style="fill:#000000; fill-opacity:1.0000; stroke:none;fill-rule:evenodd;"
d="M 208.8872,87.2706
209.2549,87.6383
208.1943,88.6989
207.8266,88.3312
Z" /> 
<path style="fill:#000000; fill-opacity:1.0000; stroke:none;fill-rule:evenodd;"
d="M 208.3215,86.7049
208.6892,87.0726
207.6286,88.1332
207.2609,87.7655
Z" /> 
<path style="fill:#000000; fill-opacity:1.0000; stroke:none;fill-rule:evenodd;"
d="M 207.7558,86.1392
208.1235,86.5069
207.0629,87.5676
206.6952,87.1999
Z" /> 
<path style="fill:#000000; fill-opacity:1.0000; stroke:none;fill-rule:evenodd;"
d="M 207.1902,85.5735
207.5579,85.9412
206.4972,87.0019
206.1295,86.6342
Z" /> 
<path style="fill:#000000; fill-opacity:1.0000; stroke:none;fill-rule:evenodd;"
d="M 206.6245,85.0078
206.9922,85.3755
205.9315,86.4362
205.5638,86.0685
Z" /> 
<path style="fill:#000000; fill-opacity:1.0000; stroke:none;fill-rule:evenodd;"
d="M 206.0588,84.4421
206.4265,84.8098
205.3658,85.8705
204.9981,85.5028
Z" /> 
<path style="fill:#000000; fill-opacity:1.0000; stroke:none;fill-rule:evenodd;"
d="M 205.4931,83.8765
205.8608,84.2442
204.8001,85.3048
204.4324,84.9371
Z" /> 
<path style="fill:#000000; fill-opacity:1.0000; stroke:none;fill-rule:evenodd;"
d="M 204.9274,83.3108
205.2951,83.6785
204.2345,84.7391
203.8668,84.3714
Z" /> 
<path style="fill:#000000; fill-opacity:1.0000; stroke:none;fill-rule:evenodd;"
d="M 204.3617,82.7451
204.7294,83.1128
203.6688,84.1734
203.3011,83.8057
Z" /> 
<path style="fill:#000000; fill-opacity:1.0000; stroke:none;fill-rule:evenodd;"
d="M 203.7961,82.1794
204.1637,82.5471
203.1031,83.6078
202.7354,83.2401
Z" /> 
<path style="fill:#000000; fill-opacity:1.0000; stroke:none;fill-rule:evenodd;"
d="M 200.2039,82.1794
201.2646,83.2401
200.8969,83.6078
199.8363,82.5471
Z" /> 
<path style="fill:#000000; fill-opacity:1.0000; stroke:none;fill-rule:evenodd;"
d="M 199.6383,82.7451
200.6989,83.8057
200.3312,84.1734
199.2706,83.1128
Z" /> 
<path style="fill:#000000; fill-opacity:1.0000; stroke:none;fill-rule:evenodd;"
d="M 199.0726,83.3108
200.1332,84.3714
199.7655,84.7391
198.7049,83.6785
Z" /> 
<path style="fill:#000000; fill-opacity:1.0000; stroke:none;fill-rule:evenodd;"
d="M 198.5069,83.8765
199.5676,84.9371
199.1999,85.3048
198.1392,84.2442
Z" /> 
<path style="fill:#000000; fill-opacity:1.0000; stroke:none;fill-rule:evenodd;"
d="M 197.9412,84.4421
199.0019,85.5028
198.6342,85.8705
197.5735,84.8098
Z" /> 
<path style="fill:#000000; fill-opacity:1.0000; stroke:none;fill-rule:evenodd;"
d="M 197.3755,85.0078
198.4362,86.0685
198.0685,86.4362
197.0078,85.3755
Z" /> 
<path style="fill:#000000; fill-opacity:1.0000; stroke:none;fill-rule:evenodd;"
d="M 196.8098,85.5735
197.8705,86.6342
197.5028,87.0019
196.4421,85.9412
Z" /> 
<path style="fill:#000000; fill-opacity:1.0000; stroke:none;fill-rule:evenodd;"
d="M 196.2442,86.1392
197.3048,87.1999
196.9371,87.5676
195.8765,86.5069
Z" /> 
<path style="fill:#000000; fill-opacity:1.0000; stroke:none;fill-rule:evenodd;"
d="M 195.6785,86.7049
196.7391,87.7655
196.3714,88.1332
195.3108,87.0726
Z" /> 
<path style="fill:#000000; fill-opacity:1.0000; stroke:none;fill-rule:evenodd;"
d="M 195.1128,87.2706
196.1734,88.3312
195.8057,88.6989
194.7451,87.6383
Z" /> 
<path style="fill:#000000; fill-opacity:1.0000; stroke:none;fill-rule:evenodd;"
d="M 194.5471,87.8363
195.6078,88.8969
195.2401,89.2646
194.1794,88.2039
Z" /> 
<path style="fill:#000000; fill-opacity:1.0000; stroke:none;fill-rule:evenodd;"
d="M 195.2401,90.7354
195.6078,91.1031
194.5471,92.1637
194.1794,91.7961
Z" /> 
<path style="fill:#000000; fill-opacity:1.0000; stroke:none;fill-rule:evenodd;"
d="M 195.8057,91.3011
196.1734,91.6688
195.1128,92.7294
194.7451,92.3617
Z" /> 
<path style="fill:#000000; fill-opacity:1.0000; stroke:none;fill-rule:evenodd;"
d="M 196.3714,91.8668
196.7391,92.2345
195.6785,93.2951
195.3108,92.9274
Z" /> 
<path style="fill:#000000; fill-opacity:1.0000; stroke:none;fill-rule:evenodd;"
d="M 196.9371,92.4324
197.3048,92.8001
196.2442,93.8608
195.8765,93.4931
Z" /> 
<path style="fill:#000000; fill-opacity:1.0000; stroke:none;fill-rule:evenodd;"
d="M 197.5028,92.9981
197.8705,93.3658
196.8098,94.4265
196.4421,94.0588
Z" /> 
<path style="fill:#000000; fill-opacity:1.0000; stroke:none;fill-rule:evenodd;"
d="M 198.0685,93.5638
198.4362,93.9315
197.3755,94.9922
197.0078,94.6245
Z" /> 
<path style="fill:#000000; fill-opacity:1.0000; stroke:none;fill-rule:evenodd;"
d="M 198.6342,94.1295
199.0019,94.4972
197.9412,95.5579
197.5735,95.1902
Z" /> 
<path style="fill:#000000; fill-opacity:1.0000; stroke:none;fill-rule:evenodd;"
d="M 199.1999,94.6952
199.5676,95.0629
198.5069,96.1235
198.1392,95.7558
Z" /> 
<path style="fill:#000000; fill-opacity:1.0000; stroke:none;fill-rule:evenodd;"
d="M 199.7655,95.2609
200.1332,95.6286
199.0726,96.6892
198.7049,96.3215
Z" /> 
<path style="fill:#000000; fill-opacity:1.0000; stroke:none;fill-rule:evenodd;"
d="M 200.3312,95.8266
200.6989,96.1943
199.6383,97.2549
199.2706,96.8872
Z" /> 
<path style="fill:#000000; fill-opacity:1.0000; stroke:none;fill-rule:evenodd;"
d="M 200.8969,96.3922
201.2646,96.7599
200.2039,97.8206
199.8363,97.4529
Z" /> 
<path style="fill:#000000; fill-opacity:1.0000; stroke:none;fill-rule:evenodd;"
d="M 203.1031,96.3922
204.1637,97.4529
203.7961,97.8206
202.7354,96.7599
Z" /> 
<path style="fill:#000000; fill-opacity:1.0000; stroke:none;fill-rule:evenodd;"
d="M 203.6688,95.8266
204.7294,96.8872
204.3617,97.2549
203.3011,96.1943
Z" /> 
<path style="fill:#000000; fill-opacity:1.0000; stroke:none;fill-rule:evenodd;"
d="M 204.2345,95.2609
205.2951,96.3215
204.9274,96.6892
203.8668,95.6286
Z" /> 
<path style="fill:#000000; fill-opacity:1.0000; stroke:none;fill-rule:evenodd;"
d="M 204.8001,94.6952
205.8608,95.7558
205.4931,96.1235
204.4324,95.0629
Z" /> 
<path style="fill:#000000; fill-opacity:1.0000; stroke:none;fill-rule:evenodd;"
d="M 205.3658,94.1295
206.4265,95.1902
206.0588,95.5579
204.9981,94.4972
Z" /> 
<path style="fill:#000000; fill-opacity:1.0000; stroke:none;fill-rule:evenodd;"
d="M 205.9315,93.5638
206.9922,94.6245
206.6245,94.9922
205.5638,93.9315
Z" /> 
<path style="fill:#000000; fill-opacity:1.0000; stroke:none;fill-rule:evenodd;"
d="M 206.4972,92.9981
207.5579,94.0588
207.1902,94.4265
206.1295,93.3658
Z" /> 
<path style="fill:#000000; fill-opacity:1.0000; stroke:none;fill-rule:evenodd;"
d="M 207.0629,92.4324
208.1235,93.4931
207.7558,93.8608
206.6952,92.8001
Z" /> 
<path style="fill:#000000; fill-opacity:1.0000; stroke:none;fill-rule:evenodd;"
d="M 207.6286,91.8668
208.6892,92.9274
208.3215,93.2951
207.2609,92.2345
Z" /> 
<path style="fill:#000000; fill-opacity:1.0000; stroke:none;fill-rule:evenodd;"
d="M 208.1943,91.3011
209.2549,92.3617
208.8872,92.7294
207.8266,91.6688
Z" /> 
<path style="fill:#000000; fill-opacity:1.0000; stroke:none;fill-rule:evenodd;"
d="M 208.7599,90.7354
209.8206,91.7961
209.4529,92.1637
208.3922,91.1031
Z" /> 
</g> 
</svg>
