%TF.GenerationSoftware,KiCad,Pcbnew,8.0.4+1*%
%TF.CreationDate,2024-10-13T16:33:14+00:00*%
%TF.ProjectId,nixie,6e697869-652e-46b6-9963-61645f706362,v1.1*%
%TF.SameCoordinates,Original*%
%TF.FileFunction,Legend,Bot*%
%TF.FilePolarity,Positive*%
%FSLAX46Y46*%
G04 Gerber Fmt 4.6, Leading zero omitted, Abs format (unit mm)*
G04 Created by KiCad (PCBNEW 8.0.4+1) date 2024-10-13 16:33:14*
%MOMM*%
%LPD*%
G01*
G04 APERTURE LIST*
%ADD10C,0.100000*%
%ADD11C,0.150000*%
%ADD12C,0.120000*%
G04 APERTURE END LIST*
D10*
X251696115Y-62632643D02*
X251696115Y-61632643D01*
X251696115Y-61632643D02*
X251124687Y-62632643D01*
X251124687Y-62632643D02*
X251124687Y-61632643D01*
X250648496Y-62632643D02*
X250648496Y-61965976D01*
X250648496Y-61632643D02*
X250696115Y-61680262D01*
X250696115Y-61680262D02*
X250648496Y-61727881D01*
X250648496Y-61727881D02*
X250600877Y-61680262D01*
X250600877Y-61680262D02*
X250648496Y-61632643D01*
X250648496Y-61632643D02*
X250648496Y-61727881D01*
X250267544Y-62632643D02*
X249743735Y-61965976D01*
X250267544Y-61965976D02*
X249743735Y-62632643D01*
X249362782Y-62632643D02*
X249362782Y-61965976D01*
X249362782Y-61632643D02*
X249410401Y-61680262D01*
X249410401Y-61680262D02*
X249362782Y-61727881D01*
X249362782Y-61727881D02*
X249315163Y-61680262D01*
X249315163Y-61680262D02*
X249362782Y-61632643D01*
X249362782Y-61632643D02*
X249362782Y-61727881D01*
X248505640Y-62585024D02*
X248600878Y-62632643D01*
X248600878Y-62632643D02*
X248791354Y-62632643D01*
X248791354Y-62632643D02*
X248886592Y-62585024D01*
X248886592Y-62585024D02*
X248934211Y-62489785D01*
X248934211Y-62489785D02*
X248934211Y-62108833D01*
X248934211Y-62108833D02*
X248886592Y-62013595D01*
X248886592Y-62013595D02*
X248791354Y-61965976D01*
X248791354Y-61965976D02*
X248600878Y-61965976D01*
X248600878Y-61965976D02*
X248505640Y-62013595D01*
X248505640Y-62013595D02*
X248458021Y-62108833D01*
X248458021Y-62108833D02*
X248458021Y-62204071D01*
X248458021Y-62204071D02*
X248934211Y-62299309D01*
X246696116Y-62537404D02*
X246743735Y-62585024D01*
X246743735Y-62585024D02*
X246886592Y-62632643D01*
X246886592Y-62632643D02*
X246981830Y-62632643D01*
X246981830Y-62632643D02*
X247124687Y-62585024D01*
X247124687Y-62585024D02*
X247219925Y-62489785D01*
X247219925Y-62489785D02*
X247267544Y-62394547D01*
X247267544Y-62394547D02*
X247315163Y-62204071D01*
X247315163Y-62204071D02*
X247315163Y-62061214D01*
X247315163Y-62061214D02*
X247267544Y-61870738D01*
X247267544Y-61870738D02*
X247219925Y-61775500D01*
X247219925Y-61775500D02*
X247124687Y-61680262D01*
X247124687Y-61680262D02*
X246981830Y-61632643D01*
X246981830Y-61632643D02*
X246886592Y-61632643D01*
X246886592Y-61632643D02*
X246743735Y-61680262D01*
X246743735Y-61680262D02*
X246696116Y-61727881D01*
X246124687Y-62632643D02*
X246219925Y-62585024D01*
X246219925Y-62585024D02*
X246267544Y-62489785D01*
X246267544Y-62489785D02*
X246267544Y-61632643D01*
X245600877Y-62632643D02*
X245696115Y-62585024D01*
X245696115Y-62585024D02*
X245743734Y-62537404D01*
X245743734Y-62537404D02*
X245791353Y-62442166D01*
X245791353Y-62442166D02*
X245791353Y-62156452D01*
X245791353Y-62156452D02*
X245743734Y-62061214D01*
X245743734Y-62061214D02*
X245696115Y-62013595D01*
X245696115Y-62013595D02*
X245600877Y-61965976D01*
X245600877Y-61965976D02*
X245458020Y-61965976D01*
X245458020Y-61965976D02*
X245362782Y-62013595D01*
X245362782Y-62013595D02*
X245315163Y-62061214D01*
X245315163Y-62061214D02*
X245267544Y-62156452D01*
X245267544Y-62156452D02*
X245267544Y-62442166D01*
X245267544Y-62442166D02*
X245315163Y-62537404D01*
X245315163Y-62537404D02*
X245362782Y-62585024D01*
X245362782Y-62585024D02*
X245458020Y-62632643D01*
X245458020Y-62632643D02*
X245600877Y-62632643D01*
X244410401Y-62585024D02*
X244505639Y-62632643D01*
X244505639Y-62632643D02*
X244696115Y-62632643D01*
X244696115Y-62632643D02*
X244791353Y-62585024D01*
X244791353Y-62585024D02*
X244838972Y-62537404D01*
X244838972Y-62537404D02*
X244886591Y-62442166D01*
X244886591Y-62442166D02*
X244886591Y-62156452D01*
X244886591Y-62156452D02*
X244838972Y-62061214D01*
X244838972Y-62061214D02*
X244791353Y-62013595D01*
X244791353Y-62013595D02*
X244696115Y-61965976D01*
X244696115Y-61965976D02*
X244505639Y-61965976D01*
X244505639Y-61965976D02*
X244410401Y-62013595D01*
X243981829Y-62632643D02*
X243981829Y-61632643D01*
X243886591Y-62251690D02*
X243600877Y-62632643D01*
X243600877Y-61965976D02*
X243981829Y-62346928D01*
X242410400Y-62632643D02*
X242410400Y-61632643D01*
X242410400Y-62013595D02*
X242315162Y-61965976D01*
X242315162Y-61965976D02*
X242124686Y-61965976D01*
X242124686Y-61965976D02*
X242029448Y-62013595D01*
X242029448Y-62013595D02*
X241981829Y-62061214D01*
X241981829Y-62061214D02*
X241934210Y-62156452D01*
X241934210Y-62156452D02*
X241934210Y-62442166D01*
X241934210Y-62442166D02*
X241981829Y-62537404D01*
X241981829Y-62537404D02*
X242029448Y-62585024D01*
X242029448Y-62585024D02*
X242124686Y-62632643D01*
X242124686Y-62632643D02*
X242315162Y-62632643D01*
X242315162Y-62632643D02*
X242410400Y-62585024D01*
X241600876Y-61965976D02*
X241362781Y-62632643D01*
X241124686Y-61965976D02*
X241362781Y-62632643D01*
X241362781Y-62632643D02*
X241458019Y-62870738D01*
X241458019Y-62870738D02*
X241505638Y-62918357D01*
X241505638Y-62918357D02*
X241600876Y-62965976D01*
X239981828Y-62632643D02*
X239981828Y-61632643D01*
X239981828Y-61632643D02*
X239600876Y-61632643D01*
X239600876Y-61632643D02*
X239505638Y-61680262D01*
X239505638Y-61680262D02*
X239458019Y-61727881D01*
X239458019Y-61727881D02*
X239410400Y-61823119D01*
X239410400Y-61823119D02*
X239410400Y-61965976D01*
X239410400Y-61965976D02*
X239458019Y-62061214D01*
X239458019Y-62061214D02*
X239505638Y-62108833D01*
X239505638Y-62108833D02*
X239600876Y-62156452D01*
X239600876Y-62156452D02*
X239981828Y-62156452D01*
X238981828Y-62632643D02*
X238981828Y-61965976D01*
X238981828Y-61632643D02*
X239029447Y-61680262D01*
X239029447Y-61680262D02*
X238981828Y-61727881D01*
X238981828Y-61727881D02*
X238934209Y-61680262D01*
X238934209Y-61680262D02*
X238981828Y-61632643D01*
X238981828Y-61632643D02*
X238981828Y-61727881D01*
X238505638Y-62632643D02*
X238505638Y-61965976D01*
X238505638Y-62061214D02*
X238458019Y-62013595D01*
X238458019Y-62013595D02*
X238362781Y-61965976D01*
X238362781Y-61965976D02*
X238219924Y-61965976D01*
X238219924Y-61965976D02*
X238124686Y-62013595D01*
X238124686Y-62013595D02*
X238077067Y-62108833D01*
X238077067Y-62108833D02*
X238077067Y-62632643D01*
X238077067Y-62108833D02*
X238029448Y-62013595D01*
X238029448Y-62013595D02*
X237934210Y-61965976D01*
X237934210Y-61965976D02*
X237791353Y-61965976D01*
X237791353Y-61965976D02*
X237696114Y-62013595D01*
X237696114Y-62013595D02*
X237648495Y-62108833D01*
X237648495Y-62108833D02*
X237648495Y-62632643D01*
X236077067Y-62108833D02*
X235934210Y-62156452D01*
X235934210Y-62156452D02*
X235886591Y-62204071D01*
X235886591Y-62204071D02*
X235838972Y-62299309D01*
X235838972Y-62299309D02*
X235838972Y-62442166D01*
X235838972Y-62442166D02*
X235886591Y-62537404D01*
X235886591Y-62537404D02*
X235934210Y-62585024D01*
X235934210Y-62585024D02*
X236029448Y-62632643D01*
X236029448Y-62632643D02*
X236410400Y-62632643D01*
X236410400Y-62632643D02*
X236410400Y-61632643D01*
X236410400Y-61632643D02*
X236077067Y-61632643D01*
X236077067Y-61632643D02*
X235981829Y-61680262D01*
X235981829Y-61680262D02*
X235934210Y-61727881D01*
X235934210Y-61727881D02*
X235886591Y-61823119D01*
X235886591Y-61823119D02*
X235886591Y-61918357D01*
X235886591Y-61918357D02*
X235934210Y-62013595D01*
X235934210Y-62013595D02*
X235981829Y-62061214D01*
X235981829Y-62061214D02*
X236077067Y-62108833D01*
X236077067Y-62108833D02*
X236410400Y-62108833D01*
X235267543Y-62632643D02*
X235362781Y-62585024D01*
X235362781Y-62585024D02*
X235410400Y-62537404D01*
X235410400Y-62537404D02*
X235458019Y-62442166D01*
X235458019Y-62442166D02*
X235458019Y-62156452D01*
X235458019Y-62156452D02*
X235410400Y-62061214D01*
X235410400Y-62061214D02*
X235362781Y-62013595D01*
X235362781Y-62013595D02*
X235267543Y-61965976D01*
X235267543Y-61965976D02*
X235124686Y-61965976D01*
X235124686Y-61965976D02*
X235029448Y-62013595D01*
X235029448Y-62013595D02*
X234981829Y-62061214D01*
X234981829Y-62061214D02*
X234934210Y-62156452D01*
X234934210Y-62156452D02*
X234934210Y-62442166D01*
X234934210Y-62442166D02*
X234981829Y-62537404D01*
X234981829Y-62537404D02*
X235029448Y-62585024D01*
X235029448Y-62585024D02*
X235124686Y-62632643D01*
X235124686Y-62632643D02*
X235267543Y-62632643D01*
X234505638Y-62632643D02*
X234505638Y-61965976D01*
X234505638Y-62156452D02*
X234458019Y-62061214D01*
X234458019Y-62061214D02*
X234410400Y-62013595D01*
X234410400Y-62013595D02*
X234315162Y-61965976D01*
X234315162Y-61965976D02*
X234219924Y-61965976D01*
X233886590Y-62632643D02*
X233886590Y-61965976D01*
X233886590Y-62061214D02*
X233838971Y-62013595D01*
X233838971Y-62013595D02*
X233743733Y-61965976D01*
X233743733Y-61965976D02*
X233600876Y-61965976D01*
X233600876Y-61965976D02*
X233505638Y-62013595D01*
X233505638Y-62013595D02*
X233458019Y-62108833D01*
X233458019Y-62108833D02*
X233458019Y-62632643D01*
X233458019Y-62108833D02*
X233410400Y-62013595D01*
X233410400Y-62013595D02*
X233315162Y-61965976D01*
X233315162Y-61965976D02*
X233172305Y-61965976D01*
X233172305Y-61965976D02*
X233077066Y-62013595D01*
X233077066Y-62013595D02*
X233029447Y-62108833D01*
X233029447Y-62108833D02*
X233029447Y-62632643D01*
X232124686Y-62632643D02*
X232124686Y-62108833D01*
X232124686Y-62108833D02*
X232172305Y-62013595D01*
X232172305Y-62013595D02*
X232267543Y-61965976D01*
X232267543Y-61965976D02*
X232458019Y-61965976D01*
X232458019Y-61965976D02*
X232553257Y-62013595D01*
X232124686Y-62585024D02*
X232219924Y-62632643D01*
X232219924Y-62632643D02*
X232458019Y-62632643D01*
X232458019Y-62632643D02*
X232553257Y-62585024D01*
X232553257Y-62585024D02*
X232600876Y-62489785D01*
X232600876Y-62489785D02*
X232600876Y-62394547D01*
X232600876Y-62394547D02*
X232553257Y-62299309D01*
X232553257Y-62299309D02*
X232458019Y-62251690D01*
X232458019Y-62251690D02*
X232219924Y-62251690D01*
X232219924Y-62251690D02*
X232124686Y-62204071D01*
X231648495Y-61965976D02*
X231648495Y-62632643D01*
X231648495Y-62061214D02*
X231600876Y-62013595D01*
X231600876Y-62013595D02*
X231505638Y-61965976D01*
X231505638Y-61965976D02*
X231362781Y-61965976D01*
X231362781Y-61965976D02*
X231267543Y-62013595D01*
X231267543Y-62013595D02*
X231219924Y-62108833D01*
X231219924Y-62108833D02*
X231219924Y-62632643D01*
X251838972Y-63242587D02*
X251505639Y-64242587D01*
X251505639Y-64242587D02*
X251172306Y-63242587D01*
X250458020Y-64194968D02*
X250553258Y-64242587D01*
X250553258Y-64242587D02*
X250743734Y-64242587D01*
X250743734Y-64242587D02*
X250838972Y-64194968D01*
X250838972Y-64194968D02*
X250886591Y-64099729D01*
X250886591Y-64099729D02*
X250886591Y-63718777D01*
X250886591Y-63718777D02*
X250838972Y-63623539D01*
X250838972Y-63623539D02*
X250743734Y-63575920D01*
X250743734Y-63575920D02*
X250553258Y-63575920D01*
X250553258Y-63575920D02*
X250458020Y-63623539D01*
X250458020Y-63623539D02*
X250410401Y-63718777D01*
X250410401Y-63718777D02*
X250410401Y-63814015D01*
X250410401Y-63814015D02*
X250886591Y-63909253D01*
X249981829Y-64242587D02*
X249981829Y-63575920D01*
X249981829Y-63766396D02*
X249934210Y-63671158D01*
X249934210Y-63671158D02*
X249886591Y-63623539D01*
X249886591Y-63623539D02*
X249791353Y-63575920D01*
X249791353Y-63575920D02*
X249696115Y-63575920D01*
X249410400Y-64194968D02*
X249315162Y-64242587D01*
X249315162Y-64242587D02*
X249124686Y-64242587D01*
X249124686Y-64242587D02*
X249029448Y-64194968D01*
X249029448Y-64194968D02*
X248981829Y-64099729D01*
X248981829Y-64099729D02*
X248981829Y-64052110D01*
X248981829Y-64052110D02*
X249029448Y-63956872D01*
X249029448Y-63956872D02*
X249124686Y-63909253D01*
X249124686Y-63909253D02*
X249267543Y-63909253D01*
X249267543Y-63909253D02*
X249362781Y-63861634D01*
X249362781Y-63861634D02*
X249410400Y-63766396D01*
X249410400Y-63766396D02*
X249410400Y-63718777D01*
X249410400Y-63718777D02*
X249362781Y-63623539D01*
X249362781Y-63623539D02*
X249267543Y-63575920D01*
X249267543Y-63575920D02*
X249124686Y-63575920D01*
X249124686Y-63575920D02*
X249029448Y-63623539D01*
X248553257Y-64242587D02*
X248553257Y-63575920D01*
X248553257Y-63242587D02*
X248600876Y-63290206D01*
X248600876Y-63290206D02*
X248553257Y-63337825D01*
X248553257Y-63337825D02*
X248505638Y-63290206D01*
X248505638Y-63290206D02*
X248553257Y-63242587D01*
X248553257Y-63242587D02*
X248553257Y-63337825D01*
X247934210Y-64242587D02*
X248029448Y-64194968D01*
X248029448Y-64194968D02*
X248077067Y-64147348D01*
X248077067Y-64147348D02*
X248124686Y-64052110D01*
X248124686Y-64052110D02*
X248124686Y-63766396D01*
X248124686Y-63766396D02*
X248077067Y-63671158D01*
X248077067Y-63671158D02*
X248029448Y-63623539D01*
X248029448Y-63623539D02*
X247934210Y-63575920D01*
X247934210Y-63575920D02*
X247791353Y-63575920D01*
X247791353Y-63575920D02*
X247696115Y-63623539D01*
X247696115Y-63623539D02*
X247648496Y-63671158D01*
X247648496Y-63671158D02*
X247600877Y-63766396D01*
X247600877Y-63766396D02*
X247600877Y-64052110D01*
X247600877Y-64052110D02*
X247648496Y-64147348D01*
X247648496Y-64147348D02*
X247696115Y-64194968D01*
X247696115Y-64194968D02*
X247791353Y-64242587D01*
X247791353Y-64242587D02*
X247934210Y-64242587D01*
X247172305Y-63575920D02*
X247172305Y-64242587D01*
X247172305Y-63671158D02*
X247124686Y-63623539D01*
X247124686Y-63623539D02*
X247029448Y-63575920D01*
X247029448Y-63575920D02*
X246886591Y-63575920D01*
X246886591Y-63575920D02*
X246791353Y-63623539D01*
X246791353Y-63623539D02*
X246743734Y-63718777D01*
X246743734Y-63718777D02*
X246743734Y-64242587D01*
X245600876Y-63575920D02*
X245362781Y-64242587D01*
X245362781Y-64242587D02*
X245124686Y-63575920D01*
X244219924Y-64242587D02*
X244791352Y-64242587D01*
X244505638Y-64242587D02*
X244505638Y-63242587D01*
X244505638Y-63242587D02*
X244600876Y-63385444D01*
X244600876Y-63385444D02*
X244696114Y-63480682D01*
X244696114Y-63480682D02*
X244791352Y-63528301D01*
X243791352Y-64147348D02*
X243743733Y-64194968D01*
X243743733Y-64194968D02*
X243791352Y-64242587D01*
X243791352Y-64242587D02*
X243838971Y-64194968D01*
X243838971Y-64194968D02*
X243791352Y-64147348D01*
X243791352Y-64147348D02*
X243791352Y-64242587D01*
X242791353Y-64242587D02*
X243362781Y-64242587D01*
X243077067Y-64242587D02*
X243077067Y-63242587D01*
X243077067Y-63242587D02*
X243172305Y-63385444D01*
X243172305Y-63385444D02*
X243267543Y-63480682D01*
X243267543Y-63480682D02*
X243362781Y-63528301D01*
X251696115Y-65852531D02*
X251696115Y-64852531D01*
X251696115Y-64852531D02*
X251458020Y-64852531D01*
X251458020Y-64852531D02*
X251315163Y-64900150D01*
X251315163Y-64900150D02*
X251219925Y-64995388D01*
X251219925Y-64995388D02*
X251172306Y-65090626D01*
X251172306Y-65090626D02*
X251124687Y-65281102D01*
X251124687Y-65281102D02*
X251124687Y-65423959D01*
X251124687Y-65423959D02*
X251172306Y-65614435D01*
X251172306Y-65614435D02*
X251219925Y-65709673D01*
X251219925Y-65709673D02*
X251315163Y-65804912D01*
X251315163Y-65804912D02*
X251458020Y-65852531D01*
X251458020Y-65852531D02*
X251696115Y-65852531D01*
X250267544Y-65852531D02*
X250267544Y-65328721D01*
X250267544Y-65328721D02*
X250315163Y-65233483D01*
X250315163Y-65233483D02*
X250410401Y-65185864D01*
X250410401Y-65185864D02*
X250600877Y-65185864D01*
X250600877Y-65185864D02*
X250696115Y-65233483D01*
X250267544Y-65804912D02*
X250362782Y-65852531D01*
X250362782Y-65852531D02*
X250600877Y-65852531D01*
X250600877Y-65852531D02*
X250696115Y-65804912D01*
X250696115Y-65804912D02*
X250743734Y-65709673D01*
X250743734Y-65709673D02*
X250743734Y-65614435D01*
X250743734Y-65614435D02*
X250696115Y-65519197D01*
X250696115Y-65519197D02*
X250600877Y-65471578D01*
X250600877Y-65471578D02*
X250362782Y-65471578D01*
X250362782Y-65471578D02*
X250267544Y-65423959D01*
X249934210Y-65185864D02*
X249553258Y-65185864D01*
X249791353Y-64852531D02*
X249791353Y-65709673D01*
X249791353Y-65709673D02*
X249743734Y-65804912D01*
X249743734Y-65804912D02*
X249648496Y-65852531D01*
X249648496Y-65852531D02*
X249553258Y-65852531D01*
X248838972Y-65804912D02*
X248934210Y-65852531D01*
X248934210Y-65852531D02*
X249124686Y-65852531D01*
X249124686Y-65852531D02*
X249219924Y-65804912D01*
X249219924Y-65804912D02*
X249267543Y-65709673D01*
X249267543Y-65709673D02*
X249267543Y-65328721D01*
X249267543Y-65328721D02*
X249219924Y-65233483D01*
X249219924Y-65233483D02*
X249124686Y-65185864D01*
X249124686Y-65185864D02*
X248934210Y-65185864D01*
X248934210Y-65185864D02*
X248838972Y-65233483D01*
X248838972Y-65233483D02*
X248791353Y-65328721D01*
X248791353Y-65328721D02*
X248791353Y-65423959D01*
X248791353Y-65423959D02*
X249267543Y-65519197D01*
X247648495Y-64947769D02*
X247600876Y-64900150D01*
X247600876Y-64900150D02*
X247505638Y-64852531D01*
X247505638Y-64852531D02*
X247267543Y-64852531D01*
X247267543Y-64852531D02*
X247172305Y-64900150D01*
X247172305Y-64900150D02*
X247124686Y-64947769D01*
X247124686Y-64947769D02*
X247077067Y-65043007D01*
X247077067Y-65043007D02*
X247077067Y-65138245D01*
X247077067Y-65138245D02*
X247124686Y-65281102D01*
X247124686Y-65281102D02*
X247696114Y-65852531D01*
X247696114Y-65852531D02*
X247077067Y-65852531D01*
X246458019Y-64852531D02*
X246362781Y-64852531D01*
X246362781Y-64852531D02*
X246267543Y-64900150D01*
X246267543Y-64900150D02*
X246219924Y-64947769D01*
X246219924Y-64947769D02*
X246172305Y-65043007D01*
X246172305Y-65043007D02*
X246124686Y-65233483D01*
X246124686Y-65233483D02*
X246124686Y-65471578D01*
X246124686Y-65471578D02*
X246172305Y-65662054D01*
X246172305Y-65662054D02*
X246219924Y-65757292D01*
X246219924Y-65757292D02*
X246267543Y-65804912D01*
X246267543Y-65804912D02*
X246362781Y-65852531D01*
X246362781Y-65852531D02*
X246458019Y-65852531D01*
X246458019Y-65852531D02*
X246553257Y-65804912D01*
X246553257Y-65804912D02*
X246600876Y-65757292D01*
X246600876Y-65757292D02*
X246648495Y-65662054D01*
X246648495Y-65662054D02*
X246696114Y-65471578D01*
X246696114Y-65471578D02*
X246696114Y-65233483D01*
X246696114Y-65233483D02*
X246648495Y-65043007D01*
X246648495Y-65043007D02*
X246600876Y-64947769D01*
X246600876Y-64947769D02*
X246553257Y-64900150D01*
X246553257Y-64900150D02*
X246458019Y-64852531D01*
X245743733Y-64947769D02*
X245696114Y-64900150D01*
X245696114Y-64900150D02*
X245600876Y-64852531D01*
X245600876Y-64852531D02*
X245362781Y-64852531D01*
X245362781Y-64852531D02*
X245267543Y-64900150D01*
X245267543Y-64900150D02*
X245219924Y-64947769D01*
X245219924Y-64947769D02*
X245172305Y-65043007D01*
X245172305Y-65043007D02*
X245172305Y-65138245D01*
X245172305Y-65138245D02*
X245219924Y-65281102D01*
X245219924Y-65281102D02*
X245791352Y-65852531D01*
X245791352Y-65852531D02*
X245172305Y-65852531D01*
X244315162Y-65185864D02*
X244315162Y-65852531D01*
X244553257Y-64804912D02*
X244791352Y-65519197D01*
X244791352Y-65519197D02*
X244172305Y-65519197D01*
X243791352Y-65471578D02*
X243029448Y-65471578D01*
X242029448Y-65852531D02*
X242600876Y-65852531D01*
X242315162Y-65852531D02*
X242315162Y-64852531D01*
X242315162Y-64852531D02*
X242410400Y-64995388D01*
X242410400Y-64995388D02*
X242505638Y-65090626D01*
X242505638Y-65090626D02*
X242600876Y-65138245D01*
X241410400Y-64852531D02*
X241315162Y-64852531D01*
X241315162Y-64852531D02*
X241219924Y-64900150D01*
X241219924Y-64900150D02*
X241172305Y-64947769D01*
X241172305Y-64947769D02*
X241124686Y-65043007D01*
X241124686Y-65043007D02*
X241077067Y-65233483D01*
X241077067Y-65233483D02*
X241077067Y-65471578D01*
X241077067Y-65471578D02*
X241124686Y-65662054D01*
X241124686Y-65662054D02*
X241172305Y-65757292D01*
X241172305Y-65757292D02*
X241219924Y-65804912D01*
X241219924Y-65804912D02*
X241315162Y-65852531D01*
X241315162Y-65852531D02*
X241410400Y-65852531D01*
X241410400Y-65852531D02*
X241505638Y-65804912D01*
X241505638Y-65804912D02*
X241553257Y-65757292D01*
X241553257Y-65757292D02*
X241600876Y-65662054D01*
X241600876Y-65662054D02*
X241648495Y-65471578D01*
X241648495Y-65471578D02*
X241648495Y-65233483D01*
X241648495Y-65233483D02*
X241600876Y-65043007D01*
X241600876Y-65043007D02*
X241553257Y-64947769D01*
X241553257Y-64947769D02*
X241505638Y-64900150D01*
X241505638Y-64900150D02*
X241410400Y-64852531D01*
X240648495Y-65471578D02*
X239886591Y-65471578D01*
X238886591Y-65852531D02*
X239458019Y-65852531D01*
X239172305Y-65852531D02*
X239172305Y-64852531D01*
X239172305Y-64852531D02*
X239267543Y-64995388D01*
X239267543Y-64995388D02*
X239362781Y-65090626D01*
X239362781Y-65090626D02*
X239458019Y-65138245D01*
X238553257Y-64852531D02*
X237934210Y-64852531D01*
X237934210Y-64852531D02*
X238267543Y-65233483D01*
X238267543Y-65233483D02*
X238124686Y-65233483D01*
X238124686Y-65233483D02*
X238029448Y-65281102D01*
X238029448Y-65281102D02*
X237981829Y-65328721D01*
X237981829Y-65328721D02*
X237934210Y-65423959D01*
X237934210Y-65423959D02*
X237934210Y-65662054D01*
X237934210Y-65662054D02*
X237981829Y-65757292D01*
X237981829Y-65757292D02*
X238029448Y-65804912D01*
X238029448Y-65804912D02*
X238124686Y-65852531D01*
X238124686Y-65852531D02*
X238410400Y-65852531D01*
X238410400Y-65852531D02*
X238505638Y-65804912D01*
X238505638Y-65804912D02*
X238553257Y-65757292D01*
X251696115Y-67462475D02*
X251696115Y-66462475D01*
X251267544Y-67462475D02*
X251267544Y-66938665D01*
X251267544Y-66938665D02*
X251315163Y-66843427D01*
X251315163Y-66843427D02*
X251410401Y-66795808D01*
X251410401Y-66795808D02*
X251553258Y-66795808D01*
X251553258Y-66795808D02*
X251648496Y-66843427D01*
X251648496Y-66843427D02*
X251696115Y-66891046D01*
X250934210Y-66795808D02*
X250553258Y-66795808D01*
X250791353Y-66462475D02*
X250791353Y-67319617D01*
X250791353Y-67319617D02*
X250743734Y-67414856D01*
X250743734Y-67414856D02*
X250648496Y-67462475D01*
X250648496Y-67462475D02*
X250553258Y-67462475D01*
X250362781Y-66795808D02*
X249981829Y-66795808D01*
X250219924Y-66462475D02*
X250219924Y-67319617D01*
X250219924Y-67319617D02*
X250172305Y-67414856D01*
X250172305Y-67414856D02*
X250077067Y-67462475D01*
X250077067Y-67462475D02*
X249981829Y-67462475D01*
X249648495Y-66795808D02*
X249648495Y-67795808D01*
X249648495Y-66843427D02*
X249553257Y-66795808D01*
X249553257Y-66795808D02*
X249362781Y-66795808D01*
X249362781Y-66795808D02*
X249267543Y-66843427D01*
X249267543Y-66843427D02*
X249219924Y-66891046D01*
X249219924Y-66891046D02*
X249172305Y-66986284D01*
X249172305Y-66986284D02*
X249172305Y-67271998D01*
X249172305Y-67271998D02*
X249219924Y-67367236D01*
X249219924Y-67367236D02*
X249267543Y-67414856D01*
X249267543Y-67414856D02*
X249362781Y-67462475D01*
X249362781Y-67462475D02*
X249553257Y-67462475D01*
X249553257Y-67462475D02*
X249648495Y-67414856D01*
X248791352Y-67414856D02*
X248696114Y-67462475D01*
X248696114Y-67462475D02*
X248505638Y-67462475D01*
X248505638Y-67462475D02*
X248410400Y-67414856D01*
X248410400Y-67414856D02*
X248362781Y-67319617D01*
X248362781Y-67319617D02*
X248362781Y-67271998D01*
X248362781Y-67271998D02*
X248410400Y-67176760D01*
X248410400Y-67176760D02*
X248505638Y-67129141D01*
X248505638Y-67129141D02*
X248648495Y-67129141D01*
X248648495Y-67129141D02*
X248743733Y-67081522D01*
X248743733Y-67081522D02*
X248791352Y-66986284D01*
X248791352Y-66986284D02*
X248791352Y-66938665D01*
X248791352Y-66938665D02*
X248743733Y-66843427D01*
X248743733Y-66843427D02*
X248648495Y-66795808D01*
X248648495Y-66795808D02*
X248505638Y-66795808D01*
X248505638Y-66795808D02*
X248410400Y-66843427D01*
X247934209Y-67367236D02*
X247886590Y-67414856D01*
X247886590Y-67414856D02*
X247934209Y-67462475D01*
X247934209Y-67462475D02*
X247981828Y-67414856D01*
X247981828Y-67414856D02*
X247934209Y-67367236D01*
X247934209Y-67367236D02*
X247934209Y-67462475D01*
X247934209Y-66843427D02*
X247886590Y-66891046D01*
X247886590Y-66891046D02*
X247934209Y-66938665D01*
X247934209Y-66938665D02*
X247981828Y-66891046D01*
X247981828Y-66891046D02*
X247934209Y-66843427D01*
X247934209Y-66843427D02*
X247934209Y-66938665D01*
X246743734Y-66414856D02*
X247600876Y-67700570D01*
X245696115Y-66414856D02*
X246553257Y-67700570D01*
X244934210Y-66795808D02*
X244934210Y-67605332D01*
X244934210Y-67605332D02*
X244981829Y-67700570D01*
X244981829Y-67700570D02*
X245029448Y-67748189D01*
X245029448Y-67748189D02*
X245124686Y-67795808D01*
X245124686Y-67795808D02*
X245267543Y-67795808D01*
X245267543Y-67795808D02*
X245362781Y-67748189D01*
X244934210Y-67414856D02*
X245029448Y-67462475D01*
X245029448Y-67462475D02*
X245219924Y-67462475D01*
X245219924Y-67462475D02*
X245315162Y-67414856D01*
X245315162Y-67414856D02*
X245362781Y-67367236D01*
X245362781Y-67367236D02*
X245410400Y-67271998D01*
X245410400Y-67271998D02*
X245410400Y-66986284D01*
X245410400Y-66986284D02*
X245362781Y-66891046D01*
X245362781Y-66891046D02*
X245315162Y-66843427D01*
X245315162Y-66843427D02*
X245219924Y-66795808D01*
X245219924Y-66795808D02*
X245029448Y-66795808D01*
X245029448Y-66795808D02*
X244934210Y-66843427D01*
X244458019Y-67462475D02*
X244458019Y-66795808D01*
X244458019Y-66462475D02*
X244505638Y-66510094D01*
X244505638Y-66510094D02*
X244458019Y-66557713D01*
X244458019Y-66557713D02*
X244410400Y-66510094D01*
X244410400Y-66510094D02*
X244458019Y-66462475D01*
X244458019Y-66462475D02*
X244458019Y-66557713D01*
X244124686Y-66795808D02*
X243743734Y-66795808D01*
X243981829Y-66462475D02*
X243981829Y-67319617D01*
X243981829Y-67319617D02*
X243934210Y-67414856D01*
X243934210Y-67414856D02*
X243838972Y-67462475D01*
X243838972Y-67462475D02*
X243743734Y-67462475D01*
X243410400Y-67462475D02*
X243410400Y-66462475D01*
X242981829Y-67462475D02*
X242981829Y-66938665D01*
X242981829Y-66938665D02*
X243029448Y-66843427D01*
X243029448Y-66843427D02*
X243124686Y-66795808D01*
X243124686Y-66795808D02*
X243267543Y-66795808D01*
X243267543Y-66795808D02*
X243362781Y-66843427D01*
X243362781Y-66843427D02*
X243410400Y-66891046D01*
X242077067Y-66795808D02*
X242077067Y-67462475D01*
X242505638Y-66795808D02*
X242505638Y-67319617D01*
X242505638Y-67319617D02*
X242458019Y-67414856D01*
X242458019Y-67414856D02*
X242362781Y-67462475D01*
X242362781Y-67462475D02*
X242219924Y-67462475D01*
X242219924Y-67462475D02*
X242124686Y-67414856D01*
X242124686Y-67414856D02*
X242077067Y-67367236D01*
X241600876Y-67462475D02*
X241600876Y-66462475D01*
X241600876Y-66843427D02*
X241505638Y-66795808D01*
X241505638Y-66795808D02*
X241315162Y-66795808D01*
X241315162Y-66795808D02*
X241219924Y-66843427D01*
X241219924Y-66843427D02*
X241172305Y-66891046D01*
X241172305Y-66891046D02*
X241124686Y-66986284D01*
X241124686Y-66986284D02*
X241124686Y-67271998D01*
X241124686Y-67271998D02*
X241172305Y-67367236D01*
X241172305Y-67367236D02*
X241219924Y-67414856D01*
X241219924Y-67414856D02*
X241315162Y-67462475D01*
X241315162Y-67462475D02*
X241505638Y-67462475D01*
X241505638Y-67462475D02*
X241600876Y-67414856D01*
X240696114Y-67367236D02*
X240648495Y-67414856D01*
X240648495Y-67414856D02*
X240696114Y-67462475D01*
X240696114Y-67462475D02*
X240743733Y-67414856D01*
X240743733Y-67414856D02*
X240696114Y-67367236D01*
X240696114Y-67367236D02*
X240696114Y-67462475D01*
X239791353Y-67414856D02*
X239886591Y-67462475D01*
X239886591Y-67462475D02*
X240077067Y-67462475D01*
X240077067Y-67462475D02*
X240172305Y-67414856D01*
X240172305Y-67414856D02*
X240219924Y-67367236D01*
X240219924Y-67367236D02*
X240267543Y-67271998D01*
X240267543Y-67271998D02*
X240267543Y-66986284D01*
X240267543Y-66986284D02*
X240219924Y-66891046D01*
X240219924Y-66891046D02*
X240172305Y-66843427D01*
X240172305Y-66843427D02*
X240077067Y-66795808D01*
X240077067Y-66795808D02*
X239886591Y-66795808D01*
X239886591Y-66795808D02*
X239791353Y-66843427D01*
X239219924Y-67462475D02*
X239315162Y-67414856D01*
X239315162Y-67414856D02*
X239362781Y-67367236D01*
X239362781Y-67367236D02*
X239410400Y-67271998D01*
X239410400Y-67271998D02*
X239410400Y-66986284D01*
X239410400Y-66986284D02*
X239362781Y-66891046D01*
X239362781Y-66891046D02*
X239315162Y-66843427D01*
X239315162Y-66843427D02*
X239219924Y-66795808D01*
X239219924Y-66795808D02*
X239077067Y-66795808D01*
X239077067Y-66795808D02*
X238981829Y-66843427D01*
X238981829Y-66843427D02*
X238934210Y-66891046D01*
X238934210Y-66891046D02*
X238886591Y-66986284D01*
X238886591Y-66986284D02*
X238886591Y-67271998D01*
X238886591Y-67271998D02*
X238934210Y-67367236D01*
X238934210Y-67367236D02*
X238981829Y-67414856D01*
X238981829Y-67414856D02*
X239077067Y-67462475D01*
X239077067Y-67462475D02*
X239219924Y-67462475D01*
X238458019Y-67462475D02*
X238458019Y-66795808D01*
X238458019Y-66891046D02*
X238410400Y-66843427D01*
X238410400Y-66843427D02*
X238315162Y-66795808D01*
X238315162Y-66795808D02*
X238172305Y-66795808D01*
X238172305Y-66795808D02*
X238077067Y-66843427D01*
X238077067Y-66843427D02*
X238029448Y-66938665D01*
X238029448Y-66938665D02*
X238029448Y-67462475D01*
X238029448Y-66938665D02*
X237981829Y-66843427D01*
X237981829Y-66843427D02*
X237886591Y-66795808D01*
X237886591Y-66795808D02*
X237743734Y-66795808D01*
X237743734Y-66795808D02*
X237648495Y-66843427D01*
X237648495Y-66843427D02*
X237600876Y-66938665D01*
X237600876Y-66938665D02*
X237600876Y-67462475D01*
X236410401Y-66414856D02*
X237267543Y-67700570D01*
X236077067Y-66795808D02*
X236077067Y-67795808D01*
X236077067Y-66843427D02*
X235981829Y-66795808D01*
X235981829Y-66795808D02*
X235791353Y-66795808D01*
X235791353Y-66795808D02*
X235696115Y-66843427D01*
X235696115Y-66843427D02*
X235648496Y-66891046D01*
X235648496Y-66891046D02*
X235600877Y-66986284D01*
X235600877Y-66986284D02*
X235600877Y-67271998D01*
X235600877Y-67271998D02*
X235648496Y-67367236D01*
X235648496Y-67367236D02*
X235696115Y-67414856D01*
X235696115Y-67414856D02*
X235791353Y-67462475D01*
X235791353Y-67462475D02*
X235981829Y-67462475D01*
X235981829Y-67462475D02*
X236077067Y-67414856D01*
X235172305Y-67462475D02*
X235172305Y-66795808D01*
X235172305Y-66462475D02*
X235219924Y-66510094D01*
X235219924Y-66510094D02*
X235172305Y-66557713D01*
X235172305Y-66557713D02*
X235124686Y-66510094D01*
X235124686Y-66510094D02*
X235172305Y-66462475D01*
X235172305Y-66462475D02*
X235172305Y-66557713D01*
X234696115Y-67462475D02*
X234696115Y-66795808D01*
X234696115Y-66891046D02*
X234648496Y-66843427D01*
X234648496Y-66843427D02*
X234553258Y-66795808D01*
X234553258Y-66795808D02*
X234410401Y-66795808D01*
X234410401Y-66795808D02*
X234315163Y-66843427D01*
X234315163Y-66843427D02*
X234267544Y-66938665D01*
X234267544Y-66938665D02*
X234267544Y-67462475D01*
X234267544Y-66938665D02*
X234219925Y-66843427D01*
X234219925Y-66843427D02*
X234124687Y-66795808D01*
X234124687Y-66795808D02*
X233981830Y-66795808D01*
X233981830Y-66795808D02*
X233886591Y-66843427D01*
X233886591Y-66843427D02*
X233838972Y-66938665D01*
X233838972Y-66938665D02*
X233838972Y-67462475D01*
X233362782Y-67462475D02*
X233362782Y-66462475D01*
X233362782Y-66843427D02*
X233267544Y-66795808D01*
X233267544Y-66795808D02*
X233077068Y-66795808D01*
X233077068Y-66795808D02*
X232981830Y-66843427D01*
X232981830Y-66843427D02*
X232934211Y-66891046D01*
X232934211Y-66891046D02*
X232886592Y-66986284D01*
X232886592Y-66986284D02*
X232886592Y-67271998D01*
X232886592Y-67271998D02*
X232934211Y-67367236D01*
X232934211Y-67367236D02*
X232981830Y-67414856D01*
X232981830Y-67414856D02*
X233077068Y-67462475D01*
X233077068Y-67462475D02*
X233267544Y-67462475D01*
X233267544Y-67462475D02*
X233362782Y-67414856D01*
X232315163Y-67462475D02*
X232410401Y-67414856D01*
X232410401Y-67414856D02*
X232458020Y-67367236D01*
X232458020Y-67367236D02*
X232505639Y-67271998D01*
X232505639Y-67271998D02*
X232505639Y-66986284D01*
X232505639Y-66986284D02*
X232458020Y-66891046D01*
X232458020Y-66891046D02*
X232410401Y-66843427D01*
X232410401Y-66843427D02*
X232315163Y-66795808D01*
X232315163Y-66795808D02*
X232172306Y-66795808D01*
X232172306Y-66795808D02*
X232077068Y-66843427D01*
X232077068Y-66843427D02*
X232029449Y-66891046D01*
X232029449Y-66891046D02*
X231981830Y-66986284D01*
X231981830Y-66986284D02*
X231981830Y-67271998D01*
X231981830Y-67271998D02*
X232029449Y-67367236D01*
X232029449Y-67367236D02*
X232077068Y-67414856D01*
X232077068Y-67414856D02*
X232172306Y-67462475D01*
X232172306Y-67462475D02*
X232315163Y-67462475D01*
X231553258Y-67462475D02*
X231553258Y-66795808D01*
X231553258Y-66986284D02*
X231505639Y-66891046D01*
X231505639Y-66891046D02*
X231458020Y-66843427D01*
X231458020Y-66843427D02*
X231362782Y-66795808D01*
X231362782Y-66795808D02*
X231267544Y-66795808D01*
X230934210Y-67462475D02*
X230934210Y-66795808D01*
X230934210Y-66891046D02*
X230886591Y-66843427D01*
X230886591Y-66843427D02*
X230791353Y-66795808D01*
X230791353Y-66795808D02*
X230648496Y-66795808D01*
X230648496Y-66795808D02*
X230553258Y-66843427D01*
X230553258Y-66843427D02*
X230505639Y-66938665D01*
X230505639Y-66938665D02*
X230505639Y-67462475D01*
X230505639Y-66938665D02*
X230458020Y-66843427D01*
X230458020Y-66843427D02*
X230362782Y-66795808D01*
X230362782Y-66795808D02*
X230219925Y-66795808D01*
X230219925Y-66795808D02*
X230124686Y-66843427D01*
X230124686Y-66843427D02*
X230077067Y-66938665D01*
X230077067Y-66938665D02*
X230077067Y-67462475D01*
X229172306Y-67462475D02*
X229172306Y-66938665D01*
X229172306Y-66938665D02*
X229219925Y-66843427D01*
X229219925Y-66843427D02*
X229315163Y-66795808D01*
X229315163Y-66795808D02*
X229505639Y-66795808D01*
X229505639Y-66795808D02*
X229600877Y-66843427D01*
X229172306Y-67414856D02*
X229267544Y-67462475D01*
X229267544Y-67462475D02*
X229505639Y-67462475D01*
X229505639Y-67462475D02*
X229600877Y-67414856D01*
X229600877Y-67414856D02*
X229648496Y-67319617D01*
X229648496Y-67319617D02*
X229648496Y-67224379D01*
X229648496Y-67224379D02*
X229600877Y-67129141D01*
X229600877Y-67129141D02*
X229505639Y-67081522D01*
X229505639Y-67081522D02*
X229267544Y-67081522D01*
X229267544Y-67081522D02*
X229172306Y-67033903D01*
X228696115Y-66795808D02*
X228696115Y-67462475D01*
X228696115Y-66891046D02*
X228648496Y-66843427D01*
X228648496Y-66843427D02*
X228553258Y-66795808D01*
X228553258Y-66795808D02*
X228410401Y-66795808D01*
X228410401Y-66795808D02*
X228315163Y-66843427D01*
X228315163Y-66843427D02*
X228267544Y-66938665D01*
X228267544Y-66938665D02*
X228267544Y-67462475D01*
X227077068Y-66414856D02*
X227934210Y-67700570D01*
X226743734Y-66795808D02*
X226743734Y-67462475D01*
X226743734Y-66891046D02*
X226696115Y-66843427D01*
X226696115Y-66843427D02*
X226600877Y-66795808D01*
X226600877Y-66795808D02*
X226458020Y-66795808D01*
X226458020Y-66795808D02*
X226362782Y-66843427D01*
X226362782Y-66843427D02*
X226315163Y-66938665D01*
X226315163Y-66938665D02*
X226315163Y-67462475D01*
X225838972Y-67462475D02*
X225838972Y-66795808D01*
X225838972Y-66462475D02*
X225886591Y-66510094D01*
X225886591Y-66510094D02*
X225838972Y-66557713D01*
X225838972Y-66557713D02*
X225791353Y-66510094D01*
X225791353Y-66510094D02*
X225838972Y-66462475D01*
X225838972Y-66462475D02*
X225838972Y-66557713D01*
X225458020Y-67462475D02*
X224934211Y-66795808D01*
X225458020Y-66795808D02*
X224934211Y-67462475D01*
X224553258Y-67462475D02*
X224553258Y-66795808D01*
X224553258Y-66462475D02*
X224600877Y-66510094D01*
X224600877Y-66510094D02*
X224553258Y-66557713D01*
X224553258Y-66557713D02*
X224505639Y-66510094D01*
X224505639Y-66510094D02*
X224553258Y-66462475D01*
X224553258Y-66462475D02*
X224553258Y-66557713D01*
X223696116Y-67414856D02*
X223791354Y-67462475D01*
X223791354Y-67462475D02*
X223981830Y-67462475D01*
X223981830Y-67462475D02*
X224077068Y-67414856D01*
X224077068Y-67414856D02*
X224124687Y-67319617D01*
X224124687Y-67319617D02*
X224124687Y-66938665D01*
X224124687Y-66938665D02*
X224077068Y-66843427D01*
X224077068Y-66843427D02*
X223981830Y-66795808D01*
X223981830Y-66795808D02*
X223791354Y-66795808D01*
X223791354Y-66795808D02*
X223696116Y-66843427D01*
X223696116Y-66843427D02*
X223648497Y-66938665D01*
X223648497Y-66938665D02*
X223648497Y-67033903D01*
X223648497Y-67033903D02*
X224124687Y-67129141D01*
X223219925Y-67081522D02*
X222458021Y-67081522D01*
X221553259Y-67414856D02*
X221648497Y-67462475D01*
X221648497Y-67462475D02*
X221838973Y-67462475D01*
X221838973Y-67462475D02*
X221934211Y-67414856D01*
X221934211Y-67414856D02*
X221981830Y-67367236D01*
X221981830Y-67367236D02*
X222029449Y-67271998D01*
X222029449Y-67271998D02*
X222029449Y-66986284D01*
X222029449Y-66986284D02*
X221981830Y-66891046D01*
X221981830Y-66891046D02*
X221934211Y-66843427D01*
X221934211Y-66843427D02*
X221838973Y-66795808D01*
X221838973Y-66795808D02*
X221648497Y-66795808D01*
X221648497Y-66795808D02*
X221553259Y-66843427D01*
X220981830Y-67462475D02*
X221077068Y-67414856D01*
X221077068Y-67414856D02*
X221124687Y-67319617D01*
X221124687Y-67319617D02*
X221124687Y-66462475D01*
X220458020Y-67462475D02*
X220553258Y-67414856D01*
X220553258Y-67414856D02*
X220600877Y-67367236D01*
X220600877Y-67367236D02*
X220648496Y-67271998D01*
X220648496Y-67271998D02*
X220648496Y-66986284D01*
X220648496Y-66986284D02*
X220600877Y-66891046D01*
X220600877Y-66891046D02*
X220553258Y-66843427D01*
X220553258Y-66843427D02*
X220458020Y-66795808D01*
X220458020Y-66795808D02*
X220315163Y-66795808D01*
X220315163Y-66795808D02*
X220219925Y-66843427D01*
X220219925Y-66843427D02*
X220172306Y-66891046D01*
X220172306Y-66891046D02*
X220124687Y-66986284D01*
X220124687Y-66986284D02*
X220124687Y-67271998D01*
X220124687Y-67271998D02*
X220172306Y-67367236D01*
X220172306Y-67367236D02*
X220219925Y-67414856D01*
X220219925Y-67414856D02*
X220315163Y-67462475D01*
X220315163Y-67462475D02*
X220458020Y-67462475D01*
X219267544Y-67414856D02*
X219362782Y-67462475D01*
X219362782Y-67462475D02*
X219553258Y-67462475D01*
X219553258Y-67462475D02*
X219648496Y-67414856D01*
X219648496Y-67414856D02*
X219696115Y-67367236D01*
X219696115Y-67367236D02*
X219743734Y-67271998D01*
X219743734Y-67271998D02*
X219743734Y-66986284D01*
X219743734Y-66986284D02*
X219696115Y-66891046D01*
X219696115Y-66891046D02*
X219648496Y-66843427D01*
X219648496Y-66843427D02*
X219553258Y-66795808D01*
X219553258Y-66795808D02*
X219362782Y-66795808D01*
X219362782Y-66795808D02*
X219267544Y-66843427D01*
X218838972Y-67462475D02*
X218838972Y-66462475D01*
X218743734Y-67081522D02*
X218458020Y-67462475D01*
X218458020Y-66795808D02*
X218838972Y-67176760D01*
D11*
X128333333Y-72254819D02*
X128333333Y-72969104D01*
X128333333Y-72969104D02*
X128380952Y-73111961D01*
X128380952Y-73111961D02*
X128476190Y-73207200D01*
X128476190Y-73207200D02*
X128619047Y-73254819D01*
X128619047Y-73254819D02*
X128714285Y-73254819D01*
X127333333Y-73254819D02*
X127904761Y-73254819D01*
X127619047Y-73254819D02*
X127619047Y-72254819D01*
X127619047Y-72254819D02*
X127714285Y-72397676D01*
X127714285Y-72397676D02*
X127809523Y-72492914D01*
X127809523Y-72492914D02*
X127904761Y-72540533D01*
D12*
%TO.C,J1*%
X123320000Y-61844000D02*
X133600000Y-61844000D01*
X123320000Y-64804000D02*
X133600000Y-64804000D01*
X123320000Y-69705000D02*
X133600000Y-69705000D01*
X123320000Y-71205000D02*
X133600000Y-71205000D01*
X123320000Y-71765000D02*
X123320000Y-61844000D01*
X123320000Y-71765000D02*
X133600000Y-71765000D01*
X124692000Y-66082000D02*
X124645000Y-66036000D01*
X124885000Y-65866000D02*
X124850000Y-65830000D01*
X126989000Y-68379000D02*
X126954000Y-68344000D01*
X127194000Y-68174000D02*
X127147000Y-68128000D01*
X133340000Y-72005000D02*
X133840000Y-72005000D01*
X133600000Y-71765000D02*
X133600000Y-61844000D01*
X133840000Y-72005000D02*
X133840000Y-71265000D01*
X129465000Y-67789000D02*
G75*
G02*
X129464573Y-66421958I1535004J684001D01*
G01*
X130316000Y-65570000D02*
G75*
G02*
X131683042Y-65569573I684001J-1534993D01*
G01*
X131000000Y-68785000D02*
G75*
G02*
X130316682Y-68639756I0J1680000D01*
G01*
X131684000Y-68640000D02*
G75*
G02*
X130971195Y-68785253I-683999J1535001D01*
G01*
X132535000Y-66421000D02*
G75*
G02*
X132535427Y-67788042I-1534993J-684001D01*
G01*
X127600000Y-67105000D02*
G75*
G02*
X124240000Y-67105000I-1680000J0D01*
G01*
X124240000Y-67105000D02*
G75*
G02*
X127600000Y-67105000I1680000J0D01*
G01*
%TD*%
M02*
