M48
; DRILL file {KiCad 8.0.4+1} date 2024-10-13T09:49:26+0000
; FORMAT={-:-/ absolute / metric / decimal}
; #@! TF.CreationDate,2024-10-13T09:49:26+00:00
; #@! TF.GenerationSoftware,Kicad,Pcbnew,8.0.4+1
; #@! TF.FileFunction,MixedPlating,1,4
FMAT,2
METRIC
; #@! TA.AperFunction,Plated,PTH,ViaDrill
T1C0.300
; #@! TA.AperFunction,Plated,PTH,ComponentDrill
T2C0.500
; #@! TA.AperFunction,Plated,PTH,ComponentDrill
T3C0.599
; #@! TA.AperFunction,Plated,PTH,ComponentDrill
T4C0.750
; #@! TA.AperFunction,Plated,PTH,ComponentDrill
T5C0.800
; #@! TA.AperFunction,Plated,PTH,ComponentDrill
T6C0.838
; #@! TA.AperFunction,Plated,PTH,ComponentDrill
T7C0.900
; #@! TA.AperFunction,Plated,PTH,ComponentDrill
T8C1.000
; #@! TA.AperFunction,Plated,PTH,ComponentDrill
T9C1.100
; #@! TA.AperFunction,Plated,PTH,ComponentDrill
T10C1.200
; #@! TA.AperFunction,Plated,PTH,ComponentDrill
T11C1.300
; #@! TA.AperFunction,Plated,PTH,ComponentDrill
T12C2.200
; #@! TA.AperFunction,Plated,PTH,ComponentDrill
T13C3.200
; #@! TA.AperFunction,NonPlated,NPTH,ComponentDrill
T14C3.500
%
G90
G05
T1
X74.4Y-74.6
X74.4Y-78.6
X75.0Y-95.0
X78.0Y-95.0
X81.4Y-88.0
X82.8Y-77.6
X82.8Y-80.0
X83.0Y-75.2
X85.0Y-75.2
X85.0Y-77.6
X85.0Y-80.0
X85.0Y-82.6
X85.8Y-62.4
X85.8Y-71.6
X87.2Y-73.0
X89.33Y-114.0
X91.0Y-91.0
X92.0Y-114.0
X94.6Y-80.2
X94.6Y-85.0
X97.0Y-73.0
X98.2Y-70.6
X99.0Y-91.0
X120.0Y-82.0
X126.5Y-83.5
X127.437Y-83.463
X128.133Y-82.891
X128.445Y-82.047
X128.645Y-92.145
X129.4Y-91.4
X130.3Y-91.445
X130.8Y-90.6
X130.965Y-95.407
X131.098Y-86.298
X131.2Y-94.2
X131.5Y-89.4
X131.8Y-90.745
X132.271Y-93.411
X132.352Y-85.751
X132.837Y-92.845
X132.844Y-89.444
X133.347Y-85.547
X134.2Y-86.9
X140.6Y-90.8
X140.6Y-105.4
X140.9Y-91.9
X140.905Y-103.495
X141.924Y-92.724
X142.3Y-91.5
X142.3Y-104.6
X143.0Y-92.8
X151.0Y-89.4
X153.4Y-90.1
X153.4Y-92.2
X155.4Y-73.4
X155.4Y-74.2
X156.3Y-90.1
X156.3Y-91.2
X159.5Y-75.4
X159.6Y-76.6
X160.707Y-74.158
X160.8Y-73.0
X174.8Y-83.8
X174.8Y-84.7
X177.0Y-86.8
X178.0Y-86.8
X187.2Y-77.8
X188.0Y-75.5
X188.0Y-76.3
X188.0Y-77.1
X188.8Y-77.8
X189.4Y-70.6
X192.6Y-76.0
X193.4Y-72.6
X193.983Y-92.882
X194.771Y-93.702
X195.0Y-76.0
X195.6Y-94.4
X196.0Y-72.6
X197.071Y-90.126
X197.4Y-76.0
X197.707Y-90.763
X198.4Y-91.6
X199.2Y-72.6
X199.6Y-76.0
X200.4Y-89.6
X200.4Y-90.9
X200.4Y-92.7
X200.4Y-94.0
X202.0Y-72.5
X202.0Y-76.0
X203.0Y-79.6
X204.3Y-76.0
X204.5Y-72.5
X205.3Y-92.6
X205.35Y-91.55
X205.6Y-79.6
X205.747Y-87.157
X205.79Y-88.1
X205.79Y-90.0
X206.4Y-91.2
X206.4Y-92.2
X206.8Y-88.6
X207.0Y-76.0
X207.0Y-90.0
X207.0Y-98.3
X207.0Y-99.6
X207.002Y-95.998
X207.019Y-97.281
X208.4Y-83.6
X208.4Y-84.8
X209.37Y-72.5
X210.4Y-83.6
X210.495Y-84.805
X211.8Y-83.6
X211.8Y-84.8
X212.0Y-72.5
X212.2Y-92.2
X213.4Y-83.6
X213.4Y-84.8
X213.6Y-91.0
X213.6Y-92.1
X213.6Y-93.0
X213.6Y-93.9
X213.6Y-94.8
X215.0Y-83.6
X215.0Y-84.855
X227.9Y-99.6
X229.0Y-100.6
T2
X73.6Y-65.0
X74.303Y-63.303
X74.303Y-66.697
X76.0Y-62.6
X76.0Y-67.4
X77.697Y-63.303
X77.697Y-66.697
X78.4Y-65.0
X94.6Y-111.0
X95.303Y-109.303
X95.303Y-112.697
X97.0Y-108.6
X97.0Y-113.4
X98.697Y-109.303
X98.697Y-112.697
X99.4Y-111.0
X234.6Y-111.0
X235.303Y-109.303
X235.303Y-112.697
X237.0Y-108.6
X237.0Y-113.4
X238.697Y-109.303
X238.697Y-112.697
X239.4Y-111.0
X254.6Y-65.0
X255.303Y-63.303
X255.303Y-66.697
X257.0Y-62.6
X257.0Y-67.4
X258.697Y-63.303
X258.697Y-66.697
X259.4Y-65.0
T3
X130.412Y-103.5
X130.412Y-110.5
X133.588Y-103.5
X133.588Y-110.5
X200.412Y-103.5
X200.412Y-110.5
X203.587Y-103.5
X203.587Y-110.5
T4
X86.12Y-86.0
X86.12Y-87.27
X86.12Y-88.54
T5
X75.0Y-86.0
X75.0Y-90.0
X75.12Y-82.5
X77.12Y-74.5
X77.12Y-79.5
X77.62Y-82.5
X80.0Y-75.0
X80.0Y-77.54
X80.0Y-80.08
X80.0Y-82.62
X82.62Y-86.0
X82.62Y-90.0
X83.12Y-66.5
X83.12Y-69.0
X87.62Y-75.0
X87.62Y-77.54
X87.62Y-80.08
X87.62Y-82.62
X95.8Y-98.19
X95.8Y-105.81
X99.0Y-98.19
X99.0Y-105.81
X105.62Y-72.0
X105.62Y-75.5
X112.12Y-66.5
X112.12Y-74.12
X112.12Y-77.19
X112.12Y-84.81
X116.12Y-66.5
X116.12Y-74.12
X124.064Y-102.636
X126.0Y-105.88
X126.0Y-113.5
X127.6Y-99.1
X138.0Y-105.88
X138.0Y-113.5
X141.6Y-72.0
X141.6Y-77.0
X146.6Y-72.0
X146.6Y-77.0
X150.42Y-86.98
X150.42Y-94.6
X151.525Y-67.305
X151.525Y-72.305
X151.525Y-74.685
X151.525Y-82.305
X152.96Y-86.98
X152.96Y-94.6
X154.905Y-67.305
X154.905Y-70.305
X155.5Y-86.98
X155.5Y-94.6
X158.04Y-86.98
X158.04Y-94.6
X159.7Y-83.6
X160.58Y-86.98
X160.58Y-94.6
X162.525Y-67.305
X162.525Y-70.305
X163.1Y-97.5
X163.12Y-86.98
X163.12Y-94.6
X164.7Y-83.6
X165.0Y-105.88
X165.0Y-113.5
X165.66Y-86.98
X165.66Y-94.6
X168.1Y-97.5
X168.2Y-86.98
X168.2Y-94.6
X169.0Y-105.88
X169.0Y-113.5
X191.58Y-70.6
X191.58Y-78.22
X194.12Y-70.6
X194.12Y-78.22
X194.132Y-102.368
X196.0Y-105.88
X196.0Y-113.5
X196.66Y-78.22
X196.66Y-70.6
X197.668Y-98.832
X199.2Y-70.6
X199.2Y-78.22
X201.74Y-70.6
X201.74Y-78.22
X204.28Y-70.6
X204.28Y-78.22
X206.82Y-70.6
X206.82Y-78.22
X208.0Y-105.88
X208.0Y-113.5
X209.36Y-70.6
X209.36Y-78.22
X211.9Y-70.6
X211.9Y-78.22
X214.44Y-70.6
X214.44Y-78.22
X216.98Y-70.6
X216.98Y-78.22
X219.52Y-78.22
X219.52Y-70.6
X222.06Y-70.6
X222.06Y-78.22
X224.6Y-70.6
X224.6Y-78.22
X228.78Y-71.6
X228.78Y-76.6
X230.93Y-89.7
X232.58Y-72.1
X232.58Y-75.6
X232.7Y-86.1
X235.0Y-98.19
X235.0Y-105.81
X235.2Y-79.1
X235.2Y-82.6
X238.55Y-89.7
X239.0Y-98.19
X239.0Y-105.81
X240.2Y-72.1
X240.2Y-75.6
X240.2Y-79.1
X240.2Y-82.6
X240.32Y-86.1
X241.03Y-89.7
X248.65Y-89.7
X251.25Y-89.7
X258.4Y-93.0
X258.4Y-98.0
X258.87Y-89.7
T6
X77.856Y-105.756
X78.214Y-108.695
X78.907Y-102.985
X79.895Y-111.133
X81.125Y-101.021
X82.519Y-112.51
X84.0Y-100.313
X85.481Y-112.51
X86.875Y-101.021
X88.105Y-111.133
X89.093Y-102.985
X89.786Y-108.695
X90.144Y-105.756
X103.856Y-105.756
X104.214Y-108.695
X104.907Y-102.985
X105.895Y-111.133
X107.125Y-101.021
X108.519Y-112.51
X110.0Y-100.313
X111.481Y-112.51
X112.875Y-101.021
X114.105Y-111.133
X115.093Y-102.985
X115.786Y-108.695
X116.144Y-105.756
X147.856Y-105.756
X148.214Y-108.695
X148.907Y-102.985
X149.895Y-111.133
X151.125Y-101.021
X152.519Y-112.51
X154.0Y-100.313
X155.481Y-112.51
X156.875Y-101.021
X158.105Y-111.133
X159.093Y-102.985
X159.786Y-108.695
X160.144Y-105.756
X173.856Y-105.756
X174.214Y-108.695
X174.907Y-102.985
X175.895Y-111.133
X177.125Y-101.021
X178.519Y-112.51
X180.0Y-100.313
X181.481Y-112.51
X182.875Y-101.021
X184.105Y-111.133
X185.093Y-102.985
X185.786Y-108.695
X186.144Y-105.756
X217.856Y-105.756
X218.214Y-108.695
X218.907Y-102.985
X219.895Y-111.133
X221.125Y-101.021
X222.519Y-112.51
X224.0Y-100.313
X225.481Y-112.51
X226.875Y-101.021
X228.105Y-111.133
X229.093Y-102.985
X229.786Y-108.695
X230.144Y-105.756
X243.856Y-105.756
X244.214Y-108.695
X244.907Y-102.985
X245.895Y-111.133
X247.125Y-101.021
X248.519Y-112.51
X250.0Y-100.313
X251.481Y-112.51
X252.875Y-101.021
X254.105Y-111.133
X255.093Y-102.985
X255.786Y-108.695
X256.144Y-105.756
T7
X176.9Y-71.35
X176.9Y-91.35
T8
X74.935Y-71.4
X77.475Y-71.4
X103.12Y-85.0
X105.62Y-82.5
X108.12Y-85.0
X243.7Y-76.8
X243.7Y-79.3
X243.7Y-81.8
X258.2Y-76.8
X258.2Y-81.8
T9
X92.08Y-74.77
X94.62Y-74.77
X97.16Y-74.77
X99.12Y-66.5
X106.74Y-66.5
X138.63Y-71.86
X138.63Y-74.4
X138.63Y-76.94
T10
X116.12Y-77.34
X116.12Y-87.5
T11
X89.62Y-66.5
X94.62Y-66.5
X125.92Y-67.105
X131.0Y-67.105
T12
X251.2Y-73.6
X251.2Y-85.0
T13
X76.0Y-65.0
X97.0Y-111.0
X237.0Y-111.0
X257.0Y-65.0
T14
X94.62Y-91.43
X121.97Y-74.4
M30
