%TF.GenerationSoftware,KiCad,Pcbnew,8.0.4+1*%
%TF.CreationDate,2024-10-13T16:33:14+00:00*%
%TF.ProjectId,nixie,6e697869-652e-46b6-9963-61645f706362,v1.1*%
%TF.SameCoordinates,Original*%
%TF.FileFunction,Paste,Top*%
%TF.FilePolarity,Positive*%
%FSLAX46Y46*%
G04 Gerber Fmt 4.6, Leading zero omitted, Abs format (unit mm)*
G04 Created by KiCad (PCBNEW 8.0.4+1) date 2024-10-13 16:33:14*
%MOMM*%
%LPD*%
G01*
G04 APERTURE LIST*
G04 Aperture macros list*
%AMRoundRect*
0 Rectangle with rounded corners*
0 $1 Rounding radius*
0 $2 $3 $4 $5 $6 $7 $8 $9 X,Y pos of 4 corners*
0 Add a 4 corners polygon primitive as box body*
4,1,4,$2,$3,$4,$5,$6,$7,$8,$9,$2,$3,0*
0 Add four circle primitives for the rounded corners*
1,1,$1+$1,$2,$3*
1,1,$1+$1,$4,$5*
1,1,$1+$1,$6,$7*
1,1,$1+$1,$8,$9*
0 Add four rect primitives between the rounded corners*
20,1,$1+$1,$2,$3,$4,$5,0*
20,1,$1+$1,$4,$5,$6,$7,0*
20,1,$1+$1,$6,$7,$8,$9,0*
20,1,$1+$1,$8,$9,$2,$3,0*%
%AMRotRect*
0 Rectangle, with rotation*
0 The origin of the aperture is its center*
0 $1 length*
0 $2 width*
0 $3 Rotation angle, in degrees counterclockwise*
0 Add horizontal line*
21,1,$1,$2,0,0,$3*%
G04 Aperture macros list end*
%ADD10RotRect,1.500000X0.520000X225.000000*%
%ADD11RotRect,0.520000X1.500000X225.000000*%
%ADD12RoundRect,0.150000X-0.825000X-0.150000X0.825000X-0.150000X0.825000X0.150000X-0.825000X0.150000X0*%
G04 APERTURE END LIST*
D10*
%TO.C,U3*%
X139106423Y-88697056D03*
X138540738Y-88131371D03*
X137975052Y-87565685D03*
X137409367Y-87000000D03*
X136843681Y-86434314D03*
X136277996Y-85868629D03*
X135712311Y-85302944D03*
X135146625Y-84737258D03*
X134580940Y-84171573D03*
X134015254Y-83605887D03*
X133449569Y-83040202D03*
D11*
X130550431Y-83040202D03*
X129984746Y-83605887D03*
X129419060Y-84171573D03*
X128853375Y-84737258D03*
X128287689Y-85302944D03*
X127722004Y-85868629D03*
X127156319Y-86434314D03*
X126590633Y-87000000D03*
X126024948Y-87565685D03*
X125459262Y-88131371D03*
X124893577Y-88697056D03*
D10*
X124893577Y-91596194D03*
X125459262Y-92161879D03*
X126024948Y-92727565D03*
X126590633Y-93293250D03*
X127156319Y-93858936D03*
X127722004Y-94424621D03*
X128287689Y-94990306D03*
X128853375Y-95555992D03*
X129419060Y-96121677D03*
X129984746Y-96687363D03*
X130550431Y-97253048D03*
D11*
X133449569Y-97253048D03*
X134015254Y-96687363D03*
X134580940Y-96121677D03*
X135146625Y-95555992D03*
X135712311Y-94990306D03*
X136277996Y-94424621D03*
X136843681Y-93858936D03*
X137409367Y-93293250D03*
X137975052Y-92727565D03*
X138540738Y-92161879D03*
X139106423Y-91596194D03*
%TD*%
D12*
%TO.C,U7*%
X157525000Y-73495000D03*
X157525000Y-74765000D03*
X157525000Y-76035000D03*
X157525000Y-77305000D03*
X162475000Y-77305000D03*
X162475000Y-76035000D03*
X162475000Y-74765000D03*
X162475000Y-73495000D03*
%TD*%
D10*
%TO.C,U5*%
X209106423Y-88550431D03*
X208540738Y-87984746D03*
X207975052Y-87419060D03*
X207409367Y-86853375D03*
X206843681Y-86287689D03*
X206277996Y-85722004D03*
X205712311Y-85156319D03*
X205146625Y-84590633D03*
X204580940Y-84024948D03*
X204015254Y-83459262D03*
X203449569Y-82893577D03*
D11*
X200550431Y-82893577D03*
X199984746Y-83459262D03*
X199419060Y-84024948D03*
X198853375Y-84590633D03*
X198287689Y-85156319D03*
X197722004Y-85722004D03*
X197156319Y-86287689D03*
X196590633Y-86853375D03*
X196024948Y-87419060D03*
X195459262Y-87984746D03*
X194893577Y-88550431D03*
D10*
X194893577Y-91449569D03*
X195459262Y-92015254D03*
X196024948Y-92580940D03*
X196590633Y-93146625D03*
X197156319Y-93712311D03*
X197722004Y-94277996D03*
X198287689Y-94843681D03*
X198853375Y-95409367D03*
X199419060Y-95975052D03*
X199984746Y-96540738D03*
X200550431Y-97106423D03*
D11*
X203449569Y-97106423D03*
X204015254Y-96540738D03*
X204580940Y-95975052D03*
X205146625Y-95409367D03*
X205712311Y-94843681D03*
X206277996Y-94277996D03*
X206843681Y-93712311D03*
X207409367Y-93146625D03*
X207975052Y-92580940D03*
X208540738Y-92015254D03*
X209106423Y-91449569D03*
%TD*%
M02*
