%TF.GenerationSoftware,KiCad,Pcbnew,8.0.4+1*%
%TF.CreationDate,2024-10-13T09:49:30+00:00*%
%TF.ProjectId,nixie,6e697869-652e-46b6-9963-61645f706362,v1.0*%
%TF.SameCoordinates,Original*%
%TF.FileFunction,AssemblyDrawing,Top*%
%FSLAX46Y46*%
G04 Gerber Fmt 4.6, Leading zero omitted, Abs format (unit mm)*
G04 Created by KiCad (PCBNEW 8.0.4+1) date 2024-10-13 09:49:30*
%MOMM*%
%LPD*%
G01*
G04 APERTURE LIST*
%ADD10C,0.150000*%
%ADD11C,0.254000*%
%ADD12C,0.100000*%
G04 APERTURE END LIST*
D10*
X114374819Y-87761904D02*
X113374819Y-87761904D01*
X114374819Y-87190476D02*
X113803390Y-87619047D01*
X113374819Y-87190476D02*
X113946247Y-87761904D01*
X83479580Y-67916666D02*
X83527200Y-67964285D01*
X83527200Y-67964285D02*
X83574819Y-68107142D01*
X83574819Y-68107142D02*
X83574819Y-68202380D01*
X83574819Y-68202380D02*
X83527200Y-68345237D01*
X83527200Y-68345237D02*
X83431961Y-68440475D01*
X83431961Y-68440475D02*
X83336723Y-68488094D01*
X83336723Y-68488094D02*
X83146247Y-68535713D01*
X83146247Y-68535713D02*
X83003390Y-68535713D01*
X83003390Y-68535713D02*
X82812914Y-68488094D01*
X82812914Y-68488094D02*
X82717676Y-68440475D01*
X82717676Y-68440475D02*
X82622438Y-68345237D01*
X82622438Y-68345237D02*
X82574819Y-68202380D01*
X82574819Y-68202380D02*
X82574819Y-68107142D01*
X82574819Y-68107142D02*
X82622438Y-67964285D01*
X82622438Y-67964285D02*
X82670057Y-67916666D01*
X82574819Y-67011904D02*
X82574819Y-67488094D01*
X82574819Y-67488094D02*
X83051009Y-67535713D01*
X83051009Y-67535713D02*
X83003390Y-67488094D01*
X83003390Y-67488094D02*
X82955771Y-67392856D01*
X82955771Y-67392856D02*
X82955771Y-67154761D01*
X82955771Y-67154761D02*
X83003390Y-67059523D01*
X83003390Y-67059523D02*
X83051009Y-67011904D01*
X83051009Y-67011904D02*
X83146247Y-66964285D01*
X83146247Y-66964285D02*
X83384342Y-66964285D01*
X83384342Y-66964285D02*
X83479580Y-67011904D01*
X83479580Y-67011904D02*
X83527200Y-67059523D01*
X83527200Y-67059523D02*
X83574819Y-67154761D01*
X83574819Y-67154761D02*
X83574819Y-67392856D01*
X83574819Y-67392856D02*
X83527200Y-67488094D01*
X83527200Y-67488094D02*
X83479580Y-67535713D01*
X172895236Y-68531009D02*
X173038093Y-68578628D01*
X173038093Y-68578628D02*
X173085712Y-68626247D01*
X173085712Y-68626247D02*
X173133331Y-68721485D01*
X173133331Y-68721485D02*
X173133331Y-68864342D01*
X173133331Y-68864342D02*
X173085712Y-68959580D01*
X173085712Y-68959580D02*
X173038093Y-69007200D01*
X173038093Y-69007200D02*
X172942855Y-69054819D01*
X172942855Y-69054819D02*
X172561903Y-69054819D01*
X172561903Y-69054819D02*
X172561903Y-68054819D01*
X172561903Y-68054819D02*
X172895236Y-68054819D01*
X172895236Y-68054819D02*
X172990474Y-68102438D01*
X172990474Y-68102438D02*
X173038093Y-68150057D01*
X173038093Y-68150057D02*
X173085712Y-68245295D01*
X173085712Y-68245295D02*
X173085712Y-68340533D01*
X173085712Y-68340533D02*
X173038093Y-68435771D01*
X173038093Y-68435771D02*
X172990474Y-68483390D01*
X172990474Y-68483390D02*
X172895236Y-68531009D01*
X172895236Y-68531009D02*
X172561903Y-68531009D01*
X173990474Y-69054819D02*
X173990474Y-68531009D01*
X173990474Y-68531009D02*
X173942855Y-68435771D01*
X173942855Y-68435771D02*
X173847617Y-68388152D01*
X173847617Y-68388152D02*
X173657141Y-68388152D01*
X173657141Y-68388152D02*
X173561903Y-68435771D01*
X173990474Y-69007200D02*
X173895236Y-69054819D01*
X173895236Y-69054819D02*
X173657141Y-69054819D01*
X173657141Y-69054819D02*
X173561903Y-69007200D01*
X173561903Y-69007200D02*
X173514284Y-68911961D01*
X173514284Y-68911961D02*
X173514284Y-68816723D01*
X173514284Y-68816723D02*
X173561903Y-68721485D01*
X173561903Y-68721485D02*
X173657141Y-68673866D01*
X173657141Y-68673866D02*
X173895236Y-68673866D01*
X173895236Y-68673866D02*
X173990474Y-68626247D01*
X174323808Y-68388152D02*
X174704760Y-68388152D01*
X174466665Y-68054819D02*
X174466665Y-68911961D01*
X174466665Y-68911961D02*
X174514284Y-69007200D01*
X174514284Y-69007200D02*
X174609522Y-69054819D01*
X174609522Y-69054819D02*
X174704760Y-69054819D01*
X174895237Y-68388152D02*
X175276189Y-68388152D01*
X175038094Y-68054819D02*
X175038094Y-68911961D01*
X175038094Y-68911961D02*
X175085713Y-69007200D01*
X175085713Y-69007200D02*
X175180951Y-69054819D01*
X175180951Y-69054819D02*
X175276189Y-69054819D01*
X175990475Y-69007200D02*
X175895237Y-69054819D01*
X175895237Y-69054819D02*
X175704761Y-69054819D01*
X175704761Y-69054819D02*
X175609523Y-69007200D01*
X175609523Y-69007200D02*
X175561904Y-68911961D01*
X175561904Y-68911961D02*
X175561904Y-68531009D01*
X175561904Y-68531009D02*
X175609523Y-68435771D01*
X175609523Y-68435771D02*
X175704761Y-68388152D01*
X175704761Y-68388152D02*
X175895237Y-68388152D01*
X175895237Y-68388152D02*
X175990475Y-68435771D01*
X175990475Y-68435771D02*
X176038094Y-68531009D01*
X176038094Y-68531009D02*
X176038094Y-68626247D01*
X176038094Y-68626247D02*
X175561904Y-68721485D01*
X176466666Y-69054819D02*
X176466666Y-68388152D01*
X176466666Y-68578628D02*
X176514285Y-68483390D01*
X176514285Y-68483390D02*
X176561904Y-68435771D01*
X176561904Y-68435771D02*
X176657142Y-68388152D01*
X176657142Y-68388152D02*
X176752380Y-68388152D01*
X176990476Y-68388152D02*
X177228571Y-69054819D01*
X177466666Y-68388152D02*
X177228571Y-69054819D01*
X177228571Y-69054819D02*
X177133333Y-69292914D01*
X177133333Y-69292914D02*
X177085714Y-69340533D01*
X177085714Y-69340533D02*
X176990476Y-69388152D01*
X177609524Y-69150057D02*
X178371428Y-69150057D01*
X179180952Y-68959580D02*
X179133333Y-69007200D01*
X179133333Y-69007200D02*
X178990476Y-69054819D01*
X178990476Y-69054819D02*
X178895238Y-69054819D01*
X178895238Y-69054819D02*
X178752381Y-69007200D01*
X178752381Y-69007200D02*
X178657143Y-68911961D01*
X178657143Y-68911961D02*
X178609524Y-68816723D01*
X178609524Y-68816723D02*
X178561905Y-68626247D01*
X178561905Y-68626247D02*
X178561905Y-68483390D01*
X178561905Y-68483390D02*
X178609524Y-68292914D01*
X178609524Y-68292914D02*
X178657143Y-68197676D01*
X178657143Y-68197676D02*
X178752381Y-68102438D01*
X178752381Y-68102438D02*
X178895238Y-68054819D01*
X178895238Y-68054819D02*
X178990476Y-68054819D01*
X178990476Y-68054819D02*
X179133333Y-68102438D01*
X179133333Y-68102438D02*
X179180952Y-68150057D01*
X179990476Y-69007200D02*
X179895238Y-69054819D01*
X179895238Y-69054819D02*
X179704762Y-69054819D01*
X179704762Y-69054819D02*
X179609524Y-69007200D01*
X179609524Y-69007200D02*
X179561905Y-68911961D01*
X179561905Y-68911961D02*
X179561905Y-68531009D01*
X179561905Y-68531009D02*
X179609524Y-68435771D01*
X179609524Y-68435771D02*
X179704762Y-68388152D01*
X179704762Y-68388152D02*
X179895238Y-68388152D01*
X179895238Y-68388152D02*
X179990476Y-68435771D01*
X179990476Y-68435771D02*
X180038095Y-68531009D01*
X180038095Y-68531009D02*
X180038095Y-68626247D01*
X180038095Y-68626247D02*
X179561905Y-68721485D01*
X180609524Y-69054819D02*
X180514286Y-69007200D01*
X180514286Y-69007200D02*
X180466667Y-68911961D01*
X180466667Y-68911961D02*
X180466667Y-68054819D01*
X181133334Y-69054819D02*
X181038096Y-69007200D01*
X181038096Y-69007200D02*
X180990477Y-68911961D01*
X180990477Y-68911961D02*
X180990477Y-68054819D01*
X86670057Y-87365238D02*
X86622438Y-87460476D01*
X86622438Y-87460476D02*
X86527200Y-87555714D01*
X86527200Y-87555714D02*
X86384342Y-87698571D01*
X86384342Y-87698571D02*
X86336723Y-87793809D01*
X86336723Y-87793809D02*
X86336723Y-87889047D01*
X86574819Y-87841428D02*
X86527200Y-87936666D01*
X86527200Y-87936666D02*
X86431961Y-88031904D01*
X86431961Y-88031904D02*
X86241485Y-88079523D01*
X86241485Y-88079523D02*
X85908152Y-88079523D01*
X85908152Y-88079523D02*
X85717676Y-88031904D01*
X85717676Y-88031904D02*
X85622438Y-87936666D01*
X85622438Y-87936666D02*
X85574819Y-87841428D01*
X85574819Y-87841428D02*
X85574819Y-87650952D01*
X85574819Y-87650952D02*
X85622438Y-87555714D01*
X85622438Y-87555714D02*
X85717676Y-87460476D01*
X85717676Y-87460476D02*
X85908152Y-87412857D01*
X85908152Y-87412857D02*
X86241485Y-87412857D01*
X86241485Y-87412857D02*
X86431961Y-87460476D01*
X86431961Y-87460476D02*
X86527200Y-87555714D01*
X86527200Y-87555714D02*
X86574819Y-87650952D01*
X86574819Y-87650952D02*
X86574819Y-87841428D01*
X86574819Y-86460476D02*
X86574819Y-87031904D01*
X86574819Y-86746190D02*
X85574819Y-86746190D01*
X85574819Y-86746190D02*
X85717676Y-86841428D01*
X85717676Y-86841428D02*
X85812914Y-86936666D01*
X85812914Y-86936666D02*
X85860533Y-87031904D01*
X90428571Y-117854819D02*
X90428571Y-116854819D01*
X90428571Y-116854819D02*
X90761904Y-117569104D01*
X90761904Y-117569104D02*
X91095237Y-116854819D01*
X91095237Y-116854819D02*
X91095237Y-117854819D01*
X91714285Y-117854819D02*
X91619047Y-117807200D01*
X91619047Y-117807200D02*
X91571428Y-117759580D01*
X91571428Y-117759580D02*
X91523809Y-117664342D01*
X91523809Y-117664342D02*
X91523809Y-117378628D01*
X91523809Y-117378628D02*
X91571428Y-117283390D01*
X91571428Y-117283390D02*
X91619047Y-117235771D01*
X91619047Y-117235771D02*
X91714285Y-117188152D01*
X91714285Y-117188152D02*
X91857142Y-117188152D01*
X91857142Y-117188152D02*
X91952380Y-117235771D01*
X91952380Y-117235771D02*
X91999999Y-117283390D01*
X91999999Y-117283390D02*
X92047618Y-117378628D01*
X92047618Y-117378628D02*
X92047618Y-117664342D01*
X92047618Y-117664342D02*
X91999999Y-117759580D01*
X91999999Y-117759580D02*
X91952380Y-117807200D01*
X91952380Y-117807200D02*
X91857142Y-117854819D01*
X91857142Y-117854819D02*
X91714285Y-117854819D01*
X92904761Y-117188152D02*
X92904761Y-117854819D01*
X92476190Y-117188152D02*
X92476190Y-117711961D01*
X92476190Y-117711961D02*
X92523809Y-117807200D01*
X92523809Y-117807200D02*
X92619047Y-117854819D01*
X92619047Y-117854819D02*
X92761904Y-117854819D01*
X92761904Y-117854819D02*
X92857142Y-117807200D01*
X92857142Y-117807200D02*
X92904761Y-117759580D01*
X93380952Y-117188152D02*
X93380952Y-117854819D01*
X93380952Y-117283390D02*
X93428571Y-117235771D01*
X93428571Y-117235771D02*
X93523809Y-117188152D01*
X93523809Y-117188152D02*
X93666666Y-117188152D01*
X93666666Y-117188152D02*
X93761904Y-117235771D01*
X93761904Y-117235771D02*
X93809523Y-117331009D01*
X93809523Y-117331009D02*
X93809523Y-117854819D01*
X94142857Y-117188152D02*
X94523809Y-117188152D01*
X94285714Y-116854819D02*
X94285714Y-117711961D01*
X94285714Y-117711961D02*
X94333333Y-117807200D01*
X94333333Y-117807200D02*
X94428571Y-117854819D01*
X94428571Y-117854819D02*
X94523809Y-117854819D01*
X94857143Y-117854819D02*
X94857143Y-117188152D01*
X94857143Y-116854819D02*
X94809524Y-116902438D01*
X94809524Y-116902438D02*
X94857143Y-116950057D01*
X94857143Y-116950057D02*
X94904762Y-116902438D01*
X94904762Y-116902438D02*
X94857143Y-116854819D01*
X94857143Y-116854819D02*
X94857143Y-116950057D01*
X95333333Y-117188152D02*
X95333333Y-117854819D01*
X95333333Y-117283390D02*
X95380952Y-117235771D01*
X95380952Y-117235771D02*
X95476190Y-117188152D01*
X95476190Y-117188152D02*
X95619047Y-117188152D01*
X95619047Y-117188152D02*
X95714285Y-117235771D01*
X95714285Y-117235771D02*
X95761904Y-117331009D01*
X95761904Y-117331009D02*
X95761904Y-117854819D01*
X96666666Y-117188152D02*
X96666666Y-117997676D01*
X96666666Y-117997676D02*
X96619047Y-118092914D01*
X96619047Y-118092914D02*
X96571428Y-118140533D01*
X96571428Y-118140533D02*
X96476190Y-118188152D01*
X96476190Y-118188152D02*
X96333333Y-118188152D01*
X96333333Y-118188152D02*
X96238095Y-118140533D01*
X96666666Y-117807200D02*
X96571428Y-117854819D01*
X96571428Y-117854819D02*
X96380952Y-117854819D01*
X96380952Y-117854819D02*
X96285714Y-117807200D01*
X96285714Y-117807200D02*
X96238095Y-117759580D01*
X96238095Y-117759580D02*
X96190476Y-117664342D01*
X96190476Y-117664342D02*
X96190476Y-117378628D01*
X96190476Y-117378628D02*
X96238095Y-117283390D01*
X96238095Y-117283390D02*
X96285714Y-117235771D01*
X96285714Y-117235771D02*
X96380952Y-117188152D01*
X96380952Y-117188152D02*
X96571428Y-117188152D01*
X96571428Y-117188152D02*
X96666666Y-117235771D01*
X97142857Y-117854819D02*
X97142857Y-116854819D01*
X97142857Y-117331009D02*
X97714285Y-117331009D01*
X97714285Y-117854819D02*
X97714285Y-116854819D01*
X98333333Y-117854819D02*
X98238095Y-117807200D01*
X98238095Y-117807200D02*
X98190476Y-117759580D01*
X98190476Y-117759580D02*
X98142857Y-117664342D01*
X98142857Y-117664342D02*
X98142857Y-117378628D01*
X98142857Y-117378628D02*
X98190476Y-117283390D01*
X98190476Y-117283390D02*
X98238095Y-117235771D01*
X98238095Y-117235771D02*
X98333333Y-117188152D01*
X98333333Y-117188152D02*
X98476190Y-117188152D01*
X98476190Y-117188152D02*
X98571428Y-117235771D01*
X98571428Y-117235771D02*
X98619047Y-117283390D01*
X98619047Y-117283390D02*
X98666666Y-117378628D01*
X98666666Y-117378628D02*
X98666666Y-117664342D01*
X98666666Y-117664342D02*
X98619047Y-117759580D01*
X98619047Y-117759580D02*
X98571428Y-117807200D01*
X98571428Y-117807200D02*
X98476190Y-117854819D01*
X98476190Y-117854819D02*
X98333333Y-117854819D01*
X99238095Y-117854819D02*
X99142857Y-117807200D01*
X99142857Y-117807200D02*
X99095238Y-117711961D01*
X99095238Y-117711961D02*
X99095238Y-116854819D01*
X100000000Y-117807200D02*
X99904762Y-117854819D01*
X99904762Y-117854819D02*
X99714286Y-117854819D01*
X99714286Y-117854819D02*
X99619048Y-117807200D01*
X99619048Y-117807200D02*
X99571429Y-117711961D01*
X99571429Y-117711961D02*
X99571429Y-117331009D01*
X99571429Y-117331009D02*
X99619048Y-117235771D01*
X99619048Y-117235771D02*
X99714286Y-117188152D01*
X99714286Y-117188152D02*
X99904762Y-117188152D01*
X99904762Y-117188152D02*
X100000000Y-117235771D01*
X100000000Y-117235771D02*
X100047619Y-117331009D01*
X100047619Y-117331009D02*
X100047619Y-117426247D01*
X100047619Y-117426247D02*
X99571429Y-117521485D01*
X100238096Y-117950057D02*
X101000000Y-117950057D01*
X101238096Y-117854819D02*
X101238096Y-116854819D01*
X101238096Y-116854819D02*
X101619048Y-116854819D01*
X101619048Y-116854819D02*
X101714286Y-116902438D01*
X101714286Y-116902438D02*
X101761905Y-116950057D01*
X101761905Y-116950057D02*
X101809524Y-117045295D01*
X101809524Y-117045295D02*
X101809524Y-117188152D01*
X101809524Y-117188152D02*
X101761905Y-117283390D01*
X101761905Y-117283390D02*
X101714286Y-117331009D01*
X101714286Y-117331009D02*
X101619048Y-117378628D01*
X101619048Y-117378628D02*
X101238096Y-117378628D01*
X102666667Y-117854819D02*
X102666667Y-117331009D01*
X102666667Y-117331009D02*
X102619048Y-117235771D01*
X102619048Y-117235771D02*
X102523810Y-117188152D01*
X102523810Y-117188152D02*
X102333334Y-117188152D01*
X102333334Y-117188152D02*
X102238096Y-117235771D01*
X102666667Y-117807200D02*
X102571429Y-117854819D01*
X102571429Y-117854819D02*
X102333334Y-117854819D01*
X102333334Y-117854819D02*
X102238096Y-117807200D01*
X102238096Y-117807200D02*
X102190477Y-117711961D01*
X102190477Y-117711961D02*
X102190477Y-117616723D01*
X102190477Y-117616723D02*
X102238096Y-117521485D01*
X102238096Y-117521485D02*
X102333334Y-117473866D01*
X102333334Y-117473866D02*
X102571429Y-117473866D01*
X102571429Y-117473866D02*
X102666667Y-117426247D01*
X103571429Y-117854819D02*
X103571429Y-116854819D01*
X103571429Y-117807200D02*
X103476191Y-117854819D01*
X103476191Y-117854819D02*
X103285715Y-117854819D01*
X103285715Y-117854819D02*
X103190477Y-117807200D01*
X103190477Y-117807200D02*
X103142858Y-117759580D01*
X103142858Y-117759580D02*
X103095239Y-117664342D01*
X103095239Y-117664342D02*
X103095239Y-117378628D01*
X103095239Y-117378628D02*
X103142858Y-117283390D01*
X103142858Y-117283390D02*
X103190477Y-117235771D01*
X103190477Y-117235771D02*
X103285715Y-117188152D01*
X103285715Y-117188152D02*
X103476191Y-117188152D01*
X103476191Y-117188152D02*
X103571429Y-117235771D01*
X96238095Y-111454819D02*
X96238095Y-110454819D01*
X96238095Y-110931009D02*
X96809523Y-110931009D01*
X96809523Y-111454819D02*
X96809523Y-110454819D01*
X97714285Y-110788152D02*
X97714285Y-111454819D01*
X97476190Y-110407200D02*
X97238095Y-111121485D01*
X97238095Y-111121485D02*
X97857142Y-111121485D01*
X94524761Y-95900057D02*
X94429523Y-95852438D01*
X94429523Y-95852438D02*
X94334285Y-95757200D01*
X94334285Y-95757200D02*
X94191428Y-95614342D01*
X94191428Y-95614342D02*
X94096190Y-95566723D01*
X94096190Y-95566723D02*
X94000952Y-95566723D01*
X94048571Y-95804819D02*
X93953333Y-95757200D01*
X93953333Y-95757200D02*
X93858095Y-95661961D01*
X93858095Y-95661961D02*
X93810476Y-95471485D01*
X93810476Y-95471485D02*
X93810476Y-95138152D01*
X93810476Y-95138152D02*
X93858095Y-94947676D01*
X93858095Y-94947676D02*
X93953333Y-94852438D01*
X93953333Y-94852438D02*
X94048571Y-94804819D01*
X94048571Y-94804819D02*
X94239047Y-94804819D01*
X94239047Y-94804819D02*
X94334285Y-94852438D01*
X94334285Y-94852438D02*
X94429523Y-94947676D01*
X94429523Y-94947676D02*
X94477142Y-95138152D01*
X94477142Y-95138152D02*
X94477142Y-95471485D01*
X94477142Y-95471485D02*
X94429523Y-95661961D01*
X94429523Y-95661961D02*
X94334285Y-95757200D01*
X94334285Y-95757200D02*
X94239047Y-95804819D01*
X94239047Y-95804819D02*
X94048571Y-95804819D01*
X94858095Y-94900057D02*
X94905714Y-94852438D01*
X94905714Y-94852438D02*
X95000952Y-94804819D01*
X95000952Y-94804819D02*
X95239047Y-94804819D01*
X95239047Y-94804819D02*
X95334285Y-94852438D01*
X95334285Y-94852438D02*
X95381904Y-94900057D01*
X95381904Y-94900057D02*
X95429523Y-94995295D01*
X95429523Y-94995295D02*
X95429523Y-95090533D01*
X95429523Y-95090533D02*
X95381904Y-95233390D01*
X95381904Y-95233390D02*
X94810476Y-95804819D01*
X94810476Y-95804819D02*
X95429523Y-95804819D01*
X250328571Y-59854819D02*
X250328571Y-58854819D01*
X250328571Y-58854819D02*
X250661904Y-59569104D01*
X250661904Y-59569104D02*
X250995237Y-58854819D01*
X250995237Y-58854819D02*
X250995237Y-59854819D01*
X251614285Y-59854819D02*
X251519047Y-59807200D01*
X251519047Y-59807200D02*
X251471428Y-59759580D01*
X251471428Y-59759580D02*
X251423809Y-59664342D01*
X251423809Y-59664342D02*
X251423809Y-59378628D01*
X251423809Y-59378628D02*
X251471428Y-59283390D01*
X251471428Y-59283390D02*
X251519047Y-59235771D01*
X251519047Y-59235771D02*
X251614285Y-59188152D01*
X251614285Y-59188152D02*
X251757142Y-59188152D01*
X251757142Y-59188152D02*
X251852380Y-59235771D01*
X251852380Y-59235771D02*
X251899999Y-59283390D01*
X251899999Y-59283390D02*
X251947618Y-59378628D01*
X251947618Y-59378628D02*
X251947618Y-59664342D01*
X251947618Y-59664342D02*
X251899999Y-59759580D01*
X251899999Y-59759580D02*
X251852380Y-59807200D01*
X251852380Y-59807200D02*
X251757142Y-59854819D01*
X251757142Y-59854819D02*
X251614285Y-59854819D01*
X252804761Y-59188152D02*
X252804761Y-59854819D01*
X252376190Y-59188152D02*
X252376190Y-59711961D01*
X252376190Y-59711961D02*
X252423809Y-59807200D01*
X252423809Y-59807200D02*
X252519047Y-59854819D01*
X252519047Y-59854819D02*
X252661904Y-59854819D01*
X252661904Y-59854819D02*
X252757142Y-59807200D01*
X252757142Y-59807200D02*
X252804761Y-59759580D01*
X253280952Y-59188152D02*
X253280952Y-59854819D01*
X253280952Y-59283390D02*
X253328571Y-59235771D01*
X253328571Y-59235771D02*
X253423809Y-59188152D01*
X253423809Y-59188152D02*
X253566666Y-59188152D01*
X253566666Y-59188152D02*
X253661904Y-59235771D01*
X253661904Y-59235771D02*
X253709523Y-59331009D01*
X253709523Y-59331009D02*
X253709523Y-59854819D01*
X254042857Y-59188152D02*
X254423809Y-59188152D01*
X254185714Y-58854819D02*
X254185714Y-59711961D01*
X254185714Y-59711961D02*
X254233333Y-59807200D01*
X254233333Y-59807200D02*
X254328571Y-59854819D01*
X254328571Y-59854819D02*
X254423809Y-59854819D01*
X254757143Y-59854819D02*
X254757143Y-59188152D01*
X254757143Y-58854819D02*
X254709524Y-58902438D01*
X254709524Y-58902438D02*
X254757143Y-58950057D01*
X254757143Y-58950057D02*
X254804762Y-58902438D01*
X254804762Y-58902438D02*
X254757143Y-58854819D01*
X254757143Y-58854819D02*
X254757143Y-58950057D01*
X255233333Y-59188152D02*
X255233333Y-59854819D01*
X255233333Y-59283390D02*
X255280952Y-59235771D01*
X255280952Y-59235771D02*
X255376190Y-59188152D01*
X255376190Y-59188152D02*
X255519047Y-59188152D01*
X255519047Y-59188152D02*
X255614285Y-59235771D01*
X255614285Y-59235771D02*
X255661904Y-59331009D01*
X255661904Y-59331009D02*
X255661904Y-59854819D01*
X256566666Y-59188152D02*
X256566666Y-59997676D01*
X256566666Y-59997676D02*
X256519047Y-60092914D01*
X256519047Y-60092914D02*
X256471428Y-60140533D01*
X256471428Y-60140533D02*
X256376190Y-60188152D01*
X256376190Y-60188152D02*
X256233333Y-60188152D01*
X256233333Y-60188152D02*
X256138095Y-60140533D01*
X256566666Y-59807200D02*
X256471428Y-59854819D01*
X256471428Y-59854819D02*
X256280952Y-59854819D01*
X256280952Y-59854819D02*
X256185714Y-59807200D01*
X256185714Y-59807200D02*
X256138095Y-59759580D01*
X256138095Y-59759580D02*
X256090476Y-59664342D01*
X256090476Y-59664342D02*
X256090476Y-59378628D01*
X256090476Y-59378628D02*
X256138095Y-59283390D01*
X256138095Y-59283390D02*
X256185714Y-59235771D01*
X256185714Y-59235771D02*
X256280952Y-59188152D01*
X256280952Y-59188152D02*
X256471428Y-59188152D01*
X256471428Y-59188152D02*
X256566666Y-59235771D01*
X257042857Y-59854819D02*
X257042857Y-58854819D01*
X257042857Y-59331009D02*
X257614285Y-59331009D01*
X257614285Y-59854819D02*
X257614285Y-58854819D01*
X258233333Y-59854819D02*
X258138095Y-59807200D01*
X258138095Y-59807200D02*
X258090476Y-59759580D01*
X258090476Y-59759580D02*
X258042857Y-59664342D01*
X258042857Y-59664342D02*
X258042857Y-59378628D01*
X258042857Y-59378628D02*
X258090476Y-59283390D01*
X258090476Y-59283390D02*
X258138095Y-59235771D01*
X258138095Y-59235771D02*
X258233333Y-59188152D01*
X258233333Y-59188152D02*
X258376190Y-59188152D01*
X258376190Y-59188152D02*
X258471428Y-59235771D01*
X258471428Y-59235771D02*
X258519047Y-59283390D01*
X258519047Y-59283390D02*
X258566666Y-59378628D01*
X258566666Y-59378628D02*
X258566666Y-59664342D01*
X258566666Y-59664342D02*
X258519047Y-59759580D01*
X258519047Y-59759580D02*
X258471428Y-59807200D01*
X258471428Y-59807200D02*
X258376190Y-59854819D01*
X258376190Y-59854819D02*
X258233333Y-59854819D01*
X259138095Y-59854819D02*
X259042857Y-59807200D01*
X259042857Y-59807200D02*
X258995238Y-59711961D01*
X258995238Y-59711961D02*
X258995238Y-58854819D01*
X259900000Y-59807200D02*
X259804762Y-59854819D01*
X259804762Y-59854819D02*
X259614286Y-59854819D01*
X259614286Y-59854819D02*
X259519048Y-59807200D01*
X259519048Y-59807200D02*
X259471429Y-59711961D01*
X259471429Y-59711961D02*
X259471429Y-59331009D01*
X259471429Y-59331009D02*
X259519048Y-59235771D01*
X259519048Y-59235771D02*
X259614286Y-59188152D01*
X259614286Y-59188152D02*
X259804762Y-59188152D01*
X259804762Y-59188152D02*
X259900000Y-59235771D01*
X259900000Y-59235771D02*
X259947619Y-59331009D01*
X259947619Y-59331009D02*
X259947619Y-59426247D01*
X259947619Y-59426247D02*
X259471429Y-59521485D01*
X260138096Y-59950057D02*
X260900000Y-59950057D01*
X261138096Y-59854819D02*
X261138096Y-58854819D01*
X261138096Y-58854819D02*
X261519048Y-58854819D01*
X261519048Y-58854819D02*
X261614286Y-58902438D01*
X261614286Y-58902438D02*
X261661905Y-58950057D01*
X261661905Y-58950057D02*
X261709524Y-59045295D01*
X261709524Y-59045295D02*
X261709524Y-59188152D01*
X261709524Y-59188152D02*
X261661905Y-59283390D01*
X261661905Y-59283390D02*
X261614286Y-59331009D01*
X261614286Y-59331009D02*
X261519048Y-59378628D01*
X261519048Y-59378628D02*
X261138096Y-59378628D01*
X262566667Y-59854819D02*
X262566667Y-59331009D01*
X262566667Y-59331009D02*
X262519048Y-59235771D01*
X262519048Y-59235771D02*
X262423810Y-59188152D01*
X262423810Y-59188152D02*
X262233334Y-59188152D01*
X262233334Y-59188152D02*
X262138096Y-59235771D01*
X262566667Y-59807200D02*
X262471429Y-59854819D01*
X262471429Y-59854819D02*
X262233334Y-59854819D01*
X262233334Y-59854819D02*
X262138096Y-59807200D01*
X262138096Y-59807200D02*
X262090477Y-59711961D01*
X262090477Y-59711961D02*
X262090477Y-59616723D01*
X262090477Y-59616723D02*
X262138096Y-59521485D01*
X262138096Y-59521485D02*
X262233334Y-59473866D01*
X262233334Y-59473866D02*
X262471429Y-59473866D01*
X262471429Y-59473866D02*
X262566667Y-59426247D01*
X263471429Y-59854819D02*
X263471429Y-58854819D01*
X263471429Y-59807200D02*
X263376191Y-59854819D01*
X263376191Y-59854819D02*
X263185715Y-59854819D01*
X263185715Y-59854819D02*
X263090477Y-59807200D01*
X263090477Y-59807200D02*
X263042858Y-59759580D01*
X263042858Y-59759580D02*
X262995239Y-59664342D01*
X262995239Y-59664342D02*
X262995239Y-59378628D01*
X262995239Y-59378628D02*
X263042858Y-59283390D01*
X263042858Y-59283390D02*
X263090477Y-59235771D01*
X263090477Y-59235771D02*
X263185715Y-59188152D01*
X263185715Y-59188152D02*
X263376191Y-59188152D01*
X263376191Y-59188152D02*
X263471429Y-59235771D01*
X254618095Y-65454819D02*
X254618095Y-64454819D01*
X254618095Y-64931009D02*
X255189523Y-64931009D01*
X255189523Y-65454819D02*
X255189523Y-64454819D01*
X255618095Y-64550057D02*
X255665714Y-64502438D01*
X255665714Y-64502438D02*
X255760952Y-64454819D01*
X255760952Y-64454819D02*
X255999047Y-64454819D01*
X255999047Y-64454819D02*
X256094285Y-64502438D01*
X256094285Y-64502438D02*
X256141904Y-64550057D01*
X256141904Y-64550057D02*
X256189523Y-64645295D01*
X256189523Y-64645295D02*
X256189523Y-64740533D01*
X256189523Y-64740533D02*
X256141904Y-64883390D01*
X256141904Y-64883390D02*
X255570476Y-65454819D01*
X255570476Y-65454819D02*
X256189523Y-65454819D01*
X230428571Y-117654819D02*
X230428571Y-116654819D01*
X230428571Y-116654819D02*
X230761904Y-117369104D01*
X230761904Y-117369104D02*
X231095237Y-116654819D01*
X231095237Y-116654819D02*
X231095237Y-117654819D01*
X231714285Y-117654819D02*
X231619047Y-117607200D01*
X231619047Y-117607200D02*
X231571428Y-117559580D01*
X231571428Y-117559580D02*
X231523809Y-117464342D01*
X231523809Y-117464342D02*
X231523809Y-117178628D01*
X231523809Y-117178628D02*
X231571428Y-117083390D01*
X231571428Y-117083390D02*
X231619047Y-117035771D01*
X231619047Y-117035771D02*
X231714285Y-116988152D01*
X231714285Y-116988152D02*
X231857142Y-116988152D01*
X231857142Y-116988152D02*
X231952380Y-117035771D01*
X231952380Y-117035771D02*
X231999999Y-117083390D01*
X231999999Y-117083390D02*
X232047618Y-117178628D01*
X232047618Y-117178628D02*
X232047618Y-117464342D01*
X232047618Y-117464342D02*
X231999999Y-117559580D01*
X231999999Y-117559580D02*
X231952380Y-117607200D01*
X231952380Y-117607200D02*
X231857142Y-117654819D01*
X231857142Y-117654819D02*
X231714285Y-117654819D01*
X232904761Y-116988152D02*
X232904761Y-117654819D01*
X232476190Y-116988152D02*
X232476190Y-117511961D01*
X232476190Y-117511961D02*
X232523809Y-117607200D01*
X232523809Y-117607200D02*
X232619047Y-117654819D01*
X232619047Y-117654819D02*
X232761904Y-117654819D01*
X232761904Y-117654819D02*
X232857142Y-117607200D01*
X232857142Y-117607200D02*
X232904761Y-117559580D01*
X233380952Y-116988152D02*
X233380952Y-117654819D01*
X233380952Y-117083390D02*
X233428571Y-117035771D01*
X233428571Y-117035771D02*
X233523809Y-116988152D01*
X233523809Y-116988152D02*
X233666666Y-116988152D01*
X233666666Y-116988152D02*
X233761904Y-117035771D01*
X233761904Y-117035771D02*
X233809523Y-117131009D01*
X233809523Y-117131009D02*
X233809523Y-117654819D01*
X234142857Y-116988152D02*
X234523809Y-116988152D01*
X234285714Y-116654819D02*
X234285714Y-117511961D01*
X234285714Y-117511961D02*
X234333333Y-117607200D01*
X234333333Y-117607200D02*
X234428571Y-117654819D01*
X234428571Y-117654819D02*
X234523809Y-117654819D01*
X234857143Y-117654819D02*
X234857143Y-116988152D01*
X234857143Y-116654819D02*
X234809524Y-116702438D01*
X234809524Y-116702438D02*
X234857143Y-116750057D01*
X234857143Y-116750057D02*
X234904762Y-116702438D01*
X234904762Y-116702438D02*
X234857143Y-116654819D01*
X234857143Y-116654819D02*
X234857143Y-116750057D01*
X235333333Y-116988152D02*
X235333333Y-117654819D01*
X235333333Y-117083390D02*
X235380952Y-117035771D01*
X235380952Y-117035771D02*
X235476190Y-116988152D01*
X235476190Y-116988152D02*
X235619047Y-116988152D01*
X235619047Y-116988152D02*
X235714285Y-117035771D01*
X235714285Y-117035771D02*
X235761904Y-117131009D01*
X235761904Y-117131009D02*
X235761904Y-117654819D01*
X236666666Y-116988152D02*
X236666666Y-117797676D01*
X236666666Y-117797676D02*
X236619047Y-117892914D01*
X236619047Y-117892914D02*
X236571428Y-117940533D01*
X236571428Y-117940533D02*
X236476190Y-117988152D01*
X236476190Y-117988152D02*
X236333333Y-117988152D01*
X236333333Y-117988152D02*
X236238095Y-117940533D01*
X236666666Y-117607200D02*
X236571428Y-117654819D01*
X236571428Y-117654819D02*
X236380952Y-117654819D01*
X236380952Y-117654819D02*
X236285714Y-117607200D01*
X236285714Y-117607200D02*
X236238095Y-117559580D01*
X236238095Y-117559580D02*
X236190476Y-117464342D01*
X236190476Y-117464342D02*
X236190476Y-117178628D01*
X236190476Y-117178628D02*
X236238095Y-117083390D01*
X236238095Y-117083390D02*
X236285714Y-117035771D01*
X236285714Y-117035771D02*
X236380952Y-116988152D01*
X236380952Y-116988152D02*
X236571428Y-116988152D01*
X236571428Y-116988152D02*
X236666666Y-117035771D01*
X237142857Y-117654819D02*
X237142857Y-116654819D01*
X237142857Y-117131009D02*
X237714285Y-117131009D01*
X237714285Y-117654819D02*
X237714285Y-116654819D01*
X238333333Y-117654819D02*
X238238095Y-117607200D01*
X238238095Y-117607200D02*
X238190476Y-117559580D01*
X238190476Y-117559580D02*
X238142857Y-117464342D01*
X238142857Y-117464342D02*
X238142857Y-117178628D01*
X238142857Y-117178628D02*
X238190476Y-117083390D01*
X238190476Y-117083390D02*
X238238095Y-117035771D01*
X238238095Y-117035771D02*
X238333333Y-116988152D01*
X238333333Y-116988152D02*
X238476190Y-116988152D01*
X238476190Y-116988152D02*
X238571428Y-117035771D01*
X238571428Y-117035771D02*
X238619047Y-117083390D01*
X238619047Y-117083390D02*
X238666666Y-117178628D01*
X238666666Y-117178628D02*
X238666666Y-117464342D01*
X238666666Y-117464342D02*
X238619047Y-117559580D01*
X238619047Y-117559580D02*
X238571428Y-117607200D01*
X238571428Y-117607200D02*
X238476190Y-117654819D01*
X238476190Y-117654819D02*
X238333333Y-117654819D01*
X239238095Y-117654819D02*
X239142857Y-117607200D01*
X239142857Y-117607200D02*
X239095238Y-117511961D01*
X239095238Y-117511961D02*
X239095238Y-116654819D01*
X240000000Y-117607200D02*
X239904762Y-117654819D01*
X239904762Y-117654819D02*
X239714286Y-117654819D01*
X239714286Y-117654819D02*
X239619048Y-117607200D01*
X239619048Y-117607200D02*
X239571429Y-117511961D01*
X239571429Y-117511961D02*
X239571429Y-117131009D01*
X239571429Y-117131009D02*
X239619048Y-117035771D01*
X239619048Y-117035771D02*
X239714286Y-116988152D01*
X239714286Y-116988152D02*
X239904762Y-116988152D01*
X239904762Y-116988152D02*
X240000000Y-117035771D01*
X240000000Y-117035771D02*
X240047619Y-117131009D01*
X240047619Y-117131009D02*
X240047619Y-117226247D01*
X240047619Y-117226247D02*
X239571429Y-117321485D01*
X240238096Y-117750057D02*
X241000000Y-117750057D01*
X241238096Y-117654819D02*
X241238096Y-116654819D01*
X241238096Y-116654819D02*
X241619048Y-116654819D01*
X241619048Y-116654819D02*
X241714286Y-116702438D01*
X241714286Y-116702438D02*
X241761905Y-116750057D01*
X241761905Y-116750057D02*
X241809524Y-116845295D01*
X241809524Y-116845295D02*
X241809524Y-116988152D01*
X241809524Y-116988152D02*
X241761905Y-117083390D01*
X241761905Y-117083390D02*
X241714286Y-117131009D01*
X241714286Y-117131009D02*
X241619048Y-117178628D01*
X241619048Y-117178628D02*
X241238096Y-117178628D01*
X242666667Y-117654819D02*
X242666667Y-117131009D01*
X242666667Y-117131009D02*
X242619048Y-117035771D01*
X242619048Y-117035771D02*
X242523810Y-116988152D01*
X242523810Y-116988152D02*
X242333334Y-116988152D01*
X242333334Y-116988152D02*
X242238096Y-117035771D01*
X242666667Y-117607200D02*
X242571429Y-117654819D01*
X242571429Y-117654819D02*
X242333334Y-117654819D01*
X242333334Y-117654819D02*
X242238096Y-117607200D01*
X242238096Y-117607200D02*
X242190477Y-117511961D01*
X242190477Y-117511961D02*
X242190477Y-117416723D01*
X242190477Y-117416723D02*
X242238096Y-117321485D01*
X242238096Y-117321485D02*
X242333334Y-117273866D01*
X242333334Y-117273866D02*
X242571429Y-117273866D01*
X242571429Y-117273866D02*
X242666667Y-117226247D01*
X243571429Y-117654819D02*
X243571429Y-116654819D01*
X243571429Y-117607200D02*
X243476191Y-117654819D01*
X243476191Y-117654819D02*
X243285715Y-117654819D01*
X243285715Y-117654819D02*
X243190477Y-117607200D01*
X243190477Y-117607200D02*
X243142858Y-117559580D01*
X243142858Y-117559580D02*
X243095239Y-117464342D01*
X243095239Y-117464342D02*
X243095239Y-117178628D01*
X243095239Y-117178628D02*
X243142858Y-117083390D01*
X243142858Y-117083390D02*
X243190477Y-117035771D01*
X243190477Y-117035771D02*
X243285715Y-116988152D01*
X243285715Y-116988152D02*
X243476191Y-116988152D01*
X243476191Y-116988152D02*
X243571429Y-117035771D01*
X236238095Y-111454819D02*
X236238095Y-110454819D01*
X236238095Y-110931009D02*
X236809523Y-110931009D01*
X236809523Y-111454819D02*
X236809523Y-110454819D01*
X237190476Y-110454819D02*
X237809523Y-110454819D01*
X237809523Y-110454819D02*
X237476190Y-110835771D01*
X237476190Y-110835771D02*
X237619047Y-110835771D01*
X237619047Y-110835771D02*
X237714285Y-110883390D01*
X237714285Y-110883390D02*
X237761904Y-110931009D01*
X237761904Y-110931009D02*
X237809523Y-111026247D01*
X237809523Y-111026247D02*
X237809523Y-111264342D01*
X237809523Y-111264342D02*
X237761904Y-111359580D01*
X237761904Y-111359580D02*
X237714285Y-111407200D01*
X237714285Y-111407200D02*
X237619047Y-111454819D01*
X237619047Y-111454819D02*
X237333333Y-111454819D01*
X237333333Y-111454819D02*
X237238095Y-111407200D01*
X237238095Y-111407200D02*
X237190476Y-111359580D01*
X69628571Y-59254819D02*
X69628571Y-58254819D01*
X69628571Y-58254819D02*
X69961904Y-58969104D01*
X69961904Y-58969104D02*
X70295237Y-58254819D01*
X70295237Y-58254819D02*
X70295237Y-59254819D01*
X70914285Y-59254819D02*
X70819047Y-59207200D01*
X70819047Y-59207200D02*
X70771428Y-59159580D01*
X70771428Y-59159580D02*
X70723809Y-59064342D01*
X70723809Y-59064342D02*
X70723809Y-58778628D01*
X70723809Y-58778628D02*
X70771428Y-58683390D01*
X70771428Y-58683390D02*
X70819047Y-58635771D01*
X70819047Y-58635771D02*
X70914285Y-58588152D01*
X70914285Y-58588152D02*
X71057142Y-58588152D01*
X71057142Y-58588152D02*
X71152380Y-58635771D01*
X71152380Y-58635771D02*
X71199999Y-58683390D01*
X71199999Y-58683390D02*
X71247618Y-58778628D01*
X71247618Y-58778628D02*
X71247618Y-59064342D01*
X71247618Y-59064342D02*
X71199999Y-59159580D01*
X71199999Y-59159580D02*
X71152380Y-59207200D01*
X71152380Y-59207200D02*
X71057142Y-59254819D01*
X71057142Y-59254819D02*
X70914285Y-59254819D01*
X72104761Y-58588152D02*
X72104761Y-59254819D01*
X71676190Y-58588152D02*
X71676190Y-59111961D01*
X71676190Y-59111961D02*
X71723809Y-59207200D01*
X71723809Y-59207200D02*
X71819047Y-59254819D01*
X71819047Y-59254819D02*
X71961904Y-59254819D01*
X71961904Y-59254819D02*
X72057142Y-59207200D01*
X72057142Y-59207200D02*
X72104761Y-59159580D01*
X72580952Y-58588152D02*
X72580952Y-59254819D01*
X72580952Y-58683390D02*
X72628571Y-58635771D01*
X72628571Y-58635771D02*
X72723809Y-58588152D01*
X72723809Y-58588152D02*
X72866666Y-58588152D01*
X72866666Y-58588152D02*
X72961904Y-58635771D01*
X72961904Y-58635771D02*
X73009523Y-58731009D01*
X73009523Y-58731009D02*
X73009523Y-59254819D01*
X73342857Y-58588152D02*
X73723809Y-58588152D01*
X73485714Y-58254819D02*
X73485714Y-59111961D01*
X73485714Y-59111961D02*
X73533333Y-59207200D01*
X73533333Y-59207200D02*
X73628571Y-59254819D01*
X73628571Y-59254819D02*
X73723809Y-59254819D01*
X74057143Y-59254819D02*
X74057143Y-58588152D01*
X74057143Y-58254819D02*
X74009524Y-58302438D01*
X74009524Y-58302438D02*
X74057143Y-58350057D01*
X74057143Y-58350057D02*
X74104762Y-58302438D01*
X74104762Y-58302438D02*
X74057143Y-58254819D01*
X74057143Y-58254819D02*
X74057143Y-58350057D01*
X74533333Y-58588152D02*
X74533333Y-59254819D01*
X74533333Y-58683390D02*
X74580952Y-58635771D01*
X74580952Y-58635771D02*
X74676190Y-58588152D01*
X74676190Y-58588152D02*
X74819047Y-58588152D01*
X74819047Y-58588152D02*
X74914285Y-58635771D01*
X74914285Y-58635771D02*
X74961904Y-58731009D01*
X74961904Y-58731009D02*
X74961904Y-59254819D01*
X75866666Y-58588152D02*
X75866666Y-59397676D01*
X75866666Y-59397676D02*
X75819047Y-59492914D01*
X75819047Y-59492914D02*
X75771428Y-59540533D01*
X75771428Y-59540533D02*
X75676190Y-59588152D01*
X75676190Y-59588152D02*
X75533333Y-59588152D01*
X75533333Y-59588152D02*
X75438095Y-59540533D01*
X75866666Y-59207200D02*
X75771428Y-59254819D01*
X75771428Y-59254819D02*
X75580952Y-59254819D01*
X75580952Y-59254819D02*
X75485714Y-59207200D01*
X75485714Y-59207200D02*
X75438095Y-59159580D01*
X75438095Y-59159580D02*
X75390476Y-59064342D01*
X75390476Y-59064342D02*
X75390476Y-58778628D01*
X75390476Y-58778628D02*
X75438095Y-58683390D01*
X75438095Y-58683390D02*
X75485714Y-58635771D01*
X75485714Y-58635771D02*
X75580952Y-58588152D01*
X75580952Y-58588152D02*
X75771428Y-58588152D01*
X75771428Y-58588152D02*
X75866666Y-58635771D01*
X76342857Y-59254819D02*
X76342857Y-58254819D01*
X76342857Y-58731009D02*
X76914285Y-58731009D01*
X76914285Y-59254819D02*
X76914285Y-58254819D01*
X77533333Y-59254819D02*
X77438095Y-59207200D01*
X77438095Y-59207200D02*
X77390476Y-59159580D01*
X77390476Y-59159580D02*
X77342857Y-59064342D01*
X77342857Y-59064342D02*
X77342857Y-58778628D01*
X77342857Y-58778628D02*
X77390476Y-58683390D01*
X77390476Y-58683390D02*
X77438095Y-58635771D01*
X77438095Y-58635771D02*
X77533333Y-58588152D01*
X77533333Y-58588152D02*
X77676190Y-58588152D01*
X77676190Y-58588152D02*
X77771428Y-58635771D01*
X77771428Y-58635771D02*
X77819047Y-58683390D01*
X77819047Y-58683390D02*
X77866666Y-58778628D01*
X77866666Y-58778628D02*
X77866666Y-59064342D01*
X77866666Y-59064342D02*
X77819047Y-59159580D01*
X77819047Y-59159580D02*
X77771428Y-59207200D01*
X77771428Y-59207200D02*
X77676190Y-59254819D01*
X77676190Y-59254819D02*
X77533333Y-59254819D01*
X78438095Y-59254819D02*
X78342857Y-59207200D01*
X78342857Y-59207200D02*
X78295238Y-59111961D01*
X78295238Y-59111961D02*
X78295238Y-58254819D01*
X79200000Y-59207200D02*
X79104762Y-59254819D01*
X79104762Y-59254819D02*
X78914286Y-59254819D01*
X78914286Y-59254819D02*
X78819048Y-59207200D01*
X78819048Y-59207200D02*
X78771429Y-59111961D01*
X78771429Y-59111961D02*
X78771429Y-58731009D01*
X78771429Y-58731009D02*
X78819048Y-58635771D01*
X78819048Y-58635771D02*
X78914286Y-58588152D01*
X78914286Y-58588152D02*
X79104762Y-58588152D01*
X79104762Y-58588152D02*
X79200000Y-58635771D01*
X79200000Y-58635771D02*
X79247619Y-58731009D01*
X79247619Y-58731009D02*
X79247619Y-58826247D01*
X79247619Y-58826247D02*
X78771429Y-58921485D01*
X79438096Y-59350057D02*
X80200000Y-59350057D01*
X80438096Y-59254819D02*
X80438096Y-58254819D01*
X80438096Y-58254819D02*
X80819048Y-58254819D01*
X80819048Y-58254819D02*
X80914286Y-58302438D01*
X80914286Y-58302438D02*
X80961905Y-58350057D01*
X80961905Y-58350057D02*
X81009524Y-58445295D01*
X81009524Y-58445295D02*
X81009524Y-58588152D01*
X81009524Y-58588152D02*
X80961905Y-58683390D01*
X80961905Y-58683390D02*
X80914286Y-58731009D01*
X80914286Y-58731009D02*
X80819048Y-58778628D01*
X80819048Y-58778628D02*
X80438096Y-58778628D01*
X81866667Y-59254819D02*
X81866667Y-58731009D01*
X81866667Y-58731009D02*
X81819048Y-58635771D01*
X81819048Y-58635771D02*
X81723810Y-58588152D01*
X81723810Y-58588152D02*
X81533334Y-58588152D01*
X81533334Y-58588152D02*
X81438096Y-58635771D01*
X81866667Y-59207200D02*
X81771429Y-59254819D01*
X81771429Y-59254819D02*
X81533334Y-59254819D01*
X81533334Y-59254819D02*
X81438096Y-59207200D01*
X81438096Y-59207200D02*
X81390477Y-59111961D01*
X81390477Y-59111961D02*
X81390477Y-59016723D01*
X81390477Y-59016723D02*
X81438096Y-58921485D01*
X81438096Y-58921485D02*
X81533334Y-58873866D01*
X81533334Y-58873866D02*
X81771429Y-58873866D01*
X81771429Y-58873866D02*
X81866667Y-58826247D01*
X82771429Y-59254819D02*
X82771429Y-58254819D01*
X82771429Y-59207200D02*
X82676191Y-59254819D01*
X82676191Y-59254819D02*
X82485715Y-59254819D01*
X82485715Y-59254819D02*
X82390477Y-59207200D01*
X82390477Y-59207200D02*
X82342858Y-59159580D01*
X82342858Y-59159580D02*
X82295239Y-59064342D01*
X82295239Y-59064342D02*
X82295239Y-58778628D01*
X82295239Y-58778628D02*
X82342858Y-58683390D01*
X82342858Y-58683390D02*
X82390477Y-58635771D01*
X82390477Y-58635771D02*
X82485715Y-58588152D01*
X82485715Y-58588152D02*
X82676191Y-58588152D01*
X82676191Y-58588152D02*
X82771429Y-58635771D01*
X75238095Y-65454819D02*
X75238095Y-64454819D01*
X75238095Y-64931009D02*
X75809523Y-64931009D01*
X75809523Y-65454819D02*
X75809523Y-64454819D01*
X76809523Y-65454819D02*
X76238095Y-65454819D01*
X76523809Y-65454819D02*
X76523809Y-64454819D01*
X76523809Y-64454819D02*
X76428571Y-64597676D01*
X76428571Y-64597676D02*
X76333333Y-64692914D01*
X76333333Y-64692914D02*
X76238095Y-64740533D01*
X106478095Y-69054819D02*
X106478095Y-68054819D01*
X107049523Y-69054819D02*
X106620952Y-68483390D01*
X107049523Y-68054819D02*
X106478095Y-68626247D01*
D11*
X251463842Y-80992333D02*
X251524318Y-80810904D01*
X251524318Y-80810904D02*
X251524318Y-80508523D01*
X251524318Y-80508523D02*
X251463842Y-80387571D01*
X251463842Y-80387571D02*
X251403365Y-80327095D01*
X251403365Y-80327095D02*
X251282413Y-80266618D01*
X251282413Y-80266618D02*
X251161461Y-80266618D01*
X251161461Y-80266618D02*
X251040508Y-80327095D01*
X251040508Y-80327095D02*
X250980032Y-80387571D01*
X250980032Y-80387571D02*
X250919556Y-80508523D01*
X250919556Y-80508523D02*
X250859080Y-80750428D01*
X250859080Y-80750428D02*
X250798603Y-80871380D01*
X250798603Y-80871380D02*
X250738127Y-80931857D01*
X250738127Y-80931857D02*
X250617175Y-80992333D01*
X250617175Y-80992333D02*
X250496222Y-80992333D01*
X250496222Y-80992333D02*
X250375270Y-80931857D01*
X250375270Y-80931857D02*
X250314794Y-80871380D01*
X250314794Y-80871380D02*
X250254318Y-80750428D01*
X250254318Y-80750428D02*
X250254318Y-80448047D01*
X250254318Y-80448047D02*
X250314794Y-80266618D01*
X250254318Y-79843285D02*
X251524318Y-79540904D01*
X251524318Y-79540904D02*
X250617175Y-79298999D01*
X250617175Y-79298999D02*
X251524318Y-79057094D01*
X251524318Y-79057094D02*
X250254318Y-78754714D01*
X251524318Y-77605665D02*
X251524318Y-78331380D01*
X251524318Y-77968523D02*
X250254318Y-77968523D01*
X250254318Y-77968523D02*
X250435746Y-78089475D01*
X250435746Y-78089475D02*
X250556699Y-78210427D01*
X250556699Y-78210427D02*
X250617175Y-78331380D01*
D10*
X68959580Y-76709524D02*
X69007200Y-76757143D01*
X69007200Y-76757143D02*
X69054819Y-76900000D01*
X69054819Y-76900000D02*
X69054819Y-76995238D01*
X69054819Y-76995238D02*
X69007200Y-77138095D01*
X69007200Y-77138095D02*
X68911961Y-77233333D01*
X68911961Y-77233333D02*
X68816723Y-77280952D01*
X68816723Y-77280952D02*
X68626247Y-77328571D01*
X68626247Y-77328571D02*
X68483390Y-77328571D01*
X68483390Y-77328571D02*
X68292914Y-77280952D01*
X68292914Y-77280952D02*
X68197676Y-77233333D01*
X68197676Y-77233333D02*
X68102438Y-77138095D01*
X68102438Y-77138095D02*
X68054819Y-76995238D01*
X68054819Y-76995238D02*
X68054819Y-76900000D01*
X68054819Y-76900000D02*
X68102438Y-76757143D01*
X68102438Y-76757143D02*
X68150057Y-76709524D01*
X69054819Y-76138095D02*
X69007200Y-76233333D01*
X69007200Y-76233333D02*
X68959580Y-76280952D01*
X68959580Y-76280952D02*
X68864342Y-76328571D01*
X68864342Y-76328571D02*
X68578628Y-76328571D01*
X68578628Y-76328571D02*
X68483390Y-76280952D01*
X68483390Y-76280952D02*
X68435771Y-76233333D01*
X68435771Y-76233333D02*
X68388152Y-76138095D01*
X68388152Y-76138095D02*
X68388152Y-75995238D01*
X68388152Y-75995238D02*
X68435771Y-75900000D01*
X68435771Y-75900000D02*
X68483390Y-75852381D01*
X68483390Y-75852381D02*
X68578628Y-75804762D01*
X68578628Y-75804762D02*
X68864342Y-75804762D01*
X68864342Y-75804762D02*
X68959580Y-75852381D01*
X68959580Y-75852381D02*
X69007200Y-75900000D01*
X69007200Y-75900000D02*
X69054819Y-75995238D01*
X69054819Y-75995238D02*
X69054819Y-76138095D01*
X68388152Y-75376190D02*
X69054819Y-75376190D01*
X68483390Y-75376190D02*
X68435771Y-75328571D01*
X68435771Y-75328571D02*
X68388152Y-75233333D01*
X68388152Y-75233333D02*
X68388152Y-75090476D01*
X68388152Y-75090476D02*
X68435771Y-74995238D01*
X68435771Y-74995238D02*
X68531009Y-74947619D01*
X68531009Y-74947619D02*
X69054819Y-74947619D01*
X68388152Y-74471428D02*
X69054819Y-74471428D01*
X68483390Y-74471428D02*
X68435771Y-74423809D01*
X68435771Y-74423809D02*
X68388152Y-74328571D01*
X68388152Y-74328571D02*
X68388152Y-74185714D01*
X68388152Y-74185714D02*
X68435771Y-74090476D01*
X68435771Y-74090476D02*
X68531009Y-74042857D01*
X68531009Y-74042857D02*
X69054819Y-74042857D01*
X69150057Y-73804762D02*
X69150057Y-73042857D01*
X68054819Y-72614285D02*
X68054819Y-72519047D01*
X68054819Y-72519047D02*
X68102438Y-72423809D01*
X68102438Y-72423809D02*
X68150057Y-72376190D01*
X68150057Y-72376190D02*
X68245295Y-72328571D01*
X68245295Y-72328571D02*
X68435771Y-72280952D01*
X68435771Y-72280952D02*
X68673866Y-72280952D01*
X68673866Y-72280952D02*
X68864342Y-72328571D01*
X68864342Y-72328571D02*
X68959580Y-72376190D01*
X68959580Y-72376190D02*
X69007200Y-72423809D01*
X69007200Y-72423809D02*
X69054819Y-72519047D01*
X69054819Y-72519047D02*
X69054819Y-72614285D01*
X69054819Y-72614285D02*
X69007200Y-72709523D01*
X69007200Y-72709523D02*
X68959580Y-72757142D01*
X68959580Y-72757142D02*
X68864342Y-72804761D01*
X68864342Y-72804761D02*
X68673866Y-72852380D01*
X68673866Y-72852380D02*
X68435771Y-72852380D01*
X68435771Y-72852380D02*
X68245295Y-72804761D01*
X68245295Y-72804761D02*
X68150057Y-72757142D01*
X68150057Y-72757142D02*
X68102438Y-72709523D01*
X68102438Y-72709523D02*
X68054819Y-72614285D01*
X69054819Y-71328571D02*
X69054819Y-71899999D01*
X69054819Y-71614285D02*
X68054819Y-71614285D01*
X68054819Y-71614285D02*
X68197676Y-71709523D01*
X68197676Y-71709523D02*
X68292914Y-71804761D01*
X68292914Y-71804761D02*
X68340533Y-71899999D01*
X69054819Y-70995237D02*
X68388152Y-70471428D01*
X68388152Y-70995237D02*
X69054819Y-70471428D01*
X68054819Y-69899999D02*
X68054819Y-69804761D01*
X68054819Y-69804761D02*
X68102438Y-69709523D01*
X68102438Y-69709523D02*
X68150057Y-69661904D01*
X68150057Y-69661904D02*
X68245295Y-69614285D01*
X68245295Y-69614285D02*
X68435771Y-69566666D01*
X68435771Y-69566666D02*
X68673866Y-69566666D01*
X68673866Y-69566666D02*
X68864342Y-69614285D01*
X68864342Y-69614285D02*
X68959580Y-69661904D01*
X68959580Y-69661904D02*
X69007200Y-69709523D01*
X69007200Y-69709523D02*
X69054819Y-69804761D01*
X69054819Y-69804761D02*
X69054819Y-69899999D01*
X69054819Y-69899999D02*
X69007200Y-69995237D01*
X69007200Y-69995237D02*
X68959580Y-70042856D01*
X68959580Y-70042856D02*
X68864342Y-70090475D01*
X68864342Y-70090475D02*
X68673866Y-70138094D01*
X68673866Y-70138094D02*
X68435771Y-70138094D01*
X68435771Y-70138094D02*
X68245295Y-70090475D01*
X68245295Y-70090475D02*
X68150057Y-70042856D01*
X68150057Y-70042856D02*
X68102438Y-69995237D01*
X68102438Y-69995237D02*
X68054819Y-69899999D01*
X68150057Y-69185713D02*
X68102438Y-69138094D01*
X68102438Y-69138094D02*
X68054819Y-69042856D01*
X68054819Y-69042856D02*
X68054819Y-68804761D01*
X68054819Y-68804761D02*
X68102438Y-68709523D01*
X68102438Y-68709523D02*
X68150057Y-68661904D01*
X68150057Y-68661904D02*
X68245295Y-68614285D01*
X68245295Y-68614285D02*
X68340533Y-68614285D01*
X68340533Y-68614285D02*
X68483390Y-68661904D01*
X68483390Y-68661904D02*
X69054819Y-69233332D01*
X69054819Y-69233332D02*
X69054819Y-68614285D01*
X69150057Y-68423809D02*
X69150057Y-67661904D01*
X69054819Y-67423808D02*
X68054819Y-67423808D01*
X68054819Y-67423808D02*
X68054819Y-67042856D01*
X68054819Y-67042856D02*
X68102438Y-66947618D01*
X68102438Y-66947618D02*
X68150057Y-66899999D01*
X68150057Y-66899999D02*
X68245295Y-66852380D01*
X68245295Y-66852380D02*
X68388152Y-66852380D01*
X68388152Y-66852380D02*
X68483390Y-66899999D01*
X68483390Y-66899999D02*
X68531009Y-66947618D01*
X68531009Y-66947618D02*
X68578628Y-67042856D01*
X68578628Y-67042856D02*
X68578628Y-67423808D01*
X69054819Y-66423808D02*
X68388152Y-66423808D01*
X68054819Y-66423808D02*
X68102438Y-66471427D01*
X68102438Y-66471427D02*
X68150057Y-66423808D01*
X68150057Y-66423808D02*
X68102438Y-66376189D01*
X68102438Y-66376189D02*
X68054819Y-66423808D01*
X68054819Y-66423808D02*
X68150057Y-66423808D01*
X68388152Y-65947618D02*
X69054819Y-65947618D01*
X68483390Y-65947618D02*
X68435771Y-65899999D01*
X68435771Y-65899999D02*
X68388152Y-65804761D01*
X68388152Y-65804761D02*
X68388152Y-65661904D01*
X68388152Y-65661904D02*
X68435771Y-65566666D01*
X68435771Y-65566666D02*
X68531009Y-65519047D01*
X68531009Y-65519047D02*
X69054819Y-65519047D01*
X75871665Y-70854819D02*
X75871665Y-71569104D01*
X75871665Y-71569104D02*
X75824046Y-71711961D01*
X75824046Y-71711961D02*
X75728808Y-71807200D01*
X75728808Y-71807200D02*
X75585951Y-71854819D01*
X75585951Y-71854819D02*
X75490713Y-71854819D01*
X76300237Y-70950057D02*
X76347856Y-70902438D01*
X76347856Y-70902438D02*
X76443094Y-70854819D01*
X76443094Y-70854819D02*
X76681189Y-70854819D01*
X76681189Y-70854819D02*
X76776427Y-70902438D01*
X76776427Y-70902438D02*
X76824046Y-70950057D01*
X76824046Y-70950057D02*
X76871665Y-71045295D01*
X76871665Y-71045295D02*
X76871665Y-71140533D01*
X76871665Y-71140533D02*
X76824046Y-71283390D01*
X76824046Y-71283390D02*
X76252618Y-71854819D01*
X76252618Y-71854819D02*
X76871665Y-71854819D01*
X82238095Y-88454819D02*
X82238095Y-87454819D01*
X82809523Y-88454819D02*
X82380952Y-87883390D01*
X82809523Y-87454819D02*
X82238095Y-88026247D01*
D12*
%TO.C,U1*%
X149150000Y-87615000D02*
X168470000Y-87615000D01*
X149150000Y-93965000D02*
X149150000Y-87615000D01*
X168470000Y-87615000D02*
X169470000Y-88615000D01*
X169470000Y-88615000D02*
X169470000Y-93965000D01*
X169470000Y-93965000D02*
X149150000Y-93965000D01*
%TO.C,RV1*%
X102120000Y-80350000D02*
X102120000Y-88450000D01*
X102120000Y-88450000D02*
X109120000Y-88450000D01*
X107140000Y-85891000D02*
X104021000Y-85890000D01*
X107140000Y-85891000D02*
X104021000Y-85890000D01*
X109120000Y-80350000D02*
X102120000Y-80350000D01*
X109120000Y-88450000D02*
X109120000Y-80350000D01*
X107155000Y-85891000D02*
G75*
G02*
X104005000Y-85891000I-1575000J0D01*
G01*
X104005000Y-85891000D02*
G75*
G02*
X107155000Y-85891000I1575000J0D01*
G01*
%TO.C,R4*%
X114870000Y-67160000D02*
X114870000Y-73460000D01*
X114870000Y-73460000D02*
X117370000Y-73460000D01*
X116120000Y-66500000D02*
X116120000Y-67160000D01*
X116120000Y-74120000D02*
X116120000Y-73460000D01*
X117370000Y-67160000D02*
X114870000Y-67160000D01*
X117370000Y-73460000D02*
X117370000Y-67160000D01*
%TO.C,D3*%
X114320000Y-78620000D02*
X114320000Y-86220000D01*
X114320000Y-84980000D02*
X117920000Y-84980000D01*
X114320000Y-85080000D02*
X117920000Y-85080000D01*
X114320000Y-85180000D02*
X117920000Y-85180000D01*
X114320000Y-86220000D02*
X117920000Y-86220000D01*
X116120000Y-77340000D02*
X116120000Y-78620000D01*
X116120000Y-87500000D02*
X116120000Y-86220000D01*
X117920000Y-78620000D02*
X114320000Y-78620000D01*
X117920000Y-86220000D02*
X117920000Y-78620000D01*
%TO.C,C13*%
X235350000Y-81350000D02*
X235350000Y-83850000D01*
X235350000Y-83850000D02*
X240050000Y-83850000D01*
X240050000Y-81350000D02*
X235350000Y-81350000D01*
X240050000Y-83850000D02*
X240050000Y-81350000D01*
%TO.C,C10*%
X193354416Y-101377817D02*
X195122183Y-103145584D01*
X195122183Y-103145584D02*
X198445584Y-99822182D01*
X196677818Y-98054416D02*
X193354416Y-101377817D01*
X198445584Y-99822182D02*
X196677818Y-98054416D01*
%TO.C,R2*%
X110870000Y-67160000D02*
X110870000Y-73460000D01*
X110870000Y-73460000D02*
X113370000Y-73460000D01*
X112120000Y-66500000D02*
X112120000Y-67160000D01*
X112120000Y-74120000D02*
X112120000Y-73460000D01*
X113370000Y-67160000D02*
X110870000Y-67160000D01*
X113370000Y-73460000D02*
X113370000Y-67160000D01*
%TO.C,L1*%
X96470000Y-66500000D02*
G75*
G02*
X87770000Y-66500000I-4350000J0D01*
G01*
X87770000Y-66500000D02*
G75*
G02*
X96470000Y-66500000I4350000J0D01*
G01*
%TO.C,C5*%
X84493500Y-65056028D02*
X84493500Y-65686028D01*
X84808500Y-65371028D02*
X84178500Y-65371028D01*
X86270000Y-67750000D02*
G75*
G02*
X79970000Y-67750000I-3150000J0D01*
G01*
X79970000Y-67750000D02*
G75*
G02*
X86270000Y-67750000I3150000J0D01*
G01*
%TO.C,BT1*%
X169178399Y-67778800D02*
X170041999Y-68718600D01*
X173999999Y-87850000D02*
X173999999Y-93050000D01*
X174399999Y-93450000D02*
X179399999Y-93450000D01*
X175599999Y-75150000D02*
X175599999Y-91350000D01*
X175599999Y-91350000D02*
X178199999Y-91350000D01*
X178199999Y-91350000D02*
X178199999Y-75150000D01*
X179799999Y-93050000D02*
X179799999Y-87850000D01*
X184621599Y-67778800D02*
X183783399Y-68693200D01*
X173399999Y-87000000D02*
G75*
G02*
X174000001Y-87850000I-302080J-850000D01*
G01*
X173399999Y-87000000D02*
G75*
G02*
X176899999Y-64749702I3499962J10849878D01*
G01*
X174399999Y-93450000D02*
G75*
G02*
X173999999Y-93050000I-1J399999D01*
G01*
X175599999Y-66150000D02*
G75*
G02*
X178199999Y-86150000I1300000J-10000000D01*
G01*
X175599999Y-75150000D02*
G75*
G02*
X178199999Y-75150000I1300000J0D01*
G01*
X175599999Y-78050000D02*
G75*
G02*
X177075832Y-73854552I1300000J1900000D01*
G01*
X175599999Y-82350000D02*
G75*
G02*
X176899999Y-69820000I1297426J6197829D01*
G01*
X175599999Y-86150000D02*
G75*
G02*
X178199999Y-66150000I1300000J10000000D01*
G01*
X176724166Y-73854552D02*
G75*
G02*
X178199999Y-78050000I175833J-2295448D01*
G01*
X176899999Y-64749701D02*
G75*
G02*
X180399999Y-87000001I38J-11400421D01*
G01*
X176899999Y-69820000D02*
G75*
G02*
X178199999Y-82349999I2572J-6332171D01*
G01*
X179799999Y-87850000D02*
G75*
G02*
X180399995Y-86999990I902100J0D01*
G01*
X179799999Y-93050000D02*
G75*
G02*
X179399999Y-93450000I-399999J-1D01*
G01*
%TO.C,C2*%
X74470000Y-81200000D02*
X74470000Y-83800000D01*
X74470000Y-83800000D02*
X78270000Y-83800000D01*
X78270000Y-81200000D02*
X74470000Y-81200000D01*
X78270000Y-83800000D02*
X78270000Y-81200000D01*
%TO.C,R14*%
X206750000Y-106540000D02*
X206750000Y-112840000D01*
X206750000Y-112840000D02*
X209250000Y-112840000D01*
X208000000Y-105880000D02*
X208000000Y-106540000D01*
X208000000Y-113500000D02*
X208000000Y-112840000D01*
X209250000Y-106540000D02*
X206750000Y-106540000D01*
X209250000Y-112840000D02*
X209250000Y-106540000D01*
D10*
%TO.C,U3*%
X124928932Y-90146625D02*
X132000000Y-83075557D01*
X132000000Y-83075557D02*
X138363961Y-89439518D01*
X132000000Y-97217693D02*
X124928932Y-90146625D01*
X138363961Y-89439518D02*
X138363961Y-90853732D01*
X138363961Y-90853732D02*
X132000000Y-97217693D01*
D12*
%TO.C,R19*%
X232580000Y-72100000D02*
X233240000Y-72100000D01*
X233240000Y-70850000D02*
X233240000Y-73350000D01*
X233240000Y-73350000D02*
X239540000Y-73350000D01*
X239540000Y-70850000D02*
X233240000Y-70850000D01*
X239540000Y-73350000D02*
X239540000Y-70850000D01*
X240200000Y-72100000D02*
X239540000Y-72100000D01*
%TO.C,R6*%
X163750000Y-106540000D02*
X163750000Y-112840000D01*
X163750000Y-112840000D02*
X166250000Y-112840000D01*
X165000000Y-105880000D02*
X165000000Y-106540000D01*
X165000000Y-113500000D02*
X165000000Y-112840000D01*
X166250000Y-106540000D02*
X163750000Y-106540000D01*
X166250000Y-112840000D02*
X166250000Y-106540000D01*
%TO.C,U6*%
X190310000Y-71235000D02*
X224870000Y-71235000D01*
X190310000Y-77584999D02*
X190310000Y-71235000D01*
X224870000Y-71235000D02*
X225870000Y-72235000D01*
X225870000Y-72235000D02*
X225870000Y-77584999D01*
X225870000Y-77584999D02*
X190310000Y-77584999D01*
%TO.C,R23*%
X251250000Y-89699500D02*
X251910000Y-89699500D01*
X251910000Y-88449500D02*
X251910000Y-90949500D01*
X251910000Y-90949500D02*
X258210000Y-90949500D01*
X258210000Y-88449500D02*
X251910000Y-88449500D01*
X258210000Y-90949500D02*
X258210000Y-88449500D01*
X258870000Y-89699500D02*
X258210000Y-89699500D01*
%TO.C,R1*%
X75000000Y-90000000D02*
X75660000Y-90000000D01*
X75660000Y-88750000D02*
X75660000Y-91250000D01*
X75660000Y-91250000D02*
X81960000Y-91250000D01*
X81960000Y-88750000D02*
X75660000Y-88750000D01*
X81960000Y-91250000D02*
X81960000Y-88750000D01*
X82620000Y-90000000D02*
X81960000Y-90000000D01*
%TO.C,U7*%
X158050000Y-73925000D02*
X159025000Y-72950000D01*
X158050000Y-77850000D02*
X158050000Y-73925000D01*
X159025000Y-72950000D02*
X161950000Y-72950000D01*
X161950000Y-72950000D02*
X161950000Y-77850000D01*
X161950000Y-77850000D02*
X158050000Y-77850000D01*
%TO.C,R16*%
X232580000Y-75600000D02*
X233240000Y-75600000D01*
X233240000Y-74350000D02*
X233240000Y-76850000D01*
X233240000Y-76850000D02*
X239540000Y-76850000D01*
X239540000Y-74350000D02*
X233240000Y-74350000D01*
X239540000Y-76850000D02*
X239540000Y-74350000D01*
X240200000Y-75600000D02*
X239540000Y-75600000D01*
%TO.C,Q1*%
X84370000Y-85500000D02*
X84370000Y-89000000D01*
X84366375Y-85516375D02*
G75*
G02*
X88600000Y-87270000I1753625J-1753625D01*
G01*
X88600000Y-87270000D02*
G75*
G02*
X84366375Y-89023625I-2480000J0D01*
G01*
%TO.C,R8*%
X97750000Y-98850000D02*
X97750000Y-105150000D01*
X97750000Y-105150000D02*
X100250000Y-105150000D01*
X99000000Y-98190000D02*
X99000000Y-98850000D01*
X99000000Y-105810000D02*
X99000000Y-105150000D01*
X100250000Y-98850000D02*
X97750000Y-98850000D01*
X100250000Y-105150000D02*
X100250000Y-98850000D01*
%TO.C,C11*%
X227530000Y-71750000D02*
X227530000Y-76450000D01*
X227530000Y-76450000D02*
X230030000Y-76450000D01*
X230030000Y-71750000D02*
X227530000Y-71750000D01*
X230030000Y-76450000D02*
X230030000Y-71750000D01*
%TO.C,R7*%
X233750000Y-98850000D02*
X233750000Y-105150000D01*
X233750000Y-105150000D02*
X236250000Y-105150000D01*
X235000000Y-98190000D02*
X235000000Y-98850000D01*
X235000000Y-105810000D02*
X235000000Y-105150000D01*
X236250000Y-98850000D02*
X233750000Y-98850000D01*
X236250000Y-105150000D02*
X236250000Y-98850000D01*
D10*
%TO.C,U5*%
X194928932Y-90000000D02*
X202000000Y-82928932D01*
X202000000Y-82928932D02*
X208363961Y-89292893D01*
X202000000Y-97071068D02*
X194928932Y-90000000D01*
X208363961Y-89292893D02*
X208363961Y-90707107D01*
X208363961Y-90707107D02*
X202000000Y-97071068D01*
D12*
%TO.C,U2*%
X80635000Y-74730000D02*
X81635000Y-73730000D01*
X80635000Y-83890000D02*
X80635000Y-74730000D01*
X81635000Y-73730000D02*
X86985000Y-73730000D01*
X86985000Y-73730000D02*
X86985000Y-83890000D01*
X86985000Y-83890000D02*
X80635000Y-83890000D01*
%TO.C,R18*%
X232700000Y-86100000D02*
X233360000Y-86100000D01*
X233360000Y-84850000D02*
X233360000Y-87350000D01*
X233360000Y-87350000D02*
X239660000Y-87350000D01*
X239660000Y-84850000D02*
X233360000Y-84850000D01*
X239660000Y-87350000D02*
X239660000Y-84850000D01*
X240320000Y-86100000D02*
X239660000Y-86100000D01*
%TO.C,C12*%
X235350000Y-77850000D02*
X235350000Y-80350000D01*
X235350000Y-80350000D02*
X240050000Y-80350000D01*
X240050000Y-77850000D02*
X235350000Y-77850000D01*
X240050000Y-80350000D02*
X240050000Y-77850000D01*
%TO.C,C15*%
X257150000Y-93150000D02*
X257150000Y-97850000D01*
X257150000Y-97850000D02*
X259650000Y-97850000D01*
X259650000Y-93150000D02*
X257150000Y-93150000D01*
X259650000Y-97850000D02*
X259650000Y-93150000D01*
%TO.C,R3*%
X110870000Y-77850000D02*
X110870000Y-84150000D01*
X110870000Y-84150000D02*
X113370000Y-84150000D01*
X112120000Y-77190000D02*
X112120000Y-77850000D01*
X112120000Y-84810000D02*
X112120000Y-84150000D01*
X113370000Y-77850000D02*
X110870000Y-77850000D01*
X113370000Y-84150000D02*
X113370000Y-77850000D01*
%TO.C,C7*%
X141750000Y-70750000D02*
X141750000Y-73250000D01*
X141750000Y-73250000D02*
X146450000Y-73250000D01*
X146450000Y-70750000D02*
X141750000Y-70750000D01*
X146450000Y-73250000D02*
X146450000Y-70750000D01*
%TO.C,R10*%
X237750000Y-98850000D02*
X237750000Y-105150000D01*
X237750000Y-105150000D02*
X240250000Y-105150000D01*
X239000000Y-98190000D02*
X239000000Y-98850000D01*
X239000000Y-105810000D02*
X239000000Y-105150000D01*
X240250000Y-98850000D02*
X237750000Y-98850000D01*
X240250000Y-105150000D02*
X240250000Y-98850000D01*
%TO.C,C3*%
X123286649Y-101645584D02*
X125054416Y-103413351D01*
X125054416Y-103413351D02*
X128377817Y-100089949D01*
X126610051Y-98322183D02*
X123286649Y-101645584D01*
X128377817Y-100089949D02*
X126610051Y-98322183D01*
%TO.C,Q2*%
X89620000Y-78580000D02*
X99620000Y-78580000D01*
X89620000Y-87830000D02*
X89620000Y-78580000D01*
X89620000Y-87830000D02*
X99620000Y-87830000D01*
X89620000Y-94230000D02*
X89620000Y-87830000D01*
X92080000Y-78580000D02*
X92080000Y-74770000D01*
X94620000Y-78580000D02*
X94620000Y-74770000D01*
X97160000Y-78580000D02*
X97160000Y-74770000D01*
X99620000Y-78580000D02*
X99620000Y-87830000D01*
X99620000Y-87830000D02*
X89620000Y-87830000D01*
X99620000Y-87830000D02*
X99620000Y-94230000D01*
X99620000Y-94230000D02*
X89620000Y-94230000D01*
X96470000Y-91430000D02*
G75*
G02*
X92770000Y-91430000I-1850000J0D01*
G01*
X92770000Y-91430000D02*
G75*
G02*
X96470000Y-91430000I1850000J0D01*
G01*
%TO.C,R5*%
X94550000Y-98850000D02*
X94550000Y-105150000D01*
X94550000Y-105150000D02*
X97050000Y-105150000D01*
X95800000Y-98190000D02*
X95800000Y-98850000D01*
X95800000Y-105810000D02*
X95800000Y-105150000D01*
X97050000Y-98850000D02*
X94550000Y-98850000D01*
X97050000Y-105150000D02*
X97050000Y-98850000D01*
%TO.C,R13*%
X136750000Y-106540000D02*
X136750000Y-112840000D01*
X136750000Y-112840000D02*
X139250000Y-112840000D01*
X138000000Y-105880000D02*
X138000000Y-106540000D01*
X138000000Y-113500000D02*
X138000000Y-112840000D01*
X139250000Y-106540000D02*
X136750000Y-106540000D01*
X139250000Y-112840000D02*
X139250000Y-106540000D01*
%TO.C,C9*%
X107367500Y-70323241D02*
X107367500Y-71123241D01*
X107767500Y-70723241D02*
X106967500Y-70723241D01*
X109620000Y-73750000D02*
G75*
G02*
X101620000Y-73750000I-4000000J0D01*
G01*
X101620000Y-73750000D02*
G75*
G02*
X109620000Y-73750000I4000000J0D01*
G01*
%TO.C,R17*%
X154905000Y-67305000D02*
X155565000Y-67305000D01*
X155565000Y-66055000D02*
X155565000Y-68555000D01*
X155565000Y-68555000D02*
X161865000Y-68555000D01*
X161865000Y-66055000D02*
X155565000Y-66055000D01*
X161865000Y-68555000D02*
X161865000Y-66055000D01*
X162525000Y-67305000D02*
X161865000Y-67305000D01*
%TO.C,R11*%
X124750000Y-106540000D02*
X124750000Y-112840000D01*
X124750000Y-112840000D02*
X127250000Y-112840000D01*
X126000000Y-105880000D02*
X126000000Y-106540000D01*
X126000000Y-113500000D02*
X126000000Y-112840000D01*
X127250000Y-106540000D02*
X124750000Y-106540000D01*
X127250000Y-112840000D02*
X127250000Y-106540000D01*
%TO.C,U4*%
X119170000Y-69400000D02*
X125570000Y-69400000D01*
X119170000Y-79400000D02*
X119170000Y-69400000D01*
X125570000Y-69400000D02*
X125570000Y-79400000D01*
X125570000Y-69400000D02*
X134820000Y-69400000D01*
X125570000Y-79400000D02*
X119170000Y-79400000D01*
X125570000Y-79400000D02*
X125570000Y-69400000D01*
X134820000Y-69400000D02*
X134820000Y-79400000D01*
X134820000Y-71860000D02*
X138630000Y-71860000D01*
X134820000Y-74400000D02*
X138630000Y-74400000D01*
X134820000Y-76940000D02*
X138630000Y-76940000D01*
X134820000Y-79400000D02*
X125570000Y-79400000D01*
X123820000Y-74400000D02*
G75*
G02*
X120120000Y-74400000I-1850000J0D01*
G01*
X120120000Y-74400000D02*
G75*
G02*
X123820000Y-74400000I1850000J0D01*
G01*
%TO.C,R12*%
X194750000Y-106540000D02*
X194750000Y-112840000D01*
X194750000Y-112840000D02*
X197250000Y-112840000D01*
X196000000Y-105880000D02*
X196000000Y-106540000D01*
X196000000Y-113500000D02*
X196000000Y-112840000D01*
X197250000Y-106540000D02*
X194750000Y-106540000D01*
X197250000Y-112840000D02*
X197250000Y-106540000D01*
%TO.C,D2*%
X99120000Y-66500000D02*
X100330000Y-66500000D01*
X100330000Y-65150000D02*
X100330000Y-67850000D01*
X100330000Y-67850000D02*
X105530000Y-67850000D01*
X104650000Y-67850000D02*
X104650000Y-65150000D01*
X104750000Y-67850000D02*
X104750000Y-65150000D01*
X104850000Y-67850000D02*
X104850000Y-65150000D01*
X105530000Y-65150000D02*
X100330000Y-65150000D01*
X105530000Y-67850000D02*
X105530000Y-65150000D01*
X106740000Y-66500000D02*
X105530000Y-66500000D01*
%TO.C,R15*%
X154905000Y-70305000D02*
X155565000Y-70305000D01*
X155565000Y-69055000D02*
X155565000Y-71555000D01*
X155565000Y-71555000D02*
X161865000Y-71555000D01*
X161865000Y-69055000D02*
X155565000Y-69055000D01*
X161865000Y-71555000D02*
X161865000Y-69055000D01*
X162525000Y-70305000D02*
X161865000Y-70305000D01*
%TO.C,SW1*%
X245200000Y-73400000D02*
X257200000Y-73400000D01*
X245200000Y-85200000D02*
X245200000Y-73400000D01*
X257200000Y-73400000D02*
X257200000Y-85200000D01*
X257200000Y-85200000D02*
X245200000Y-85200000D01*
%TO.C,J2*%
X73665000Y-70130000D02*
X78110000Y-70130000D01*
X73665000Y-72670000D02*
X73665000Y-70130000D01*
X78110000Y-70130000D02*
X78745000Y-70765000D01*
X78745000Y-70765000D02*
X78745000Y-72670000D01*
X78745000Y-72670000D02*
X73665000Y-72670000D01*
%TO.C,R21*%
X241030000Y-89699500D02*
X241690000Y-89699500D01*
X241690000Y-88449500D02*
X241690000Y-90949500D01*
X241690000Y-90949500D02*
X247990000Y-90949500D01*
X247990000Y-88449500D02*
X241690000Y-88449500D01*
X247990000Y-90949500D02*
X247990000Y-88449500D01*
X248650000Y-89699500D02*
X247990000Y-89699500D01*
%TO.C,C8*%
X163250001Y-96250000D02*
X163250001Y-98750000D01*
X163250001Y-98750000D02*
X167950000Y-98749999D01*
X167950000Y-96250001D02*
X163250001Y-96250000D01*
X167950000Y-98749999D02*
X167950000Y-96250001D01*
%TO.C,C14*%
X150275000Y-67455000D02*
X150275000Y-72155000D01*
X150275000Y-72155000D02*
X152775000Y-72155000D01*
X152775000Y-67455000D02*
X150275000Y-67455000D01*
X152775000Y-72155000D02*
X152775000Y-67455000D01*
%TO.C,C6*%
X159850001Y-82350000D02*
X159850001Y-84850000D01*
X159850001Y-84850000D02*
X164550000Y-84849999D01*
X164550000Y-82350001D02*
X159850001Y-82350000D01*
X164550000Y-84849999D02*
X164550000Y-82350001D01*
%TO.C,R9*%
X167750000Y-106540000D02*
X167750000Y-112840000D01*
X167750000Y-112840000D02*
X170250000Y-112840000D01*
X169000000Y-105880000D02*
X169000000Y-106540000D01*
X169000000Y-113500000D02*
X169000000Y-112840000D01*
X170250000Y-106540000D02*
X167750000Y-106540000D01*
X170250000Y-112840000D02*
X170250000Y-106540000D01*
%TO.C,D1*%
X75000000Y-86000000D02*
X76810000Y-86000000D01*
X76810000Y-85000000D02*
X76810000Y-87000000D01*
X76810000Y-87000000D02*
X80810000Y-87000000D01*
X80110000Y-87000000D02*
X80110000Y-85000000D01*
X80210000Y-87000000D02*
X80210000Y-85000000D01*
X80310000Y-87000000D02*
X80310000Y-85000000D01*
X80810000Y-85000000D02*
X76810000Y-85000000D01*
X80810000Y-87000000D02*
X80810000Y-85000000D01*
X82620000Y-86000000D02*
X80810000Y-86000000D01*
%TO.C,R22*%
X150275000Y-75345000D02*
X150275000Y-81645000D01*
X150275000Y-81645000D02*
X152775000Y-81645000D01*
X151525000Y-74685000D02*
X151525000Y-75345000D01*
X151525000Y-82305000D02*
X151525000Y-81645000D01*
X152775000Y-75345000D02*
X150275000Y-75345000D01*
X152775000Y-81645000D02*
X152775000Y-75345000D01*
%TO.C,C4*%
X141750000Y-75750000D02*
X141750000Y-78250000D01*
X141750000Y-78250000D02*
X146450000Y-78250000D01*
X146450000Y-75750000D02*
X141750000Y-75750000D01*
X146450000Y-78250000D02*
X146450000Y-75750000D01*
%TO.C,R20*%
X230930000Y-89699500D02*
X231590000Y-89699500D01*
X231590000Y-88449500D02*
X231590000Y-90949500D01*
X231590000Y-90949500D02*
X237890000Y-90949500D01*
X237890000Y-88449500D02*
X231590000Y-88449500D01*
X237890000Y-90949500D02*
X237890000Y-88449500D01*
X238550000Y-89699500D02*
X237890000Y-89699500D01*
%TO.C,C1*%
X75870000Y-74650000D02*
X75870000Y-79350000D01*
X75870000Y-79350000D02*
X78370000Y-79350000D01*
X78370000Y-74650000D02*
X75870000Y-74650000D01*
X78370000Y-79350000D02*
X78370000Y-74650000D01*
%TD*%
M02*
