%TF.GenerationSoftware,KiCad,Pcbnew,8.0.4+1*%
%TF.CreationDate,2024-10-13T09:49:30+00:00*%
%TF.ProjectId,nixie,6e697869-652e-46b6-9963-61645f706362,v1.0*%
%TF.SameCoordinates,Original*%
%TF.FileFunction,Other,User*%
%FSLAX46Y46*%
G04 Gerber Fmt 4.6, Leading zero omitted, Abs format (unit mm)*
G04 Created by KiCad (PCBNEW 8.0.4+1) date 2024-10-13 09:49:30*
%MOMM*%
%LPD*%
G01*
G04 APERTURE LIST*
%ADD10C,0.050000*%
%ADD11C,0.100000*%
G04 APERTURE END LIST*
D10*
%TO.C,U1*%
X148900000Y-85880000D02*
X148900000Y-95680000D01*
X148900000Y-95680000D02*
X169750000Y-95680000D01*
X169750000Y-85880000D02*
X148900000Y-85880000D01*
X169750000Y-95680000D02*
X169750000Y-85880000D01*
%TO.C,RV1*%
X101720000Y-79950000D02*
X101720000Y-88850000D01*
X101720000Y-88850000D02*
X109520000Y-88850000D01*
X109520000Y-79950000D02*
X101720000Y-79950000D01*
X109520000Y-88850000D02*
X109520000Y-79950000D01*
%TO.C,R4*%
X114620000Y-65450000D02*
X114620000Y-75170000D01*
X114620000Y-75170000D02*
X117620000Y-75170000D01*
X117620000Y-65450000D02*
X114620000Y-65450000D01*
X117620000Y-75170000D02*
X117620000Y-65450000D01*
%TO.C,D3*%
X114070000Y-75890000D02*
X114070000Y-88950000D01*
X114070000Y-88950000D02*
X118170000Y-88950000D01*
X118170000Y-75890000D02*
X114070000Y-75890000D01*
X118170000Y-88950000D02*
X118170000Y-75890000D01*
%TO.C,C13*%
X234150000Y-81100000D02*
X234150000Y-84100000D01*
X234150000Y-84100000D02*
X241250000Y-84100000D01*
X241250000Y-81100000D02*
X234150000Y-81100000D01*
X241250000Y-84100000D02*
X241250000Y-81100000D01*
%TO.C,C10*%
X192329111Y-102049569D02*
X194450431Y-104170889D01*
X194450431Y-104170889D02*
X199470889Y-99150431D01*
X197349569Y-97029111D02*
X192329111Y-102049569D01*
X199470889Y-99150431D02*
X197349569Y-97029111D01*
%TO.C,R2*%
X110620000Y-65450000D02*
X110620000Y-75170000D01*
X110620000Y-75170000D02*
X113620000Y-75170000D01*
X113620000Y-65450000D02*
X110620000Y-65450000D01*
X113620000Y-75170000D02*
X113620000Y-65450000D01*
%TO.C,L1*%
X96720000Y-66500000D02*
G75*
G02*
X87520000Y-66500000I-4600000J0D01*
G01*
X87520000Y-66500000D02*
G75*
G02*
X96720000Y-66500000I4600000J0D01*
G01*
%TO.C,C5*%
X86520000Y-67750000D02*
G75*
G02*
X79720000Y-67750000I-3400000J0D01*
G01*
X79720000Y-67750000D02*
G75*
G02*
X86520000Y-67750000I3400000J0D01*
G01*
%TO.C,BT1*%
X173649999Y-93800001D02*
X173649999Y-87850000D01*
X180149999Y-93800001D02*
X173649999Y-93800001D01*
X180149999Y-93800001D02*
X180149999Y-87850000D01*
X173299999Y-87340000D02*
G75*
G02*
X173650000Y-87850000I-196570J-510000D01*
G01*
X173299999Y-87340000D02*
G75*
G02*
X176899999Y-64400000I3596157J11188127D01*
G01*
X176899999Y-64400000D02*
G75*
G02*
X180499999Y-87340001I3845J-11751873D01*
G01*
X180149999Y-87850000D02*
G75*
G02*
X180499999Y-87340000I546630J-40D01*
G01*
%TO.C,C2*%
X74070000Y-80950000D02*
X74070000Y-84050000D01*
X74070000Y-84050000D02*
X78670000Y-84050000D01*
X78670000Y-80950000D02*
X74070000Y-80950000D01*
X78670000Y-84050000D02*
X78670000Y-80950000D01*
%TO.C,R14*%
X206500000Y-104830000D02*
X206500000Y-114550000D01*
X206500000Y-114550000D02*
X209500000Y-114550000D01*
X209500000Y-104830000D02*
X206500000Y-104830000D01*
X209500000Y-114550000D02*
X209500000Y-104830000D01*
%TO.C,U3*%
X132000000Y-80176419D02*
X122029794Y-90146625D01*
X132000000Y-100116831D02*
X122029794Y-90146625D01*
X141970206Y-90146625D02*
X132000000Y-80176419D01*
X141970206Y-90146625D02*
X132000000Y-100116831D01*
%TO.C,R19*%
X231530000Y-70600000D02*
X231530000Y-73600000D01*
X231530000Y-73600000D02*
X241250000Y-73600000D01*
X241250000Y-70600000D02*
X231530000Y-70600000D01*
X241250000Y-73600000D02*
X241250000Y-70600000D01*
%TO.C,R6*%
X163500000Y-104830000D02*
X163500000Y-114550000D01*
X163500000Y-114550000D02*
X166500000Y-114550000D01*
X166500000Y-104830000D02*
X163500000Y-104830000D01*
X166500000Y-114550000D02*
X166500000Y-104830000D01*
%TO.C,U6*%
X190050000Y-69500000D02*
X190050000Y-79300000D01*
X190050000Y-79300000D02*
X226150001Y-79300000D01*
X226150000Y-69500000D02*
X190050000Y-69500000D01*
X226150001Y-79300000D02*
X226150000Y-69500000D01*
%TO.C,R23*%
X250200000Y-88199500D02*
X250200000Y-91199500D01*
X250200000Y-91199500D02*
X259920000Y-91199500D01*
X259920000Y-88199500D02*
X250200000Y-88199500D01*
X259920000Y-91199500D02*
X259920000Y-88199500D01*
%TO.C,R1*%
X73950000Y-88500000D02*
X73950000Y-91500000D01*
X73950000Y-91500000D02*
X83670000Y-91500000D01*
X83670000Y-88500000D02*
X73950000Y-88500000D01*
X83670000Y-91500000D02*
X83670000Y-88500000D01*
%TO.C,U7*%
X156300000Y-72700000D02*
X156300000Y-78100000D01*
X156300000Y-78100000D02*
X163700000Y-78100000D01*
X163700000Y-72700000D02*
X156300000Y-72700000D01*
X163700000Y-78100000D02*
X163700000Y-72700000D01*
%TO.C,R16*%
X231530000Y-74100000D02*
X231530000Y-77100000D01*
X231530000Y-77100000D02*
X241250000Y-77100000D01*
X241250000Y-74100000D02*
X231530000Y-74100000D01*
X241250000Y-77100000D02*
X241250000Y-74100000D01*
%TO.C,Q1*%
X84110000Y-90000000D02*
X84110000Y-84540000D01*
X84110000Y-90000000D02*
X88850000Y-90000000D01*
X88850000Y-84540000D02*
X84110000Y-84540000D01*
X88850000Y-84540000D02*
X88850000Y-90000000D01*
%TO.C,R8*%
X97500000Y-97140000D02*
X97500000Y-106860000D01*
X97500000Y-106860000D02*
X100500000Y-106860000D01*
X100500000Y-97140000D02*
X97500000Y-97140000D01*
X100500000Y-106860000D02*
X100500000Y-97140000D01*
%TO.C,C11*%
X227280000Y-70550000D02*
X227280000Y-77650000D01*
X227280000Y-77650000D02*
X230280000Y-77650000D01*
X230280000Y-70550000D02*
X227280000Y-70550000D01*
X230280000Y-77650000D02*
X230280000Y-70550000D01*
%TO.C,R7*%
X233500000Y-97140000D02*
X233500000Y-106860000D01*
X233500000Y-106860000D02*
X236500000Y-106860000D01*
X236500000Y-97140000D02*
X233500000Y-97140000D01*
X236500000Y-106860000D02*
X236500000Y-97140000D01*
%TO.C,U5*%
X202000000Y-80029794D02*
X192029794Y-90000000D01*
X202000000Y-99970206D02*
X192029794Y-90000000D01*
X211970206Y-90000000D02*
X202000000Y-80029794D01*
X211970206Y-90000000D02*
X202000000Y-99970206D01*
%TO.C,U2*%
X78900000Y-73450000D02*
X78900000Y-84150000D01*
X78900000Y-84150000D02*
X88700000Y-84150000D01*
X88700000Y-73450000D02*
X78900000Y-73450000D01*
X88700000Y-84150000D02*
X88700000Y-73450000D01*
%TO.C,R18*%
X231650000Y-84600000D02*
X231650000Y-87600000D01*
X231650000Y-87600000D02*
X241370000Y-87600000D01*
X241370000Y-84600000D02*
X231650000Y-84600000D01*
X241370000Y-87600000D02*
X241370000Y-84600000D01*
%TO.C,C12*%
X234150000Y-77600000D02*
X234150000Y-80600000D01*
X234150000Y-80600000D02*
X241250000Y-80600000D01*
X241250000Y-77600000D02*
X234150000Y-77600000D01*
X241250000Y-80600000D02*
X241250000Y-77600000D01*
%TO.C,C15*%
X256900000Y-91950000D02*
X256900000Y-99050000D01*
X256900000Y-99050000D02*
X259900000Y-99050000D01*
X259900000Y-91950000D02*
X256900000Y-91950000D01*
X259900000Y-99050000D02*
X259900000Y-91950000D01*
%TO.C,R3*%
X110620000Y-76140000D02*
X110620000Y-85860000D01*
X110620000Y-85860000D02*
X113620000Y-85860000D01*
X113620000Y-76140000D02*
X110620000Y-76140000D01*
X113620000Y-85860000D02*
X113620000Y-76140000D01*
%TO.C,C7*%
X140550000Y-70500000D02*
X140550000Y-73500000D01*
X140550000Y-73500000D02*
X147650000Y-73500000D01*
X147650000Y-70500000D02*
X140550000Y-70500000D01*
X147650000Y-73500000D02*
X147650000Y-70500000D01*
%TO.C,R10*%
X237500000Y-97140000D02*
X237500000Y-106860000D01*
X237500000Y-106860000D02*
X240500000Y-106860000D01*
X240500000Y-97140000D02*
X237500000Y-97140000D01*
X240500000Y-106860000D02*
X240500000Y-97140000D01*
%TO.C,H4*%
X100450000Y-111000000D02*
G75*
G02*
X93550000Y-111000000I-3450000J0D01*
G01*
X93550000Y-111000000D02*
G75*
G02*
X100450000Y-111000000I3450000J0D01*
G01*
%TO.C,C3*%
X122261344Y-102317336D02*
X124382664Y-104438656D01*
X124382664Y-104438656D02*
X129403122Y-99418198D01*
X127281802Y-97296878D02*
X122261344Y-102317336D01*
X129403122Y-99418198D02*
X127281802Y-97296878D01*
%TO.C,Q2*%
X89370000Y-73520000D02*
X89370000Y-94480000D01*
X89370000Y-94480000D02*
X99870000Y-94480000D01*
X99870000Y-73520000D02*
X89370000Y-73520000D01*
X99870000Y-94480000D02*
X99870000Y-73520000D01*
%TO.C,R5*%
X94300000Y-97140000D02*
X94300000Y-106860000D01*
X94300000Y-106860000D02*
X97300000Y-106860000D01*
X97300000Y-97140000D02*
X94300000Y-97140000D01*
X97300000Y-106860000D02*
X97300000Y-97140000D01*
%TO.C,R13*%
X136500000Y-104830000D02*
X136500000Y-114550000D01*
X136500000Y-114550000D02*
X139500000Y-114550000D01*
X139500000Y-104830000D02*
X136500000Y-104830000D01*
X139500000Y-114550000D02*
X139500000Y-104830000D01*
%TO.C,C9*%
X109870000Y-73750000D02*
G75*
G02*
X101370000Y-73750000I-4250000J0D01*
G01*
X101370000Y-73750000D02*
G75*
G02*
X109870000Y-73750000I4250000J0D01*
G01*
%TO.C,R17*%
X153855000Y-65805000D02*
X153855000Y-68805000D01*
X153855000Y-68805000D02*
X163575000Y-68805000D01*
X163575000Y-65805000D02*
X153855000Y-65805000D01*
X163575000Y-68805000D02*
X163575000Y-65805000D01*
%TO.C,R11*%
X124500000Y-104830000D02*
X124500000Y-114550000D01*
X124500000Y-114550000D02*
X127500000Y-114550000D01*
X127500000Y-104830000D02*
X124500000Y-104830000D01*
X127500000Y-114550000D02*
X127500000Y-104830000D01*
%TO.C,U4*%
X118920000Y-69150000D02*
X118920000Y-79650000D01*
X118920000Y-79650000D02*
X139880000Y-79650000D01*
X139880000Y-69150000D02*
X118920000Y-69150000D01*
X139880000Y-79650000D02*
X139880000Y-69150000D01*
%TO.C,H2*%
X260450000Y-65000000D02*
G75*
G02*
X253550000Y-65000000I-3450000J0D01*
G01*
X253550000Y-65000000D02*
G75*
G02*
X260450000Y-65000000I3450000J0D01*
G01*
%TO.C,H3*%
X240450000Y-111000000D02*
G75*
G02*
X233550000Y-111000000I-3450000J0D01*
G01*
X233550000Y-111000000D02*
G75*
G02*
X240450000Y-111000000I3450000J0D01*
G01*
%TO.C,H1*%
X79450000Y-65000000D02*
G75*
G02*
X72550000Y-65000000I-3450000J0D01*
G01*
X72550000Y-65000000D02*
G75*
G02*
X79450000Y-65000000I3450000J0D01*
G01*
%TO.C,R12*%
X194500000Y-104830000D02*
X194500000Y-114550000D01*
X194500000Y-114550000D02*
X197500000Y-114550000D01*
X197500000Y-104830000D02*
X194500000Y-104830000D01*
X197500000Y-114550000D02*
X197500000Y-104830000D01*
%TO.C,D2*%
X97770000Y-64900000D02*
X97770000Y-68100000D01*
X97770000Y-68100000D02*
X108090000Y-68100000D01*
X108090000Y-64900000D02*
X97770000Y-64900000D01*
X108090000Y-68100000D02*
X108090000Y-64900000D01*
%TO.C,R15*%
X153855000Y-68805000D02*
X153855000Y-71805000D01*
X153855000Y-71805000D02*
X163575000Y-71805000D01*
X163575000Y-68805000D02*
X153855000Y-68805000D01*
X163575000Y-71805000D02*
X163575000Y-68805000D01*
D11*
%TO.C,SW1*%
X241950000Y-70642000D02*
X259950000Y-70642000D01*
X241950000Y-87957000D02*
X241950000Y-70642000D01*
X259950000Y-70642000D02*
X259950000Y-87957000D01*
X259950000Y-87957000D02*
X241950000Y-87957000D01*
D10*
%TO.C,J2*%
X73125000Y-69600000D02*
X73125000Y-73200000D01*
X73125000Y-73200000D02*
X79275000Y-73200000D01*
X79275000Y-69600000D02*
X73125000Y-69600000D01*
X79275000Y-73200000D02*
X79275000Y-69600000D01*
%TO.C,R21*%
X239980000Y-88199500D02*
X239980000Y-91199500D01*
X239980000Y-91199500D02*
X249700000Y-91199500D01*
X249700000Y-88199500D02*
X239980000Y-88199500D01*
X249700000Y-91199500D02*
X249700000Y-88199500D01*
%TO.C,C8*%
X162050000Y-96000000D02*
X162050000Y-99000000D01*
X162050000Y-99000000D02*
X169150000Y-99000000D01*
X169150000Y-96000000D02*
X162050000Y-96000000D01*
X169150000Y-99000000D02*
X169150000Y-96000000D01*
%TO.C,C14*%
X150025000Y-66255000D02*
X150025000Y-73355000D01*
X150025000Y-73355000D02*
X153025000Y-73355000D01*
X153025000Y-66255000D02*
X150025000Y-66255000D01*
X153025000Y-73355000D02*
X153025000Y-66255000D01*
%TO.C,C6*%
X158650000Y-82100000D02*
X158650000Y-85100000D01*
X158650000Y-85100000D02*
X165750000Y-85100000D01*
X165750000Y-82100000D02*
X158650000Y-82100000D01*
X165750000Y-85100000D02*
X165750000Y-82100000D01*
%TO.C,R9*%
X167500000Y-104830000D02*
X167500000Y-114550000D01*
X167500000Y-114550000D02*
X170500000Y-114550000D01*
X170500000Y-104830000D02*
X167500000Y-104830000D01*
X170500000Y-114550000D02*
X170500000Y-104830000D01*
%TO.C,D1*%
X73950000Y-84750000D02*
X73950000Y-87250000D01*
X73950000Y-87250000D02*
X83670000Y-87250000D01*
X83670000Y-84750000D02*
X73950000Y-84750000D01*
X83670000Y-87250000D02*
X83670000Y-84750000D01*
%TO.C,R22*%
X150025000Y-73635000D02*
X150025000Y-83355000D01*
X150025000Y-83355000D02*
X153025000Y-83355000D01*
X153025000Y-73635000D02*
X150025000Y-73635000D01*
X153025000Y-83355000D02*
X153025000Y-73635000D01*
%TO.C,C4*%
X140550000Y-75500000D02*
X140550000Y-78500000D01*
X140550000Y-78500000D02*
X147650000Y-78500000D01*
X147650000Y-75500000D02*
X140550000Y-75500000D01*
X147650000Y-78500000D02*
X147650000Y-75500000D01*
%TO.C,R20*%
X229880000Y-88199500D02*
X229880000Y-91199500D01*
X229880000Y-91199500D02*
X239600000Y-91199500D01*
X239600000Y-88199500D02*
X229880000Y-88199500D01*
X239600000Y-91199500D02*
X239600000Y-88199500D01*
%TO.C,C1*%
X75620000Y-73450000D02*
X75620000Y-80550000D01*
X75620000Y-80550000D02*
X78620000Y-80550000D01*
X78620000Y-73450000D02*
X75620000Y-73450000D01*
X78620000Y-80550000D02*
X78620000Y-73450000D01*
%TD*%
M02*
