%TF.GenerationSoftware,KiCad,Pcbnew,8.0.4+1*%
%TF.CreationDate,2024-10-13T09:49:30+00:00*%
%TF.ProjectId,nixie,6e697869-652e-46b6-9963-61645f706362,v1.0*%
%TF.SameCoordinates,Original*%
%TF.FileFunction,Soldermask,Bot*%
%TF.FilePolarity,Negative*%
%FSLAX46Y46*%
G04 Gerber Fmt 4.6, Leading zero omitted, Abs format (unit mm)*
G04 Created by KiCad (PCBNEW 8.0.4+1) date 2024-10-13 09:49:30*
%MOMM*%
%LPD*%
G01*
G04 APERTURE LIST*
%ADD10R,1.600000X1.600000*%
%ADD11O,1.600000X1.600000*%
%ADD12C,1.700000*%
%ADD13C,1.600000*%
%ADD14R,2.400000X2.400000*%
%ADD15O,2.400000X2.400000*%
%ADD16C,1.346200*%
%ADD17C,2.600000*%
%ADD18R,2.000000X2.000000*%
%ADD19C,2.000000*%
%ADD20C,1.107440*%
%ADD21R,1.500000X1.050000*%
%ADD22O,1.500000X1.050000*%
%ADD23C,0.800000*%
%ADD24C,6.400000*%
%ADD25O,3.500000X3.500000*%
%ADD26R,1.905000X2.000000*%
%ADD27O,1.905000X2.000000*%
%ADD28R,2.000000X1.905000*%
%ADD29O,2.000000X1.905000*%
%ADD30R,2.200000X2.200000*%
%ADD31O,2.200000X2.200000*%
%ADD32C,3.915000*%
%ADD33C,1.500000*%
%ADD34R,1.700000X1.700000*%
%ADD35O,1.700000X1.700000*%
%ADD36R,2.600000X2.600000*%
G04 APERTURE END LIST*
D10*
%TO.C,U1*%
X168200000Y-86980000D03*
D11*
X165660000Y-86980000D03*
X163120000Y-86980000D03*
X160580000Y-86980000D03*
X158040000Y-86980000D03*
X155500000Y-86980000D03*
X152960000Y-86980000D03*
X150420000Y-86980000D03*
X150420000Y-94600000D03*
X152960000Y-94600000D03*
X155500000Y-94600000D03*
X158040000Y-94600000D03*
X160580000Y-94600000D03*
X163120000Y-94600000D03*
X165660000Y-94600000D03*
X168200000Y-94600000D03*
%TD*%
D12*
%TO.C,RV1*%
X108120000Y-85000000D03*
X105620000Y-82500000D03*
X103120000Y-85000000D03*
%TD*%
D13*
%TO.C,R4*%
X116120000Y-66500000D03*
D11*
X116120000Y-74120000D03*
%TD*%
D14*
%TO.C,D3*%
X116120000Y-87500000D03*
D15*
X116120000Y-77340000D03*
%TD*%
D16*
%TO.C,N1*%
X89092700Y-102984640D03*
X78907300Y-102984640D03*
X77855740Y-105755780D03*
X78213880Y-108694560D03*
X79895360Y-111132960D03*
X82519180Y-112509640D03*
X85480820Y-112509640D03*
X88104640Y-111132960D03*
X89786120Y-108694560D03*
X90144260Y-105755780D03*
X84000000Y-100312560D03*
X81124720Y-101021220D03*
X86875280Y-101021220D03*
%TD*%
D13*
%TO.C,C13*%
X235200000Y-82600000D03*
X240200000Y-82600000D03*
%TD*%
D16*
%TO.C,N4*%
X115092700Y-102984640D03*
X104907300Y-102984640D03*
X103855740Y-105755780D03*
X104213880Y-108694560D03*
X105895360Y-111132960D03*
X108519180Y-112509640D03*
X111480820Y-112509640D03*
X114104640Y-111132960D03*
X115786120Y-108694560D03*
X116144260Y-105755780D03*
X110000000Y-100312560D03*
X107124720Y-101021220D03*
X112875280Y-101021220D03*
%TD*%
D13*
%TO.C,C10*%
X197667767Y-98832233D03*
X194132233Y-102367767D03*
%TD*%
%TO.C,R2*%
X112120000Y-74120000D03*
D11*
X112120000Y-66500000D03*
%TD*%
D17*
%TO.C,L1*%
X89620000Y-66500000D03*
X94620000Y-66500000D03*
%TD*%
D10*
%TO.C,C5*%
X83120000Y-66500000D03*
D13*
X83120000Y-69000000D03*
%TD*%
D18*
%TO.C,BT1*%
X176899999Y-91350000D03*
D19*
X176899999Y-71349999D03*
%TD*%
D13*
%TO.C,C2*%
X77620000Y-82500000D03*
X75120000Y-82500000D03*
%TD*%
%TO.C,R14*%
X208000000Y-113500000D03*
D11*
X208000000Y-105880000D03*
%TD*%
D13*
%TO.C,R19*%
X232580000Y-72100000D03*
D11*
X240200000Y-72100000D03*
%TD*%
D13*
%TO.C,R6*%
X165000000Y-113500000D03*
D11*
X165000000Y-105880000D03*
%TD*%
D10*
%TO.C,U6*%
X224600000Y-70600000D03*
D11*
X222060000Y-70600000D03*
X219520001Y-70600000D03*
X216980000Y-70600000D03*
X214440000Y-70600000D03*
X211900000Y-70600000D03*
X209360000Y-70600000D03*
X206819999Y-70600000D03*
X204280000Y-70600000D03*
X201740000Y-70600000D03*
X199200000Y-70600000D03*
X196660001Y-70600000D03*
X194120000Y-70600000D03*
X191580000Y-70600000D03*
X191580000Y-78220000D03*
X194120000Y-78220000D03*
X196660000Y-78220000D03*
X199200000Y-78220000D03*
X201740000Y-78220000D03*
X204280000Y-78220000D03*
X206820000Y-78220000D03*
X209360000Y-78220000D03*
X211900000Y-78220000D03*
X214440000Y-78220000D03*
X216980000Y-78220000D03*
X219520000Y-78220000D03*
X222060000Y-78220000D03*
X224600000Y-78220000D03*
%TD*%
D13*
%TO.C,R23*%
X251250000Y-89699500D03*
D11*
X258870000Y-89699500D03*
%TD*%
D13*
%TO.C,R1*%
X82620000Y-90000000D03*
D11*
X75000000Y-90000000D03*
%TD*%
D20*
%TO.C,N7*%
X133587500Y-103500000D03*
X130412500Y-103500000D03*
%TD*%
D13*
%TO.C,R16*%
X232580000Y-75600000D03*
D11*
X240200000Y-75600000D03*
%TD*%
D21*
%TO.C,Q1*%
X86120000Y-86000000D03*
D22*
X86120000Y-87270000D03*
X86120000Y-88540000D03*
%TD*%
D13*
%TO.C,R8*%
X99000000Y-105810000D03*
D11*
X99000000Y-98190000D03*
%TD*%
D13*
%TO.C,C11*%
X228780000Y-76600000D03*
X228780000Y-71600000D03*
%TD*%
%TO.C,R7*%
X235000000Y-105810000D03*
D11*
X235000000Y-98190000D03*
%TD*%
D16*
%TO.C,N5*%
X185092700Y-102984640D03*
X174907300Y-102984640D03*
X173855740Y-105755780D03*
X174213880Y-108694560D03*
X175895360Y-111132960D03*
X178519180Y-112509640D03*
X181480820Y-112509640D03*
X184104640Y-111132960D03*
X185786120Y-108694560D03*
X186144260Y-105755780D03*
X180000000Y-100312560D03*
X177124720Y-101021220D03*
X182875280Y-101021220D03*
%TD*%
D10*
%TO.C,U2*%
X80000000Y-75000000D03*
D11*
X80000000Y-77540000D03*
X80000000Y-80080000D03*
X80000000Y-82620000D03*
X87620000Y-82620000D03*
X87620000Y-80080000D03*
X87620000Y-77540000D03*
X87620000Y-75000000D03*
%TD*%
D13*
%TO.C,R18*%
X232700000Y-86100000D03*
D11*
X240320000Y-86100000D03*
%TD*%
D13*
%TO.C,C12*%
X235200000Y-79100000D03*
X240200000Y-79100000D03*
%TD*%
D20*
%TO.C,N8*%
X203587500Y-103500000D03*
X200412500Y-103500000D03*
%TD*%
D13*
%TO.C,C15*%
X258400000Y-93000000D03*
X258400000Y-98000000D03*
%TD*%
%TO.C,R3*%
X112120000Y-84810000D03*
D11*
X112120000Y-77190000D03*
%TD*%
D13*
%TO.C,C7*%
X141600000Y-72000000D03*
X146600000Y-72000000D03*
%TD*%
%TO.C,R10*%
X239000000Y-105810000D03*
D11*
X239000000Y-98190000D03*
%TD*%
D16*
%TO.C,N3*%
X229092700Y-102984640D03*
X218907300Y-102984640D03*
X217855740Y-105755780D03*
X218213880Y-108694560D03*
X219895360Y-111132960D03*
X222519180Y-112509640D03*
X225480820Y-112509640D03*
X228104640Y-111132960D03*
X229786120Y-108694560D03*
X230144260Y-105755780D03*
X224000000Y-100312560D03*
X221124720Y-101021220D03*
X226875280Y-101021220D03*
%TD*%
D23*
%TO.C,H4*%
X94600000Y-111000000D03*
X95302944Y-109302944D03*
X95302944Y-112697056D03*
X97000000Y-108600000D03*
D24*
X97000000Y-111000000D03*
D23*
X97000000Y-113400000D03*
X98697056Y-109302944D03*
X98697056Y-112697056D03*
X99400000Y-111000000D03*
%TD*%
D13*
%TO.C,C3*%
X127600000Y-99100000D03*
X124064466Y-102635534D03*
%TD*%
D25*
%TO.C,Q2*%
X94620000Y-91430000D03*
D26*
X97160000Y-74770000D03*
D27*
X94620000Y-74770000D03*
X92080000Y-74770000D03*
%TD*%
D13*
%TO.C,R5*%
X95800000Y-105810000D03*
D11*
X95800000Y-98190000D03*
%TD*%
D13*
%TO.C,R13*%
X138000000Y-113500000D03*
D11*
X138000000Y-105880000D03*
%TD*%
D10*
%TO.C,C9*%
X105620000Y-72000000D03*
D13*
X105620000Y-75500000D03*
%TD*%
%TO.C,R17*%
X154905000Y-67305000D03*
D11*
X162525000Y-67305000D03*
%TD*%
D13*
%TO.C,R11*%
X126000000Y-113500000D03*
D11*
X126000000Y-105880000D03*
%TD*%
D20*
%TO.C,N9*%
X133587500Y-110500000D03*
X130412500Y-110500000D03*
%TD*%
D25*
%TO.C,U4*%
X121970000Y-74400000D03*
D28*
X138630000Y-76940000D03*
D29*
X138630000Y-74400000D03*
X138630000Y-71860000D03*
%TD*%
D23*
%TO.C,H2*%
X254600000Y-65000000D03*
X255302944Y-63302944D03*
X255302944Y-66697056D03*
X257000000Y-62600000D03*
D24*
X257000000Y-65000000D03*
D23*
X257000000Y-67400000D03*
X258697056Y-63302944D03*
X258697056Y-66697056D03*
X259400000Y-65000000D03*
%TD*%
%TO.C,H3*%
X234600000Y-111000000D03*
X235302944Y-109302944D03*
X235302944Y-112697056D03*
X237000000Y-108600000D03*
D24*
X237000000Y-111000000D03*
D23*
X237000000Y-113400000D03*
X238697056Y-109302944D03*
X238697056Y-112697056D03*
X239400000Y-111000000D03*
%TD*%
%TO.C,H1*%
X73600000Y-65000000D03*
X74302944Y-63302944D03*
X74302944Y-66697056D03*
X76000000Y-62600000D03*
D24*
X76000000Y-65000000D03*
D23*
X76000000Y-67400000D03*
X77697056Y-63302944D03*
X77697056Y-66697056D03*
X78400000Y-65000000D03*
%TD*%
D13*
%TO.C,R12*%
X196000000Y-113500000D03*
D11*
X196000000Y-105880000D03*
%TD*%
D30*
%TO.C,D2*%
X106740000Y-66500000D03*
D31*
X99120000Y-66500000D03*
%TD*%
D16*
%TO.C,N2*%
X159092700Y-102984640D03*
X148907300Y-102984640D03*
X147855740Y-105755780D03*
X148213880Y-108694560D03*
X149895360Y-111132960D03*
X152519180Y-112509640D03*
X155480820Y-112509640D03*
X158104640Y-111132960D03*
X159786120Y-108694560D03*
X160144260Y-105755780D03*
X154000000Y-100312560D03*
X151124720Y-101021220D03*
X156875280Y-101021220D03*
%TD*%
D13*
%TO.C,R15*%
X154905000Y-70305000D03*
D11*
X162525000Y-70305000D03*
%TD*%
D32*
%TO.C,SW1*%
X251200000Y-73600000D03*
X251200000Y-85000000D03*
D33*
X243700000Y-76800000D03*
X243700000Y-81800000D03*
X243700000Y-79300000D03*
X258200000Y-76800000D03*
X258200000Y-81800000D03*
%TD*%
D20*
%TO.C,N10*%
X203587500Y-110500000D03*
X200412500Y-110500000D03*
%TD*%
D34*
%TO.C,J2*%
X77475000Y-71400000D03*
D35*
X74935000Y-71400000D03*
%TD*%
D16*
%TO.C,N6*%
X255092700Y-102984640D03*
X244907300Y-102984640D03*
X243855740Y-105755780D03*
X244213880Y-108694560D03*
X245895360Y-111132960D03*
X248519180Y-112509640D03*
X251480820Y-112509640D03*
X254104640Y-111132960D03*
X255786120Y-108694560D03*
X256144260Y-105755780D03*
X250000000Y-100312560D03*
X247124720Y-101021220D03*
X252875280Y-101021220D03*
%TD*%
D13*
%TO.C,R21*%
X241030000Y-89699500D03*
D11*
X248650000Y-89699500D03*
%TD*%
D13*
%TO.C,C8*%
X168100000Y-97500000D03*
X163100000Y-97500000D03*
%TD*%
%TO.C,C14*%
X151525000Y-72305000D03*
X151525000Y-67305000D03*
%TD*%
%TO.C,C6*%
X164700000Y-83600000D03*
X159700000Y-83600000D03*
%TD*%
%TO.C,R9*%
X169000000Y-113500000D03*
D11*
X169000000Y-105880000D03*
%TD*%
D10*
%TO.C,D1*%
X82620000Y-86000000D03*
D11*
X75000000Y-86000000D03*
%TD*%
D13*
%TO.C,R22*%
X151525000Y-74685000D03*
D11*
X151525000Y-82305000D03*
%TD*%
D13*
%TO.C,C4*%
X141600000Y-77000000D03*
X146600000Y-77000000D03*
%TD*%
%TO.C,R20*%
X230930000Y-89699500D03*
D11*
X238550000Y-89699500D03*
%TD*%
D13*
%TO.C,C1*%
X77120000Y-74500000D03*
X77120000Y-79500000D03*
%TD*%
D36*
%TO.C,J1*%
X131000000Y-67105000D03*
D17*
X125920000Y-67105000D03*
%TD*%
M02*
