<?xml version="1.0" standalone="no"?>
 <!DOCTYPE svg PUBLIC "-//W3C//DTD SVG 1.1//EN" 
 "http://www.w3.org/Graphics/SVG/1.1/DTD/svg11.dtd"> 
<svg
  xmlns:svg="http://www.w3.org/2000/svg"
  xmlns="http://www.w3.org/2000/svg"
  xmlns:xlink="http://www.w3.org/1999/xlink"
  version="1.1"
  width="297.0022mm" height="210.0072mm" viewBox="0.0000 0.0000 297.0022 210.0072">
<title>SVG Image created as nixie-B_Fab.svg date 2024/10/13 16:35:27 </title>
  <desc>Image generated by PCBNEW </desc>
<g style="fill:#000000; fill-opacity:1.0000;stroke:#000000; stroke-opacity:1.0000;
stroke-linecap:round; stroke-linejoin:round;"
 transform="translate(0 0) scale(1 1)">
</g>
<g style="fill:none; 
stroke:#000000; stroke-width:0.1500; stroke-opacity:1; 
stroke-linecap:round; stroke-linejoin:round;">
<text x="168.5422" y="73.2650"
textLength="8.8690" font-size="1.3333" lengthAdjust="spacingAndGlyphs"
text-anchor="middle" opacity="0" stroke-opacity="0">Barrel_Jack</text>
<g class="stroked-text"><desc>Barrel_Jack</desc>
<path d="M164.8041 72.6960
L164.9470 72.7436
" />
<path d="M164.9470 72.7436
L164.9946 72.7912
" />
<path d="M164.9946 72.7912
L165.0422 72.8865
" />
<path d="M165.0422 72.8865
L165.0422 73.0293
" />
<path d="M165.0422 73.0293
L164.9946 73.1246
" />
<path d="M164.9946 73.1246
L164.9470 73.1722
" />
<path d="M164.9470 73.1722
L164.8517 73.2198
" />
<path d="M164.8517 73.2198
L164.4708 73.2198
" />
<path d="M164.4708 73.2198
L164.4708 72.2198
" />
<path d="M164.4708 72.2198
L164.8041 72.2198
" />
<path d="M164.8041 72.2198
L164.8993 72.2674
" />
<path d="M164.8993 72.2674
L164.9470 72.3151
" />
<path d="M164.9470 72.3151
L164.9946 72.4103
" />
<path d="M164.9946 72.4103
L164.9946 72.5055
" />
<path d="M164.9946 72.5055
L164.9470 72.6008
" />
<path d="M164.9470 72.6008
L164.8993 72.6484
" />
<path d="M164.8993 72.6484
L164.8041 72.6960
" />
<path d="M164.8041 72.6960
L164.4708 72.6960
" />
<path d="M165.8993 73.2198
L165.8993 72.6960
" />
<path d="M165.8993 72.6960
L165.8517 72.6008
" />
<path d="M165.8517 72.6008
L165.7565 72.5532
" />
<path d="M165.7565 72.5532
L165.5660 72.5532
" />
<path d="M165.5660 72.5532
L165.4708 72.6008
" />
<path d="M165.8993 73.1722
L165.8041 73.2198
" />
<path d="M165.8041 73.2198
L165.5660 73.2198
" />
<path d="M165.5660 73.2198
L165.4708 73.1722
" />
<path d="M165.4708 73.1722
L165.4232 73.0770
" />
<path d="M165.4232 73.0770
L165.4232 72.9817
" />
<path d="M165.4232 72.9817
L165.4708 72.8865
" />
<path d="M165.4708 72.8865
L165.5660 72.8389
" />
<path d="M165.5660 72.8389
L165.8041 72.8389
" />
<path d="M165.8041 72.8389
L165.8993 72.7912
" />
<path d="M166.3755 73.2198
L166.3755 72.5532
" />
<path d="M166.3755 72.7436
L166.4232 72.6484
" />
<path d="M166.4232 72.6484
L166.4708 72.6008
" />
<path d="M166.4708 72.6008
L166.5660 72.5532
" />
<path d="M166.5660 72.5532
L166.6612 72.5532
" />
<path d="M166.9946 73.2198
L166.9946 72.5532
" />
<path d="M166.9946 72.7436
L167.0422 72.6484
" />
<path d="M167.0422 72.6484
L167.0898 72.6008
" />
<path d="M167.0898 72.6008
L167.1851 72.5532
" />
<path d="M167.1851 72.5532
L167.2803 72.5532
" />
<path d="M167.9946 73.1722
L167.8993 73.2198
" />
<path d="M167.8993 73.2198
L167.7089 73.2198
" />
<path d="M167.7089 73.2198
L167.6136 73.1722
" />
<path d="M167.6136 73.1722
L167.5660 73.0770
" />
<path d="M167.5660 73.0770
L167.5660 72.6960
" />
<path d="M167.5660 72.6960
L167.6136 72.6008
" />
<path d="M167.6136 72.6008
L167.7089 72.5532
" />
<path d="M167.7089 72.5532
L167.8993 72.5532
" />
<path d="M167.8993 72.5532
L167.9946 72.6008
" />
<path d="M167.9946 72.6008
L168.0422 72.6960
" />
<path d="M168.0422 72.6960
L168.0422 72.7912
" />
<path d="M168.0422 72.7912
L167.5660 72.8865
" />
<path d="M168.6136 73.2198
L168.5184 73.1722
" />
<path d="M168.5184 73.1722
L168.4708 73.0770
" />
<path d="M168.4708 73.0770
L168.4708 72.2198
" />
<path d="M168.7565 73.3151
L169.5184 73.3151
" />
<path d="M170.0422 72.2198
L170.0422 72.9341
" />
<path d="M170.0422 72.9341
L169.9946 73.0770
" />
<path d="M169.9946 73.0770
L169.8993 73.1722
" />
<path d="M169.8993 73.1722
L169.7565 73.2198
" />
<path d="M169.7565 73.2198
L169.6612 73.2198
" />
<path d="M170.9470 73.2198
L170.9470 72.6960
" />
<path d="M170.9470 72.6960
L170.8993 72.6008
" />
<path d="M170.8993 72.6008
L170.8041 72.5532
" />
<path d="M170.8041 72.5532
L170.6136 72.5532
" />
<path d="M170.6136 72.5532
L170.5184 72.6008
" />
<path d="M170.9470 73.1722
L170.8517 73.2198
" />
<path d="M170.8517 73.2198
L170.6136 73.2198
" />
<path d="M170.6136 73.2198
L170.5184 73.1722
" />
<path d="M170.5184 73.1722
L170.4708 73.0770
" />
<path d="M170.4708 73.0770
L170.4708 72.9817
" />
<path d="M170.4708 72.9817
L170.5184 72.8865
" />
<path d="M170.5184 72.8865
L170.6136 72.8389
" />
<path d="M170.6136 72.8389
L170.8517 72.8389
" />
<path d="M170.8517 72.8389
L170.9470 72.7912
" />
<path d="M171.8517 73.1722
L171.7565 73.2198
" />
<path d="M171.7565 73.2198
L171.5660 73.2198
" />
<path d="M171.5660 73.2198
L171.4708 73.1722
" />
<path d="M171.4708 73.1722
L171.4232 73.1246
" />
<path d="M171.4232 73.1246
L171.3755 73.0293
" />
<path d="M171.3755 73.0293
L171.3755 72.7436
" />
<path d="M171.3755 72.7436
L171.4232 72.6484
" />
<path d="M171.4232 72.6484
L171.4708 72.6008
" />
<path d="M171.4708 72.6008
L171.5660 72.5532
" />
<path d="M171.5660 72.5532
L171.7565 72.5532
" />
<path d="M171.7565 72.5532
L171.8517 72.6008
" />
<path d="M172.2803 73.2198
L172.2803 72.2198
" />
<path d="M172.3755 72.8389
L172.6612 73.2198
" />
<path d="M172.6612 72.5532
L172.2803 72.9341
" />
</g><text x="168.5422" y="70.8050"
textLength="1.9643" font-size="1.3333" lengthAdjust="spacingAndGlyphs"
text-anchor="middle" opacity="0" stroke-opacity="0">J1</text>
<g class="stroked-text"><desc>J1</desc>
<path d="M168.2089 69.7598
L168.2089 70.4741
" />
<path d="M168.2089 70.4741
L168.1612 70.6170
" />
<path d="M168.1612 70.6170
L168.0660 70.7122
" />
<path d="M168.0660 70.7122
L167.9232 70.7598
" />
<path d="M167.9232 70.7598
L167.8279 70.7598
" />
<path d="M169.2089 70.7598
L168.6374 70.7598
" />
<path d="M168.9232 70.7598
L168.9232 69.7598
" />
<path d="M168.9232 69.7598
L168.8279 69.9027
" />
<path d="M168.8279 69.9027
L168.7327 69.9979
" />
<path d="M168.7327 69.9979
L168.6374 70.0455
" />
</g></g>
<g style="fill:none; 
stroke:#000000; stroke-width:0.1000; stroke-opacity:1; 
stroke-linecap:round; stroke-linejoin:round;">
<path d="M173.6222 61.9050
L163.4622 61.9050
" />
<path d="M173.6222 64.8050
L163.4622 64.8050
" />
<path d="M173.6222 69.7050
L163.4622 69.7050
" />
<path d="M173.6222 71.2050
L163.4622 71.2050
" />
<path d="M173.6222 71.7050
L173.6222 61.9050
" />
<path d="M170.1282 68.2430
L172.2202 66.1500
" />
<path d="M169.9452 68.0600
L172.0372 65.9670
" />
<path d="M165.0472 68.2430
L167.1402 66.1500
" />
<path d="M164.8642 68.0600
L166.9572 65.9670
" />
<path d="M163.9622 71.7050
L173.6222 71.7050
" />
<path d="M163.4622 61.9050
L163.4622 71.2050
" />
<path d="M163.4622 71.2050
L163.9622 71.7050
" />
<circle cx="171.0822" cy="67.1050" r="1.5000" /> 
<circle cx="166.0022" cy="67.1050" r="1.5000" /> 
</g> 
</svg>
