  0
SECTION
  2
HEADER
  9
$ANGBASE
  50
0.0
  9
$ANGDIR
  70
1
  9
$MEASUREMENT
  70
1
  0
ENDSEC
  0
SECTION
  2
TABLES
  0
TABLE
  2
LTYPE
  70
4
  0
LTYPE
  5
40F
  2
CONTINUOUS
  70
0
  3
Solid line
  72
65
  73
0
  40
0.0
  0
LTYPE
  5
410
  2
DASHDOT
 70
0
  3
Dash Dot ____ _ ____ _
 72
65
 73
4
 40
2.0
 49
1.25
 49
-0.25
 49
0.25
 49
-0.25
  0
LTYPE
  5
411
  2
DASHED
 70
0
  3
Dashed __ __ __ __ __
 72
65
 73
2
 40
0.75
 49
0.5
 49
-0.25
  0
LTYPE
  5
43B
  2
DOTTED
 70
0
  3
Dotted .  .  .  .
 72
65
 73
2
 40
0.2
 49
0.0
 49
-0.2
  0
ENDTAB
  0
TABLE
  2
STYLE
  70
4
  0
STYLE
  2
KICAD
  70
0
  40
0
  41
1
  42
1
  50
0
  71
0
  3
isocp.shx
  0
STYLE
  2
KICADB
  70
0
  40
0
  41
1
  42
1
  50
0
  71
0
  3
isocp.shx
  0
STYLE
  2
KICADI
  70
0
  40
0
  41
1
  42
1
  50
15
  71
0
  3
isocp.shx
  0
STYLE
  2
KICADBI
  70
0
  40
0
  41
1
  42
1
  50
15
  71
0
  3
isocp.shx
  0
ENDTAB
  0
TABLE
  2
LAYER
  70
1
  0
LAYER
  2
BLACK
  70
0
  62
7
  6
CONTINUOUS
  0
ENDTAB
  0
ENDSEC
  0
SECTION
  2
ENTITIES
0
LINE
8
BLACK
6
CONTINUOUS
10
131.2646090000000072
20
-96.906565999999998
11
130.2039489999999944
21
-97.9672259999999966
0
LINE
8
BLACK
6
CONTINUOUS
10
130.2039489999999944
20
-97.9672259999999966
11
129.8362529999999992
21
-97.5995300000000015
0
LINE
8
BLACK
6
CONTINUOUS
10
129.8362529999999992
20
-97.5995300000000015
11
130.8969129999999836
21
-96.5388699999999886
0
LINE
8
BLACK
6
CONTINUOUS
10
130.8969129999999836
20
-96.5388699999999886
11
131.2646090000000072
21
-96.906565999999998
0
LINE
8
BLACK
6
CONTINUOUS
10
134.1637470000000008
20
-97.5995300000000015
11
133.7960510000000056
21
-97.9672259999999966
0
LINE
8
BLACK
6
CONTINUOUS
10
133.7960510000000056
20
-97.9672259999999966
11
132.7353909999999928
21
-96.906565999999998
0
LINE
8
BLACK
6
CONTINUOUS
10
132.7353909999999928
20
-96.906565999999998
11
133.1030869999999879
21
-96.5388699999999886
0
LINE
8
BLACK
6
CONTINUOUS
10
133.1030869999999879
20
-96.5388699999999886
11
134.1637470000000008
21
-97.5995300000000015
0
LINE
8
BLACK
6
CONTINUOUS
10
201.2646089999999788
20
-96.7599409999999978
11
200.2039489999999944
21
-97.8206009999999964
0
LINE
8
BLACK
6
CONTINUOUS
10
200.2039489999999944
20
-97.8206009999999964
11
199.8362529999999992
21
-97.4529050000000012
0
LINE
8
BLACK
6
CONTINUOUS
10
199.8362529999999992
20
-97.4529050000000012
11
200.8969129999999836
21
-96.3922450000000026
0
LINE
8
BLACK
6
CONTINUOUS
10
200.8969129999999836
20
-96.3922450000000026
11
201.2646089999999788
21
-96.7599409999999978
0
LINE
8
BLACK
6
CONTINUOUS
10
204.1637470000000008
20
-97.4529050000000012
11
203.7960509999999772
21
-97.8206009999999964
0
LINE
8
BLACK
6
CONTINUOUS
10
203.7960509999999772
20
-97.8206009999999964
11
202.7353909999999928
21
-96.7599409999999978
0
LINE
8
BLACK
6
CONTINUOUS
10
202.7353909999999928
20
-96.7599409999999978
11
203.1030869999999879
21
-96.3922450000000026
0
LINE
8
BLACK
6
CONTINUOUS
10
203.1030869999999879
20
-96.3922450000000026
11
204.1637470000000008
21
-97.4529050000000012
0
LINE
8
BLACK
6
CONTINUOUS
10
130.6989240000000052
20
-96.340880999999996
11
129.6382639999999924
21
-97.4015409999999946
0
LINE
8
BLACK
6
CONTINUOUS
10
129.6382639999999924
20
-97.4015409999999946
11
129.2705679999999973
21
-97.0338449999999995
0
LINE
8
BLACK
6
CONTINUOUS
10
129.2705679999999973
20
-97.0338449999999995
11
130.3312279999999816
21
-95.9731850000000009
0
LINE
8
BLACK
6
CONTINUOUS
10
130.3312279999999816
20
-95.9731850000000009
11
130.6989240000000052
21
-96.340880999999996
0
LINE
8
BLACK
6
CONTINUOUS
10
134.7294320000000027
20
-97.0338449999999995
11
134.3617360000000076
21
-97.4015409999999946
0
LINE
8
BLACK
6
CONTINUOUS
10
134.3617360000000076
20
-97.4015409999999946
11
133.3010759999999948
21
-96.340880999999996
0
LINE
8
BLACK
6
CONTINUOUS
10
133.3010759999999948
20
-96.340880999999996
11
133.6687719999999899
21
-95.9731850000000009
0
LINE
8
BLACK
6
CONTINUOUS
10
133.6687719999999899
20
-95.9731850000000009
11
134.7294320000000027
21
-97.0338449999999995
0
LINE
8
BLACK
6
CONTINUOUS
10
200.6989239999999768
20
-96.1942559999999958
11
199.6382639999999924
21
-97.2549159999999944
0
LINE
8
BLACK
6
CONTINUOUS
10
199.6382639999999924
20
-97.2549159999999944
11
199.2705679999999973
21
-96.8872199999999992
0
LINE
8
BLACK
6
CONTINUOUS
10
199.2705679999999973
20
-96.8872199999999992
11
200.3312279999999816
21
-95.8265600000000006
0
LINE
8
BLACK
6
CONTINUOUS
10
200.3312279999999816
20
-95.8265600000000006
11
200.6989239999999768
21
-96.1942559999999958
0
LINE
8
BLACK
6
CONTINUOUS
10
204.7294320000000027
20
-96.8872199999999992
11
204.3617359999999792
21
-97.2549159999999944
0
LINE
8
BLACK
6
CONTINUOUS
10
204.3617359999999792
20
-97.2549159999999944
11
203.3010759999999948
21
-96.1942559999999958
0
LINE
8
BLACK
6
CONTINUOUS
10
203.3010759999999948
20
-96.1942559999999958
11
203.6687719999999899
21
-95.8265600000000006
0
LINE
8
BLACK
6
CONTINUOUS
10
203.6687719999999899
20
-95.8265600000000006
11
204.7294320000000027
21
-96.8872199999999992
0
LINE
8
BLACK
6
CONTINUOUS
10
130.1332380000000057
20
-95.7751949999999965
11
129.0725779999999929
21
-96.8358549999999951
0
LINE
8
BLACK
6
CONTINUOUS
10
129.0725779999999929
20
-96.8358549999999951
11
128.7048819999999978
21
-96.468159
0
LINE
8
BLACK
6
CONTINUOUS
10
128.7048819999999978
20
-96.468159
11
129.7655419999999822
21
-95.4074990000000014
0
LINE
8
BLACK
6
CONTINUOUS
10
129.7655419999999822
20
-95.4074990000000014
11
130.1332380000000057
21
-95.7751949999999965
0
LINE
8
BLACK
6
CONTINUOUS
10
135.2951180000000022
20
-96.468159
11
134.9274220000000071
21
-96.8358549999999951
0
LINE
8
BLACK
6
CONTINUOUS
10
134.9274220000000071
20
-96.8358549999999951
11
133.8667619999999943
21
-95.7751949999999965
0
LINE
8
BLACK
6
CONTINUOUS
10
133.8667619999999943
20
-95.7751949999999965
11
134.2344579999999894
21
-95.4074990000000014
0
LINE
8
BLACK
6
CONTINUOUS
10
134.2344579999999894
20
-95.4074990000000014
11
135.2951180000000022
21
-96.468159
0
LINE
8
BLACK
6
CONTINUOUS
10
200.1332379999999773
20
-95.6285699999999963
11
199.0725779999999929
21
-96.6892299999999949
0
LINE
8
BLACK
6
CONTINUOUS
10
199.0725779999999929
20
-96.6892299999999949
11
198.7048819999999978
21
-96.3215339999999998
0
LINE
8
BLACK
6
CONTINUOUS
10
198.7048819999999978
20
-96.3215339999999998
11
199.7655419999999822
21
-95.2608740000000012
0
LINE
8
BLACK
6
CONTINUOUS
10
199.7655419999999822
20
-95.2608740000000012
11
200.1332379999999773
21
-95.6285699999999963
0
LINE
8
BLACK
6
CONTINUOUS
10
205.2951180000000022
20
-96.3215339999999998
11
204.9274219999999787
21
-96.6892299999999949
0
LINE
8
BLACK
6
CONTINUOUS
10
204.9274219999999787
20
-96.6892299999999949
11
203.8667619999999943
21
-95.6285699999999963
0
LINE
8
BLACK
6
CONTINUOUS
10
203.8667619999999943
20
-95.6285699999999963
11
204.2344579999999894
21
-95.2608740000000012
0
LINE
8
BLACK
6
CONTINUOUS
10
204.2344579999999894
20
-95.2608740000000012
11
205.2951180000000022
21
-96.3215339999999998
0
LINE
8
BLACK
6
CONTINUOUS
10
129.5675530000000037
20
-95.2095099999999945
11
128.5068929999999909
21
-96.2701699999999931
0
LINE
8
BLACK
6
CONTINUOUS
10
128.5068929999999909
20
-96.2701699999999931
11
128.1391969999999958
21
-95.902473999999998
0
LINE
8
BLACK
6
CONTINUOUS
10
128.1391969999999958
20
-95.902473999999998
11
129.1998569999999802
21
-94.8418139999999994
0
LINE
8
BLACK
6
CONTINUOUS
10
129.1998569999999802
20
-94.8418139999999994
11
129.5675530000000037
21
-95.2095099999999945
0
LINE
8
BLACK
6
CONTINUOUS
10
135.8608030000000042
20
-95.902473999999998
11
135.4931069999999806
21
-96.2701699999999931
0
LINE
8
BLACK
6
CONTINUOUS
10
135.4931069999999806
20
-96.2701699999999931
11
134.4324469999999963
21
-95.2095099999999945
0
LINE
8
BLACK
6
CONTINUOUS
10
134.4324469999999963
20
-95.2095099999999945
11
134.8001429999999914
21
-94.8418139999999994
0
LINE
8
BLACK
6
CONTINUOUS
10
134.8001429999999914
20
-94.8418139999999994
11
135.8608030000000042
21
-95.902473999999998
0
LINE
8
BLACK
6
CONTINUOUS
10
199.5675530000000037
20
-95.0628849999999943
11
198.5068929999999909
21
-96.1235449999999929
0
LINE
8
BLACK
6
CONTINUOUS
10
198.5068929999999909
20
-96.1235449999999929
11
198.1391969999999958
21
-95.7558489999999978
0
LINE
8
BLACK
6
CONTINUOUS
10
198.1391969999999958
20
-95.7558489999999978
11
199.1998569999999802
21
-94.6951889999999992
0
LINE
8
BLACK
6
CONTINUOUS
10
199.1998569999999802
20
-94.6951889999999992
11
199.5675530000000037
21
-95.0628849999999943
0
LINE
8
BLACK
6
CONTINUOUS
10
205.8608030000000042
20
-95.7558489999999978
11
205.4931069999999806
21
-96.1235449999999929
0
LINE
8
BLACK
6
CONTINUOUS
10
205.4931069999999806
20
-96.1235449999999929
11
204.4324469999999963
21
-95.0628849999999943
0
LINE
8
BLACK
6
CONTINUOUS
10
204.4324469999999963
20
-95.0628849999999943
11
204.8001429999999914
21
-94.6951889999999992
0
LINE
8
BLACK
6
CONTINUOUS
10
204.8001429999999914
20
-94.6951889999999992
11
205.8608030000000042
21
-95.7558489999999978
0
LINE
8
BLACK
6
CONTINUOUS
10
129.0018670000000043
20
-94.6438239999999951
11
127.9412069999999915
21
-95.7044839999999937
0
LINE
8
BLACK
6
CONTINUOUS
10
127.9412069999999915
20
-95.7044839999999937
11
127.5735109999999963
21
-95.3367879999999985
0
LINE
8
BLACK
6
CONTINUOUS
10
127.5735109999999963
20
-95.3367879999999985
11
128.6341709999999807
21
-94.2761279999999999
0
LINE
8
BLACK
6
CONTINUOUS
10
128.6341709999999807
20
-94.2761279999999999
11
129.0018670000000043
21
-94.6438239999999951
0
LINE
8
BLACK
6
CONTINUOUS
10
136.4264890000000037
20
-95.3367879999999985
11
136.0587929999999801
21
-95.7044839999999937
0
LINE
8
BLACK
6
CONTINUOUS
10
136.0587929999999801
20
-95.7044839999999937
11
134.9981329999999957
21
-94.6438239999999951
0
LINE
8
BLACK
6
CONTINUOUS
10
134.9981329999999957
20
-94.6438239999999951
11
135.3658289999999909
21
-94.2761279999999999
0
LINE
8
BLACK
6
CONTINUOUS
10
135.3658289999999909
20
-94.2761279999999999
11
136.4264890000000037
21
-95.3367879999999985
0
LINE
8
BLACK
6
CONTINUOUS
10
199.0018670000000043
20
-94.4971989999999948
11
197.9412069999999915
21
-95.5578589999999934
0
LINE
8
BLACK
6
CONTINUOUS
10
197.9412069999999915
20
-95.5578589999999934
11
197.5735109999999963
21
-95.1901629999999983
0
LINE
8
BLACK
6
CONTINUOUS
10
197.5735109999999963
20
-95.1901629999999983
11
198.6341709999999807
21
-94.1295029999999997
0
LINE
8
BLACK
6
CONTINUOUS
10
198.6341709999999807
20
-94.1295029999999997
11
199.0018670000000043
21
-94.4971989999999948
0
LINE
8
BLACK
6
CONTINUOUS
10
206.4264890000000037
20
-95.1901629999999983
11
206.0587929999999801
21
-95.5578589999999934
0
LINE
8
BLACK
6
CONTINUOUS
10
206.0587929999999801
20
-95.5578589999999934
11
204.9981329999999957
21
-94.4971989999999948
0
LINE
8
BLACK
6
CONTINUOUS
10
204.9981329999999957
20
-94.4971989999999948
11
205.3658289999999909
21
-94.1295029999999997
0
LINE
8
BLACK
6
CONTINUOUS
10
205.3658289999999909
20
-94.1295029999999997
11
206.4264890000000037
21
-95.1901629999999983
0
LINE
8
BLACK
6
CONTINUOUS
10
128.4361820000000023
20
-94.0781389999999931
11
127.3755219999999895
21
-95.1387989999999917
0
LINE
8
BLACK
6
CONTINUOUS
10
127.3755219999999895
20
-95.1387989999999917
11
127.0078259999999943
21
-94.7711029999999965
0
LINE
8
BLACK
6
CONTINUOUS
10
127.0078259999999943
20
-94.7711029999999965
11
128.0684860000000072
21
-93.7104429999999979
0
LINE
8
BLACK
6
CONTINUOUS
10
128.0684860000000072
20
-93.7104429999999979
11
128.4361820000000023
21
-94.0781389999999931
0
LINE
8
BLACK
6
CONTINUOUS
10
136.9921740000000057
20
-94.7711029999999965
11
136.6244779999999821
21
-95.1387989999999917
0
LINE
8
BLACK
6
CONTINUOUS
10
136.6244779999999821
20
-95.1387989999999917
11
135.5638179999999977
21
-94.0781389999999931
0
LINE
8
BLACK
6
CONTINUOUS
10
135.5638179999999977
20
-94.0781389999999931
11
135.9315139999999928
21
-93.7104429999999979
0
LINE
8
BLACK
6
CONTINUOUS
10
135.9315139999999928
20
-93.7104429999999979
11
136.9921740000000057
21
-94.7711029999999965
0
LINE
8
BLACK
6
CONTINUOUS
10
198.4361820000000023
20
-93.9315139999999928
11
197.3755219999999895
21
-94.9921739999999915
0
LINE
8
BLACK
6
CONTINUOUS
10
197.3755219999999895
20
-94.9921739999999915
11
197.0078259999999943
21
-94.6244779999999963
0
LINE
8
BLACK
6
CONTINUOUS
10
197.0078259999999943
20
-94.6244779999999963
11
198.0684859999999787
21
-93.5638179999999977
0
LINE
8
BLACK
6
CONTINUOUS
10
198.0684859999999787
20
-93.5638179999999977
11
198.4361820000000023
21
-93.9315139999999928
0
LINE
8
BLACK
6
CONTINUOUS
10
206.9921739999999772
20
-94.6244779999999963
11
206.6244779999999821
21
-94.9921739999999915
0
LINE
8
BLACK
6
CONTINUOUS
10
206.6244779999999821
20
-94.9921739999999915
11
205.5638179999999977
21
-93.9315139999999928
0
LINE
8
BLACK
6
CONTINUOUS
10
205.5638179999999977
20
-93.9315139999999928
11
205.9315139999999928
21
-93.5638179999999977
0
LINE
8
BLACK
6
CONTINUOUS
10
205.9315139999999928
20
-93.5638179999999977
11
206.9921739999999772
21
-94.6244779999999963
0
LINE
8
BLACK
6
CONTINUOUS
10
127.8704970000000003
20
-93.5124539999999911
11
126.8098369999999875
21
-94.5731139999999897
0
LINE
8
BLACK
6
CONTINUOUS
10
126.8098369999999875
20
-94.5731139999999897
11
126.4421409999999923
21
-94.2054179999999945
0
LINE
8
BLACK
6
CONTINUOUS
10
126.4421409999999923
20
-94.2054179999999945
11
127.5028009999999909
21
-93.1447579999999959
0
LINE
8
BLACK
6
CONTINUOUS
10
127.5028009999999909
20
-93.1447579999999959
11
127.8704970000000003
21
-93.5124539999999911
0
LINE
8
BLACK
6
CONTINUOUS
10
137.5578590000000077
20
-94.2054179999999945
11
137.1901629999999841
21
-94.5731139999999897
0
LINE
8
BLACK
6
CONTINUOUS
10
137.1901629999999841
20
-94.5731139999999897
11
136.1295029999999997
21
-93.5124539999999911
0
LINE
8
BLACK
6
CONTINUOUS
10
136.1295029999999997
20
-93.5124539999999911
11
136.4971989999999948
21
-93.1447579999999959
0
LINE
8
BLACK
6
CONTINUOUS
10
136.4971989999999948
20
-93.1447579999999959
11
137.5578590000000077
21
-94.2054179999999945
0
LINE
8
BLACK
6
CONTINUOUS
10
197.8704970000000003
20
-93.3658289999999909
11
196.8098369999999875
21
-94.4264889999999895
0
LINE
8
BLACK
6
CONTINUOUS
10
196.8098369999999875
20
-94.4264889999999895
11
196.4421409999999923
21
-94.0587929999999943
0
LINE
8
BLACK
6
CONTINUOUS
10
196.4421409999999923
20
-94.0587929999999943
11
197.5028010000000052
21
-92.9981329999999957
0
LINE
8
BLACK
6
CONTINUOUS
10
197.5028010000000052
20
-92.9981329999999957
11
197.8704970000000003
21
-93.3658289999999909
0
LINE
8
BLACK
6
CONTINUOUS
10
207.5578589999999792
20
-94.0587929999999943
11
207.1901629999999841
21
-94.4264889999999895
0
LINE
8
BLACK
6
CONTINUOUS
10
207.1901629999999841
20
-94.4264889999999895
11
206.1295029999999997
21
-93.3658289999999909
0
LINE
8
BLACK
6
CONTINUOUS
10
206.1295029999999997
20
-93.3658289999999909
11
206.4971989999999948
21
-92.9981329999999957
0
LINE
8
BLACK
6
CONTINUOUS
10
206.4971989999999948
20
-92.9981329999999957
11
207.5578589999999792
21
-94.0587929999999943
0
LINE
8
BLACK
6
CONTINUOUS
10
127.3048110000000008
20
-92.9467679999999916
11
126.244150999999988
21
-94.0074279999999902
0
LINE
8
BLACK
6
CONTINUOUS
10
126.244150999999988
20
-94.0074279999999902
11
125.8764549999999929
21
-93.6397319999999951
0
LINE
8
BLACK
6
CONTINUOUS
10
125.8764549999999929
20
-93.6397319999999951
11
126.9371149999999915
21
-92.5790719999999965
0
LINE
8
BLACK
6
CONTINUOUS
10
126.9371149999999915
20
-92.5790719999999965
11
127.3048110000000008
21
-92.9467679999999916
0
LINE
8
BLACK
6
CONTINUOUS
10
138.1235450000000071
20
-93.6397319999999951
11
137.7558489999999836
21
-94.0074279999999902
0
LINE
8
BLACK
6
CONTINUOUS
10
137.7558489999999836
20
-94.0074279999999902
11
136.6951889999999992
21
-92.9467679999999916
0
LINE
8
BLACK
6
CONTINUOUS
10
136.6951889999999992
20
-92.9467679999999916
11
137.0628849999999943
21
-92.5790719999999965
0
LINE
8
BLACK
6
CONTINUOUS
10
137.0628849999999943
20
-92.5790719999999965
11
138.1235450000000071
21
-93.6397319999999951
0
LINE
8
BLACK
6
CONTINUOUS
10
197.3048110000000008
20
-92.8001429999999914
11
196.244150999999988
21
-93.86080299999999
0
LINE
8
BLACK
6
CONTINUOUS
10
196.244150999999988
20
-93.86080299999999
11
195.8764549999999929
21
-93.4931069999999949
0
LINE
8
BLACK
6
CONTINUOUS
10
195.8764549999999929
20
-93.4931069999999949
11
196.9371149999999773
21
-92.4324469999999963
0
LINE
8
BLACK
6
CONTINUOUS
10
196.9371149999999773
20
-92.4324469999999963
11
197.3048110000000008
21
-92.8001429999999914
0
LINE
8
BLACK
6
CONTINUOUS
10
208.1235449999999787
20
-93.4931069999999949
11
207.7558489999999836
21
-93.86080299999999
0
LINE
8
BLACK
6
CONTINUOUS
10
207.7558489999999836
20
-93.86080299999999
11
206.6951889999999992
21
-92.8001429999999914
0
LINE
8
BLACK
6
CONTINUOUS
10
206.6951889999999992
20
-92.8001429999999914
11
207.0628849999999943
21
-92.4324469999999963
0
LINE
8
BLACK
6
CONTINUOUS
10
207.0628849999999943
20
-92.4324469999999963
11
208.1235449999999787
21
-93.4931069999999949
0
LINE
8
BLACK
6
CONTINUOUS
10
126.7391259999999988
20
-92.3810829999999896
11
125.6784660000000002
21
-93.4417430000000024
0
LINE
8
BLACK
6
CONTINUOUS
10
125.6784660000000002
20
-93.4417430000000024
11
125.3107699999999909
21
-93.0740469999999931
0
LINE
8
BLACK
6
CONTINUOUS
10
125.3107699999999909
20
-93.0740469999999931
11
126.3714299999999895
21
-92.0133869999999945
0
LINE
8
BLACK
6
CONTINUOUS
10
126.3714299999999895
20
-92.0133869999999945
11
126.7391259999999988
21
-92.3810829999999896
0
LINE
8
BLACK
6
CONTINUOUS
10
138.6892299999999807
20
-93.0740469999999931
11
138.3215339999999856
21
-93.4417430000000024
0
LINE
8
BLACK
6
CONTINUOUS
10
138.3215339999999856
20
-93.4417430000000024
11
137.2608740000000012
21
-92.3810829999999896
0
LINE
8
BLACK
6
CONTINUOUS
10
137.2608740000000012
20
-92.3810829999999896
11
137.6285699999999963
21
-92.0133869999999945
0
LINE
8
BLACK
6
CONTINUOUS
10
137.6285699999999963
20
-92.0133869999999945
11
138.6892299999999807
21
-93.0740469999999931
0
LINE
8
BLACK
6
CONTINUOUS
10
196.7391259999999988
20
-92.2344579999999894
11
195.678465999999986
21
-93.2951180000000022
0
LINE
8
BLACK
6
CONTINUOUS
10
195.678465999999986
20
-93.2951180000000022
11
195.3107699999999909
21
-92.9274219999999929
0
LINE
8
BLACK
6
CONTINUOUS
10
195.3107699999999909
20
-92.9274219999999929
11
196.3714300000000037
21
-91.8667619999999943
0
LINE
8
BLACK
6
CONTINUOUS
10
196.3714300000000037
20
-91.8667619999999943
11
196.7391259999999988
21
-92.2344579999999894
0
LINE
8
BLACK
6
CONTINUOUS
10
208.6892299999999807
20
-92.9274219999999929
11
208.3215339999999856
21
-93.2951180000000022
0
LINE
8
BLACK
6
CONTINUOUS
10
208.3215339999999856
20
-93.2951180000000022
11
207.2608740000000012
21
-92.2344579999999894
0
LINE
8
BLACK
6
CONTINUOUS
10
207.2608740000000012
20
-92.2344579999999894
11
207.6285699999999963
21
-91.8667619999999943
0
LINE
8
BLACK
6
CONTINUOUS
10
207.6285699999999963
20
-91.8667619999999943
11
208.6892299999999807
21
-92.9274219999999929
0
LINE
8
BLACK
6
CONTINUOUS
10
126.1734399999999994
20
-91.8153969999999902
11
125.1127800000000008
21
-92.8760569999999888
0
LINE
8
BLACK
6
CONTINUOUS
10
125.1127800000000008
20
-92.8760569999999888
11
124.7450839999999914
21
-92.5083609999999936
0
LINE
8
BLACK
6
CONTINUOUS
10
124.7450839999999914
20
-92.5083609999999936
11
125.80574399999999
21
-91.447700999999995
0
LINE
8
BLACK
6
CONTINUOUS
10
125.80574399999999
20
-91.447700999999995
11
126.1734399999999994
21
-91.8153969999999902
0
LINE
8
BLACK
6
CONTINUOUS
10
139.2549159999999802
20
-92.5083609999999936
11
138.887219999999985
21
-92.8760569999999888
0
LINE
8
BLACK
6
CONTINUOUS
10
138.887219999999985
20
-92.8760569999999888
11
137.8265600000000006
21
-91.8153969999999902
0
LINE
8
BLACK
6
CONTINUOUS
10
137.8265600000000006
20
-91.8153969999999902
11
138.1942559999999958
21
-91.447700999999995
0
LINE
8
BLACK
6
CONTINUOUS
10
138.1942559999999958
20
-91.447700999999995
11
139.2549159999999802
21
-92.5083609999999936
0
LINE
8
BLACK
6
CONTINUOUS
10
196.1734399999999994
20
-91.6687719999999899
11
195.1127799999999866
21
-92.7294320000000027
0
LINE
8
BLACK
6
CONTINUOUS
10
195.1127799999999866
20
-92.7294320000000027
11
194.7450839999999914
21
-92.3617359999999934
0
LINE
8
BLACK
6
CONTINUOUS
10
194.7450839999999914
20
-92.3617359999999934
11
195.8057440000000042
21
-91.3010759999999948
0
LINE
8
BLACK
6
CONTINUOUS
10
195.8057440000000042
20
-91.3010759999999948
11
196.1734399999999994
21
-91.6687719999999899
0
LINE
8
BLACK
6
CONTINUOUS
10
209.2549159999999802
20
-92.3617359999999934
11
208.887219999999985
21
-92.7294320000000027
0
LINE
8
BLACK
6
CONTINUOUS
10
208.887219999999985
20
-92.7294320000000027
11
207.8265600000000006
21
-91.6687719999999899
0
LINE
8
BLACK
6
CONTINUOUS
10
207.8265600000000006
20
-91.6687719999999899
11
208.1942559999999958
21
-91.3010759999999948
0
LINE
8
BLACK
6
CONTINUOUS
10
208.1942559999999958
20
-91.3010759999999948
11
209.2549159999999802
21
-92.3617359999999934
0
LINE
8
BLACK
6
CONTINUOUS
10
125.6077549999999974
20
-91.2497120000000024
11
124.5470949999999988
21
-92.310372000000001
0
LINE
8
BLACK
6
CONTINUOUS
10
124.5470949999999988
20
-92.310372000000001
11
124.1793989999999894
21
-91.9426759999999916
0
LINE
8
BLACK
6
CONTINUOUS
10
124.1793989999999894
20
-91.9426759999999916
11
125.240058999999988
21
-90.882015999999993
0
LINE
8
BLACK
6
CONTINUOUS
10
125.240058999999988
20
-90.882015999999993
11
125.6077549999999974
21
-91.2497120000000024
0
LINE
8
BLACK
6
CONTINUOUS
10
139.8206009999999822
20
-91.9426759999999916
11
139.452904999999987
21
-92.310372000000001
0
LINE
8
BLACK
6
CONTINUOUS
10
139.452904999999987
20
-92.310372000000001
11
138.3922450000000026
21
-91.2497120000000024
0
LINE
8
BLACK
6
CONTINUOUS
10
138.3922450000000026
20
-91.2497120000000024
11
138.7599409999999978
21
-90.882015999999993
0
LINE
8
BLACK
6
CONTINUOUS
10
138.7599409999999978
20
-90.882015999999993
11
139.8206009999999822
21
-91.9426759999999916
0
LINE
8
BLACK
6
CONTINUOUS
10
195.6077549999999974
20
-91.1030870000000021
11
194.5470949999999846
21
-92.1637470000000008
0
LINE
8
BLACK
6
CONTINUOUS
10
194.5470949999999846
20
-92.1637470000000008
11
194.1793989999999894
21
-91.7960509999999914
0
LINE
8
BLACK
6
CONTINUOUS
10
194.1793989999999894
20
-91.7960509999999914
11
195.2400590000000022
21
-90.7353909999999928
0
LINE
8
BLACK
6
CONTINUOUS
10
195.2400590000000022
20
-90.7353909999999928
11
195.6077549999999974
21
-91.1030870000000021
0
LINE
8
BLACK
6
CONTINUOUS
10
209.8206009999999822
20
-91.7960509999999914
11
209.452904999999987
21
-92.1637470000000008
0
LINE
8
BLACK
6
CONTINUOUS
10
209.452904999999987
20
-92.1637470000000008
11
208.3922450000000026
21
-91.1030870000000021
0
LINE
8
BLACK
6
CONTINUOUS
10
208.3922450000000026
20
-91.1030870000000021
11
208.7599409999999978
21
-90.7353909999999928
0
LINE
8
BLACK
6
CONTINUOUS
10
208.7599409999999978
20
-90.7353909999999928
11
209.8206009999999822
21
-91.7960509999999914
0
LINE
8
BLACK
6
CONTINUOUS
10
125.6077549999999974
20
-89.0435379999999981
11
125.240058999999988
21
-89.4112339999999932
0
LINE
8
BLACK
6
CONTINUOUS
10
125.240058999999988
20
-89.4112339999999932
11
124.1793989999999894
21
-88.3505739999999946
0
LINE
8
BLACK
6
CONTINUOUS
10
124.1793989999999894
20
-88.3505739999999946
11
124.5470949999999988
21
-87.9828779999999995
0
LINE
8
BLACK
6
CONTINUOUS
10
124.5470949999999988
20
-87.9828779999999995
11
125.6077549999999974
21
-89.0435379999999981
0
LINE
8
BLACK
6
CONTINUOUS
10
139.8206009999999822
20
-88.3505739999999946
11
138.7599409999999978
21
-89.4112339999999932
0
LINE
8
BLACK
6
CONTINUOUS
10
138.7599409999999978
20
-89.4112339999999932
11
138.3922450000000026
21
-89.0435379999999981
0
LINE
8
BLACK
6
CONTINUOUS
10
138.3922450000000026
20
-89.0435379999999981
11
139.452904999999987
21
-87.9828779999999995
0
LINE
8
BLACK
6
CONTINUOUS
10
139.452904999999987
20
-87.9828779999999995
11
139.8206009999999822
21
-88.3505739999999946
0
LINE
8
BLACK
6
CONTINUOUS
10
195.6077549999999974
20
-88.8969129999999979
11
195.2400590000000022
21
-89.264608999999993
0
LINE
8
BLACK
6
CONTINUOUS
10
195.2400590000000022
20
-89.264608999999993
11
194.1793989999999894
21
-88.2039489999999944
0
LINE
8
BLACK
6
CONTINUOUS
10
194.1793989999999894
20
-88.2039489999999944
11
194.5470949999999846
21
-87.8362529999999992
0
LINE
8
BLACK
6
CONTINUOUS
10
194.5470949999999846
20
-87.8362529999999992
11
195.6077549999999974
21
-88.8969129999999979
0
LINE
8
BLACK
6
CONTINUOUS
10
209.8206009999999822
20
-88.2039489999999944
11
208.7599409999999978
21
-89.264608999999993
0
LINE
8
BLACK
6
CONTINUOUS
10
208.7599409999999978
20
-89.264608999999993
11
208.3922450000000026
21
-88.8969129999999979
0
LINE
8
BLACK
6
CONTINUOUS
10
208.3922450000000026
20
-88.8969129999999979
11
209.452904999999987
21
-87.8362529999999992
0
LINE
8
BLACK
6
CONTINUOUS
10
209.452904999999987
20
-87.8362529999999992
11
209.8206009999999822
21
-88.2039489999999944
0
LINE
8
BLACK
6
CONTINUOUS
10
126.1734399999999994
20
-88.4778529999999961
11
125.80574399999999
21
-88.8455489999999912
0
LINE
8
BLACK
6
CONTINUOUS
10
125.80574399999999
20
-88.8455489999999912
11
124.7450839999999914
21
-87.7848889999999926
0
LINE
8
BLACK
6
CONTINUOUS
10
124.7450839999999914
20
-87.7848889999999926
11
125.1127800000000008
21
-87.4171929999999975
0
LINE
8
BLACK
6
CONTINUOUS
10
125.1127800000000008
20
-87.4171929999999975
11
126.1734399999999994
21
-88.4778529999999961
0
LINE
8
BLACK
6
CONTINUOUS
10
139.2549159999999802
20
-87.7848889999999926
11
138.1942559999999958
21
-88.8455489999999912
0
LINE
8
BLACK
6
CONTINUOUS
10
138.1942559999999958
20
-88.8455489999999912
11
137.8265600000000006
21
-88.4778529999999961
0
LINE
8
BLACK
6
CONTINUOUS
10
137.8265600000000006
20
-88.4778529999999961
11
138.887219999999985
21
-87.4171929999999975
0
LINE
8
BLACK
6
CONTINUOUS
10
138.887219999999985
20
-87.4171929999999975
11
139.2549159999999802
21
-87.7848889999999926
0
LINE
8
BLACK
6
CONTINUOUS
10
196.1734399999999994
20
-88.3312279999999959
11
195.8057440000000042
21
-88.698923999999991
0
LINE
8
BLACK
6
CONTINUOUS
10
195.8057440000000042
20
-88.698923999999991
11
194.7450839999999914
21
-87.6382639999999924
0
LINE
8
BLACK
6
CONTINUOUS
10
194.7450839999999914
20
-87.6382639999999924
11
195.1127799999999866
21
-87.2705679999999973
0
LINE
8
BLACK
6
CONTINUOUS
10
195.1127799999999866
20
-87.2705679999999973
11
196.1734399999999994
21
-88.3312279999999959
0
LINE
8
BLACK
6
CONTINUOUS
10
209.2549159999999802
20
-87.6382639999999924
11
208.1942559999999958
21
-88.698923999999991
0
LINE
8
BLACK
6
CONTINUOUS
10
208.1942559999999958
20
-88.698923999999991
11
207.8265600000000006
21
-88.3312279999999959
0
LINE
8
BLACK
6
CONTINUOUS
10
207.8265600000000006
20
-88.3312279999999959
11
208.887219999999985
21
-87.2705679999999973
0
LINE
8
BLACK
6
CONTINUOUS
10
208.887219999999985
20
-87.2705679999999973
11
209.2549159999999802
21
-87.6382639999999924
0
LINE
8
BLACK
6
CONTINUOUS
10
126.7391259999999988
20
-87.9121669999999966
11
126.3714299999999895
21
-88.2798629999999918
0
LINE
8
BLACK
6
CONTINUOUS
10
126.3714299999999895
20
-88.2798629999999918
11
125.3107699999999909
21
-87.2192029999999932
0
LINE
8
BLACK
6
CONTINUOUS
10
125.3107699999999909
20
-87.2192029999999932
11
125.6784660000000002
21
-86.851506999999998
0
LINE
8
BLACK
6
CONTINUOUS
10
125.6784660000000002
20
-86.851506999999998
11
126.7391259999999988
21
-87.9121669999999966
0
LINE
8
BLACK
6
CONTINUOUS
10
138.6892299999999807
20
-87.2192029999999932
11
137.6285699999999963
21
-88.2798629999999918
0
LINE
8
BLACK
6
CONTINUOUS
10
137.6285699999999963
20
-88.2798629999999918
11
137.2608740000000012
21
-87.9121669999999966
0
LINE
8
BLACK
6
CONTINUOUS
10
137.2608740000000012
20
-87.9121669999999966
11
138.3215339999999856
21
-86.851506999999998
0
LINE
8
BLACK
6
CONTINUOUS
10
138.3215339999999856
20
-86.851506999999998
11
138.6892299999999807
21
-87.2192029999999932
0
LINE
8
BLACK
6
CONTINUOUS
10
196.7391259999999988
20
-87.7655419999999964
11
196.3714300000000037
21
-88.1332379999999915
0
LINE
8
BLACK
6
CONTINUOUS
10
196.3714300000000037
20
-88.1332379999999915
11
195.3107699999999909
21
-87.0725779999999929
0
LINE
8
BLACK
6
CONTINUOUS
10
195.3107699999999909
20
-87.0725779999999929
11
195.678465999999986
21
-86.7048819999999978
0
LINE
8
BLACK
6
CONTINUOUS
10
195.678465999999986
20
-86.7048819999999978
11
196.7391259999999988
21
-87.7655419999999964
0
LINE
8
BLACK
6
CONTINUOUS
10
208.6892299999999807
20
-87.0725779999999929
11
207.6285699999999963
21
-88.1332379999999915
0
LINE
8
BLACK
6
CONTINUOUS
10
207.6285699999999963
20
-88.1332379999999915
11
207.2608740000000012
21
-87.7655419999999964
0
LINE
8
BLACK
6
CONTINUOUS
10
207.2608740000000012
20
-87.7655419999999964
11
208.3215339999999856
21
-86.7048819999999978
0
LINE
8
BLACK
6
CONTINUOUS
10
208.3215339999999856
20
-86.7048819999999978
11
208.6892299999999807
21
-87.0725779999999929
0
LINE
8
BLACK
6
CONTINUOUS
10
127.3048110000000008
20
-87.3464819999999946
11
126.9371149999999915
21
-87.7141779999999898
0
LINE
8
BLACK
6
CONTINUOUS
10
126.9371149999999915
20
-87.7141779999999898
11
125.8764549999999929
21
-86.6535179999999912
0
LINE
8
BLACK
6
CONTINUOUS
10
125.8764549999999929
20
-86.6535179999999912
11
126.244150999999988
21
-86.285821999999996
0
LINE
8
BLACK
6
CONTINUOUS
10
126.244150999999988
20
-86.285821999999996
11
127.3048110000000008
21
-87.3464819999999946
0
LINE
8
BLACK
6
CONTINUOUS
10
138.1235450000000071
20
-86.6535179999999912
11
137.0628849999999943
21
-87.7141779999999898
0
LINE
8
BLACK
6
CONTINUOUS
10
137.0628849999999943
20
-87.7141779999999898
11
136.6951889999999992
21
-87.3464819999999946
0
LINE
8
BLACK
6
CONTINUOUS
10
136.6951889999999992
20
-87.3464819999999946
11
137.7558489999999836
21
-86.285821999999996
0
LINE
8
BLACK
6
CONTINUOUS
10
137.7558489999999836
20
-86.285821999999996
11
138.1235450000000071
21
-86.6535179999999912
0
LINE
8
BLACK
6
CONTINUOUS
10
197.3048110000000008
20
-87.1998569999999944
11
196.9371149999999773
21
-87.5675529999999895
0
LINE
8
BLACK
6
CONTINUOUS
10
196.9371149999999773
20
-87.5675529999999895
11
195.8764549999999929
21
-86.5068929999999909
0
LINE
8
BLACK
6
CONTINUOUS
10
195.8764549999999929
20
-86.5068929999999909
11
196.244150999999988
21
-86.1391969999999958
0
LINE
8
BLACK
6
CONTINUOUS
10
196.244150999999988
20
-86.1391969999999958
11
197.3048110000000008
21
-87.1998569999999944
0
LINE
8
BLACK
6
CONTINUOUS
10
208.1235449999999787
20
-86.5068929999999909
11
207.0628849999999943
21
-87.5675529999999895
0
LINE
8
BLACK
6
CONTINUOUS
10
207.0628849999999943
20
-87.5675529999999895
11
206.6951889999999992
21
-87.1998569999999944
0
LINE
8
BLACK
6
CONTINUOUS
10
206.6951889999999992
20
-87.1998569999999944
11
207.7558489999999836
21
-86.1391969999999958
0
LINE
8
BLACK
6
CONTINUOUS
10
207.7558489999999836
20
-86.1391969999999958
11
208.1235449999999787
21
-86.5068929999999909
0
LINE
8
BLACK
6
CONTINUOUS
10
127.8704970000000003
20
-86.7807959999999952
11
127.5028009999999909
21
-87.1484919999999903
0
LINE
8
BLACK
6
CONTINUOUS
10
127.5028009999999909
20
-87.1484919999999903
11
126.4421409999999923
21
-86.0878319999999917
0
LINE
8
BLACK
6
CONTINUOUS
10
126.4421409999999923
20
-86.0878319999999917
11
126.8098369999999875
21
-85.7201359999999966
0
LINE
8
BLACK
6
CONTINUOUS
10
126.8098369999999875
20
-85.7201359999999966
11
127.8704970000000003
21
-86.7807959999999952
0
LINE
8
BLACK
6
CONTINUOUS
10
137.5578590000000077
20
-86.0878319999999917
11
136.4971989999999948
21
-87.1484919999999903
0
LINE
8
BLACK
6
CONTINUOUS
10
136.4971989999999948
20
-87.1484919999999903
11
136.1295029999999997
21
-86.7807959999999952
0
LINE
8
BLACK
6
CONTINUOUS
10
136.1295029999999997
20
-86.7807959999999952
11
137.1901629999999841
21
-85.7201359999999966
0
LINE
8
BLACK
6
CONTINUOUS
10
137.1901629999999841
20
-85.7201359999999966
11
137.5578590000000077
21
-86.0878319999999917
0
LINE
8
BLACK
6
CONTINUOUS
10
197.8704970000000003
20
-86.6341709999999949
11
197.5028010000000052
21
-87.0018669999999901
0
LINE
8
BLACK
6
CONTINUOUS
10
197.5028010000000052
20
-87.0018669999999901
11
196.4421409999999923
21
-85.9412069999999915
0
LINE
8
BLACK
6
CONTINUOUS
10
196.4421409999999923
20
-85.9412069999999915
11
196.8098369999999875
21
-85.5735109999999963
0
LINE
8
BLACK
6
CONTINUOUS
10
196.8098369999999875
20
-85.5735109999999963
11
197.8704970000000003
21
-86.6341709999999949
0
LINE
8
BLACK
6
CONTINUOUS
10
207.5578589999999792
20
-85.9412069999999915
11
206.4971989999999948
21
-87.0018669999999901
0
LINE
8
BLACK
6
CONTINUOUS
10
206.4971989999999948
20
-87.0018669999999901
11
206.1295029999999997
21
-86.6341709999999949
0
LINE
8
BLACK
6
CONTINUOUS
10
206.1295029999999997
20
-86.6341709999999949
11
207.1901629999999841
21
-85.5735109999999963
0
LINE
8
BLACK
6
CONTINUOUS
10
207.1901629999999841
20
-85.5735109999999963
11
207.5578589999999792
21
-85.9412069999999915
0
LINE
8
BLACK
6
CONTINUOUS
10
128.4361820000000023
20
-86.2151109999999932
11
128.0684860000000072
21
-86.5828070000000025
0
LINE
8
BLACK
6
CONTINUOUS
10
128.0684860000000072
20
-86.5828070000000025
11
127.0078259999999943
21
-85.5221469999999897
0
LINE
8
BLACK
6
CONTINUOUS
10
127.0078259999999943
20
-85.5221469999999897
11
127.3755219999999895
21
-85.1544509999999946
0
LINE
8
BLACK
6
CONTINUOUS
10
127.3755219999999895
20
-85.1544509999999946
11
128.4361820000000023
21
-86.2151109999999932
0
LINE
8
BLACK
6
CONTINUOUS
10
136.9921740000000057
20
-85.5221469999999897
11
135.9315139999999928
21
-86.5828070000000025
0
LINE
8
BLACK
6
CONTINUOUS
10
135.9315139999999928
20
-86.5828070000000025
11
135.5638179999999977
21
-86.2151109999999932
0
LINE
8
BLACK
6
CONTINUOUS
10
135.5638179999999977
20
-86.2151109999999932
11
136.6244779999999821
21
-85.1544509999999946
0
LINE
8
BLACK
6
CONTINUOUS
10
136.6244779999999821
20
-85.1544509999999946
11
136.9921740000000057
21
-85.5221469999999897
0
LINE
8
BLACK
6
CONTINUOUS
10
198.4361820000000023
20
-86.0684859999999929
11
198.0684859999999787
21
-86.4361820000000023
0
LINE
8
BLACK
6
CONTINUOUS
10
198.0684859999999787
20
-86.4361820000000023
11
197.0078259999999943
21
-85.3755219999999895
0
LINE
8
BLACK
6
CONTINUOUS
10
197.0078259999999943
20
-85.3755219999999895
11
197.3755219999999895
21
-85.0078259999999943
0
LINE
8
BLACK
6
CONTINUOUS
10
197.3755219999999895
20
-85.0078259999999943
11
198.4361820000000023
21
-86.0684859999999929
0
LINE
8
BLACK
6
CONTINUOUS
10
206.9921739999999772
20
-85.3755219999999895
11
205.9315139999999928
21
-86.4361820000000023
0
LINE
8
BLACK
6
CONTINUOUS
10
205.9315139999999928
20
-86.4361820000000023
11
205.5638179999999977
21
-86.0684859999999929
0
LINE
8
BLACK
6
CONTINUOUS
10
205.5638179999999977
20
-86.0684859999999929
11
206.6244779999999821
21
-85.0078259999999943
0
LINE
8
BLACK
6
CONTINUOUS
10
206.6244779999999821
20
-85.0078259999999943
11
206.9921739999999772
21
-85.3755219999999895
0
LINE
8
BLACK
6
CONTINUOUS
10
129.0018670000000043
20
-85.6494259999999912
11
128.6341709999999807
21
-86.0171220000000005
0
LINE
8
BLACK
6
CONTINUOUS
10
128.6341709999999807
20
-86.0171220000000005
11
127.5735109999999963
21
-84.9564620000000019
0
LINE
8
BLACK
6
CONTINUOUS
10
127.5735109999999963
20
-84.9564620000000019
11
127.9412069999999915
21
-84.5887659999999926
0
LINE
8
BLACK
6
CONTINUOUS
10
127.9412069999999915
20
-84.5887659999999926
11
129.0018670000000043
21
-85.6494259999999912
0
LINE
8
BLACK
6
CONTINUOUS
10
136.4264890000000037
20
-84.9564620000000019
11
135.3658289999999909
21
-86.0171220000000005
0
LINE
8
BLACK
6
CONTINUOUS
10
135.3658289999999909
20
-86.0171220000000005
11
134.9981329999999957
21
-85.6494259999999912
0
LINE
8
BLACK
6
CONTINUOUS
10
134.9981329999999957
20
-85.6494259999999912
11
136.0587929999999801
21
-84.5887659999999926
0
LINE
8
BLACK
6
CONTINUOUS
10
136.0587929999999801
20
-84.5887659999999926
11
136.4264890000000037
21
-84.9564620000000019
0
LINE
8
BLACK
6
CONTINUOUS
10
199.0018670000000043
20
-85.5028009999999909
11
198.6341709999999807
21
-85.8704970000000003
0
LINE
8
BLACK
6
CONTINUOUS
10
198.6341709999999807
20
-85.8704970000000003
11
197.5735109999999963
21
-84.8098370000000017
0
LINE
8
BLACK
6
CONTINUOUS
10
197.5735109999999963
20
-84.8098370000000017
11
197.9412069999999915
21
-84.4421409999999923
0
LINE
8
BLACK
6
CONTINUOUS
10
197.9412069999999915
20
-84.4421409999999923
11
199.0018670000000043
21
-85.5028009999999909
0
LINE
8
BLACK
6
CONTINUOUS
10
206.4264890000000037
20
-84.8098370000000017
11
205.3658289999999909
21
-85.8704970000000003
0
LINE
8
BLACK
6
CONTINUOUS
10
205.3658289999999909
20
-85.8704970000000003
11
204.9981329999999957
21
-85.5028009999999909
0
LINE
8
BLACK
6
CONTINUOUS
10
204.9981329999999957
20
-85.5028009999999909
11
206.0587929999999801
21
-84.4421409999999923
0
LINE
8
BLACK
6
CONTINUOUS
10
206.0587929999999801
20
-84.4421409999999923
11
206.4264890000000037
21
-84.8098370000000017
0
LINE
8
BLACK
6
CONTINUOUS
10
129.5675530000000037
20
-85.0837399999999917
11
129.1998569999999802
21
-85.4514360000000011
0
LINE
8
BLACK
6
CONTINUOUS
10
129.1998569999999802
20
-85.4514360000000011
11
128.1391969999999958
21
-84.3907760000000025
0
LINE
8
BLACK
6
CONTINUOUS
10
128.1391969999999958
20
-84.3907760000000025
11
128.5068929999999909
21
-84.0230799999999931
0
LINE
8
BLACK
6
CONTINUOUS
10
128.5068929999999909
20
-84.0230799999999931
11
129.5675530000000037
21
-85.0837399999999917
0
LINE
8
BLACK
6
CONTINUOUS
10
135.8608030000000042
20
-84.3907760000000025
11
134.8001429999999914
21
-85.4514360000000011
0
LINE
8
BLACK
6
CONTINUOUS
10
134.8001429999999914
20
-85.4514360000000011
11
134.4324469999999963
21
-85.0837399999999917
0
LINE
8
BLACK
6
CONTINUOUS
10
134.4324469999999963
20
-85.0837399999999917
11
135.4931069999999806
21
-84.0230799999999931
0
LINE
8
BLACK
6
CONTINUOUS
10
135.4931069999999806
20
-84.0230799999999931
11
135.8608030000000042
21
-84.3907760000000025
0
LINE
8
BLACK
6
CONTINUOUS
10
199.5675530000000037
20
-84.9371149999999915
11
199.1998569999999802
21
-85.3048110000000008
0
LINE
8
BLACK
6
CONTINUOUS
10
199.1998569999999802
20
-85.3048110000000008
11
198.1391969999999958
21
-84.2441510000000022
0
LINE
8
BLACK
6
CONTINUOUS
10
198.1391969999999958
20
-84.2441510000000022
11
198.5068929999999909
21
-83.8764549999999929
0
LINE
8
BLACK
6
CONTINUOUS
10
198.5068929999999909
20
-83.8764549999999929
11
199.5675530000000037
21
-84.9371149999999915
0
LINE
8
BLACK
6
CONTINUOUS
10
205.8608030000000042
20
-84.2441510000000022
11
204.8001429999999914
21
-85.3048110000000008
0
LINE
8
BLACK
6
CONTINUOUS
10
204.8001429999999914
20
-85.3048110000000008
11
204.4324469999999963
21
-84.9371149999999915
0
LINE
8
BLACK
6
CONTINUOUS
10
204.4324469999999963
20
-84.9371149999999915
11
205.4931069999999806
21
-83.8764549999999929
0
LINE
8
BLACK
6
CONTINUOUS
10
205.4931069999999806
20
-83.8764549999999929
11
205.8608030000000042
21
-84.2441510000000022
0
LINE
8
BLACK
6
CONTINUOUS
10
130.1332380000000057
20
-84.5180549999999897
11
129.7655419999999822
21
-84.8857509999999991
0
LINE
8
BLACK
6
CONTINUOUS
10
129.7655419999999822
20
-84.8857509999999991
11
128.7048819999999978
21
-83.8250910000000005
0
LINE
8
BLACK
6
CONTINUOUS
10
128.7048819999999978
20
-83.8250910000000005
11
129.0725779999999929
21
-83.4573949999999911
0
LINE
8
BLACK
6
CONTINUOUS
10
129.0725779999999929
20
-83.4573949999999911
11
130.1332380000000057
21
-84.5180549999999897
0
LINE
8
BLACK
6
CONTINUOUS
10
135.2951180000000022
20
-83.8250910000000005
11
134.2344579999999894
21
-84.8857509999999991
0
LINE
8
BLACK
6
CONTINUOUS
10
134.2344579999999894
20
-84.8857509999999991
11
133.8667619999999943
21
-84.5180549999999897
0
LINE
8
BLACK
6
CONTINUOUS
10
133.8667619999999943
20
-84.5180549999999897
11
134.9274220000000071
21
-83.4573949999999911
0
LINE
8
BLACK
6
CONTINUOUS
10
134.9274220000000071
20
-83.4573949999999911
11
135.2951180000000022
21
-83.8250910000000005
0
LINE
8
BLACK
6
CONTINUOUS
10
200.1332379999999773
20
-84.3714299999999895
11
199.7655419999999822
21
-84.7391259999999988
0
LINE
8
BLACK
6
CONTINUOUS
10
199.7655419999999822
20
-84.7391259999999988
11
198.7048819999999978
21
-83.6784660000000002
0
LINE
8
BLACK
6
CONTINUOUS
10
198.7048819999999978
20
-83.6784660000000002
11
199.0725779999999929
21
-83.3107699999999909
0
LINE
8
BLACK
6
CONTINUOUS
10
199.0725779999999929
20
-83.3107699999999909
11
200.1332379999999773
21
-84.3714299999999895
0
LINE
8
BLACK
6
CONTINUOUS
10
205.2951180000000022
20
-83.6784660000000002
11
204.2344579999999894
21
-84.7391259999999988
0
LINE
8
BLACK
6
CONTINUOUS
10
204.2344579999999894
20
-84.7391259999999988
11
203.8667619999999943
21
-84.3714299999999895
0
LINE
8
BLACK
6
CONTINUOUS
10
203.8667619999999943
20
-84.3714299999999895
11
204.9274219999999787
21
-83.3107699999999909
0
LINE
8
BLACK
6
CONTINUOUS
10
204.9274219999999787
20
-83.3107699999999909
11
205.2951180000000022
21
-83.6784660000000002
0
LINE
8
BLACK
6
CONTINUOUS
10
130.6989240000000052
20
-83.9523689999999903
11
130.3312279999999816
21
-84.3200649999999996
0
LINE
8
BLACK
6
CONTINUOUS
10
130.3312279999999816
20
-84.3200649999999996
11
129.2705679999999973
21
-83.259405000000001
0
LINE
8
BLACK
6
CONTINUOUS
10
129.2705679999999973
20
-83.259405000000001
11
129.6382639999999924
21
-82.8917089999999916
0
LINE
8
BLACK
6
CONTINUOUS
10
129.6382639999999924
20
-82.8917089999999916
11
130.6989240000000052
21
-83.9523689999999903
0
LINE
8
BLACK
6
CONTINUOUS
10
134.7294320000000027
20
-83.259405000000001
11
133.6687719999999899
21
-84.3200649999999996
0
LINE
8
BLACK
6
CONTINUOUS
10
133.6687719999999899
20
-84.3200649999999996
11
133.3010759999999948
21
-83.9523689999999903
0
LINE
8
BLACK
6
CONTINUOUS
10
133.3010759999999948
20
-83.9523689999999903
11
134.3617360000000076
21
-82.8917089999999916
0
LINE
8
BLACK
6
CONTINUOUS
10
134.3617360000000076
20
-82.8917089999999916
11
134.7294320000000027
21
-83.259405000000001
0
LINE
8
BLACK
6
CONTINUOUS
10
200.6989239999999768
20
-83.80574399999999
11
200.3312279999999816
21
-84.1734399999999994
0
LINE
8
BLACK
6
CONTINUOUS
10
200.3312279999999816
20
-84.1734399999999994
11
199.2705679999999973
21
-83.1127800000000008
0
LINE
8
BLACK
6
CONTINUOUS
10
199.2705679999999973
20
-83.1127800000000008
11
199.6382639999999924
21
-82.7450839999999914
0
LINE
8
BLACK
6
CONTINUOUS
10
199.6382639999999924
20
-82.7450839999999914
11
200.6989239999999768
21
-83.80574399999999
0
LINE
8
BLACK
6
CONTINUOUS
10
204.7294320000000027
20
-83.1127800000000008
11
203.6687719999999899
21
-84.1734399999999994
0
LINE
8
BLACK
6
CONTINUOUS
10
203.6687719999999899
20
-84.1734399999999994
11
203.3010759999999948
21
-83.80574399999999
0
LINE
8
BLACK
6
CONTINUOUS
10
203.3010759999999948
20
-83.80574399999999
11
204.3617359999999792
21
-82.7450839999999914
0
LINE
8
BLACK
6
CONTINUOUS
10
204.3617359999999792
20
-82.7450839999999914
11
204.7294320000000027
21
-83.1127800000000008
0
LINE
8
BLACK
6
CONTINUOUS
10
131.2646090000000072
20
-83.3866840000000025
11
130.8969129999999836
21
-83.7543799999999976
0
LINE
8
BLACK
6
CONTINUOUS
10
130.8969129999999836
20
-83.7543799999999976
11
129.8362529999999992
21
-82.693719999999999
0
LINE
8
BLACK
6
CONTINUOUS
10
129.8362529999999992
20
-82.693719999999999
11
130.2039489999999944
21
-82.3260239999999897
0
LINE
8
BLACK
6
CONTINUOUS
10
130.2039489999999944
20
-82.3260239999999897
11
131.2646090000000072
21
-83.3866840000000025
0
LINE
8
BLACK
6
CONTINUOUS
10
134.1637470000000008
20
-82.693719999999999
11
133.1030869999999879
21
-83.7543799999999976
0
LINE
8
BLACK
6
CONTINUOUS
10
133.1030869999999879
20
-83.7543799999999976
11
132.7353909999999928
21
-83.3866840000000025
0
LINE
8
BLACK
6
CONTINUOUS
10
132.7353909999999928
20
-83.3866840000000025
11
133.7960510000000056
21
-82.3260239999999897
0
LINE
8
BLACK
6
CONTINUOUS
10
133.7960510000000056
20
-82.3260239999999897
11
134.1637470000000008
21
-82.693719999999999
0
LINE
8
BLACK
6
CONTINUOUS
10
201.2646089999999788
20
-83.2400590000000022
11
200.8969129999999836
21
-83.6077549999999974
0
LINE
8
BLACK
6
CONTINUOUS
10
200.8969129999999836
20
-83.6077549999999974
11
199.8362529999999992
21
-82.5470949999999988
0
LINE
8
BLACK
6
CONTINUOUS
10
199.8362529999999992
20
-82.5470949999999988
11
200.2039489999999944
21
-82.1793989999999894
0
LINE
8
BLACK
6
CONTINUOUS
10
200.2039489999999944
20
-82.1793989999999894
11
201.2646089999999788
21
-83.2400590000000022
0
LINE
8
BLACK
6
CONTINUOUS
10
204.1637470000000008
20
-82.5470949999999988
11
203.1030869999999879
21
-83.6077549999999974
0
LINE
8
BLACK
6
CONTINUOUS
10
203.1030869999999879
20
-83.6077549999999974
11
202.7353909999999928
21
-83.2400590000000022
0
LINE
8
BLACK
6
CONTINUOUS
10
202.7353909999999928
20
-83.2400590000000022
11
203.7960509999999772
21
-82.1793989999999894
0
LINE
8
BLACK
6
CONTINUOUS
10
203.7960509999999772
20
-82.1793989999999894
11
204.1637470000000008
21
-82.5470949999999988
0
LINE
8
BLACK
6
CONTINUOUS
10
158.407402999999988
20
-77.0164180000000016
11
158.4560659999999928
21
-77.0489340000000027
0
LINE
8
BLACK
6
CONTINUOUS
10
158.4560659999999928
20
-77.0489340000000027
11
158.4885819999999796
21
-77.0975969999999933
0
LINE
8
BLACK
6
CONTINUOUS
10
158.4885819999999796
20
-77.0975969999999933
11
158.5
21
-77.1550000000000011
0
LINE
8
BLACK
6
CONTINUOUS
10
158.5
20
-77.1550000000000011
11
158.5
21
-77.4549999999999983
0
LINE
8
BLACK
6
CONTINUOUS
10
158.5
20
-77.4549999999999983
11
158.4885819999999796
21
-77.5124029999999919
0
LINE
8
BLACK
6
CONTINUOUS
10
158.4885819999999796
20
-77.5124029999999919
11
158.4560659999999928
21
-77.5610659999999967
0
LINE
8
BLACK
6
CONTINUOUS
10
158.4560659999999928
20
-77.5610659999999967
11
158.407402999999988
21
-77.5935819999999978
0
LINE
8
BLACK
6
CONTINUOUS
10
158.407402999999988
20
-77.5935819999999978
11
158.3499999999999943
21
-77.6049999999999898
0
LINE
8
BLACK
6
CONTINUOUS
10
158.3499999999999943
20
-77.6049999999999898
11
156.6999999999999886
21
-77.6049999999999898
0
LINE
8
BLACK
6
CONTINUOUS
10
156.6999999999999886
20
-77.6049999999999898
11
156.642596999999995
21
-77.5935819999999978
0
LINE
8
BLACK
6
CONTINUOUS
10
156.642596999999995
20
-77.5935819999999978
11
156.5939339999999902
21
-77.5610659999999967
0
LINE
8
BLACK
6
CONTINUOUS
10
156.5939339999999902
20
-77.5610659999999967
11
156.5614180000000033
21
-77.5124029999999919
0
LINE
8
BLACK
6
CONTINUOUS
10
156.5614180000000033
20
-77.5124029999999919
11
156.5499999999999829
21
-77.4549999999999983
0
LINE
8
BLACK
6
CONTINUOUS
10
156.5499999999999829
20
-77.4549999999999983
11
156.5499999999999829
21
-77.1550000000000011
0
LINE
8
BLACK
6
CONTINUOUS
10
156.5499999999999829
20
-77.1550000000000011
11
156.5614180000000033
21
-77.0975969999999933
0
LINE
8
BLACK
6
CONTINUOUS
10
156.5614180000000033
20
-77.0975969999999933
11
156.5939339999999902
21
-77.0489340000000027
0
LINE
8
BLACK
6
CONTINUOUS
10
156.5939339999999902
20
-77.0489340000000027
11
156.642596999999995
21
-77.0164180000000016
0
LINE
8
BLACK
6
CONTINUOUS
10
156.642596999999995
20
-77.0164180000000016
11
156.6999999999999886
21
-77.0049999999999955
0
LINE
8
BLACK
6
CONTINUOUS
10
156.6999999999999886
20
-77.0049999999999955
11
158.3499999999999943
21
-77.0049999999999955
0
LINE
8
BLACK
6
CONTINUOUS
10
158.3499999999999943
20
-77.0049999999999955
11
158.407402999999988
21
-77.0164180000000016
0
LINE
8
BLACK
6
CONTINUOUS
10
163.357403000000005
20
-77.0164180000000016
11
163.4060659999999814
21
-77.0489340000000027
0
LINE
8
BLACK
6
CONTINUOUS
10
163.4060659999999814
20
-77.0489340000000027
11
163.4385819999999967
21
-77.0975969999999933
0
LINE
8
BLACK
6
CONTINUOUS
10
163.4385819999999967
20
-77.0975969999999933
11
163.4499999999999886
21
-77.1550000000000011
0
LINE
8
BLACK
6
CONTINUOUS
10
163.4499999999999886
20
-77.1550000000000011
11
163.4499999999999886
21
-77.4549999999999983
0
LINE
8
BLACK
6
CONTINUOUS
10
163.4499999999999886
20
-77.4549999999999983
11
163.4385819999999967
21
-77.5124029999999919
0
LINE
8
BLACK
6
CONTINUOUS
10
163.4385819999999967
20
-77.5124029999999919
11
163.4060659999999814
21
-77.5610659999999967
0
LINE
8
BLACK
6
CONTINUOUS
10
163.4060659999999814
20
-77.5610659999999967
11
163.357403000000005
21
-77.5935819999999978
0
LINE
8
BLACK
6
CONTINUOUS
10
163.357403000000005
20
-77.5935819999999978
11
163.2999999999999829
21
-77.6049999999999898
0
LINE
8
BLACK
6
CONTINUOUS
10
163.2999999999999829
20
-77.6049999999999898
11
161.6500000000000057
21
-77.6049999999999898
0
LINE
8
BLACK
6
CONTINUOUS
10
161.6500000000000057
20
-77.6049999999999898
11
161.5925969999999836
21
-77.5935819999999978
0
LINE
8
BLACK
6
CONTINUOUS
10
161.5925969999999836
20
-77.5935819999999978
11
161.5439339999999788
21
-77.5610659999999967
0
LINE
8
BLACK
6
CONTINUOUS
10
161.5439339999999788
20
-77.5610659999999967
11
161.5114179999999919
21
-77.5124029999999919
0
LINE
8
BLACK
6
CONTINUOUS
10
161.5114179999999919
20
-77.5124029999999919
11
161.5
21
-77.4549999999999983
0
LINE
8
BLACK
6
CONTINUOUS
10
161.5
20
-77.4549999999999983
11
161.5
21
-77.1550000000000011
0
LINE
8
BLACK
6
CONTINUOUS
10
161.5
20
-77.1550000000000011
11
161.5114179999999919
21
-77.0975969999999933
0
LINE
8
BLACK
6
CONTINUOUS
10
161.5114179999999919
20
-77.0975969999999933
11
161.5439339999999788
21
-77.0489340000000027
0
LINE
8
BLACK
6
CONTINUOUS
10
161.5439339999999788
20
-77.0489340000000027
11
161.5925969999999836
21
-77.0164180000000016
0
LINE
8
BLACK
6
CONTINUOUS
10
161.5925969999999836
20
-77.0164180000000016
11
161.6500000000000057
21
-77.0049999999999955
0
LINE
8
BLACK
6
CONTINUOUS
10
161.6500000000000057
20
-77.0049999999999955
11
163.2999999999999829
21
-77.0049999999999955
0
LINE
8
BLACK
6
CONTINUOUS
10
163.2999999999999829
20
-77.0049999999999955
11
163.357403000000005
21
-77.0164180000000016
0
LINE
8
BLACK
6
CONTINUOUS
10
158.407402999999988
20
-75.7464179999999914
11
158.4560659999999928
21
-75.7789339999999925
0
LINE
8
BLACK
6
CONTINUOUS
10
158.4560659999999928
20
-75.7789339999999925
11
158.4885819999999796
21
-75.8275969999999973
0
LINE
8
BLACK
6
CONTINUOUS
10
158.4885819999999796
20
-75.8275969999999973
11
158.5
21
-75.8849999999999909
0
LINE
8
BLACK
6
CONTINUOUS
10
158.5
20
-75.8849999999999909
11
158.5
21
-76.1850000000000023
0
LINE
8
BLACK
6
CONTINUOUS
10
158.5
20
-76.1850000000000023
11
158.4885819999999796
21
-76.2424029999999959
0
LINE
8
BLACK
6
CONTINUOUS
10
158.4885819999999796
20
-76.2424029999999959
11
158.4560659999999928
21
-76.2910660000000007
0
LINE
8
BLACK
6
CONTINUOUS
10
158.4560659999999928
20
-76.2910660000000007
11
158.407402999999988
21
-76.3235820000000018
0
LINE
8
BLACK
6
CONTINUOUS
10
158.407402999999988
20
-76.3235820000000018
11
158.3499999999999943
21
-76.3349999999999937
0
LINE
8
BLACK
6
CONTINUOUS
10
158.3499999999999943
20
-76.3349999999999937
11
156.6999999999999886
21
-76.3349999999999937
0
LINE
8
BLACK
6
CONTINUOUS
10
156.6999999999999886
20
-76.3349999999999937
11
156.642596999999995
21
-76.3235820000000018
0
LINE
8
BLACK
6
CONTINUOUS
10
156.642596999999995
20
-76.3235820000000018
11
156.5939339999999902
21
-76.2910660000000007
0
LINE
8
BLACK
6
CONTINUOUS
10
156.5939339999999902
20
-76.2910660000000007
11
156.5614180000000033
21
-76.2424029999999959
0
LINE
8
BLACK
6
CONTINUOUS
10
156.5614180000000033
20
-76.2424029999999959
11
156.5499999999999829
21
-76.1850000000000023
0
LINE
8
BLACK
6
CONTINUOUS
10
156.5499999999999829
20
-76.1850000000000023
11
156.5499999999999829
21
-75.8849999999999909
0
LINE
8
BLACK
6
CONTINUOUS
10
156.5499999999999829
20
-75.8849999999999909
11
156.5614180000000033
21
-75.8275969999999973
0
LINE
8
BLACK
6
CONTINUOUS
10
156.5614180000000033
20
-75.8275969999999973
11
156.5939339999999902
21
-75.7789339999999925
0
LINE
8
BLACK
6
CONTINUOUS
10
156.5939339999999902
20
-75.7789339999999925
11
156.642596999999995
21
-75.7464179999999914
0
LINE
8
BLACK
6
CONTINUOUS
10
156.642596999999995
20
-75.7464179999999914
11
156.6999999999999886
21
-75.7349999999999994
0
LINE
8
BLACK
6
CONTINUOUS
10
156.6999999999999886
20
-75.7349999999999994
11
158.3499999999999943
21
-75.7349999999999994
0
LINE
8
BLACK
6
CONTINUOUS
10
158.3499999999999943
20
-75.7349999999999994
11
158.407402999999988
21
-75.7464179999999914
0
LINE
8
BLACK
6
CONTINUOUS
10
163.357403000000005
20
-75.7464179999999914
11
163.4060659999999814
21
-75.7789339999999925
0
LINE
8
BLACK
6
CONTINUOUS
10
163.4060659999999814
20
-75.7789339999999925
11
163.4385819999999967
21
-75.8275969999999973
0
LINE
8
BLACK
6
CONTINUOUS
10
163.4385819999999967
20
-75.8275969999999973
11
163.4499999999999886
21
-75.8849999999999909
0
LINE
8
BLACK
6
CONTINUOUS
10
163.4499999999999886
20
-75.8849999999999909
11
163.4499999999999886
21
-76.1850000000000023
0
LINE
8
BLACK
6
CONTINUOUS
10
163.4499999999999886
20
-76.1850000000000023
11
163.4385819999999967
21
-76.2424029999999959
0
LINE
8
BLACK
6
CONTINUOUS
10
163.4385819999999967
20
-76.2424029999999959
11
163.4060659999999814
21
-76.2910660000000007
0
LINE
8
BLACK
6
CONTINUOUS
10
163.4060659999999814
20
-76.2910660000000007
11
163.357403000000005
21
-76.3235820000000018
0
LINE
8
BLACK
6
CONTINUOUS
10
163.357403000000005
20
-76.3235820000000018
11
163.2999999999999829
21
-76.3349999999999937
0
LINE
8
BLACK
6
CONTINUOUS
10
163.2999999999999829
20
-76.3349999999999937
11
161.6500000000000057
21
-76.3349999999999937
0
LINE
8
BLACK
6
CONTINUOUS
10
161.6500000000000057
20
-76.3349999999999937
11
161.5925969999999836
21
-76.3235820000000018
0
LINE
8
BLACK
6
CONTINUOUS
10
161.5925969999999836
20
-76.3235820000000018
11
161.5439339999999788
21
-76.2910660000000007
0
LINE
8
BLACK
6
CONTINUOUS
10
161.5439339999999788
20
-76.2910660000000007
11
161.5114179999999919
21
-76.2424029999999959
0
LINE
8
BLACK
6
CONTINUOUS
10
161.5114179999999919
20
-76.2424029999999959
11
161.5
21
-76.1850000000000023
0
LINE
8
BLACK
6
CONTINUOUS
10
161.5
20
-76.1850000000000023
11
161.5
21
-75.8849999999999909
0
LINE
8
BLACK
6
CONTINUOUS
10
161.5
20
-75.8849999999999909
11
161.5114179999999919
21
-75.8275969999999973
0
LINE
8
BLACK
6
CONTINUOUS
10
161.5114179999999919
20
-75.8275969999999973
11
161.5439339999999788
21
-75.7789339999999925
0
LINE
8
BLACK
6
CONTINUOUS
10
161.5439339999999788
20
-75.7789339999999925
11
161.5925969999999836
21
-75.7464179999999914
0
LINE
8
BLACK
6
CONTINUOUS
10
161.5925969999999836
20
-75.7464179999999914
11
161.6500000000000057
21
-75.7349999999999994
0
LINE
8
BLACK
6
CONTINUOUS
10
161.6500000000000057
20
-75.7349999999999994
11
163.2999999999999829
21
-75.7349999999999994
0
LINE
8
BLACK
6
CONTINUOUS
10
163.2999999999999829
20
-75.7349999999999994
11
163.357403000000005
21
-75.7464179999999914
0
LINE
8
BLACK
6
CONTINUOUS
10
158.407402999999988
20
-74.4764179999999953
11
158.4560659999999928
21
-74.5089339999999964
0
LINE
8
BLACK
6
CONTINUOUS
10
158.4560659999999928
20
-74.5089339999999964
11
158.4885819999999796
21
-74.5575970000000012
0
LINE
8
BLACK
6
CONTINUOUS
10
158.4885819999999796
20
-74.5575970000000012
11
158.5
21
-74.6149999999999949
0
LINE
8
BLACK
6
CONTINUOUS
10
158.5
20
-74.6149999999999949
11
158.5
21
-74.914999999999992
0
LINE
8
BLACK
6
CONTINUOUS
10
158.5
20
-74.914999999999992
11
158.4885819999999796
21
-74.9724029999999999
0
LINE
8
BLACK
6
CONTINUOUS
10
158.4885819999999796
20
-74.9724029999999999
11
158.4560659999999928
21
-75.0210659999999905
0
LINE
8
BLACK
6
CONTINUOUS
10
158.4560659999999928
20
-75.0210659999999905
11
158.407402999999988
21
-75.0535819999999916
0
LINE
8
BLACK
6
CONTINUOUS
10
158.407402999999988
20
-75.0535819999999916
11
158.3499999999999943
21
-75.0649999999999977
0
LINE
8
BLACK
6
CONTINUOUS
10
158.3499999999999943
20
-75.0649999999999977
11
156.6999999999999886
21
-75.0649999999999977
0
LINE
8
BLACK
6
CONTINUOUS
10
156.6999999999999886
20
-75.0649999999999977
11
156.642596999999995
21
-75.0535819999999916
0
LINE
8
BLACK
6
CONTINUOUS
10
156.642596999999995
20
-75.0535819999999916
11
156.5939339999999902
21
-75.0210659999999905
0
LINE
8
BLACK
6
CONTINUOUS
10
156.5939339999999902
20
-75.0210659999999905
11
156.5614180000000033
21
-74.9724029999999999
0
LINE
8
BLACK
6
CONTINUOUS
10
156.5614180000000033
20
-74.9724029999999999
11
156.5499999999999829
21
-74.914999999999992
0
LINE
8
BLACK
6
CONTINUOUS
10
156.5499999999999829
20
-74.914999999999992
11
156.5499999999999829
21
-74.6149999999999949
0
LINE
8
BLACK
6
CONTINUOUS
10
156.5499999999999829
20
-74.6149999999999949
11
156.5614180000000033
21
-74.5575970000000012
0
LINE
8
BLACK
6
CONTINUOUS
10
156.5614180000000033
20
-74.5575970000000012
11
156.5939339999999902
21
-74.5089339999999964
0
LINE
8
BLACK
6
CONTINUOUS
10
156.5939339999999902
20
-74.5089339999999964
11
156.642596999999995
21
-74.4764179999999953
0
LINE
8
BLACK
6
CONTINUOUS
10
156.642596999999995
20
-74.4764179999999953
11
156.6999999999999886
21
-74.4650000000000034
0
LINE
8
BLACK
6
CONTINUOUS
10
156.6999999999999886
20
-74.4650000000000034
11
158.3499999999999943
21
-74.4650000000000034
0
LINE
8
BLACK
6
CONTINUOUS
10
158.3499999999999943
20
-74.4650000000000034
11
158.407402999999988
21
-74.4764179999999953
0
LINE
8
BLACK
6
CONTINUOUS
10
163.357403000000005
20
-74.4764179999999953
11
163.4060659999999814
21
-74.5089339999999964
0
LINE
8
BLACK
6
CONTINUOUS
10
163.4060659999999814
20
-74.5089339999999964
11
163.4385819999999967
21
-74.5575970000000012
0
LINE
8
BLACK
6
CONTINUOUS
10
163.4385819999999967
20
-74.5575970000000012
11
163.4499999999999886
21
-74.6149999999999949
0
LINE
8
BLACK
6
CONTINUOUS
10
163.4499999999999886
20
-74.6149999999999949
11
163.4499999999999886
21
-74.914999999999992
0
LINE
8
BLACK
6
CONTINUOUS
10
163.4499999999999886
20
-74.914999999999992
11
163.4385819999999967
21
-74.9724029999999999
0
LINE
8
BLACK
6
CONTINUOUS
10
163.4385819999999967
20
-74.9724029999999999
11
163.4060659999999814
21
-75.0210659999999905
0
LINE
8
BLACK
6
CONTINUOUS
10
163.4060659999999814
20
-75.0210659999999905
11
163.357403000000005
21
-75.0535819999999916
0
LINE
8
BLACK
6
CONTINUOUS
10
163.357403000000005
20
-75.0535819999999916
11
163.2999999999999829
21
-75.0649999999999977
0
LINE
8
BLACK
6
CONTINUOUS
10
163.2999999999999829
20
-75.0649999999999977
11
161.6500000000000057
21
-75.0649999999999977
0
LINE
8
BLACK
6
CONTINUOUS
10
161.6500000000000057
20
-75.0649999999999977
11
161.5925969999999836
21
-75.0535819999999916
0
LINE
8
BLACK
6
CONTINUOUS
10
161.5925969999999836
20
-75.0535819999999916
11
161.5439339999999788
21
-75.0210659999999905
0
LINE
8
BLACK
6
CONTINUOUS
10
161.5439339999999788
20
-75.0210659999999905
11
161.5114179999999919
21
-74.9724029999999999
0
LINE
8
BLACK
6
CONTINUOUS
10
161.5114179999999919
20
-74.9724029999999999
11
161.5
21
-74.914999999999992
0
LINE
8
BLACK
6
CONTINUOUS
10
161.5
20
-74.914999999999992
11
161.5
21
-74.6149999999999949
0
LINE
8
BLACK
6
CONTINUOUS
10
161.5
20
-74.6149999999999949
11
161.5114179999999919
21
-74.5575970000000012
0
LINE
8
BLACK
6
CONTINUOUS
10
161.5114179999999919
20
-74.5575970000000012
11
161.5439339999999788
21
-74.5089339999999964
0
LINE
8
BLACK
6
CONTINUOUS
10
161.5439339999999788
20
-74.5089339999999964
11
161.5925969999999836
21
-74.4764179999999953
0
LINE
8
BLACK
6
CONTINUOUS
10
161.5925969999999836
20
-74.4764179999999953
11
161.6500000000000057
21
-74.4650000000000034
0
LINE
8
BLACK
6
CONTINUOUS
10
161.6500000000000057
20
-74.4650000000000034
11
163.2999999999999829
21
-74.4650000000000034
0
LINE
8
BLACK
6
CONTINUOUS
10
163.2999999999999829
20
-74.4650000000000034
11
163.357403000000005
21
-74.4764179999999953
0
LINE
8
BLACK
6
CONTINUOUS
10
158.407402999999988
20
-73.2064179999999993
11
158.4560659999999928
21
-73.2389340000000004
0
LINE
8
BLACK
6
CONTINUOUS
10
158.4560659999999928
20
-73.2389340000000004
11
158.4885819999999796
21
-73.287596999999991
0
LINE
8
BLACK
6
CONTINUOUS
10
158.4885819999999796
20
-73.287596999999991
11
158.5
21
-73.3449999999999989
0
LINE
8
BLACK
6
CONTINUOUS
10
158.5
20
-73.3449999999999989
11
158.5
21
-73.644999999999996
0
LINE
8
BLACK
6
CONTINUOUS
10
158.5
20
-73.644999999999996
11
158.4885819999999796
21
-73.7024029999999897
0
LINE
8
BLACK
6
CONTINUOUS
10
158.4885819999999796
20
-73.7024029999999897
11
158.4560659999999928
21
-73.7510659999999945
0
LINE
8
BLACK
6
CONTINUOUS
10
158.4560659999999928
20
-73.7510659999999945
11
158.407402999999988
21
-73.7835819999999956
0
LINE
8
BLACK
6
CONTINUOUS
10
158.407402999999988
20
-73.7835819999999956
11
158.3499999999999943
21
-73.7950000000000017
0
LINE
8
BLACK
6
CONTINUOUS
10
158.3499999999999943
20
-73.7950000000000017
11
156.6999999999999886
21
-73.7950000000000017
0
LINE
8
BLACK
6
CONTINUOUS
10
156.6999999999999886
20
-73.7950000000000017
11
156.642596999999995
21
-73.7835819999999956
0
LINE
8
BLACK
6
CONTINUOUS
10
156.642596999999995
20
-73.7835819999999956
11
156.5939339999999902
21
-73.7510659999999945
0
LINE
8
BLACK
6
CONTINUOUS
10
156.5939339999999902
20
-73.7510659999999945
11
156.5614180000000033
21
-73.7024029999999897
0
LINE
8
BLACK
6
CONTINUOUS
10
156.5614180000000033
20
-73.7024029999999897
11
156.5499999999999829
21
-73.644999999999996
0
LINE
8
BLACK
6
CONTINUOUS
10
156.5499999999999829
20
-73.644999999999996
11
156.5499999999999829
21
-73.3449999999999989
0
LINE
8
BLACK
6
CONTINUOUS
10
156.5499999999999829
20
-73.3449999999999989
11
156.5614180000000033
21
-73.287596999999991
0
LINE
8
BLACK
6
CONTINUOUS
10
156.5614180000000033
20
-73.287596999999991
11
156.5939339999999902
21
-73.2389340000000004
0
LINE
8
BLACK
6
CONTINUOUS
10
156.5939339999999902
20
-73.2389340000000004
11
156.642596999999995
21
-73.2064179999999993
0
LINE
8
BLACK
6
CONTINUOUS
10
156.642596999999995
20
-73.2064179999999993
11
156.6999999999999886
21
-73.1949999999999932
0
LINE
8
BLACK
6
CONTINUOUS
10
156.6999999999999886
20
-73.1949999999999932
11
158.3499999999999943
21
-73.1949999999999932
0
LINE
8
BLACK
6
CONTINUOUS
10
158.3499999999999943
20
-73.1949999999999932
11
158.407402999999988
21
-73.2064179999999993
0
LINE
8
BLACK
6
CONTINUOUS
10
163.357403000000005
20
-73.2064179999999993
11
163.4060659999999814
21
-73.2389340000000004
0
LINE
8
BLACK
6
CONTINUOUS
10
163.4060659999999814
20
-73.2389340000000004
11
163.4385819999999967
21
-73.287596999999991
0
LINE
8
BLACK
6
CONTINUOUS
10
163.4385819999999967
20
-73.287596999999991
11
163.4499999999999886
21
-73.3449999999999989
0
LINE
8
BLACK
6
CONTINUOUS
10
163.4499999999999886
20
-73.3449999999999989
11
163.4499999999999886
21
-73.644999999999996
0
LINE
8
BLACK
6
CONTINUOUS
10
163.4499999999999886
20
-73.644999999999996
11
163.4385819999999967
21
-73.7024029999999897
0
LINE
8
BLACK
6
CONTINUOUS
10
163.4385819999999967
20
-73.7024029999999897
11
163.4060659999999814
21
-73.7510659999999945
0
LINE
8
BLACK
6
CONTINUOUS
10
163.4060659999999814
20
-73.7510659999999945
11
163.357403000000005
21
-73.7835819999999956
0
LINE
8
BLACK
6
CONTINUOUS
10
163.357403000000005
20
-73.7835819999999956
11
163.2999999999999829
21
-73.7950000000000017
0
LINE
8
BLACK
6
CONTINUOUS
10
163.2999999999999829
20
-73.7950000000000017
11
161.6500000000000057
21
-73.7950000000000017
0
LINE
8
BLACK
6
CONTINUOUS
10
161.6500000000000057
20
-73.7950000000000017
11
161.5925969999999836
21
-73.7835819999999956
0
LINE
8
BLACK
6
CONTINUOUS
10
161.5925969999999836
20
-73.7835819999999956
11
161.5439339999999788
21
-73.7510659999999945
0
LINE
8
BLACK
6
CONTINUOUS
10
161.5439339999999788
20
-73.7510659999999945
11
161.5114179999999919
21
-73.7024029999999897
0
LINE
8
BLACK
6
CONTINUOUS
10
161.5114179999999919
20
-73.7024029999999897
11
161.5
21
-73.644999999999996
0
LINE
8
BLACK
6
CONTINUOUS
10
161.5
20
-73.644999999999996
11
161.5
21
-73.3449999999999989
0
LINE
8
BLACK
6
CONTINUOUS
10
161.5
20
-73.3449999999999989
11
161.5114179999999919
21
-73.287596999999991
0
LINE
8
BLACK
6
CONTINUOUS
10
161.5114179999999919
20
-73.287596999999991
11
161.5439339999999788
21
-73.2389340000000004
0
LINE
8
BLACK
6
CONTINUOUS
10
161.5439339999999788
20
-73.2389340000000004
11
161.5925969999999836
21
-73.2064179999999993
0
LINE
8
BLACK
6
CONTINUOUS
10
161.5925969999999836
20
-73.2064179999999993
11
161.6500000000000057
21
-73.1949999999999932
0
LINE
8
BLACK
6
CONTINUOUS
10
161.6500000000000057
20
-73.1949999999999932
11
163.2999999999999829
21
-73.1949999999999932
0
LINE
8
BLACK
6
CONTINUOUS
10
163.2999999999999829
20
-73.1949999999999932
11
163.357403000000005
21
-73.2064179999999993
  0
ENDSEC
  0
EOF
