<?xml version="1.0" standalone="no"?>
 <!DOCTYPE svg PUBLIC "-//W3C//DTD SVG 1.1//EN" 
 "http://www.w3.org/Graphics/SVG/1.1/DTD/svg11.dtd"> 
<svg
  xmlns:svg="http://www.w3.org/2000/svg"
  xmlns="http://www.w3.org/2000/svg"
  xmlns:xlink="http://www.w3.org/1999/xlink"
  version="1.1"
  width="19.12cm" height="5.720000000000001cm" viewBox="70.9 59.9 191.2 57.2">
<title>SVG Image created as nixie-B_Mask.svg date 2024/10/13 16:29:15 </title>
  <desc>Image generated by PCBNEW </desc>
<g style="fill:#000000; fill-opacity:1.000000;stroke:#000000; stroke-opacity:1.000000;
stroke-linecap:round; stroke-linejoin:round;"
 transform="translate(0 0) scale(1 1)">
<path style="fill:#000000; fill-opacity:1.000000; stroke:none;fill-rule:evenodd;"
d="M 167.400000,86.180000
169.000000,86.180000
169.000000,87.780000
167.400000,87.780000
Z" /> 
</g>
<g style="fill:#000000; fill-opacity:1.000000; stroke:none;">
<circle cx="165.660000" cy="86.980000" r="0.800000" /> 
<circle cx="163.120000" cy="86.980000" r="0.800000" /> 
<circle cx="160.580000" cy="86.980000" r="0.800000" /> 
<circle cx="158.040000" cy="86.980000" r="0.800000" /> 
<circle cx="155.500000" cy="86.980000" r="0.800000" /> 
<circle cx="152.960000" cy="86.980000" r="0.800000" /> 
<circle cx="150.420000" cy="86.980000" r="0.800000" /> 
<circle cx="150.420000" cy="94.600000" r="0.800000" /> 
<circle cx="152.960000" cy="94.600000" r="0.800000" /> 
<circle cx="155.500000" cy="94.600000" r="0.800000" /> 
<circle cx="158.040000" cy="94.600000" r="0.800000" /> 
<circle cx="160.580000" cy="94.600000" r="0.800000" /> 
<circle cx="163.120000" cy="94.600000" r="0.800000" /> 
<circle cx="165.660000" cy="94.600000" r="0.800000" /> 
<circle cx="168.200000" cy="94.600000" r="0.800000" /> 
<circle cx="108.120000" cy="85.000000" r="0.850000" /> 
</g>
<g style="fill:#000000; fill-opacity:1.000000; stroke:none;">
<circle cx="105.620000" cy="82.500000" r="0.850000" /> 
</g>
<g style="fill:#000000; fill-opacity:1.000000; stroke:none;">
<circle cx="103.120000" cy="85.000000" r="0.850000" /> 
</g>
<g style="fill:#000000; fill-opacity:1.000000; stroke:none;">
<circle cx="116.120000" cy="66.500000" r="0.800000" /> 
</g>
<g style="fill:#000000; fill-opacity:1.000000; stroke:none;">
<circle cx="116.120000" cy="74.120000" r="0.800000" /> 
<path style="fill:#000000; fill-opacity:1.000000; stroke:none;fill-rule:evenodd;"
d="M 117.320000,88.700000
114.920000,88.700000
114.920000,86.300000
117.320000,86.300000
Z" /> 
<circle cx="116.120000" cy="77.340000" r="1.200000" /> 
<circle cx="89.092700" cy="102.984640" r="0.673100" /> 
</g>
<g style="fill:#000000; fill-opacity:1.000000; stroke:none;">
<circle cx="78.907300" cy="102.984640" r="0.673100" /> 
</g>
<g style="fill:#000000; fill-opacity:1.000000; stroke:none;">
<circle cx="77.855740" cy="105.755780" r="0.673100" /> 
</g>
<g style="fill:#000000; fill-opacity:1.000000; stroke:none;">
<circle cx="78.213880" cy="108.694560" r="0.673100" /> 
</g>
<g style="fill:#000000; fill-opacity:1.000000; stroke:none;">
<circle cx="79.895360" cy="111.132960" r="0.673100" /> 
</g>
<g style="fill:#000000; fill-opacity:1.000000; stroke:none;">
<circle cx="82.519180" cy="112.509640" r="0.673100" /> 
</g>
<g style="fill:#000000; fill-opacity:1.000000; stroke:none;">
<circle cx="85.480820" cy="112.509640" r="0.673100" /> 
</g>
<g style="fill:#000000; fill-opacity:1.000000; stroke:none;">
<circle cx="88.104640" cy="111.132960" r="0.673100" /> 
</g>
<g style="fill:#000000; fill-opacity:1.000000; stroke:none;">
<circle cx="89.786120" cy="108.694560" r="0.673100" /> 
</g>
<g style="fill:#000000; fill-opacity:1.000000; stroke:none;">
<circle cx="90.144260" cy="105.755780" r="0.673100" /> 
</g>
<g style="fill:#000000; fill-opacity:1.000000; stroke:none;">
<circle cx="84.000000" cy="100.312560" r="0.673100" /> 
</g>
<g style="fill:#000000; fill-opacity:1.000000; stroke:none;">
<circle cx="81.124720" cy="101.021220" r="0.673100" /> 
</g>
<g style="fill:#000000; fill-opacity:1.000000; stroke:none;">
<circle cx="86.875280" cy="101.021220" r="0.673100" /> 
</g>
<g style="fill:#000000; fill-opacity:1.000000; stroke:none;">
<circle cx="235.200000" cy="82.600000" r="0.800000" /> 
</g>
<g style="fill:#000000; fill-opacity:1.000000; stroke:none;">
<circle cx="240.200000" cy="82.600000" r="0.800000" /> 
</g>
<g style="fill:#000000; fill-opacity:1.000000; stroke:none;">
<circle cx="115.092700" cy="102.984640" r="0.673100" /> 
</g>
<g style="fill:#000000; fill-opacity:1.000000; stroke:none;">
<circle cx="104.907300" cy="102.984640" r="0.673100" /> 
</g>
<g style="fill:#000000; fill-opacity:1.000000; stroke:none;">
<circle cx="103.855740" cy="105.755780" r="0.673100" /> 
</g>
<g style="fill:#000000; fill-opacity:1.000000; stroke:none;">
<circle cx="104.213880" cy="108.694560" r="0.673100" /> 
</g>
<g style="fill:#000000; fill-opacity:1.000000; stroke:none;">
<circle cx="105.895360" cy="111.132960" r="0.673100" /> 
</g>
<g style="fill:#000000; fill-opacity:1.000000; stroke:none;">
<circle cx="108.519180" cy="112.509640" r="0.673100" /> 
</g>
<g style="fill:#000000; fill-opacity:1.000000; stroke:none;">
<circle cx="111.480820" cy="112.509640" r="0.673100" /> 
</g>
<g style="fill:#000000; fill-opacity:1.000000; stroke:none;">
<circle cx="114.104640" cy="111.132960" r="0.673100" /> 
</g>
<g style="fill:#000000; fill-opacity:1.000000; stroke:none;">
<circle cx="115.786120" cy="108.694560" r="0.673100" /> 
</g>
<g style="fill:#000000; fill-opacity:1.000000; stroke:none;">
<circle cx="116.144260" cy="105.755780" r="0.673100" /> 
</g>
<g style="fill:#000000; fill-opacity:1.000000; stroke:none;">
<circle cx="110.000000" cy="100.312560" r="0.673100" /> 
</g>
<g style="fill:#000000; fill-opacity:1.000000; stroke:none;">
<circle cx="107.124720" cy="101.021220" r="0.673100" /> 
</g>
<g style="fill:#000000; fill-opacity:1.000000; stroke:none;">
<circle cx="112.875280" cy="101.021220" r="0.673100" /> 
</g>
<g style="fill:#000000; fill-opacity:1.000000; stroke:none;">
<circle cx="197.667767" cy="98.832233" r="0.800000" /> 
</g>
<g style="fill:#000000; fill-opacity:1.000000; stroke:none;">
<circle cx="194.132233" cy="102.367767" r="0.800000" /> 
</g>
<g style="fill:#000000; fill-opacity:1.000000; stroke:none;">
<circle cx="112.120000" cy="74.120000" r="0.800000" /> 
</g>
<g style="fill:#000000; fill-opacity:1.000000; stroke:none;">
<circle cx="112.120000" cy="66.500000" r="0.800000" /> 
<circle cx="89.620000" cy="66.500000" r="1.300000" /> 
</g>
<g style="fill:#000000; fill-opacity:1.000000; stroke:none;">
<circle cx="94.620000" cy="66.500000" r="1.300000" /> 
<path style="fill:#000000; fill-opacity:1.000000; stroke:none;fill-rule:evenodd;"
d="M 82.320000,65.700000
83.920000,65.700000
83.920000,67.300000
82.320000,67.300000
Z" /> 
</g>
<g style="fill:#000000; fill-opacity:1.000000; stroke:none;">
<circle cx="83.120000" cy="69.000000" r="0.800000" /> 
<path style="fill:#000000; fill-opacity:1.000000; stroke:none;fill-rule:evenodd;"
d="M 177.899999,92.350000
175.899999,92.350000
175.899999,90.350000
177.899999,90.350000
Z" /> 
</g>
<g style="fill:#000000; fill-opacity:1.000000; stroke:none;">
<circle cx="176.899999" cy="71.349999" r="1.000000" /> 
</g>
<g style="fill:#000000; fill-opacity:1.000000; stroke:none;">
<circle cx="77.620000" cy="82.500000" r="0.800000" /> 
</g>
<g style="fill:#000000; fill-opacity:1.000000; stroke:none;">
<circle cx="75.120000" cy="82.500000" r="0.800000" /> 
</g>
<g style="fill:#000000; fill-opacity:1.000000; stroke:none;">
<circle cx="208.000000" cy="113.500000" r="0.800000" /> 
</g>
<g style="fill:#000000; fill-opacity:1.000000; stroke:none;">
<circle cx="208.000000" cy="105.880000" r="0.800000" /> 
<circle cx="232.580000" cy="72.100000" r="0.800000" /> 
</g>
<g style="fill:#000000; fill-opacity:1.000000; stroke:none;">
<circle cx="240.200000" cy="72.100000" r="0.800000" /> 
<circle cx="165.000000" cy="113.500000" r="0.800000" /> 
</g>
<g style="fill:#000000; fill-opacity:1.000000; stroke:none;">
<circle cx="165.000000" cy="105.880000" r="0.800000" /> 
<path style="fill:#000000; fill-opacity:1.000000; stroke:none;fill-rule:evenodd;"
d="M 223.800000,69.800000
225.400000,69.800000
225.400000,71.400000
223.800000,71.400000
Z" /> 
<circle cx="222.060000" cy="70.600000" r="0.800000" /> 
<circle cx="219.520001" cy="70.600000" r="0.800000" /> 
<circle cx="216.980000" cy="70.600000" r="0.800000" /> 
<circle cx="214.440000" cy="70.600000" r="0.800000" /> 
<circle cx="211.900000" cy="70.600000" r="0.800000" /> 
<circle cx="209.360000" cy="70.600000" r="0.800000" /> 
<circle cx="206.819999" cy="70.600000" r="0.800000" /> 
<circle cx="204.280000" cy="70.600000" r="0.800000" /> 
<circle cx="201.740000" cy="70.600000" r="0.800000" /> 
<circle cx="199.200000" cy="70.600000" r="0.800000" /> 
<circle cx="196.660001" cy="70.600000" r="0.800000" /> 
<circle cx="194.120000" cy="70.600000" r="0.800000" /> 
<circle cx="191.580000" cy="70.600000" r="0.800000" /> 
<circle cx="191.580000" cy="78.220000" r="0.800000" /> 
<circle cx="194.120000" cy="78.220000" r="0.800000" /> 
<circle cx="196.660000" cy="78.220000" r="0.800000" /> 
<circle cx="199.200000" cy="78.220000" r="0.800000" /> 
<circle cx="201.740000" cy="78.220000" r="0.800000" /> 
<circle cx="204.280000" cy="78.220000" r="0.800000" /> 
<circle cx="206.820000" cy="78.220000" r="0.800000" /> 
<circle cx="209.360000" cy="78.220000" r="0.800000" /> 
<circle cx="211.900000" cy="78.220000" r="0.800000" /> 
<circle cx="214.440000" cy="78.220000" r="0.800000" /> 
<circle cx="216.980000" cy="78.220000" r="0.800000" /> 
<circle cx="219.520000" cy="78.220000" r="0.800000" /> 
<circle cx="222.060000" cy="78.220000" r="0.800000" /> 
<circle cx="224.600000" cy="78.220000" r="0.800000" /> 
<circle cx="251.250000" cy="89.699500" r="0.800000" /> 
</g>
<g style="fill:#000000; fill-opacity:1.000000; stroke:none;">
<circle cx="258.870000" cy="89.699500" r="0.800000" /> 
<circle cx="82.620000" cy="90.000000" r="0.800000" /> 
</g>
<g style="fill:#000000; fill-opacity:1.000000; stroke:none;">
<circle cx="75.000000" cy="90.000000" r="0.800000" /> 
<circle cx="133.587500" cy="103.500000" r="0.553720" /> 
</g>
<g style="fill:#000000; fill-opacity:1.000000; stroke:none;">
<circle cx="130.412500" cy="103.500000" r="0.553720" /> 
</g>
<g style="fill:#000000; fill-opacity:1.000000; stroke:none;">
<circle cx="232.580000" cy="75.600000" r="0.800000" /> 
</g>
<g style="fill:#000000; fill-opacity:1.000000; stroke:none;">
<circle cx="240.200000" cy="75.600000" r="0.800000" /> 
<path style="fill:#000000; fill-opacity:1.000000; stroke:none;fill-rule:evenodd;"
d="M 85.370000,85.475000
86.870000,85.475000
86.870000,86.525000
85.370000,86.525000
Z" /> 
</g>
<g style="fill:none; 
stroke:#000000; stroke-width:1.050000; stroke-opacity:1; 
stroke-linecap:round; stroke-linejoin:round;">
<path d="M86.345000 87.270000
L85.895000 87.270000
" />
<path d="M86.345000 88.540000
L85.895000 88.540000
" />
</g>
<g style="fill:#000000; fill-opacity:1.000000; stroke:none;">
<circle cx="99.000000" cy="105.810000" r="0.800000" /> 
</g>
<g style="fill:#000000; fill-opacity:1.000000; stroke:none;">
<circle cx="99.000000" cy="98.190000" r="0.800000" /> 
<circle cx="228.780000" cy="76.600000" r="0.800000" /> 
</g>
<g style="fill:#000000; fill-opacity:1.000000; stroke:none;">
<circle cx="228.780000" cy="71.600000" r="0.800000" /> 
</g>
<g style="fill:#000000; fill-opacity:1.000000; stroke:none;">
<circle cx="235.000000" cy="105.810000" r="0.800000" /> 
</g>
<g style="fill:#000000; fill-opacity:1.000000; stroke:none;">
<circle cx="235.000000" cy="98.190000" r="0.800000" /> 
<circle cx="185.092700" cy="102.984640" r="0.673100" /> 
</g>
<g style="fill:#000000; fill-opacity:1.000000; stroke:none;">
<circle cx="174.907300" cy="102.984640" r="0.673100" /> 
</g>
<g style="fill:#000000; fill-opacity:1.000000; stroke:none;">
<circle cx="173.855740" cy="105.755780" r="0.673100" /> 
</g>
<g style="fill:#000000; fill-opacity:1.000000; stroke:none;">
<circle cx="174.213880" cy="108.694560" r="0.673100" /> 
</g>
<g style="fill:#000000; fill-opacity:1.000000; stroke:none;">
<circle cx="175.895360" cy="111.132960" r="0.673100" /> 
</g>
<g style="fill:#000000; fill-opacity:1.000000; stroke:none;">
<circle cx="178.519180" cy="112.509640" r="0.673100" /> 
</g>
<g style="fill:#000000; fill-opacity:1.000000; stroke:none;">
<circle cx="181.480820" cy="112.509640" r="0.673100" /> 
</g>
<g style="fill:#000000; fill-opacity:1.000000; stroke:none;">
<circle cx="184.104640" cy="111.132960" r="0.673100" /> 
</g>
<g style="fill:#000000; fill-opacity:1.000000; stroke:none;">
<circle cx="185.786120" cy="108.694560" r="0.673100" /> 
</g>
<g style="fill:#000000; fill-opacity:1.000000; stroke:none;">
<circle cx="186.144260" cy="105.755780" r="0.673100" /> 
</g>
<g style="fill:#000000; fill-opacity:1.000000; stroke:none;">
<circle cx="180.000000" cy="100.312560" r="0.673100" /> 
</g>
<g style="fill:#000000; fill-opacity:1.000000; stroke:none;">
<circle cx="177.124720" cy="101.021220" r="0.673100" /> 
</g>
<g style="fill:#000000; fill-opacity:1.000000; stroke:none;">
<circle cx="182.875280" cy="101.021220" r="0.673100" /> 
<path style="fill:#000000; fill-opacity:1.000000; stroke:none;fill-rule:evenodd;"
d="M 79.200000,75.800000
79.200000,74.200000
80.800000,74.200000
80.800000,75.800000
Z" /> 
</g>
<g style="fill:#000000; fill-opacity:1.000000; stroke:none;">
<circle cx="80.000000" cy="77.540000" r="0.800000" /> 
<circle cx="80.000000" cy="80.080000" r="0.800000" /> 
<circle cx="80.000000" cy="82.620000" r="0.800000" /> 
<circle cx="87.620000" cy="82.620000" r="0.800000" /> 
<circle cx="87.620000" cy="80.080000" r="0.800000" /> 
<circle cx="87.620000" cy="77.540000" r="0.800000" /> 
<circle cx="87.620000" cy="75.000000" r="0.800000" /> 
<circle cx="232.700000" cy="86.100000" r="0.800000" /> 
</g>
<g style="fill:#000000; fill-opacity:1.000000; stroke:none;">
<circle cx="240.320000" cy="86.100000" r="0.800000" /> 
<circle cx="235.200000" cy="79.100000" r="0.800000" /> 
</g>
<g style="fill:#000000; fill-opacity:1.000000; stroke:none;">
<circle cx="240.200000" cy="79.100000" r="0.800000" /> 
</g>
<g style="fill:#000000; fill-opacity:1.000000; stroke:none;">
<circle cx="203.587500" cy="103.500000" r="0.553720" /> 
</g>
<g style="fill:#000000; fill-opacity:1.000000; stroke:none;">
<circle cx="200.412500" cy="103.500000" r="0.553720" /> 
</g>
<g style="fill:#000000; fill-opacity:1.000000; stroke:none;">
<circle cx="258.400000" cy="93.000000" r="0.800000" /> 
</g>
<g style="fill:#000000; fill-opacity:1.000000; stroke:none;">
<circle cx="258.400000" cy="98.000000" r="0.800000" /> 
</g>
<g style="fill:#000000; fill-opacity:1.000000; stroke:none;">
<circle cx="112.120000" cy="84.810000" r="0.800000" /> 
</g>
<g style="fill:#000000; fill-opacity:1.000000; stroke:none;">
<circle cx="112.120000" cy="77.190000" r="0.800000" /> 
<circle cx="141.600000" cy="72.000000" r="0.800000" /> 
</g>
<g style="fill:#000000; fill-opacity:1.000000; stroke:none;">
<circle cx="146.600000" cy="72.000000" r="0.800000" /> 
</g>
<g style="fill:#000000; fill-opacity:1.000000; stroke:none;">
<circle cx="239.000000" cy="105.810000" r="0.800000" /> 
</g>
<g style="fill:#000000; fill-opacity:1.000000; stroke:none;">
<circle cx="239.000000" cy="98.190000" r="0.800000" /> 
<circle cx="229.092700" cy="102.984640" r="0.673100" /> 
</g>
<g style="fill:#000000; fill-opacity:1.000000; stroke:none;">
<circle cx="218.907300" cy="102.984640" r="0.673100" /> 
</g>
<g style="fill:#000000; fill-opacity:1.000000; stroke:none;">
<circle cx="217.855740" cy="105.755780" r="0.673100" /> 
</g>
<g style="fill:#000000; fill-opacity:1.000000; stroke:none;">
<circle cx="218.213880" cy="108.694560" r="0.673100" /> 
</g>
<g style="fill:#000000; fill-opacity:1.000000; stroke:none;">
<circle cx="219.895360" cy="111.132960" r="0.673100" /> 
</g>
<g style="fill:#000000; fill-opacity:1.000000; stroke:none;">
<circle cx="222.519180" cy="112.509640" r="0.673100" /> 
</g>
<g style="fill:#000000; fill-opacity:1.000000; stroke:none;">
<circle cx="225.480820" cy="112.509640" r="0.673100" /> 
</g>
<g style="fill:#000000; fill-opacity:1.000000; stroke:none;">
<circle cx="228.104640" cy="111.132960" r="0.673100" /> 
</g>
<g style="fill:#000000; fill-opacity:1.000000; stroke:none;">
<circle cx="229.786120" cy="108.694560" r="0.673100" /> 
</g>
<g style="fill:#000000; fill-opacity:1.000000; stroke:none;">
<circle cx="230.144260" cy="105.755780" r="0.673100" /> 
</g>
<g style="fill:#000000; fill-opacity:1.000000; stroke:none;">
<circle cx="224.000000" cy="100.312560" r="0.673100" /> 
</g>
<g style="fill:#000000; fill-opacity:1.000000; stroke:none;">
<circle cx="221.124720" cy="101.021220" r="0.673100" /> 
</g>
<g style="fill:#000000; fill-opacity:1.000000; stroke:none;">
<circle cx="226.875280" cy="101.021220" r="0.673100" /> 
</g>
<g style="fill:#000000; fill-opacity:1.000000; stroke:none;">
<circle cx="94.600000" cy="111.000000" r="0.400000" /> 
</g>
<g style="fill:#000000; fill-opacity:1.000000; stroke:none;">
<circle cx="95.302944" cy="109.302944" r="0.400000" /> 
</g>
<g style="fill:#000000; fill-opacity:1.000000; stroke:none;">
<circle cx="95.302944" cy="112.697056" r="0.400000" /> 
</g>
<g style="fill:#000000; fill-opacity:1.000000; stroke:none;">
<circle cx="97.000000" cy="108.600000" r="0.400000" /> 
</g>
<g style="fill:#000000; fill-opacity:1.000000; stroke:none;">
<circle cx="97.000000" cy="111.000000" r="3.200000" /> 
</g>
<g style="fill:#000000; fill-opacity:1.000000; stroke:none;">
<circle cx="97.000000" cy="113.400000" r="0.400000" /> 
</g>
<g style="fill:#000000; fill-opacity:1.000000; stroke:none;">
<circle cx="98.697056" cy="109.302944" r="0.400000" /> 
</g>
<g style="fill:#000000; fill-opacity:1.000000; stroke:none;">
<circle cx="98.697056" cy="112.697056" r="0.400000" /> 
</g>
<g style="fill:#000000; fill-opacity:1.000000; stroke:none;">
<circle cx="99.400000" cy="111.000000" r="0.400000" /> 
</g>
<g style="fill:#000000; fill-opacity:1.000000; stroke:none;">
<circle cx="127.600000" cy="99.100000" r="0.800000" /> 
</g>
<g style="fill:#000000; fill-opacity:1.000000; stroke:none;">
<circle cx="124.064466" cy="102.635534" r="0.800000" /> 
</g>
<g style="fill:#000000; fill-opacity:1.000000; stroke:none;">
<circle cx="94.620000" cy="91.430000" r="1.750000" /> 
<path style="fill:#000000; fill-opacity:1.000000; stroke:none;fill-rule:evenodd;"
d="M 98.112500,73.770000
98.112500,75.770000
96.207500,75.770000
96.207500,73.770000
Z" /> 
</g>
<g style="fill:none; 
stroke:#000000; stroke-width:1.905000; stroke-opacity:1; 
stroke-linecap:round; stroke-linejoin:round;">
<path d="M94.620000 74.817500
L94.620000 74.722500
" />
<path d="M92.080000 74.817500
L92.080000 74.722500
" />
</g>
<g style="fill:#000000; fill-opacity:1.000000; stroke:none;">
<circle cx="95.800000" cy="105.810000" r="0.800000" /> 
</g>
<g style="fill:#000000; fill-opacity:1.000000; stroke:none;">
<circle cx="95.800000" cy="98.190000" r="0.800000" /> 
<circle cx="138.000000" cy="113.500000" r="0.800000" /> 
</g>
<g style="fill:#000000; fill-opacity:1.000000; stroke:none;">
<circle cx="138.000000" cy="105.880000" r="0.800000" /> 
<path style="fill:#000000; fill-opacity:1.000000; stroke:none;fill-rule:evenodd;"
d="M 104.820000,71.200000
106.420000,71.200000
106.420000,72.800000
104.820000,72.800000
Z" /> 
<circle cx="105.620000" cy="75.500000" r="0.800000" /> 
</g>
<g style="fill:#000000; fill-opacity:1.000000; stroke:none;">
<circle cx="154.905000" cy="67.305000" r="0.800000" /> 
</g>
<g style="fill:#000000; fill-opacity:1.000000; stroke:none;">
<circle cx="162.525000" cy="67.305000" r="0.800000" /> 
<circle cx="126.000000" cy="113.500000" r="0.800000" /> 
</g>
<g style="fill:#000000; fill-opacity:1.000000; stroke:none;">
<circle cx="126.000000" cy="105.880000" r="0.800000" /> 
<circle cx="133.587500" cy="110.500000" r="0.553720" /> 
</g>
<g style="fill:#000000; fill-opacity:1.000000; stroke:none;">
<circle cx="130.412500" cy="110.500000" r="0.553720" /> 
</g>
<g style="fill:#000000; fill-opacity:1.000000; stroke:none;">
<circle cx="121.970000" cy="74.400000" r="1.750000" /> 
<path style="fill:#000000; fill-opacity:1.000000; stroke:none;fill-rule:evenodd;"
d="M 139.630000,77.892500
137.630000,77.892500
137.630000,75.987500
139.630000,75.987500
Z" /> 
</g>
<g style="fill:none; 
stroke:#000000; stroke-width:1.905000; stroke-opacity:1; 
stroke-linecap:round; stroke-linejoin:round;">
<path d="M138.582500 74.400000
L138.677500 74.400000
" />
<path d="M138.582500 71.860000
L138.677500 71.860000
" />
</g>
<g style="fill:#000000; fill-opacity:1.000000; stroke:none;">
<circle cx="254.600000" cy="65.000000" r="0.400000" /> 
</g>
<g style="fill:#000000; fill-opacity:1.000000; stroke:none;">
<circle cx="255.302944" cy="63.302944" r="0.400000" /> 
</g>
<g style="fill:#000000; fill-opacity:1.000000; stroke:none;">
<circle cx="255.302944" cy="66.697056" r="0.400000" /> 
</g>
<g style="fill:#000000; fill-opacity:1.000000; stroke:none;">
<circle cx="257.000000" cy="62.600000" r="0.400000" /> 
</g>
<g style="fill:#000000; fill-opacity:1.000000; stroke:none;">
<circle cx="257.000000" cy="65.000000" r="3.200000" /> 
</g>
<g style="fill:#000000; fill-opacity:1.000000; stroke:none;">
<circle cx="257.000000" cy="67.400000" r="0.400000" /> 
</g>
<g style="fill:#000000; fill-opacity:1.000000; stroke:none;">
<circle cx="258.697056" cy="63.302944" r="0.400000" /> 
</g>
<g style="fill:#000000; fill-opacity:1.000000; stroke:none;">
<circle cx="258.697056" cy="66.697056" r="0.400000" /> 
</g>
<g style="fill:#000000; fill-opacity:1.000000; stroke:none;">
<circle cx="259.400000" cy="65.000000" r="0.400000" /> 
</g>
<g style="fill:#000000; fill-opacity:1.000000; stroke:none;">
<circle cx="234.600000" cy="111.000000" r="0.400000" /> 
</g>
<g style="fill:#000000; fill-opacity:1.000000; stroke:none;">
<circle cx="235.302944" cy="109.302944" r="0.400000" /> 
</g>
<g style="fill:#000000; fill-opacity:1.000000; stroke:none;">
<circle cx="235.302944" cy="112.697056" r="0.400000" /> 
</g>
<g style="fill:#000000; fill-opacity:1.000000; stroke:none;">
<circle cx="237.000000" cy="108.600000" r="0.400000" /> 
</g>
<g style="fill:#000000; fill-opacity:1.000000; stroke:none;">
<circle cx="237.000000" cy="111.000000" r="3.200000" /> 
</g>
<g style="fill:#000000; fill-opacity:1.000000; stroke:none;">
<circle cx="237.000000" cy="113.400000" r="0.400000" /> 
</g>
<g style="fill:#000000; fill-opacity:1.000000; stroke:none;">
<circle cx="238.697056" cy="109.302944" r="0.400000" /> 
</g>
<g style="fill:#000000; fill-opacity:1.000000; stroke:none;">
<circle cx="238.697056" cy="112.697056" r="0.400000" /> 
</g>
<g style="fill:#000000; fill-opacity:1.000000; stroke:none;">
<circle cx="239.400000" cy="111.000000" r="0.400000" /> 
</g>
<g style="fill:#000000; fill-opacity:1.000000; stroke:none;">
<circle cx="73.600000" cy="65.000000" r="0.400000" /> 
</g>
<g style="fill:#000000; fill-opacity:1.000000; stroke:none;">
<circle cx="74.302944" cy="63.302944" r="0.400000" /> 
</g>
<g style="fill:#000000; fill-opacity:1.000000; stroke:none;">
<circle cx="74.302944" cy="66.697056" r="0.400000" /> 
</g>
<g style="fill:#000000; fill-opacity:1.000000; stroke:none;">
<circle cx="76.000000" cy="62.600000" r="0.400000" /> 
</g>
<g style="fill:#000000; fill-opacity:1.000000; stroke:none;">
<circle cx="76.000000" cy="65.000000" r="3.200000" /> 
</g>
<g style="fill:#000000; fill-opacity:1.000000; stroke:none;">
<circle cx="76.000000" cy="67.400000" r="0.400000" /> 
</g>
<g style="fill:#000000; fill-opacity:1.000000; stroke:none;">
<circle cx="77.697056" cy="63.302944" r="0.400000" /> 
</g>
<g style="fill:#000000; fill-opacity:1.000000; stroke:none;">
<circle cx="77.697056" cy="66.697056" r="0.400000" /> 
</g>
<g style="fill:#000000; fill-opacity:1.000000; stroke:none;">
<circle cx="78.400000" cy="65.000000" r="0.400000" /> 
</g>
<g style="fill:#000000; fill-opacity:1.000000; stroke:none;">
<circle cx="196.000000" cy="113.500000" r="0.800000" /> 
</g>
<g style="fill:#000000; fill-opacity:1.000000; stroke:none;">
<circle cx="196.000000" cy="105.880000" r="0.800000" /> 
<path style="fill:#000000; fill-opacity:1.000000; stroke:none;fill-rule:evenodd;"
d="M 107.840000,65.400000
107.840000,67.600000
105.640000,67.600000
105.640000,65.400000
Z" /> 
<circle cx="99.120000" cy="66.500000" r="1.100000" /> 
<circle cx="159.092700" cy="102.984640" r="0.673100" /> 
</g>
<g style="fill:#000000; fill-opacity:1.000000; stroke:none;">
<circle cx="148.907300" cy="102.984640" r="0.673100" /> 
</g>
<g style="fill:#000000; fill-opacity:1.000000; stroke:none;">
<circle cx="147.855740" cy="105.755780" r="0.673100" /> 
</g>
<g style="fill:#000000; fill-opacity:1.000000; stroke:none;">
<circle cx="148.213880" cy="108.694560" r="0.673100" /> 
</g>
<g style="fill:#000000; fill-opacity:1.000000; stroke:none;">
<circle cx="149.895360" cy="111.132960" r="0.673100" /> 
</g>
<g style="fill:#000000; fill-opacity:1.000000; stroke:none;">
<circle cx="152.519180" cy="112.509640" r="0.673100" /> 
</g>
<g style="fill:#000000; fill-opacity:1.000000; stroke:none;">
<circle cx="155.480820" cy="112.509640" r="0.673100" /> 
</g>
<g style="fill:#000000; fill-opacity:1.000000; stroke:none;">
<circle cx="158.104640" cy="111.132960" r="0.673100" /> 
</g>
<g style="fill:#000000; fill-opacity:1.000000; stroke:none;">
<circle cx="159.786120" cy="108.694560" r="0.673100" /> 
</g>
<g style="fill:#000000; fill-opacity:1.000000; stroke:none;">
<circle cx="160.144260" cy="105.755780" r="0.673100" /> 
</g>
<g style="fill:#000000; fill-opacity:1.000000; stroke:none;">
<circle cx="154.000000" cy="100.312560" r="0.673100" /> 
</g>
<g style="fill:#000000; fill-opacity:1.000000; stroke:none;">
<circle cx="151.124720" cy="101.021220" r="0.673100" /> 
</g>
<g style="fill:#000000; fill-opacity:1.000000; stroke:none;">
<circle cx="156.875280" cy="101.021220" r="0.673100" /> 
</g>
<g style="fill:#000000; fill-opacity:1.000000; stroke:none;">
<circle cx="154.905000" cy="70.305000" r="0.800000" /> 
</g>
<g style="fill:#000000; fill-opacity:1.000000; stroke:none;">
<circle cx="162.525000" cy="70.305000" r="0.800000" /> 
<circle cx="251.200000" cy="73.600000" r="1.957500" /> 
</g>
<g style="fill:#000000; fill-opacity:1.000000; stroke:none;">
<circle cx="251.200000" cy="85.000000" r="1.957500" /> 
</g>
<g style="fill:#000000; fill-opacity:1.000000; stroke:none;">
<circle cx="243.700000" cy="76.800000" r="0.750000" /> 
</g>
<g style="fill:#000000; fill-opacity:1.000000; stroke:none;">
<circle cx="243.700000" cy="81.800000" r="0.750000" /> 
</g>
<g style="fill:#000000; fill-opacity:1.000000; stroke:none;">
<circle cx="243.700000" cy="79.300000" r="0.750000" /> 
</g>
<g style="fill:#000000; fill-opacity:1.000000; stroke:none;">
<circle cx="258.200000" cy="76.800000" r="0.750000" /> 
</g>
<g style="fill:#000000; fill-opacity:1.000000; stroke:none;">
<circle cx="258.200000" cy="81.800000" r="0.750000" /> 
</g>
<g style="fill:#000000; fill-opacity:1.000000; stroke:none;">
<circle cx="203.587500" cy="110.500000" r="0.553720" /> 
</g>
<g style="fill:#000000; fill-opacity:1.000000; stroke:none;">
<circle cx="200.412500" cy="110.500000" r="0.553720" /> 
<path style="fill:#000000; fill-opacity:1.000000; stroke:none;fill-rule:evenodd;"
d="M 76.625000,70.550000
78.325000,70.550000
78.325000,72.250000
76.625000,72.250000
Z" /> 
</g>
<g style="fill:#000000; fill-opacity:1.000000; stroke:none;">
<circle cx="74.935000" cy="71.400000" r="0.850000" /> 
<circle cx="255.092700" cy="102.984640" r="0.673100" /> 
</g>
<g style="fill:#000000; fill-opacity:1.000000; stroke:none;">
<circle cx="244.907300" cy="102.984640" r="0.673100" /> 
</g>
<g style="fill:#000000; fill-opacity:1.000000; stroke:none;">
<circle cx="243.855740" cy="105.755780" r="0.673100" /> 
</g>
<g style="fill:#000000; fill-opacity:1.000000; stroke:none;">
<circle cx="244.213880" cy="108.694560" r="0.673100" /> 
</g>
<g style="fill:#000000; fill-opacity:1.000000; stroke:none;">
<circle cx="245.895360" cy="111.132960" r="0.673100" /> 
</g>
<g style="fill:#000000; fill-opacity:1.000000; stroke:none;">
<circle cx="248.519180" cy="112.509640" r="0.673100" /> 
</g>
<g style="fill:#000000; fill-opacity:1.000000; stroke:none;">
<circle cx="251.480820" cy="112.509640" r="0.673100" /> 
</g>
<g style="fill:#000000; fill-opacity:1.000000; stroke:none;">
<circle cx="254.104640" cy="111.132960" r="0.673100" /> 
</g>
<g style="fill:#000000; fill-opacity:1.000000; stroke:none;">
<circle cx="255.786120" cy="108.694560" r="0.673100" /> 
</g>
<g style="fill:#000000; fill-opacity:1.000000; stroke:none;">
<circle cx="256.144260" cy="105.755780" r="0.673100" /> 
</g>
<g style="fill:#000000; fill-opacity:1.000000; stroke:none;">
<circle cx="250.000000" cy="100.312560" r="0.673100" /> 
</g>
<g style="fill:#000000; fill-opacity:1.000000; stroke:none;">
<circle cx="247.124720" cy="101.021220" r="0.673100" /> 
</g>
<g style="fill:#000000; fill-opacity:1.000000; stroke:none;">
<circle cx="252.875280" cy="101.021220" r="0.673100" /> 
</g>
<g style="fill:#000000; fill-opacity:1.000000; stroke:none;">
<circle cx="241.030000" cy="89.699500" r="0.800000" /> 
</g>
<g style="fill:#000000; fill-opacity:1.000000; stroke:none;">
<circle cx="248.650000" cy="89.699500" r="0.800000" /> 
<circle cx="168.100000" cy="97.500000" r="0.800000" /> 
</g>
<g style="fill:#000000; fill-opacity:1.000000; stroke:none;">
<circle cx="163.100000" cy="97.500000" r="0.800000" /> 
</g>
<g style="fill:#000000; fill-opacity:1.000000; stroke:none;">
<circle cx="151.525000" cy="72.305000" r="0.800000" /> 
</g>
<g style="fill:#000000; fill-opacity:1.000000; stroke:none;">
<circle cx="151.525000" cy="67.305000" r="0.800000" /> 
</g>
<g style="fill:#000000; fill-opacity:1.000000; stroke:none;">
<circle cx="164.700000" cy="83.600000" r="0.800000" /> 
</g>
<g style="fill:#000000; fill-opacity:1.000000; stroke:none;">
<circle cx="159.700000" cy="83.600000" r="0.800000" /> 
</g>
<g style="fill:#000000; fill-opacity:1.000000; stroke:none;">
<circle cx="169.000000" cy="113.500000" r="0.800000" /> 
</g>
<g style="fill:#000000; fill-opacity:1.000000; stroke:none;">
<circle cx="169.000000" cy="105.880000" r="0.800000" /> 
<path style="fill:#000000; fill-opacity:1.000000; stroke:none;fill-rule:evenodd;"
d="M 83.420000,85.200000
83.420000,86.800000
81.820000,86.800000
81.820000,85.200000
Z" /> 
<circle cx="75.000000" cy="86.000000" r="0.800000" /> 
<circle cx="151.525000" cy="74.685000" r="0.800000" /> 
</g>
<g style="fill:#000000; fill-opacity:1.000000; stroke:none;">
<circle cx="151.525000" cy="82.305000" r="0.800000" /> 
<circle cx="141.600000" cy="77.000000" r="0.800000" /> 
</g>
<g style="fill:#000000; fill-opacity:1.000000; stroke:none;">
<circle cx="146.600000" cy="77.000000" r="0.800000" /> 
</g>
<g style="fill:#000000; fill-opacity:1.000000; stroke:none;">
<circle cx="230.930000" cy="89.699500" r="0.800000" /> 
</g>
<g style="fill:#000000; fill-opacity:1.000000; stroke:none;">
<circle cx="238.550000" cy="89.699500" r="0.800000" /> 
<circle cx="77.120000" cy="74.500000" r="0.800000" /> 
</g>
<g style="fill:#000000; fill-opacity:1.000000; stroke:none;">
<circle cx="77.120000" cy="79.500000" r="0.800000" /> 
<path style="fill:#000000; fill-opacity:1.000000; stroke:none;fill-rule:evenodd;"
d="M 132.300000,65.805000
132.300000,68.405000
129.700000,68.405000
129.700000,65.805000
Z" /> 
</g>
<g style="fill:#000000; fill-opacity:1.000000; stroke:none;">
<circle cx="125.920000" cy="67.105000" r="1.300000" /> 
</g> 
</svg>
