<?xml version="1.0" standalone="no"?>
 <!DOCTYPE svg PUBLIC "-//W3C//DTD SVG 1.1//EN" 
 "http://www.w3.org/Graphics/SVG/1.1/DTD/svg11.dtd"> 
<svg
  xmlns:svg="http://www.w3.org/2000/svg"
  xmlns="http://www.w3.org/2000/svg"
  xmlns:xlink="http://www.w3.org/1999/xlink"
  version="1.1"
  width="19.12cm" height="5.720000000000001cm" viewBox="70.9 59.9 191.2 57.2">
<title>SVG Image created as nixie-B_SilkS.svg date 2024/10/13 16:29:15 </title>
  <desc>Image generated by PCBNEW </desc>
<g style="fill:#000000; fill-opacity:1.000000;stroke:#000000; stroke-opacity:1.000000;
stroke-linecap:round; stroke-linejoin:round;"
 transform="translate(0 0) scale(1 1)">
</g>
<g style="fill:none; 
stroke:#000000; stroke-width:0.100000; stroke-opacity:1; 
stroke-linecap:round; stroke-linejoin:round;">
<text x="252.000000" y="62.760224"
transform="scale(-1 1) translate(-504.000000 0)"
textLength="21.052382" font-size="1.333333" lengthAdjust="spacingAndGlyphs"
text-anchor="start" opacity="0" stroke-opacity="0">Nixie Clock by Pim Borman</text>
<g class="stroked-text"><desc>Nixie Clock by Pim Borman</desc>
<path d="M251.696115 62.632643
L251.696115 61.632643
" />
<path d="M251.696115 61.632643
L251.124687 62.632643
" />
<path d="M251.124687 62.632643
L251.124687 61.632643
" />
<path d="M250.648496 62.632643
L250.648496 61.965976
" />
<path d="M250.648496 61.632643
L250.696115 61.680262
" />
<path d="M250.696115 61.680262
L250.648496 61.727881
" />
<path d="M250.648496 61.727881
L250.600877 61.680262
" />
<path d="M250.600877 61.680262
L250.648496 61.632643
" />
<path d="M250.648496 61.632643
L250.648496 61.727881
" />
<path d="M250.267544 62.632643
L249.743735 61.965976
" />
<path d="M250.267544 61.965976
L249.743735 62.632643
" />
<path d="M249.362782 62.632643
L249.362782 61.965976
" />
<path d="M249.362782 61.632643
L249.410401 61.680262
" />
<path d="M249.410401 61.680262
L249.362782 61.727881
" />
<path d="M249.362782 61.727881
L249.315163 61.680262
" />
<path d="M249.315163 61.680262
L249.362782 61.632643
" />
<path d="M249.362782 61.632643
L249.362782 61.727881
" />
<path d="M248.505640 62.585024
L248.600878 62.632643
" />
<path d="M248.600878 62.632643
L248.791354 62.632643
" />
<path d="M248.791354 62.632643
L248.886592 62.585024
" />
<path d="M248.886592 62.585024
L248.934211 62.489785
" />
<path d="M248.934211 62.489785
L248.934211 62.108833
" />
<path d="M248.934211 62.108833
L248.886592 62.013595
" />
<path d="M248.886592 62.013595
L248.791354 61.965976
" />
<path d="M248.791354 61.965976
L248.600878 61.965976
" />
<path d="M248.600878 61.965976
L248.505640 62.013595
" />
<path d="M248.505640 62.013595
L248.458021 62.108833
" />
<path d="M248.458021 62.108833
L248.458021 62.204071
" />
<path d="M248.458021 62.204071
L248.934211 62.299309
" />
<path d="M246.696116 62.537404
L246.743735 62.585024
" />
<path d="M246.743735 62.585024
L246.886592 62.632643
" />
<path d="M246.886592 62.632643
L246.981830 62.632643
" />
<path d="M246.981830 62.632643
L247.124687 62.585024
" />
<path d="M247.124687 62.585024
L247.219925 62.489785
" />
<path d="M247.219925 62.489785
L247.267544 62.394547
" />
<path d="M247.267544 62.394547
L247.315163 62.204071
" />
<path d="M247.315163 62.204071
L247.315163 62.061214
" />
<path d="M247.315163 62.061214
L247.267544 61.870738
" />
<path d="M247.267544 61.870738
L247.219925 61.775500
" />
<path d="M247.219925 61.775500
L247.124687 61.680262
" />
<path d="M247.124687 61.680262
L246.981830 61.632643
" />
<path d="M246.981830 61.632643
L246.886592 61.632643
" />
<path d="M246.886592 61.632643
L246.743735 61.680262
" />
<path d="M246.743735 61.680262
L246.696116 61.727881
" />
<path d="M246.124687 62.632643
L246.219925 62.585024
" />
<path d="M246.219925 62.585024
L246.267544 62.489785
" />
<path d="M246.267544 62.489785
L246.267544 61.632643
" />
<path d="M245.600877 62.632643
L245.696115 62.585024
" />
<path d="M245.696115 62.585024
L245.743734 62.537404
" />
<path d="M245.743734 62.537404
L245.791353 62.442166
" />
<path d="M245.791353 62.442166
L245.791353 62.156452
" />
<path d="M245.791353 62.156452
L245.743734 62.061214
" />
<path d="M245.743734 62.061214
L245.696115 62.013595
" />
<path d="M245.696115 62.013595
L245.600877 61.965976
" />
<path d="M245.600877 61.965976
L245.458020 61.965976
" />
<path d="M245.458020 61.965976
L245.362782 62.013595
" />
<path d="M245.362782 62.013595
L245.315163 62.061214
" />
<path d="M245.315163 62.061214
L245.267544 62.156452
" />
<path d="M245.267544 62.156452
L245.267544 62.442166
" />
<path d="M245.267544 62.442166
L245.315163 62.537404
" />
<path d="M245.315163 62.537404
L245.362782 62.585024
" />
<path d="M245.362782 62.585024
L245.458020 62.632643
" />
<path d="M245.458020 62.632643
L245.600877 62.632643
" />
<path d="M244.410401 62.585024
L244.505639 62.632643
" />
<path d="M244.505639 62.632643
L244.696115 62.632643
" />
<path d="M244.696115 62.632643
L244.791353 62.585024
" />
<path d="M244.791353 62.585024
L244.838972 62.537404
" />
<path d="M244.838972 62.537404
L244.886591 62.442166
" />
<path d="M244.886591 62.442166
L244.886591 62.156452
" />
<path d="M244.886591 62.156452
L244.838972 62.061214
" />
<path d="M244.838972 62.061214
L244.791353 62.013595
" />
<path d="M244.791353 62.013595
L244.696115 61.965976
" />
<path d="M244.696115 61.965976
L244.505639 61.965976
" />
<path d="M244.505639 61.965976
L244.410401 62.013595
" />
<path d="M243.981829 62.632643
L243.981829 61.632643
" />
<path d="M243.886591 62.251690
L243.600877 62.632643
" />
<path d="M243.600877 61.965976
L243.981829 62.346928
" />
<path d="M242.410400 62.632643
L242.410400 61.632643
" />
<path d="M242.410400 62.013595
L242.315162 61.965976
" />
<path d="M242.315162 61.965976
L242.124686 61.965976
" />
<path d="M242.124686 61.965976
L242.029448 62.013595
" />
<path d="M242.029448 62.013595
L241.981829 62.061214
" />
<path d="M241.981829 62.061214
L241.934210 62.156452
" />
<path d="M241.934210 62.156452
L241.934210 62.442166
" />
<path d="M241.934210 62.442166
L241.981829 62.537404
" />
<path d="M241.981829 62.537404
L242.029448 62.585024
" />
<path d="M242.029448 62.585024
L242.124686 62.632643
" />
<path d="M242.124686 62.632643
L242.315162 62.632643
" />
<path d="M242.315162 62.632643
L242.410400 62.585024
" />
<path d="M241.600876 61.965976
L241.362781 62.632643
" />
<path d="M241.124686 61.965976
L241.362781 62.632643
" />
<path d="M241.362781 62.632643
L241.458019 62.870738
" />
<path d="M241.458019 62.870738
L241.505638 62.918357
" />
<path d="M241.505638 62.918357
L241.600876 62.965976
" />
<path d="M239.981828 62.632643
L239.981828 61.632643
" />
<path d="M239.981828 61.632643
L239.600876 61.632643
" />
<path d="M239.600876 61.632643
L239.505638 61.680262
" />
<path d="M239.505638 61.680262
L239.458019 61.727881
" />
<path d="M239.458019 61.727881
L239.410400 61.823119
" />
<path d="M239.410400 61.823119
L239.410400 61.965976
" />
<path d="M239.410400 61.965976
L239.458019 62.061214
" />
<path d="M239.458019 62.061214
L239.505638 62.108833
" />
<path d="M239.505638 62.108833
L239.600876 62.156452
" />
<path d="M239.600876 62.156452
L239.981828 62.156452
" />
<path d="M238.981828 62.632643
L238.981828 61.965976
" />
<path d="M238.981828 61.632643
L239.029447 61.680262
" />
<path d="M239.029447 61.680262
L238.981828 61.727881
" />
<path d="M238.981828 61.727881
L238.934209 61.680262
" />
<path d="M238.934209 61.680262
L238.981828 61.632643
" />
<path d="M238.981828 61.632643
L238.981828 61.727881
" />
<path d="M238.505638 62.632643
L238.505638 61.965976
" />
<path d="M238.505638 62.061214
L238.458019 62.013595
" />
<path d="M238.458019 62.013595
L238.362781 61.965976
" />
<path d="M238.362781 61.965976
L238.219924 61.965976
" />
<path d="M238.219924 61.965976
L238.124686 62.013595
" />
<path d="M238.124686 62.013595
L238.077067 62.108833
" />
<path d="M238.077067 62.108833
L238.077067 62.632643
" />
<path d="M238.077067 62.108833
L238.029448 62.013595
" />
<path d="M238.029448 62.013595
L237.934210 61.965976
" />
<path d="M237.934210 61.965976
L237.791353 61.965976
" />
<path d="M237.791353 61.965976
L237.696114 62.013595
" />
<path d="M237.696114 62.013595
L237.648495 62.108833
" />
<path d="M237.648495 62.108833
L237.648495 62.632643
" />
<path d="M236.077067 62.108833
L235.934210 62.156452
" />
<path d="M235.934210 62.156452
L235.886591 62.204071
" />
<path d="M235.886591 62.204071
L235.838972 62.299309
" />
<path d="M235.838972 62.299309
L235.838972 62.442166
" />
<path d="M235.838972 62.442166
L235.886591 62.537404
" />
<path d="M235.886591 62.537404
L235.934210 62.585024
" />
<path d="M235.934210 62.585024
L236.029448 62.632643
" />
<path d="M236.029448 62.632643
L236.410400 62.632643
" />
<path d="M236.410400 62.632643
L236.410400 61.632643
" />
<path d="M236.410400 61.632643
L236.077067 61.632643
" />
<path d="M236.077067 61.632643
L235.981829 61.680262
" />
<path d="M235.981829 61.680262
L235.934210 61.727881
" />
<path d="M235.934210 61.727881
L235.886591 61.823119
" />
<path d="M235.886591 61.823119
L235.886591 61.918357
" />
<path d="M235.886591 61.918357
L235.934210 62.013595
" />
<path d="M235.934210 62.013595
L235.981829 62.061214
" />
<path d="M235.981829 62.061214
L236.077067 62.108833
" />
<path d="M236.077067 62.108833
L236.410400 62.108833
" />
<path d="M235.267543 62.632643
L235.362781 62.585024
" />
<path d="M235.362781 62.585024
L235.410400 62.537404
" />
<path d="M235.410400 62.537404
L235.458019 62.442166
" />
<path d="M235.458019 62.442166
L235.458019 62.156452
" />
<path d="M235.458019 62.156452
L235.410400 62.061214
" />
<path d="M235.410400 62.061214
L235.362781 62.013595
" />
<path d="M235.362781 62.013595
L235.267543 61.965976
" />
<path d="M235.267543 61.965976
L235.124686 61.965976
" />
<path d="M235.124686 61.965976
L235.029448 62.013595
" />
<path d="M235.029448 62.013595
L234.981829 62.061214
" />
<path d="M234.981829 62.061214
L234.934210 62.156452
" />
<path d="M234.934210 62.156452
L234.934210 62.442166
" />
<path d="M234.934210 62.442166
L234.981829 62.537404
" />
<path d="M234.981829 62.537404
L235.029448 62.585024
" />
<path d="M235.029448 62.585024
L235.124686 62.632643
" />
<path d="M235.124686 62.632643
L235.267543 62.632643
" />
<path d="M234.505638 62.632643
L234.505638 61.965976
" />
<path d="M234.505638 62.156452
L234.458019 62.061214
" />
<path d="M234.458019 62.061214
L234.410400 62.013595
" />
<path d="M234.410400 62.013595
L234.315162 61.965976
" />
<path d="M234.315162 61.965976
L234.219924 61.965976
" />
<path d="M233.886590 62.632643
L233.886590 61.965976
" />
<path d="M233.886590 62.061214
L233.838971 62.013595
" />
<path d="M233.838971 62.013595
L233.743733 61.965976
" />
<path d="M233.743733 61.965976
L233.600876 61.965976
" />
<path d="M233.600876 61.965976
L233.505638 62.013595
" />
<path d="M233.505638 62.013595
L233.458019 62.108833
" />
<path d="M233.458019 62.108833
L233.458019 62.632643
" />
<path d="M233.458019 62.108833
L233.410400 62.013595
" />
<path d="M233.410400 62.013595
L233.315162 61.965976
" />
<path d="M233.315162 61.965976
L233.172305 61.965976
" />
<path d="M233.172305 61.965976
L233.077066 62.013595
" />
<path d="M233.077066 62.013595
L233.029447 62.108833
" />
<path d="M233.029447 62.108833
L233.029447 62.632643
" />
<path d="M232.124686 62.632643
L232.124686 62.108833
" />
<path d="M232.124686 62.108833
L232.172305 62.013595
" />
<path d="M232.172305 62.013595
L232.267543 61.965976
" />
<path d="M232.267543 61.965976
L232.458019 61.965976
" />
<path d="M232.458019 61.965976
L232.553257 62.013595
" />
<path d="M232.124686 62.585024
L232.219924 62.632643
" />
<path d="M232.219924 62.632643
L232.458019 62.632643
" />
<path d="M232.458019 62.632643
L232.553257 62.585024
" />
<path d="M232.553257 62.585024
L232.600876 62.489785
" />
<path d="M232.600876 62.489785
L232.600876 62.394547
" />
<path d="M232.600876 62.394547
L232.553257 62.299309
" />
<path d="M232.553257 62.299309
L232.458019 62.251690
" />
<path d="M232.458019 62.251690
L232.219924 62.251690
" />
<path d="M232.219924 62.251690
L232.124686 62.204071
" />
<path d="M231.648495 61.965976
L231.648495 62.632643
" />
<path d="M231.648495 62.061214
L231.600876 62.013595
" />
<path d="M231.600876 62.013595
L231.505638 61.965976
" />
<path d="M231.505638 61.965976
L231.362781 61.965976
" />
<path d="M231.362781 61.965976
L231.267543 62.013595
" />
<path d="M231.267543 62.013595
L231.219924 62.108833
" />
<path d="M231.219924 62.108833
L231.219924 62.632643
" />
</g><text x="252.000000" y="64.370168"
transform="scale(-1 1) translate(-504.000000 0)"
textLength="9.433334" font-size="1.333333" lengthAdjust="spacingAndGlyphs"
text-anchor="start" opacity="0" stroke-opacity="0">Version v1.1</text>
<g class="stroked-text"><desc>Version v1.1</desc>
<path d="M251.838972 63.242587
L251.505639 64.242587
" />
<path d="M251.505639 64.242587
L251.172306 63.242587
" />
<path d="M250.458020 64.194968
L250.553258 64.242587
" />
<path d="M250.553258 64.242587
L250.743734 64.242587
" />
<path d="M250.743734 64.242587
L250.838972 64.194968
" />
<path d="M250.838972 64.194968
L250.886591 64.099729
" />
<path d="M250.886591 64.099729
L250.886591 63.718777
" />
<path d="M250.886591 63.718777
L250.838972 63.623539
" />
<path d="M250.838972 63.623539
L250.743734 63.575920
" />
<path d="M250.743734 63.575920
L250.553258 63.575920
" />
<path d="M250.553258 63.575920
L250.458020 63.623539
" />
<path d="M250.458020 63.623539
L250.410401 63.718777
" />
<path d="M250.410401 63.718777
L250.410401 63.814015
" />
<path d="M250.410401 63.814015
L250.886591 63.909253
" />
<path d="M249.981829 64.242587
L249.981829 63.575920
" />
<path d="M249.981829 63.766396
L249.934210 63.671158
" />
<path d="M249.934210 63.671158
L249.886591 63.623539
" />
<path d="M249.886591 63.623539
L249.791353 63.575920
" />
<path d="M249.791353 63.575920
L249.696115 63.575920
" />
<path d="M249.410400 64.194968
L249.315162 64.242587
" />
<path d="M249.315162 64.242587
L249.124686 64.242587
" />
<path d="M249.124686 64.242587
L249.029448 64.194968
" />
<path d="M249.029448 64.194968
L248.981829 64.099729
" />
<path d="M248.981829 64.099729
L248.981829 64.052110
" />
<path d="M248.981829 64.052110
L249.029448 63.956872
" />
<path d="M249.029448 63.956872
L249.124686 63.909253
" />
<path d="M249.124686 63.909253
L249.267543 63.909253
" />
<path d="M249.267543 63.909253
L249.362781 63.861634
" />
<path d="M249.362781 63.861634
L249.410400 63.766396
" />
<path d="M249.410400 63.766396
L249.410400 63.718777
" />
<path d="M249.410400 63.718777
L249.362781 63.623539
" />
<path d="M249.362781 63.623539
L249.267543 63.575920
" />
<path d="M249.267543 63.575920
L249.124686 63.575920
" />
<path d="M249.124686 63.575920
L249.029448 63.623539
" />
<path d="M248.553257 64.242587
L248.553257 63.575920
" />
<path d="M248.553257 63.242587
L248.600876 63.290206
" />
<path d="M248.600876 63.290206
L248.553257 63.337825
" />
<path d="M248.553257 63.337825
L248.505638 63.290206
" />
<path d="M248.505638 63.290206
L248.553257 63.242587
" />
<path d="M248.553257 63.242587
L248.553257 63.337825
" />
<path d="M247.934210 64.242587
L248.029448 64.194968
" />
<path d="M248.029448 64.194968
L248.077067 64.147348
" />
<path d="M248.077067 64.147348
L248.124686 64.052110
" />
<path d="M248.124686 64.052110
L248.124686 63.766396
" />
<path d="M248.124686 63.766396
L248.077067 63.671158
" />
<path d="M248.077067 63.671158
L248.029448 63.623539
" />
<path d="M248.029448 63.623539
L247.934210 63.575920
" />
<path d="M247.934210 63.575920
L247.791353 63.575920
" />
<path d="M247.791353 63.575920
L247.696115 63.623539
" />
<path d="M247.696115 63.623539
L247.648496 63.671158
" />
<path d="M247.648496 63.671158
L247.600877 63.766396
" />
<path d="M247.600877 63.766396
L247.600877 64.052110
" />
<path d="M247.600877 64.052110
L247.648496 64.147348
" />
<path d="M247.648496 64.147348
L247.696115 64.194968
" />
<path d="M247.696115 64.194968
L247.791353 64.242587
" />
<path d="M247.791353 64.242587
L247.934210 64.242587
" />
<path d="M247.172305 63.575920
L247.172305 64.242587
" />
<path d="M247.172305 63.671158
L247.124686 63.623539
" />
<path d="M247.124686 63.623539
L247.029448 63.575920
" />
<path d="M247.029448 63.575920
L246.886591 63.575920
" />
<path d="M246.886591 63.575920
L246.791353 63.623539
" />
<path d="M246.791353 63.623539
L246.743734 63.718777
" />
<path d="M246.743734 63.718777
L246.743734 64.242587
" />
<path d="M245.600876 63.575920
L245.362781 64.242587
" />
<path d="M245.362781 64.242587
L245.124686 63.575920
" />
<path d="M244.219924 64.242587
L244.791352 64.242587
" />
<path d="M244.505638 64.242587
L244.505638 63.242587
" />
<path d="M244.505638 63.242587
L244.600876 63.385444
" />
<path d="M244.600876 63.385444
L244.696114 63.480682
" />
<path d="M244.696114 63.480682
L244.791352 63.528301
" />
<path d="M243.791352 64.147348
L243.743733 64.194968
" />
<path d="M243.743733 64.194968
L243.791352 64.242587
" />
<path d="M243.791352 64.242587
L243.838971 64.194968
" />
<path d="M243.838971 64.194968
L243.791352 64.147348
" />
<path d="M243.791352 64.147348
L243.791352 64.242587
" />
<path d="M242.791353 64.242587
L243.362781 64.242587
" />
<path d="M243.077067 64.242587
L243.077067 63.242587
" />
<path d="M243.077067 63.242587
L243.172305 63.385444
" />
<path d="M243.172305 63.385444
L243.267543 63.480682
" />
<path d="M243.267543 63.480682
L243.362781 63.528301
" />
</g><text x="252.000000" y="65.980112"
transform="scale(-1 1) translate(-504.000000 0)"
textLength="14.290477" font-size="1.333333" lengthAdjust="spacingAndGlyphs"
text-anchor="start" opacity="0" stroke-opacity="0">Date 2024-10-13</text>
<g class="stroked-text"><desc>Date 2024-10-13</desc>
<path d="M251.696115 65.852531
L251.696115 64.852531
" />
<path d="M251.696115 64.852531
L251.458020 64.852531
" />
<path d="M251.458020 64.852531
L251.315163 64.900150
" />
<path d="M251.315163 64.900150
L251.219925 64.995388
" />
<path d="M251.219925 64.995388
L251.172306 65.090626
" />
<path d="M251.172306 65.090626
L251.124687 65.281102
" />
<path d="M251.124687 65.281102
L251.124687 65.423959
" />
<path d="M251.124687 65.423959
L251.172306 65.614435
" />
<path d="M251.172306 65.614435
L251.219925 65.709673
" />
<path d="M251.219925 65.709673
L251.315163 65.804912
" />
<path d="M251.315163 65.804912
L251.458020 65.852531
" />
<path d="M251.458020 65.852531
L251.696115 65.852531
" />
<path d="M250.267544 65.852531
L250.267544 65.328721
" />
<path d="M250.267544 65.328721
L250.315163 65.233483
" />
<path d="M250.315163 65.233483
L250.410401 65.185864
" />
<path d="M250.410401 65.185864
L250.600877 65.185864
" />
<path d="M250.600877 65.185864
L250.696115 65.233483
" />
<path d="M250.267544 65.804912
L250.362782 65.852531
" />
<path d="M250.362782 65.852531
L250.600877 65.852531
" />
<path d="M250.600877 65.852531
L250.696115 65.804912
" />
<path d="M250.696115 65.804912
L250.743734 65.709673
" />
<path d="M250.743734 65.709673
L250.743734 65.614435
" />
<path d="M250.743734 65.614435
L250.696115 65.519197
" />
<path d="M250.696115 65.519197
L250.600877 65.471578
" />
<path d="M250.600877 65.471578
L250.362782 65.471578
" />
<path d="M250.362782 65.471578
L250.267544 65.423959
" />
<path d="M249.934210 65.185864
L249.553258 65.185864
" />
<path d="M249.791353 64.852531
L249.791353 65.709673
" />
<path d="M249.791353 65.709673
L249.743734 65.804912
" />
<path d="M249.743734 65.804912
L249.648496 65.852531
" />
<path d="M249.648496 65.852531
L249.553258 65.852531
" />
<path d="M248.838972 65.804912
L248.934210 65.852531
" />
<path d="M248.934210 65.852531
L249.124686 65.852531
" />
<path d="M249.124686 65.852531
L249.219924 65.804912
" />
<path d="M249.219924 65.804912
L249.267543 65.709673
" />
<path d="M249.267543 65.709673
L249.267543 65.328721
" />
<path d="M249.267543 65.328721
L249.219924 65.233483
" />
<path d="M249.219924 65.233483
L249.124686 65.185864
" />
<path d="M249.124686 65.185864
L248.934210 65.185864
" />
<path d="M248.934210 65.185864
L248.838972 65.233483
" />
<path d="M248.838972 65.233483
L248.791353 65.328721
" />
<path d="M248.791353 65.328721
L248.791353 65.423959
" />
<path d="M248.791353 65.423959
L249.267543 65.519197
" />
<path d="M247.648495 64.947769
L247.600876 64.900150
" />
<path d="M247.600876 64.900150
L247.505638 64.852531
" />
<path d="M247.505638 64.852531
L247.267543 64.852531
" />
<path d="M247.267543 64.852531
L247.172305 64.900150
" />
<path d="M247.172305 64.900150
L247.124686 64.947769
" />
<path d="M247.124686 64.947769
L247.077067 65.043007
" />
<path d="M247.077067 65.043007
L247.077067 65.138245
" />
<path d="M247.077067 65.138245
L247.124686 65.281102
" />
<path d="M247.124686 65.281102
L247.696114 65.852531
" />
<path d="M247.696114 65.852531
L247.077067 65.852531
" />
<path d="M246.458019 64.852531
L246.362781 64.852531
" />
<path d="M246.362781 64.852531
L246.267543 64.900150
" />
<path d="M246.267543 64.900150
L246.219924 64.947769
" />
<path d="M246.219924 64.947769
L246.172305 65.043007
" />
<path d="M246.172305 65.043007
L246.124686 65.233483
" />
<path d="M246.124686 65.233483
L246.124686 65.471578
" />
<path d="M246.124686 65.471578
L246.172305 65.662054
" />
<path d="M246.172305 65.662054
L246.219924 65.757292
" />
<path d="M246.219924 65.757292
L246.267543 65.804912
" />
<path d="M246.267543 65.804912
L246.362781 65.852531
" />
<path d="M246.362781 65.852531
L246.458019 65.852531
" />
<path d="M246.458019 65.852531
L246.553257 65.804912
" />
<path d="M246.553257 65.804912
L246.600876 65.757292
" />
<path d="M246.600876 65.757292
L246.648495 65.662054
" />
<path d="M246.648495 65.662054
L246.696114 65.471578
" />
<path d="M246.696114 65.471578
L246.696114 65.233483
" />
<path d="M246.696114 65.233483
L246.648495 65.043007
" />
<path d="M246.648495 65.043007
L246.600876 64.947769
" />
<path d="M246.600876 64.947769
L246.553257 64.900150
" />
<path d="M246.553257 64.900150
L246.458019 64.852531
" />
<path d="M245.743733 64.947769
L245.696114 64.900150
" />
<path d="M245.696114 64.900150
L245.600876 64.852531
" />
<path d="M245.600876 64.852531
L245.362781 64.852531
" />
<path d="M245.362781 64.852531
L245.267543 64.900150
" />
<path d="M245.267543 64.900150
L245.219924 64.947769
" />
<path d="M245.219924 64.947769
L245.172305 65.043007
" />
<path d="M245.172305 65.043007
L245.172305 65.138245
" />
<path d="M245.172305 65.138245
L245.219924 65.281102
" />
<path d="M245.219924 65.281102
L245.791352 65.852531
" />
<path d="M245.791352 65.852531
L245.172305 65.852531
" />
<path d="M244.315162 65.185864
L244.315162 65.852531
" />
<path d="M244.553257 64.804912
L244.791352 65.519197
" />
<path d="M244.791352 65.519197
L244.172305 65.519197
" />
<path d="M243.791352 65.471578
L243.029448 65.471578
" />
<path d="M242.029448 65.852531
L242.600876 65.852531
" />
<path d="M242.315162 65.852531
L242.315162 64.852531
" />
<path d="M242.315162 64.852531
L242.410400 64.995388
" />
<path d="M242.410400 64.995388
L242.505638 65.090626
" />
<path d="M242.505638 65.090626
L242.600876 65.138245
" />
<path d="M241.410400 64.852531
L241.315162 64.852531
" />
<path d="M241.315162 64.852531
L241.219924 64.900150
" />
<path d="M241.219924 64.900150
L241.172305 64.947769
" />
<path d="M241.172305 64.947769
L241.124686 65.043007
" />
<path d="M241.124686 65.043007
L241.077067 65.233483
" />
<path d="M241.077067 65.233483
L241.077067 65.471578
" />
<path d="M241.077067 65.471578
L241.124686 65.662054
" />
<path d="M241.124686 65.662054
L241.172305 65.757292
" />
<path d="M241.172305 65.757292
L241.219924 65.804912
" />
<path d="M241.219924 65.804912
L241.315162 65.852531
" />
<path d="M241.315162 65.852531
L241.410400 65.852531
" />
<path d="M241.410400 65.852531
L241.505638 65.804912
" />
<path d="M241.505638 65.804912
L241.553257 65.757292
" />
<path d="M241.553257 65.757292
L241.600876 65.662054
" />
<path d="M241.600876 65.662054
L241.648495 65.471578
" />
<path d="M241.648495 65.471578
L241.648495 65.233483
" />
<path d="M241.648495 65.233483
L241.600876 65.043007
" />
<path d="M241.600876 65.043007
L241.553257 64.947769
" />
<path d="M241.553257 64.947769
L241.505638 64.900150
" />
<path d="M241.505638 64.900150
L241.410400 64.852531
" />
<path d="M240.648495 65.471578
L239.886591 65.471578
" />
<path d="M238.886591 65.852531
L239.458019 65.852531
" />
<path d="M239.172305 65.852531
L239.172305 64.852531
" />
<path d="M239.172305 64.852531
L239.267543 64.995388
" />
<path d="M239.267543 64.995388
L239.362781 65.090626
" />
<path d="M239.362781 65.090626
L239.458019 65.138245
" />
<path d="M238.553257 64.852531
L237.934210 64.852531
" />
<path d="M237.934210 64.852531
L238.267543 65.233483
" />
<path d="M238.267543 65.233483
L238.124686 65.233483
" />
<path d="M238.124686 65.233483
L238.029448 65.281102
" />
<path d="M238.029448 65.281102
L237.981829 65.328721
" />
<path d="M237.981829 65.328721
L237.934210 65.423959
" />
<path d="M237.934210 65.423959
L237.934210 65.662054
" />
<path d="M237.934210 65.662054
L237.981829 65.757292
" />
<path d="M237.981829 65.757292
L238.029448 65.804912
" />
<path d="M238.029448 65.804912
L238.124686 65.852531
" />
<path d="M238.124686 65.852531
L238.410400 65.852531
" />
<path d="M238.410400 65.852531
L238.505638 65.804912
" />
<path d="M238.505638 65.804912
L238.553257 65.757292
" />
</g><text x="252.000000" y="67.590056"
transform="scale(-1 1) translate(-504.000000 0)"
textLength="33.766667" font-size="1.333333" lengthAdjust="spacingAndGlyphs"
text-anchor="start" opacity="0" stroke-opacity="0">https://github.com/pimborman/nixie-clock</text>
<g class="stroked-text"><desc>https://github.com/pimborman/nixie-clock</desc>
<path d="M251.696115 67.462475
L251.696115 66.462475
" />
<path d="M251.267544 67.462475
L251.267544 66.938665
" />
<path d="M251.267544 66.938665
L251.315163 66.843427
" />
<path d="M251.315163 66.843427
L251.410401 66.795808
" />
<path d="M251.410401 66.795808
L251.553258 66.795808
" />
<path d="M251.553258 66.795808
L251.648496 66.843427
" />
<path d="M251.648496 66.843427
L251.696115 66.891046
" />
<path d="M250.934210 66.795808
L250.553258 66.795808
" />
<path d="M250.791353 66.462475
L250.791353 67.319617
" />
<path d="M250.791353 67.319617
L250.743734 67.414856
" />
<path d="M250.743734 67.414856
L250.648496 67.462475
" />
<path d="M250.648496 67.462475
L250.553258 67.462475
" />
<path d="M250.362781 66.795808
L249.981829 66.795808
" />
<path d="M250.219924 66.462475
L250.219924 67.319617
" />
<path d="M250.219924 67.319617
L250.172305 67.414856
" />
<path d="M250.172305 67.414856
L250.077067 67.462475
" />
<path d="M250.077067 67.462475
L249.981829 67.462475
" />
<path d="M249.648495 66.795808
L249.648495 67.795808
" />
<path d="M249.648495 66.843427
L249.553257 66.795808
" />
<path d="M249.553257 66.795808
L249.362781 66.795808
" />
<path d="M249.362781 66.795808
L249.267543 66.843427
" />
<path d="M249.267543 66.843427
L249.219924 66.891046
" />
<path d="M249.219924 66.891046
L249.172305 66.986284
" />
<path d="M249.172305 66.986284
L249.172305 67.271998
" />
<path d="M249.172305 67.271998
L249.219924 67.367236
" />
<path d="M249.219924 67.367236
L249.267543 67.414856
" />
<path d="M249.267543 67.414856
L249.362781 67.462475
" />
<path d="M249.362781 67.462475
L249.553257 67.462475
" />
<path d="M249.553257 67.462475
L249.648495 67.414856
" />
<path d="M248.791352 67.414856
L248.696114 67.462475
" />
<path d="M248.696114 67.462475
L248.505638 67.462475
" />
<path d="M248.505638 67.462475
L248.410400 67.414856
" />
<path d="M248.410400 67.414856
L248.362781 67.319617
" />
<path d="M248.362781 67.319617
L248.362781 67.271998
" />
<path d="M248.362781 67.271998
L248.410400 67.176760
" />
<path d="M248.410400 67.176760
L248.505638 67.129141
" />
<path d="M248.505638 67.129141
L248.648495 67.129141
" />
<path d="M248.648495 67.129141
L248.743733 67.081522
" />
<path d="M248.743733 67.081522
L248.791352 66.986284
" />
<path d="M248.791352 66.986284
L248.791352 66.938665
" />
<path d="M248.791352 66.938665
L248.743733 66.843427
" />
<path d="M248.743733 66.843427
L248.648495 66.795808
" />
<path d="M248.648495 66.795808
L248.505638 66.795808
" />
<path d="M248.505638 66.795808
L248.410400 66.843427
" />
<path d="M247.934209 67.367236
L247.886590 67.414856
" />
<path d="M247.886590 67.414856
L247.934209 67.462475
" />
<path d="M247.934209 67.462475
L247.981828 67.414856
" />
<path d="M247.981828 67.414856
L247.934209 67.367236
" />
<path d="M247.934209 67.367236
L247.934209 67.462475
" />
<path d="M247.934209 66.843427
L247.886590 66.891046
" />
<path d="M247.886590 66.891046
L247.934209 66.938665
" />
<path d="M247.934209 66.938665
L247.981828 66.891046
" />
<path d="M247.981828 66.891046
L247.934209 66.843427
" />
<path d="M247.934209 66.843427
L247.934209 66.938665
" />
<path d="M246.743734 66.414856
L247.600876 67.700570
" />
<path d="M245.696115 66.414856
L246.553257 67.700570
" />
<path d="M244.934210 66.795808
L244.934210 67.605332
" />
<path d="M244.934210 67.605332
L244.981829 67.700570
" />
<path d="M244.981829 67.700570
L245.029448 67.748189
" />
<path d="M245.029448 67.748189
L245.124686 67.795808
" />
<path d="M245.124686 67.795808
L245.267543 67.795808
" />
<path d="M245.267543 67.795808
L245.362781 67.748189
" />
<path d="M244.934210 67.414856
L245.029448 67.462475
" />
<path d="M245.029448 67.462475
L245.219924 67.462475
" />
<path d="M245.219924 67.462475
L245.315162 67.414856
" />
<path d="M245.315162 67.414856
L245.362781 67.367236
" />
<path d="M245.362781 67.367236
L245.410400 67.271998
" />
<path d="M245.410400 67.271998
L245.410400 66.986284
" />
<path d="M245.410400 66.986284
L245.362781 66.891046
" />
<path d="M245.362781 66.891046
L245.315162 66.843427
" />
<path d="M245.315162 66.843427
L245.219924 66.795808
" />
<path d="M245.219924 66.795808
L245.029448 66.795808
" />
<path d="M245.029448 66.795808
L244.934210 66.843427
" />
<path d="M244.458019 67.462475
L244.458019 66.795808
" />
<path d="M244.458019 66.462475
L244.505638 66.510094
" />
<path d="M244.505638 66.510094
L244.458019 66.557713
" />
<path d="M244.458019 66.557713
L244.410400 66.510094
" />
<path d="M244.410400 66.510094
L244.458019 66.462475
" />
<path d="M244.458019 66.462475
L244.458019 66.557713
" />
<path d="M244.124686 66.795808
L243.743734 66.795808
" />
<path d="M243.981829 66.462475
L243.981829 67.319617
" />
<path d="M243.981829 67.319617
L243.934210 67.414856
" />
<path d="M243.934210 67.414856
L243.838972 67.462475
" />
<path d="M243.838972 67.462475
L243.743734 67.462475
" />
<path d="M243.410400 67.462475
L243.410400 66.462475
" />
<path d="M242.981829 67.462475
L242.981829 66.938665
" />
<path d="M242.981829 66.938665
L243.029448 66.843427
" />
<path d="M243.029448 66.843427
L243.124686 66.795808
" />
<path d="M243.124686 66.795808
L243.267543 66.795808
" />
<path d="M243.267543 66.795808
L243.362781 66.843427
" />
<path d="M243.362781 66.843427
L243.410400 66.891046
" />
<path d="M242.077067 66.795808
L242.077067 67.462475
" />
<path d="M242.505638 66.795808
L242.505638 67.319617
" />
<path d="M242.505638 67.319617
L242.458019 67.414856
" />
<path d="M242.458019 67.414856
L242.362781 67.462475
" />
<path d="M242.362781 67.462475
L242.219924 67.462475
" />
<path d="M242.219924 67.462475
L242.124686 67.414856
" />
<path d="M242.124686 67.414856
L242.077067 67.367236
" />
<path d="M241.600876 67.462475
L241.600876 66.462475
" />
<path d="M241.600876 66.843427
L241.505638 66.795808
" />
<path d="M241.505638 66.795808
L241.315162 66.795808
" />
<path d="M241.315162 66.795808
L241.219924 66.843427
" />
<path d="M241.219924 66.843427
L241.172305 66.891046
" />
<path d="M241.172305 66.891046
L241.124686 66.986284
" />
<path d="M241.124686 66.986284
L241.124686 67.271998
" />
<path d="M241.124686 67.271998
L241.172305 67.367236
" />
<path d="M241.172305 67.367236
L241.219924 67.414856
" />
<path d="M241.219924 67.414856
L241.315162 67.462475
" />
<path d="M241.315162 67.462475
L241.505638 67.462475
" />
<path d="M241.505638 67.462475
L241.600876 67.414856
" />
<path d="M240.696114 67.367236
L240.648495 67.414856
" />
<path d="M240.648495 67.414856
L240.696114 67.462475
" />
<path d="M240.696114 67.462475
L240.743733 67.414856
" />
<path d="M240.743733 67.414856
L240.696114 67.367236
" />
<path d="M240.696114 67.367236
L240.696114 67.462475
" />
<path d="M239.791353 67.414856
L239.886591 67.462475
" />
<path d="M239.886591 67.462475
L240.077067 67.462475
" />
<path d="M240.077067 67.462475
L240.172305 67.414856
" />
<path d="M240.172305 67.414856
L240.219924 67.367236
" />
<path d="M240.219924 67.367236
L240.267543 67.271998
" />
<path d="M240.267543 67.271998
L240.267543 66.986284
" />
<path d="M240.267543 66.986284
L240.219924 66.891046
" />
<path d="M240.219924 66.891046
L240.172305 66.843427
" />
<path d="M240.172305 66.843427
L240.077067 66.795808
" />
<path d="M240.077067 66.795808
L239.886591 66.795808
" />
<path d="M239.886591 66.795808
L239.791353 66.843427
" />
<path d="M239.219924 67.462475
L239.315162 67.414856
" />
<path d="M239.315162 67.414856
L239.362781 67.367236
" />
<path d="M239.362781 67.367236
L239.410400 67.271998
" />
<path d="M239.410400 67.271998
L239.410400 66.986284
" />
<path d="M239.410400 66.986284
L239.362781 66.891046
" />
<path d="M239.362781 66.891046
L239.315162 66.843427
" />
<path d="M239.315162 66.843427
L239.219924 66.795808
" />
<path d="M239.219924 66.795808
L239.077067 66.795808
" />
<path d="M239.077067 66.795808
L238.981829 66.843427
" />
<path d="M238.981829 66.843427
L238.934210 66.891046
" />
<path d="M238.934210 66.891046
L238.886591 66.986284
" />
<path d="M238.886591 66.986284
L238.886591 67.271998
" />
<path d="M238.886591 67.271998
L238.934210 67.367236
" />
<path d="M238.934210 67.367236
L238.981829 67.414856
" />
<path d="M238.981829 67.414856
L239.077067 67.462475
" />
<path d="M239.077067 67.462475
L239.219924 67.462475
" />
<path d="M238.458019 67.462475
L238.458019 66.795808
" />
<path d="M238.458019 66.891046
L238.410400 66.843427
" />
<path d="M238.410400 66.843427
L238.315162 66.795808
" />
<path d="M238.315162 66.795808
L238.172305 66.795808
" />
<path d="M238.172305 66.795808
L238.077067 66.843427
" />
<path d="M238.077067 66.843427
L238.029448 66.938665
" />
<path d="M238.029448 66.938665
L238.029448 67.462475
" />
<path d="M238.029448 66.938665
L237.981829 66.843427
" />
<path d="M237.981829 66.843427
L237.886591 66.795808
" />
<path d="M237.886591 66.795808
L237.743734 66.795808
" />
<path d="M237.743734 66.795808
L237.648495 66.843427
" />
<path d="M237.648495 66.843427
L237.600876 66.938665
" />
<path d="M237.600876 66.938665
L237.600876 67.462475
" />
<path d="M236.410401 66.414856
L237.267543 67.700570
" />
<path d="M236.077067 66.795808
L236.077067 67.795808
" />
<path d="M236.077067 66.843427
L235.981829 66.795808
" />
<path d="M235.981829 66.795808
L235.791353 66.795808
" />
<path d="M235.791353 66.795808
L235.696115 66.843427
" />
<path d="M235.696115 66.843427
L235.648496 66.891046
" />
<path d="M235.648496 66.891046
L235.600877 66.986284
" />
<path d="M235.600877 66.986284
L235.600877 67.271998
" />
<path d="M235.600877 67.271998
L235.648496 67.367236
" />
<path d="M235.648496 67.367236
L235.696115 67.414856
" />
<path d="M235.696115 67.414856
L235.791353 67.462475
" />
<path d="M235.791353 67.462475
L235.981829 67.462475
" />
<path d="M235.981829 67.462475
L236.077067 67.414856
" />
<path d="M235.172305 67.462475
L235.172305 66.795808
" />
<path d="M235.172305 66.462475
L235.219924 66.510094
" />
<path d="M235.219924 66.510094
L235.172305 66.557713
" />
<path d="M235.172305 66.557713
L235.124686 66.510094
" />
<path d="M235.124686 66.510094
L235.172305 66.462475
" />
<path d="M235.172305 66.462475
L235.172305 66.557713
" />
<path d="M234.696115 67.462475
L234.696115 66.795808
" />
<path d="M234.696115 66.891046
L234.648496 66.843427
" />
<path d="M234.648496 66.843427
L234.553258 66.795808
" />
<path d="M234.553258 66.795808
L234.410401 66.795808
" />
<path d="M234.410401 66.795808
L234.315163 66.843427
" />
<path d="M234.315163 66.843427
L234.267544 66.938665
" />
<path d="M234.267544 66.938665
L234.267544 67.462475
" />
<path d="M234.267544 66.938665
L234.219925 66.843427
" />
<path d="M234.219925 66.843427
L234.124687 66.795808
" />
<path d="M234.124687 66.795808
L233.981830 66.795808
" />
<path d="M233.981830 66.795808
L233.886591 66.843427
" />
<path d="M233.886591 66.843427
L233.838972 66.938665
" />
<path d="M233.838972 66.938665
L233.838972 67.462475
" />
<path d="M233.362782 67.462475
L233.362782 66.462475
" />
<path d="M233.362782 66.843427
L233.267544 66.795808
" />
<path d="M233.267544 66.795808
L233.077068 66.795808
" />
<path d="M233.077068 66.795808
L232.981830 66.843427
" />
<path d="M232.981830 66.843427
L232.934211 66.891046
" />
<path d="M232.934211 66.891046
L232.886592 66.986284
" />
<path d="M232.886592 66.986284
L232.886592 67.271998
" />
<path d="M232.886592 67.271998
L232.934211 67.367236
" />
<path d="M232.934211 67.367236
L232.981830 67.414856
" />
<path d="M232.981830 67.414856
L233.077068 67.462475
" />
<path d="M233.077068 67.462475
L233.267544 67.462475
" />
<path d="M233.267544 67.462475
L233.362782 67.414856
" />
<path d="M232.315163 67.462475
L232.410401 67.414856
" />
<path d="M232.410401 67.414856
L232.458020 67.367236
" />
<path d="M232.458020 67.367236
L232.505639 67.271998
" />
<path d="M232.505639 67.271998
L232.505639 66.986284
" />
<path d="M232.505639 66.986284
L232.458020 66.891046
" />
<path d="M232.458020 66.891046
L232.410401 66.843427
" />
<path d="M232.410401 66.843427
L232.315163 66.795808
" />
<path d="M232.315163 66.795808
L232.172306 66.795808
" />
<path d="M232.172306 66.795808
L232.077068 66.843427
" />
<path d="M232.077068 66.843427
L232.029449 66.891046
" />
<path d="M232.029449 66.891046
L231.981830 66.986284
" />
<path d="M231.981830 66.986284
L231.981830 67.271998
" />
<path d="M231.981830 67.271998
L232.029449 67.367236
" />
<path d="M232.029449 67.367236
L232.077068 67.414856
" />
<path d="M232.077068 67.414856
L232.172306 67.462475
" />
<path d="M232.172306 67.462475
L232.315163 67.462475
" />
<path d="M231.553258 67.462475
L231.553258 66.795808
" />
<path d="M231.553258 66.986284
L231.505639 66.891046
" />
<path d="M231.505639 66.891046
L231.458020 66.843427
" />
<path d="M231.458020 66.843427
L231.362782 66.795808
" />
<path d="M231.362782 66.795808
L231.267544 66.795808
" />
<path d="M230.934210 67.462475
L230.934210 66.795808
" />
<path d="M230.934210 66.891046
L230.886591 66.843427
" />
<path d="M230.886591 66.843427
L230.791353 66.795808
" />
<path d="M230.791353 66.795808
L230.648496 66.795808
" />
<path d="M230.648496 66.795808
L230.553258 66.843427
" />
<path d="M230.553258 66.843427
L230.505639 66.938665
" />
<path d="M230.505639 66.938665
L230.505639 67.462475
" />
<path d="M230.505639 66.938665
L230.458020 66.843427
" />
<path d="M230.458020 66.843427
L230.362782 66.795808
" />
<path d="M230.362782 66.795808
L230.219925 66.795808
" />
<path d="M230.219925 66.795808
L230.124686 66.843427
" />
<path d="M230.124686 66.843427
L230.077067 66.938665
" />
<path d="M230.077067 66.938665
L230.077067 67.462475
" />
<path d="M229.172306 67.462475
L229.172306 66.938665
" />
<path d="M229.172306 66.938665
L229.219925 66.843427
" />
<path d="M229.219925 66.843427
L229.315163 66.795808
" />
<path d="M229.315163 66.795808
L229.505639 66.795808
" />
<path d="M229.505639 66.795808
L229.600877 66.843427
" />
<path d="M229.172306 67.414856
L229.267544 67.462475
" />
<path d="M229.267544 67.462475
L229.505639 67.462475
" />
<path d="M229.505639 67.462475
L229.600877 67.414856
" />
<path d="M229.600877 67.414856
L229.648496 67.319617
" />
<path d="M229.648496 67.319617
L229.648496 67.224379
" />
<path d="M229.648496 67.224379
L229.600877 67.129141
" />
<path d="M229.600877 67.129141
L229.505639 67.081522
" />
<path d="M229.505639 67.081522
L229.267544 67.081522
" />
<path d="M229.267544 67.081522
L229.172306 67.033903
" />
<path d="M228.696115 66.795808
L228.696115 67.462475
" />
<path d="M228.696115 66.891046
L228.648496 66.843427
" />
<path d="M228.648496 66.843427
L228.553258 66.795808
" />
<path d="M228.553258 66.795808
L228.410401 66.795808
" />
<path d="M228.410401 66.795808
L228.315163 66.843427
" />
<path d="M228.315163 66.843427
L228.267544 66.938665
" />
<path d="M228.267544 66.938665
L228.267544 67.462475
" />
<path d="M227.077068 66.414856
L227.934210 67.700570
" />
<path d="M226.743734 66.795808
L226.743734 67.462475
" />
<path d="M226.743734 66.891046
L226.696115 66.843427
" />
<path d="M226.696115 66.843427
L226.600877 66.795808
" />
<path d="M226.600877 66.795808
L226.458020 66.795808
" />
<path d="M226.458020 66.795808
L226.362782 66.843427
" />
<path d="M226.362782 66.843427
L226.315163 66.938665
" />
<path d="M226.315163 66.938665
L226.315163 67.462475
" />
<path d="M225.838972 67.462475
L225.838972 66.795808
" />
<path d="M225.838972 66.462475
L225.886591 66.510094
" />
<path d="M225.886591 66.510094
L225.838972 66.557713
" />
<path d="M225.838972 66.557713
L225.791353 66.510094
" />
<path d="M225.791353 66.510094
L225.838972 66.462475
" />
<path d="M225.838972 66.462475
L225.838972 66.557713
" />
<path d="M225.458020 67.462475
L224.934211 66.795808
" />
<path d="M225.458020 66.795808
L224.934211 67.462475
" />
<path d="M224.553258 67.462475
L224.553258 66.795808
" />
<path d="M224.553258 66.462475
L224.600877 66.510094
" />
<path d="M224.600877 66.510094
L224.553258 66.557713
" />
<path d="M224.553258 66.557713
L224.505639 66.510094
" />
<path d="M224.505639 66.510094
L224.553258 66.462475
" />
<path d="M224.553258 66.462475
L224.553258 66.557713
" />
<path d="M223.696116 67.414856
L223.791354 67.462475
" />
<path d="M223.791354 67.462475
L223.981830 67.462475
" />
<path d="M223.981830 67.462475
L224.077068 67.414856
" />
<path d="M224.077068 67.414856
L224.124687 67.319617
" />
<path d="M224.124687 67.319617
L224.124687 66.938665
" />
<path d="M224.124687 66.938665
L224.077068 66.843427
" />
<path d="M224.077068 66.843427
L223.981830 66.795808
" />
<path d="M223.981830 66.795808
L223.791354 66.795808
" />
<path d="M223.791354 66.795808
L223.696116 66.843427
" />
<path d="M223.696116 66.843427
L223.648497 66.938665
" />
<path d="M223.648497 66.938665
L223.648497 67.033903
" />
<path d="M223.648497 67.033903
L224.124687 67.129141
" />
<path d="M223.219925 67.081522
L222.458021 67.081522
" />
<path d="M221.553259 67.414856
L221.648497 67.462475
" />
<path d="M221.648497 67.462475
L221.838973 67.462475
" />
<path d="M221.838973 67.462475
L221.934211 67.414856
" />
<path d="M221.934211 67.414856
L221.981830 67.367236
" />
<path d="M221.981830 67.367236
L222.029449 67.271998
" />
<path d="M222.029449 67.271998
L222.029449 66.986284
" />
<path d="M222.029449 66.986284
L221.981830 66.891046
" />
<path d="M221.981830 66.891046
L221.934211 66.843427
" />
<path d="M221.934211 66.843427
L221.838973 66.795808
" />
<path d="M221.838973 66.795808
L221.648497 66.795808
" />
<path d="M221.648497 66.795808
L221.553259 66.843427
" />
<path d="M220.981830 67.462475
L221.077068 67.414856
" />
<path d="M221.077068 67.414856
L221.124687 67.319617
" />
<path d="M221.124687 67.319617
L221.124687 66.462475
" />
<path d="M220.458020 67.462475
L220.553258 67.414856
" />
<path d="M220.553258 67.414856
L220.600877 67.367236
" />
<path d="M220.600877 67.367236
L220.648496 67.271998
" />
<path d="M220.648496 67.271998
L220.648496 66.986284
" />
<path d="M220.648496 66.986284
L220.600877 66.891046
" />
<path d="M220.600877 66.891046
L220.553258 66.843427
" />
<path d="M220.553258 66.843427
L220.458020 66.795808
" />
<path d="M220.458020 66.795808
L220.315163 66.795808
" />
<path d="M220.315163 66.795808
L220.219925 66.843427
" />
<path d="M220.219925 66.843427
L220.172306 66.891046
" />
<path d="M220.172306 66.891046
L220.124687 66.986284
" />
<path d="M220.124687 66.986284
L220.124687 67.271998
" />
<path d="M220.124687 67.271998
L220.172306 67.367236
" />
<path d="M220.172306 67.367236
L220.219925 67.414856
" />
<path d="M220.219925 67.414856
L220.315163 67.462475
" />
<path d="M220.315163 67.462475
L220.458020 67.462475
" />
<path d="M219.267544 67.414856
L219.362782 67.462475
" />
<path d="M219.362782 67.462475
L219.553258 67.462475
" />
<path d="M219.553258 67.462475
L219.648496 67.414856
" />
<path d="M219.648496 67.414856
L219.696115 67.367236
" />
<path d="M219.696115 67.367236
L219.743734 67.271998
" />
<path d="M219.743734 67.271998
L219.743734 66.986284
" />
<path d="M219.743734 66.986284
L219.696115 66.891046
" />
<path d="M219.696115 66.891046
L219.648496 66.843427
" />
<path d="M219.648496 66.843427
L219.553258 66.795808
" />
<path d="M219.553258 66.795808
L219.362782 66.795808
" />
<path d="M219.362782 66.795808
L219.267544 66.843427
" />
<path d="M218.838972 67.462475
L218.838972 66.462475
" />
<path d="M218.743734 67.081522
L218.458020 67.462475
" />
<path d="M218.458020 66.795808
L218.838972 67.176760
" />
</g><text x="252.000000" y="69.200000"
transform="scale(-1 1) translate(-504.000000 0)"
textLength="0.300000" font-size="1.333333" lengthAdjust="spacingAndGlyphs"
text-anchor="start" opacity="0" stroke-opacity="0"></text>
<g class="stroked-text"><desc></desc>
</g></g>
<g style="fill:none; 
stroke:#000000; stroke-width:0.150000; stroke-opacity:1; 
stroke-linecap:round; stroke-linejoin:round;">
<text x="128.000000" y="73.300000"
transform="scale(-1 1) translate(-256.000000 0)"
textLength="1.964286" font-size="1.333333" lengthAdjust="spacingAndGlyphs"
text-anchor="middle" opacity="0" stroke-opacity="0">J1</text>
<g class="stroked-text"><desc>J1</desc>
<path d="M128.333333 72.254819
L128.333333 72.969104
" />
<path d="M128.333333 72.969104
L128.380952 73.111961
" />
<path d="M128.380952 73.111961
L128.476190 73.207200
" />
<path d="M128.476190 73.207200
L128.619047 73.254819
" />
<path d="M128.619047 73.254819
L128.714285 73.254819
" />
<path d="M127.333333 73.254819
L127.904761 73.254819
" />
<path d="M127.619047 73.254819
L127.619047 72.254819
" />
<path d="M127.619047 72.254819
L127.714285 72.397676
" />
<path d="M127.714285 72.397676
L127.809523 72.492914
" />
<path d="M127.809523 72.492914
L127.904761 72.540533
" />
</g></g>
<g style="fill:none; 
stroke:#000000; stroke-width:0.120000; stroke-opacity:1; 
stroke-linecap:round; stroke-linejoin:round;">
<path d="M123.320000 61.844000
L133.600000 61.844000
" />
<path d="M123.320000 64.804000
L133.600000 64.804000
" />
<path d="M123.320000 69.705000
L133.600000 69.705000
" />
<path d="M123.320000 71.205000
L133.600000 71.205000
" />
<path d="M123.320000 71.765000
L123.320000 61.844000
" />
<path d="M123.320000 71.765000
L133.600000 71.765000
" />
<path d="M124.692000 66.082000
L124.645000 66.036000
" />
<path d="M124.885000 65.866000
L124.850000 65.830000
" />
<path d="M126.989000 68.379000
L126.954000 68.344000
" />
<path d="M127.194000 68.174000
L127.147000 68.128000
" />
<path d="M133.340000 72.005000
L133.840000 72.005000
" />
<path d="M133.600000 71.765000
L133.600000 61.844000
" />
<path d="M133.840000 72.005000
L133.840000 71.265000
" />
<path d="M129.464573 66.421958 A1.680504 1.680504 0.0 0 0 129.465000 67.789000" />
<path d="M131.683042 65.569573 A1.680494 1.680494 0.0 0 0 130.316000 65.570000" />
<path d="M130.316682 68.639756 A1.680000 1.680000 0.0 0 0 131.000000 68.785000" />
<path d="M130.971195 68.785253 A1.680501 1.680501 0.0 0 0 131.684000 68.640000" />
<path d="M132.535427 67.788042 A1.680494 1.680494 0.0 0 0 132.535000 66.421000" />
<circle cx="125.920000" cy="67.105000" r="1.680000" /> 
</g> 
</svg>
