<?xml version="1.0" standalone="no"?>
 <!DOCTYPE svg PUBLIC "-//W3C//DTD SVG 1.1//EN" 
 "http://www.w3.org/Graphics/SVG/1.1/DTD/svg11.dtd"> 
<svg
  xmlns:svg="http://www.w3.org/2000/svg"
  xmlns="http://www.w3.org/2000/svg"
  xmlns:xlink="http://www.w3.org/1999/xlink"
  version="1.1"
  width="19.12cm" height="5.720000000000001cm" viewBox="70.9 59.9 191.2 57.2">
<title>SVG Image created as nixie-F_Paste.svg date 2024/10/13 16:29:15 </title>
  <desc>Image generated by PCBNEW </desc>
<g style="fill:#000000; fill-opacity:1.000000;stroke:#000000; stroke-opacity:1.000000;
stroke-linecap:round; stroke-linejoin:round;"
 transform="translate(0 0) scale(1 1)">
<path style="fill:#000000; fill-opacity:1.000000; stroke:none;fill-rule:evenodd;"
d="M 139.452905,87.982878
139.820601,88.350574
138.759941,89.411234
138.392245,89.043538
Z" /> 
<path style="fill:#000000; fill-opacity:1.000000; stroke:none;fill-rule:evenodd;"
d="M 138.887220,87.417193
139.254916,87.784889
138.194256,88.845549
137.826560,88.477853
Z" /> 
<path style="fill:#000000; fill-opacity:1.000000; stroke:none;fill-rule:evenodd;"
d="M 138.321534,86.851507
138.689230,87.219203
137.628570,88.279863
137.260874,87.912167
Z" /> 
<path style="fill:#000000; fill-opacity:1.000000; stroke:none;fill-rule:evenodd;"
d="M 137.755849,86.285822
138.123545,86.653518
137.062885,87.714178
136.695189,87.346482
Z" /> 
<path style="fill:#000000; fill-opacity:1.000000; stroke:none;fill-rule:evenodd;"
d="M 137.190163,85.720136
137.557859,86.087832
136.497199,87.148492
136.129503,86.780796
Z" /> 
<path style="fill:#000000; fill-opacity:1.000000; stroke:none;fill-rule:evenodd;"
d="M 136.624478,85.154451
136.992174,85.522147
135.931514,86.582807
135.563818,86.215111
Z" /> 
<path style="fill:#000000; fill-opacity:1.000000; stroke:none;fill-rule:evenodd;"
d="M 136.058793,84.588766
136.426489,84.956462
135.365829,86.017122
134.998133,85.649426
Z" /> 
<path style="fill:#000000; fill-opacity:1.000000; stroke:none;fill-rule:evenodd;"
d="M 135.493107,84.023080
135.860803,84.390776
134.800143,85.451436
134.432447,85.083740
Z" /> 
<path style="fill:#000000; fill-opacity:1.000000; stroke:none;fill-rule:evenodd;"
d="M 134.927422,83.457395
135.295118,83.825091
134.234458,84.885751
133.866762,84.518055
Z" /> 
<path style="fill:#000000; fill-opacity:1.000000; stroke:none;fill-rule:evenodd;"
d="M 134.361736,82.891709
134.729432,83.259405
133.668772,84.320065
133.301076,83.952369
Z" /> 
<path style="fill:#000000; fill-opacity:1.000000; stroke:none;fill-rule:evenodd;"
d="M 133.796051,82.326024
134.163747,82.693720
133.103087,83.754380
132.735391,83.386684
Z" /> 
<path style="fill:#000000; fill-opacity:1.000000; stroke:none;fill-rule:evenodd;"
d="M 130.203949,82.326024
131.264609,83.386684
130.896913,83.754380
129.836253,82.693720
Z" /> 
<path style="fill:#000000; fill-opacity:1.000000; stroke:none;fill-rule:evenodd;"
d="M 129.638264,82.891709
130.698924,83.952369
130.331228,84.320065
129.270568,83.259405
Z" /> 
<path style="fill:#000000; fill-opacity:1.000000; stroke:none;fill-rule:evenodd;"
d="M 129.072578,83.457395
130.133238,84.518055
129.765542,84.885751
128.704882,83.825091
Z" /> 
<path style="fill:#000000; fill-opacity:1.000000; stroke:none;fill-rule:evenodd;"
d="M 128.506893,84.023080
129.567553,85.083740
129.199857,85.451436
128.139197,84.390776
Z" /> 
<path style="fill:#000000; fill-opacity:1.000000; stroke:none;fill-rule:evenodd;"
d="M 127.941207,84.588766
129.001867,85.649426
128.634171,86.017122
127.573511,84.956462
Z" /> 
<path style="fill:#000000; fill-opacity:1.000000; stroke:none;fill-rule:evenodd;"
d="M 127.375522,85.154451
128.436182,86.215111
128.068486,86.582807
127.007826,85.522147
Z" /> 
<path style="fill:#000000; fill-opacity:1.000000; stroke:none;fill-rule:evenodd;"
d="M 126.809837,85.720136
127.870497,86.780796
127.502801,87.148492
126.442141,86.087832
Z" /> 
<path style="fill:#000000; fill-opacity:1.000000; stroke:none;fill-rule:evenodd;"
d="M 126.244151,86.285822
127.304811,87.346482
126.937115,87.714178
125.876455,86.653518
Z" /> 
<path style="fill:#000000; fill-opacity:1.000000; stroke:none;fill-rule:evenodd;"
d="M 125.678466,86.851507
126.739126,87.912167
126.371430,88.279863
125.310770,87.219203
Z" /> 
<path style="fill:#000000; fill-opacity:1.000000; stroke:none;fill-rule:evenodd;"
d="M 125.112780,87.417193
126.173440,88.477853
125.805744,88.845549
124.745084,87.784889
Z" /> 
<path style="fill:#000000; fill-opacity:1.000000; stroke:none;fill-rule:evenodd;"
d="M 124.547095,87.982878
125.607755,89.043538
125.240059,89.411234
124.179399,88.350574
Z" /> 
<path style="fill:#000000; fill-opacity:1.000000; stroke:none;fill-rule:evenodd;"
d="M 125.240059,90.882016
125.607755,91.249712
124.547095,92.310372
124.179399,91.942676
Z" /> 
<path style="fill:#000000; fill-opacity:1.000000; stroke:none;fill-rule:evenodd;"
d="M 125.805744,91.447701
126.173440,91.815397
125.112780,92.876057
124.745084,92.508361
Z" /> 
<path style="fill:#000000; fill-opacity:1.000000; stroke:none;fill-rule:evenodd;"
d="M 126.371430,92.013387
126.739126,92.381083
125.678466,93.441743
125.310770,93.074047
Z" /> 
<path style="fill:#000000; fill-opacity:1.000000; stroke:none;fill-rule:evenodd;"
d="M 126.937115,92.579072
127.304811,92.946768
126.244151,94.007428
125.876455,93.639732
Z" /> 
<path style="fill:#000000; fill-opacity:1.000000; stroke:none;fill-rule:evenodd;"
d="M 127.502801,93.144758
127.870497,93.512454
126.809837,94.573114
126.442141,94.205418
Z" /> 
<path style="fill:#000000; fill-opacity:1.000000; stroke:none;fill-rule:evenodd;"
d="M 128.068486,93.710443
128.436182,94.078139
127.375522,95.138799
127.007826,94.771103
Z" /> 
<path style="fill:#000000; fill-opacity:1.000000; stroke:none;fill-rule:evenodd;"
d="M 128.634171,94.276128
129.001867,94.643824
127.941207,95.704484
127.573511,95.336788
Z" /> 
<path style="fill:#000000; fill-opacity:1.000000; stroke:none;fill-rule:evenodd;"
d="M 129.199857,94.841814
129.567553,95.209510
128.506893,96.270170
128.139197,95.902474
Z" /> 
<path style="fill:#000000; fill-opacity:1.000000; stroke:none;fill-rule:evenodd;"
d="M 129.765542,95.407499
130.133238,95.775195
129.072578,96.835855
128.704882,96.468159
Z" /> 
<path style="fill:#000000; fill-opacity:1.000000; stroke:none;fill-rule:evenodd;"
d="M 130.331228,95.973185
130.698924,96.340881
129.638264,97.401541
129.270568,97.033845
Z" /> 
<path style="fill:#000000; fill-opacity:1.000000; stroke:none;fill-rule:evenodd;"
d="M 130.896913,96.538870
131.264609,96.906566
130.203949,97.967226
129.836253,97.599530
Z" /> 
<path style="fill:#000000; fill-opacity:1.000000; stroke:none;fill-rule:evenodd;"
d="M 133.103087,96.538870
134.163747,97.599530
133.796051,97.967226
132.735391,96.906566
Z" /> 
<path style="fill:#000000; fill-opacity:1.000000; stroke:none;fill-rule:evenodd;"
d="M 133.668772,95.973185
134.729432,97.033845
134.361736,97.401541
133.301076,96.340881
Z" /> 
<path style="fill:#000000; fill-opacity:1.000000; stroke:none;fill-rule:evenodd;"
d="M 134.234458,95.407499
135.295118,96.468159
134.927422,96.835855
133.866762,95.775195
Z" /> 
<path style="fill:#000000; fill-opacity:1.000000; stroke:none;fill-rule:evenodd;"
d="M 134.800143,94.841814
135.860803,95.902474
135.493107,96.270170
134.432447,95.209510
Z" /> 
<path style="fill:#000000; fill-opacity:1.000000; stroke:none;fill-rule:evenodd;"
d="M 135.365829,94.276128
136.426489,95.336788
136.058793,95.704484
134.998133,94.643824
Z" /> 
<path style="fill:#000000; fill-opacity:1.000000; stroke:none;fill-rule:evenodd;"
d="M 135.931514,93.710443
136.992174,94.771103
136.624478,95.138799
135.563818,94.078139
Z" /> 
<path style="fill:#000000; fill-opacity:1.000000; stroke:none;fill-rule:evenodd;"
d="M 136.497199,93.144758
137.557859,94.205418
137.190163,94.573114
136.129503,93.512454
Z" /> 
<path style="fill:#000000; fill-opacity:1.000000; stroke:none;fill-rule:evenodd;"
d="M 137.062885,92.579072
138.123545,93.639732
137.755849,94.007428
136.695189,92.946768
Z" /> 
<path style="fill:#000000; fill-opacity:1.000000; stroke:none;fill-rule:evenodd;"
d="M 137.628570,92.013387
138.689230,93.074047
138.321534,93.441743
137.260874,92.381083
Z" /> 
<path style="fill:#000000; fill-opacity:1.000000; stroke:none;fill-rule:evenodd;"
d="M 138.194256,91.447701
139.254916,92.508361
138.887220,92.876057
137.826560,91.815397
Z" /> 
<path style="fill:#000000; fill-opacity:1.000000; stroke:none;fill-rule:evenodd;"
d="M 138.759941,90.882016
139.820601,91.942676
139.452905,92.310372
138.392245,91.249712
Z" /> 
<path style="fill:#000000; fill-opacity:1.000000; stroke:none;fill-rule:evenodd;"
d="M 156.550000,73.345000
156.561418,73.287597
156.593934,73.238934
156.642597,73.206418
156.700000,73.195000
158.350000,73.195000
158.407403,73.206418
158.456066,73.238934
158.488582,73.287597
158.500000,73.345000
158.500000,73.645000
158.488582,73.702403
158.456066,73.751066
158.407403,73.783582
158.350000,73.795000
156.700000,73.795000
156.642597,73.783582
156.593934,73.751066
156.561418,73.702403
156.550000,73.645000
Z" /> 
<path style="fill:#000000; fill-opacity:1.000000; stroke:none;fill-rule:evenodd;"
d="M 156.550000,74.615000
156.561418,74.557597
156.593934,74.508934
156.642597,74.476418
156.700000,74.465000
158.350000,74.465000
158.407403,74.476418
158.456066,74.508934
158.488582,74.557597
158.500000,74.615000
158.500000,74.915000
158.488582,74.972403
158.456066,75.021066
158.407403,75.053582
158.350000,75.065000
156.700000,75.065000
156.642597,75.053582
156.593934,75.021066
156.561418,74.972403
156.550000,74.915000
Z" /> 
<path style="fill:#000000; fill-opacity:1.000000; stroke:none;fill-rule:evenodd;"
d="M 156.550000,75.885000
156.561418,75.827597
156.593934,75.778934
156.642597,75.746418
156.700000,75.735000
158.350000,75.735000
158.407403,75.746418
158.456066,75.778934
158.488582,75.827597
158.500000,75.885000
158.500000,76.185000
158.488582,76.242403
158.456066,76.291066
158.407403,76.323582
158.350000,76.335000
156.700000,76.335000
156.642597,76.323582
156.593934,76.291066
156.561418,76.242403
156.550000,76.185000
Z" /> 
<path style="fill:#000000; fill-opacity:1.000000; stroke:none;fill-rule:evenodd;"
d="M 156.550000,77.155000
156.561418,77.097597
156.593934,77.048934
156.642597,77.016418
156.700000,77.005000
158.350000,77.005000
158.407403,77.016418
158.456066,77.048934
158.488582,77.097597
158.500000,77.155000
158.500000,77.455000
158.488582,77.512403
158.456066,77.561066
158.407403,77.593582
158.350000,77.605000
156.700000,77.605000
156.642597,77.593582
156.593934,77.561066
156.561418,77.512403
156.550000,77.455000
Z" /> 
<path style="fill:#000000; fill-opacity:1.000000; stroke:none;fill-rule:evenodd;"
d="M 161.500000,77.155000
161.511418,77.097597
161.543934,77.048934
161.592597,77.016418
161.650000,77.005000
163.300000,77.005000
163.357403,77.016418
163.406066,77.048934
163.438582,77.097597
163.450000,77.155000
163.450000,77.455000
163.438582,77.512403
163.406066,77.561066
163.357403,77.593582
163.300000,77.605000
161.650000,77.605000
161.592597,77.593582
161.543934,77.561066
161.511418,77.512403
161.500000,77.455000
Z" /> 
<path style="fill:#000000; fill-opacity:1.000000; stroke:none;fill-rule:evenodd;"
d="M 161.500000,75.885000
161.511418,75.827597
161.543934,75.778934
161.592597,75.746418
161.650000,75.735000
163.300000,75.735000
163.357403,75.746418
163.406066,75.778934
163.438582,75.827597
163.450000,75.885000
163.450000,76.185000
163.438582,76.242403
163.406066,76.291066
163.357403,76.323582
163.300000,76.335000
161.650000,76.335000
161.592597,76.323582
161.543934,76.291066
161.511418,76.242403
161.500000,76.185000
Z" /> 
<path style="fill:#000000; fill-opacity:1.000000; stroke:none;fill-rule:evenodd;"
d="M 161.500000,74.615000
161.511418,74.557597
161.543934,74.508934
161.592597,74.476418
161.650000,74.465000
163.300000,74.465000
163.357403,74.476418
163.406066,74.508934
163.438582,74.557597
163.450000,74.615000
163.450000,74.915000
163.438582,74.972403
163.406066,75.021066
163.357403,75.053582
163.300000,75.065000
161.650000,75.065000
161.592597,75.053582
161.543934,75.021066
161.511418,74.972403
161.500000,74.915000
Z" /> 
<path style="fill:#000000; fill-opacity:1.000000; stroke:none;fill-rule:evenodd;"
d="M 161.500000,73.345000
161.511418,73.287597
161.543934,73.238934
161.592597,73.206418
161.650000,73.195000
163.300000,73.195000
163.357403,73.206418
163.406066,73.238934
163.438582,73.287597
163.450000,73.345000
163.450000,73.645000
163.438582,73.702403
163.406066,73.751066
163.357403,73.783582
163.300000,73.795000
161.650000,73.795000
161.592597,73.783582
161.543934,73.751066
161.511418,73.702403
161.500000,73.645000
Z" /> 
<path style="fill:#000000; fill-opacity:1.000000; stroke:none;fill-rule:evenodd;"
d="M 209.452905,87.836253
209.820601,88.203949
208.759941,89.264609
208.392245,88.896913
Z" /> 
<path style="fill:#000000; fill-opacity:1.000000; stroke:none;fill-rule:evenodd;"
d="M 208.887220,87.270568
209.254916,87.638264
208.194256,88.698924
207.826560,88.331228
Z" /> 
<path style="fill:#000000; fill-opacity:1.000000; stroke:none;fill-rule:evenodd;"
d="M 208.321534,86.704882
208.689230,87.072578
207.628570,88.133238
207.260874,87.765542
Z" /> 
<path style="fill:#000000; fill-opacity:1.000000; stroke:none;fill-rule:evenodd;"
d="M 207.755849,86.139197
208.123545,86.506893
207.062885,87.567553
206.695189,87.199857
Z" /> 
<path style="fill:#000000; fill-opacity:1.000000; stroke:none;fill-rule:evenodd;"
d="M 207.190163,85.573511
207.557859,85.941207
206.497199,87.001867
206.129503,86.634171
Z" /> 
<path style="fill:#000000; fill-opacity:1.000000; stroke:none;fill-rule:evenodd;"
d="M 206.624478,85.007826
206.992174,85.375522
205.931514,86.436182
205.563818,86.068486
Z" /> 
<path style="fill:#000000; fill-opacity:1.000000; stroke:none;fill-rule:evenodd;"
d="M 206.058793,84.442141
206.426489,84.809837
205.365829,85.870497
204.998133,85.502801
Z" /> 
<path style="fill:#000000; fill-opacity:1.000000; stroke:none;fill-rule:evenodd;"
d="M 205.493107,83.876455
205.860803,84.244151
204.800143,85.304811
204.432447,84.937115
Z" /> 
<path style="fill:#000000; fill-opacity:1.000000; stroke:none;fill-rule:evenodd;"
d="M 204.927422,83.310770
205.295118,83.678466
204.234458,84.739126
203.866762,84.371430
Z" /> 
<path style="fill:#000000; fill-opacity:1.000000; stroke:none;fill-rule:evenodd;"
d="M 204.361736,82.745084
204.729432,83.112780
203.668772,84.173440
203.301076,83.805744
Z" /> 
<path style="fill:#000000; fill-opacity:1.000000; stroke:none;fill-rule:evenodd;"
d="M 203.796051,82.179399
204.163747,82.547095
203.103087,83.607755
202.735391,83.240059
Z" /> 
<path style="fill:#000000; fill-opacity:1.000000; stroke:none;fill-rule:evenodd;"
d="M 200.203949,82.179399
201.264609,83.240059
200.896913,83.607755
199.836253,82.547095
Z" /> 
<path style="fill:#000000; fill-opacity:1.000000; stroke:none;fill-rule:evenodd;"
d="M 199.638264,82.745084
200.698924,83.805744
200.331228,84.173440
199.270568,83.112780
Z" /> 
<path style="fill:#000000; fill-opacity:1.000000; stroke:none;fill-rule:evenodd;"
d="M 199.072578,83.310770
200.133238,84.371430
199.765542,84.739126
198.704882,83.678466
Z" /> 
<path style="fill:#000000; fill-opacity:1.000000; stroke:none;fill-rule:evenodd;"
d="M 198.506893,83.876455
199.567553,84.937115
199.199857,85.304811
198.139197,84.244151
Z" /> 
<path style="fill:#000000; fill-opacity:1.000000; stroke:none;fill-rule:evenodd;"
d="M 197.941207,84.442141
199.001867,85.502801
198.634171,85.870497
197.573511,84.809837
Z" /> 
<path style="fill:#000000; fill-opacity:1.000000; stroke:none;fill-rule:evenodd;"
d="M 197.375522,85.007826
198.436182,86.068486
198.068486,86.436182
197.007826,85.375522
Z" /> 
<path style="fill:#000000; fill-opacity:1.000000; stroke:none;fill-rule:evenodd;"
d="M 196.809837,85.573511
197.870497,86.634171
197.502801,87.001867
196.442141,85.941207
Z" /> 
<path style="fill:#000000; fill-opacity:1.000000; stroke:none;fill-rule:evenodd;"
d="M 196.244151,86.139197
197.304811,87.199857
196.937115,87.567553
195.876455,86.506893
Z" /> 
<path style="fill:#000000; fill-opacity:1.000000; stroke:none;fill-rule:evenodd;"
d="M 195.678466,86.704882
196.739126,87.765542
196.371430,88.133238
195.310770,87.072578
Z" /> 
<path style="fill:#000000; fill-opacity:1.000000; stroke:none;fill-rule:evenodd;"
d="M 195.112780,87.270568
196.173440,88.331228
195.805744,88.698924
194.745084,87.638264
Z" /> 
<path style="fill:#000000; fill-opacity:1.000000; stroke:none;fill-rule:evenodd;"
d="M 194.547095,87.836253
195.607755,88.896913
195.240059,89.264609
194.179399,88.203949
Z" /> 
<path style="fill:#000000; fill-opacity:1.000000; stroke:none;fill-rule:evenodd;"
d="M 195.240059,90.735391
195.607755,91.103087
194.547095,92.163747
194.179399,91.796051
Z" /> 
<path style="fill:#000000; fill-opacity:1.000000; stroke:none;fill-rule:evenodd;"
d="M 195.805744,91.301076
196.173440,91.668772
195.112780,92.729432
194.745084,92.361736
Z" /> 
<path style="fill:#000000; fill-opacity:1.000000; stroke:none;fill-rule:evenodd;"
d="M 196.371430,91.866762
196.739126,92.234458
195.678466,93.295118
195.310770,92.927422
Z" /> 
<path style="fill:#000000; fill-opacity:1.000000; stroke:none;fill-rule:evenodd;"
d="M 196.937115,92.432447
197.304811,92.800143
196.244151,93.860803
195.876455,93.493107
Z" /> 
<path style="fill:#000000; fill-opacity:1.000000; stroke:none;fill-rule:evenodd;"
d="M 197.502801,92.998133
197.870497,93.365829
196.809837,94.426489
196.442141,94.058793
Z" /> 
<path style="fill:#000000; fill-opacity:1.000000; stroke:none;fill-rule:evenodd;"
d="M 198.068486,93.563818
198.436182,93.931514
197.375522,94.992174
197.007826,94.624478
Z" /> 
<path style="fill:#000000; fill-opacity:1.000000; stroke:none;fill-rule:evenodd;"
d="M 198.634171,94.129503
199.001867,94.497199
197.941207,95.557859
197.573511,95.190163
Z" /> 
<path style="fill:#000000; fill-opacity:1.000000; stroke:none;fill-rule:evenodd;"
d="M 199.199857,94.695189
199.567553,95.062885
198.506893,96.123545
198.139197,95.755849
Z" /> 
<path style="fill:#000000; fill-opacity:1.000000; stroke:none;fill-rule:evenodd;"
d="M 199.765542,95.260874
200.133238,95.628570
199.072578,96.689230
198.704882,96.321534
Z" /> 
<path style="fill:#000000; fill-opacity:1.000000; stroke:none;fill-rule:evenodd;"
d="M 200.331228,95.826560
200.698924,96.194256
199.638264,97.254916
199.270568,96.887220
Z" /> 
<path style="fill:#000000; fill-opacity:1.000000; stroke:none;fill-rule:evenodd;"
d="M 200.896913,96.392245
201.264609,96.759941
200.203949,97.820601
199.836253,97.452905
Z" /> 
<path style="fill:#000000; fill-opacity:1.000000; stroke:none;fill-rule:evenodd;"
d="M 203.103087,96.392245
204.163747,97.452905
203.796051,97.820601
202.735391,96.759941
Z" /> 
<path style="fill:#000000; fill-opacity:1.000000; stroke:none;fill-rule:evenodd;"
d="M 203.668772,95.826560
204.729432,96.887220
204.361736,97.254916
203.301076,96.194256
Z" /> 
<path style="fill:#000000; fill-opacity:1.000000; stroke:none;fill-rule:evenodd;"
d="M 204.234458,95.260874
205.295118,96.321534
204.927422,96.689230
203.866762,95.628570
Z" /> 
<path style="fill:#000000; fill-opacity:1.000000; stroke:none;fill-rule:evenodd;"
d="M 204.800143,94.695189
205.860803,95.755849
205.493107,96.123545
204.432447,95.062885
Z" /> 
<path style="fill:#000000; fill-opacity:1.000000; stroke:none;fill-rule:evenodd;"
d="M 205.365829,94.129503
206.426489,95.190163
206.058793,95.557859
204.998133,94.497199
Z" /> 
<path style="fill:#000000; fill-opacity:1.000000; stroke:none;fill-rule:evenodd;"
d="M 205.931514,93.563818
206.992174,94.624478
206.624478,94.992174
205.563818,93.931514
Z" /> 
<path style="fill:#000000; fill-opacity:1.000000; stroke:none;fill-rule:evenodd;"
d="M 206.497199,92.998133
207.557859,94.058793
207.190163,94.426489
206.129503,93.365829
Z" /> 
<path style="fill:#000000; fill-opacity:1.000000; stroke:none;fill-rule:evenodd;"
d="M 207.062885,92.432447
208.123545,93.493107
207.755849,93.860803
206.695189,92.800143
Z" /> 
<path style="fill:#000000; fill-opacity:1.000000; stroke:none;fill-rule:evenodd;"
d="M 207.628570,91.866762
208.689230,92.927422
208.321534,93.295118
207.260874,92.234458
Z" /> 
<path style="fill:#000000; fill-opacity:1.000000; stroke:none;fill-rule:evenodd;"
d="M 208.194256,91.301076
209.254916,92.361736
208.887220,92.729432
207.826560,91.668772
Z" /> 
<path style="fill:#000000; fill-opacity:1.000000; stroke:none;fill-rule:evenodd;"
d="M 208.759941,90.735391
209.820601,91.796051
209.452905,92.163747
208.392245,91.103087
Z" /> 
</g> 
</svg>
