<?xml version="1.0" standalone="no"?>
 <!DOCTYPE svg PUBLIC "-//W3C//DTD SVG 1.1//EN" 
 "http://www.w3.org/Graphics/SVG/1.1/DTD/svg11.dtd"> 
<svg
  xmlns:svg="http://www.w3.org/2000/svg"
  xmlns="http://www.w3.org/2000/svg"
  xmlns:xlink="http://www.w3.org/1999/xlink"
  version="1.1"
  width="297.0022mm" height="210.0072mm" viewBox="0.0000 0.0000 297.0022 210.0072">
<title>SVG Image created as nixie-F_Courtyard.svg date 2024/10/13 09:50:46 </title>
  <desc>Image generated by PCBNEW </desc>
<g style="fill:#000000; fill-opacity:1.0000;stroke:#000000; stroke-opacity:1.0000;
stroke-linecap:round; stroke-linejoin:round;"
 transform="translate(0 0) scale(1 1)">
</g>
<g style="fill:none; 
stroke:#000000; stroke-width:0.0500; stroke-opacity:1; 
stroke-linecap:round; stroke-linejoin:round;">
<path d="M148.9000 85.8800
L148.9000 95.6800
" />
<path d="M148.9000 95.6800
L169.7500 95.6800
" />
<path d="M169.7500 85.8800
L148.9000 85.8800
" />
<path d="M169.7500 95.6800
L169.7500 85.8800
" />
<path d="M101.7200 79.9500
L101.7200 88.8500
" />
<path d="M101.7200 88.8500
L109.5200 88.8500
" />
<path d="M109.5200 79.9500
L101.7200 79.9500
" />
<path d="M109.5200 88.8500
L109.5200 79.9500
" />
<path d="M114.6200 65.4500
L114.6200 75.1700
" />
<path d="M114.6200 75.1700
L117.6200 75.1700
" />
<path d="M117.6200 65.4500
L114.6200 65.4500
" />
<path d="M117.6200 75.1700
L117.6200 65.4500
" />
<path d="M114.0700 75.8900
L114.0700 88.9500
" />
<path d="M114.0700 88.9500
L118.1700 88.9500
" />
<path d="M118.1700 75.8900
L114.0700 75.8900
" />
<path d="M118.1700 88.9500
L118.1700 75.8900
" />
<path d="M234.1500 81.1000
L234.1500 84.1000
" />
<path d="M234.1500 84.1000
L241.2500 84.1000
" />
<path d="M241.2500 81.1000
L234.1500 81.1000
" />
<path d="M241.2500 84.1000
L241.2500 81.1000
" />
<path d="M192.3291 102.0496
L194.4504 104.1709
" />
<path d="M194.4504 104.1709
L199.4709 99.1504
" />
<path d="M197.3496 97.0291
L192.3291 102.0496
" />
<path d="M199.4709 99.1504
L197.3496 97.0291
" />
<path d="M110.6200 65.4500
L110.6200 75.1700
" />
<path d="M110.6200 75.1700
L113.6200 75.1700
" />
<path d="M113.6200 65.4500
L110.6200 65.4500
" />
<path d="M113.6200 75.1700
L113.6200 65.4500
" />
<circle cx="92.1200" cy="66.5000" r="4.6000" /> 
<circle cx="83.1200" cy="67.7500" r="3.4000" /> 
<path d="M173.6500 93.8000
L173.6500 87.8500
" />
<path d="M180.1500 93.8000
L173.6500 93.8000
" />
<path d="M180.1500 93.8000
L180.1500 87.8500
" />
<path d="M173.6500 87.8500 A0.5466 0.5466 0.0 0 0 173.3000 87.3400" />
<path d="M176.9000 64.4000 A11.7519 11.7519 0.0 0 0 173.3000 87.3400" />
<path d="M180.5000 87.3400 A11.7519 11.7519 0.0 0 0 176.9000 64.4000" />
<path d="M180.5000 87.3400 A0.5466 0.5466 0.0 0 0 180.1500 87.8500" />
<path d="M74.0700 80.9500
L74.0700 84.0500
" />
<path d="M74.0700 84.0500
L78.6700 84.0500
" />
<path d="M78.6700 80.9500
L74.0700 80.9500
" />
<path d="M78.6700 84.0500
L78.6700 80.9500
" />
<path d="M206.5000 104.8300
L206.5000 114.5500
" />
<path d="M206.5000 114.5500
L209.5000 114.5500
" />
<path d="M209.5000 104.8300
L206.5000 104.8300
" />
<path d="M209.5000 114.5500
L209.5000 104.8300
" />
<path d="M132.0000 80.1764
L122.0298 90.1466
" />
<path d="M132.0000 100.1168
L122.0298 90.1466
" />
<path d="M141.9702 90.1466
L132.0000 80.1764
" />
<path d="M141.9702 90.1466
L132.0000 100.1168
" />
<path d="M231.5300 70.6000
L231.5300 73.6000
" />
<path d="M231.5300 73.6000
L241.2500 73.6000
" />
<path d="M241.2500 70.6000
L231.5300 70.6000
" />
<path d="M241.2500 73.6000
L241.2500 70.6000
" />
<path d="M163.5000 104.8300
L163.5000 114.5500
" />
<path d="M163.5000 114.5500
L166.5000 114.5500
" />
<path d="M166.5000 104.8300
L163.5000 104.8300
" />
<path d="M166.5000 114.5500
L166.5000 104.8300
" />
<path d="M190.0500 69.5000
L190.0500 79.3000
" />
<path d="M190.0500 79.3000
L226.1500 79.3000
" />
<path d="M226.1500 69.5000
L190.0500 69.5000
" />
<path d="M226.1500 79.3000
L226.1500 69.5000
" />
<path d="M250.2000 88.1995
L250.2000 91.1995
" />
<path d="M250.2000 91.1995
L259.9200 91.1995
" />
<path d="M259.9200 88.1995
L250.2000 88.1995
" />
<path d="M259.9200 91.1995
L259.9200 88.1995
" />
<path d="M73.9500 88.5000
L73.9500 91.5000
" />
<path d="M73.9500 91.5000
L83.6700 91.5000
" />
<path d="M83.6700 88.5000
L73.9500 88.5000
" />
<path d="M83.6700 91.5000
L83.6700 88.5000
" />
<path d="M156.3000 72.7000
L156.3000 78.1000
" />
<path d="M156.3000 78.1000
L163.7000 78.1000
" />
<path d="M163.7000 72.7000
L156.3000 72.7000
" />
<path d="M163.7000 78.1000
L163.7000 72.7000
" />
<path d="M231.5300 74.1000
L231.5300 77.1000
" />
<path d="M231.5300 77.1000
L241.2500 77.1000
" />
<path d="M241.2500 74.1000
L231.5300 74.1000
" />
<path d="M241.2500 77.1000
L241.2500 74.1000
" />
<path d="M84.1100 90.0000
L84.1100 84.5400
" />
<path d="M84.1100 90.0000
L88.8500 90.0000
" />
<path d="M88.8500 84.5400
L84.1100 84.5400
" />
<path d="M88.8500 84.5400
L88.8500 90.0000
" />
<path d="M97.5000 97.1400
L97.5000 106.8600
" />
<path d="M97.5000 106.8600
L100.5000 106.8600
" />
<path d="M100.5000 97.1400
L97.5000 97.1400
" />
<path d="M100.5000 106.8600
L100.5000 97.1400
" />
<path d="M227.2800 70.5500
L227.2800 77.6500
" />
<path d="M227.2800 77.6500
L230.2800 77.6500
" />
<path d="M230.2800 70.5500
L227.2800 70.5500
" />
<path d="M230.2800 77.6500
L230.2800 70.5500
" />
<path d="M233.5000 97.1400
L233.5000 106.8600
" />
<path d="M233.5000 106.8600
L236.5000 106.8600
" />
<path d="M236.5000 97.1400
L233.5000 97.1400
" />
<path d="M236.5000 106.8600
L236.5000 97.1400
" />
<path d="M202.0000 80.0298
L192.0298 90.0000
" />
<path d="M202.0000 99.9702
L192.0298 90.0000
" />
<path d="M211.9702 90.0000
L202.0000 80.0298
" />
<path d="M211.9702 90.0000
L202.0000 99.9702
" />
<path d="M78.9000 73.4500
L78.9000 84.1500
" />
<path d="M78.9000 84.1500
L88.7000 84.1500
" />
<path d="M88.7000 73.4500
L78.9000 73.4500
" />
<path d="M88.7000 84.1500
L88.7000 73.4500
" />
<path d="M231.6500 84.6000
L231.6500 87.6000
" />
<path d="M231.6500 87.6000
L241.3700 87.6000
" />
<path d="M241.3700 84.6000
L231.6500 84.6000
" />
<path d="M241.3700 87.6000
L241.3700 84.6000
" />
<path d="M234.1500 77.6000
L234.1500 80.6000
" />
<path d="M234.1500 80.6000
L241.2500 80.6000
" />
<path d="M241.2500 77.6000
L234.1500 77.6000
" />
<path d="M241.2500 80.6000
L241.2500 77.6000
" />
<path d="M256.9000 91.9500
L256.9000 99.0500
" />
<path d="M256.9000 99.0500
L259.9000 99.0500
" />
<path d="M259.9000 91.9500
L256.9000 91.9500
" />
<path d="M259.9000 99.0500
L259.9000 91.9500
" />
<path d="M110.6200 76.1400
L110.6200 85.8600
" />
<path d="M110.6200 85.8600
L113.6200 85.8600
" />
<path d="M113.6200 76.1400
L110.6200 76.1400
" />
<path d="M113.6200 85.8600
L113.6200 76.1400
" />
<path d="M140.5500 70.5000
L140.5500 73.5000
" />
<path d="M140.5500 73.5000
L147.6500 73.5000
" />
<path d="M147.6500 70.5000
L140.5500 70.5000
" />
<path d="M147.6500 73.5000
L147.6500 70.5000
" />
<path d="M237.5000 97.1400
L237.5000 106.8600
" />
<path d="M237.5000 106.8600
L240.5000 106.8600
" />
<path d="M240.5000 97.1400
L237.5000 97.1400
" />
<path d="M240.5000 106.8600
L240.5000 97.1400
" />
<circle cx="97.0000" cy="111.0000" r="3.4500" /> 
<path d="M122.2613 102.3173
L124.3827 104.4387
" />
<path d="M124.3827 104.4387
L129.4031 99.4182
" />
<path d="M127.2818 97.2969
L122.2613 102.3173
" />
<path d="M129.4031 99.4182
L127.2818 97.2969
" />
<path d="M89.3700 73.5200
L89.3700 94.4800
" />
<path d="M89.3700 94.4800
L99.8700 94.4800
" />
<path d="M99.8700 73.5200
L89.3700 73.5200
" />
<path d="M99.8700 94.4800
L99.8700 73.5200
" />
<path d="M94.3000 97.1400
L94.3000 106.8600
" />
<path d="M94.3000 106.8600
L97.3000 106.8600
" />
<path d="M97.3000 97.1400
L94.3000 97.1400
" />
<path d="M97.3000 106.8600
L97.3000 97.1400
" />
<path d="M136.5000 104.8300
L136.5000 114.5500
" />
<path d="M136.5000 114.5500
L139.5000 114.5500
" />
<path d="M139.5000 104.8300
L136.5000 104.8300
" />
<path d="M139.5000 114.5500
L139.5000 104.8300
" />
<circle cx="105.6200" cy="73.7500" r="4.2500" /> 
<path d="M153.8550 65.8050
L153.8550 68.8050
" />
<path d="M153.8550 68.8050
L163.5750 68.8050
" />
<path d="M163.5750 65.8050
L153.8550 65.8050
" />
<path d="M163.5750 68.8050
L163.5750 65.8050
" />
<path d="M124.5000 104.8300
L124.5000 114.5500
" />
<path d="M124.5000 114.5500
L127.5000 114.5500
" />
<path d="M127.5000 104.8300
L124.5000 104.8300
" />
<path d="M127.5000 114.5500
L127.5000 104.8300
" />
<path d="M118.9200 69.1500
L118.9200 79.6500
" />
<path d="M118.9200 79.6500
L139.8800 79.6500
" />
<path d="M139.8800 69.1500
L118.9200 69.1500
" />
<path d="M139.8800 79.6500
L139.8800 69.1500
" />
<circle cx="257.0000" cy="65.0000" r="3.4500" /> 
<circle cx="237.0000" cy="111.0000" r="3.4500" /> 
<circle cx="76.0000" cy="65.0000" r="3.4500" /> 
<path d="M194.5000 104.8300
L194.5000 114.5500
" />
<path d="M194.5000 114.5500
L197.5000 114.5500
" />
<path d="M197.5000 104.8300
L194.5000 104.8300
" />
<path d="M197.5000 114.5500
L197.5000 104.8300
" />
<path d="M97.7700 64.9000
L97.7700 68.1000
" />
<path d="M97.7700 68.1000
L108.0900 68.1000
" />
<path d="M108.0900 64.9000
L97.7700 64.9000
" />
<path d="M108.0900 68.1000
L108.0900 64.9000
" />
<path d="M153.8550 68.8050
L153.8550 71.8050
" />
<path d="M153.8550 71.8050
L163.5750 71.8050
" />
<path d="M163.5750 68.8050
L153.8550 68.8050
" />
<path d="M163.5750 71.8050
L163.5750 68.8050
" />
</g>
<g style="fill:none; 
stroke:#000000; stroke-width:0.1000; stroke-opacity:1; 
stroke-linecap:round; stroke-linejoin:round;">
<path d="M241.9500 70.6420
L259.9500 70.6420
" />
<path d="M241.9500 87.9570
L241.9500 70.6420
" />
<path d="M259.9500 70.6420
L259.9500 87.9570
" />
<path d="M259.9500 87.9570
L241.9500 87.9570
" />
</g>
<g style="fill:none; 
stroke:#000000; stroke-width:0.0500; stroke-opacity:1; 
stroke-linecap:round; stroke-linejoin:round;">
<path d="M73.1250 69.6000
L73.1250 73.2000
" />
<path d="M73.1250 73.2000
L79.2750 73.2000
" />
<path d="M79.2750 69.6000
L73.1250 69.6000
" />
<path d="M79.2750 73.2000
L79.2750 69.6000
" />
<path d="M239.9800 88.1995
L239.9800 91.1995
" />
<path d="M239.9800 91.1995
L249.7000 91.1995
" />
<path d="M249.7000 88.1995
L239.9800 88.1995
" />
<path d="M249.7000 91.1995
L249.7000 88.1995
" />
<path d="M162.0500 96.0000
L162.0500 99.0000
" />
<path d="M162.0500 99.0000
L169.1500 99.0000
" />
<path d="M169.1500 96.0000
L162.0500 96.0000
" />
<path d="M169.1500 99.0000
L169.1500 96.0000
" />
<path d="M150.0250 66.2550
L150.0250 73.3550
" />
<path d="M150.0250 73.3550
L153.0250 73.3550
" />
<path d="M153.0250 66.2550
L150.0250 66.2550
" />
<path d="M153.0250 73.3550
L153.0250 66.2550
" />
<path d="M158.6500 82.1000
L158.6500 85.1000
" />
<path d="M158.6500 85.1000
L165.7500 85.1000
" />
<path d="M165.7500 82.1000
L158.6500 82.1000
" />
<path d="M165.7500 85.1000
L165.7500 82.1000
" />
<path d="M167.5000 104.8300
L167.5000 114.5500
" />
<path d="M167.5000 114.5500
L170.5000 114.5500
" />
<path d="M170.5000 104.8300
L167.5000 104.8300
" />
<path d="M170.5000 114.5500
L170.5000 104.8300
" />
<path d="M73.9500 84.7500
L73.9500 87.2500
" />
<path d="M73.9500 87.2500
L83.6700 87.2500
" />
<path d="M83.6700 84.7500
L73.9500 84.7500
" />
<path d="M83.6700 87.2500
L83.6700 84.7500
" />
<path d="M150.0250 73.6350
L150.0250 83.3550
" />
<path d="M150.0250 83.3550
L153.0250 83.3550
" />
<path d="M153.0250 73.6350
L150.0250 73.6350
" />
<path d="M153.0250 83.3550
L153.0250 73.6350
" />
<path d="M140.5500 75.5000
L140.5500 78.5000
" />
<path d="M140.5500 78.5000
L147.6500 78.5000
" />
<path d="M147.6500 75.5000
L140.5500 75.5000
" />
<path d="M147.6500 78.5000
L147.6500 75.5000
" />
<path d="M229.8800 88.1995
L229.8800 91.1995
" />
<path d="M229.8800 91.1995
L239.6000 91.1995
" />
<path d="M239.6000 88.1995
L229.8800 88.1995
" />
<path d="M239.6000 91.1995
L239.6000 88.1995
" />
<path d="M75.6200 73.4500
L75.6200 80.5500
" />
<path d="M75.6200 80.5500
L78.6200 80.5500
" />
<path d="M78.6200 73.4500
L75.6200 73.4500
" />
<path d="M78.6200 80.5500
L78.6200 73.4500
" />
</g> 
</svg>
