<?xml version="1.0" standalone="no"?>
 <!DOCTYPE svg PUBLIC "-//W3C//DTD SVG 1.1//EN" 
 "http://www.w3.org/Graphics/SVG/1.1/DTD/svg11.dtd"> 
<svg
  xmlns:svg="http://www.w3.org/2000/svg"
  xmlns="http://www.w3.org/2000/svg"
  xmlns:xlink="http://www.w3.org/1999/xlink"
  version="1.1"
  width="297.0022mm" height="210.0072mm" viewBox="0.0000 0.0000 297.0022 210.0072">
<title>SVG Image created as nixie-F_Fab.svg date 2024/10/13 09:51:42 </title>
  <desc>Image generated by PCBNEW </desc>
<g style="fill:#000000; fill-opacity:1.0000;stroke:#000000; stroke-opacity:1.0000;
stroke-linecap:round; stroke-linejoin:round;"
 transform="translate(0 0) scale(1 1)">
</g>
<g style="fill:none; 
stroke:#000000; stroke-width:0.1500; stroke-opacity:1; 
stroke-linecap:round; stroke-linejoin:round;">
<g transform="rotate(-90.000000 113.9200 87.5000)">
<text x="113.9200" y="88.0000"
textLength="1.2500" font-size="1.3333" lengthAdjust="spacingAndGlyphs"
text-anchor="middle" opacity="0" stroke-opacity="0">K</text>
</g>
<g class="stroked-text"><desc>K</desc>
<path d="M114.3748 87.7619
L113.3748 87.7619
" />
<path d="M114.3748 87.1905
L113.8034 87.6190
" />
<path d="M113.3748 87.1905
L113.9462 87.7619
" />
</g><g transform="rotate(-90.000000 83.1200 67.7500)">
<text x="83.1200" y="68.2500"
textLength="2.2024" font-size="1.3333" lengthAdjust="spacingAndGlyphs"
text-anchor="middle" opacity="0" stroke-opacity="0">C5</text>
</g>
<g class="stroked-text"><desc>C5</desc>
<path d="M83.4796 67.9167
L83.5272 67.9643
" />
<path d="M83.5272 67.9643
L83.5748 68.1071
" />
<path d="M83.5748 68.1071
L83.5748 68.2024
" />
<path d="M83.5748 68.2024
L83.5272 68.3452
" />
<path d="M83.5272 68.3452
L83.4320 68.4405
" />
<path d="M83.4320 68.4405
L83.3367 68.4881
" />
<path d="M83.3367 68.4881
L83.1462 68.5357
" />
<path d="M83.1462 68.5357
L83.0034 68.5357
" />
<path d="M83.0034 68.5357
L82.8129 68.4881
" />
<path d="M82.8129 68.4881
L82.7177 68.4405
" />
<path d="M82.7177 68.4405
L82.6224 68.3452
" />
<path d="M82.6224 68.3452
L82.5748 68.2024
" />
<path d="M82.5748 68.2024
L82.5748 68.1071
" />
<path d="M82.5748 68.1071
L82.6224 67.9643
" />
<path d="M82.6224 67.9643
L82.6701 67.9167
" />
<path d="M82.5748 67.0119
L82.5748 67.4881
" />
<path d="M82.5748 67.4881
L83.0510 67.5357
" />
<path d="M83.0510 67.5357
L83.0034 67.4881
" />
<path d="M83.0034 67.4881
L82.9558 67.3929
" />
<path d="M82.9558 67.3929
L82.9558 67.1548
" />
<path d="M82.9558 67.1548
L83.0034 67.0595
" />
<path d="M83.0034 67.0595
L83.0510 67.0119
" />
<path d="M83.0510 67.0119
L83.1462 66.9643
" />
<path d="M83.1462 66.9643
L83.3843 66.9643
" />
<path d="M83.3843 66.9643
L83.4796 67.0119
" />
<path d="M83.4796 67.0119
L83.5272 67.0595
" />
<path d="M83.5272 67.0595
L83.5748 67.1548
" />
<path d="M83.5748 67.1548
L83.5748 67.3929
" />
<path d="M83.5748 67.3929
L83.5272 67.4881
" />
<path d="M83.5272 67.4881
L83.4796 67.5357
" />
</g><text x="176.8000" y="69.1000"
textLength="9.2024" font-size="1.3333" lengthAdjust="spacingAndGlyphs"
text-anchor="middle" opacity="0" stroke-opacity="0">Battery_Cell</text>
<g class="stroked-text"><desc>Battery_Cell</desc>
<path d="M172.8952 68.5310
L173.0381 68.5786
" />
<path d="M173.0381 68.5786
L173.0857 68.6262
" />
<path d="M173.0857 68.6262
L173.1333 68.7215
" />
<path d="M173.1333 68.7215
L173.1333 68.8643
" />
<path d="M173.1333 68.8643
L173.0857 68.9596
" />
<path d="M173.0857 68.9596
L173.0381 69.0072
" />
<path d="M173.0381 69.0072
L172.9429 69.0548
" />
<path d="M172.9429 69.0548
L172.5619 69.0548
" />
<path d="M172.5619 69.0548
L172.5619 68.0548
" />
<path d="M172.5619 68.0548
L172.8952 68.0548
" />
<path d="M172.8952 68.0548
L172.9905 68.1024
" />
<path d="M172.9905 68.1024
L173.0381 68.1501
" />
<path d="M173.0381 68.1501
L173.0857 68.2453
" />
<path d="M173.0857 68.2453
L173.0857 68.3405
" />
<path d="M173.0857 68.3405
L173.0381 68.4358
" />
<path d="M173.0381 68.4358
L172.9905 68.4834
" />
<path d="M172.9905 68.4834
L172.8952 68.5310
" />
<path d="M172.8952 68.5310
L172.5619 68.5310
" />
<path d="M173.9905 69.0548
L173.9905 68.5310
" />
<path d="M173.9905 68.5310
L173.9429 68.4358
" />
<path d="M173.9429 68.4358
L173.8476 68.3882
" />
<path d="M173.8476 68.3882
L173.6571 68.3882
" />
<path d="M173.6571 68.3882
L173.5619 68.4358
" />
<path d="M173.9905 69.0072
L173.8952 69.0548
" />
<path d="M173.8952 69.0548
L173.6571 69.0548
" />
<path d="M173.6571 69.0548
L173.5619 69.0072
" />
<path d="M173.5619 69.0072
L173.5143 68.9120
" />
<path d="M173.5143 68.9120
L173.5143 68.8167
" />
<path d="M173.5143 68.8167
L173.5619 68.7215
" />
<path d="M173.5619 68.7215
L173.6571 68.6739
" />
<path d="M173.6571 68.6739
L173.8952 68.6739
" />
<path d="M173.8952 68.6739
L173.9905 68.6262
" />
<path d="M174.3238 68.3882
L174.7048 68.3882
" />
<path d="M174.4667 68.0548
L174.4667 68.9120
" />
<path d="M174.4667 68.9120
L174.5143 69.0072
" />
<path d="M174.5143 69.0072
L174.6095 69.0548
" />
<path d="M174.6095 69.0548
L174.7048 69.0548
" />
<path d="M174.8952 68.3882
L175.2762 68.3882
" />
<path d="M175.0381 68.0548
L175.0381 68.9120
" />
<path d="M175.0381 68.9120
L175.0857 69.0072
" />
<path d="M175.0857 69.0072
L175.1810 69.0548
" />
<path d="M175.1810 69.0548
L175.2762 69.0548
" />
<path d="M175.9905 69.0072
L175.8952 69.0548
" />
<path d="M175.8952 69.0548
L175.7048 69.0548
" />
<path d="M175.7048 69.0548
L175.6095 69.0072
" />
<path d="M175.6095 69.0072
L175.5619 68.9120
" />
<path d="M175.5619 68.9120
L175.5619 68.5310
" />
<path d="M175.5619 68.5310
L175.6095 68.4358
" />
<path d="M175.6095 68.4358
L175.7048 68.3882
" />
<path d="M175.7048 68.3882
L175.8952 68.3882
" />
<path d="M175.8952 68.3882
L175.9905 68.4358
" />
<path d="M175.9905 68.4358
L176.0381 68.5310
" />
<path d="M176.0381 68.5310
L176.0381 68.6262
" />
<path d="M176.0381 68.6262
L175.5619 68.7215
" />
<path d="M176.4667 69.0548
L176.4667 68.3882
" />
<path d="M176.4667 68.5786
L176.5143 68.4834
" />
<path d="M176.5143 68.4834
L176.5619 68.4358
" />
<path d="M176.5619 68.4358
L176.6571 68.3882
" />
<path d="M176.6571 68.3882
L176.7524 68.3882
" />
<path d="M176.9905 68.3882
L177.2286 69.0548
" />
<path d="M177.4667 68.3882
L177.2286 69.0548
" />
<path d="M177.2286 69.0548
L177.1333 69.2929
" />
<path d="M177.1333 69.2929
L177.0857 69.3405
" />
<path d="M177.0857 69.3405
L176.9905 69.3882
" />
<path d="M177.6095 69.1501
L178.3714 69.1501
" />
<path d="M179.1810 68.9596
L179.1333 69.0072
" />
<path d="M179.1333 69.0072
L178.9905 69.0548
" />
<path d="M178.9905 69.0548
L178.8952 69.0548
" />
<path d="M178.8952 69.0548
L178.7524 69.0072
" />
<path d="M178.7524 69.0072
L178.6571 68.9120
" />
<path d="M178.6571 68.9120
L178.6095 68.8167
" />
<path d="M178.6095 68.8167
L178.5619 68.6262
" />
<path d="M178.5619 68.6262
L178.5619 68.4834
" />
<path d="M178.5619 68.4834
L178.6095 68.2929
" />
<path d="M178.6095 68.2929
L178.6571 68.1977
" />
<path d="M178.6571 68.1977
L178.7524 68.1024
" />
<path d="M178.7524 68.1024
L178.8952 68.0548
" />
<path d="M178.8952 68.0548
L178.9905 68.0548
" />
<path d="M178.9905 68.0548
L179.1333 68.1024
" />
<path d="M179.1333 68.1024
L179.1810 68.1501
" />
<path d="M179.9905 69.0072
L179.8952 69.0548
" />
<path d="M179.8952 69.0548
L179.7048 69.0548
" />
<path d="M179.7048 69.0548
L179.6095 69.0072
" />
<path d="M179.6095 69.0072
L179.5619 68.9120
" />
<path d="M179.5619 68.9120
L179.5619 68.5310
" />
<path d="M179.5619 68.5310
L179.6095 68.4358
" />
<path d="M179.6095 68.4358
L179.7048 68.3882
" />
<path d="M179.7048 68.3882
L179.8952 68.3882
" />
<path d="M179.8952 68.3882
L179.9905 68.4358
" />
<path d="M179.9905 68.4358
L180.0381 68.5310
" />
<path d="M180.0381 68.5310
L180.0381 68.6262
" />
<path d="M180.0381 68.6262
L179.5619 68.7215
" />
<path d="M180.6095 69.0548
L180.5143 69.0072
" />
<path d="M180.5143 69.0072
L180.4667 68.9120
" />
<path d="M180.4667 68.9120
L180.4667 68.0548
" />
<path d="M181.1333 69.0548
L181.0381 69.0072
" />
<path d="M181.0381 69.0072
L180.9905 68.9120
" />
<path d="M180.9905 68.9120
L180.9905 68.0548
" />
</g><g transform="rotate(-90.000000 86.1200 87.2700)">
<text x="86.1200" y="87.7700"
textLength="2.2500" font-size="1.3333" lengthAdjust="spacingAndGlyphs"
text-anchor="middle" opacity="0" stroke-opacity="0">Q1</text>
</g>
<g class="stroked-text"><desc>Q1</desc>
<path d="M86.6701 87.3652
L86.6224 87.4605
" />
<path d="M86.6224 87.4605
L86.5272 87.5557
" />
<path d="M86.5272 87.5557
L86.3843 87.6986
" />
<path d="M86.3843 87.6986
L86.3367 87.7938
" />
<path d="M86.3367 87.7938
L86.3367 87.8890
" />
<path d="M86.5748 87.8414
L86.5272 87.9367
" />
<path d="M86.5272 87.9367
L86.4320 88.0319
" />
<path d="M86.4320 88.0319
L86.2415 88.0795
" />
<path d="M86.2415 88.0795
L85.9082 88.0795
" />
<path d="M85.9082 88.0795
L85.7177 88.0319
" />
<path d="M85.7177 88.0319
L85.6224 87.9367
" />
<path d="M85.6224 87.9367
L85.5748 87.8414
" />
<path d="M85.5748 87.8414
L85.5748 87.6510
" />
<path d="M85.5748 87.6510
L85.6224 87.5557
" />
<path d="M85.6224 87.5557
L85.7177 87.4605
" />
<path d="M85.7177 87.4605
L85.9082 87.4129
" />
<path d="M85.9082 87.4129
L86.2415 87.4129
" />
<path d="M86.2415 87.4129
L86.4320 87.4605
" />
<path d="M86.4320 87.4605
L86.5272 87.5557
" />
<path d="M86.5272 87.5557
L86.5748 87.6510
" />
<path d="M86.5748 87.6510
L86.5748 87.8414
" />
<path d="M86.5748 86.4605
L86.5748 87.0319
" />
<path d="M86.5748 86.7462
L85.5748 86.7462
" />
<path d="M85.5748 86.7462
L85.7177 86.8414
" />
<path d="M85.7177 86.8414
L85.8129 86.9367
" />
<path d="M85.8129 86.9367
L85.8605 87.0319
" />
</g><text x="97.0000" y="117.9000"
textLength="13.8690" font-size="1.3333" lengthAdjust="spacingAndGlyphs"
text-anchor="middle" opacity="0" stroke-opacity="0">MountingHole_Pad</text>
<g class="stroked-text"><desc>MountingHole_Pad</desc>
<path d="M90.4286 117.8548
L90.4286 116.8548
" />
<path d="M90.4286 116.8548
L90.7619 117.5691
" />
<path d="M90.7619 117.5691
L91.0952 116.8548
" />
<path d="M91.0952 116.8548
L91.0952 117.8548
" />
<path d="M91.7143 117.8548
L91.6190 117.8072
" />
<path d="M91.6190 117.8072
L91.5714 117.7596
" />
<path d="M91.5714 117.7596
L91.5238 117.6643
" />
<path d="M91.5238 117.6643
L91.5238 117.3786
" />
<path d="M91.5238 117.3786
L91.5714 117.2834
" />
<path d="M91.5714 117.2834
L91.6190 117.2358
" />
<path d="M91.6190 117.2358
L91.7143 117.1882
" />
<path d="M91.7143 117.1882
L91.8571 117.1882
" />
<path d="M91.8571 117.1882
L91.9524 117.2358
" />
<path d="M91.9524 117.2358
L92.0000 117.2834
" />
<path d="M92.0000 117.2834
L92.0476 117.3786
" />
<path d="M92.0476 117.3786
L92.0476 117.6643
" />
<path d="M92.0476 117.6643
L92.0000 117.7596
" />
<path d="M92.0000 117.7596
L91.9524 117.8072
" />
<path d="M91.9524 117.8072
L91.8571 117.8548
" />
<path d="M91.8571 117.8548
L91.7143 117.8548
" />
<path d="M92.9048 117.1882
L92.9048 117.8548
" />
<path d="M92.4762 117.1882
L92.4762 117.7120
" />
<path d="M92.4762 117.7120
L92.5238 117.8072
" />
<path d="M92.5238 117.8072
L92.6190 117.8548
" />
<path d="M92.6190 117.8548
L92.7619 117.8548
" />
<path d="M92.7619 117.8548
L92.8571 117.8072
" />
<path d="M92.8571 117.8072
L92.9048 117.7596
" />
<path d="M93.3810 117.1882
L93.3810 117.8548
" />
<path d="M93.3810 117.2834
L93.4286 117.2358
" />
<path d="M93.4286 117.2358
L93.5238 117.1882
" />
<path d="M93.5238 117.1882
L93.6667 117.1882
" />
<path d="M93.6667 117.1882
L93.7619 117.2358
" />
<path d="M93.7619 117.2358
L93.8095 117.3310
" />
<path d="M93.8095 117.3310
L93.8095 117.8548
" />
<path d="M94.1429 117.1882
L94.5238 117.1882
" />
<path d="M94.2857 116.8548
L94.2857 117.7120
" />
<path d="M94.2857 117.7120
L94.3333 117.8072
" />
<path d="M94.3333 117.8072
L94.4286 117.8548
" />
<path d="M94.4286 117.8548
L94.5238 117.8548
" />
<path d="M94.8571 117.8548
L94.8571 117.1882
" />
<path d="M94.8571 116.8548
L94.8095 116.9024
" />
<path d="M94.8095 116.9024
L94.8571 116.9501
" />
<path d="M94.8571 116.9501
L94.9048 116.9024
" />
<path d="M94.9048 116.9024
L94.8571 116.8548
" />
<path d="M94.8571 116.8548
L94.8571 116.9501
" />
<path d="M95.3333 117.1882
L95.3333 117.8548
" />
<path d="M95.3333 117.2834
L95.3810 117.2358
" />
<path d="M95.3810 117.2358
L95.4762 117.1882
" />
<path d="M95.4762 117.1882
L95.6190 117.1882
" />
<path d="M95.6190 117.1882
L95.7143 117.2358
" />
<path d="M95.7143 117.2358
L95.7619 117.3310
" />
<path d="M95.7619 117.3310
L95.7619 117.8548
" />
<path d="M96.6667 117.1882
L96.6667 117.9977
" />
<path d="M96.6667 117.9977
L96.6190 118.0929
" />
<path d="M96.6190 118.0929
L96.5714 118.1405
" />
<path d="M96.5714 118.1405
L96.4762 118.1882
" />
<path d="M96.4762 118.1882
L96.3333 118.1882
" />
<path d="M96.3333 118.1882
L96.2381 118.1405
" />
<path d="M96.6667 117.8072
L96.5714 117.8548
" />
<path d="M96.5714 117.8548
L96.3810 117.8548
" />
<path d="M96.3810 117.8548
L96.2857 117.8072
" />
<path d="M96.2857 117.8072
L96.2381 117.7596
" />
<path d="M96.2381 117.7596
L96.1905 117.6643
" />
<path d="M96.1905 117.6643
L96.1905 117.3786
" />
<path d="M96.1905 117.3786
L96.2381 117.2834
" />
<path d="M96.2381 117.2834
L96.2857 117.2358
" />
<path d="M96.2857 117.2358
L96.3810 117.1882
" />
<path d="M96.3810 117.1882
L96.5714 117.1882
" />
<path d="M96.5714 117.1882
L96.6667 117.2358
" />
<path d="M97.1429 117.8548
L97.1429 116.8548
" />
<path d="M97.1429 117.3310
L97.7143 117.3310
" />
<path d="M97.7143 117.8548
L97.7143 116.8548
" />
<path d="M98.3333 117.8548
L98.2381 117.8072
" />
<path d="M98.2381 117.8072
L98.1905 117.7596
" />
<path d="M98.1905 117.7596
L98.1429 117.6643
" />
<path d="M98.1429 117.6643
L98.1429 117.3786
" />
<path d="M98.1429 117.3786
L98.1905 117.2834
" />
<path d="M98.1905 117.2834
L98.2381 117.2358
" />
<path d="M98.2381 117.2358
L98.3333 117.1882
" />
<path d="M98.3333 117.1882
L98.4762 117.1882
" />
<path d="M98.4762 117.1882
L98.5714 117.2358
" />
<path d="M98.5714 117.2358
L98.6190 117.2834
" />
<path d="M98.6190 117.2834
L98.6667 117.3786
" />
<path d="M98.6667 117.3786
L98.6667 117.6643
" />
<path d="M98.6667 117.6643
L98.6190 117.7596
" />
<path d="M98.6190 117.7596
L98.5714 117.8072
" />
<path d="M98.5714 117.8072
L98.4762 117.8548
" />
<path d="M98.4762 117.8548
L98.3333 117.8548
" />
<path d="M99.2381 117.8548
L99.1429 117.8072
" />
<path d="M99.1429 117.8072
L99.0952 117.7120
" />
<path d="M99.0952 117.7120
L99.0952 116.8548
" />
<path d="M100.0000 117.8072
L99.9048 117.8548
" />
<path d="M99.9048 117.8548
L99.7143 117.8548
" />
<path d="M99.7143 117.8548
L99.6190 117.8072
" />
<path d="M99.6190 117.8072
L99.5714 117.7120
" />
<path d="M99.5714 117.7120
L99.5714 117.3310
" />
<path d="M99.5714 117.3310
L99.6190 117.2358
" />
<path d="M99.6190 117.2358
L99.7143 117.1882
" />
<path d="M99.7143 117.1882
L99.9048 117.1882
" />
<path d="M99.9048 117.1882
L100.0000 117.2358
" />
<path d="M100.0000 117.2358
L100.0476 117.3310
" />
<path d="M100.0476 117.3310
L100.0476 117.4262
" />
<path d="M100.0476 117.4262
L99.5714 117.5215
" />
<path d="M100.2381 117.9501
L101.0000 117.9501
" />
<path d="M101.2381 117.8548
L101.2381 116.8548
" />
<path d="M101.2381 116.8548
L101.6190 116.8548
" />
<path d="M101.6190 116.8548
L101.7143 116.9024
" />
<path d="M101.7143 116.9024
L101.7619 116.9501
" />
<path d="M101.7619 116.9501
L101.8095 117.0453
" />
<path d="M101.8095 117.0453
L101.8095 117.1882
" />
<path d="M101.8095 117.1882
L101.7619 117.2834
" />
<path d="M101.7619 117.2834
L101.7143 117.3310
" />
<path d="M101.7143 117.3310
L101.6190 117.3786
" />
<path d="M101.6190 117.3786
L101.2381 117.3786
" />
<path d="M102.6667 117.8548
L102.6667 117.3310
" />
<path d="M102.6667 117.3310
L102.6190 117.2358
" />
<path d="M102.6190 117.2358
L102.5238 117.1882
" />
<path d="M102.5238 117.1882
L102.3333 117.1882
" />
<path d="M102.3333 117.1882
L102.2381 117.2358
" />
<path d="M102.6667 117.8072
L102.5714 117.8548
" />
<path d="M102.5714 117.8548
L102.3333 117.8548
" />
<path d="M102.3333 117.8548
L102.2381 117.8072
" />
<path d="M102.2381 117.8072
L102.1905 117.7120
" />
<path d="M102.1905 117.7120
L102.1905 117.6167
" />
<path d="M102.1905 117.6167
L102.2381 117.5215
" />
<path d="M102.2381 117.5215
L102.3333 117.4739
" />
<path d="M102.3333 117.4739
L102.5714 117.4739
" />
<path d="M102.5714 117.4739
L102.6667 117.4262
" />
<path d="M103.5714 117.8548
L103.5714 116.8548
" />
<path d="M103.5714 117.8072
L103.4762 117.8548
" />
<path d="M103.4762 117.8548
L103.2857 117.8548
" />
<path d="M103.2857 117.8548
L103.1905 117.8072
" />
<path d="M103.1905 117.8072
L103.1429 117.7596
" />
<path d="M103.1429 117.7596
L103.0952 117.6643
" />
<path d="M103.0952 117.6643
L103.0952 117.3786
" />
<path d="M103.0952 117.3786
L103.1429 117.2834
" />
<path d="M103.1429 117.2834
L103.1905 117.2358
" />
<path d="M103.1905 117.2358
L103.2857 117.1882
" />
<path d="M103.2857 117.1882
L103.4762 117.1882
" />
<path d="M103.4762 117.1882
L103.5714 117.2358
" />
</g><text x="97.0000" y="111.5000"
textLength="2.2500" font-size="1.3333" lengthAdjust="spacingAndGlyphs"
text-anchor="middle" opacity="0" stroke-opacity="0">H4</text>
<g class="stroked-text"><desc>H4</desc>
<path d="M96.2381 111.4548
L96.2381 110.4548
" />
<path d="M96.2381 110.9310
L96.8095 110.9310
" />
<path d="M96.8095 111.4548
L96.8095 110.4548
" />
<path d="M97.7143 110.7882
L97.7143 111.4548
" />
<path d="M97.4762 110.4072
L97.2381 111.1215
" />
<path d="M97.2381 111.1215
L97.8571 111.1215
" />
</g><text x="94.6200" y="95.8500"
textLength="2.2500" font-size="1.3333" lengthAdjust="spacingAndGlyphs"
text-anchor="middle" opacity="0" stroke-opacity="0">Q2</text>
<g class="stroked-text"><desc>Q2</desc>
<path d="M94.5248 95.9001
L94.4295 95.8524
" />
<path d="M94.4295 95.8524
L94.3343 95.7572
" />
<path d="M94.3343 95.7572
L94.1914 95.6143
" />
<path d="M94.1914 95.6143
L94.0962 95.5667
" />
<path d="M94.0962 95.5667
L94.0010 95.5667
" />
<path d="M94.0486 95.8048
L93.9533 95.7572
" />
<path d="M93.9533 95.7572
L93.8581 95.6620
" />
<path d="M93.8581 95.6620
L93.8105 95.4715
" />
<path d="M93.8105 95.4715
L93.8105 95.1382
" />
<path d="M93.8105 95.1382
L93.8581 94.9477
" />
<path d="M93.8581 94.9477
L93.9533 94.8524
" />
<path d="M93.9533 94.8524
L94.0486 94.8048
" />
<path d="M94.0486 94.8048
L94.2390 94.8048
" />
<path d="M94.2390 94.8048
L94.3343 94.8524
" />
<path d="M94.3343 94.8524
L94.4295 94.9477
" />
<path d="M94.4295 94.9477
L94.4771 95.1382
" />
<path d="M94.4771 95.1382
L94.4771 95.4715
" />
<path d="M94.4771 95.4715
L94.4295 95.6620
" />
<path d="M94.4295 95.6620
L94.3343 95.7572
" />
<path d="M94.3343 95.7572
L94.2390 95.8048
" />
<path d="M94.2390 95.8048
L94.0486 95.8048
" />
<path d="M94.8581 94.9001
L94.9057 94.8524
" />
<path d="M94.9057 94.8524
L95.0010 94.8048
" />
<path d="M95.0010 94.8048
L95.2390 94.8048
" />
<path d="M95.2390 94.8048
L95.3343 94.8524
" />
<path d="M95.3343 94.8524
L95.3819 94.9001
" />
<path d="M95.3819 94.9001
L95.4295 94.9953
" />
<path d="M95.4295 94.9953
L95.4295 95.0905
" />
<path d="M95.4295 95.0905
L95.3819 95.2334
" />
<path d="M95.3819 95.2334
L94.8105 95.8048
" />
<path d="M94.8105 95.8048
L95.4295 95.8048
" />
</g><text x="256.9000" y="59.9000"
textLength="13.8690" font-size="1.3333" lengthAdjust="spacingAndGlyphs"
text-anchor="middle" opacity="0" stroke-opacity="0">MountingHole_Pad</text>
<g class="stroked-text"><desc>MountingHole_Pad</desc>
<path d="M250.3286 59.8548
L250.3286 58.8548
" />
<path d="M250.3286 58.8548
L250.6619 59.5691
" />
<path d="M250.6619 59.5691
L250.9952 58.8548
" />
<path d="M250.9952 58.8548
L250.9952 59.8548
" />
<path d="M251.6143 59.8548
L251.5190 59.8072
" />
<path d="M251.5190 59.8072
L251.4714 59.7596
" />
<path d="M251.4714 59.7596
L251.4238 59.6643
" />
<path d="M251.4238 59.6643
L251.4238 59.3786
" />
<path d="M251.4238 59.3786
L251.4714 59.2834
" />
<path d="M251.4714 59.2834
L251.5190 59.2358
" />
<path d="M251.5190 59.2358
L251.6143 59.1882
" />
<path d="M251.6143 59.1882
L251.7571 59.1882
" />
<path d="M251.7571 59.1882
L251.8524 59.2358
" />
<path d="M251.8524 59.2358
L251.9000 59.2834
" />
<path d="M251.9000 59.2834
L251.9476 59.3786
" />
<path d="M251.9476 59.3786
L251.9476 59.6643
" />
<path d="M251.9476 59.6643
L251.9000 59.7596
" />
<path d="M251.9000 59.7596
L251.8524 59.8072
" />
<path d="M251.8524 59.8072
L251.7571 59.8548
" />
<path d="M251.7571 59.8548
L251.6143 59.8548
" />
<path d="M252.8048 59.1882
L252.8048 59.8548
" />
<path d="M252.3762 59.1882
L252.3762 59.7120
" />
<path d="M252.3762 59.7120
L252.4238 59.8072
" />
<path d="M252.4238 59.8072
L252.5190 59.8548
" />
<path d="M252.5190 59.8548
L252.6619 59.8548
" />
<path d="M252.6619 59.8548
L252.7571 59.8072
" />
<path d="M252.7571 59.8072
L252.8048 59.7596
" />
<path d="M253.2810 59.1882
L253.2810 59.8548
" />
<path d="M253.2810 59.2834
L253.3286 59.2358
" />
<path d="M253.3286 59.2358
L253.4238 59.1882
" />
<path d="M253.4238 59.1882
L253.5667 59.1882
" />
<path d="M253.5667 59.1882
L253.6619 59.2358
" />
<path d="M253.6619 59.2358
L253.7095 59.3310
" />
<path d="M253.7095 59.3310
L253.7095 59.8548
" />
<path d="M254.0429 59.1882
L254.4238 59.1882
" />
<path d="M254.1857 58.8548
L254.1857 59.7120
" />
<path d="M254.1857 59.7120
L254.2333 59.8072
" />
<path d="M254.2333 59.8072
L254.3286 59.8548
" />
<path d="M254.3286 59.8548
L254.4238 59.8548
" />
<path d="M254.7571 59.8548
L254.7571 59.1882
" />
<path d="M254.7571 58.8548
L254.7095 58.9024
" />
<path d="M254.7095 58.9024
L254.7571 58.9501
" />
<path d="M254.7571 58.9501
L254.8048 58.9024
" />
<path d="M254.8048 58.9024
L254.7571 58.8548
" />
<path d="M254.7571 58.8548
L254.7571 58.9501
" />
<path d="M255.2333 59.1882
L255.2333 59.8548
" />
<path d="M255.2333 59.2834
L255.2810 59.2358
" />
<path d="M255.2810 59.2358
L255.3762 59.1882
" />
<path d="M255.3762 59.1882
L255.5190 59.1882
" />
<path d="M255.5190 59.1882
L255.6143 59.2358
" />
<path d="M255.6143 59.2358
L255.6619 59.3310
" />
<path d="M255.6619 59.3310
L255.6619 59.8548
" />
<path d="M256.5667 59.1882
L256.5667 59.9977
" />
<path d="M256.5667 59.9977
L256.5190 60.0929
" />
<path d="M256.5190 60.0929
L256.4714 60.1405
" />
<path d="M256.4714 60.1405
L256.3762 60.1882
" />
<path d="M256.3762 60.1882
L256.2333 60.1882
" />
<path d="M256.2333 60.1882
L256.1381 60.1405
" />
<path d="M256.5667 59.8072
L256.4714 59.8548
" />
<path d="M256.4714 59.8548
L256.2810 59.8548
" />
<path d="M256.2810 59.8548
L256.1857 59.8072
" />
<path d="M256.1857 59.8072
L256.1381 59.7596
" />
<path d="M256.1381 59.7596
L256.0905 59.6643
" />
<path d="M256.0905 59.6643
L256.0905 59.3786
" />
<path d="M256.0905 59.3786
L256.1381 59.2834
" />
<path d="M256.1381 59.2834
L256.1857 59.2358
" />
<path d="M256.1857 59.2358
L256.2810 59.1882
" />
<path d="M256.2810 59.1882
L256.4714 59.1882
" />
<path d="M256.4714 59.1882
L256.5667 59.2358
" />
<path d="M257.0429 59.8548
L257.0429 58.8548
" />
<path d="M257.0429 59.3310
L257.6143 59.3310
" />
<path d="M257.6143 59.8548
L257.6143 58.8548
" />
<path d="M258.2333 59.8548
L258.1381 59.8072
" />
<path d="M258.1381 59.8072
L258.0905 59.7596
" />
<path d="M258.0905 59.7596
L258.0429 59.6643
" />
<path d="M258.0429 59.6643
L258.0429 59.3786
" />
<path d="M258.0429 59.3786
L258.0905 59.2834
" />
<path d="M258.0905 59.2834
L258.1381 59.2358
" />
<path d="M258.1381 59.2358
L258.2333 59.1882
" />
<path d="M258.2333 59.1882
L258.3762 59.1882
" />
<path d="M258.3762 59.1882
L258.4714 59.2358
" />
<path d="M258.4714 59.2358
L258.5190 59.2834
" />
<path d="M258.5190 59.2834
L258.5667 59.3786
" />
<path d="M258.5667 59.3786
L258.5667 59.6643
" />
<path d="M258.5667 59.6643
L258.5190 59.7596
" />
<path d="M258.5190 59.7596
L258.4714 59.8072
" />
<path d="M258.4714 59.8072
L258.3762 59.8548
" />
<path d="M258.3762 59.8548
L258.2333 59.8548
" />
<path d="M259.1381 59.8548
L259.0429 59.8072
" />
<path d="M259.0429 59.8072
L258.9952 59.7120
" />
<path d="M258.9952 59.7120
L258.9952 58.8548
" />
<path d="M259.9000 59.8072
L259.8048 59.8548
" />
<path d="M259.8048 59.8548
L259.6143 59.8548
" />
<path d="M259.6143 59.8548
L259.5190 59.8072
" />
<path d="M259.5190 59.8072
L259.4714 59.7120
" />
<path d="M259.4714 59.7120
L259.4714 59.3310
" />
<path d="M259.4714 59.3310
L259.5190 59.2358
" />
<path d="M259.5190 59.2358
L259.6143 59.1882
" />
<path d="M259.6143 59.1882
L259.8048 59.1882
" />
<path d="M259.8048 59.1882
L259.9000 59.2358
" />
<path d="M259.9000 59.2358
L259.9476 59.3310
" />
<path d="M259.9476 59.3310
L259.9476 59.4262
" />
<path d="M259.9476 59.4262
L259.4714 59.5215
" />
<path d="M260.1381 59.9501
L260.9000 59.9501
" />
<path d="M261.1381 59.8548
L261.1381 58.8548
" />
<path d="M261.1381 58.8548
L261.5190 58.8548
" />
<path d="M261.5190 58.8548
L261.6143 58.9024
" />
<path d="M261.6143 58.9024
L261.6619 58.9501
" />
<path d="M261.6619 58.9501
L261.7095 59.0453
" />
<path d="M261.7095 59.0453
L261.7095 59.1882
" />
<path d="M261.7095 59.1882
L261.6619 59.2834
" />
<path d="M261.6619 59.2834
L261.6143 59.3310
" />
<path d="M261.6143 59.3310
L261.5190 59.3786
" />
<path d="M261.5190 59.3786
L261.1381 59.3786
" />
<path d="M262.5667 59.8548
L262.5667 59.3310
" />
<path d="M262.5667 59.3310
L262.5190 59.2358
" />
<path d="M262.5190 59.2358
L262.4238 59.1882
" />
<path d="M262.4238 59.1882
L262.2333 59.1882
" />
<path d="M262.2333 59.1882
L262.1381 59.2358
" />
<path d="M262.5667 59.8072
L262.4714 59.8548
" />
<path d="M262.4714 59.8548
L262.2333 59.8548
" />
<path d="M262.2333 59.8548
L262.1381 59.8072
" />
<path d="M262.1381 59.8072
L262.0905 59.7120
" />
<path d="M262.0905 59.7120
L262.0905 59.6167
" />
<path d="M262.0905 59.6167
L262.1381 59.5215
" />
<path d="M262.1381 59.5215
L262.2333 59.4739
" />
<path d="M262.2333 59.4739
L262.4714 59.4739
" />
<path d="M262.4714 59.4739
L262.5667 59.4262
" />
<path d="M263.4714 59.8548
L263.4714 58.8548
" />
<path d="M263.4714 59.8072
L263.3762 59.8548
" />
<path d="M263.3762 59.8548
L263.1857 59.8548
" />
<path d="M263.1857 59.8548
L263.0905 59.8072
" />
<path d="M263.0905 59.8072
L263.0429 59.7596
" />
<path d="M263.0429 59.7596
L262.9952 59.6643
" />
<path d="M262.9952 59.6643
L262.9952 59.3786
" />
<path d="M262.9952 59.3786
L263.0429 59.2834
" />
<path d="M263.0429 59.2834
L263.0905 59.2358
" />
<path d="M263.0905 59.2358
L263.1857 59.1882
" />
<path d="M263.1857 59.1882
L263.3762 59.1882
" />
<path d="M263.3762 59.1882
L263.4714 59.2358
" />
</g><text x="255.3800" y="65.5000"
textLength="2.2500" font-size="1.3333" lengthAdjust="spacingAndGlyphs"
text-anchor="middle" opacity="0" stroke-opacity="0">H2</text>
<g class="stroked-text"><desc>H2</desc>
<path d="M254.6181 65.4548
L254.6181 64.4548
" />
<path d="M254.6181 64.9310
L255.1895 64.9310
" />
<path d="M255.1895 65.4548
L255.1895 64.4548
" />
<path d="M255.6181 64.5501
L255.6657 64.5024
" />
<path d="M255.6657 64.5024
L255.7610 64.4548
" />
<path d="M255.7610 64.4548
L255.9990 64.4548
" />
<path d="M255.9990 64.4548
L256.0943 64.5024
" />
<path d="M256.0943 64.5024
L256.1419 64.5501
" />
<path d="M256.1419 64.5501
L256.1895 64.6453
" />
<path d="M256.1895 64.6453
L256.1895 64.7405
" />
<path d="M256.1895 64.7405
L256.1419 64.8834
" />
<path d="M256.1419 64.8834
L255.5705 65.4548
" />
<path d="M255.5705 65.4548
L256.1895 65.4548
" />
</g><text x="237.0000" y="117.7000"
textLength="13.8690" font-size="1.3333" lengthAdjust="spacingAndGlyphs"
text-anchor="middle" opacity="0" stroke-opacity="0">MountingHole_Pad</text>
<g class="stroked-text"><desc>MountingHole_Pad</desc>
<path d="M230.4286 117.6548
L230.4286 116.6548
" />
<path d="M230.4286 116.6548
L230.7619 117.3691
" />
<path d="M230.7619 117.3691
L231.0952 116.6548
" />
<path d="M231.0952 116.6548
L231.0952 117.6548
" />
<path d="M231.7143 117.6548
L231.6190 117.6072
" />
<path d="M231.6190 117.6072
L231.5714 117.5596
" />
<path d="M231.5714 117.5596
L231.5238 117.4643
" />
<path d="M231.5238 117.4643
L231.5238 117.1786
" />
<path d="M231.5238 117.1786
L231.5714 117.0834
" />
<path d="M231.5714 117.0834
L231.6190 117.0358
" />
<path d="M231.6190 117.0358
L231.7143 116.9882
" />
<path d="M231.7143 116.9882
L231.8571 116.9882
" />
<path d="M231.8571 116.9882
L231.9524 117.0358
" />
<path d="M231.9524 117.0358
L232.0000 117.0834
" />
<path d="M232.0000 117.0834
L232.0476 117.1786
" />
<path d="M232.0476 117.1786
L232.0476 117.4643
" />
<path d="M232.0476 117.4643
L232.0000 117.5596
" />
<path d="M232.0000 117.5596
L231.9524 117.6072
" />
<path d="M231.9524 117.6072
L231.8571 117.6548
" />
<path d="M231.8571 117.6548
L231.7143 117.6548
" />
<path d="M232.9048 116.9882
L232.9048 117.6548
" />
<path d="M232.4762 116.9882
L232.4762 117.5120
" />
<path d="M232.4762 117.5120
L232.5238 117.6072
" />
<path d="M232.5238 117.6072
L232.6190 117.6548
" />
<path d="M232.6190 117.6548
L232.7619 117.6548
" />
<path d="M232.7619 117.6548
L232.8571 117.6072
" />
<path d="M232.8571 117.6072
L232.9048 117.5596
" />
<path d="M233.3810 116.9882
L233.3810 117.6548
" />
<path d="M233.3810 117.0834
L233.4286 117.0358
" />
<path d="M233.4286 117.0358
L233.5238 116.9882
" />
<path d="M233.5238 116.9882
L233.6667 116.9882
" />
<path d="M233.6667 116.9882
L233.7619 117.0358
" />
<path d="M233.7619 117.0358
L233.8095 117.1310
" />
<path d="M233.8095 117.1310
L233.8095 117.6548
" />
<path d="M234.1429 116.9882
L234.5238 116.9882
" />
<path d="M234.2857 116.6548
L234.2857 117.5120
" />
<path d="M234.2857 117.5120
L234.3333 117.6072
" />
<path d="M234.3333 117.6072
L234.4286 117.6548
" />
<path d="M234.4286 117.6548
L234.5238 117.6548
" />
<path d="M234.8571 117.6548
L234.8571 116.9882
" />
<path d="M234.8571 116.6548
L234.8095 116.7024
" />
<path d="M234.8095 116.7024
L234.8571 116.7501
" />
<path d="M234.8571 116.7501
L234.9048 116.7024
" />
<path d="M234.9048 116.7024
L234.8571 116.6548
" />
<path d="M234.8571 116.6548
L234.8571 116.7501
" />
<path d="M235.3333 116.9882
L235.3333 117.6548
" />
<path d="M235.3333 117.0834
L235.3810 117.0358
" />
<path d="M235.3810 117.0358
L235.4762 116.9882
" />
<path d="M235.4762 116.9882
L235.6190 116.9882
" />
<path d="M235.6190 116.9882
L235.7143 117.0358
" />
<path d="M235.7143 117.0358
L235.7619 117.1310
" />
<path d="M235.7619 117.1310
L235.7619 117.6548
" />
<path d="M236.6667 116.9882
L236.6667 117.7977
" />
<path d="M236.6667 117.7977
L236.6190 117.8929
" />
<path d="M236.6190 117.8929
L236.5714 117.9405
" />
<path d="M236.5714 117.9405
L236.4762 117.9882
" />
<path d="M236.4762 117.9882
L236.3333 117.9882
" />
<path d="M236.3333 117.9882
L236.2381 117.9405
" />
<path d="M236.6667 117.6072
L236.5714 117.6548
" />
<path d="M236.5714 117.6548
L236.3810 117.6548
" />
<path d="M236.3810 117.6548
L236.2857 117.6072
" />
<path d="M236.2857 117.6072
L236.2381 117.5596
" />
<path d="M236.2381 117.5596
L236.1905 117.4643
" />
<path d="M236.1905 117.4643
L236.1905 117.1786
" />
<path d="M236.1905 117.1786
L236.2381 117.0834
" />
<path d="M236.2381 117.0834
L236.2857 117.0358
" />
<path d="M236.2857 117.0358
L236.3810 116.9882
" />
<path d="M236.3810 116.9882
L236.5714 116.9882
" />
<path d="M236.5714 116.9882
L236.6667 117.0358
" />
<path d="M237.1429 117.6548
L237.1429 116.6548
" />
<path d="M237.1429 117.1310
L237.7143 117.1310
" />
<path d="M237.7143 117.6548
L237.7143 116.6548
" />
<path d="M238.3333 117.6548
L238.2381 117.6072
" />
<path d="M238.2381 117.6072
L238.1905 117.5596
" />
<path d="M238.1905 117.5596
L238.1429 117.4643
" />
<path d="M238.1429 117.4643
L238.1429 117.1786
" />
<path d="M238.1429 117.1786
L238.1905 117.0834
" />
<path d="M238.1905 117.0834
L238.2381 117.0358
" />
<path d="M238.2381 117.0358
L238.3333 116.9882
" />
<path d="M238.3333 116.9882
L238.4762 116.9882
" />
<path d="M238.4762 116.9882
L238.5714 117.0358
" />
<path d="M238.5714 117.0358
L238.6190 117.0834
" />
<path d="M238.6190 117.0834
L238.6667 117.1786
" />
<path d="M238.6667 117.1786
L238.6667 117.4643
" />
<path d="M238.6667 117.4643
L238.6190 117.5596
" />
<path d="M238.6190 117.5596
L238.5714 117.6072
" />
<path d="M238.5714 117.6072
L238.4762 117.6548
" />
<path d="M238.4762 117.6548
L238.3333 117.6548
" />
<path d="M239.2381 117.6548
L239.1429 117.6072
" />
<path d="M239.1429 117.6072
L239.0952 117.5120
" />
<path d="M239.0952 117.5120
L239.0952 116.6548
" />
<path d="M240.0000 117.6072
L239.9048 117.6548
" />
<path d="M239.9048 117.6548
L239.7143 117.6548
" />
<path d="M239.7143 117.6548
L239.6190 117.6072
" />
<path d="M239.6190 117.6072
L239.5714 117.5120
" />
<path d="M239.5714 117.5120
L239.5714 117.1310
" />
<path d="M239.5714 117.1310
L239.6190 117.0358
" />
<path d="M239.6190 117.0358
L239.7143 116.9882
" />
<path d="M239.7143 116.9882
L239.9048 116.9882
" />
<path d="M239.9048 116.9882
L240.0000 117.0358
" />
<path d="M240.0000 117.0358
L240.0476 117.1310
" />
<path d="M240.0476 117.1310
L240.0476 117.2262
" />
<path d="M240.0476 117.2262
L239.5714 117.3215
" />
<path d="M240.2381 117.7501
L241.0000 117.7501
" />
<path d="M241.2381 117.6548
L241.2381 116.6548
" />
<path d="M241.2381 116.6548
L241.6190 116.6548
" />
<path d="M241.6190 116.6548
L241.7143 116.7024
" />
<path d="M241.7143 116.7024
L241.7619 116.7501
" />
<path d="M241.7619 116.7501
L241.8095 116.8453
" />
<path d="M241.8095 116.8453
L241.8095 116.9882
" />
<path d="M241.8095 116.9882
L241.7619 117.0834
" />
<path d="M241.7619 117.0834
L241.7143 117.1310
" />
<path d="M241.7143 117.1310
L241.6190 117.1786
" />
<path d="M241.6190 117.1786
L241.2381 117.1786
" />
<path d="M242.6667 117.6548
L242.6667 117.1310
" />
<path d="M242.6667 117.1310
L242.6190 117.0358
" />
<path d="M242.6190 117.0358
L242.5238 116.9882
" />
<path d="M242.5238 116.9882
L242.3333 116.9882
" />
<path d="M242.3333 116.9882
L242.2381 117.0358
" />
<path d="M242.6667 117.6072
L242.5714 117.6548
" />
<path d="M242.5714 117.6548
L242.3333 117.6548
" />
<path d="M242.3333 117.6548
L242.2381 117.6072
" />
<path d="M242.2381 117.6072
L242.1905 117.5120
" />
<path d="M242.1905 117.5120
L242.1905 117.4167
" />
<path d="M242.1905 117.4167
L242.2381 117.3215
" />
<path d="M242.2381 117.3215
L242.3333 117.2739
" />
<path d="M242.3333 117.2739
L242.5714 117.2739
" />
<path d="M242.5714 117.2739
L242.6667 117.2262
" />
<path d="M243.5714 117.6548
L243.5714 116.6548
" />
<path d="M243.5714 117.6072
L243.4762 117.6548
" />
<path d="M243.4762 117.6548
L243.2857 117.6548
" />
<path d="M243.2857 117.6548
L243.1905 117.6072
" />
<path d="M243.1905 117.6072
L243.1429 117.5596
" />
<path d="M243.1429 117.5596
L243.0952 117.4643
" />
<path d="M243.0952 117.4643
L243.0952 117.1786
" />
<path d="M243.0952 117.1786
L243.1429 117.0834
" />
<path d="M243.1429 117.0834
L243.1905 117.0358
" />
<path d="M243.1905 117.0358
L243.2857 116.9882
" />
<path d="M243.2857 116.9882
L243.4762 116.9882
" />
<path d="M243.4762 116.9882
L243.5714 117.0358
" />
</g><text x="237.0000" y="111.5000"
textLength="2.2500" font-size="1.3333" lengthAdjust="spacingAndGlyphs"
text-anchor="middle" opacity="0" stroke-opacity="0">H3</text>
<g class="stroked-text"><desc>H3</desc>
<path d="M236.2381 111.4548
L236.2381 110.4548
" />
<path d="M236.2381 110.9310
L236.8095 110.9310
" />
<path d="M236.8095 111.4548
L236.8095 110.4548
" />
<path d="M237.1905 110.4548
L237.8095 110.4548
" />
<path d="M237.8095 110.4548
L237.4762 110.8358
" />
<path d="M237.4762 110.8358
L237.6190 110.8358
" />
<path d="M237.6190 110.8358
L237.7143 110.8834
" />
<path d="M237.7143 110.8834
L237.7619 110.9310
" />
<path d="M237.7619 110.9310
L237.8095 111.0262
" />
<path d="M237.8095 111.0262
L237.8095 111.2643
" />
<path d="M237.8095 111.2643
L237.7619 111.3596
" />
<path d="M237.7619 111.3596
L237.7143 111.4072
" />
<path d="M237.7143 111.4072
L237.6190 111.4548
" />
<path d="M237.6190 111.4548
L237.3333 111.4548
" />
<path d="M237.3333 111.4548
L237.2381 111.4072
" />
<path d="M237.2381 111.4072
L237.1905 111.3596
" />
</g><text x="76.2000" y="59.3000"
textLength="13.8690" font-size="1.3333" lengthAdjust="spacingAndGlyphs"
text-anchor="middle" opacity="0" stroke-opacity="0">MountingHole_Pad</text>
<g class="stroked-text"><desc>MountingHole_Pad</desc>
<path d="M69.6286 59.2548
L69.6286 58.2548
" />
<path d="M69.6286 58.2548
L69.9619 58.9691
" />
<path d="M69.9619 58.9691
L70.2952 58.2548
" />
<path d="M70.2952 58.2548
L70.2952 59.2548
" />
<path d="M70.9143 59.2548
L70.8190 59.2072
" />
<path d="M70.8190 59.2072
L70.7714 59.1596
" />
<path d="M70.7714 59.1596
L70.7238 59.0643
" />
<path d="M70.7238 59.0643
L70.7238 58.7786
" />
<path d="M70.7238 58.7786
L70.7714 58.6834
" />
<path d="M70.7714 58.6834
L70.8190 58.6358
" />
<path d="M70.8190 58.6358
L70.9143 58.5882
" />
<path d="M70.9143 58.5882
L71.0571 58.5882
" />
<path d="M71.0571 58.5882
L71.1524 58.6358
" />
<path d="M71.1524 58.6358
L71.2000 58.6834
" />
<path d="M71.2000 58.6834
L71.2476 58.7786
" />
<path d="M71.2476 58.7786
L71.2476 59.0643
" />
<path d="M71.2476 59.0643
L71.2000 59.1596
" />
<path d="M71.2000 59.1596
L71.1524 59.2072
" />
<path d="M71.1524 59.2072
L71.0571 59.2548
" />
<path d="M71.0571 59.2548
L70.9143 59.2548
" />
<path d="M72.1048 58.5882
L72.1048 59.2548
" />
<path d="M71.6762 58.5882
L71.6762 59.1120
" />
<path d="M71.6762 59.1120
L71.7238 59.2072
" />
<path d="M71.7238 59.2072
L71.8190 59.2548
" />
<path d="M71.8190 59.2548
L71.9619 59.2548
" />
<path d="M71.9619 59.2548
L72.0571 59.2072
" />
<path d="M72.0571 59.2072
L72.1048 59.1596
" />
<path d="M72.5810 58.5882
L72.5810 59.2548
" />
<path d="M72.5810 58.6834
L72.6286 58.6358
" />
<path d="M72.6286 58.6358
L72.7238 58.5882
" />
<path d="M72.7238 58.5882
L72.8667 58.5882
" />
<path d="M72.8667 58.5882
L72.9619 58.6358
" />
<path d="M72.9619 58.6358
L73.0095 58.7310
" />
<path d="M73.0095 58.7310
L73.0095 59.2548
" />
<path d="M73.3429 58.5882
L73.7238 58.5882
" />
<path d="M73.4857 58.2548
L73.4857 59.1120
" />
<path d="M73.4857 59.1120
L73.5333 59.2072
" />
<path d="M73.5333 59.2072
L73.6286 59.2548
" />
<path d="M73.6286 59.2548
L73.7238 59.2548
" />
<path d="M74.0571 59.2548
L74.0571 58.5882
" />
<path d="M74.0571 58.2548
L74.0095 58.3024
" />
<path d="M74.0095 58.3024
L74.0571 58.3501
" />
<path d="M74.0571 58.3501
L74.1048 58.3024
" />
<path d="M74.1048 58.3024
L74.0571 58.2548
" />
<path d="M74.0571 58.2548
L74.0571 58.3501
" />
<path d="M74.5333 58.5882
L74.5333 59.2548
" />
<path d="M74.5333 58.6834
L74.5810 58.6358
" />
<path d="M74.5810 58.6358
L74.6762 58.5882
" />
<path d="M74.6762 58.5882
L74.8190 58.5882
" />
<path d="M74.8190 58.5882
L74.9143 58.6358
" />
<path d="M74.9143 58.6358
L74.9619 58.7310
" />
<path d="M74.9619 58.7310
L74.9619 59.2548
" />
<path d="M75.8667 58.5882
L75.8667 59.3977
" />
<path d="M75.8667 59.3977
L75.8190 59.4929
" />
<path d="M75.8190 59.4929
L75.7714 59.5405
" />
<path d="M75.7714 59.5405
L75.6762 59.5882
" />
<path d="M75.6762 59.5882
L75.5333 59.5882
" />
<path d="M75.5333 59.5882
L75.4381 59.5405
" />
<path d="M75.8667 59.2072
L75.7714 59.2548
" />
<path d="M75.7714 59.2548
L75.5810 59.2548
" />
<path d="M75.5810 59.2548
L75.4857 59.2072
" />
<path d="M75.4857 59.2072
L75.4381 59.1596
" />
<path d="M75.4381 59.1596
L75.3905 59.0643
" />
<path d="M75.3905 59.0643
L75.3905 58.7786
" />
<path d="M75.3905 58.7786
L75.4381 58.6834
" />
<path d="M75.4381 58.6834
L75.4857 58.6358
" />
<path d="M75.4857 58.6358
L75.5810 58.5882
" />
<path d="M75.5810 58.5882
L75.7714 58.5882
" />
<path d="M75.7714 58.5882
L75.8667 58.6358
" />
<path d="M76.3429 59.2548
L76.3429 58.2548
" />
<path d="M76.3429 58.7310
L76.9143 58.7310
" />
<path d="M76.9143 59.2548
L76.9143 58.2548
" />
<path d="M77.5333 59.2548
L77.4381 59.2072
" />
<path d="M77.4381 59.2072
L77.3905 59.1596
" />
<path d="M77.3905 59.1596
L77.3429 59.0643
" />
<path d="M77.3429 59.0643
L77.3429 58.7786
" />
<path d="M77.3429 58.7786
L77.3905 58.6834
" />
<path d="M77.3905 58.6834
L77.4381 58.6358
" />
<path d="M77.4381 58.6358
L77.5333 58.5882
" />
<path d="M77.5333 58.5882
L77.6762 58.5882
" />
<path d="M77.6762 58.5882
L77.7714 58.6358
" />
<path d="M77.7714 58.6358
L77.8190 58.6834
" />
<path d="M77.8190 58.6834
L77.8667 58.7786
" />
<path d="M77.8667 58.7786
L77.8667 59.0643
" />
<path d="M77.8667 59.0643
L77.8190 59.1596
" />
<path d="M77.8190 59.1596
L77.7714 59.2072
" />
<path d="M77.7714 59.2072
L77.6762 59.2548
" />
<path d="M77.6762 59.2548
L77.5333 59.2548
" />
<path d="M78.4381 59.2548
L78.3429 59.2072
" />
<path d="M78.3429 59.2072
L78.2952 59.1120
" />
<path d="M78.2952 59.1120
L78.2952 58.2548
" />
<path d="M79.2000 59.2072
L79.1048 59.2548
" />
<path d="M79.1048 59.2548
L78.9143 59.2548
" />
<path d="M78.9143 59.2548
L78.8190 59.2072
" />
<path d="M78.8190 59.2072
L78.7714 59.1120
" />
<path d="M78.7714 59.1120
L78.7714 58.7310
" />
<path d="M78.7714 58.7310
L78.8190 58.6358
" />
<path d="M78.8190 58.6358
L78.9143 58.5882
" />
<path d="M78.9143 58.5882
L79.1048 58.5882
" />
<path d="M79.1048 58.5882
L79.2000 58.6358
" />
<path d="M79.2000 58.6358
L79.2476 58.7310
" />
<path d="M79.2476 58.7310
L79.2476 58.8262
" />
<path d="M79.2476 58.8262
L78.7714 58.9215
" />
<path d="M79.4381 59.3501
L80.2000 59.3501
" />
<path d="M80.4381 59.2548
L80.4381 58.2548
" />
<path d="M80.4381 58.2548
L80.8190 58.2548
" />
<path d="M80.8190 58.2548
L80.9143 58.3024
" />
<path d="M80.9143 58.3024
L80.9619 58.3501
" />
<path d="M80.9619 58.3501
L81.0095 58.4453
" />
<path d="M81.0095 58.4453
L81.0095 58.5882
" />
<path d="M81.0095 58.5882
L80.9619 58.6834
" />
<path d="M80.9619 58.6834
L80.9143 58.7310
" />
<path d="M80.9143 58.7310
L80.8190 58.7786
" />
<path d="M80.8190 58.7786
L80.4381 58.7786
" />
<path d="M81.8667 59.2548
L81.8667 58.7310
" />
<path d="M81.8667 58.7310
L81.8190 58.6358
" />
<path d="M81.8190 58.6358
L81.7238 58.5882
" />
<path d="M81.7238 58.5882
L81.5333 58.5882
" />
<path d="M81.5333 58.5882
L81.4381 58.6358
" />
<path d="M81.8667 59.2072
L81.7714 59.2548
" />
<path d="M81.7714 59.2548
L81.5333 59.2548
" />
<path d="M81.5333 59.2548
L81.4381 59.2072
" />
<path d="M81.4381 59.2072
L81.3905 59.1120
" />
<path d="M81.3905 59.1120
L81.3905 59.0167
" />
<path d="M81.3905 59.0167
L81.4381 58.9215
" />
<path d="M81.4381 58.9215
L81.5333 58.8739
" />
<path d="M81.5333 58.8739
L81.7714 58.8739
" />
<path d="M81.7714 58.8739
L81.8667 58.8262
" />
<path d="M82.7714 59.2548
L82.7714 58.2548
" />
<path d="M82.7714 59.2072
L82.6762 59.2548
" />
<path d="M82.6762 59.2548
L82.4857 59.2548
" />
<path d="M82.4857 59.2548
L82.3905 59.2072
" />
<path d="M82.3905 59.2072
L82.3429 59.1596
" />
<path d="M82.3429 59.1596
L82.2952 59.0643
" />
<path d="M82.2952 59.0643
L82.2952 58.7786
" />
<path d="M82.2952 58.7786
L82.3429 58.6834
" />
<path d="M82.3429 58.6834
L82.3905 58.6358
" />
<path d="M82.3905 58.6358
L82.4857 58.5882
" />
<path d="M82.4857 58.5882
L82.6762 58.5882
" />
<path d="M82.6762 58.5882
L82.7714 58.6358
" />
</g><text x="76.0000" y="65.5000"
textLength="2.2500" font-size="1.3333" lengthAdjust="spacingAndGlyphs"
text-anchor="middle" opacity="0" stroke-opacity="0">H1</text>
<g class="stroked-text"><desc>H1</desc>
<path d="M75.2381 65.4548
L75.2381 64.4548
" />
<path d="M75.2381 64.9310
L75.8095 64.9310
" />
<path d="M75.8095 65.4548
L75.8095 64.4548
" />
<path d="M76.8095 65.4548
L76.2381 65.4548
" />
<path d="M76.5238 65.4548
L76.5238 64.4548
" />
<path d="M76.5238 64.4548
L76.4286 64.5977
" />
<path d="M76.4286 64.5977
L76.3333 64.6929
" />
<path d="M76.3333 64.6929
L76.2381 64.7405
" />
</g><text x="106.7400" y="69.1000"
textLength="1.2500" font-size="1.3333" lengthAdjust="spacingAndGlyphs"
text-anchor="middle" opacity="0" stroke-opacity="0">K</text>
<g class="stroked-text"><desc>K</desc>
<path d="M106.4781 69.0548
L106.4781 68.0548
" />
<path d="M107.0495 69.0548
L106.6210 68.4834
" />
<path d="M107.0495 68.0548
L106.4781 68.6262
" />
</g></g>
<g style="fill:none; 
stroke:#000000; stroke-width:0.2540; stroke-opacity:1; 
stroke-linecap:round; stroke-linejoin:round;">
<g transform="rotate(-90.000000 250.9500 79.2990)">
<text x="250.9500" y="79.9340"
textLength="4.3785" font-size="1.6933" lengthAdjust="spacingAndGlyphs"
text-anchor="middle" opacity="0" stroke-opacity="0">SW1</text>
</g>
<g class="stroked-text"><desc>SW1</desc>
<path d="M251.4638 80.9923
L251.5243 80.8109
" />
<path d="M251.5243 80.8109
L251.5243 80.5085
" />
<path d="M251.5243 80.5085
L251.4638 80.3876
" />
<path d="M251.4638 80.3876
L251.4034 80.3271
" />
<path d="M251.4034 80.3271
L251.2824 80.2666
" />
<path d="M251.2824 80.2666
L251.1615 80.2666
" />
<path d="M251.1615 80.2666
L251.0405 80.3271
" />
<path d="M251.0405 80.3271
L250.9800 80.3876
" />
<path d="M250.9800 80.3876
L250.9196 80.5085
" />
<path d="M250.9196 80.5085
L250.8591 80.7504
" />
<path d="M250.8591 80.7504
L250.7986 80.8714
" />
<path d="M250.7986 80.8714
L250.7381 80.9319
" />
<path d="M250.7381 80.9319
L250.6172 80.9923
" />
<path d="M250.6172 80.9923
L250.4962 80.9923
" />
<path d="M250.4962 80.9923
L250.3753 80.9319
" />
<path d="M250.3753 80.9319
L250.3148 80.8714
" />
<path d="M250.3148 80.8714
L250.2543 80.7504
" />
<path d="M250.2543 80.7504
L250.2543 80.4480
" />
<path d="M250.2543 80.4480
L250.3148 80.2666
" />
<path d="M250.2543 79.8433
L251.5243 79.5409
" />
<path d="M251.5243 79.5409
L250.6172 79.2990
" />
<path d="M250.6172 79.2990
L251.5243 79.0571
" />
<path d="M251.5243 79.0571
L250.2543 78.7547
" />
<path d="M251.5243 77.6057
L251.5243 78.3314
" />
<path d="M251.5243 77.9685
L250.2543 77.9685
" />
<path d="M250.2543 77.9685
L250.4357 78.0895
" />
<path d="M250.4357 78.0895
L250.5567 78.2104
" />
<path d="M250.5567 78.2104
L250.6172 78.3314
" />
</g></g>
<g style="fill:none; 
stroke:#000000; stroke-width:0.1500; stroke-opacity:1; 
stroke-linecap:round; stroke-linejoin:round;">
<g transform="rotate(-90.000000 68.6000 71.4000)">
<text x="68.6000" y="71.9000"
textLength="12.4881" font-size="1.3333" lengthAdjust="spacingAndGlyphs"
text-anchor="middle" opacity="0" stroke-opacity="0">Conn_01x02_Pin</text>
</g>
<g class="stroked-text"><desc>Conn_01x02_Pin</desc>
<path d="M68.9596 76.7095
L69.0072 76.7571
" />
<path d="M69.0072 76.7571
L69.0548 76.9000
" />
<path d="M69.0548 76.9000
L69.0548 76.9952
" />
<path d="M69.0548 76.9952
L69.0072 77.1381
" />
<path d="M69.0072 77.1381
L68.9120 77.2333
" />
<path d="M68.9120 77.2333
L68.8167 77.2810
" />
<path d="M68.8167 77.2810
L68.6262 77.3286
" />
<path d="M68.6262 77.3286
L68.4834 77.3286
" />
<path d="M68.4834 77.3286
L68.2929 77.2810
" />
<path d="M68.2929 77.2810
L68.1977 77.2333
" />
<path d="M68.1977 77.2333
L68.1024 77.1381
" />
<path d="M68.1024 77.1381
L68.0548 76.9952
" />
<path d="M68.0548 76.9952
L68.0548 76.9000
" />
<path d="M68.0548 76.9000
L68.1024 76.7571
" />
<path d="M68.1024 76.7571
L68.1501 76.7095
" />
<path d="M69.0548 76.1381
L69.0072 76.2333
" />
<path d="M69.0072 76.2333
L68.9596 76.2810
" />
<path d="M68.9596 76.2810
L68.8643 76.3286
" />
<path d="M68.8643 76.3286
L68.5786 76.3286
" />
<path d="M68.5786 76.3286
L68.4834 76.2810
" />
<path d="M68.4834 76.2810
L68.4358 76.2333
" />
<path d="M68.4358 76.2333
L68.3882 76.1381
" />
<path d="M68.3882 76.1381
L68.3882 75.9952
" />
<path d="M68.3882 75.9952
L68.4358 75.9000
" />
<path d="M68.4358 75.9000
L68.4834 75.8524
" />
<path d="M68.4834 75.8524
L68.5786 75.8048
" />
<path d="M68.5786 75.8048
L68.8643 75.8048
" />
<path d="M68.8643 75.8048
L68.9596 75.8524
" />
<path d="M68.9596 75.8524
L69.0072 75.9000
" />
<path d="M69.0072 75.9000
L69.0548 75.9952
" />
<path d="M69.0548 75.9952
L69.0548 76.1381
" />
<path d="M68.3882 75.3762
L69.0548 75.3762
" />
<path d="M68.4834 75.3762
L68.4358 75.3286
" />
<path d="M68.4358 75.3286
L68.3882 75.2333
" />
<path d="M68.3882 75.2333
L68.3882 75.0905
" />
<path d="M68.3882 75.0905
L68.4358 74.9952
" />
<path d="M68.4358 74.9952
L68.5310 74.9476
" />
<path d="M68.5310 74.9476
L69.0548 74.9476
" />
<path d="M68.3882 74.4714
L69.0548 74.4714
" />
<path d="M68.4834 74.4714
L68.4358 74.4238
" />
<path d="M68.4358 74.4238
L68.3882 74.3286
" />
<path d="M68.3882 74.3286
L68.3882 74.1857
" />
<path d="M68.3882 74.1857
L68.4358 74.0905
" />
<path d="M68.4358 74.0905
L68.5310 74.0429
" />
<path d="M68.5310 74.0429
L69.0548 74.0429
" />
<path d="M69.1501 73.8048
L69.1501 73.0429
" />
<path d="M68.0548 72.6143
L68.0548 72.5190
" />
<path d="M68.0548 72.5190
L68.1024 72.4238
" />
<path d="M68.1024 72.4238
L68.1501 72.3762
" />
<path d="M68.1501 72.3762
L68.2453 72.3286
" />
<path d="M68.2453 72.3286
L68.4358 72.2810
" />
<path d="M68.4358 72.2810
L68.6739 72.2810
" />
<path d="M68.6739 72.2810
L68.8643 72.3286
" />
<path d="M68.8643 72.3286
L68.9596 72.3762
" />
<path d="M68.9596 72.3762
L69.0072 72.4238
" />
<path d="M69.0072 72.4238
L69.0548 72.5190
" />
<path d="M69.0548 72.5190
L69.0548 72.6143
" />
<path d="M69.0548 72.6143
L69.0072 72.7095
" />
<path d="M69.0072 72.7095
L68.9596 72.7571
" />
<path d="M68.9596 72.7571
L68.8643 72.8048
" />
<path d="M68.8643 72.8048
L68.6739 72.8524
" />
<path d="M68.6739 72.8524
L68.4358 72.8524
" />
<path d="M68.4358 72.8524
L68.2453 72.8048
" />
<path d="M68.2453 72.8048
L68.1501 72.7571
" />
<path d="M68.1501 72.7571
L68.1024 72.7095
" />
<path d="M68.1024 72.7095
L68.0548 72.6143
" />
<path d="M69.0548 71.3286
L69.0548 71.9000
" />
<path d="M69.0548 71.6143
L68.0548 71.6143
" />
<path d="M68.0548 71.6143
L68.1977 71.7095
" />
<path d="M68.1977 71.7095
L68.2929 71.8048
" />
<path d="M68.2929 71.8048
L68.3405 71.9000
" />
<path d="M69.0548 70.9952
L68.3882 70.4714
" />
<path d="M68.3882 70.9952
L69.0548 70.4714
" />
<path d="M68.0548 69.9000
L68.0548 69.8048
" />
<path d="M68.0548 69.8048
L68.1024 69.7095
" />
<path d="M68.1024 69.7095
L68.1501 69.6619
" />
<path d="M68.1501 69.6619
L68.2453 69.6143
" />
<path d="M68.2453 69.6143
L68.4358 69.5667
" />
<path d="M68.4358 69.5667
L68.6739 69.5667
" />
<path d="M68.6739 69.5667
L68.8643 69.6143
" />
<path d="M68.8643 69.6143
L68.9596 69.6619
" />
<path d="M68.9596 69.6619
L69.0072 69.7095
" />
<path d="M69.0072 69.7095
L69.0548 69.8048
" />
<path d="M69.0548 69.8048
L69.0548 69.9000
" />
<path d="M69.0548 69.9000
L69.0072 69.9952
" />
<path d="M69.0072 69.9952
L68.9596 70.0429
" />
<path d="M68.9596 70.0429
L68.8643 70.0905
" />
<path d="M68.8643 70.0905
L68.6739 70.1381
" />
<path d="M68.6739 70.1381
L68.4358 70.1381
" />
<path d="M68.4358 70.1381
L68.2453 70.0905
" />
<path d="M68.2453 70.0905
L68.1501 70.0429
" />
<path d="M68.1501 70.0429
L68.1024 69.9952
" />
<path d="M68.1024 69.9952
L68.0548 69.9000
" />
<path d="M68.1501 69.1857
L68.1024 69.1381
" />
<path d="M68.1024 69.1381
L68.0548 69.0429
" />
<path d="M68.0548 69.0429
L68.0548 68.8048
" />
<path d="M68.0548 68.8048
L68.1024 68.7095
" />
<path d="M68.1024 68.7095
L68.1501 68.6619
" />
<path d="M68.1501 68.6619
L68.2453 68.6143
" />
<path d="M68.2453 68.6143
L68.3405 68.6143
" />
<path d="M68.3405 68.6143
L68.4834 68.6619
" />
<path d="M68.4834 68.6619
L69.0548 69.2333
" />
<path d="M69.0548 69.2333
L69.0548 68.6143
" />
<path d="M69.1501 68.4238
L69.1501 67.6619
" />
<path d="M69.0548 67.4238
L68.0548 67.4238
" />
<path d="M68.0548 67.4238
L68.0548 67.0429
" />
<path d="M68.0548 67.0429
L68.1024 66.9476
" />
<path d="M68.1024 66.9476
L68.1501 66.9000
" />
<path d="M68.1501 66.9000
L68.2453 66.8524
" />
<path d="M68.2453 66.8524
L68.3882 66.8524
" />
<path d="M68.3882 66.8524
L68.4834 66.9000
" />
<path d="M68.4834 66.9000
L68.5310 66.9476
" />
<path d="M68.5310 66.9476
L68.5786 67.0429
" />
<path d="M68.5786 67.0429
L68.5786 67.4238
" />
<path d="M69.0548 66.4238
L68.3882 66.4238
" />
<path d="M68.0548 66.4238
L68.1024 66.4714
" />
<path d="M68.1024 66.4714
L68.1501 66.4238
" />
<path d="M68.1501 66.4238
L68.1024 66.3762
" />
<path d="M68.1024 66.3762
L68.0548 66.4238
" />
<path d="M68.0548 66.4238
L68.1501 66.4238
" />
<path d="M68.3882 65.9476
L69.0548 65.9476
" />
<path d="M68.4834 65.9476
L68.4358 65.9000
" />
<path d="M68.4358 65.9000
L68.3882 65.8048
" />
<path d="M68.3882 65.8048
L68.3882 65.6619
" />
<path d="M68.3882 65.6619
L68.4358 65.5667
" />
<path d="M68.4358 65.5667
L68.5310 65.5190
" />
<path d="M68.5310 65.5190
L69.0548 65.5190
" />
</g><text x="76.2050" y="71.9000"
textLength="1.9643" font-size="1.3333" lengthAdjust="spacingAndGlyphs"
text-anchor="middle" opacity="0" stroke-opacity="0">J2</text>
<g class="stroked-text"><desc>J2</desc>
<path d="M75.8717 70.8548
L75.8717 71.5691
" />
<path d="M75.8717 71.5691
L75.8240 71.7120
" />
<path d="M75.8240 71.7120
L75.7288 71.8072
" />
<path d="M75.7288 71.8072
L75.5860 71.8548
" />
<path d="M75.5860 71.8548
L75.4907 71.8548
" />
<path d="M76.3002 70.9501
L76.3479 70.9024
" />
<path d="M76.3479 70.9024
L76.4431 70.8548
" />
<path d="M76.4431 70.8548
L76.6812 70.8548
" />
<path d="M76.6812 70.8548
L76.7764 70.9024
" />
<path d="M76.7764 70.9024
L76.8240 70.9501
" />
<path d="M76.8240 70.9501
L76.8717 71.0453
" />
<path d="M76.8717 71.0453
L76.8717 71.1405
" />
<path d="M76.8717 71.1405
L76.8240 71.2834
" />
<path d="M76.8240 71.2834
L76.2526 71.8548
" />
<path d="M76.2526 71.8548
L76.8717 71.8548
" />
</g><text x="82.5000" y="88.5000"
textLength="1.2500" font-size="1.3333" lengthAdjust="spacingAndGlyphs"
text-anchor="middle" opacity="0" stroke-opacity="0">K</text>
<g class="stroked-text"><desc>K</desc>
<path d="M82.2381 88.4548
L82.2381 87.4548
" />
<path d="M82.8095 88.4548
L82.3810 87.8834
" />
<path d="M82.8095 87.4548
L82.2381 88.0262
" />
</g></g>
<g style="fill:none; 
stroke:#000000; stroke-width:0.1000; stroke-opacity:1; 
stroke-linecap:round; stroke-linejoin:round;">
<path d="M149.1500 87.6150
L168.4700 87.6150
" />
<path d="M149.1500 93.9650
L149.1500 87.6150
" />
<path d="M168.4700 87.6150
L169.4700 88.6150
" />
<path d="M169.4700 88.6150
L169.4700 93.9650
" />
<path d="M169.4700 93.9650
L149.1500 93.9650
" />
<path d="M102.1200 80.3500
L102.1200 88.4500
" />
<path d="M102.1200 88.4500
L109.1200 88.4500
" />
<path d="M107.1400 85.8910
L104.0210 85.8900
" />
<path d="M107.1400 85.8910
L104.0210 85.8900
" />
<path d="M109.1200 80.3500
L102.1200 80.3500
" />
<path d="M109.1200 88.4500
L109.1200 80.3500
" />
<circle cx="105.5800" cy="85.8910" r="1.5750" /> 
<path d="M114.8700 67.1600
L114.8700 73.4600
" />
<path d="M114.8700 73.4600
L117.3700 73.4600
" />
<path d="M116.1200 66.5000
L116.1200 67.1600
" />
<path d="M116.1200 74.1200
L116.1200 73.4600
" />
<path d="M117.3700 67.1600
L114.8700 67.1600
" />
<path d="M117.3700 73.4600
L117.3700 67.1600
" />
<path d="M114.3200 78.6200
L114.3200 86.2200
" />
<path d="M114.3200 84.9800
L117.9200 84.9800
" />
<path d="M114.3200 85.0800
L117.9200 85.0800
" />
<path d="M114.3200 85.1800
L117.9200 85.1800
" />
<path d="M114.3200 86.2200
L117.9200 86.2200
" />
<path d="M116.1200 77.3400
L116.1200 78.6200
" />
<path d="M116.1200 87.5000
L116.1200 86.2200
" />
<path d="M117.9200 78.6200
L114.3200 78.6200
" />
<path d="M117.9200 86.2200
L117.9200 78.6200
" />
<path d="M235.3500 81.3500
L235.3500 83.8500
" />
<path d="M235.3500 83.8500
L240.0500 83.8500
" />
<path d="M240.0500 81.3500
L235.3500 81.3500
" />
<path d="M240.0500 83.8500
L240.0500 81.3500
" />
<path d="M193.3544 101.3778
L195.1222 103.1456
" />
<path d="M195.1222 103.1456
L198.4456 99.8222
" />
<path d="M196.6778 98.0544
L193.3544 101.3778
" />
<path d="M198.4456 99.8222
L196.6778 98.0544
" />
<path d="M110.8700 67.1600
L110.8700 73.4600
" />
<path d="M110.8700 73.4600
L113.3700 73.4600
" />
<path d="M112.1200 66.5000
L112.1200 67.1600
" />
<path d="M112.1200 74.1200
L112.1200 73.4600
" />
<path d="M113.3700 67.1600
L110.8700 67.1600
" />
<path d="M113.3700 73.4600
L113.3700 67.1600
" />
<circle cx="92.1200" cy="66.5000" r="4.3500" /> 
<path d="M84.4935 65.0560
L84.4935 65.6860
" />
<path d="M84.8085 65.3710
L84.1785 65.3710
" />
<circle cx="83.1200" cy="67.7500" r="3.1500" /> 
<path d="M169.1784 67.7788
L170.0420 68.7186
" />
<path d="M174.0000 87.8500
L174.0000 93.0500
" />
<path d="M174.4000 93.4500
L179.4000 93.4500
" />
<path d="M175.6000 75.1500
L175.6000 91.3500
" />
<path d="M175.6000 91.3500
L178.2000 91.3500
" />
<path d="M178.2000 91.3500
L178.2000 75.1500
" />
<path d="M179.8000 93.0500
L179.8000 87.8500
" />
<path d="M184.6216 67.7788
L183.7834 68.6932
" />
<path d="M174.0000 87.8500 A0.9021 0.9021 0.0 0 0 173.4000 87.0000" />
<path d="M176.9000 64.7497 A11.4004 11.4004 0.0 0 0 173.4000 87.0000" />
<path d="M174.0000 93.0500 A0.4000 0.4000 0.0 0 0 174.4000 93.4500" />
<path d="M178.2000 86.1500 A10.0841 10.0841 0.0 0 0 175.6000 66.1500" />
<path d="M178.2000 75.1500 A1.3000 1.3000 0.0 0 0 175.6000 75.1500" />
<path d="M177.0758 73.8546 A2.3022 2.3022 0.0 0 0 175.6000 78.0500" />
<path d="M176.9000 69.8200 A6.3322 6.3322 0.0 0 0 175.6000 82.3500" />
<path d="M178.2000 66.1500 A10.0841 10.0841 0.0 1 0 175.6000 86.1500" />
<path d="M178.2000 78.0500 A2.3022 2.3022 0.0 0 0 176.7242 73.8546" />
<path d="M180.4000 87.0000 A11.4004 11.4004 0.0 0 0 176.9000 64.7497" />
<path d="M178.2000 82.3500 A6.3322 6.3322 0.0 0 0 176.9000 69.8200" />
<path d="M180.4000 87.0000 A0.9021 0.9021 0.0 0 0 179.8000 87.8500" />
<path d="M179.4000 93.4500 A0.4000 0.4000 0.0 0 0 179.8000 93.0500" />
<path d="M74.4700 81.2000
L74.4700 83.8000
" />
<path d="M74.4700 83.8000
L78.2700 83.8000
" />
<path d="M78.2700 81.2000
L74.4700 81.2000
" />
<path d="M78.2700 83.8000
L78.2700 81.2000
" />
<path d="M206.7500 106.5400
L206.7500 112.8400
" />
<path d="M206.7500 112.8400
L209.2500 112.8400
" />
<path d="M208.0000 105.8800
L208.0000 106.5400
" />
<path d="M208.0000 113.5000
L208.0000 112.8400
" />
<path d="M209.2500 106.5400
L206.7500 106.5400
" />
<path d="M209.2500 112.8400
L209.2500 106.5400
" />
</g>
<g style="fill:none; 
stroke:#000000; stroke-width:0.1500; stroke-opacity:1; 
stroke-linecap:round; stroke-linejoin:round;">
<path d="M124.9289 90.1466
L132.0000 83.0756
" />
<path d="M132.0000 83.0756
L138.3640 89.4395
" />
<path d="M132.0000 97.2177
L124.9289 90.1466
" />
<path d="M138.3640 89.4395
L138.3640 90.8537
" />
<path d="M138.3640 90.8537
L132.0000 97.2177
" />
</g>
<g style="fill:none; 
stroke:#000000; stroke-width:0.1000; stroke-opacity:1; 
stroke-linecap:round; stroke-linejoin:round;">
<path d="M232.5800 72.1000
L233.2400 72.1000
" />
<path d="M233.2400 70.8500
L233.2400 73.3500
" />
<path d="M233.2400 73.3500
L239.5400 73.3500
" />
<path d="M239.5400 70.8500
L233.2400 70.8500
" />
<path d="M239.5400 73.3500
L239.5400 70.8500
" />
<path d="M240.2000 72.1000
L239.5400 72.1000
" />
<path d="M163.7500 106.5400
L163.7500 112.8400
" />
<path d="M163.7500 112.8400
L166.2500 112.8400
" />
<path d="M165.0000 105.8800
L165.0000 106.5400
" />
<path d="M165.0000 113.5000
L165.0000 112.8400
" />
<path d="M166.2500 106.5400
L163.7500 106.5400
" />
<path d="M166.2500 112.8400
L166.2500 106.5400
" />
<path d="M190.3100 71.2350
L224.8700 71.2350
" />
<path d="M190.3100 77.5850
L190.3100 71.2350
" />
<path d="M224.8700 71.2350
L225.8700 72.2350
" />
<path d="M225.8700 72.2350
L225.8700 77.5850
" />
<path d="M225.8700 77.5850
L190.3100 77.5850
" />
<path d="M251.2500 89.6995
L251.9100 89.6995
" />
<path d="M251.9100 88.4495
L251.9100 90.9495
" />
<path d="M251.9100 90.9495
L258.2100 90.9495
" />
<path d="M258.2100 88.4495
L251.9100 88.4495
" />
<path d="M258.2100 90.9495
L258.2100 88.4495
" />
<path d="M258.8700 89.6995
L258.2100 89.6995
" />
<path d="M75.0000 90.0000
L75.6600 90.0000
" />
<path d="M75.6600 88.7500
L75.6600 91.2500
" />
<path d="M75.6600 91.2500
L81.9600 91.2500
" />
<path d="M81.9600 88.7500
L75.6600 88.7500
" />
<path d="M81.9600 91.2500
L81.9600 88.7500
" />
<path d="M82.6200 90.0000
L81.9600 90.0000
" />
<path d="M158.0500 73.9250
L159.0250 72.9500
" />
<path d="M158.0500 77.8500
L158.0500 73.9250
" />
<path d="M159.0250 72.9500
L161.9500 72.9500
" />
<path d="M161.9500 72.9500
L161.9500 77.8500
" />
<path d="M161.9500 77.8500
L158.0500 77.8500
" />
<path d="M232.5800 75.6000
L233.2400 75.6000
" />
<path d="M233.2400 74.3500
L233.2400 76.8500
" />
<path d="M233.2400 76.8500
L239.5400 76.8500
" />
<path d="M239.5400 74.3500
L233.2400 74.3500
" />
<path d="M239.5400 76.8500
L239.5400 74.3500
" />
<path d="M240.2000 75.6000
L239.5400 75.6000
" />
<path d="M84.3700 85.5000
L84.3700 89.0000
" />
<path d="M88.6000 87.2700 A2.4800 2.4800 0.0 0 0 84.3664 85.5164" />
<path d="M84.3664 89.0236 A2.4800 2.4800 0.0 0 0 88.6000 87.2700" />
<path d="M97.7500 98.8500
L97.7500 105.1500
" />
<path d="M97.7500 105.1500
L100.2500 105.1500
" />
<path d="M99.0000 98.1900
L99.0000 98.8500
" />
<path d="M99.0000 105.8100
L99.0000 105.1500
" />
<path d="M100.2500 98.8500
L97.7500 98.8500
" />
<path d="M100.2500 105.1500
L100.2500 98.8500
" />
<path d="M227.5300 71.7500
L227.5300 76.4500
" />
<path d="M227.5300 76.4500
L230.0300 76.4500
" />
<path d="M230.0300 71.7500
L227.5300 71.7500
" />
<path d="M230.0300 76.4500
L230.0300 71.7500
" />
<path d="M233.7500 98.8500
L233.7500 105.1500
" />
<path d="M233.7500 105.1500
L236.2500 105.1500
" />
<path d="M235.0000 98.1900
L235.0000 98.8500
" />
<path d="M235.0000 105.8100
L235.0000 105.1500
" />
<path d="M236.2500 98.8500
L233.7500 98.8500
" />
<path d="M236.2500 105.1500
L236.2500 98.8500
" />
</g>
<g style="fill:none; 
stroke:#000000; stroke-width:0.1500; stroke-opacity:1; 
stroke-linecap:round; stroke-linejoin:round;">
<path d="M194.9289 90.0000
L202.0000 82.9289
" />
<path d="M202.0000 82.9289
L208.3640 89.2929
" />
<path d="M202.0000 97.0711
L194.9289 90.0000
" />
<path d="M208.3640 89.2929
L208.3640 90.7071
" />
<path d="M208.3640 90.7071
L202.0000 97.0711
" />
</g>
<g style="fill:none; 
stroke:#000000; stroke-width:0.1000; stroke-opacity:1; 
stroke-linecap:round; stroke-linejoin:round;">
<path d="M80.6350 74.7300
L81.6350 73.7300
" />
<path d="M80.6350 83.8900
L80.6350 74.7300
" />
<path d="M81.6350 73.7300
L86.9850 73.7300
" />
<path d="M86.9850 73.7300
L86.9850 83.8900
" />
<path d="M86.9850 83.8900
L80.6350 83.8900
" />
<path d="M232.7000 86.1000
L233.3600 86.1000
" />
<path d="M233.3600 84.8500
L233.3600 87.3500
" />
<path d="M233.3600 87.3500
L239.6600 87.3500
" />
<path d="M239.6600 84.8500
L233.3600 84.8500
" />
<path d="M239.6600 87.3500
L239.6600 84.8500
" />
<path d="M240.3200 86.1000
L239.6600 86.1000
" />
<path d="M235.3500 77.8500
L235.3500 80.3500
" />
<path d="M235.3500 80.3500
L240.0500 80.3500
" />
<path d="M240.0500 77.8500
L235.3500 77.8500
" />
<path d="M240.0500 80.3500
L240.0500 77.8500
" />
<path d="M257.1500 93.1500
L257.1500 97.8500
" />
<path d="M257.1500 97.8500
L259.6500 97.8500
" />
<path d="M259.6500 93.1500
L257.1500 93.1500
" />
<path d="M259.6500 97.8500
L259.6500 93.1500
" />
<path d="M110.8700 77.8500
L110.8700 84.1500
" />
<path d="M110.8700 84.1500
L113.3700 84.1500
" />
<path d="M112.1200 77.1900
L112.1200 77.8500
" />
<path d="M112.1200 84.8100
L112.1200 84.1500
" />
<path d="M113.3700 77.8500
L110.8700 77.8500
" />
<path d="M113.3700 84.1500
L113.3700 77.8500
" />
<path d="M141.7500 70.7500
L141.7500 73.2500
" />
<path d="M141.7500 73.2500
L146.4500 73.2500
" />
<path d="M146.4500 70.7500
L141.7500 70.7500
" />
<path d="M146.4500 73.2500
L146.4500 70.7500
" />
<path d="M237.7500 98.8500
L237.7500 105.1500
" />
<path d="M237.7500 105.1500
L240.2500 105.1500
" />
<path d="M239.0000 98.1900
L239.0000 98.8500
" />
<path d="M239.0000 105.8100
L239.0000 105.1500
" />
<path d="M240.2500 98.8500
L237.7500 98.8500
" />
<path d="M240.2500 105.1500
L240.2500 98.8500
" />
<path d="M123.2866 101.6456
L125.0544 103.4134
" />
<path d="M125.0544 103.4134
L128.3778 100.0899
" />
<path d="M126.6101 98.3222
L123.2866 101.6456
" />
<path d="M128.3778 100.0899
L126.6101 98.3222
" />
<path d="M89.6200 78.5800
L99.6200 78.5800
" />
<path d="M89.6200 87.8300
L89.6200 78.5800
" />
<path d="M89.6200 87.8300
L99.6200 87.8300
" />
<path d="M89.6200 94.2300
L89.6200 87.8300
" />
<path d="M92.0800 78.5800
L92.0800 74.7700
" />
<path d="M94.6200 78.5800
L94.6200 74.7700
" />
<path d="M97.1600 78.5800
L97.1600 74.7700
" />
<path d="M99.6200 78.5800
L99.6200 87.8300
" />
<path d="M99.6200 87.8300
L89.6200 87.8300
" />
<path d="M99.6200 87.8300
L99.6200 94.2300
" />
<path d="M99.6200 94.2300
L89.6200 94.2300
" />
<circle cx="94.6200" cy="91.4300" r="1.8500" /> 
<path d="M94.5500 98.8500
L94.5500 105.1500
" />
<path d="M94.5500 105.1500
L97.0500 105.1500
" />
<path d="M95.8000 98.1900
L95.8000 98.8500
" />
<path d="M95.8000 105.8100
L95.8000 105.1500
" />
<path d="M97.0500 98.8500
L94.5500 98.8500
" />
<path d="M97.0500 105.1500
L97.0500 98.8500
" />
<path d="M136.7500 106.5400
L136.7500 112.8400
" />
<path d="M136.7500 112.8400
L139.2500 112.8400
" />
<path d="M138.0000 105.8800
L138.0000 106.5400
" />
<path d="M138.0000 113.5000
L138.0000 112.8400
" />
<path d="M139.2500 106.5400
L136.7500 106.5400
" />
<path d="M139.2500 112.8400
L139.2500 106.5400
" />
<path d="M107.3675 70.3232
L107.3675 71.1232
" />
<path d="M107.7675 70.7232
L106.9675 70.7232
" />
<circle cx="105.6200" cy="73.7500" r="4.0000" /> 
<path d="M154.9050 67.3050
L155.5650 67.3050
" />
<path d="M155.5650 66.0550
L155.5650 68.5550
" />
<path d="M155.5650 68.5550
L161.8650 68.5550
" />
<path d="M161.8650 66.0550
L155.5650 66.0550
" />
<path d="M161.8650 68.5550
L161.8650 66.0550
" />
<path d="M162.5250 67.3050
L161.8650 67.3050
" />
<path d="M124.7500 106.5400
L124.7500 112.8400
" />
<path d="M124.7500 112.8400
L127.2500 112.8400
" />
<path d="M126.0000 105.8800
L126.0000 106.5400
" />
<path d="M126.0000 113.5000
L126.0000 112.8400
" />
<path d="M127.2500 106.5400
L124.7500 106.5400
" />
<path d="M127.2500 112.8400
L127.2500 106.5400
" />
<path d="M119.1700 69.4000
L125.5700 69.4000
" />
<path d="M119.1700 79.4000
L119.1700 69.4000
" />
<path d="M125.5700 69.4000
L125.5700 79.4000
" />
<path d="M125.5700 69.4000
L134.8200 69.4000
" />
<path d="M125.5700 79.4000
L119.1700 79.4000
" />
<path d="M125.5700 79.4000
L125.5700 69.4000
" />
<path d="M134.8200 69.4000
L134.8200 79.4000
" />
<path d="M134.8200 71.8600
L138.6300 71.8600
" />
<path d="M134.8200 74.4000
L138.6300 74.4000
" />
<path d="M134.8200 76.9400
L138.6300 76.9400
" />
<path d="M134.8200 79.4000
L125.5700 79.4000
" />
<circle cx="121.9700" cy="74.4000" r="1.8500" /> 
<path d="M194.7500 106.5400
L194.7500 112.8400
" />
<path d="M194.7500 112.8400
L197.2500 112.8400
" />
<path d="M196.0000 105.8800
L196.0000 106.5400
" />
<path d="M196.0000 113.5000
L196.0000 112.8400
" />
<path d="M197.2500 106.5400
L194.7500 106.5400
" />
<path d="M197.2500 112.8400
L197.2500 106.5400
" />
<path d="M99.1200 66.5000
L100.3300 66.5000
" />
<path d="M100.3300 65.1500
L100.3300 67.8500
" />
<path d="M100.3300 67.8500
L105.5300 67.8500
" />
<path d="M104.6500 67.8500
L104.6500 65.1500
" />
<path d="M104.7500 67.8500
L104.7500 65.1500
" />
<path d="M104.8500 67.8500
L104.8500 65.1500
" />
<path d="M105.5300 65.1500
L100.3300 65.1500
" />
<path d="M105.5300 67.8500
L105.5300 65.1500
" />
<path d="M106.7400 66.5000
L105.5300 66.5000
" />
<path d="M154.9050 70.3050
L155.5650 70.3050
" />
<path d="M155.5650 69.0550
L155.5650 71.5550
" />
<path d="M155.5650 71.5550
L161.8650 71.5550
" />
<path d="M161.8650 69.0550
L155.5650 69.0550
" />
<path d="M161.8650 71.5550
L161.8650 69.0550
" />
<path d="M162.5250 70.3050
L161.8650 70.3050
" />
<path d="M245.2000 73.4000
L257.2000 73.4000
" />
<path d="M245.2000 85.2000
L245.2000 73.4000
" />
<path d="M257.2000 73.4000
L257.2000 85.2000
" />
<path d="M257.2000 85.2000
L245.2000 85.2000
" />
<path d="M73.6650 70.1300
L78.1100 70.1300
" />
<path d="M73.6650 72.6700
L73.6650 70.1300
" />
<path d="M78.1100 70.1300
L78.7450 70.7650
" />
<path d="M78.7450 70.7650
L78.7450 72.6700
" />
<path d="M78.7450 72.6700
L73.6650 72.6700
" />
<path d="M241.0300 89.6995
L241.6900 89.6995
" />
<path d="M241.6900 88.4495
L241.6900 90.9495
" />
<path d="M241.6900 90.9495
L247.9900 90.9495
" />
<path d="M247.9900 88.4495
L241.6900 88.4495
" />
<path d="M247.9900 90.9495
L247.9900 88.4495
" />
<path d="M248.6500 89.6995
L247.9900 89.6995
" />
<path d="M163.2500 96.2500
L163.2500 98.7500
" />
<path d="M163.2500 98.7500
L167.9500 98.7500
" />
<path d="M167.9500 96.2500
L163.2500 96.2500
" />
<path d="M167.9500 98.7500
L167.9500 96.2500
" />
<path d="M150.2750 67.4550
L150.2750 72.1550
" />
<path d="M150.2750 72.1550
L152.7750 72.1550
" />
<path d="M152.7750 67.4550
L150.2750 67.4550
" />
<path d="M152.7750 72.1550
L152.7750 67.4550
" />
<path d="M159.8500 82.3500
L159.8500 84.8500
" />
<path d="M159.8500 84.8500
L164.5500 84.8500
" />
<path d="M164.5500 82.3500
L159.8500 82.3500
" />
<path d="M164.5500 84.8500
L164.5500 82.3500
" />
<path d="M167.7500 106.5400
L167.7500 112.8400
" />
<path d="M167.7500 112.8400
L170.2500 112.8400
" />
<path d="M169.0000 105.8800
L169.0000 106.5400
" />
<path d="M169.0000 113.5000
L169.0000 112.8400
" />
<path d="M170.2500 106.5400
L167.7500 106.5400
" />
<path d="M170.2500 112.8400
L170.2500 106.5400
" />
<path d="M75.0000 86.0000
L76.8100 86.0000
" />
<path d="M76.8100 85.0000
L76.8100 87.0000
" />
<path d="M76.8100 87.0000
L80.8100 87.0000
" />
<path d="M80.1100 87.0000
L80.1100 85.0000
" />
<path d="M80.2100 87.0000
L80.2100 85.0000
" />
<path d="M80.3100 87.0000
L80.3100 85.0000
" />
<path d="M80.8100 85.0000
L76.8100 85.0000
" />
<path d="M80.8100 87.0000
L80.8100 85.0000
" />
<path d="M82.6200 86.0000
L80.8100 86.0000
" />
<path d="M150.2750 75.3450
L150.2750 81.6450
" />
<path d="M150.2750 81.6450
L152.7750 81.6450
" />
<path d="M151.5250 74.6850
L151.5250 75.3450
" />
<path d="M151.5250 82.3050
L151.5250 81.6450
" />
<path d="M152.7750 75.3450
L150.2750 75.3450
" />
<path d="M152.7750 81.6450
L152.7750 75.3450
" />
<path d="M141.7500 75.7500
L141.7500 78.2500
" />
<path d="M141.7500 78.2500
L146.4500 78.2500
" />
<path d="M146.4500 75.7500
L141.7500 75.7500
" />
<path d="M146.4500 78.2500
L146.4500 75.7500
" />
<path d="M230.9300 89.6995
L231.5900 89.6995
" />
<path d="M231.5900 88.4495
L231.5900 90.9495
" />
<path d="M231.5900 90.9495
L237.8900 90.9495
" />
<path d="M237.8900 88.4495
L231.5900 88.4495
" />
<path d="M237.8900 90.9495
L237.8900 88.4495
" />
<path d="M238.5500 89.6995
L237.8900 89.6995
" />
<path d="M75.8700 74.6500
L75.8700 79.3500
" />
<path d="M75.8700 79.3500
L78.3700 79.3500
" />
<path d="M78.3700 74.6500
L75.8700 74.6500
" />
<path d="M78.3700 79.3500
L78.3700 74.6500
" />
</g> 
</svg>
