<?xml version="1.0" standalone="no"?>
 <!DOCTYPE svg PUBLIC "-//W3C//DTD SVG 1.1//EN" 
 "http://www.w3.org/Graphics/SVG/1.1/DTD/svg11.dtd"> 
<svg
  xmlns:svg="http://www.w3.org/2000/svg"
  xmlns="http://www.w3.org/2000/svg"
  xmlns:xlink="http://www.w3.org/1999/xlink"
  version="1.1"
  width="297.0022mm" height="210.0072mm" viewBox="0.0000 0.0000 297.0022 210.0072">
<title>SVG Image created as nixie-B_Silkscreen.svg date 2024/10/13 16:35:27 </title>
  <desc>Image generated by PCBNEW </desc>
<g style="fill:#000000; fill-opacity:1.0000;stroke:#000000; stroke-opacity:1.0000;
stroke-linecap:round; stroke-linejoin:round;"
 transform="translate(0 0) scale(1 1)">
</g>
<g style="fill:none; 
stroke:#000000; stroke-width:0.1000; stroke-opacity:1; 
stroke-linecap:round; stroke-linejoin:round;">
<text x="45.0022" y="62.7602"
textLength="21.0524" font-size="1.3333" lengthAdjust="spacingAndGlyphs"
text-anchor="start" opacity="0" stroke-opacity="0">Nixie Clock by Pim Borman</text>
<g class="stroked-text"><desc>Nixie Clock by Pim Borman</desc>
<path d="M45.3061 62.6326
L45.3061 61.6326
" />
<path d="M45.3061 61.6326
L45.8775 62.6326
" />
<path d="M45.8775 62.6326
L45.8775 61.6326
" />
<path d="M46.3537 62.6326
L46.3537 61.9660
" />
<path d="M46.3537 61.6326
L46.3061 61.6803
" />
<path d="M46.3061 61.6803
L46.3537 61.7279
" />
<path d="M46.3537 61.7279
L46.4013 61.6803
" />
<path d="M46.4013 61.6803
L46.3537 61.6326
" />
<path d="M46.3537 61.6326
L46.3537 61.7279
" />
<path d="M46.7347 62.6326
L47.2585 61.9660
" />
<path d="M46.7347 61.9660
L47.2585 62.6326
" />
<path d="M47.6394 62.6326
L47.6394 61.9660
" />
<path d="M47.6394 61.6326
L47.5918 61.6803
" />
<path d="M47.5918 61.6803
L47.6394 61.7279
" />
<path d="M47.6394 61.7279
L47.6870 61.6803
" />
<path d="M47.6870 61.6803
L47.6394 61.6326
" />
<path d="M47.6394 61.6326
L47.6394 61.7279
" />
<path d="M48.4966 62.5850
L48.4013 62.6326
" />
<path d="M48.4013 62.6326
L48.2108 62.6326
" />
<path d="M48.2108 62.6326
L48.1156 62.5850
" />
<path d="M48.1156 62.5850
L48.0680 62.4898
" />
<path d="M48.0680 62.4898
L48.0680 62.1088
" />
<path d="M48.0680 62.1088
L48.1156 62.0136
" />
<path d="M48.1156 62.0136
L48.2108 61.9660
" />
<path d="M48.2108 61.9660
L48.4013 61.9660
" />
<path d="M48.4013 61.9660
L48.4966 62.0136
" />
<path d="M48.4966 62.0136
L48.5442 62.1088
" />
<path d="M48.5442 62.1088
L48.5442 62.2041
" />
<path d="M48.5442 62.2041
L48.0680 62.2993
" />
<path d="M50.3061 62.5374
L50.2585 62.5850
" />
<path d="M50.2585 62.5850
L50.1156 62.6326
" />
<path d="M50.1156 62.6326
L50.0204 62.6326
" />
<path d="M50.0204 62.6326
L49.8775 62.5850
" />
<path d="M49.8775 62.5850
L49.7823 62.4898
" />
<path d="M49.7823 62.4898
L49.7347 62.3945
" />
<path d="M49.7347 62.3945
L49.6870 62.2041
" />
<path d="M49.6870 62.2041
L49.6870 62.0612
" />
<path d="M49.6870 62.0612
L49.7347 61.8707
" />
<path d="M49.7347 61.8707
L49.7823 61.7755
" />
<path d="M49.7823 61.7755
L49.8775 61.6803
" />
<path d="M49.8775 61.6803
L50.0204 61.6326
" />
<path d="M50.0204 61.6326
L50.1156 61.6326
" />
<path d="M50.1156 61.6326
L50.2585 61.6803
" />
<path d="M50.2585 61.6803
L50.3061 61.7279
" />
<path d="M50.8775 62.6326
L50.7823 62.5850
" />
<path d="M50.7823 62.5850
L50.7347 62.4898
" />
<path d="M50.7347 62.4898
L50.7347 61.6326
" />
<path d="M51.4013 62.6326
L51.3061 62.5850
" />
<path d="M51.3061 62.5850
L51.2585 62.5374
" />
<path d="M51.2585 62.5374
L51.2108 62.4422
" />
<path d="M51.2108 62.4422
L51.2108 62.1565
" />
<path d="M51.2108 62.1565
L51.2585 62.0612
" />
<path d="M51.2585 62.0612
L51.3061 62.0136
" />
<path d="M51.3061 62.0136
L51.4013 61.9660
" />
<path d="M51.4013 61.9660
L51.5442 61.9660
" />
<path d="M51.5442 61.9660
L51.6394 62.0136
" />
<path d="M51.6394 62.0136
L51.6870 62.0612
" />
<path d="M51.6870 62.0612
L51.7347 62.1565
" />
<path d="M51.7347 62.1565
L51.7347 62.4422
" />
<path d="M51.7347 62.4422
L51.6870 62.5374
" />
<path d="M51.6870 62.5374
L51.6394 62.5850
" />
<path d="M51.6394 62.5850
L51.5442 62.6326
" />
<path d="M51.5442 62.6326
L51.4013 62.6326
" />
<path d="M52.5918 62.5850
L52.4966 62.6326
" />
<path d="M52.4966 62.6326
L52.3061 62.6326
" />
<path d="M52.3061 62.6326
L52.2108 62.5850
" />
<path d="M52.2108 62.5850
L52.1632 62.5374
" />
<path d="M52.1632 62.5374
L52.1156 62.4422
" />
<path d="M52.1156 62.4422
L52.1156 62.1565
" />
<path d="M52.1156 62.1565
L52.1632 62.0612
" />
<path d="M52.1632 62.0612
L52.2108 62.0136
" />
<path d="M52.2108 62.0136
L52.3061 61.9660
" />
<path d="M52.3061 61.9660
L52.4966 61.9660
" />
<path d="M52.4966 61.9660
L52.5918 62.0136
" />
<path d="M53.0204 62.6326
L53.0204 61.6326
" />
<path d="M53.1156 62.2517
L53.4013 62.6326
" />
<path d="M53.4013 61.9660
L53.0204 62.3469
" />
<path d="M54.5918 62.6326
L54.5918 61.6326
" />
<path d="M54.5918 62.0136
L54.6870 61.9660
" />
<path d="M54.6870 61.9660
L54.8775 61.9660
" />
<path d="M54.8775 61.9660
L54.9728 62.0136
" />
<path d="M54.9728 62.0136
L55.0204 62.0612
" />
<path d="M55.0204 62.0612
L55.0680 62.1565
" />
<path d="M55.0680 62.1565
L55.0680 62.4422
" />
<path d="M55.0680 62.4422
L55.0204 62.5374
" />
<path d="M55.0204 62.5374
L54.9728 62.5850
" />
<path d="M54.9728 62.5850
L54.8775 62.6326
" />
<path d="M54.8775 62.6326
L54.6870 62.6326
" />
<path d="M54.6870 62.6326
L54.5918 62.5850
" />
<path d="M55.4013 61.9660
L55.6394 62.6326
" />
<path d="M55.8775 61.9660
L55.6394 62.6326
" />
<path d="M55.6394 62.6326
L55.5442 62.8707
" />
<path d="M55.5442 62.8707
L55.4966 62.9184
" />
<path d="M55.4966 62.9184
L55.4013 62.9660
" />
<path d="M57.0204 62.6326
L57.0204 61.6326
" />
<path d="M57.0204 61.6326
L57.4013 61.6326
" />
<path d="M57.4013 61.6326
L57.4966 61.6803
" />
<path d="M57.4966 61.6803
L57.5442 61.7279
" />
<path d="M57.5442 61.7279
L57.5918 61.8231
" />
<path d="M57.5918 61.8231
L57.5918 61.9660
" />
<path d="M57.5918 61.9660
L57.5442 62.0612
" />
<path d="M57.5442 62.0612
L57.4966 62.1088
" />
<path d="M57.4966 62.1088
L57.4013 62.1565
" />
<path d="M57.4013 62.1565
L57.0204 62.1565
" />
<path d="M58.0204 62.6326
L58.0204 61.9660
" />
<path d="M58.0204 61.6326
L57.9728 61.6803
" />
<path d="M57.9728 61.6803
L58.0204 61.7279
" />
<path d="M58.0204 61.7279
L58.0680 61.6803
" />
<path d="M58.0680 61.6803
L58.0204 61.6326
" />
<path d="M58.0204 61.6326
L58.0204 61.7279
" />
<path d="M58.4966 62.6326
L58.4966 61.9660
" />
<path d="M58.4966 62.0612
L58.5442 62.0136
" />
<path d="M58.5442 62.0136
L58.6394 61.9660
" />
<path d="M58.6394 61.9660
L58.7823 61.9660
" />
<path d="M58.7823 61.9660
L58.8775 62.0136
" />
<path d="M58.8775 62.0136
L58.9251 62.1088
" />
<path d="M58.9251 62.1088
L58.9251 62.6326
" />
<path d="M58.9251 62.1088
L58.9728 62.0136
" />
<path d="M58.9728 62.0136
L59.0680 61.9660
" />
<path d="M59.0680 61.9660
L59.2108 61.9660
" />
<path d="M59.2108 61.9660
L59.3061 62.0136
" />
<path d="M59.3061 62.0136
L59.3537 62.1088
" />
<path d="M59.3537 62.1088
L59.3537 62.6326
" />
<path d="M60.9251 62.1088
L61.0680 62.1565
" />
<path d="M61.0680 62.1565
L61.1156 62.2041
" />
<path d="M61.1156 62.2041
L61.1632 62.2993
" />
<path d="M61.1632 62.2993
L61.1632 62.4422
" />
<path d="M61.1632 62.4422
L61.1156 62.5374
" />
<path d="M61.1156 62.5374
L61.0680 62.5850
" />
<path d="M61.0680 62.5850
L60.9728 62.6326
" />
<path d="M60.9728 62.6326
L60.5918 62.6326
" />
<path d="M60.5918 62.6326
L60.5918 61.6326
" />
<path d="M60.5918 61.6326
L60.9251 61.6326
" />
<path d="M60.9251 61.6326
L61.0204 61.6803
" />
<path d="M61.0204 61.6803
L61.0680 61.7279
" />
<path d="M61.0680 61.7279
L61.1156 61.8231
" />
<path d="M61.1156 61.8231
L61.1156 61.9184
" />
<path d="M61.1156 61.9184
L61.0680 62.0136
" />
<path d="M61.0680 62.0136
L61.0204 62.0612
" />
<path d="M61.0204 62.0612
L60.9251 62.1088
" />
<path d="M60.9251 62.1088
L60.5918 62.1088
" />
<path d="M61.7347 62.6326
L61.6394 62.5850
" />
<path d="M61.6394 62.5850
L61.5918 62.5374
" />
<path d="M61.5918 62.5374
L61.5442 62.4422
" />
<path d="M61.5442 62.4422
L61.5442 62.1565
" />
<path d="M61.5442 62.1565
L61.5918 62.0612
" />
<path d="M61.5918 62.0612
L61.6394 62.0136
" />
<path d="M61.6394 62.0136
L61.7347 61.9660
" />
<path d="M61.7347 61.9660
L61.8775 61.9660
" />
<path d="M61.8775 61.9660
L61.9728 62.0136
" />
<path d="M61.9728 62.0136
L62.0204 62.0612
" />
<path d="M62.0204 62.0612
L62.0680 62.1565
" />
<path d="M62.0680 62.1565
L62.0680 62.4422
" />
<path d="M62.0680 62.4422
L62.0204 62.5374
" />
<path d="M62.0204 62.5374
L61.9728 62.5850
" />
<path d="M61.9728 62.5850
L61.8775 62.6326
" />
<path d="M61.8775 62.6326
L61.7347 62.6326
" />
<path d="M62.4966 62.6326
L62.4966 61.9660
" />
<path d="M62.4966 62.1565
L62.5442 62.0612
" />
<path d="M62.5442 62.0612
L62.5918 62.0136
" />
<path d="M62.5918 62.0136
L62.6870 61.9660
" />
<path d="M62.6870 61.9660
L62.7823 61.9660
" />
<path d="M63.1156 62.6326
L63.1156 61.9660
" />
<path d="M63.1156 62.0612
L63.1632 62.0136
" />
<path d="M63.1632 62.0136
L63.2585 61.9660
" />
<path d="M63.2585 61.9660
L63.4013 61.9660
" />
<path d="M63.4013 61.9660
L63.4966 62.0136
" />
<path d="M63.4966 62.0136
L63.5442 62.1088
" />
<path d="M63.5442 62.1088
L63.5442 62.6326
" />
<path d="M63.5442 62.1088
L63.5918 62.0136
" />
<path d="M63.5918 62.0136
L63.6870 61.9660
" />
<path d="M63.6870 61.9660
L63.8299 61.9660
" />
<path d="M63.8299 61.9660
L63.9251 62.0136
" />
<path d="M63.9251 62.0136
L63.9728 62.1088
" />
<path d="M63.9728 62.1088
L63.9728 62.6326
" />
<path d="M64.8775 62.6326
L64.8775 62.1088
" />
<path d="M64.8775 62.1088
L64.8299 62.0136
" />
<path d="M64.8299 62.0136
L64.7347 61.9660
" />
<path d="M64.7347 61.9660
L64.5442 61.9660
" />
<path d="M64.5442 61.9660
L64.4489 62.0136
" />
<path d="M64.8775 62.5850
L64.7823 62.6326
" />
<path d="M64.7823 62.6326
L64.5442 62.6326
" />
<path d="M64.5442 62.6326
L64.4489 62.5850
" />
<path d="M64.4489 62.5850
L64.4013 62.4898
" />
<path d="M64.4013 62.4898
L64.4013 62.3945
" />
<path d="M64.4013 62.3945
L64.4489 62.2993
" />
<path d="M64.4489 62.2993
L64.5442 62.2517
" />
<path d="M64.5442 62.2517
L64.7823 62.2517
" />
<path d="M64.7823 62.2517
L64.8775 62.2041
" />
<path d="M65.3537 61.9660
L65.3537 62.6326
" />
<path d="M65.3537 62.0612
L65.4013 62.0136
" />
<path d="M65.4013 62.0136
L65.4966 61.9660
" />
<path d="M65.4966 61.9660
L65.6394 61.9660
" />
<path d="M65.6394 61.9660
L65.7347 62.0136
" />
<path d="M65.7347 62.0136
L65.7823 62.1088
" />
<path d="M65.7823 62.1088
L65.7823 62.6326
" />
</g><text x="45.0022" y="64.3702"
textLength="9.4333" font-size="1.3333" lengthAdjust="spacingAndGlyphs"
text-anchor="start" opacity="0" stroke-opacity="0">Version v1.1</text>
<g class="stroked-text"><desc>Version v1.1</desc>
<path d="M45.1632 63.2426
L45.4966 64.2426
" />
<path d="M45.4966 64.2426
L45.8299 63.2426
" />
<path d="M46.5442 64.1950
L46.4489 64.2426
" />
<path d="M46.4489 64.2426
L46.2585 64.2426
" />
<path d="M46.2585 64.2426
L46.1632 64.1950
" />
<path d="M46.1632 64.1950
L46.1156 64.0997
" />
<path d="M46.1156 64.0997
L46.1156 63.7188
" />
<path d="M46.1156 63.7188
L46.1632 63.6235
" />
<path d="M46.1632 63.6235
L46.2585 63.5759
" />
<path d="M46.2585 63.5759
L46.4489 63.5759
" />
<path d="M46.4489 63.5759
L46.5442 63.6235
" />
<path d="M46.5442 63.6235
L46.5918 63.7188
" />
<path d="M46.5918 63.7188
L46.5918 63.8140
" />
<path d="M46.5918 63.8140
L46.1156 63.9093
" />
<path d="M47.0204 64.2426
L47.0204 63.5759
" />
<path d="M47.0204 63.7664
L47.0680 63.6712
" />
<path d="M47.0680 63.6712
L47.1156 63.6235
" />
<path d="M47.1156 63.6235
L47.2108 63.5759
" />
<path d="M47.2108 63.5759
L47.3061 63.5759
" />
<path d="M47.5918 64.1950
L47.6870 64.2426
" />
<path d="M47.6870 64.2426
L47.8775 64.2426
" />
<path d="M47.8775 64.2426
L47.9728 64.1950
" />
<path d="M47.9728 64.1950
L48.0204 64.0997
" />
<path d="M48.0204 64.0997
L48.0204 64.0521
" />
<path d="M48.0204 64.0521
L47.9728 63.9569
" />
<path d="M47.9728 63.9569
L47.8775 63.9093
" />
<path d="M47.8775 63.9093
L47.7347 63.9093
" />
<path d="M47.7347 63.9093
L47.6394 63.8616
" />
<path d="M47.6394 63.8616
L47.5918 63.7664
" />
<path d="M47.5918 63.7664
L47.5918 63.7188
" />
<path d="M47.5918 63.7188
L47.6394 63.6235
" />
<path d="M47.6394 63.6235
L47.7347 63.5759
" />
<path d="M47.7347 63.5759
L47.8775 63.5759
" />
<path d="M47.8775 63.5759
L47.9728 63.6235
" />
<path d="M48.4489 64.2426
L48.4489 63.5759
" />
<path d="M48.4489 63.2426
L48.4013 63.2902
" />
<path d="M48.4013 63.2902
L48.4489 63.3378
" />
<path d="M48.4489 63.3378
L48.4966 63.2902
" />
<path d="M48.4966 63.2902
L48.4489 63.2426
" />
<path d="M48.4489 63.2426
L48.4489 63.3378
" />
<path d="M49.0680 64.2426
L48.9728 64.1950
" />
<path d="M48.9728 64.1950
L48.9251 64.1473
" />
<path d="M48.9251 64.1473
L48.8775 64.0521
" />
<path d="M48.8775 64.0521
L48.8775 63.7664
" />
<path d="M48.8775 63.7664
L48.9251 63.6712
" />
<path d="M48.9251 63.6712
L48.9728 63.6235
" />
<path d="M48.9728 63.6235
L49.0680 63.5759
" />
<path d="M49.0680 63.5759
L49.2108 63.5759
" />
<path d="M49.2108 63.5759
L49.3061 63.6235
" />
<path d="M49.3061 63.6235
L49.3537 63.6712
" />
<path d="M49.3537 63.6712
L49.4013 63.7664
" />
<path d="M49.4013 63.7664
L49.4013 64.0521
" />
<path d="M49.4013 64.0521
L49.3537 64.1473
" />
<path d="M49.3537 64.1473
L49.3061 64.1950
" />
<path d="M49.3061 64.1950
L49.2108 64.2426
" />
<path d="M49.2108 64.2426
L49.0680 64.2426
" />
<path d="M49.8299 63.5759
L49.8299 64.2426
" />
<path d="M49.8299 63.6712
L49.8775 63.6235
" />
<path d="M49.8775 63.6235
L49.9728 63.5759
" />
<path d="M49.9728 63.5759
L50.1156 63.5759
" />
<path d="M50.1156 63.5759
L50.2108 63.6235
" />
<path d="M50.2108 63.6235
L50.2585 63.7188
" />
<path d="M50.2585 63.7188
L50.2585 64.2426
" />
<path d="M51.4013 63.5759
L51.6394 64.2426
" />
<path d="M51.6394 64.2426
L51.8775 63.5759
" />
<path d="M52.7823 64.2426
L52.2108 64.2426
" />
<path d="M52.4966 64.2426
L52.4966 63.2426
" />
<path d="M52.4966 63.2426
L52.4013 63.3854
" />
<path d="M52.4013 63.3854
L52.3061 63.4807
" />
<path d="M52.3061 63.4807
L52.2108 63.5283
" />
<path d="M53.2108 64.1473
L53.2585 64.1950
" />
<path d="M53.2585 64.1950
L53.2108 64.2426
" />
<path d="M53.2108 64.2426
L53.1632 64.1950
" />
<path d="M53.1632 64.1950
L53.2108 64.1473
" />
<path d="M53.2108 64.1473
L53.2108 64.2426
" />
<path d="M54.2108 64.2426
L53.6394 64.2426
" />
<path d="M53.9251 64.2426
L53.9251 63.2426
" />
<path d="M53.9251 63.2426
L53.8299 63.3854
" />
<path d="M53.8299 63.3854
L53.7347 63.4807
" />
<path d="M53.7347 63.4807
L53.6394 63.5283
" />
</g><text x="45.0022" y="65.9801"
textLength="14.2905" font-size="1.3333" lengthAdjust="spacingAndGlyphs"
text-anchor="start" opacity="0" stroke-opacity="0">Date 2024-10-13</text>
<g class="stroked-text"><desc>Date 2024-10-13</desc>
<path d="M45.3061 65.8525
L45.3061 64.8525
" />
<path d="M45.3061 64.8525
L45.5442 64.8525
" />
<path d="M45.5442 64.8525
L45.6870 64.9001
" />
<path d="M45.6870 64.9001
L45.7823 64.9954
" />
<path d="M45.7823 64.9954
L45.8299 65.0906
" />
<path d="M45.8299 65.0906
L45.8775 65.2811
" />
<path d="M45.8775 65.2811
L45.8775 65.4240
" />
<path d="M45.8775 65.4240
L45.8299 65.6144
" />
<path d="M45.8299 65.6144
L45.7823 65.7097
" />
<path d="M45.7823 65.7097
L45.6870 65.8049
" />
<path d="M45.6870 65.8049
L45.5442 65.8525
" />
<path d="M45.5442 65.8525
L45.3061 65.8525
" />
<path d="M46.7347 65.8525
L46.7347 65.3287
" />
<path d="M46.7347 65.3287
L46.6870 65.2335
" />
<path d="M46.6870 65.2335
L46.5918 65.1859
" />
<path d="M46.5918 65.1859
L46.4013 65.1859
" />
<path d="M46.4013 65.1859
L46.3061 65.2335
" />
<path d="M46.7347 65.8049
L46.6394 65.8525
" />
<path d="M46.6394 65.8525
L46.4013 65.8525
" />
<path d="M46.4013 65.8525
L46.3061 65.8049
" />
<path d="M46.3061 65.8049
L46.2585 65.7097
" />
<path d="M46.2585 65.7097
L46.2585 65.6144
" />
<path d="M46.2585 65.6144
L46.3061 65.5192
" />
<path d="M46.3061 65.5192
L46.4013 65.4716
" />
<path d="M46.4013 65.4716
L46.6394 65.4716
" />
<path d="M46.6394 65.4716
L46.7347 65.4240
" />
<path d="M47.0680 65.1859
L47.4489 65.1859
" />
<path d="M47.2108 64.8525
L47.2108 65.7097
" />
<path d="M47.2108 65.7097
L47.2585 65.8049
" />
<path d="M47.2585 65.8049
L47.3537 65.8525
" />
<path d="M47.3537 65.8525
L47.4489 65.8525
" />
<path d="M48.1632 65.8049
L48.0680 65.8525
" />
<path d="M48.0680 65.8525
L47.8775 65.8525
" />
<path d="M47.8775 65.8525
L47.7823 65.8049
" />
<path d="M47.7823 65.8049
L47.7347 65.7097
" />
<path d="M47.7347 65.7097
L47.7347 65.3287
" />
<path d="M47.7347 65.3287
L47.7823 65.2335
" />
<path d="M47.7823 65.2335
L47.8775 65.1859
" />
<path d="M47.8775 65.1859
L48.0680 65.1859
" />
<path d="M48.0680 65.1859
L48.1632 65.2335
" />
<path d="M48.1632 65.2335
L48.2108 65.3287
" />
<path d="M48.2108 65.3287
L48.2108 65.4240
" />
<path d="M48.2108 65.4240
L47.7347 65.5192
" />
<path d="M49.3537 64.9478
L49.4013 64.9001
" />
<path d="M49.4013 64.9001
L49.4966 64.8525
" />
<path d="M49.4966 64.8525
L49.7347 64.8525
" />
<path d="M49.7347 64.8525
L49.8299 64.9001
" />
<path d="M49.8299 64.9001
L49.8775 64.9478
" />
<path d="M49.8775 64.9478
L49.9251 65.0430
" />
<path d="M49.9251 65.0430
L49.9251 65.1382
" />
<path d="M49.9251 65.1382
L49.8775 65.2811
" />
<path d="M49.8775 65.2811
L49.3061 65.8525
" />
<path d="M49.3061 65.8525
L49.9251 65.8525
" />
<path d="M50.5442 64.8525
L50.6394 64.8525
" />
<path d="M50.6394 64.8525
L50.7347 64.9001
" />
<path d="M50.7347 64.9001
L50.7823 64.9478
" />
<path d="M50.7823 64.9478
L50.8299 65.0430
" />
<path d="M50.8299 65.0430
L50.8775 65.2335
" />
<path d="M50.8775 65.2335
L50.8775 65.4716
" />
<path d="M50.8775 65.4716
L50.8299 65.6621
" />
<path d="M50.8299 65.6621
L50.7823 65.7573
" />
<path d="M50.7823 65.7573
L50.7347 65.8049
" />
<path d="M50.7347 65.8049
L50.6394 65.8525
" />
<path d="M50.6394 65.8525
L50.5442 65.8525
" />
<path d="M50.5442 65.8525
L50.4489 65.8049
" />
<path d="M50.4489 65.8049
L50.4013 65.7573
" />
<path d="M50.4013 65.7573
L50.3537 65.6621
" />
<path d="M50.3537 65.6621
L50.3061 65.4716
" />
<path d="M50.3061 65.4716
L50.3061 65.2335
" />
<path d="M50.3061 65.2335
L50.3537 65.0430
" />
<path d="M50.3537 65.0430
L50.4013 64.9478
" />
<path d="M50.4013 64.9478
L50.4489 64.9001
" />
<path d="M50.4489 64.9001
L50.5442 64.8525
" />
<path d="M51.2585 64.9478
L51.3061 64.9001
" />
<path d="M51.3061 64.9001
L51.4013 64.8525
" />
<path d="M51.4013 64.8525
L51.6394 64.8525
" />
<path d="M51.6394 64.8525
L51.7347 64.9001
" />
<path d="M51.7347 64.9001
L51.7823 64.9478
" />
<path d="M51.7823 64.9478
L51.8299 65.0430
" />
<path d="M51.8299 65.0430
L51.8299 65.1382
" />
<path d="M51.8299 65.1382
L51.7823 65.2811
" />
<path d="M51.7823 65.2811
L51.2108 65.8525
" />
<path d="M51.2108 65.8525
L51.8299 65.8525
" />
<path d="M52.6870 65.1859
L52.6870 65.8525
" />
<path d="M52.4489 64.8049
L52.2108 65.5192
" />
<path d="M52.2108 65.5192
L52.8299 65.5192
" />
<path d="M53.2108 65.4716
L53.9728 65.4716
" />
<path d="M54.9728 65.8525
L54.4013 65.8525
" />
<path d="M54.6870 65.8525
L54.6870 64.8525
" />
<path d="M54.6870 64.8525
L54.5918 64.9954
" />
<path d="M54.5918 64.9954
L54.4966 65.0906
" />
<path d="M54.4966 65.0906
L54.4013 65.1382
" />
<path d="M55.5918 64.8525
L55.6870 64.8525
" />
<path d="M55.6870 64.8525
L55.7823 64.9001
" />
<path d="M55.7823 64.9001
L55.8299 64.9478
" />
<path d="M55.8299 64.9478
L55.8775 65.0430
" />
<path d="M55.8775 65.0430
L55.9251 65.2335
" />
<path d="M55.9251 65.2335
L55.9251 65.4716
" />
<path d="M55.9251 65.4716
L55.8775 65.6621
" />
<path d="M55.8775 65.6621
L55.8299 65.7573
" />
<path d="M55.8299 65.7573
L55.7823 65.8049
" />
<path d="M55.7823 65.8049
L55.6870 65.8525
" />
<path d="M55.6870 65.8525
L55.5918 65.8525
" />
<path d="M55.5918 65.8525
L55.4966 65.8049
" />
<path d="M55.4966 65.8049
L55.4489 65.7573
" />
<path d="M55.4489 65.7573
L55.4013 65.6621
" />
<path d="M55.4013 65.6621
L55.3537 65.4716
" />
<path d="M55.3537 65.4716
L55.3537 65.2335
" />
<path d="M55.3537 65.2335
L55.4013 65.0430
" />
<path d="M55.4013 65.0430
L55.4489 64.9478
" />
<path d="M55.4489 64.9478
L55.4966 64.9001
" />
<path d="M55.4966 64.9001
L55.5918 64.8525
" />
<path d="M56.3537 65.4716
L57.1156 65.4716
" />
<path d="M58.1156 65.8525
L57.5442 65.8525
" />
<path d="M57.8299 65.8525
L57.8299 64.8525
" />
<path d="M57.8299 64.8525
L57.7347 64.9954
" />
<path d="M57.7347 64.9954
L57.6394 65.0906
" />
<path d="M57.6394 65.0906
L57.5442 65.1382
" />
<path d="M58.4489 64.8525
L59.0680 64.8525
" />
<path d="M59.0680 64.8525
L58.7347 65.2335
" />
<path d="M58.7347 65.2335
L58.8775 65.2335
" />
<path d="M58.8775 65.2335
L58.9728 65.2811
" />
<path d="M58.9728 65.2811
L59.0204 65.3287
" />
<path d="M59.0204 65.3287
L59.0680 65.4240
" />
<path d="M59.0680 65.4240
L59.0680 65.6621
" />
<path d="M59.0680 65.6621
L59.0204 65.7573
" />
<path d="M59.0204 65.7573
L58.9728 65.8049
" />
<path d="M58.9728 65.8049
L58.8775 65.8525
" />
<path d="M58.8775 65.8525
L58.5918 65.8525
" />
<path d="M58.5918 65.8525
L58.4966 65.8049
" />
<path d="M58.4966 65.8049
L58.4489 65.7573
" />
</g><text x="45.0022" y="67.5901"
textLength="33.7667" font-size="1.3333" lengthAdjust="spacingAndGlyphs"
text-anchor="start" opacity="0" stroke-opacity="0">https://github.com/pimborman/nixie-clock</text>
<g class="stroked-text"><desc>https://github.com/pimborman/nixie-clock</desc>
<path d="M45.3061 67.4625
L45.3061 66.4625
" />
<path d="M45.7347 67.4625
L45.7347 66.9387
" />
<path d="M45.7347 66.9387
L45.6870 66.8434
" />
<path d="M45.6870 66.8434
L45.5918 66.7958
" />
<path d="M45.5918 66.7958
L45.4489 66.7958
" />
<path d="M45.4489 66.7958
L45.3537 66.8434
" />
<path d="M45.3537 66.8434
L45.3061 66.8910
" />
<path d="M46.0680 66.7958
L46.4489 66.7958
" />
<path d="M46.2108 66.4625
L46.2108 67.3196
" />
<path d="M46.2108 67.3196
L46.2585 67.4149
" />
<path d="M46.2585 67.4149
L46.3537 67.4625
" />
<path d="M46.3537 67.4625
L46.4489 67.4625
" />
<path d="M46.6394 66.7958
L47.0204 66.7958
" />
<path d="M46.7823 66.4625
L46.7823 67.3196
" />
<path d="M46.7823 67.3196
L46.8299 67.4149
" />
<path d="M46.8299 67.4149
L46.9251 67.4625
" />
<path d="M46.9251 67.4625
L47.0204 67.4625
" />
<path d="M47.3537 66.7958
L47.3537 67.7958
" />
<path d="M47.3537 66.8434
L47.4489 66.7958
" />
<path d="M47.4489 66.7958
L47.6394 66.7958
" />
<path d="M47.6394 66.7958
L47.7347 66.8434
" />
<path d="M47.7347 66.8434
L47.7823 66.8910
" />
<path d="M47.7823 66.8910
L47.8299 66.9863
" />
<path d="M47.8299 66.9863
L47.8299 67.2720
" />
<path d="M47.8299 67.2720
L47.7823 67.3672
" />
<path d="M47.7823 67.3672
L47.7347 67.4149
" />
<path d="M47.7347 67.4149
L47.6394 67.4625
" />
<path d="M47.6394 67.4625
L47.4489 67.4625
" />
<path d="M47.4489 67.4625
L47.3537 67.4149
" />
<path d="M48.2108 67.4149
L48.3061 67.4625
" />
<path d="M48.3061 67.4625
L48.4966 67.4625
" />
<path d="M48.4966 67.4625
L48.5918 67.4149
" />
<path d="M48.5918 67.4149
L48.6394 67.3196
" />
<path d="M48.6394 67.3196
L48.6394 67.2720
" />
<path d="M48.6394 67.2720
L48.5918 67.1768
" />
<path d="M48.5918 67.1768
L48.4966 67.1291
" />
<path d="M48.4966 67.1291
L48.3537 67.1291
" />
<path d="M48.3537 67.1291
L48.2585 67.0815
" />
<path d="M48.2585 67.0815
L48.2108 66.9863
" />
<path d="M48.2108 66.9863
L48.2108 66.9387
" />
<path d="M48.2108 66.9387
L48.2585 66.8434
" />
<path d="M48.2585 66.8434
L48.3537 66.7958
" />
<path d="M48.3537 66.7958
L48.4966 66.7958
" />
<path d="M48.4966 66.7958
L48.5918 66.8434
" />
<path d="M49.0680 67.3672
L49.1156 67.4149
" />
<path d="M49.1156 67.4149
L49.0680 67.4625
" />
<path d="M49.0680 67.4625
L49.0204 67.4149
" />
<path d="M49.0204 67.4149
L49.0680 67.3672
" />
<path d="M49.0680 67.3672
L49.0680 67.4625
" />
<path d="M49.0680 66.8434
L49.1156 66.8910
" />
<path d="M49.1156 66.8910
L49.0680 66.9387
" />
<path d="M49.0680 66.9387
L49.0204 66.8910
" />
<path d="M49.0204 66.8910
L49.0680 66.8434
" />
<path d="M49.0680 66.8434
L49.0680 66.9387
" />
<path d="M50.2585 66.4149
L49.4013 67.7006
" />
<path d="M51.3061 66.4149
L50.4489 67.7006
" />
<path d="M52.0680 66.7958
L52.0680 67.6053
" />
<path d="M52.0680 67.6053
L52.0204 67.7006
" />
<path d="M52.0204 67.7006
L51.9728 67.7482
" />
<path d="M51.9728 67.7482
L51.8775 67.7958
" />
<path d="M51.8775 67.7958
L51.7347 67.7958
" />
<path d="M51.7347 67.7958
L51.6394 67.7482
" />
<path d="M52.0680 67.4149
L51.9728 67.4625
" />
<path d="M51.9728 67.4625
L51.7823 67.4625
" />
<path d="M51.7823 67.4625
L51.6870 67.4149
" />
<path d="M51.6870 67.4149
L51.6394 67.3672
" />
<path d="M51.6394 67.3672
L51.5918 67.2720
" />
<path d="M51.5918 67.2720
L51.5918 66.9863
" />
<path d="M51.5918 66.9863
L51.6394 66.8910
" />
<path d="M51.6394 66.8910
L51.6870 66.8434
" />
<path d="M51.6870 66.8434
L51.7823 66.7958
" />
<path d="M51.7823 66.7958
L51.9728 66.7958
" />
<path d="M51.9728 66.7958
L52.0680 66.8434
" />
<path d="M52.5442 67.4625
L52.5442 66.7958
" />
<path d="M52.5442 66.4625
L52.4966 66.5101
" />
<path d="M52.4966 66.5101
L52.5442 66.5577
" />
<path d="M52.5442 66.5577
L52.5918 66.5101
" />
<path d="M52.5918 66.5101
L52.5442 66.4625
" />
<path d="M52.5442 66.4625
L52.5442 66.5577
" />
<path d="M52.8775 66.7958
L53.2585 66.7958
" />
<path d="M53.0204 66.4625
L53.0204 67.3196
" />
<path d="M53.0204 67.3196
L53.0680 67.4149
" />
<path d="M53.0680 67.4149
L53.1632 67.4625
" />
<path d="M53.1632 67.4625
L53.2585 67.4625
" />
<path d="M53.5918 67.4625
L53.5918 66.4625
" />
<path d="M54.0204 67.4625
L54.0204 66.9387
" />
<path d="M54.0204 66.9387
L53.9728 66.8434
" />
<path d="M53.9728 66.8434
L53.8775 66.7958
" />
<path d="M53.8775 66.7958
L53.7347 66.7958
" />
<path d="M53.7347 66.7958
L53.6394 66.8434
" />
<path d="M53.6394 66.8434
L53.5918 66.8910
" />
<path d="M54.9251 66.7958
L54.9251 67.4625
" />
<path d="M54.4966 66.7958
L54.4966 67.3196
" />
<path d="M54.4966 67.3196
L54.5442 67.4149
" />
<path d="M54.5442 67.4149
L54.6394 67.4625
" />
<path d="M54.6394 67.4625
L54.7823 67.4625
" />
<path d="M54.7823 67.4625
L54.8775 67.4149
" />
<path d="M54.8775 67.4149
L54.9251 67.3672
" />
<path d="M55.4013 67.4625
L55.4013 66.4625
" />
<path d="M55.4013 66.8434
L55.4966 66.7958
" />
<path d="M55.4966 66.7958
L55.6870 66.7958
" />
<path d="M55.6870 66.7958
L55.7823 66.8434
" />
<path d="M55.7823 66.8434
L55.8299 66.8910
" />
<path d="M55.8299 66.8910
L55.8775 66.9863
" />
<path d="M55.8775 66.9863
L55.8775 67.2720
" />
<path d="M55.8775 67.2720
L55.8299 67.3672
" />
<path d="M55.8299 67.3672
L55.7823 67.4149
" />
<path d="M55.7823 67.4149
L55.6870 67.4625
" />
<path d="M55.6870 67.4625
L55.4966 67.4625
" />
<path d="M55.4966 67.4625
L55.4013 67.4149
" />
<path d="M56.3061 67.3672
L56.3537 67.4149
" />
<path d="M56.3537 67.4149
L56.3061 67.4625
" />
<path d="M56.3061 67.4625
L56.2585 67.4149
" />
<path d="M56.2585 67.4149
L56.3061 67.3672
" />
<path d="M56.3061 67.3672
L56.3061 67.4625
" />
<path d="M57.2108 67.4149
L57.1156 67.4625
" />
<path d="M57.1156 67.4625
L56.9251 67.4625
" />
<path d="M56.9251 67.4625
L56.8299 67.4149
" />
<path d="M56.8299 67.4149
L56.7823 67.3672
" />
<path d="M56.7823 67.3672
L56.7347 67.2720
" />
<path d="M56.7347 67.2720
L56.7347 66.9863
" />
<path d="M56.7347 66.9863
L56.7823 66.8910
" />
<path d="M56.7823 66.8910
L56.8299 66.8434
" />
<path d="M56.8299 66.8434
L56.9251 66.7958
" />
<path d="M56.9251 66.7958
L57.1156 66.7958
" />
<path d="M57.1156 66.7958
L57.2108 66.8434
" />
<path d="M57.7823 67.4625
L57.6870 67.4149
" />
<path d="M57.6870 67.4149
L57.6394 67.3672
" />
<path d="M57.6394 67.3672
L57.5918 67.2720
" />
<path d="M57.5918 67.2720
L57.5918 66.9863
" />
<path d="M57.5918 66.9863
L57.6394 66.8910
" />
<path d="M57.6394 66.8910
L57.6870 66.8434
" />
<path d="M57.6870 66.8434
L57.7823 66.7958
" />
<path d="M57.7823 66.7958
L57.9251 66.7958
" />
<path d="M57.9251 66.7958
L58.0204 66.8434
" />
<path d="M58.0204 66.8434
L58.0680 66.8910
" />
<path d="M58.0680 66.8910
L58.1156 66.9863
" />
<path d="M58.1156 66.9863
L58.1156 67.2720
" />
<path d="M58.1156 67.2720
L58.0680 67.3672
" />
<path d="M58.0680 67.3672
L58.0204 67.4149
" />
<path d="M58.0204 67.4149
L57.9251 67.4625
" />
<path d="M57.9251 67.4625
L57.7823 67.4625
" />
<path d="M58.5442 67.4625
L58.5442 66.7958
" />
<path d="M58.5442 66.8910
L58.5918 66.8434
" />
<path d="M58.5918 66.8434
L58.6870 66.7958
" />
<path d="M58.6870 66.7958
L58.8299 66.7958
" />
<path d="M58.8299 66.7958
L58.9251 66.8434
" />
<path d="M58.9251 66.8434
L58.9728 66.9387
" />
<path d="M58.9728 66.9387
L58.9728 67.4625
" />
<path d="M58.9728 66.9387
L59.0204 66.8434
" />
<path d="M59.0204 66.8434
L59.1156 66.7958
" />
<path d="M59.1156 66.7958
L59.2585 66.7958
" />
<path d="M59.2585 66.7958
L59.3537 66.8434
" />
<path d="M59.3537 66.8434
L59.4013 66.9387
" />
<path d="M59.4013 66.9387
L59.4013 67.4625
" />
<path d="M60.5918 66.4149
L59.7347 67.7006
" />
<path d="M60.9251 66.7958
L60.9251 67.7958
" />
<path d="M60.9251 66.8434
L61.0204 66.7958
" />
<path d="M61.0204 66.7958
L61.2108 66.7958
" />
<path d="M61.2108 66.7958
L61.3061 66.8434
" />
<path d="M61.3061 66.8434
L61.3537 66.8910
" />
<path d="M61.3537 66.8910
L61.4013 66.9863
" />
<path d="M61.4013 66.9863
L61.4013 67.2720
" />
<path d="M61.4013 67.2720
L61.3537 67.3672
" />
<path d="M61.3537 67.3672
L61.3061 67.4149
" />
<path d="M61.3061 67.4149
L61.2108 67.4625
" />
<path d="M61.2108 67.4625
L61.0204 67.4625
" />
<path d="M61.0204 67.4625
L60.9251 67.4149
" />
<path d="M61.8299 67.4625
L61.8299 66.7958
" />
<path d="M61.8299 66.4625
L61.7823 66.5101
" />
<path d="M61.7823 66.5101
L61.8299 66.5577
" />
<path d="M61.8299 66.5577
L61.8775 66.5101
" />
<path d="M61.8775 66.5101
L61.8299 66.4625
" />
<path d="M61.8299 66.4625
L61.8299 66.5577
" />
<path d="M62.3061 67.4625
L62.3061 66.7958
" />
<path d="M62.3061 66.8910
L62.3537 66.8434
" />
<path d="M62.3537 66.8434
L62.4489 66.7958
" />
<path d="M62.4489 66.7958
L62.5918 66.7958
" />
<path d="M62.5918 66.7958
L62.6870 66.8434
" />
<path d="M62.6870 66.8434
L62.7347 66.9387
" />
<path d="M62.7347 66.9387
L62.7347 67.4625
" />
<path d="M62.7347 66.9387
L62.7823 66.8434
" />
<path d="M62.7823 66.8434
L62.8775 66.7958
" />
<path d="M62.8775 66.7958
L63.0204 66.7958
" />
<path d="M63.0204 66.7958
L63.1156 66.8434
" />
<path d="M63.1156 66.8434
L63.1632 66.9387
" />
<path d="M63.1632 66.9387
L63.1632 67.4625
" />
<path d="M63.6394 67.4625
L63.6394 66.4625
" />
<path d="M63.6394 66.8434
L63.7347 66.7958
" />
<path d="M63.7347 66.7958
L63.9251 66.7958
" />
<path d="M63.9251 66.7958
L64.0204 66.8434
" />
<path d="M64.0204 66.8434
L64.0680 66.8910
" />
<path d="M64.0680 66.8910
L64.1156 66.9863
" />
<path d="M64.1156 66.9863
L64.1156 67.2720
" />
<path d="M64.1156 67.2720
L64.0680 67.3672
" />
<path d="M64.0680 67.3672
L64.0204 67.4149
" />
<path d="M64.0204 67.4149
L63.9251 67.4625
" />
<path d="M63.9251 67.4625
L63.7347 67.4625
" />
<path d="M63.7347 67.4625
L63.6394 67.4149
" />
<path d="M64.6870 67.4625
L64.5918 67.4149
" />
<path d="M64.5918 67.4149
L64.5442 67.3672
" />
<path d="M64.5442 67.3672
L64.4966 67.2720
" />
<path d="M64.4966 67.2720
L64.4966 66.9863
" />
<path d="M64.4966 66.9863
L64.5442 66.8910
" />
<path d="M64.5442 66.8910
L64.5918 66.8434
" />
<path d="M64.5918 66.8434
L64.6870 66.7958
" />
<path d="M64.6870 66.7958
L64.8299 66.7958
" />
<path d="M64.8299 66.7958
L64.9251 66.8434
" />
<path d="M64.9251 66.8434
L64.9728 66.8910
" />
<path d="M64.9728 66.8910
L65.0204 66.9863
" />
<path d="M65.0204 66.9863
L65.0204 67.2720
" />
<path d="M65.0204 67.2720
L64.9728 67.3672
" />
<path d="M64.9728 67.3672
L64.9251 67.4149
" />
<path d="M64.9251 67.4149
L64.8299 67.4625
" />
<path d="M64.8299 67.4625
L64.6870 67.4625
" />
<path d="M65.4489 67.4625
L65.4489 66.7958
" />
<path d="M65.4489 66.9863
L65.4966 66.8910
" />
<path d="M65.4966 66.8910
L65.5442 66.8434
" />
<path d="M65.5442 66.8434
L65.6394 66.7958
" />
<path d="M65.6394 66.7958
L65.7347 66.7958
" />
<path d="M66.0680 67.4625
L66.0680 66.7958
" />
<path d="M66.0680 66.8910
L66.1156 66.8434
" />
<path d="M66.1156 66.8434
L66.2108 66.7958
" />
<path d="M66.2108 66.7958
L66.3537 66.7958
" />
<path d="M66.3537 66.7958
L66.4489 66.8434
" />
<path d="M66.4489 66.8434
L66.4966 66.9387
" />
<path d="M66.4966 66.9387
L66.4966 67.4625
" />
<path d="M66.4966 66.9387
L66.5442 66.8434
" />
<path d="M66.5442 66.8434
L66.6394 66.7958
" />
<path d="M66.6394 66.7958
L66.7823 66.7958
" />
<path d="M66.7823 66.7958
L66.8775 66.8434
" />
<path d="M66.8775 66.8434
L66.9251 66.9387
" />
<path d="M66.9251 66.9387
L66.9251 67.4625
" />
<path d="M67.8299 67.4625
L67.8299 66.9387
" />
<path d="M67.8299 66.9387
L67.7823 66.8434
" />
<path d="M67.7823 66.8434
L67.6870 66.7958
" />
<path d="M67.6870 66.7958
L67.4966 66.7958
" />
<path d="M67.4966 66.7958
L67.4013 66.8434
" />
<path d="M67.8299 67.4149
L67.7347 67.4625
" />
<path d="M67.7347 67.4625
L67.4966 67.4625
" />
<path d="M67.4966 67.4625
L67.4013 67.4149
" />
<path d="M67.4013 67.4149
L67.3537 67.3196
" />
<path d="M67.3537 67.3196
L67.3537 67.2244
" />
<path d="M67.3537 67.2244
L67.4013 67.1291
" />
<path d="M67.4013 67.1291
L67.4966 67.0815
" />
<path d="M67.4966 67.0815
L67.7347 67.0815
" />
<path d="M67.7347 67.0815
L67.8299 67.0339
" />
<path d="M68.3061 66.7958
L68.3061 67.4625
" />
<path d="M68.3061 66.8910
L68.3537 66.8434
" />
<path d="M68.3537 66.8434
L68.4489 66.7958
" />
<path d="M68.4489 66.7958
L68.5918 66.7958
" />
<path d="M68.5918 66.7958
L68.6870 66.8434
" />
<path d="M68.6870 66.8434
L68.7347 66.9387
" />
<path d="M68.7347 66.9387
L68.7347 67.4625
" />
<path d="M69.9251 66.4149
L69.0680 67.7006
" />
<path d="M70.2585 66.7958
L70.2585 67.4625
" />
<path d="M70.2585 66.8910
L70.3061 66.8434
" />
<path d="M70.3061 66.8434
L70.4013 66.7958
" />
<path d="M70.4013 66.7958
L70.5442 66.7958
" />
<path d="M70.5442 66.7958
L70.6394 66.8434
" />
<path d="M70.6394 66.8434
L70.6870 66.9387
" />
<path d="M70.6870 66.9387
L70.6870 67.4625
" />
<path d="M71.1632 67.4625
L71.1632 66.7958
" />
<path d="M71.1632 66.4625
L71.1156 66.5101
" />
<path d="M71.1156 66.5101
L71.1632 66.5577
" />
<path d="M71.1632 66.5577
L71.2108 66.5101
" />
<path d="M71.2108 66.5101
L71.1632 66.4625
" />
<path d="M71.1632 66.4625
L71.1632 66.5577
" />
<path d="M71.5442 67.4625
L72.0680 66.7958
" />
<path d="M71.5442 66.7958
L72.0680 67.4625
" />
<path d="M72.4489 67.4625
L72.4489 66.7958
" />
<path d="M72.4489 66.4625
L72.4013 66.5101
" />
<path d="M72.4013 66.5101
L72.4489 66.5577
" />
<path d="M72.4489 66.5577
L72.4966 66.5101
" />
<path d="M72.4966 66.5101
L72.4489 66.4625
" />
<path d="M72.4489 66.4625
L72.4489 66.5577
" />
<path d="M73.3061 67.4149
L73.2108 67.4625
" />
<path d="M73.2108 67.4625
L73.0204 67.4625
" />
<path d="M73.0204 67.4625
L72.9251 67.4149
" />
<path d="M72.9251 67.4149
L72.8775 67.3196
" />
<path d="M72.8775 67.3196
L72.8775 66.9387
" />
<path d="M72.8775 66.9387
L72.9251 66.8434
" />
<path d="M72.9251 66.8434
L73.0204 66.7958
" />
<path d="M73.0204 66.7958
L73.2108 66.7958
" />
<path d="M73.2108 66.7958
L73.3061 66.8434
" />
<path d="M73.3061 66.8434
L73.3537 66.9387
" />
<path d="M73.3537 66.9387
L73.3537 67.0339
" />
<path d="M73.3537 67.0339
L72.8775 67.1291
" />
<path d="M73.7823 67.0815
L74.5442 67.0815
" />
<path d="M75.4489 67.4149
L75.3537 67.4625
" />
<path d="M75.3537 67.4625
L75.1632 67.4625
" />
<path d="M75.1632 67.4625
L75.0680 67.4149
" />
<path d="M75.0680 67.4149
L75.0204 67.3672
" />
<path d="M75.0204 67.3672
L74.9728 67.2720
" />
<path d="M74.9728 67.2720
L74.9728 66.9863
" />
<path d="M74.9728 66.9863
L75.0204 66.8910
" />
<path d="M75.0204 66.8910
L75.0680 66.8434
" />
<path d="M75.0680 66.8434
L75.1632 66.7958
" />
<path d="M75.1632 66.7958
L75.3537 66.7958
" />
<path d="M75.3537 66.7958
L75.4489 66.8434
" />
<path d="M76.0204 67.4625
L75.9251 67.4149
" />
<path d="M75.9251 67.4149
L75.8775 67.3196
" />
<path d="M75.8775 67.3196
L75.8775 66.4625
" />
<path d="M76.5442 67.4625
L76.4489 67.4149
" />
<path d="M76.4489 67.4149
L76.4013 67.3672
" />
<path d="M76.4013 67.3672
L76.3537 67.2720
" />
<path d="M76.3537 67.2720
L76.3537 66.9863
" />
<path d="M76.3537 66.9863
L76.4013 66.8910
" />
<path d="M76.4013 66.8910
L76.4489 66.8434
" />
<path d="M76.4489 66.8434
L76.5442 66.7958
" />
<path d="M76.5442 66.7958
L76.6870 66.7958
" />
<path d="M76.6870 66.7958
L76.7823 66.8434
" />
<path d="M76.7823 66.8434
L76.8299 66.8910
" />
<path d="M76.8299 66.8910
L76.8775 66.9863
" />
<path d="M76.8775 66.9863
L76.8775 67.2720
" />
<path d="M76.8775 67.2720
L76.8299 67.3672
" />
<path d="M76.8299 67.3672
L76.7823 67.4149
" />
<path d="M76.7823 67.4149
L76.6870 67.4625
" />
<path d="M76.6870 67.4625
L76.5442 67.4625
" />
<path d="M77.7347 67.4149
L77.6394 67.4625
" />
<path d="M77.6394 67.4625
L77.4489 67.4625
" />
<path d="M77.4489 67.4625
L77.3537 67.4149
" />
<path d="M77.3537 67.4149
L77.3061 67.3672
" />
<path d="M77.3061 67.3672
L77.2585 67.2720
" />
<path d="M77.2585 67.2720
L77.2585 66.9863
" />
<path d="M77.2585 66.9863
L77.3061 66.8910
" />
<path d="M77.3061 66.8910
L77.3537 66.8434
" />
<path d="M77.3537 66.8434
L77.4489 66.7958
" />
<path d="M77.4489 66.7958
L77.6394 66.7958
" />
<path d="M77.6394 66.7958
L77.7347 66.8434
" />
<path d="M78.1632 67.4625
L78.1632 66.4625
" />
<path d="M78.2585 67.0815
L78.5442 67.4625
" />
<path d="M78.5442 66.7958
L78.1632 67.1768
" />
</g><text x="45.0022" y="69.2000"
textLength="0.3000" font-size="1.3333" lengthAdjust="spacingAndGlyphs"
text-anchor="start" opacity="0" stroke-opacity="0"></text>
<g class="stroked-text"><desc></desc>
</g></g>
<g style="fill:none; 
stroke:#000000; stroke-width:0.1500; stroke-opacity:1; 
stroke-linecap:round; stroke-linejoin:round;">
<text x="169.0022" y="73.3000"
textLength="1.9643" font-size="1.3333" lengthAdjust="spacingAndGlyphs"
text-anchor="middle" opacity="0" stroke-opacity="0">J1</text>
<g class="stroked-text"><desc>J1</desc>
<path d="M168.6689 72.2548
L168.6689 72.9691
" />
<path d="M168.6689 72.9691
L168.6212 73.1120
" />
<path d="M168.6212 73.1120
L168.5260 73.2072
" />
<path d="M168.5260 73.2072
L168.3832 73.2548
" />
<path d="M168.3832 73.2548
L168.2879 73.2548
" />
<path d="M169.6689 73.2548
L169.0974 73.2548
" />
<path d="M169.3832 73.2548
L169.3832 72.2548
" />
<path d="M169.3832 72.2548
L169.2879 72.3977
" />
<path d="M169.2879 72.3977
L169.1927 72.4929
" />
<path d="M169.1927 72.4929
L169.0974 72.5405
" />
</g></g>
<g style="fill:none; 
stroke:#000000; stroke-width:0.1200; stroke-opacity:1; 
stroke-linecap:round; stroke-linejoin:round;">
<path d="M173.6822 61.8440
L163.4022 61.8440
" />
<path d="M173.6822 64.8040
L163.4022 64.8040
" />
<path d="M173.6822 69.7050
L163.4022 69.7050
" />
<path d="M173.6822 71.2050
L163.4022 71.2050
" />
<path d="M173.6822 71.7650
L173.6822 61.8440
" />
<path d="M173.6822 71.7650
L163.4022 71.7650
" />
<path d="M172.3102 66.0820
L172.3572 66.0360
" />
<path d="M172.1172 65.8660
L172.1522 65.8300
" />
<path d="M170.0132 68.3790
L170.0482 68.3440
" />
<path d="M169.8082 68.1740
L169.8552 68.1280
" />
<path d="M163.6622 72.0050
L163.1622 72.0050
" />
<path d="M163.4022 71.7650
L163.4022 61.8440
" />
<path d="M163.1622 72.0050
L163.1622 71.2650
" />
<path d="M167.5372 67.7890 A1.6805 1.6805 0.0 0 0 167.5376 66.4220" />
<path d="M166.6862 65.5700 A1.6805 1.6805 0.0 0 0 165.3192 65.5696" />
<path d="M166.0022 68.7850 A1.6800 1.6800 0.0 0 0 166.6855 68.6398" />
<path d="M165.3182 68.6400 A1.6805 1.6805 0.0 0 0 166.0310 68.7853" />
<path d="M164.4672 66.4210 A1.6805 1.6805 0.0 0 0 164.4668 67.7880" />
<circle cx="171.0822" cy="67.1050" r="1.6800" /> 
</g> 
</svg>
