<?xml version="1.0" standalone="no"?>
 <!DOCTYPE svg PUBLIC "-//W3C//DTD SVG 1.1//EN" 
 "http://www.w3.org/Graphics/SVG/1.1/DTD/svg11.dtd"> 
<svg
  xmlns:svg="http://www.w3.org/2000/svg"
  xmlns="http://www.w3.org/2000/svg"
  xmlns:xlink="http://www.w3.org/1999/xlink"
  version="1.1"
  width="297.0022mm" height="210.0072mm" viewBox="0.0000 0.0000 297.0022 210.0072">
<title>SVG Image created as nixie-B_Silkscreen.svg date 2024/10/05 23:29:15 </title>
  <desc>Image generated by PCBNEW </desc>
<g style="fill:#000000; fill-opacity:1.0000;stroke:#000000; stroke-opacity:1.0000;
stroke-linecap:round; stroke-linejoin:round;"
 transform="translate(0 0) scale(1 1)">
</g>
<g style="fill:none; 
stroke:#000000; stroke-width:0.1000; stroke-opacity:1; 
stroke-linecap:round; stroke-linejoin:round;">
<text x="45.0022" y="64.3702"
textLength="20.3381" font-size="1.3333" lengthAdjust="spacingAndGlyphs"
text-anchor="start" opacity="0" stroke-opacity="0">Nixie Clock | Pim Borman</text>
<g class="stroked-text"><desc>Nixie Clock | Pim Borman</desc>
<path d="M45.3061 64.2426
L45.3061 63.2426
" />
<path d="M45.3061 63.2426
L45.8775 64.2426
" />
<path d="M45.8775 64.2426
L45.8775 63.2426
" />
<path d="M46.3537 64.2426
L46.3537 63.5759
" />
<path d="M46.3537 63.2426
L46.3061 63.2902
" />
<path d="M46.3061 63.2902
L46.3537 63.3378
" />
<path d="M46.3537 63.3378
L46.4013 63.2902
" />
<path d="M46.4013 63.2902
L46.3537 63.2426
" />
<path d="M46.3537 63.2426
L46.3537 63.3378
" />
<path d="M46.7347 64.2426
L47.2585 63.5759
" />
<path d="M46.7347 63.5759
L47.2585 64.2426
" />
<path d="M47.6394 64.2426
L47.6394 63.5759
" />
<path d="M47.6394 63.2426
L47.5918 63.2902
" />
<path d="M47.5918 63.2902
L47.6394 63.3378
" />
<path d="M47.6394 63.3378
L47.6870 63.2902
" />
<path d="M47.6870 63.2902
L47.6394 63.2426
" />
<path d="M47.6394 63.2426
L47.6394 63.3378
" />
<path d="M48.4966 64.1950
L48.4013 64.2426
" />
<path d="M48.4013 64.2426
L48.2108 64.2426
" />
<path d="M48.2108 64.2426
L48.1156 64.1950
" />
<path d="M48.1156 64.1950
L48.0680 64.0997
" />
<path d="M48.0680 64.0997
L48.0680 63.7188
" />
<path d="M48.0680 63.7188
L48.1156 63.6235
" />
<path d="M48.1156 63.6235
L48.2108 63.5759
" />
<path d="M48.2108 63.5759
L48.4013 63.5759
" />
<path d="M48.4013 63.5759
L48.4966 63.6235
" />
<path d="M48.4966 63.6235
L48.5442 63.7188
" />
<path d="M48.5442 63.7188
L48.5442 63.8140
" />
<path d="M48.5442 63.8140
L48.0680 63.9093
" />
<path d="M50.3061 64.1473
L50.2585 64.1950
" />
<path d="M50.2585 64.1950
L50.1156 64.2426
" />
<path d="M50.1156 64.2426
L50.0204 64.2426
" />
<path d="M50.0204 64.2426
L49.8775 64.1950
" />
<path d="M49.8775 64.1950
L49.7823 64.0997
" />
<path d="M49.7823 64.0997
L49.7347 64.0045
" />
<path d="M49.7347 64.0045
L49.6870 63.8140
" />
<path d="M49.6870 63.8140
L49.6870 63.6712
" />
<path d="M49.6870 63.6712
L49.7347 63.4807
" />
<path d="M49.7347 63.4807
L49.7823 63.3854
" />
<path d="M49.7823 63.3854
L49.8775 63.2902
" />
<path d="M49.8775 63.2902
L50.0204 63.2426
" />
<path d="M50.0204 63.2426
L50.1156 63.2426
" />
<path d="M50.1156 63.2426
L50.2585 63.2902
" />
<path d="M50.2585 63.2902
L50.3061 63.3378
" />
<path d="M50.8775 64.2426
L50.7823 64.1950
" />
<path d="M50.7823 64.1950
L50.7347 64.0997
" />
<path d="M50.7347 64.0997
L50.7347 63.2426
" />
<path d="M51.4013 64.2426
L51.3061 64.1950
" />
<path d="M51.3061 64.1950
L51.2585 64.1473
" />
<path d="M51.2585 64.1473
L51.2108 64.0521
" />
<path d="M51.2108 64.0521
L51.2108 63.7664
" />
<path d="M51.2108 63.7664
L51.2585 63.6712
" />
<path d="M51.2585 63.6712
L51.3061 63.6235
" />
<path d="M51.3061 63.6235
L51.4013 63.5759
" />
<path d="M51.4013 63.5759
L51.5442 63.5759
" />
<path d="M51.5442 63.5759
L51.6394 63.6235
" />
<path d="M51.6394 63.6235
L51.6870 63.6712
" />
<path d="M51.6870 63.6712
L51.7347 63.7664
" />
<path d="M51.7347 63.7664
L51.7347 64.0521
" />
<path d="M51.7347 64.0521
L51.6870 64.1473
" />
<path d="M51.6870 64.1473
L51.6394 64.1950
" />
<path d="M51.6394 64.1950
L51.5442 64.2426
" />
<path d="M51.5442 64.2426
L51.4013 64.2426
" />
<path d="M52.5918 64.1950
L52.4966 64.2426
" />
<path d="M52.4966 64.2426
L52.3061 64.2426
" />
<path d="M52.3061 64.2426
L52.2108 64.1950
" />
<path d="M52.2108 64.1950
L52.1632 64.1473
" />
<path d="M52.1632 64.1473
L52.1156 64.0521
" />
<path d="M52.1156 64.0521
L52.1156 63.7664
" />
<path d="M52.1156 63.7664
L52.1632 63.6712
" />
<path d="M52.1632 63.6712
L52.2108 63.6235
" />
<path d="M52.2108 63.6235
L52.3061 63.5759
" />
<path d="M52.3061 63.5759
L52.4966 63.5759
" />
<path d="M52.4966 63.5759
L52.5918 63.6235
" />
<path d="M53.0204 64.2426
L53.0204 63.2426
" />
<path d="M53.1156 63.8616
L53.4013 64.2426
" />
<path d="M53.4013 63.5759
L53.0204 63.9569
" />
<path d="M54.8299 64.5759
L54.8299 63.1473
" />
<path d="M56.3061 64.2426
L56.3061 63.2426
" />
<path d="M56.3061 63.2426
L56.6870 63.2426
" />
<path d="M56.6870 63.2426
L56.7823 63.2902
" />
<path d="M56.7823 63.2902
L56.8299 63.3378
" />
<path d="M56.8299 63.3378
L56.8775 63.4331
" />
<path d="M56.8775 63.4331
L56.8775 63.5759
" />
<path d="M56.8775 63.5759
L56.8299 63.6712
" />
<path d="M56.8299 63.6712
L56.7823 63.7188
" />
<path d="M56.7823 63.7188
L56.6870 63.7664
" />
<path d="M56.6870 63.7664
L56.3061 63.7664
" />
<path d="M57.3061 64.2426
L57.3061 63.5759
" />
<path d="M57.3061 63.2426
L57.2585 63.2902
" />
<path d="M57.2585 63.2902
L57.3061 63.3378
" />
<path d="M57.3061 63.3378
L57.3537 63.2902
" />
<path d="M57.3537 63.2902
L57.3061 63.2426
" />
<path d="M57.3061 63.2426
L57.3061 63.3378
" />
<path d="M57.7823 64.2426
L57.7823 63.5759
" />
<path d="M57.7823 63.6712
L57.8299 63.6235
" />
<path d="M57.8299 63.6235
L57.9251 63.5759
" />
<path d="M57.9251 63.5759
L58.0680 63.5759
" />
<path d="M58.0680 63.5759
L58.1632 63.6235
" />
<path d="M58.1632 63.6235
L58.2108 63.7188
" />
<path d="M58.2108 63.7188
L58.2108 64.2426
" />
<path d="M58.2108 63.7188
L58.2585 63.6235
" />
<path d="M58.2585 63.6235
L58.3537 63.5759
" />
<path d="M58.3537 63.5759
L58.4966 63.5759
" />
<path d="M58.4966 63.5759
L58.5918 63.6235
" />
<path d="M58.5918 63.6235
L58.6394 63.7188
" />
<path d="M58.6394 63.7188
L58.6394 64.2426
" />
<path d="M60.2108 63.7188
L60.3537 63.7664
" />
<path d="M60.3537 63.7664
L60.4013 63.8140
" />
<path d="M60.4013 63.8140
L60.4489 63.9093
" />
<path d="M60.4489 63.9093
L60.4489 64.0521
" />
<path d="M60.4489 64.0521
L60.4013 64.1473
" />
<path d="M60.4013 64.1473
L60.3537 64.1950
" />
<path d="M60.3537 64.1950
L60.2585 64.2426
" />
<path d="M60.2585 64.2426
L59.8775 64.2426
" />
<path d="M59.8775 64.2426
L59.8775 63.2426
" />
<path d="M59.8775 63.2426
L60.2108 63.2426
" />
<path d="M60.2108 63.2426
L60.3061 63.2902
" />
<path d="M60.3061 63.2902
L60.3537 63.3378
" />
<path d="M60.3537 63.3378
L60.4013 63.4331
" />
<path d="M60.4013 63.4331
L60.4013 63.5283
" />
<path d="M60.4013 63.5283
L60.3537 63.6235
" />
<path d="M60.3537 63.6235
L60.3061 63.6712
" />
<path d="M60.3061 63.6712
L60.2108 63.7188
" />
<path d="M60.2108 63.7188
L59.8775 63.7188
" />
<path d="M61.0204 64.2426
L60.9251 64.1950
" />
<path d="M60.9251 64.1950
L60.8775 64.1473
" />
<path d="M60.8775 64.1473
L60.8299 64.0521
" />
<path d="M60.8299 64.0521
L60.8299 63.7664
" />
<path d="M60.8299 63.7664
L60.8775 63.6712
" />
<path d="M60.8775 63.6712
L60.9251 63.6235
" />
<path d="M60.9251 63.6235
L61.0204 63.5759
" />
<path d="M61.0204 63.5759
L61.1632 63.5759
" />
<path d="M61.1632 63.5759
L61.2585 63.6235
" />
<path d="M61.2585 63.6235
L61.3061 63.6712
" />
<path d="M61.3061 63.6712
L61.3537 63.7664
" />
<path d="M61.3537 63.7664
L61.3537 64.0521
" />
<path d="M61.3537 64.0521
L61.3061 64.1473
" />
<path d="M61.3061 64.1473
L61.2585 64.1950
" />
<path d="M61.2585 64.1950
L61.1632 64.2426
" />
<path d="M61.1632 64.2426
L61.0204 64.2426
" />
<path d="M61.7823 64.2426
L61.7823 63.5759
" />
<path d="M61.7823 63.7664
L61.8299 63.6712
" />
<path d="M61.8299 63.6712
L61.8775 63.6235
" />
<path d="M61.8775 63.6235
L61.9728 63.5759
" />
<path d="M61.9728 63.5759
L62.0680 63.5759
" />
<path d="M62.4013 64.2426
L62.4013 63.5759
" />
<path d="M62.4013 63.6712
L62.4489 63.6235
" />
<path d="M62.4489 63.6235
L62.5442 63.5759
" />
<path d="M62.5442 63.5759
L62.6870 63.5759
" />
<path d="M62.6870 63.5759
L62.7823 63.6235
" />
<path d="M62.7823 63.6235
L62.8299 63.7188
" />
<path d="M62.8299 63.7188
L62.8299 64.2426
" />
<path d="M62.8299 63.7188
L62.8775 63.6235
" />
<path d="M62.8775 63.6235
L62.9728 63.5759
" />
<path d="M62.9728 63.5759
L63.1156 63.5759
" />
<path d="M63.1156 63.5759
L63.2108 63.6235
" />
<path d="M63.2108 63.6235
L63.2585 63.7188
" />
<path d="M63.2585 63.7188
L63.2585 64.2426
" />
<path d="M64.1632 64.2426
L64.1632 63.7188
" />
<path d="M64.1632 63.7188
L64.1156 63.6235
" />
<path d="M64.1156 63.6235
L64.0204 63.5759
" />
<path d="M64.0204 63.5759
L63.8299 63.5759
" />
<path d="M63.8299 63.5759
L63.7347 63.6235
" />
<path d="M64.1632 64.1950
L64.0680 64.2426
" />
<path d="M64.0680 64.2426
L63.8299 64.2426
" />
<path d="M63.8299 64.2426
L63.7347 64.1950
" />
<path d="M63.7347 64.1950
L63.6870 64.0997
" />
<path d="M63.6870 64.0997
L63.6870 64.0045
" />
<path d="M63.6870 64.0045
L63.7347 63.9093
" />
<path d="M63.7347 63.9093
L63.8299 63.8616
" />
<path d="M63.8299 63.8616
L64.0680 63.8616
" />
<path d="M64.0680 63.8616
L64.1632 63.8140
" />
<path d="M64.6394 63.5759
L64.6394 64.2426
" />
<path d="M64.6394 63.6712
L64.6870 63.6235
" />
<path d="M64.6870 63.6235
L64.7823 63.5759
" />
<path d="M64.7823 63.5759
L64.9251 63.5759
" />
<path d="M64.9251 63.5759
L65.0204 63.6235
" />
<path d="M65.0204 63.6235
L65.0680 63.7188
" />
<path d="M65.0680 63.7188
L65.0680 64.2426
" />
</g><text x="45.0022" y="65.9801"
textLength="8.5762" font-size="1.3333" lengthAdjust="spacingAndGlyphs"
text-anchor="start" opacity="0" stroke-opacity="0">version 1.0</text>
<g class="stroked-text"><desc>version 1.0</desc>
<path d="M45.2108 65.1859
L45.4489 65.8525
" />
<path d="M45.4489 65.8525
L45.6870 65.1859
" />
<path d="M46.4489 65.8049
L46.3537 65.8525
" />
<path d="M46.3537 65.8525
L46.1632 65.8525
" />
<path d="M46.1632 65.8525
L46.0680 65.8049
" />
<path d="M46.0680 65.8049
L46.0204 65.7097
" />
<path d="M46.0204 65.7097
L46.0204 65.3287
" />
<path d="M46.0204 65.3287
L46.0680 65.2335
" />
<path d="M46.0680 65.2335
L46.1632 65.1859
" />
<path d="M46.1632 65.1859
L46.3537 65.1859
" />
<path d="M46.3537 65.1859
L46.4489 65.2335
" />
<path d="M46.4489 65.2335
L46.4966 65.3287
" />
<path d="M46.4966 65.3287
L46.4966 65.4240
" />
<path d="M46.4966 65.4240
L46.0204 65.5192
" />
<path d="M46.9251 65.8525
L46.9251 65.1859
" />
<path d="M46.9251 65.3763
L46.9728 65.2811
" />
<path d="M46.9728 65.2811
L47.0204 65.2335
" />
<path d="M47.0204 65.2335
L47.1156 65.1859
" />
<path d="M47.1156 65.1859
L47.2108 65.1859
" />
<path d="M47.4966 65.8049
L47.5918 65.8525
" />
<path d="M47.5918 65.8525
L47.7823 65.8525
" />
<path d="M47.7823 65.8525
L47.8775 65.8049
" />
<path d="M47.8775 65.8049
L47.9251 65.7097
" />
<path d="M47.9251 65.7097
L47.9251 65.6621
" />
<path d="M47.9251 65.6621
L47.8775 65.5668
" />
<path d="M47.8775 65.5668
L47.7823 65.5192
" />
<path d="M47.7823 65.5192
L47.6394 65.5192
" />
<path d="M47.6394 65.5192
L47.5442 65.4716
" />
<path d="M47.5442 65.4716
L47.4966 65.3763
" />
<path d="M47.4966 65.3763
L47.4966 65.3287
" />
<path d="M47.4966 65.3287
L47.5442 65.2335
" />
<path d="M47.5442 65.2335
L47.6394 65.1859
" />
<path d="M47.6394 65.1859
L47.7823 65.1859
" />
<path d="M47.7823 65.1859
L47.8775 65.2335
" />
<path d="M48.3537 65.8525
L48.3537 65.1859
" />
<path d="M48.3537 64.8525
L48.3061 64.9001
" />
<path d="M48.3061 64.9001
L48.3537 64.9478
" />
<path d="M48.3537 64.9478
L48.4013 64.9001
" />
<path d="M48.4013 64.9001
L48.3537 64.8525
" />
<path d="M48.3537 64.8525
L48.3537 64.9478
" />
<path d="M48.9728 65.8525
L48.8775 65.8049
" />
<path d="M48.8775 65.8049
L48.8299 65.7573
" />
<path d="M48.8299 65.7573
L48.7823 65.6621
" />
<path d="M48.7823 65.6621
L48.7823 65.3763
" />
<path d="M48.7823 65.3763
L48.8299 65.2811
" />
<path d="M48.8299 65.2811
L48.8775 65.2335
" />
<path d="M48.8775 65.2335
L48.9728 65.1859
" />
<path d="M48.9728 65.1859
L49.1156 65.1859
" />
<path d="M49.1156 65.1859
L49.2108 65.2335
" />
<path d="M49.2108 65.2335
L49.2585 65.2811
" />
<path d="M49.2585 65.2811
L49.3061 65.3763
" />
<path d="M49.3061 65.3763
L49.3061 65.6621
" />
<path d="M49.3061 65.6621
L49.2585 65.7573
" />
<path d="M49.2585 65.7573
L49.2108 65.8049
" />
<path d="M49.2108 65.8049
L49.1156 65.8525
" />
<path d="M49.1156 65.8525
L48.9728 65.8525
" />
<path d="M49.7347 65.1859
L49.7347 65.8525
" />
<path d="M49.7347 65.2811
L49.7823 65.2335
" />
<path d="M49.7823 65.2335
L49.8775 65.1859
" />
<path d="M49.8775 65.1859
L50.0204 65.1859
" />
<path d="M50.0204 65.1859
L50.1156 65.2335
" />
<path d="M50.1156 65.2335
L50.1632 65.3287
" />
<path d="M50.1632 65.3287
L50.1632 65.8525
" />
<path d="M51.9251 65.8525
L51.3537 65.8525
" />
<path d="M51.6394 65.8525
L51.6394 64.8525
" />
<path d="M51.6394 64.8525
L51.5442 64.9954
" />
<path d="M51.5442 64.9954
L51.4489 65.0906
" />
<path d="M51.4489 65.0906
L51.3537 65.1382
" />
<path d="M52.3537 65.7573
L52.4013 65.8049
" />
<path d="M52.4013 65.8049
L52.3537 65.8525
" />
<path d="M52.3537 65.8525
L52.3061 65.8049
" />
<path d="M52.3061 65.8049
L52.3537 65.7573
" />
<path d="M52.3537 65.7573
L52.3537 65.8525
" />
<path d="M53.0204 64.8525
L53.1156 64.8525
" />
<path d="M53.1156 64.8525
L53.2108 64.9001
" />
<path d="M53.2108 64.9001
L53.2585 64.9478
" />
<path d="M53.2585 64.9478
L53.3061 65.0430
" />
<path d="M53.3061 65.0430
L53.3537 65.2335
" />
<path d="M53.3537 65.2335
L53.3537 65.4716
" />
<path d="M53.3537 65.4716
L53.3061 65.6621
" />
<path d="M53.3061 65.6621
L53.2585 65.7573
" />
<path d="M53.2585 65.7573
L53.2108 65.8049
" />
<path d="M53.2108 65.8049
L53.1156 65.8525
" />
<path d="M53.1156 65.8525
L53.0204 65.8525
" />
<path d="M53.0204 65.8525
L52.9251 65.8049
" />
<path d="M52.9251 65.8049
L52.8775 65.7573
" />
<path d="M52.8775 65.7573
L52.8299 65.6621
" />
<path d="M52.8299 65.6621
L52.7823 65.4716
" />
<path d="M52.7823 65.4716
L52.7823 65.2335
" />
<path d="M52.7823 65.2335
L52.8299 65.0430
" />
<path d="M52.8299 65.0430
L52.8775 64.9478
" />
<path d="M52.8775 64.9478
L52.9251 64.9001
" />
<path d="M52.9251 64.9001
L53.0204 64.8525
" />
</g><text x="45.0022" y="67.5901"
textLength="33.7667" font-size="1.3333" lengthAdjust="spacingAndGlyphs"
text-anchor="start" opacity="0" stroke-opacity="0">https://github.com/pimborman/nixie-clock</text>
<g class="stroked-text"><desc>https://github.com/pimborman/nixie-clock</desc>
<path d="M45.3061 67.4625
L45.3061 66.4625
" />
<path d="M45.7347 67.4625
L45.7347 66.9387
" />
<path d="M45.7347 66.9387
L45.6870 66.8434
" />
<path d="M45.6870 66.8434
L45.5918 66.7958
" />
<path d="M45.5918 66.7958
L45.4489 66.7958
" />
<path d="M45.4489 66.7958
L45.3537 66.8434
" />
<path d="M45.3537 66.8434
L45.3061 66.8910
" />
<path d="M46.0680 66.7958
L46.4489 66.7958
" />
<path d="M46.2108 66.4625
L46.2108 67.3196
" />
<path d="M46.2108 67.3196
L46.2585 67.4149
" />
<path d="M46.2585 67.4149
L46.3537 67.4625
" />
<path d="M46.3537 67.4625
L46.4489 67.4625
" />
<path d="M46.6394 66.7958
L47.0204 66.7958
" />
<path d="M46.7823 66.4625
L46.7823 67.3196
" />
<path d="M46.7823 67.3196
L46.8299 67.4149
" />
<path d="M46.8299 67.4149
L46.9251 67.4625
" />
<path d="M46.9251 67.4625
L47.0204 67.4625
" />
<path d="M47.3537 66.7958
L47.3537 67.7958
" />
<path d="M47.3537 66.8434
L47.4489 66.7958
" />
<path d="M47.4489 66.7958
L47.6394 66.7958
" />
<path d="M47.6394 66.7958
L47.7347 66.8434
" />
<path d="M47.7347 66.8434
L47.7823 66.8910
" />
<path d="M47.7823 66.8910
L47.8299 66.9863
" />
<path d="M47.8299 66.9863
L47.8299 67.2720
" />
<path d="M47.8299 67.2720
L47.7823 67.3672
" />
<path d="M47.7823 67.3672
L47.7347 67.4149
" />
<path d="M47.7347 67.4149
L47.6394 67.4625
" />
<path d="M47.6394 67.4625
L47.4489 67.4625
" />
<path d="M47.4489 67.4625
L47.3537 67.4149
" />
<path d="M48.2108 67.4149
L48.3061 67.4625
" />
<path d="M48.3061 67.4625
L48.4966 67.4625
" />
<path d="M48.4966 67.4625
L48.5918 67.4149
" />
<path d="M48.5918 67.4149
L48.6394 67.3196
" />
<path d="M48.6394 67.3196
L48.6394 67.2720
" />
<path d="M48.6394 67.2720
L48.5918 67.1768
" />
<path d="M48.5918 67.1768
L48.4966 67.1291
" />
<path d="M48.4966 67.1291
L48.3537 67.1291
" />
<path d="M48.3537 67.1291
L48.2585 67.0815
" />
<path d="M48.2585 67.0815
L48.2108 66.9863
" />
<path d="M48.2108 66.9863
L48.2108 66.9387
" />
<path d="M48.2108 66.9387
L48.2585 66.8434
" />
<path d="M48.2585 66.8434
L48.3537 66.7958
" />
<path d="M48.3537 66.7958
L48.4966 66.7958
" />
<path d="M48.4966 66.7958
L48.5918 66.8434
" />
<path d="M49.0680 67.3672
L49.1156 67.4149
" />
<path d="M49.1156 67.4149
L49.0680 67.4625
" />
<path d="M49.0680 67.4625
L49.0204 67.4149
" />
<path d="M49.0204 67.4149
L49.0680 67.3672
" />
<path d="M49.0680 67.3672
L49.0680 67.4625
" />
<path d="M49.0680 66.8434
L49.1156 66.8910
" />
<path d="M49.1156 66.8910
L49.0680 66.9387
" />
<path d="M49.0680 66.9387
L49.0204 66.8910
" />
<path d="M49.0204 66.8910
L49.0680 66.8434
" />
<path d="M49.0680 66.8434
L49.0680 66.9387
" />
<path d="M50.2585 66.4149
L49.4013 67.7006
" />
<path d="M51.3061 66.4149
L50.4489 67.7006
" />
<path d="M52.0680 66.7958
L52.0680 67.6053
" />
<path d="M52.0680 67.6053
L52.0204 67.7006
" />
<path d="M52.0204 67.7006
L51.9728 67.7482
" />
<path d="M51.9728 67.7482
L51.8775 67.7958
" />
<path d="M51.8775 67.7958
L51.7347 67.7958
" />
<path d="M51.7347 67.7958
L51.6394 67.7482
" />
<path d="M52.0680 67.4149
L51.9728 67.4625
" />
<path d="M51.9728 67.4625
L51.7823 67.4625
" />
<path d="M51.7823 67.4625
L51.6870 67.4149
" />
<path d="M51.6870 67.4149
L51.6394 67.3672
" />
<path d="M51.6394 67.3672
L51.5918 67.2720
" />
<path d="M51.5918 67.2720
L51.5918 66.9863
" />
<path d="M51.5918 66.9863
L51.6394 66.8910
" />
<path d="M51.6394 66.8910
L51.6870 66.8434
" />
<path d="M51.6870 66.8434
L51.7823 66.7958
" />
<path d="M51.7823 66.7958
L51.9728 66.7958
" />
<path d="M51.9728 66.7958
L52.0680 66.8434
" />
<path d="M52.5442 67.4625
L52.5442 66.7958
" />
<path d="M52.5442 66.4625
L52.4966 66.5101
" />
<path d="M52.4966 66.5101
L52.5442 66.5577
" />
<path d="M52.5442 66.5577
L52.5918 66.5101
" />
<path d="M52.5918 66.5101
L52.5442 66.4625
" />
<path d="M52.5442 66.4625
L52.5442 66.5577
" />
<path d="M52.8775 66.7958
L53.2585 66.7958
" />
<path d="M53.0204 66.4625
L53.0204 67.3196
" />
<path d="M53.0204 67.3196
L53.0680 67.4149
" />
<path d="M53.0680 67.4149
L53.1632 67.4625
" />
<path d="M53.1632 67.4625
L53.2585 67.4625
" />
<path d="M53.5918 67.4625
L53.5918 66.4625
" />
<path d="M54.0204 67.4625
L54.0204 66.9387
" />
<path d="M54.0204 66.9387
L53.9728 66.8434
" />
<path d="M53.9728 66.8434
L53.8775 66.7958
" />
<path d="M53.8775 66.7958
L53.7347 66.7958
" />
<path d="M53.7347 66.7958
L53.6394 66.8434
" />
<path d="M53.6394 66.8434
L53.5918 66.8910
" />
<path d="M54.9251 66.7958
L54.9251 67.4625
" />
<path d="M54.4966 66.7958
L54.4966 67.3196
" />
<path d="M54.4966 67.3196
L54.5442 67.4149
" />
<path d="M54.5442 67.4149
L54.6394 67.4625
" />
<path d="M54.6394 67.4625
L54.7823 67.4625
" />
<path d="M54.7823 67.4625
L54.8775 67.4149
" />
<path d="M54.8775 67.4149
L54.9251 67.3672
" />
<path d="M55.4013 67.4625
L55.4013 66.4625
" />
<path d="M55.4013 66.8434
L55.4966 66.7958
" />
<path d="M55.4966 66.7958
L55.6870 66.7958
" />
<path d="M55.6870 66.7958
L55.7823 66.8434
" />
<path d="M55.7823 66.8434
L55.8299 66.8910
" />
<path d="M55.8299 66.8910
L55.8775 66.9863
" />
<path d="M55.8775 66.9863
L55.8775 67.2720
" />
<path d="M55.8775 67.2720
L55.8299 67.3672
" />
<path d="M55.8299 67.3672
L55.7823 67.4149
" />
<path d="M55.7823 67.4149
L55.6870 67.4625
" />
<path d="M55.6870 67.4625
L55.4966 67.4625
" />
<path d="M55.4966 67.4625
L55.4013 67.4149
" />
<path d="M56.3061 67.3672
L56.3537 67.4149
" />
<path d="M56.3537 67.4149
L56.3061 67.4625
" />
<path d="M56.3061 67.4625
L56.2585 67.4149
" />
<path d="M56.2585 67.4149
L56.3061 67.3672
" />
<path d="M56.3061 67.3672
L56.3061 67.4625
" />
<path d="M57.2108 67.4149
L57.1156 67.4625
" />
<path d="M57.1156 67.4625
L56.9251 67.4625
" />
<path d="M56.9251 67.4625
L56.8299 67.4149
" />
<path d="M56.8299 67.4149
L56.7823 67.3672
" />
<path d="M56.7823 67.3672
L56.7347 67.2720
" />
<path d="M56.7347 67.2720
L56.7347 66.9863
" />
<path d="M56.7347 66.9863
L56.7823 66.8910
" />
<path d="M56.7823 66.8910
L56.8299 66.8434
" />
<path d="M56.8299 66.8434
L56.9251 66.7958
" />
<path d="M56.9251 66.7958
L57.1156 66.7958
" />
<path d="M57.1156 66.7958
L57.2108 66.8434
" />
<path d="M57.7823 67.4625
L57.6870 67.4149
" />
<path d="M57.6870 67.4149
L57.6394 67.3672
" />
<path d="M57.6394 67.3672
L57.5918 67.2720
" />
<path d="M57.5918 67.2720
L57.5918 66.9863
" />
<path d="M57.5918 66.9863
L57.6394 66.8910
" />
<path d="M57.6394 66.8910
L57.6870 66.8434
" />
<path d="M57.6870 66.8434
L57.7823 66.7958
" />
<path d="M57.7823 66.7958
L57.9251 66.7958
" />
<path d="M57.9251 66.7958
L58.0204 66.8434
" />
<path d="M58.0204 66.8434
L58.0680 66.8910
" />
<path d="M58.0680 66.8910
L58.1156 66.9863
" />
<path d="M58.1156 66.9863
L58.1156 67.2720
" />
<path d="M58.1156 67.2720
L58.0680 67.3672
" />
<path d="M58.0680 67.3672
L58.0204 67.4149
" />
<path d="M58.0204 67.4149
L57.9251 67.4625
" />
<path d="M57.9251 67.4625
L57.7823 67.4625
" />
<path d="M58.5442 67.4625
L58.5442 66.7958
" />
<path d="M58.5442 66.8910
L58.5918 66.8434
" />
<path d="M58.5918 66.8434
L58.6870 66.7958
" />
<path d="M58.6870 66.7958
L58.8299 66.7958
" />
<path d="M58.8299 66.7958
L58.9251 66.8434
" />
<path d="M58.9251 66.8434
L58.9728 66.9387
" />
<path d="M58.9728 66.9387
L58.9728 67.4625
" />
<path d="M58.9728 66.9387
L59.0204 66.8434
" />
<path d="M59.0204 66.8434
L59.1156 66.7958
" />
<path d="M59.1156 66.7958
L59.2585 66.7958
" />
<path d="M59.2585 66.7958
L59.3537 66.8434
" />
<path d="M59.3537 66.8434
L59.4013 66.9387
" />
<path d="M59.4013 66.9387
L59.4013 67.4625
" />
<path d="M60.5918 66.4149
L59.7347 67.7006
" />
<path d="M60.9251 66.7958
L60.9251 67.7958
" />
<path d="M60.9251 66.8434
L61.0204 66.7958
" />
<path d="M61.0204 66.7958
L61.2108 66.7958
" />
<path d="M61.2108 66.7958
L61.3061 66.8434
" />
<path d="M61.3061 66.8434
L61.3537 66.8910
" />
<path d="M61.3537 66.8910
L61.4013 66.9863
" />
<path d="M61.4013 66.9863
L61.4013 67.2720
" />
<path d="M61.4013 67.2720
L61.3537 67.3672
" />
<path d="M61.3537 67.3672
L61.3061 67.4149
" />
<path d="M61.3061 67.4149
L61.2108 67.4625
" />
<path d="M61.2108 67.4625
L61.0204 67.4625
" />
<path d="M61.0204 67.4625
L60.9251 67.4149
" />
<path d="M61.8299 67.4625
L61.8299 66.7958
" />
<path d="M61.8299 66.4625
L61.7823 66.5101
" />
<path d="M61.7823 66.5101
L61.8299 66.5577
" />
<path d="M61.8299 66.5577
L61.8775 66.5101
" />
<path d="M61.8775 66.5101
L61.8299 66.4625
" />
<path d="M61.8299 66.4625
L61.8299 66.5577
" />
<path d="M62.3061 67.4625
L62.3061 66.7958
" />
<path d="M62.3061 66.8910
L62.3537 66.8434
" />
<path d="M62.3537 66.8434
L62.4489 66.7958
" />
<path d="M62.4489 66.7958
L62.5918 66.7958
" />
<path d="M62.5918 66.7958
L62.6870 66.8434
" />
<path d="M62.6870 66.8434
L62.7347 66.9387
" />
<path d="M62.7347 66.9387
L62.7347 67.4625
" />
<path d="M62.7347 66.9387
L62.7823 66.8434
" />
<path d="M62.7823 66.8434
L62.8775 66.7958
" />
<path d="M62.8775 66.7958
L63.0204 66.7958
" />
<path d="M63.0204 66.7958
L63.1156 66.8434
" />
<path d="M63.1156 66.8434
L63.1632 66.9387
" />
<path d="M63.1632 66.9387
L63.1632 67.4625
" />
<path d="M63.6394 67.4625
L63.6394 66.4625
" />
<path d="M63.6394 66.8434
L63.7347 66.7958
" />
<path d="M63.7347 66.7958
L63.9251 66.7958
" />
<path d="M63.9251 66.7958
L64.0204 66.8434
" />
<path d="M64.0204 66.8434
L64.0680 66.8910
" />
<path d="M64.0680 66.8910
L64.1156 66.9863
" />
<path d="M64.1156 66.9863
L64.1156 67.2720
" />
<path d="M64.1156 67.2720
L64.0680 67.3672
" />
<path d="M64.0680 67.3672
L64.0204 67.4149
" />
<path d="M64.0204 67.4149
L63.9251 67.4625
" />
<path d="M63.9251 67.4625
L63.7347 67.4625
" />
<path d="M63.7347 67.4625
L63.6394 67.4149
" />
<path d="M64.6870 67.4625
L64.5918 67.4149
" />
<path d="M64.5918 67.4149
L64.5442 67.3672
" />
<path d="M64.5442 67.3672
L64.4966 67.2720
" />
<path d="M64.4966 67.2720
L64.4966 66.9863
" />
<path d="M64.4966 66.9863
L64.5442 66.8910
" />
<path d="M64.5442 66.8910
L64.5918 66.8434
" />
<path d="M64.5918 66.8434
L64.6870 66.7958
" />
<path d="M64.6870 66.7958
L64.8299 66.7958
" />
<path d="M64.8299 66.7958
L64.9251 66.8434
" />
<path d="M64.9251 66.8434
L64.9728 66.8910
" />
<path d="M64.9728 66.8910
L65.0204 66.9863
" />
<path d="M65.0204 66.9863
L65.0204 67.2720
" />
<path d="M65.0204 67.2720
L64.9728 67.3672
" />
<path d="M64.9728 67.3672
L64.9251 67.4149
" />
<path d="M64.9251 67.4149
L64.8299 67.4625
" />
<path d="M64.8299 67.4625
L64.6870 67.4625
" />
<path d="M65.4489 67.4625
L65.4489 66.7958
" />
<path d="M65.4489 66.9863
L65.4966 66.8910
" />
<path d="M65.4966 66.8910
L65.5442 66.8434
" />
<path d="M65.5442 66.8434
L65.6394 66.7958
" />
<path d="M65.6394 66.7958
L65.7347 66.7958
" />
<path d="M66.0680 67.4625
L66.0680 66.7958
" />
<path d="M66.0680 66.8910
L66.1156 66.8434
" />
<path d="M66.1156 66.8434
L66.2108 66.7958
" />
<path d="M66.2108 66.7958
L66.3537 66.7958
" />
<path d="M66.3537 66.7958
L66.4489 66.8434
" />
<path d="M66.4489 66.8434
L66.4966 66.9387
" />
<path d="M66.4966 66.9387
L66.4966 67.4625
" />
<path d="M66.4966 66.9387
L66.5442 66.8434
" />
<path d="M66.5442 66.8434
L66.6394 66.7958
" />
<path d="M66.6394 66.7958
L66.7823 66.7958
" />
<path d="M66.7823 66.7958
L66.8775 66.8434
" />
<path d="M66.8775 66.8434
L66.9251 66.9387
" />
<path d="M66.9251 66.9387
L66.9251 67.4625
" />
<path d="M67.8299 67.4625
L67.8299 66.9387
" />
<path d="M67.8299 66.9387
L67.7823 66.8434
" />
<path d="M67.7823 66.8434
L67.6870 66.7958
" />
<path d="M67.6870 66.7958
L67.4966 66.7958
" />
<path d="M67.4966 66.7958
L67.4013 66.8434
" />
<path d="M67.8299 67.4149
L67.7347 67.4625
" />
<path d="M67.7347 67.4625
L67.4966 67.4625
" />
<path d="M67.4966 67.4625
L67.4013 67.4149
" />
<path d="M67.4013 67.4149
L67.3537 67.3196
" />
<path d="M67.3537 67.3196
L67.3537 67.2244
" />
<path d="M67.3537 67.2244
L67.4013 67.1291
" />
<path d="M67.4013 67.1291
L67.4966 67.0815
" />
<path d="M67.4966 67.0815
L67.7347 67.0815
" />
<path d="M67.7347 67.0815
L67.8299 67.0339
" />
<path d="M68.3061 66.7958
L68.3061 67.4625
" />
<path d="M68.3061 66.8910
L68.3537 66.8434
" />
<path d="M68.3537 66.8434
L68.4489 66.7958
" />
<path d="M68.4489 66.7958
L68.5918 66.7958
" />
<path d="M68.5918 66.7958
L68.6870 66.8434
" />
<path d="M68.6870 66.8434
L68.7347 66.9387
" />
<path d="M68.7347 66.9387
L68.7347 67.4625
" />
<path d="M69.9251 66.4149
L69.0680 67.7006
" />
<path d="M70.2585 66.7958
L70.2585 67.4625
" />
<path d="M70.2585 66.8910
L70.3061 66.8434
" />
<path d="M70.3061 66.8434
L70.4013 66.7958
" />
<path d="M70.4013 66.7958
L70.5442 66.7958
" />
<path d="M70.5442 66.7958
L70.6394 66.8434
" />
<path d="M70.6394 66.8434
L70.6870 66.9387
" />
<path d="M70.6870 66.9387
L70.6870 67.4625
" />
<path d="M71.1632 67.4625
L71.1632 66.7958
" />
<path d="M71.1632 66.4625
L71.1156 66.5101
" />
<path d="M71.1156 66.5101
L71.1632 66.5577
" />
<path d="M71.1632 66.5577
L71.2108 66.5101
" />
<path d="M71.2108 66.5101
L71.1632 66.4625
" />
<path d="M71.1632 66.4625
L71.1632 66.5577
" />
<path d="M71.5442 67.4625
L72.0680 66.7958
" />
<path d="M71.5442 66.7958
L72.0680 67.4625
" />
<path d="M72.4489 67.4625
L72.4489 66.7958
" />
<path d="M72.4489 66.4625
L72.4013 66.5101
" />
<path d="M72.4013 66.5101
L72.4489 66.5577
" />
<path d="M72.4489 66.5577
L72.4966 66.5101
" />
<path d="M72.4966 66.5101
L72.4489 66.4625
" />
<path d="M72.4489 66.4625
L72.4489 66.5577
" />
<path d="M73.3061 67.4149
L73.2108 67.4625
" />
<path d="M73.2108 67.4625
L73.0204 67.4625
" />
<path d="M73.0204 67.4625
L72.9251 67.4149
" />
<path d="M72.9251 67.4149
L72.8775 67.3196
" />
<path d="M72.8775 67.3196
L72.8775 66.9387
" />
<path d="M72.8775 66.9387
L72.9251 66.8434
" />
<path d="M72.9251 66.8434
L73.0204 66.7958
" />
<path d="M73.0204 66.7958
L73.2108 66.7958
" />
<path d="M73.2108 66.7958
L73.3061 66.8434
" />
<path d="M73.3061 66.8434
L73.3537 66.9387
" />
<path d="M73.3537 66.9387
L73.3537 67.0339
" />
<path d="M73.3537 67.0339
L72.8775 67.1291
" />
<path d="M73.7823 67.0815
L74.5442 67.0815
" />
<path d="M75.4489 67.4149
L75.3537 67.4625
" />
<path d="M75.3537 67.4625
L75.1632 67.4625
" />
<path d="M75.1632 67.4625
L75.0680 67.4149
" />
<path d="M75.0680 67.4149
L75.0204 67.3672
" />
<path d="M75.0204 67.3672
L74.9728 67.2720
" />
<path d="M74.9728 67.2720
L74.9728 66.9863
" />
<path d="M74.9728 66.9863
L75.0204 66.8910
" />
<path d="M75.0204 66.8910
L75.0680 66.8434
" />
<path d="M75.0680 66.8434
L75.1632 66.7958
" />
<path d="M75.1632 66.7958
L75.3537 66.7958
" />
<path d="M75.3537 66.7958
L75.4489 66.8434
" />
<path d="M76.0204 67.4625
L75.9251 67.4149
" />
<path d="M75.9251 67.4149
L75.8775 67.3196
" />
<path d="M75.8775 67.3196
L75.8775 66.4625
" />
<path d="M76.5442 67.4625
L76.4489 67.4149
" />
<path d="M76.4489 67.4149
L76.4013 67.3672
" />
<path d="M76.4013 67.3672
L76.3537 67.2720
" />
<path d="M76.3537 67.2720
L76.3537 66.9863
" />
<path d="M76.3537 66.9863
L76.4013 66.8910
" />
<path d="M76.4013 66.8910
L76.4489 66.8434
" />
<path d="M76.4489 66.8434
L76.5442 66.7958
" />
<path d="M76.5442 66.7958
L76.6870 66.7958
" />
<path d="M76.6870 66.7958
L76.7823 66.8434
" />
<path d="M76.7823 66.8434
L76.8299 66.8910
" />
<path d="M76.8299 66.8910
L76.8775 66.9863
" />
<path d="M76.8775 66.9863
L76.8775 67.2720
" />
<path d="M76.8775 67.2720
L76.8299 67.3672
" />
<path d="M76.8299 67.3672
L76.7823 67.4149
" />
<path d="M76.7823 67.4149
L76.6870 67.4625
" />
<path d="M76.6870 67.4625
L76.5442 67.4625
" />
<path d="M77.7347 67.4149
L77.6394 67.4625
" />
<path d="M77.6394 67.4625
L77.4489 67.4625
" />
<path d="M77.4489 67.4625
L77.3537 67.4149
" />
<path d="M77.3537 67.4149
L77.3061 67.3672
" />
<path d="M77.3061 67.3672
L77.2585 67.2720
" />
<path d="M77.2585 67.2720
L77.2585 66.9863
" />
<path d="M77.2585 66.9863
L77.3061 66.8910
" />
<path d="M77.3061 66.8910
L77.3537 66.8434
" />
<path d="M77.3537 66.8434
L77.4489 66.7958
" />
<path d="M77.4489 66.7958
L77.6394 66.7958
" />
<path d="M77.6394 66.7958
L77.7347 66.8434
" />
<path d="M78.1632 67.4625
L78.1632 66.4625
" />
<path d="M78.2585 67.0815
L78.5442 67.4625
" />
<path d="M78.5442 66.7958
L78.1632 67.1768
" />
</g><text x="45.0022" y="69.2000"
textLength="0.3000" font-size="1.3333" lengthAdjust="spacingAndGlyphs"
text-anchor="start" opacity="0" stroke-opacity="0"></text>
<g class="stroked-text"><desc></desc>
</g></g>
<g style="fill:none; 
stroke:#000000; stroke-width:0.1500; stroke-opacity:1; 
stroke-linecap:round; stroke-linejoin:round;">
<text x="169.0022" y="73.3000"
textLength="1.9643" font-size="1.3333" lengthAdjust="spacingAndGlyphs"
text-anchor="middle" opacity="0" stroke-opacity="0">J1</text>
<g class="stroked-text"><desc>J1</desc>
<path d="M168.6689 72.2548
L168.6689 72.9691
" />
<path d="M168.6689 72.9691
L168.6212 73.1120
" />
<path d="M168.6212 73.1120
L168.5260 73.2072
" />
<path d="M168.5260 73.2072
L168.3832 73.2548
" />
<path d="M168.3832 73.2548
L168.2879 73.2548
" />
<path d="M169.6689 73.2548
L169.0974 73.2548
" />
<path d="M169.3832 73.2548
L169.3832 72.2548
" />
<path d="M169.3832 72.2548
L169.2879 72.3977
" />
<path d="M169.2879 72.3977
L169.1927 72.4929
" />
<path d="M169.1927 72.4929
L169.0974 72.5405
" />
</g></g>
<g style="fill:none; 
stroke:#000000; stroke-width:0.1200; stroke-opacity:1; 
stroke-linecap:round; stroke-linejoin:round;">
<path d="M173.6822 61.8440
L163.4022 61.8440
" />
<path d="M173.6822 64.8040
L163.4022 64.8040
" />
<path d="M173.6822 69.7050
L163.4022 69.7050
" />
<path d="M173.6822 71.2050
L163.4022 71.2050
" />
<path d="M173.6822 71.7650
L173.6822 61.8440
" />
<path d="M173.6822 71.7650
L163.4022 71.7650
" />
<path d="M172.3102 66.0820
L172.3572 66.0360
" />
<path d="M172.1172 65.8660
L172.1522 65.8300
" />
<path d="M170.0132 68.3790
L170.0482 68.3440
" />
<path d="M169.8082 68.1740
L169.8552 68.1280
" />
<path d="M163.6622 72.0050
L163.1622 72.0050
" />
<path d="M163.4022 71.7650
L163.4022 61.8440
" />
<path d="M163.1622 72.0050
L163.1622 71.2650
" />
<path d="M167.5372 67.7890 A1.6805 1.6805 0.0 0 0 167.5376 66.4220" />
<path d="M166.6862 65.5700 A1.6805 1.6805 0.0 0 0 165.3192 65.5696" />
<path d="M166.0022 68.7850 A1.6800 1.6800 0.0 0 0 166.6855 68.6398" />
<path d="M165.3182 68.6400 A1.6805 1.6805 0.0 0 0 166.0310 68.7853" />
<path d="M164.4672 66.4210 A1.6805 1.6805 0.0 0 0 164.4668 67.7880" />
<circle cx="171.0822" cy="67.1050" r="1.6800" /> 
</g> 
</svg>
