<?xml version='1.0' encoding='ASCII' standalone='yes'?>
<svg xmlns="http://www.w3.org/2000/svg" version="1.1" width="297.0022mm" height="210.0072mm" viewBox="0.0000 0.0000 297.0022 210.0072">
            <title>Picture generated by PcbDraw </title>
            <desc>Picture generated by PcbDraw</desc>
        <defs><clipPath id="cut-off"><path d=" M 76.0 116.0 L 257.0 116.0 A 4 4 0 0 0 261.0 112.0 L 261.0 65.0 A 4 4 0 0 0 257.0 61.0 L 76.0 61.0 A 4 4 0 0 0 72.0 65.0 L 72.0 112.0 A 4 4 0 0 0 76.0 116.0 " style="fill-rule: evenodd;"/></clipPath><mask id="pads-mask-silkscreen"><rect x="70.0" y="59.0" width="194.0" height="59.0" fill="white"/><g style="fill:#000000; fill-opacity:1.0000;stroke:#000000; stroke-opacity:1.0000; stroke-linecap:round; stroke-linejoin:round;" transform="translate(0 0) scale(1 1)">
<path style="fill:#000000; fill-opacity:1.0000; stroke:none;fill-rule:evenodd;" d="M 167.4000,86.1800 169.0000,86.1800 169.0000,87.7800 167.4000,87.7800 Z"/> 
</g>
<g style="fill:#000000; fill-opacity:1.0000; stroke:none;">
<circle cx="165.6600" cy="86.9800" r="0.8000"/> 
<circle cx="163.1200" cy="86.9800" r="0.8000"/> 
<circle cx="160.5800" cy="86.9800" r="0.8000"/> 
<circle cx="158.0400" cy="86.9800" r="0.8000"/> 
<circle cx="155.5000" cy="86.9800" r="0.8000"/> 
<circle cx="152.9600" cy="86.9800" r="0.8000"/> 
<circle cx="150.4200" cy="86.9800" r="0.8000"/> 
<circle cx="150.4200" cy="94.6000" r="0.8000"/> 
<circle cx="152.9600" cy="94.6000" r="0.8000"/> 
<circle cx="155.5000" cy="94.6000" r="0.8000"/> 
<circle cx="158.0400" cy="94.6000" r="0.8000"/> 
<circle cx="160.5800" cy="94.6000" r="0.8000"/> 
<circle cx="163.1200" cy="94.6000" r="0.8000"/> 
<circle cx="165.6600" cy="94.6000" r="0.8000"/> 
<circle cx="168.2000" cy="94.6000" r="0.8000"/> 
<circle cx="108.1200" cy="85.0000" r="0.8500"/> 
</g>
<g style="fill:#000000; fill-opacity:1.0000; stroke:none;">
<circle cx="105.6200" cy="82.5000" r="0.8500"/> 
</g>
<g style="fill:#000000; fill-opacity:1.0000; stroke:none;">
<circle cx="103.1200" cy="85.0000" r="0.8500"/> 
</g>
<g style="fill:#000000; fill-opacity:1.0000; stroke:none;">
<circle cx="116.1200" cy="66.5000" r="0.8000"/> 
</g>
<g style="fill:#000000; fill-opacity:1.0000; stroke:none;">
<circle cx="116.1200" cy="74.1200" r="0.8000"/> 
<path style="fill:#000000; fill-opacity:1.0000; stroke:none;fill-rule:evenodd;" d="M 117.3200,88.7000 114.9200,88.7000 114.9200,86.3000 117.3200,86.3000 Z"/> 
<circle cx="116.1200" cy="77.3400" r="1.2000"/> 
<circle cx="89.0927" cy="102.9846" r="0.6731"/> 
</g>
<g style="fill:#000000; fill-opacity:1.0000; stroke:none;">
<circle cx="78.9073" cy="102.9846" r="0.6731"/> 
</g>
<g style="fill:#000000; fill-opacity:1.0000; stroke:none;">
<circle cx="77.8557" cy="105.7558" r="0.6731"/> 
</g>
<g style="fill:#000000; fill-opacity:1.0000; stroke:none;">
<circle cx="78.2139" cy="108.6946" r="0.6731"/> 
</g>
<g style="fill:#000000; fill-opacity:1.0000; stroke:none;">
<circle cx="79.8954" cy="111.1330" r="0.6731"/> 
</g>
<g style="fill:#000000; fill-opacity:1.0000; stroke:none;">
<circle cx="82.5192" cy="112.5096" r="0.6731"/> 
</g>
<g style="fill:#000000; fill-opacity:1.0000; stroke:none;">
<circle cx="85.4808" cy="112.5096" r="0.6731"/> 
</g>
<g style="fill:#000000; fill-opacity:1.0000; stroke:none;">
<circle cx="88.1046" cy="111.1330" r="0.6731"/> 
</g>
<g style="fill:#000000; fill-opacity:1.0000; stroke:none;">
<circle cx="89.7861" cy="108.6946" r="0.6731"/> 
</g>
<g style="fill:#000000; fill-opacity:1.0000; stroke:none;">
<circle cx="90.1443" cy="105.7558" r="0.6731"/> 
</g>
<g style="fill:#000000; fill-opacity:1.0000; stroke:none;">
<circle cx="84.0000" cy="100.3126" r="0.6731"/> 
</g>
<g style="fill:#000000; fill-opacity:1.0000; stroke:none;">
<circle cx="81.1247" cy="101.0212" r="0.6731"/> 
</g>
<g style="fill:#000000; fill-opacity:1.0000; stroke:none;">
<circle cx="86.8753" cy="101.0212" r="0.6731"/> 
</g>
<g style="fill:#000000; fill-opacity:1.0000; stroke:none;">
<circle cx="235.2000" cy="82.6000" r="0.8000"/> 
</g>
<g style="fill:#000000; fill-opacity:1.0000; stroke:none;">
<circle cx="240.2000" cy="82.6000" r="0.8000"/> 
</g>
<g style="fill:#000000; fill-opacity:1.0000; stroke:none;">
<circle cx="115.0927" cy="102.9846" r="0.6731"/> 
</g>
<g style="fill:#000000; fill-opacity:1.0000; stroke:none;">
<circle cx="104.9073" cy="102.9846" r="0.6731"/> 
</g>
<g style="fill:#000000; fill-opacity:1.0000; stroke:none;">
<circle cx="103.8557" cy="105.7558" r="0.6731"/> 
</g>
<g style="fill:#000000; fill-opacity:1.0000; stroke:none;">
<circle cx="104.2139" cy="108.6946" r="0.6731"/> 
</g>
<g style="fill:#000000; fill-opacity:1.0000; stroke:none;">
<circle cx="105.8954" cy="111.1330" r="0.6731"/> 
</g>
<g style="fill:#000000; fill-opacity:1.0000; stroke:none;">
<circle cx="108.5192" cy="112.5096" r="0.6731"/> 
</g>
<g style="fill:#000000; fill-opacity:1.0000; stroke:none;">
<circle cx="111.4808" cy="112.5096" r="0.6731"/> 
</g>
<g style="fill:#000000; fill-opacity:1.0000; stroke:none;">
<circle cx="114.1046" cy="111.1330" r="0.6731"/> 
</g>
<g style="fill:#000000; fill-opacity:1.0000; stroke:none;">
<circle cx="115.7861" cy="108.6946" r="0.6731"/> 
</g>
<g style="fill:#000000; fill-opacity:1.0000; stroke:none;">
<circle cx="116.1443" cy="105.7558" r="0.6731"/> 
</g>
<g style="fill:#000000; fill-opacity:1.0000; stroke:none;">
<circle cx="110.0000" cy="100.3126" r="0.6731"/> 
</g>
<g style="fill:#000000; fill-opacity:1.0000; stroke:none;">
<circle cx="107.1247" cy="101.0212" r="0.6731"/> 
</g>
<g style="fill:#000000; fill-opacity:1.0000; stroke:none;">
<circle cx="112.8753" cy="101.0212" r="0.6731"/> 
</g>
<g style="fill:#000000; fill-opacity:1.0000; stroke:none;">
<circle cx="197.6678" cy="98.8322" r="0.8000"/> 
</g>
<g style="fill:#000000; fill-opacity:1.0000; stroke:none;">
<circle cx="194.1322" cy="102.3678" r="0.8000"/> 
</g>
<g style="fill:#000000; fill-opacity:1.0000; stroke:none;">
<circle cx="112.1200" cy="74.1200" r="0.8000"/> 
</g>
<g style="fill:#000000; fill-opacity:1.0000; stroke:none;">
<circle cx="112.1200" cy="66.5000" r="0.8000"/> 
<circle cx="89.6200" cy="66.5000" r="1.3000"/> 
</g>
<g style="fill:#000000; fill-opacity:1.0000; stroke:none;">
<circle cx="94.6200" cy="66.5000" r="1.3000"/> 
<path style="fill:#000000; fill-opacity:1.0000; stroke:none;fill-rule:evenodd;" d="M 82.3200,65.7000 83.9200,65.7000 83.9200,67.3000 82.3200,67.3000 Z"/> 
</g>
<g style="fill:#000000; fill-opacity:1.0000; stroke:none;">
<circle cx="83.1200" cy="69.0000" r="0.8000"/> 
<path style="fill:#000000; fill-opacity:1.0000; stroke:none;fill-rule:evenodd;" d="M 177.9000,92.3500 175.9000,92.3500 175.9000,90.3500 177.9000,90.3500 Z"/> 
</g>
<g style="fill:#000000; fill-opacity:1.0000; stroke:none;">
<circle cx="176.9000" cy="71.3500" r="1.0000"/> 
</g>
<g style="fill:#000000; fill-opacity:1.0000; stroke:none;">
<circle cx="77.6200" cy="82.5000" r="0.8000"/> 
</g>
<g style="fill:#000000; fill-opacity:1.0000; stroke:none;">
<circle cx="75.1200" cy="82.5000" r="0.8000"/> 
</g>
<g style="fill:#000000; fill-opacity:1.0000; stroke:none;">
<circle cx="208.0000" cy="113.5000" r="0.8000"/> 
</g>
<g style="fill:#000000; fill-opacity:1.0000; stroke:none;">
<circle cx="208.0000" cy="105.8800" r="0.8000"/> 
<path style="fill:#000000; fill-opacity:1.0000; stroke:none;fill-rule:evenodd;" d="M 139.4529,87.9829 139.8206,88.3506 138.7599,89.4112 138.3922,89.0435 Z"/> 
<path style="fill:#000000; fill-opacity:1.0000; stroke:none;fill-rule:evenodd;" d="M 138.8872,87.4172 139.2549,87.7849 138.1943,88.8455 137.8266,88.4779 Z"/> 
<path style="fill:#000000; fill-opacity:1.0000; stroke:none;fill-rule:evenodd;" d="M 138.3215,86.8515 138.6892,87.2192 137.6286,88.2799 137.2609,87.9122 Z"/> 
<path style="fill:#000000; fill-opacity:1.0000; stroke:none;fill-rule:evenodd;" d="M 137.7558,86.2858 138.1235,86.6535 137.0629,87.7142 136.6952,87.3465 Z"/> 
<path style="fill:#000000; fill-opacity:1.0000; stroke:none;fill-rule:evenodd;" d="M 137.1902,85.7201 137.5579,86.0878 136.4972,87.1485 136.1295,86.7808 Z"/> 
<path style="fill:#000000; fill-opacity:1.0000; stroke:none;fill-rule:evenodd;" d="M 136.6245,85.1545 136.9922,85.5221 135.9315,86.5828 135.5638,86.2151 Z"/> 
<path style="fill:#000000; fill-opacity:1.0000; stroke:none;fill-rule:evenodd;" d="M 136.0588,84.5888 136.4265,84.9565 135.3658,86.0171 134.9981,85.6494 Z"/> 
<path style="fill:#000000; fill-opacity:1.0000; stroke:none;fill-rule:evenodd;" d="M 135.4931,84.0231 135.8608,84.3908 134.8001,85.4514 134.4324,85.0837 Z"/> 
<path style="fill:#000000; fill-opacity:1.0000; stroke:none;fill-rule:evenodd;" d="M 134.9274,83.4574 135.2951,83.8251 134.2345,84.8858 133.8668,84.5181 Z"/> 
<path style="fill:#000000; fill-opacity:1.0000; stroke:none;fill-rule:evenodd;" d="M 134.3617,82.8917 134.7294,83.2594 133.6688,84.3201 133.3011,83.9524 Z"/> 
<path style="fill:#000000; fill-opacity:1.0000; stroke:none;fill-rule:evenodd;" d="M 133.7961,82.3260 134.1637,82.6937 133.1031,83.7544 132.7354,83.3867 Z"/> 
<path style="fill:#000000; fill-opacity:1.0000; stroke:none;fill-rule:evenodd;" d="M 130.2039,82.3260 131.2646,83.3867 130.8969,83.7544 129.8363,82.6937 Z"/> 
<path style="fill:#000000; fill-opacity:1.0000; stroke:none;fill-rule:evenodd;" d="M 129.6383,82.8917 130.6989,83.9524 130.3312,84.3201 129.2706,83.2594 Z"/> 
<path style="fill:#000000; fill-opacity:1.0000; stroke:none;fill-rule:evenodd;" d="M 129.0726,83.4574 130.1332,84.5181 129.7655,84.8858 128.7049,83.8251 Z"/> 
<path style="fill:#000000; fill-opacity:1.0000; stroke:none;fill-rule:evenodd;" d="M 128.5069,84.0231 129.5676,85.0837 129.1999,85.4514 128.1392,84.3908 Z"/> 
<path style="fill:#000000; fill-opacity:1.0000; stroke:none;fill-rule:evenodd;" d="M 127.9412,84.5888 129.0019,85.6494 128.6342,86.0171 127.5735,84.9565 Z"/> 
<path style="fill:#000000; fill-opacity:1.0000; stroke:none;fill-rule:evenodd;" d="M 127.3755,85.1545 128.4362,86.2151 128.0685,86.5828 127.0078,85.5221 Z"/> 
<path style="fill:#000000; fill-opacity:1.0000; stroke:none;fill-rule:evenodd;" d="M 126.8098,85.7201 127.8705,86.7808 127.5028,87.1485 126.4421,86.0878 Z"/> 
<path style="fill:#000000; fill-opacity:1.0000; stroke:none;fill-rule:evenodd;" d="M 126.2442,86.2858 127.3048,87.3465 126.9371,87.7142 125.8765,86.6535 Z"/> 
<path style="fill:#000000; fill-opacity:1.0000; stroke:none;fill-rule:evenodd;" d="M 125.6785,86.8515 126.7391,87.9122 126.3714,88.2799 125.3108,87.2192 Z"/> 
<path style="fill:#000000; fill-opacity:1.0000; stroke:none;fill-rule:evenodd;" d="M 125.1128,87.4172 126.1734,88.4779 125.8057,88.8455 124.7451,87.7849 Z"/> 
<path style="fill:#000000; fill-opacity:1.0000; stroke:none;fill-rule:evenodd;" d="M 124.5471,87.9829 125.6078,89.0435 125.2401,89.4112 124.1794,88.3506 Z"/> 
<path style="fill:#000000; fill-opacity:1.0000; stroke:none;fill-rule:evenodd;" d="M 125.2401,90.8820 125.6078,91.2497 124.5471,92.3104 124.1794,91.9427 Z"/> 
<path style="fill:#000000; fill-opacity:1.0000; stroke:none;fill-rule:evenodd;" d="M 125.8057,91.4477 126.1734,91.8154 125.1128,92.8761 124.7451,92.5084 Z"/> 
<path style="fill:#000000; fill-opacity:1.0000; stroke:none;fill-rule:evenodd;" d="M 126.3714,92.0134 126.7391,92.3811 125.6785,93.4417 125.3108,93.0740 Z"/> 
<path style="fill:#000000; fill-opacity:1.0000; stroke:none;fill-rule:evenodd;" d="M 126.9371,92.5791 127.3048,92.9468 126.2442,94.0074 125.8765,93.6397 Z"/> 
<path style="fill:#000000; fill-opacity:1.0000; stroke:none;fill-rule:evenodd;" d="M 127.5028,93.1448 127.8705,93.5125 126.8098,94.5731 126.4421,94.2054 Z"/> 
<path style="fill:#000000; fill-opacity:1.0000; stroke:none;fill-rule:evenodd;" d="M 128.0685,93.7104 128.4362,94.0781 127.3755,95.1388 127.0078,94.7711 Z"/> 
<path style="fill:#000000; fill-opacity:1.0000; stroke:none;fill-rule:evenodd;" d="M 128.6342,94.2761 129.0019,94.6438 127.9412,95.7045 127.5735,95.3368 Z"/> 
<path style="fill:#000000; fill-opacity:1.0000; stroke:none;fill-rule:evenodd;" d="M 129.1999,94.8418 129.5676,95.2095 128.5069,96.2702 128.1392,95.9025 Z"/> 
<path style="fill:#000000; fill-opacity:1.0000; stroke:none;fill-rule:evenodd;" d="M 129.7655,95.4075 130.1332,95.7752 129.0726,96.8359 128.7049,96.4682 Z"/> 
<path style="fill:#000000; fill-opacity:1.0000; stroke:none;fill-rule:evenodd;" d="M 130.3312,95.9732 130.6989,96.3409 129.6383,97.4015 129.2706,97.0338 Z"/> 
<path style="fill:#000000; fill-opacity:1.0000; stroke:none;fill-rule:evenodd;" d="M 130.8969,96.5389 131.2646,96.9066 130.2039,97.9672 129.8363,97.5995 Z"/> 
<path style="fill:#000000; fill-opacity:1.0000; stroke:none;fill-rule:evenodd;" d="M 133.1031,96.5389 134.1637,97.5995 133.7961,97.9672 132.7354,96.9066 Z"/> 
<path style="fill:#000000; fill-opacity:1.0000; stroke:none;fill-rule:evenodd;" d="M 133.6688,95.9732 134.7294,97.0338 134.3617,97.4015 133.3011,96.3409 Z"/> 
<path style="fill:#000000; fill-opacity:1.0000; stroke:none;fill-rule:evenodd;" d="M 134.2345,95.4075 135.2951,96.4682 134.9274,96.8359 133.8668,95.7752 Z"/> 
<path style="fill:#000000; fill-opacity:1.0000; stroke:none;fill-rule:evenodd;" d="M 134.8001,94.8418 135.8608,95.9025 135.4931,96.2702 134.4324,95.2095 Z"/> 
<path style="fill:#000000; fill-opacity:1.0000; stroke:none;fill-rule:evenodd;" d="M 135.3658,94.2761 136.4265,95.3368 136.0588,95.7045 134.9981,94.6438 Z"/> 
<path style="fill:#000000; fill-opacity:1.0000; stroke:none;fill-rule:evenodd;" d="M 135.9315,93.7104 136.9922,94.7711 136.6245,95.1388 135.5638,94.0781 Z"/> 
<path style="fill:#000000; fill-opacity:1.0000; stroke:none;fill-rule:evenodd;" d="M 136.4972,93.1448 137.5579,94.2054 137.1902,94.5731 136.1295,93.5125 Z"/> 
<path style="fill:#000000; fill-opacity:1.0000; stroke:none;fill-rule:evenodd;" d="M 137.0629,92.5791 138.1235,93.6397 137.7558,94.0074 136.6952,92.9468 Z"/> 
<path style="fill:#000000; fill-opacity:1.0000; stroke:none;fill-rule:evenodd;" d="M 137.6286,92.0134 138.6892,93.0740 138.3215,93.4417 137.2609,92.3811 Z"/> 
<path style="fill:#000000; fill-opacity:1.0000; stroke:none;fill-rule:evenodd;" d="M 138.1943,91.4477 139.2549,92.5084 138.8872,92.8761 137.8266,91.8154 Z"/> 
<path style="fill:#000000; fill-opacity:1.0000; stroke:none;fill-rule:evenodd;" d="M 138.7599,90.8820 139.8206,91.9427 139.4529,92.3104 138.3922,91.2497 Z"/> 
<circle cx="232.5800" cy="72.1000" r="0.8000"/> 
</g>
<g style="fill:#000000; fill-opacity:1.0000; stroke:none;">
<circle cx="240.2000" cy="72.1000" r="0.8000"/> 
<circle cx="165.0000" cy="113.5000" r="0.8000"/> 
</g>
<g style="fill:#000000; fill-opacity:1.0000; stroke:none;">
<circle cx="165.0000" cy="105.8800" r="0.8000"/> 
<path style="fill:#000000; fill-opacity:1.0000; stroke:none;fill-rule:evenodd;" d="M 223.8000,69.8000 225.4000,69.8000 225.4000,71.4000 223.8000,71.4000 Z"/> 
<circle cx="222.0600" cy="70.6000" r="0.8000"/> 
<circle cx="219.5200" cy="70.6000" r="0.8000"/> 
<circle cx="216.9800" cy="70.6000" r="0.8000"/> 
<circle cx="214.4400" cy="70.6000" r="0.8000"/> 
<circle cx="211.9000" cy="70.6000" r="0.8000"/> 
<circle cx="209.3600" cy="70.6000" r="0.8000"/> 
<circle cx="206.8200" cy="70.6000" r="0.8000"/> 
<circle cx="204.2800" cy="70.6000" r="0.8000"/> 
<circle cx="201.7400" cy="70.6000" r="0.8000"/> 
<circle cx="199.2000" cy="70.6000" r="0.8000"/> 
<circle cx="196.6600" cy="70.6000" r="0.8000"/> 
<circle cx="194.1200" cy="70.6000" r="0.8000"/> 
<circle cx="191.5800" cy="70.6000" r="0.8000"/> 
<circle cx="191.5800" cy="78.2200" r="0.8000"/> 
<circle cx="194.1200" cy="78.2200" r="0.8000"/> 
<circle cx="196.6600" cy="78.2200" r="0.8000"/> 
<circle cx="199.2000" cy="78.2200" r="0.8000"/> 
<circle cx="201.7400" cy="78.2200" r="0.8000"/> 
<circle cx="204.2800" cy="78.2200" r="0.8000"/> 
<circle cx="206.8200" cy="78.2200" r="0.8000"/> 
<circle cx="209.3600" cy="78.2200" r="0.8000"/> 
<circle cx="211.9000" cy="78.2200" r="0.8000"/> 
<circle cx="214.4400" cy="78.2200" r="0.8000"/> 
<circle cx="216.9800" cy="78.2200" r="0.8000"/> 
<circle cx="219.5200" cy="78.2200" r="0.8000"/> 
<circle cx="222.0600" cy="78.2200" r="0.8000"/> 
<circle cx="224.6000" cy="78.2200" r="0.8000"/> 
<circle cx="251.2500" cy="89.6995" r="0.8000"/> 
</g>
<g style="fill:#000000; fill-opacity:1.0000; stroke:none;">
<circle cx="258.8700" cy="89.6995" r="0.8000"/> 
<circle cx="82.6200" cy="90.0000" r="0.8000"/> 
</g>
<g style="fill:#000000; fill-opacity:1.0000; stroke:none;">
<circle cx="75.0000" cy="90.0000" r="0.8000"/> 
<circle cx="133.5875" cy="103.5000" r="0.5537"/> 
</g>
<g style="fill:#000000; fill-opacity:1.0000; stroke:none;">
<circle cx="130.4125" cy="103.5000" r="0.5537"/> 
<path style="fill:#000000; fill-opacity:1.0000; stroke:none;fill-rule:evenodd;" d="M 156.5500,73.3450 156.5614,73.2876 156.5939,73.2389 156.6426,73.2064 156.7000,73.1950 158.3500,73.1950 158.4074,73.2064 158.4561,73.2389 158.4886,73.2876 158.5000,73.3450 158.5000,73.6450 158.4886,73.7024 158.4561,73.7511 158.4074,73.7836 158.3500,73.7950 156.7000,73.7950 156.6426,73.7836 156.5939,73.7511 156.5614,73.7024 156.5500,73.6450 Z"/> 
<path style="fill:#000000; fill-opacity:1.0000; stroke:none;fill-rule:evenodd;" d="M 156.5500,74.6150 156.5614,74.5576 156.5939,74.5089 156.6426,74.4764 156.7000,74.4650 158.3500,74.4650 158.4074,74.4764 158.4561,74.5089 158.4886,74.5576 158.5000,74.6150 158.5000,74.9150 158.4886,74.9724 158.4561,75.0211 158.4074,75.0536 158.3500,75.0650 156.7000,75.0650 156.6426,75.0536 156.5939,75.0211 156.5614,74.9724 156.5500,74.9150 Z"/> 
<path style="fill:#000000; fill-opacity:1.0000; stroke:none;fill-rule:evenodd;" d="M 156.5500,75.8850 156.5614,75.8276 156.5939,75.7789 156.6426,75.7464 156.7000,75.7350 158.3500,75.7350 158.4074,75.7464 158.4561,75.7789 158.4886,75.8276 158.5000,75.8850 158.5000,76.1850 158.4886,76.2424 158.4561,76.2911 158.4074,76.3236 158.3500,76.3350 156.7000,76.3350 156.6426,76.3236 156.5939,76.2911 156.5614,76.2424 156.5500,76.1850 Z"/> 
<path style="fill:#000000; fill-opacity:1.0000; stroke:none;fill-rule:evenodd;" d="M 156.5500,77.1550 156.5614,77.0976 156.5939,77.0489 156.6426,77.0164 156.7000,77.0050 158.3500,77.0050 158.4074,77.0164 158.4561,77.0489 158.4886,77.0976 158.5000,77.1550 158.5000,77.4550 158.4886,77.5124 158.4561,77.5611 158.4074,77.5936 158.3500,77.6050 156.7000,77.6050 156.6426,77.5936 156.5939,77.5611 156.5614,77.5124 156.5500,77.4550 Z"/> 
<path style="fill:#000000; fill-opacity:1.0000; stroke:none;fill-rule:evenodd;" d="M 161.5000,77.1550 161.5114,77.0976 161.5439,77.0489 161.5926,77.0164 161.6500,77.0050 163.3000,77.0050 163.3574,77.0164 163.4061,77.0489 163.4386,77.0976 163.4500,77.1550 163.4500,77.4550 163.4386,77.5124 163.4061,77.5611 163.3574,77.5936 163.3000,77.6050 161.6500,77.6050 161.5926,77.5936 161.5439,77.5611 161.5114,77.5124 161.5000,77.4550 Z"/> 
<path style="fill:#000000; fill-opacity:1.0000; stroke:none;fill-rule:evenodd;" d="M 161.5000,75.8850 161.5114,75.8276 161.5439,75.7789 161.5926,75.7464 161.6500,75.7350 163.3000,75.7350 163.3574,75.7464 163.4061,75.7789 163.4386,75.8276 163.4500,75.8850 163.4500,76.1850 163.4386,76.2424 163.4061,76.2911 163.3574,76.3236 163.3000,76.3350 161.6500,76.3350 161.5926,76.3236 161.5439,76.2911 161.5114,76.2424 161.5000,76.1850 Z"/> 
<path style="fill:#000000; fill-opacity:1.0000; stroke:none;fill-rule:evenodd;" d="M 161.5000,74.6150 161.5114,74.5576 161.5439,74.5089 161.5926,74.4764 161.6500,74.4650 163.3000,74.4650 163.3574,74.4764 163.4061,74.5089 163.4386,74.5576 163.4500,74.6150 163.4500,74.9150 163.4386,74.9724 163.4061,75.0211 163.3574,75.0536 163.3000,75.0650 161.6500,75.0650 161.5926,75.0536 161.5439,75.0211 161.5114,74.9724 161.5000,74.9150 Z"/> 
<path style="fill:#000000; fill-opacity:1.0000; stroke:none;fill-rule:evenodd;" d="M 161.5000,73.3450 161.5114,73.2876 161.5439,73.2389 161.5926,73.2064 161.6500,73.1950 163.3000,73.1950 163.3574,73.2064 163.4061,73.2389 163.4386,73.2876 163.4500,73.3450 163.4500,73.6450 163.4386,73.7024 163.4061,73.7511 163.3574,73.7836 163.3000,73.7950 161.6500,73.7950 161.5926,73.7836 161.5439,73.7511 161.5114,73.7024 161.5000,73.6450 Z"/> 
</g>
<g style="fill:#000000; fill-opacity:1.0000; stroke:none;">
<circle cx="232.5800" cy="75.6000" r="0.8000"/> 
</g>
<g style="fill:#000000; fill-opacity:1.0000; stroke:none;">
<circle cx="240.2000" cy="75.6000" r="0.8000"/> 
<path style="fill:#000000; fill-opacity:1.0000; stroke:none;fill-rule:evenodd;" d="M 85.3700,85.4750 86.8700,85.4750 86.8700,86.5250 85.3700,86.5250 Z"/> 
</g>
<g style="fill:none;  stroke:#000000; stroke-width:1.0500; stroke-opacity:1;  stroke-linecap:round; stroke-linejoin:round;">
<path d="M86.3450 87.2700 L85.8950 87.2700 "/>
<path d="M86.3450 88.5400 L85.8950 88.5400 "/>
</g>
<g style="fill:#000000; fill-opacity:1.0000; stroke:none;">
<circle cx="99.0000" cy="105.8100" r="0.8000"/> 
</g>
<g style="fill:#000000; fill-opacity:1.0000; stroke:none;">
<circle cx="99.0000" cy="98.1900" r="0.8000"/> 
<circle cx="228.7800" cy="76.6000" r="0.8000"/> 
</g>
<g style="fill:#000000; fill-opacity:1.0000; stroke:none;">
<circle cx="228.7800" cy="71.6000" r="0.8000"/> 
</g>
<g style="fill:#000000; fill-opacity:1.0000; stroke:none;">
<circle cx="235.0000" cy="105.8100" r="0.8000"/> 
</g>
<g style="fill:#000000; fill-opacity:1.0000; stroke:none;">
<circle cx="235.0000" cy="98.1900" r="0.8000"/> 
<circle cx="185.0927" cy="102.9846" r="0.6731"/> 
</g>
<g style="fill:#000000; fill-opacity:1.0000; stroke:none;">
<circle cx="174.9073" cy="102.9846" r="0.6731"/> 
</g>
<g style="fill:#000000; fill-opacity:1.0000; stroke:none;">
<circle cx="173.8557" cy="105.7558" r="0.6731"/> 
</g>
<g style="fill:#000000; fill-opacity:1.0000; stroke:none;">
<circle cx="174.2139" cy="108.6946" r="0.6731"/> 
</g>
<g style="fill:#000000; fill-opacity:1.0000; stroke:none;">
<circle cx="175.8954" cy="111.1330" r="0.6731"/> 
</g>
<g style="fill:#000000; fill-opacity:1.0000; stroke:none;">
<circle cx="178.5192" cy="112.5096" r="0.6731"/> 
</g>
<g style="fill:#000000; fill-opacity:1.0000; stroke:none;">
<circle cx="181.4808" cy="112.5096" r="0.6731"/> 
</g>
<g style="fill:#000000; fill-opacity:1.0000; stroke:none;">
<circle cx="184.1046" cy="111.1330" r="0.6731"/> 
</g>
<g style="fill:#000000; fill-opacity:1.0000; stroke:none;">
<circle cx="185.7861" cy="108.6946" r="0.6731"/> 
</g>
<g style="fill:#000000; fill-opacity:1.0000; stroke:none;">
<circle cx="186.1443" cy="105.7558" r="0.6731"/> 
</g>
<g style="fill:#000000; fill-opacity:1.0000; stroke:none;">
<circle cx="180.0000" cy="100.3126" r="0.6731"/> 
</g>
<g style="fill:#000000; fill-opacity:1.0000; stroke:none;">
<circle cx="177.1247" cy="101.0212" r="0.6731"/> 
</g>
<g style="fill:#000000; fill-opacity:1.0000; stroke:none;">
<circle cx="182.8753" cy="101.0212" r="0.6731"/> 
<path style="fill:#000000; fill-opacity:1.0000; stroke:none;fill-rule:evenodd;" d="M 209.4529,87.8363 209.8206,88.2039 208.7599,89.2646 208.3922,88.8969 Z"/> 
<path style="fill:#000000; fill-opacity:1.0000; stroke:none;fill-rule:evenodd;" d="M 208.8872,87.2706 209.2549,87.6383 208.1943,88.6989 207.8266,88.3312 Z"/> 
<path style="fill:#000000; fill-opacity:1.0000; stroke:none;fill-rule:evenodd;" d="M 208.3215,86.7049 208.6892,87.0726 207.6286,88.1332 207.2609,87.7655 Z"/> 
<path style="fill:#000000; fill-opacity:1.0000; stroke:none;fill-rule:evenodd;" d="M 207.7558,86.1392 208.1235,86.5069 207.0629,87.5676 206.6952,87.1999 Z"/> 
<path style="fill:#000000; fill-opacity:1.0000; stroke:none;fill-rule:evenodd;" d="M 207.1902,85.5735 207.5579,85.9412 206.4972,87.0019 206.1295,86.6342 Z"/> 
<path style="fill:#000000; fill-opacity:1.0000; stroke:none;fill-rule:evenodd;" d="M 206.6245,85.0078 206.9922,85.3755 205.9315,86.4362 205.5638,86.0685 Z"/> 
<path style="fill:#000000; fill-opacity:1.0000; stroke:none;fill-rule:evenodd;" d="M 206.0588,84.4421 206.4265,84.8098 205.3658,85.8705 204.9981,85.5028 Z"/> 
<path style="fill:#000000; fill-opacity:1.0000; stroke:none;fill-rule:evenodd;" d="M 205.4931,83.8765 205.8608,84.2442 204.8001,85.3048 204.4324,84.9371 Z"/> 
<path style="fill:#000000; fill-opacity:1.0000; stroke:none;fill-rule:evenodd;" d="M 204.9274,83.3108 205.2951,83.6785 204.2345,84.7391 203.8668,84.3714 Z"/> 
<path style="fill:#000000; fill-opacity:1.0000; stroke:none;fill-rule:evenodd;" d="M 204.3617,82.7451 204.7294,83.1128 203.6688,84.1734 203.3011,83.8057 Z"/> 
<path style="fill:#000000; fill-opacity:1.0000; stroke:none;fill-rule:evenodd;" d="M 203.7961,82.1794 204.1637,82.5471 203.1031,83.6078 202.7354,83.2401 Z"/> 
<path style="fill:#000000; fill-opacity:1.0000; stroke:none;fill-rule:evenodd;" d="M 200.2039,82.1794 201.2646,83.2401 200.8969,83.6078 199.8363,82.5471 Z"/> 
<path style="fill:#000000; fill-opacity:1.0000; stroke:none;fill-rule:evenodd;" d="M 199.6383,82.7451 200.6989,83.8057 200.3312,84.1734 199.2706,83.1128 Z"/> 
<path style="fill:#000000; fill-opacity:1.0000; stroke:none;fill-rule:evenodd;" d="M 199.0726,83.3108 200.1332,84.3714 199.7655,84.7391 198.7049,83.6785 Z"/> 
<path style="fill:#000000; fill-opacity:1.0000; stroke:none;fill-rule:evenodd;" d="M 198.5069,83.8765 199.5676,84.9371 199.1999,85.3048 198.1392,84.2442 Z"/> 
<path style="fill:#000000; fill-opacity:1.0000; stroke:none;fill-rule:evenodd;" d="M 197.9412,84.4421 199.0019,85.5028 198.6342,85.8705 197.5735,84.8098 Z"/> 
<path style="fill:#000000; fill-opacity:1.0000; stroke:none;fill-rule:evenodd;" d="M 197.3755,85.0078 198.4362,86.0685 198.0685,86.4362 197.0078,85.3755 Z"/> 
<path style="fill:#000000; fill-opacity:1.0000; stroke:none;fill-rule:evenodd;" d="M 196.8098,85.5735 197.8705,86.6342 197.5028,87.0019 196.4421,85.9412 Z"/> 
<path style="fill:#000000; fill-opacity:1.0000; stroke:none;fill-rule:evenodd;" d="M 196.2442,86.1392 197.3048,87.1999 196.9371,87.5676 195.8765,86.5069 Z"/> 
<path style="fill:#000000; fill-opacity:1.0000; stroke:none;fill-rule:evenodd;" d="M 195.6785,86.7049 196.7391,87.7655 196.3714,88.1332 195.3108,87.0726 Z"/> 
<path style="fill:#000000; fill-opacity:1.0000; stroke:none;fill-rule:evenodd;" d="M 195.1128,87.2706 196.1734,88.3312 195.8057,88.6989 194.7451,87.6383 Z"/> 
<path style="fill:#000000; fill-opacity:1.0000; stroke:none;fill-rule:evenodd;" d="M 194.5471,87.8363 195.6078,88.8969 195.2401,89.2646 194.1794,88.2039 Z"/> 
<path style="fill:#000000; fill-opacity:1.0000; stroke:none;fill-rule:evenodd;" d="M 195.2401,90.7354 195.6078,91.1031 194.5471,92.1637 194.1794,91.7961 Z"/> 
<path style="fill:#000000; fill-opacity:1.0000; stroke:none;fill-rule:evenodd;" d="M 195.8057,91.3011 196.1734,91.6688 195.1128,92.7294 194.7451,92.3617 Z"/> 
<path style="fill:#000000; fill-opacity:1.0000; stroke:none;fill-rule:evenodd;" d="M 196.3714,91.8668 196.7391,92.2345 195.6785,93.2951 195.3108,92.9274 Z"/> 
<path style="fill:#000000; fill-opacity:1.0000; stroke:none;fill-rule:evenodd;" d="M 196.9371,92.4324 197.3048,92.8001 196.2442,93.8608 195.8765,93.4931 Z"/> 
<path style="fill:#000000; fill-opacity:1.0000; stroke:none;fill-rule:evenodd;" d="M 197.5028,92.9981 197.8705,93.3658 196.8098,94.4265 196.4421,94.0588 Z"/> 
<path style="fill:#000000; fill-opacity:1.0000; stroke:none;fill-rule:evenodd;" d="M 198.0685,93.5638 198.4362,93.9315 197.3755,94.9922 197.0078,94.6245 Z"/> 
<path style="fill:#000000; fill-opacity:1.0000; stroke:none;fill-rule:evenodd;" d="M 198.6342,94.1295 199.0019,94.4972 197.9412,95.5579 197.5735,95.1902 Z"/> 
<path style="fill:#000000; fill-opacity:1.0000; stroke:none;fill-rule:evenodd;" d="M 199.1999,94.6952 199.5676,95.0629 198.5069,96.1235 198.1392,95.7558 Z"/> 
<path style="fill:#000000; fill-opacity:1.0000; stroke:none;fill-rule:evenodd;" d="M 199.7655,95.2609 200.1332,95.6286 199.0726,96.6892 198.7049,96.3215 Z"/> 
<path style="fill:#000000; fill-opacity:1.0000; stroke:none;fill-rule:evenodd;" d="M 200.3312,95.8266 200.6989,96.1943 199.6383,97.2549 199.2706,96.8872 Z"/> 
<path style="fill:#000000; fill-opacity:1.0000; stroke:none;fill-rule:evenodd;" d="M 200.8969,96.3922 201.2646,96.7599 200.2039,97.8206 199.8363,97.4529 Z"/> 
<path style="fill:#000000; fill-opacity:1.0000; stroke:none;fill-rule:evenodd;" d="M 203.1031,96.3922 204.1637,97.4529 203.7961,97.8206 202.7354,96.7599 Z"/> 
<path style="fill:#000000; fill-opacity:1.0000; stroke:none;fill-rule:evenodd;" d="M 203.6688,95.8266 204.7294,96.8872 204.3617,97.2549 203.3011,96.1943 Z"/> 
<path style="fill:#000000; fill-opacity:1.0000; stroke:none;fill-rule:evenodd;" d="M 204.2345,95.2609 205.2951,96.3215 204.9274,96.6892 203.8668,95.6286 Z"/> 
<path style="fill:#000000; fill-opacity:1.0000; stroke:none;fill-rule:evenodd;" d="M 204.8001,94.6952 205.8608,95.7558 205.4931,96.1235 204.4324,95.0629 Z"/> 
<path style="fill:#000000; fill-opacity:1.0000; stroke:none;fill-rule:evenodd;" d="M 205.3658,94.1295 206.4265,95.1902 206.0588,95.5579 204.9981,94.4972 Z"/> 
<path style="fill:#000000; fill-opacity:1.0000; stroke:none;fill-rule:evenodd;" d="M 205.9315,93.5638 206.9922,94.6245 206.6245,94.9922 205.5638,93.9315 Z"/> 
<path style="fill:#000000; fill-opacity:1.0000; stroke:none;fill-rule:evenodd;" d="M 206.4972,92.9981 207.5579,94.0588 207.1902,94.4265 206.1295,93.3658 Z"/> 
<path style="fill:#000000; fill-opacity:1.0000; stroke:none;fill-rule:evenodd;" d="M 207.0629,92.4324 208.1235,93.4931 207.7558,93.8608 206.6952,92.8001 Z"/> 
<path style="fill:#000000; fill-opacity:1.0000; stroke:none;fill-rule:evenodd;" d="M 207.6286,91.8668 208.6892,92.9274 208.3215,93.2951 207.2609,92.2345 Z"/> 
<path style="fill:#000000; fill-opacity:1.0000; stroke:none;fill-rule:evenodd;" d="M 208.1943,91.3011 209.2549,92.3617 208.8872,92.7294 207.8266,91.6688 Z"/> 
<path style="fill:#000000; fill-opacity:1.0000; stroke:none;fill-rule:evenodd;" d="M 208.7599,90.7354 209.8206,91.7961 209.4529,92.1637 208.3922,91.1031 Z"/> 
<path style="fill:#000000; fill-opacity:1.0000; stroke:none;fill-rule:evenodd;" d="M 79.2000,75.8000 79.2000,74.2000 80.8000,74.2000 80.8000,75.8000 Z"/> 
</g>
<g style="fill:#000000; fill-opacity:1.0000; stroke:none;">
<circle cx="80.0000" cy="77.5400" r="0.8000"/> 
<circle cx="80.0000" cy="80.0800" r="0.8000"/> 
<circle cx="80.0000" cy="82.6200" r="0.8000"/> 
<circle cx="87.6200" cy="82.6200" r="0.8000"/> 
<circle cx="87.6200" cy="80.0800" r="0.8000"/> 
<circle cx="87.6200" cy="77.5400" r="0.8000"/> 
<circle cx="87.6200" cy="75.0000" r="0.8000"/> 
<circle cx="232.7000" cy="86.1000" r="0.8000"/> 
</g>
<g style="fill:#000000; fill-opacity:1.0000; stroke:none;">
<circle cx="240.3200" cy="86.1000" r="0.8000"/> 
<circle cx="235.2000" cy="79.1000" r="0.8000"/> 
</g>
<g style="fill:#000000; fill-opacity:1.0000; stroke:none;">
<circle cx="240.2000" cy="79.1000" r="0.8000"/> 
</g>
<g style="fill:#000000; fill-opacity:1.0000; stroke:none;">
<circle cx="203.5875" cy="103.5000" r="0.5537"/> 
</g>
<g style="fill:#000000; fill-opacity:1.0000; stroke:none;">
<circle cx="200.4125" cy="103.5000" r="0.5537"/> 
</g>
<g style="fill:#000000; fill-opacity:1.0000; stroke:none;">
<circle cx="258.4000" cy="93.0000" r="0.8000"/> 
</g>
<g style="fill:#000000; fill-opacity:1.0000; stroke:none;">
<circle cx="258.4000" cy="98.0000" r="0.8000"/> 
</g>
<g style="fill:#000000; fill-opacity:1.0000; stroke:none;">
<circle cx="112.1200" cy="84.8100" r="0.8000"/> 
</g>
<g style="fill:#000000; fill-opacity:1.0000; stroke:none;">
<circle cx="112.1200" cy="77.1900" r="0.8000"/> 
<circle cx="141.6000" cy="72.0000" r="0.8000"/> 
</g>
<g style="fill:#000000; fill-opacity:1.0000; stroke:none;">
<circle cx="146.6000" cy="72.0000" r="0.8000"/> 
</g>
<g style="fill:#000000; fill-opacity:1.0000; stroke:none;">
<circle cx="239.0000" cy="105.8100" r="0.8000"/> 
</g>
<g style="fill:#000000; fill-opacity:1.0000; stroke:none;">
<circle cx="239.0000" cy="98.1900" r="0.8000"/> 
<circle cx="229.0927" cy="102.9846" r="0.6731"/> 
</g>
<g style="fill:#000000; fill-opacity:1.0000; stroke:none;">
<circle cx="218.9073" cy="102.9846" r="0.6731"/> 
</g>
<g style="fill:#000000; fill-opacity:1.0000; stroke:none;">
<circle cx="217.8557" cy="105.7558" r="0.6731"/> 
</g>
<g style="fill:#000000; fill-opacity:1.0000; stroke:none;">
<circle cx="218.2139" cy="108.6946" r="0.6731"/> 
</g>
<g style="fill:#000000; fill-opacity:1.0000; stroke:none;">
<circle cx="219.8954" cy="111.1330" r="0.6731"/> 
</g>
<g style="fill:#000000; fill-opacity:1.0000; stroke:none;">
<circle cx="222.5192" cy="112.5096" r="0.6731"/> 
</g>
<g style="fill:#000000; fill-opacity:1.0000; stroke:none;">
<circle cx="225.4808" cy="112.5096" r="0.6731"/> 
</g>
<g style="fill:#000000; fill-opacity:1.0000; stroke:none;">
<circle cx="228.1046" cy="111.1330" r="0.6731"/> 
</g>
<g style="fill:#000000; fill-opacity:1.0000; stroke:none;">
<circle cx="229.7861" cy="108.6946" r="0.6731"/> 
</g>
<g style="fill:#000000; fill-opacity:1.0000; stroke:none;">
<circle cx="230.1443" cy="105.7558" r="0.6731"/> 
</g>
<g style="fill:#000000; fill-opacity:1.0000; stroke:none;">
<circle cx="224.0000" cy="100.3126" r="0.6731"/> 
</g>
<g style="fill:#000000; fill-opacity:1.0000; stroke:none;">
<circle cx="221.1247" cy="101.0212" r="0.6731"/> 
</g>
<g style="fill:#000000; fill-opacity:1.0000; stroke:none;">
<circle cx="226.8753" cy="101.0212" r="0.6731"/> 
</g>
<g style="fill:#000000; fill-opacity:1.0000; stroke:none;">
<circle cx="94.6000" cy="111.0000" r="0.4000"/> 
</g>
<g style="fill:#000000; fill-opacity:1.0000; stroke:none;">
<circle cx="95.3029" cy="109.3029" r="0.4000"/> 
</g>
<g style="fill:#000000; fill-opacity:1.0000; stroke:none;">
<circle cx="95.3029" cy="112.6971" r="0.4000"/> 
</g>
<g style="fill:#000000; fill-opacity:1.0000; stroke:none;">
<circle cx="97.0000" cy="108.6000" r="0.4000"/> 
</g>
<g style="fill:#000000; fill-opacity:1.0000; stroke:none;">
<circle cx="97.0000" cy="111.0000" r="3.2000"/> 
</g>
<g style="fill:#000000; fill-opacity:1.0000; stroke:none;">
<circle cx="97.0000" cy="113.4000" r="0.4000"/> 
</g>
<g style="fill:#000000; fill-opacity:1.0000; stroke:none;">
<circle cx="98.6971" cy="109.3029" r="0.4000"/> 
</g>
<g style="fill:#000000; fill-opacity:1.0000; stroke:none;">
<circle cx="98.6971" cy="112.6971" r="0.4000"/> 
</g>
<g style="fill:#000000; fill-opacity:1.0000; stroke:none;">
<circle cx="99.4000" cy="111.0000" r="0.4000"/> 
</g>
<g style="fill:#000000; fill-opacity:1.0000; stroke:none;">
<circle cx="127.6000" cy="99.1000" r="0.8000"/> 
</g>
<g style="fill:#000000; fill-opacity:1.0000; stroke:none;">
<circle cx="124.0645" cy="102.6355" r="0.8000"/> 
</g>
<g style="fill:#000000; fill-opacity:1.0000; stroke:none;">
<circle cx="94.6200" cy="91.4300" r="1.7500"/> 
<path style="fill:#000000; fill-opacity:1.0000; stroke:none;fill-rule:evenodd;" d="M 98.1125,73.7700 98.1125,75.7700 96.2075,75.7700 96.2075,73.7700 Z"/> 
</g>
<g style="fill:none;  stroke:#000000; stroke-width:1.9050; stroke-opacity:1;  stroke-linecap:round; stroke-linejoin:round;">
<path d="M94.6200 74.8175 L94.6200 74.7225 "/>
<path d="M92.0800 74.8175 L92.0800 74.7225 "/>
</g>
<g style="fill:#000000; fill-opacity:1.0000; stroke:none;">
<circle cx="95.8000" cy="105.8100" r="0.8000"/> 
</g>
<g style="fill:#000000; fill-opacity:1.0000; stroke:none;">
<circle cx="95.8000" cy="98.1900" r="0.8000"/> 
<circle cx="138.0000" cy="113.5000" r="0.8000"/> 
</g>
<g style="fill:#000000; fill-opacity:1.0000; stroke:none;">
<circle cx="138.0000" cy="105.8800" r="0.8000"/> 
<path style="fill:#000000; fill-opacity:1.0000; stroke:none;fill-rule:evenodd;" d="M 104.8200,71.2000 106.4200,71.2000 106.4200,72.8000 104.8200,72.8000 Z"/> 
<circle cx="105.6200" cy="75.5000" r="0.8000"/> 
</g>
<g style="fill:#000000; fill-opacity:1.0000; stroke:none;">
<circle cx="154.9050" cy="67.3050" r="0.8000"/> 
</g>
<g style="fill:#000000; fill-opacity:1.0000; stroke:none;">
<circle cx="162.5250" cy="67.3050" r="0.8000"/> 
<circle cx="126.0000" cy="113.5000" r="0.8000"/> 
</g>
<g style="fill:#000000; fill-opacity:1.0000; stroke:none;">
<circle cx="126.0000" cy="105.8800" r="0.8000"/> 
<circle cx="133.5875" cy="110.5000" r="0.5537"/> 
</g>
<g style="fill:#000000; fill-opacity:1.0000; stroke:none;">
<circle cx="130.4125" cy="110.5000" r="0.5537"/> 
</g>
<g style="fill:#000000; fill-opacity:1.0000; stroke:none;">
<circle cx="121.9700" cy="74.4000" r="1.7500"/> 
<path style="fill:#000000; fill-opacity:1.0000; stroke:none;fill-rule:evenodd;" d="M 139.6300,77.8925 137.6300,77.8925 137.6300,75.9875 139.6300,75.9875 Z"/> 
</g>
<g style="fill:none;  stroke:#000000; stroke-width:1.9050; stroke-opacity:1;  stroke-linecap:round; stroke-linejoin:round;">
<path d="M138.5825 74.4000 L138.6775 74.4000 "/>
<path d="M138.5825 71.8600 L138.6775 71.8600 "/>
</g>
<g style="fill:#000000; fill-opacity:1.0000; stroke:none;">
<circle cx="254.6000" cy="65.0000" r="0.4000"/> 
</g>
<g style="fill:#000000; fill-opacity:1.0000; stroke:none;">
<circle cx="255.3029" cy="63.3029" r="0.4000"/> 
</g>
<g style="fill:#000000; fill-opacity:1.0000; stroke:none;">
<circle cx="255.3029" cy="66.6971" r="0.4000"/> 
</g>
<g style="fill:#000000; fill-opacity:1.0000; stroke:none;">
<circle cx="257.0000" cy="62.6000" r="0.4000"/> 
</g>
<g style="fill:#000000; fill-opacity:1.0000; stroke:none;">
<circle cx="257.0000" cy="65.0000" r="3.2000"/> 
</g>
<g style="fill:#000000; fill-opacity:1.0000; stroke:none;">
<circle cx="257.0000" cy="67.4000" r="0.4000"/> 
</g>
<g style="fill:#000000; fill-opacity:1.0000; stroke:none;">
<circle cx="258.6971" cy="63.3029" r="0.4000"/> 
</g>
<g style="fill:#000000; fill-opacity:1.0000; stroke:none;">
<circle cx="258.6971" cy="66.6971" r="0.4000"/> 
</g>
<g style="fill:#000000; fill-opacity:1.0000; stroke:none;">
<circle cx="259.4000" cy="65.0000" r="0.4000"/> 
</g>
<g style="fill:#000000; fill-opacity:1.0000; stroke:none;">
<circle cx="234.6000" cy="111.0000" r="0.4000"/> 
</g>
<g style="fill:#000000; fill-opacity:1.0000; stroke:none;">
<circle cx="235.3029" cy="109.3029" r="0.4000"/> 
</g>
<g style="fill:#000000; fill-opacity:1.0000; stroke:none;">
<circle cx="235.3029" cy="112.6971" r="0.4000"/> 
</g>
<g style="fill:#000000; fill-opacity:1.0000; stroke:none;">
<circle cx="237.0000" cy="108.6000" r="0.4000"/> 
</g>
<g style="fill:#000000; fill-opacity:1.0000; stroke:none;">
<circle cx="237.0000" cy="111.0000" r="3.2000"/> 
</g>
<g style="fill:#000000; fill-opacity:1.0000; stroke:none;">
<circle cx="237.0000" cy="113.4000" r="0.4000"/> 
</g>
<g style="fill:#000000; fill-opacity:1.0000; stroke:none;">
<circle cx="238.6971" cy="109.3029" r="0.4000"/> 
</g>
<g style="fill:#000000; fill-opacity:1.0000; stroke:none;">
<circle cx="238.6971" cy="112.6971" r="0.4000"/> 
</g>
<g style="fill:#000000; fill-opacity:1.0000; stroke:none;">
<circle cx="239.4000" cy="111.0000" r="0.4000"/> 
</g>
<g style="fill:#000000; fill-opacity:1.0000; stroke:none;">
<circle cx="73.6000" cy="65.0000" r="0.4000"/> 
</g>
<g style="fill:#000000; fill-opacity:1.0000; stroke:none;">
<circle cx="74.3029" cy="63.3029" r="0.4000"/> 
</g>
<g style="fill:#000000; fill-opacity:1.0000; stroke:none;">
<circle cx="74.3029" cy="66.6971" r="0.4000"/> 
</g>
<g style="fill:#000000; fill-opacity:1.0000; stroke:none;">
<circle cx="76.0000" cy="62.6000" r="0.4000"/> 
</g>
<g style="fill:#000000; fill-opacity:1.0000; stroke:none;">
<circle cx="76.0000" cy="65.0000" r="3.2000"/> 
</g>
<g style="fill:#000000; fill-opacity:1.0000; stroke:none;">
<circle cx="76.0000" cy="67.4000" r="0.4000"/> 
</g>
<g style="fill:#000000; fill-opacity:1.0000; stroke:none;">
<circle cx="77.6971" cy="63.3029" r="0.4000"/> 
</g>
<g style="fill:#000000; fill-opacity:1.0000; stroke:none;">
<circle cx="77.6971" cy="66.6971" r="0.4000"/> 
</g>
<g style="fill:#000000; fill-opacity:1.0000; stroke:none;">
<circle cx="78.4000" cy="65.0000" r="0.4000"/> 
</g>
<g style="fill:#000000; fill-opacity:1.0000; stroke:none;">
<circle cx="196.0000" cy="113.5000" r="0.8000"/> 
</g>
<g style="fill:#000000; fill-opacity:1.0000; stroke:none;">
<circle cx="196.0000" cy="105.8800" r="0.8000"/> 
<path style="fill:#000000; fill-opacity:1.0000; stroke:none;fill-rule:evenodd;" d="M 107.8400,65.4000 107.8400,67.6000 105.6400,67.6000 105.6400,65.4000 Z"/> 
<circle cx="99.1200" cy="66.5000" r="1.1000"/> 
<circle cx="159.0927" cy="102.9846" r="0.6731"/> 
</g>
<g style="fill:#000000; fill-opacity:1.0000; stroke:none;">
<circle cx="148.9073" cy="102.9846" r="0.6731"/> 
</g>
<g style="fill:#000000; fill-opacity:1.0000; stroke:none;">
<circle cx="147.8557" cy="105.7558" r="0.6731"/> 
</g>
<g style="fill:#000000; fill-opacity:1.0000; stroke:none;">
<circle cx="148.2139" cy="108.6946" r="0.6731"/> 
</g>
<g style="fill:#000000; fill-opacity:1.0000; stroke:none;">
<circle cx="149.8954" cy="111.1330" r="0.6731"/> 
</g>
<g style="fill:#000000; fill-opacity:1.0000; stroke:none;">
<circle cx="152.5192" cy="112.5096" r="0.6731"/> 
</g>
<g style="fill:#000000; fill-opacity:1.0000; stroke:none;">
<circle cx="155.4808" cy="112.5096" r="0.6731"/> 
</g>
<g style="fill:#000000; fill-opacity:1.0000; stroke:none;">
<circle cx="158.1046" cy="111.1330" r="0.6731"/> 
</g>
<g style="fill:#000000; fill-opacity:1.0000; stroke:none;">
<circle cx="159.7861" cy="108.6946" r="0.6731"/> 
</g>
<g style="fill:#000000; fill-opacity:1.0000; stroke:none;">
<circle cx="160.1443" cy="105.7558" r="0.6731"/> 
</g>
<g style="fill:#000000; fill-opacity:1.0000; stroke:none;">
<circle cx="154.0000" cy="100.3126" r="0.6731"/> 
</g>
<g style="fill:#000000; fill-opacity:1.0000; stroke:none;">
<circle cx="151.1247" cy="101.0212" r="0.6731"/> 
</g>
<g style="fill:#000000; fill-opacity:1.0000; stroke:none;">
<circle cx="156.8753" cy="101.0212" r="0.6731"/> 
</g>
<g style="fill:#000000; fill-opacity:1.0000; stroke:none;">
<circle cx="154.9050" cy="70.3050" r="0.8000"/> 
</g>
<g style="fill:#000000; fill-opacity:1.0000; stroke:none;">
<circle cx="162.5250" cy="70.3050" r="0.8000"/> 
<circle cx="251.2000" cy="73.6000" r="1.9575"/> 
</g>
<g style="fill:#000000; fill-opacity:1.0000; stroke:none;">
<circle cx="251.2000" cy="85.0000" r="1.9575"/> 
</g>
<g style="fill:#000000; fill-opacity:1.0000; stroke:none;">
<circle cx="243.7000" cy="76.8000" r="0.7500"/> 
</g>
<g style="fill:#000000; fill-opacity:1.0000; stroke:none;">
<circle cx="243.7000" cy="81.8000" r="0.7500"/> 
</g>
<g style="fill:#000000; fill-opacity:1.0000; stroke:none;">
<circle cx="243.7000" cy="79.3000" r="0.7500"/> 
</g>
<g style="fill:#000000; fill-opacity:1.0000; stroke:none;">
<circle cx="258.2000" cy="76.8000" r="0.7500"/> 
</g>
<g style="fill:#000000; fill-opacity:1.0000; stroke:none;">
<circle cx="258.2000" cy="81.8000" r="0.7500"/> 
</g>
<g style="fill:#000000; fill-opacity:1.0000; stroke:none;">
<circle cx="203.5875" cy="110.5000" r="0.5537"/> 
</g>
<g style="fill:#000000; fill-opacity:1.0000; stroke:none;">
<circle cx="200.4125" cy="110.5000" r="0.5537"/> 
<path style="fill:#000000; fill-opacity:1.0000; stroke:none;fill-rule:evenodd;" d="M 76.6250,70.5500 78.3250,70.5500 78.3250,72.2500 76.6250,72.2500 Z"/> 
</g>
<g style="fill:#000000; fill-opacity:1.0000; stroke:none;">
<circle cx="74.9350" cy="71.4000" r="0.8500"/> 
<circle cx="255.0927" cy="102.9846" r="0.6731"/> 
</g>
<g style="fill:#000000; fill-opacity:1.0000; stroke:none;">
<circle cx="244.9073" cy="102.9846" r="0.6731"/> 
</g>
<g style="fill:#000000; fill-opacity:1.0000; stroke:none;">
<circle cx="243.8557" cy="105.7558" r="0.6731"/> 
</g>
<g style="fill:#000000; fill-opacity:1.0000; stroke:none;">
<circle cx="244.2139" cy="108.6946" r="0.6731"/> 
</g>
<g style="fill:#000000; fill-opacity:1.0000; stroke:none;">
<circle cx="245.8954" cy="111.1330" r="0.6731"/> 
</g>
<g style="fill:#000000; fill-opacity:1.0000; stroke:none;">
<circle cx="248.5192" cy="112.5096" r="0.6731"/> 
</g>
<g style="fill:#000000; fill-opacity:1.0000; stroke:none;">
<circle cx="251.4808" cy="112.5096" r="0.6731"/> 
</g>
<g style="fill:#000000; fill-opacity:1.0000; stroke:none;">
<circle cx="254.1046" cy="111.1330" r="0.6731"/> 
</g>
<g style="fill:#000000; fill-opacity:1.0000; stroke:none;">
<circle cx="255.7861" cy="108.6946" r="0.6731"/> 
</g>
<g style="fill:#000000; fill-opacity:1.0000; stroke:none;">
<circle cx="256.1443" cy="105.7558" r="0.6731"/> 
</g>
<g style="fill:#000000; fill-opacity:1.0000; stroke:none;">
<circle cx="250.0000" cy="100.3126" r="0.6731"/> 
</g>
<g style="fill:#000000; fill-opacity:1.0000; stroke:none;">
<circle cx="247.1247" cy="101.0212" r="0.6731"/> 
</g>
<g style="fill:#000000; fill-opacity:1.0000; stroke:none;">
<circle cx="252.8753" cy="101.0212" r="0.6731"/> 
</g>
<g style="fill:#000000; fill-opacity:1.0000; stroke:none;">
<circle cx="241.0300" cy="89.6995" r="0.8000"/> 
</g>
<g style="fill:#000000; fill-opacity:1.0000; stroke:none;">
<circle cx="248.6500" cy="89.6995" r="0.8000"/> 
<circle cx="168.1000" cy="97.5000" r="0.8000"/> 
</g>
<g style="fill:#000000; fill-opacity:1.0000; stroke:none;">
<circle cx="163.1000" cy="97.5000" r="0.8000"/> 
</g>
<g style="fill:#000000; fill-opacity:1.0000; stroke:none;">
<circle cx="151.5250" cy="72.3050" r="0.8000"/> 
</g>
<g style="fill:#000000; fill-opacity:1.0000; stroke:none;">
<circle cx="151.5250" cy="67.3050" r="0.8000"/> 
</g>
<g style="fill:#000000; fill-opacity:1.0000; stroke:none;">
<circle cx="164.7000" cy="83.6000" r="0.8000"/> 
</g>
<g style="fill:#000000; fill-opacity:1.0000; stroke:none;">
<circle cx="159.7000" cy="83.6000" r="0.8000"/> 
</g>
<g style="fill:#000000; fill-opacity:1.0000; stroke:none;">
<circle cx="169.0000" cy="113.5000" r="0.8000"/> 
</g>
<g style="fill:#000000; fill-opacity:1.0000; stroke:none;">
<circle cx="169.0000" cy="105.8800" r="0.8000"/> 
<path style="fill:#000000; fill-opacity:1.0000; stroke:none;fill-rule:evenodd;" d="M 83.4200,85.2000 83.4200,86.8000 81.8200,86.8000 81.8200,85.2000 Z"/> 
<circle cx="75.0000" cy="86.0000" r="0.8000"/> 
<circle cx="151.5250" cy="74.6850" r="0.8000"/> 
</g>
<g style="fill:#000000; fill-opacity:1.0000; stroke:none;">
<circle cx="151.5250" cy="82.3050" r="0.8000"/> 
<circle cx="141.6000" cy="77.0000" r="0.8000"/> 
</g>
<g style="fill:#000000; fill-opacity:1.0000; stroke:none;">
<circle cx="146.6000" cy="77.0000" r="0.8000"/> 
</g>
<g style="fill:#000000; fill-opacity:1.0000; stroke:none;">
<circle cx="230.9300" cy="89.6995" r="0.8000"/> 
</g>
<g style="fill:#000000; fill-opacity:1.0000; stroke:none;">
<circle cx="238.5500" cy="89.6995" r="0.8000"/> 
<circle cx="77.1200" cy="74.5000" r="0.8000"/> 
</g>
<g style="fill:#000000; fill-opacity:1.0000; stroke:none;">
<circle cx="77.1200" cy="79.5000" r="0.8000"/> 
<path style="fill:#000000; fill-opacity:1.0000; stroke:none;fill-rule:evenodd;" d="M 132.3000,65.8050 132.3000,68.4050 129.7000,68.4050 129.7000,65.8050 Z"/> 
</g>
<g style="fill:#000000; fill-opacity:1.0000; stroke:none;">
<circle cx="125.9200" cy="67.1050" r="1.3000"/> 
</g> 
</mask></defs><g transform="" id="boardContainer"><g id="substrate" clip-path="url(#cut-off)" mask="url(#pads-mask-silkscreen)"><g id="substrate-board" style="fill:#143324; fill-opacity:0.25098039215686274; stroke:#143324; stroke-width:0;"><path d=" M 76.0 116.0 L 257.0 116.0 A 4 4 0 0 0 261.0 112.0 L 261.0 65.0 A 4 4 0 0 0 257.0 61.0 L 76.0 61.0 A 4 4 0 0 0 72.0 65.0 L 72.0 112.0 A 4 4 0 0 0 76.0 116.0 " style="fill-rule: evenodd;"/><g style="fill: none;stroke: #4ca06c;stroke-width: 0.2000;stroke-opacity: 1;stroke-linecap: round;stroke-linejoin: round">
<path d="M72.0000 112.0000 A4.0000 4.0000 0.0 0 0 76.0000 116.0000"/>
<path d="M76.0000 61.0000 A4.0000 4.0000 0.0 0 0 72.0000 65.0000"/>
<path d="M76.0000 116.0000 L257.0000 116.0000 "/>
<path d="M257.0000 116.0000 A4.0000 4.0000 0.0 0 0 261.0000 112.0000"/>
<path d="M257.0000 61.0000 L76.0000 61.0000 "/>
<path d="M261.0000 112.0000 L261.0000 65.0000 "/>
<path d="M72.0000 112.0000 L72.0000 65.0000 "/>
<path d="M261.0000 65.0000 A4.0000 4.0000 0.0 0 0 257.0000 61.0000"/>
</g> 
</g></g></g></svg>
